<?xml version="1.0" encoding="UTF-8"?>
<!DOCTYPE svg PUBLIC "-//W3C//DTD SVG 1.1//EN" "http://www.w3.org/Graphics/SVG/1.1/DTD/svg11.dtd">
<!-- Creator: CorelDRAW 2021.5 -->
<svg xmlns="http://www.w3.org/2000/svg" xml:space="preserve" width="297mm" height="210mm" version="1.1" shape-rendering="geometricPrecision" text-rendering="geometricPrecision" image-rendering="optimizeQuality" fill-rule="evenodd" clip-rule="evenodd"
viewBox="0 0 29698.94 20999.25"
 xmlns:xlink="http://www.w3.org/1999/xlink"
 xmlns:xodm="http://www.corel.com/coreldraw/odm/2003">
 <g id="Тени">
  <metadata id="CorelCorpID_0Corel-Layer"/>
  <rect fill="none" width="29698.94" height="20999.25"/>
  <g id="_2237958338480">
   <polygon fill="black" fill-opacity="0.101961" points="17172.13,3584.33 19710.21,3584.33 19710.21,3744.38 17369.38,3744.38 17172.27,3850.89 17172.13,3744.38 "/>
   <polygon fill="black" fill-opacity="0.101961" points="13815.76,5326.66 13785.7,5236.82 13655.73,5236.74 13634.83,6363.86 13755.13,6351.95 13825.45,6300.09 "/>
   <path fill="black" fill-opacity="0.101961" d="M8819.79 6832.28c1884.85,0 3769.7,0 5654.55,0 -8.62,93.36 -40.88,142.28 -40.88,142.28 -1855.99,0 -3711.99,0 -5567.99,0 0,9.22 -38.47,-68.1 -45.68,-142.28z"/>
   <path fill="black" fill-opacity="0.101961" d="M10236.37 2517.36c657.62,82.52 860.63,243.73 1386.84,252.53 560.85,9.39 720.63,-126.26 1593.07,-270.71 -490.58,11.41 -970.57,40.47 -1461.16,51.9l-1518.76 -33.72z"/>
   <path fill="black" fill-opacity="0.101961" d="M12822.91 15051.57c-135.42,17.17 -311.74,54.81 -411.54,137.41 -177.64,147.03 -136.44,968.87 -145.8,736.4 -9.37,-232.46 44.58,-522.46 -135.69,-725.35 -97.16,-109.34 -376.04,-143.97 -612.63,-152.64 -138.52,14.88 -338.23,51.58 -446.99,141.59 -177.66,147.03 -136.44,968.87 -145.8,736.4 -9.37,-232.46 44.58,-522.46 -135.72,-725.35 -180.26,-202.92 -986.62,-148.51 -986.62,-148.51 0,0 778.9,10.61 969.54,-151.64 190.63,-162.25 149.96,-601.9 149.96,-601.9 0,0 -12.15,152.64 25.49,315.01 3.06,-192.63 2.38,-399.15 -135.71,-554.57 -180.29,-202.92 -986.65,-148.51 -986.65,-148.51 0,0 778.9,10.62 969.54,-151.63 190.63,-162.26 149.99,-601.91 149.99,-601.91 0,0 -31.76,397.91 165.65,592.08 113.14,111.28 287.41,143.32 415.57,150.45 231.11,-15.64 506.69,-52.79 609.89,-140.62 190.63,-162.26 150,-601.91 150,-601.91 0,0 -31.73,397.91 165.65,592.08 112.09,110.25 284.19,142.75 412,150.26l-1.13 9.23c-137.23,16.18 -324.03,53.47 -427.9,139.45 -101.1,83.68 -131.29,385.83 -140.27,587.88 24.09,92.68 65.13,186.37 134.69,254.79 106.12,104.37 266.02,139.07 391.24,148.83l3.26 12.7zm-534.66 -438.59c3.05,-192.63 2.37,-399.15 -135.75,-554.57 -97.13,-109.34 -376.03,-143.97 -612.62,-152.64 -138.52,14.88 -338.23,51.58 -446.99,141.6 -101.1,83.68 -131.31,385.83 -140.29,587.88 24.06,92.68 65.13,186.37 134.69,254.79 113.17,111.28 287.41,143.33 415.59,150.45 231.08,-15.63 506.69,-52.79 609.9,-140.62 190.63,-162.25 149.99,-601.9 149.99,-601.9 0,0 -12.15,152.64 25.49,315.01z"/>
   <path fill="black" fill-opacity="0.101961" d="M10882.12 2817.83c0,0 37.64,542.87 -138.92,743.2 -176.54,200.32 -897.98,187.22 -897.98,187.22 0,0 746.84,-67.18 913.83,183.34 166.98,250.53 84.35,734.4 93.05,1021.43l0.56 19.31c-190.26,34 -379.02,130.56 -667.69,162.41l1473.47 -32.4c490.58,8.8 955.47,23.87 1446.04,32.67 -463.03,-54.19 -661.13,-160.95 -871.76,-203.86 5.11,-282.12 -33.74,-747.38 130.61,-993.97 164.35,-246.58 913.84,-183.34 913.84,-183.34 0,0 -721.43,13.1 -897.99,-187.22 -176.55,-200.33 -138.91,-743.18 -138.91,-743.18 0,0 29.37,491.3 -153.43,731.02 -182.81,239.73 -538.01,181.8 -538.01,181.8 0,0 413.22,32.25 553.77,187.31 140.56,155.07 125.87,801.4 127.67,1007.09 -167.24,-33.94 -321.89,-55.97 -569.66,-52.79 -310.69,4 -532.23,45.21 -806.9,94.3 0.2,-149.72 20.2,-893.26 166.08,-1054.19 145.89,-160.92 526.68,-187.3 526.68,-187.3 0,0 -328.11,57.92 -510.91,-181.81 -182.8,-239.72 -153.43,-731.04 -153.43,-731.04z"/>
   <polygon fill="black" fill-opacity="0.101961" points="9543.66,5297.55 9580,5244.52 9704.02,5234.23 9718.52,6351.65 9602.18,6351.65 9529.78,6265.15 "/>
   <g>
    <line fill="none" stroke="black" stroke-width="10.58" stroke-miterlimit="22.9256" x1="9542.96" y1="13897.26" x2="13837.41" y2= "13894.58" />
    <rect fill="none" stroke="black" stroke-width="10.58" stroke-miterlimit="22.9256" x="9542.95" y="11622.11" width="4294.46" height="4575.14" rx="35.39" ry="95.32"/>
    <path fill="none" stroke="black" stroke-width="10.58" stroke-miterlimit="22.9256" d="M9479.2 10266.49l-510.04 0c-38.15,0 -43.53,18.55 -58.57,34.32 -64.02,67.21 -80.74,330.99 -72.55,851.78 7.04,448.41 -1.97,3808.44 -1.97,4065.71 0,638.14 11.85,915.99 71.47,968.7 13.4,7.91 -4.08,13.69 61.62,13.69l510.04 0c35.08,0 63.76,-28.68 63.76,-63.75l0 -5806.7c0,-35.08 -28.68,-63.75 -63.76,-63.75z"/>
    <path fill="none" stroke="black" stroke-width="10.58" stroke-miterlimit="22.9256" d="M14413.5 10284.52l-499.48 0c-34.35,0 -62.43,28.09 -62.43,62.44l0 5809.34c0,34.32 28.08,62.43 62.43,62.43l486.76 0c65.46,0 59.87,-15.72 80.23,-53.2 48.93,-129.93 55.33,-457.76 55.33,-932.92 0,-255.95 -15.56,-3598.64 -3.41,-4044.74 10.29,-378.68 -4.75,-705.29 -58.54,-844.08 -23.22,-44.64 -37.26,-59.28 -60.89,-59.28z"/>
    <path fill="none" stroke="black" stroke-width="10.58" stroke-miterlimit="22.9256" d="M13837.4 10450.31c-14.21,-161.01 -265.05,-156.66 -641.88,-141.7 -324.49,12.88 -2755.8,-3.61 -2941.97,-3.61 -461.75,0 -690.37,-33.3 -710.61,156.61"/>
    <path fill="none" stroke="black" stroke-width="10.58" stroke-miterlimit="22.9256" d="M13754.76 12475.3c-6.7,67.43 -13.58,252.83 -185.15,332.32 -195.84,90.73 -700.62,121.67 -1178.67,132.23 -29.22,0.65 -55.14,-40.23 -82.87,-39.77 -28.17,0.48 -58.14,42.34 -85.17,42.68 -188.45,2.39 -355.08,1.77 -569.52,3.09 -193.85,1.22 -386.98,-2.9 -594.11,-4.57 -43.07,-0.35 -79.47,-37.15 -123.89,-37.24 -31.21,-0.05 -69.48,36.11 -100.1,35.41 -77.65,-1.78 -153.36,-5.62 -226.49,-11.1 -333.21,-24.98 -613.27,-84.5 -783.92,-143.89 -170.4,-59.29 -220.22,-265.94 -205.53,-329.08"/>
    <path fill="none" stroke="black" stroke-width="10.58" stroke-miterlimit="22.9256" d="M9778.67 11620.61l3829.74 0c75.08,0 132.95,96.96 136.51,214.91l17.06 565.27c3.57,117.99 -61.51,209.51 -136.51,214.91 -691.54,61.14 -1259.79,61.66 -2013.68,77.31 -735.4,15.27 -1183.26,-16.66 -1858.72,-77.31 -74.99,-5.4 -141.84,-96.99 -136.5,-214.91l25.59 -565.27c5.34,-117.92 61.43,-214.91 136.51,-214.91z"/>
    <line fill="none" stroke="black" stroke-width="10.58" stroke-miterlimit="22.9256" x1="9542.95" y1="15038.88" x2="13837.41" y2= "15036.2" />
    <line fill="none" stroke="black" stroke-width="10.58" stroke-miterlimit="22.9256" x1="10952.75" y1="16183.14" x2="10950.1" y2= "12693.58" />
    <line fill="none" stroke="black" stroke-width="10.58" stroke-miterlimit="22.9256" x1="12296.16" y1="16197.24" x2="12293.52" y2= "12679.95" />
   </g>
   <g>
    <path fill="none" stroke="black" stroke-width="10.58" stroke-miterlimit="22.9256" d="M9467.35 3826.86l-499.48 0c-19.07,0 -36.19,8.64 -47.66,22.22l0 -10.53c-62.79,25.47 -74.67,176.11 -67.11,453.23 6.51,238.61 -1.83,2026.5 -1.83,2163.39 0,339.56 10.99,487.39 66.13,515.44l0 -11.93c11.37,15.61 29.78,25.79 50.47,25.79l499.48 0c34.35,0 62.43,-28.09 62.43,-62.43l0 -3032.76c0,-34.35 -28.08,-62.43 -62.43,-62.43z"/>
    <path fill="none" stroke="black" stroke-width="10.58" stroke-miterlimit="22.9256" d="M9572.65 5234.24c1411.33,0 2793.1,0 4204.34,0 23.59,0 42.9,55.89 42.9,124.17l0 869.1c0,68.29 -19.31,124.16 -42.9,124.16l-4204.34 0c-23.59,0 -42.9,-55.87 -42.9,-124.16l0 -869.1c0,-68.29 19.31,-124.17 42.9,-124.17z"/>
    <path fill="none" stroke="black" stroke-width="10.58" stroke-miterlimit="22.9256" d="M9529.86 5234.85l0 -2267.44c-1.02,-116.43 7.72,-172.62 58.57,-181.56m4116.89 -7.09c84.94,11.5 115.57,109.24 111.62,215.49l2.95 2569.49"/>
    <path fill="none" stroke="black" stroke-width="10.58" stroke-miterlimit="22.9256" d="M9758.01 5140.02c613.64,0 1195.38,-37.93 1808.99,-37.93 621.92,0 1408.34,39.07 2030.25,39.07 113.28,0 109.8,-113.71 109.8,-276.9 0,-281.74 -37.31,-755.76 -37.31,-1037.5 0,-395.12 37.31,-807.27 37.31,-1202.43 0,-163.16 -141.77,-109.52 -255.04,-109.52 -655.06,0 -1248.73,23.63 -1903.76,23.63 -543.51,0 -1099.34,-11.54 -1642.78,-22.53 -36.98,-0.73 -150.25,-1.16 -187.24,-1.16 -113.27,0 -119.7,27.98 -119.7,191.18 0,341.42 17.85,744.47 17.85,1085.88 0,335.45 -27.8,872.57 -27.8,1208.01 0,163.2 56.18,140.19 169.44,140.19z"/>
    <line fill="none" stroke="black" stroke-width="10.58" stroke-miterlimit="22.9256" x1="9616.38" y1="3742.36" x2="13675.31" y2= "3745" />
    <line fill="none" stroke="black" stroke-width="10.58" stroke-miterlimit="22.9256" x1="10897.52" y1="2533.77" x2="10895.84" y2= "5125.66" />
    <line fill="none" stroke="black" stroke-width="10.58" stroke-miterlimit="22.9256" x1="12240.81" y1="2531.39" x2="12236.03" y2= "5125.66" />
    <path fill="none" stroke="black" stroke-width="10.58" stroke-miterlimit="22.9256" d="M14391.95 3742l-499.48 0c-34.35,0 -62.43,28.08 -62.43,62.43l0 3115.09c0,34.35 28.08,62.43 62.43,62.43l499.48 0c53.31,0 45.74,-6.21 55.41,-12.26 55.17,-28.62 66.13,-179.53 66.13,-526.13 0,-139.74 -8.34,-1964.78 -1.83,-2208.33 7.56,-282.88 -8.78,-459.06 -71.56,-485.07 -10.24,-1.37 -6.46,-8.15 -48.15,-8.15z"/>
    <rect fill="none" stroke="black" stroke-width="10.58" stroke-miterlimit="22.9256" x="9529.78" y="6351.66" width="4300.26" height="618.15"/>
    <rect fill="none" stroke="black" stroke-width="10.58" stroke-miterlimit="22.9256" x="8943.13" y="6984.49" width="540" height="793.11"/>
    <rect fill="none" stroke="black" stroke-width="10.58" stroke-miterlimit="22.9256" x="13872.2" y="6982.33" width="540" height="793.11"/>
   </g>
   <g>
    <path fill="none" stroke="black" stroke-width="10.58" stroke-miterlimit="22.9256" d="M23128.9 5093.07c86.14,25.03 149.56,104.96 149.56,198.89l0 840.01c0,94.94 -64.78,175.48 -152.26,199.65"/>
    <path fill="none" stroke="black" stroke-width="10.58" stroke-miterlimit="22.9256" d="M18479 3750.18c1.32,-28.62 -0.49,-825.88 -4.05,-846.75 -25.63,-149.19 -162.63,-116.87 -208.16,-116.66 -240.64,1.11 -891.96,2.43 -930.59,2.89 -139.72,1.68 -181.97,270.67 -168.85,537.4 3.78,77.11 5.05,302.53 4.92,585.51"/>
    <path fill="none" stroke="black" stroke-width="10.58" stroke-miterlimit="22.9256" d="M18637.95 3745.86l-37.53 -974.21c-4.78,-124.14 -29.78,-248.85 147.35,-256.2l522.86 -21.73c47.01,-1.94 174.91,-5.89 182.4,188.41l40.98 1063.72"/>
    <path fill="none" stroke="black" stroke-width="10.58" stroke-miterlimit="22.9256" d="M18658.34 2544.18c-160.63,12.85 -191.82,405.19 -170.08,574.66 10.18,79.46 23.96,364.61 34.91,621.45"/>
    <path fill="none" stroke="black" stroke-width="10.58" stroke-miterlimit="22.9256" d="M19270.67 2493.72c161.11,0.03 355.18,218.2 377.7,388.75 23.8,180.07 46.12,588.16 58.63,863.39"/>
    <rect fill="none" stroke="black" stroke-width="10.58" stroke-miterlimit="22.9256" transform="matrix(2.45875E-14 -2.41068 1.24743 8.57878E-14 17155 6981.95)" width="1340.61" height="4789.06" rx="96.84" ry="96.84"/>
    <path fill="none" stroke="black" stroke-width="10.58" stroke-miterlimit="22.9256" d="M17155.03 7718.13l0 -678.89c0,-31.52 25.77,-57.3 57.31,-57.3l432.31 0 0 61.84 -379.44 0c-26.62,0 -48.37,21.76 -48.37,48.38l0 573.06c0,26.63 21.75,48.39 48.37,48.39l5753.62 0c26.62,0 48.39,-21.76 48.39,-48.39l0 -573.06c0,-26.62 -21.77,-48.38 -48.39,-48.38l-418.94 0 0 -61.84 471.84 0c31.51,0 57.3,25.78 57.3,57.3l0 678.89c0,31.53 -25.79,57.31 -57.3,57.31l-5859.41 0c-31.54,0 -57.31,-25.78 -57.31,-57.31z"/>
   </g>
   <path fill="#666666" fill-rule="nonzero" fill-opacity="0.800000" d="M17610.73 10555.56l0 20.95c28.58,13.34 51.6,34.3 69.06,62.88 17.47,28.58 26.2,60.01 26.2,94.31 0,57.15 -19.69,103.35 -59.06,138.6 -39.37,35.25 -96.53,52.87 -171.46,52.87l-303.87 0 0 -680.14 296.25 0c69.22,0 122.73,16.35 160.5,49.06 37.79,32.7 56.68,73.82 56.68,123.36 0,65.41 -24.76,111.45 -74.3,138.13zm-353.41 -234.33l0 212.42 208.61 0c88.28,0 132.42,-36.2 132.42,-108.6 0,-35.56 -12.7,-61.76 -38.11,-78.59 -25.4,-16.83 -57.47,-25.24 -96.21,-25.24l-206.71 0zm0 527.72l212.42 0c43.82,0 79.71,-9.37 107.65,-28.1 27.94,-18.74 41.91,-50.01 41.91,-93.83 0,-41.28 -13.81,-71.29 -41.43,-90.02 -27.63,-18.74 -63.35,-28.11 -107.17,-28.11l-213.38 0 0 240.05zm573.45 -403.9l80.98 0 0 160.03 132.41 0c57.79,0 102.4,13.97 133.84,41.92 31.44,27.94 47.15,67 47.15,117.17 0,50.8 -15.71,90.34 -47.15,118.6 -31.44,28.26 -76.05,42.39 -133.84,42.39l-213.38 0 0 -480.1zm80.98 228.62l0 180.99 120.98 0c40.01,0 68.59,-7.62 85.73,-22.87 17.15,-15.24 25.72,-37.78 25.72,-67.63 0,-29.85 -8.57,-52.39 -25.72,-67.64 -17.14,-15.24 -45.72,-22.86 -85.73,-22.86l-120.98 0zm390.56 -228.62l80.97 0 0 480.1 -80.97 0 0 -480.1zm562.01 335.31l80.98 0c-9.53,48.27 -31.92,86.53 -67.16,114.79 -35.25,28.26 -80.18,42.39 -134.8,42.39 -72.4,0 -129.39,-23.65 -170.98,-70.97 -41.6,-47.31 -62.4,-107.8 -62.4,-181.46 0,-74.3 20.64,-134.95 61.92,-181.94 41.28,-46.99 98.44,-70.49 171.46,-70.49 55.25,0 100.19,13.81 134.8,41.44 34.61,27.62 56.04,64.3 64.3,110.03l-80.97 0c-17.15,-53.99 -56.53,-80.98 -118.13,-80.98 -51.44,0 -89.7,16.99 -114.79,50.97 -25.08,33.97 -37.63,77 -37.63,129.08 0,52.71 12.71,96.53 38.11,131.46 25.4,34.93 63.51,52.39 114.31,52.39 67.32,0 107.65,-28.9 120.98,-86.69zm235.76 -276.24c42.23,-47.63 99.87,-71.45 172.89,-71.45 73.03,0 130.67,23.82 172.89,71.45 42.23,47.63 63.35,107.96 63.35,180.98 0,73.04 -21.12,133.37 -63.35,180.99 -42.23,47.63 -99.87,71.44 -172.89,71.44 -73.03,0 -130.67,-23.81 -172.89,-71.44 -42.23,-47.63 -63.35,-107.96 -63.35,-180.99 0,-73.03 21.12,-133.36 63.35,-180.98zm57.63 310.06c26.68,35.25 65.1,52.87 115.27,52.87 50.17,0 88.59,-17.62 115.27,-52.87 26.67,-35.25 40.01,-78.27 40.01,-129.08 0,-50.8 -13.34,-93.83 -40.01,-129.08 -26.68,-35.24 -65.1,-52.87 -115.27,-52.87 -50.17,0 -88.59,17.63 -115.27,52.87 -26.67,35.25 -40.01,78.28 -40.01,129.08 0,50.81 13.34,93.83 40.01,129.08zm419.14 -298.63l0 -70.5 413.42 0 0 70.5 -165.74 0 0 409.61 -80.97 0 0 -409.61 -166.7 0zm825.88 409.61l0 -50.49 -20.96 0c-33.02,41.92 -82.87,62.87 -149.55,62.87 -52.71,0 -94.62,-15.24 -125.74,-45.72 -31.12,-30.48 -46.68,-67.32 -46.68,-110.5 0,-43.82 15.24,-81.29 45.73,-112.41 30.48,-31.12 76.52,-46.68 138.13,-46.68l156.21 0 0 -19.05c0,-30.49 -9.52,-54.78 -28.57,-72.88 -19.06,-18.1 -48.59,-27.15 -88.6,-27.15 -69.86,0 -107.01,23.18 -111.45,69.54l-80.97 0c3.17,-43.82 22.06,-78.11 56.68,-102.88 34.61,-24.77 79.22,-37.15 133.84,-37.15 61.6,0 110.02,14.29 145.26,42.87 35.25,28.58 52.87,69.54 52.87,122.88l0 326.74 -76.21 0zm-150.5 -58.11c40.01,0 74.62,-13.18 103.83,-39.53 29.22,-26.36 43.82,-58.59 43.82,-96.69l0 -43.82 -143.83 0c-76.84,0 -115.27,30.48 -115.27,91.45 0,27.31 9.69,48.9 29.06,64.78 19.37,15.87 46.84,23.81 82.4,23.81zm-2764.37 953.62l80.98 0c-9.53,48.27 -31.92,86.53 -67.16,114.79 -35.25,28.26 -80.18,42.39 -134.8,42.39 -72.4,0 -129.39,-23.65 -170.98,-70.97 -41.6,-47.31 -62.4,-107.8 -62.4,-181.46 0,-74.3 20.64,-134.95 61.92,-181.94 41.28,-46.99 98.44,-70.49 171.46,-70.49 55.25,0 100.19,13.81 134.8,41.44 34.61,27.62 56.04,64.3 64.3,110.03l-80.97 0c-17.15,-53.99 -56.53,-80.98 -118.13,-80.98 -51.44,0 -89.7,16.99 -114.79,50.97 -25.08,33.97 -37.63,77 -37.63,129.08 0,52.71 12.71,96.53 38.11,131.46 25.4,34.93 63.51,52.39 114.31,52.39 67.32,0 107.65,-28.9 120.98,-86.69zm316.26 144.79l-114.32 0 0 -480.1 79.07 0 0 371.51 20.96 0 210.51 -371.51 118.13 0 0 480.1 -79.07 0 0 -371.51 -20.96 0 -214.32 371.51zm898.28 -70.49l88.59 0 0 206.7 -79.07 0 0 -136.22 -415.33 0 0 136.22 -79.06 0 0 -206.7 63.82 0c39.38,-83.83 59.06,-176.54 59.06,-278.16l0 -131.46 361.99 0 0 409.62zm-80.98 0l0 -339.12 -205.75 0 0 60.96c0,108.6 -17.46,201.31 -52.39,278.16l258.14 0zm690.62 -198.14l0 27.63 -365.79 0c1.27,57.79 14.93,102.72 40.96,134.79 26.04,32.08 63.51,48.11 112.41,48.11 66.05,0 106.69,-24.77 121.94,-74.3l81.92 0c-8.25,43.18 -30.01,78.11 -65.25,104.78 -35.25,26.68 -81.45,40.01 -138.61,40.01 -73.03,0 -130.19,-23.81 -171.46,-71.44 -41.28,-47.63 -61.92,-109.55 -61.92,-185.75 0,-74.94 20.64,-134.95 61.92,-180.03 41.28,-45.09 97.8,-67.64 169.56,-67.64 67.95,0 120.34,21.43 157.17,64.3 36.83,42.87 55.88,96.06 57.15,159.55zm-216.23 -153.36c-41.28,0 -74.3,10.64 -99.07,31.92 -24.77,21.27 -40.01,48.42 -45.72,81.44l277.19 0c-2.54,-32.38 -15.55,-59.37 -39.05,-80.97 -23.5,-21.59 -54.62,-32.39 -93.36,-32.39zm769.69 421.99l-80.98 0 0 -211.47 -265.76 0 0 211.47 -80.98 0 0 -480.1 80.98 0 0 198.14 265.76 0 0 -198.14 80.98 0 0 480.1zm830.64 -480.1l239.09 0 0 480.1 -81.92 0 0 -189.56 -145.74 0c-12.7,0 -22.54,-0.32 -29.53,-0.95l-72.4 190.51 -84.78 0 80.97 -208.61c-49.53,-23.5 -74.3,-65.41 -74.3,-125.75 0,-46.36 14.45,-82.24 43.34,-107.64 28.9,-25.4 70.65,-38.11 125.27,-38.11zm157.17 68.59l-148.6 0c-34.93,0 -59.69,6.67 -74.3,20.01 -14.61,13.33 -21.91,32.7 -21.91,58.11 0,24.76 7.3,43.5 21.91,56.2 14.61,12.7 39.37,19.05 74.3,19.05l148.6 0 0 -153.36zm-2430.01 1451.82l-99.07 0 0 -110.5 99.07 0 0 110.5zm165.75 -593.46c44.45,-57.79 103.83,-86.68 178.12,-86.68 74.31,0 133.85,29.05 178.61,87.16 44.77,58.11 67.16,144.63 67.16,259.58 0,114.94 -22.39,201.3 -67.16,259.1 -44.77,57.79 -104.31,86.68 -178.61,86.68 -74.3,0 -133.68,-28.89 -178.12,-86.68 -44.46,-57.8 -66.69,-144.16 -66.69,-259.1 0,-115.59 22.23,-202.26 66.69,-260.06zm57.15 459.62c26.68,47.95 67,71.92 120.98,71.92 53.99,0 94.47,-23.97 121.46,-71.92 26.99,-47.95 40.49,-114.47 40.49,-199.56 0,-85.74 -13.5,-152.57 -40.49,-200.52 -26.99,-47.95 -67.47,-71.92 -121.46,-71.92 -53.98,0 -94.3,23.97 -120.98,71.92 -26.67,47.95 -40.01,114.79 -40.01,200.52 0,85.1 13.34,151.61 40.01,199.56zm1086.89 -10.96l80.98 0c-9.53,48.27 -31.92,86.53 -67.16,114.79 -35.25,28.26 -80.18,42.39 -134.8,42.39 -72.4,0 -129.39,-23.65 -170.98,-70.97 -41.6,-47.31 -62.4,-107.8 -62.4,-181.46 0,-74.3 20.64,-134.95 61.92,-181.94 41.28,-46.99 98.44,-70.49 171.46,-70.49 55.25,0 100.19,13.81 134.8,41.44 34.61,27.62 56.04,64.3 64.3,110.03l-80.97 0c-17.15,-53.99 -56.53,-80.98 -118.13,-80.98 -51.44,0 -89.7,16.99 -114.79,50.97 -25.08,33.97 -37.63,77 -37.63,129.08 0,52.71 12.71,96.53 38.11,131.46 25.4,34.93 63.51,52.39 114.31,52.39 67.32,0 107.65,-28.9 120.98,-86.69zm201.94 144.79l0 -480.1 128.61 0 118.12 219.09 20.96 0 118.12 -219.09 126.7 0 0 480.1 -79.07 0 0 -385.8 -20.96 0 -111.45 205.76 -89.55 0 -111.45 -205.76 -20.96 0 0 385.8 -79.07 0zm167.65 -1520.41l0 160.03 141.92 0c57.8,0 102.41,13.97 133.85,41.92 31.43,27.94 47.15,67 47.15,117.17 0,50.8 -15.72,90.34 -47.15,118.6 -31.44,28.26 -76.05,42.39 -133.85,42.39l-222.9 0 0 -480.1 80.98 0zm0 409.62l130.5 0c40.01,0 68.59,-7.62 85.74,-22.87 17.15,-15.24 25.72,-37.78 25.72,-67.63 0,-29.85 -8.57,-52.39 -25.72,-67.64 -17.15,-15.24 -45.73,-22.86 -85.74,-22.86l-130.5 0 0 180.99zm1082.12 70.49l-99.07 0 0 -110.5 99.07 0 0 110.5zm0 -369.6l-99.07 0 0 -110.51 99.07 0 0 110.51zm-3651.22 1179.38l91.45 0 0 74.3 -91.45 0 0 156.22 -81.93 0 0 -156.22 -329.59 0 0 -95.26 294.35 -415.33 117.17 0 0 436.28zm-323.88 0l242.91 0 0 -341.98 -20.96 0 -221.95 321.02 0 20.96zm906.86 0l91.45 0 0 74.3 -91.45 0 0 156.22 -81.93 0 0 -156.22 -329.59 0 0 -95.26 294.35 -415.33 117.17 0 0 436.28zm-323.88 0l242.91 0 0 -341.98 -20.96 0 -221.95 321.02 0 20.96z"/>
   <path fill="#666666" fill-rule="nonzero" fill-opacity="0.800000" d="M10234.11 18682.31c-60.97,0 -111.78,-20.48 -152.41,-61.44 -40.65,-40.97 -60.97,-92.88 -60.97,-155.74 0,-65.42 20.48,-120.03 61.45,-163.84 40.96,-43.82 96.05,-65.73 165.26,-65.73 75.58,0 135.27,26.03 179.08,78.11 43.82,52.08 65.73,135.27 65.73,249.57 0,107.33 -21.43,194.96 -64.3,262.91 -42.86,67.96 -105.9,101.93 -189.08,101.93 -55.25,0 -100.5,-14.76 -135.75,-44.29 -35.24,-29.53 -56.68,-67.8 -64.3,-114.79l82.88 0c16.51,56.52 55.57,84.78 117.17,84.78 52.71,0 93.99,-20.96 123.84,-62.87 29.85,-41.92 46.04,-99.71 48.58,-173.37l-20.96 0c-13.97,17.15 -34.45,32.23 -61.44,45.25 -26.99,13.02 -58.58,19.53 -94.78,19.53zm119.07 -331.5c-27.94,-27.31 -62.87,-40.96 -104.78,-40.96 -41.92,0 -76.37,13.34 -103.36,40.01 -26.99,26.67 -40.49,63.82 -40.49,111.46 0,47.63 13.66,84.14 40.96,109.55 27.31,25.4 62.24,38.1 104.79,38.1 41.92,0 76.53,-13.02 103.84,-39.06 27.3,-26.04 40.96,-61.92 40.96,-107.64 0,-47 -13.97,-84.15 -41.92,-111.46zm502.01 130.51c60.97,0 111.77,20.48 152.41,61.44 40.64,40.97 60.97,92.88 60.97,155.74 0,65.42 -20.49,120.03 -61.45,163.84 -40.96,43.82 -96.05,65.73 -165.27,65.73 -75.57,0 -135.27,-26.03 -179.08,-78.11 -43.82,-52.08 -65.73,-135.27 -65.73,-249.57 0,-107.33 21.44,-194.96 64.3,-262.91 42.87,-67.96 105.9,-101.93 189.09,-101.93 55.25,0 100.5,14.76 135.74,44.29 35.25,29.53 56.69,67.8 64.31,114.79l-82.88 0c-16.51,-56.52 -55.57,-84.78 -117.17,-84.78 -52.71,0 -93.99,20.96 -123.84,62.87 -29.85,41.92 -46.04,99.71 -48.58,173.37l20.95 0c13.97,-17.15 34.46,-32.23 61.45,-45.25 26.99,-13.02 58.58,-19.53 94.78,-19.53zm-119.08 331.5c27.95,27.31 62.88,40.96 104.79,40.96 41.92,0 76.37,-13.34 103.36,-40.01 26.99,-26.67 40.49,-63.82 40.49,-111.45 0,-47.64 -13.66,-84.15 -40.97,-109.55 -27.3,-25.41 -62.23,-38.11 -104.78,-38.11 -41.92,0 -76.53,13.02 -103.84,39.06 -27.31,26.04 -40.96,61.92 -40.96,107.64 0,47 13.97,84.15 41.91,111.46zm545.83 102.88l-99.07 0 0 -110.5 99.07 0 0 110.5zm165.75 -593.46c44.45,-57.79 103.83,-86.68 178.12,-86.68 74.31,0 133.85,29.05 178.61,87.16 44.77,58.11 67.16,144.63 67.16,259.58 0,114.94 -22.39,201.3 -67.16,259.1 -44.77,57.79 -104.31,86.68 -178.61,86.68 -74.3,0 -133.68,-28.89 -178.12,-86.68 -44.46,-57.8 -66.69,-144.16 -66.69,-259.1 0,-115.59 22.23,-202.26 66.69,-260.06zm57.15 459.62c26.68,47.95 67,71.92 120.98,71.92 53.99,0 94.47,-23.97 121.46,-71.92 26.99,-47.95 40.49,-114.47 40.49,-199.56 0,-85.74 -13.5,-152.57 -40.49,-200.52 -26.99,-47.95 -67.47,-71.92 -121.46,-71.92 -53.98,0 -94.3,23.97 -120.98,71.92 -26.67,47.95 -40.01,114.79 -40.01,200.52 0,85.1 13.34,151.61 40.01,199.56zm1086.89 -10.96l80.98 0c-9.53,48.27 -31.92,86.53 -67.16,114.79 -35.25,28.26 -80.18,42.39 -134.8,42.39 -72.4,0 -129.39,-23.65 -170.98,-70.97 -41.6,-47.31 -62.4,-107.8 -62.4,-181.46 0,-74.3 20.64,-134.95 61.92,-181.94 41.28,-46.99 98.44,-70.49 171.46,-70.49 55.25,0 100.19,13.81 134.8,41.44 34.61,27.62 56.04,64.3 64.3,110.03l-80.97 0c-17.15,-53.99 -56.53,-80.98 -118.13,-80.98 -51.44,0 -89.7,16.99 -114.79,50.97 -25.08,33.97 -37.63,77 -37.63,129.08 0,52.71 12.71,96.53 38.11,131.46 25.4,34.93 63.51,52.39 114.31,52.39 67.32,0 107.65,-28.9 120.98,-86.69zm201.94 144.79l0 -480.1 128.61 0 118.12 219.09 20.96 0 118.12 -219.09 126.7 0 0 480.1 -79.07 0 0 -385.8 -20.96 0 -111.45 205.76 -89.55 0 -111.45 -205.76 -20.96 0 0 385.8 -79.07 0z"/>
   <path fill="#666666" fill-rule="nonzero" fill-opacity="0.800000" d="M6867.19 6543.94c0,60.97 -20.48,111.78 -61.44,152.41 -40.97,40.65 -92.88,60.97 -155.74,60.97 -65.42,0 -120.03,-20.48 -163.84,-61.45 -43.82,-40.96 -65.73,-96.05 -65.73,-165.26 0,-75.58 26.03,-135.27 78.11,-179.08 52.08,-43.82 135.27,-65.73 249.57,-65.73 107.33,0 194.96,21.43 262.91,64.3 67.96,42.86 101.93,105.9 101.93,189.08 0,55.25 -14.76,100.5 -44.29,135.75 -29.53,35.24 -67.8,56.68 -114.79,64.3l0 -82.88c56.52,-16.51 84.78,-55.57 84.78,-117.17 0,-52.71 -20.96,-93.99 -62.87,-123.84 -41.92,-29.85 -99.71,-46.04 -173.37,-48.58l0 20.96c17.15,13.97 32.23,34.45 45.25,61.44 13.02,26.99 19.53,58.58 19.53,94.78zm-331.5 -119.07c-27.31,27.94 -40.96,62.87 -40.96,104.78 0,41.92 13.34,76.37 40.01,103.36 26.67,26.99 63.82,40.49 111.46,40.49 47.63,0 84.14,-13.66 109.55,-40.96 25.4,-27.31 38.1,-62.24 38.1,-104.79 0,-41.92 -13.02,-76.53 -39.06,-103.84 -26.04,-27.3 -61.92,-40.96 -107.64,-40.96 -47,0 -84.15,13.97 -111.46,41.92zm-28.58 -310.55c-57.79,-44.45 -86.68,-103.83 -86.68,-178.12 0,-74.31 29.05,-133.85 87.16,-178.61 58.11,-44.77 144.63,-67.16 259.58,-67.16 114.94,0 201.3,22.39 259.1,67.16 57.79,44.77 86.68,104.31 86.68,178.61 0,74.3 -28.89,133.68 -86.68,178.12 -57.8,44.46 -144.16,66.69 -259.1,66.69 -115.59,0 -202.26,-22.23 -260.06,-66.69zm459.62 -57.15c47.95,-26.68 71.92,-67 71.92,-120.98 0,-53.99 -23.97,-94.47 -71.92,-121.46 -47.95,-26.99 -114.47,-40.49 -199.56,-40.49 -85.74,0 -152.57,13.5 -200.52,40.49 -47.95,26.99 -71.92,67.47 -71.92,121.46 0,53.98 23.97,94.3 71.92,120.98 47.95,26.67 114.79,40.01 200.52,40.01 85.1,0 151.61,-13.34 199.56,-40.01zm133.84 -591.55l0 99.07 -110.5 0 0 -99.07 110.5 0zm-593.46 -165.75c-57.79,-44.45 -86.68,-103.83 -86.68,-178.12 0,-74.31 29.05,-133.85 87.16,-178.61 58.11,-44.77 144.63,-67.16 259.58,-67.16 114.94,0 201.3,22.39 259.1,67.16 57.79,44.77 86.68,104.31 86.68,178.61 0,74.3 -28.89,133.68 -86.68,178.12 -57.8,44.46 -144.16,66.69 -259.1,66.69 -115.59,0 -202.26,-22.23 -260.06,-66.69zm459.62 -57.15c47.95,-26.68 71.92,-67 71.92,-120.98 0,-53.99 -23.97,-94.47 -71.92,-121.46 -47.95,-26.99 -114.47,-40.49 -199.56,-40.49 -85.74,0 -152.57,13.5 -200.52,40.49 -47.95,26.99 -71.92,67.47 -71.92,121.46 0,53.98 23.97,94.3 71.92,120.98 47.95,26.67 114.79,40.01 200.52,40.01 85.1,0 151.61,-13.34 199.56,-40.01zm-10.96 -1086.89l0 -80.98c48.27,9.53 86.53,31.92 114.79,67.16 28.26,35.25 42.39,80.18 42.39,134.8 0,72.4 -23.65,129.39 -70.97,170.98 -47.31,41.6 -107.8,62.4 -181.46,62.4 -74.3,0 -134.95,-20.64 -181.94,-61.92 -46.99,-41.28 -70.49,-98.44 -70.49,-171.46 0,-55.25 13.81,-100.19 41.44,-134.8 27.62,-34.61 64.3,-56.04 110.03,-64.3l0 80.97c-53.99,17.15 -80.98,56.53 -80.98,118.13 0,51.44 16.99,89.7 50.97,114.79 33.97,25.08 77,37.63 129.08,37.63 52.71,0 96.53,-12.71 131.46,-38.11 34.93,-25.4 52.39,-63.51 52.39,-114.31 0,-67.32 -28.9,-107.65 -86.69,-120.98zm144.79 -201.94l-480.1 0 0 -128.61 219.09 -118.12 0 -20.96 -219.09 -118.12 0 -126.7 480.1 0 0 79.07 -385.8 0 0 20.96 205.76 111.45 0 89.55 -205.76 111.45 0 20.96 385.8 0 0 79.07z"/>
   <path fill="#666666" fill-rule="nonzero" fill-opacity="0.800000" d="M6867.19 14739.23c0,60.97 -20.48,111.78 -61.44,152.41 -40.97,40.65 -92.88,60.97 -155.74,60.97 -65.42,0 -120.03,-20.48 -163.84,-61.45 -43.82,-40.96 -65.73,-96.05 -65.73,-165.26 0,-75.58 26.03,-135.27 78.11,-179.08 52.08,-43.82 135.27,-65.73 249.57,-65.73 107.33,0 194.96,21.43 262.91,64.3 67.96,42.86 101.93,105.9 101.93,189.08 0,55.25 -14.76,100.5 -44.29,135.75 -29.53,35.24 -67.8,56.68 -114.79,64.3l0 -82.88c56.52,-16.51 84.78,-55.57 84.78,-117.17 0,-52.71 -20.96,-93.99 -62.87,-123.84 -41.92,-29.85 -99.71,-46.04 -173.37,-48.58l0 20.96c17.15,13.97 32.23,34.45 45.25,61.44 13.02,26.99 19.53,58.58 19.53,94.78zm-331.5 -119.07c-27.31,27.94 -40.96,62.87 -40.96,104.78 0,41.92 13.34,76.37 40.01,103.36 26.67,26.99 63.82,40.49 111.46,40.49 47.63,0 84.14,-13.66 109.55,-40.96 25.4,-27.31 38.1,-62.24 38.1,-104.79 0,-41.92 -13.02,-76.53 -39.06,-103.84 -26.04,-27.3 -61.92,-40.96 -107.64,-40.96 -47,0 -84.15,13.97 -111.46,41.92zm81.93 -325.79l0 83.83c-64.15,-3.81 -113.05,-26.2 -146.7,-67.16 -33.65,-40.96 -50.48,-92.56 -50.48,-154.79 0,-64.77 17.62,-117.01 52.87,-156.69 35.24,-39.69 85.25,-59.54 150.02,-59.54 78.75,0 159.08,49.22 241,147.65l140.98 167.64 20.96 0 0 -336.26 74.3 0 0 458.19 -94.31 0 -80.02 -98.12c-48.9,-60.97 -91.77,-111.46 -128.6,-151.45 -13.34,-15.25 -24.77,-27.47 -34.29,-36.68 -9.53,-9.21 -22.07,-19.69 -37.63,-31.44 -15.56,-11.75 -31.91,-20.64 -49.06,-26.67 -17.15,-6.03 -34.93,-9.05 -53.35,-9.05 -41.28,0 -73.03,12.07 -95.26,36.2 -22.23,24.13 -33.34,56.84 -33.34,98.12 0,38.74 10.32,70.02 30.96,93.83 20.64,23.82 51.28,37.95 91.93,42.39zm482.95 -592.5l0 99.07 -110.5 0 0 -99.07 110.5 0zm-593.46 -165.75c-57.79,-44.45 -86.68,-103.83 -86.68,-178.12 0,-74.31 29.05,-133.85 87.16,-178.61 58.11,-44.77 144.63,-67.16 259.58,-67.16 114.94,0 201.3,22.39 259.1,67.16 57.79,44.77 86.68,104.31 86.68,178.61 0,74.3 -28.89,133.68 -86.68,178.12 -57.8,44.46 -144.16,66.69 -259.1,66.69 -115.59,0 -202.26,-22.23 -260.06,-66.69zm459.62 -57.15c47.95,-26.68 71.92,-67 71.92,-120.98 0,-53.99 -23.97,-94.47 -71.92,-121.46 -47.95,-26.99 -114.47,-40.49 -199.56,-40.49 -85.74,0 -152.57,13.5 -200.52,40.49 -47.95,26.99 -71.92,67.47 -71.92,121.46 0,53.98 23.97,94.3 71.92,120.98 47.95,26.67 114.79,40.01 200.52,40.01 85.1,0 151.61,-13.34 199.56,-40.01zm-10.96 -1086.89l0 -80.98c48.27,9.53 86.53,31.92 114.79,67.16 28.26,35.25 42.39,80.18 42.39,134.8 0,72.4 -23.65,129.39 -70.97,170.98 -47.31,41.6 -107.8,62.4 -181.46,62.4 -74.3,0 -134.95,-20.64 -181.94,-61.92 -46.99,-41.28 -70.49,-98.44 -70.49,-171.46 0,-55.25 13.81,-100.19 41.44,-134.8 27.62,-34.61 64.3,-56.04 110.03,-64.3l0 80.97c-53.99,17.15 -80.98,56.53 -80.98,118.13 0,51.44 16.99,89.7 50.97,114.79 33.97,25.08 77,37.63 129.08,37.63 52.71,0 96.53,-12.71 131.46,-38.11 34.93,-25.4 52.39,-63.51 52.39,-114.31 0,-67.32 -28.9,-107.65 -86.69,-120.98zm144.79 -201.94l-480.1 0 0 -128.61 219.09 -118.12 0 -20.96 -219.09 -118.12 0 -126.7 480.1 0 0 79.07 -385.8 0 0 20.96 205.76 111.45 0 89.55 -205.76 111.45 0 20.96 385.8 0 0 79.07z"/>
   <g>
    <line fill="none" stroke="gray" stroke-width="10.58" stroke-miterlimit="22.9256" x1="7125.24" y1="7760.02" x2="8523.77" y2= "7760.02" />
    <line fill="none" stroke="gray" stroke-width="10.58" stroke-miterlimit="22.9256" x1="7121.83" y1="2525.45" x2="8523.77" y2= "2525.45" />
    <line fill="none" stroke="gray" stroke-width="10.58" stroke-miterlimit="22.9256" x1="7650.81" y1="8281.46" x2="7650.81" y2= "2071.17" />
   </g>
   <g>
    <line fill="none" stroke="gray" stroke-width="10.58" stroke-miterlimit="22.9256" x1="7125.24" y1="16232.07" x2="8523.77" y2= "16232.07" />
    <line fill="none" stroke="gray" stroke-width="10.58" stroke-miterlimit="22.9256" x1="7121.83" y1="10287.78" x2="8523.77" y2= "10287.78" />
    <line fill="none" stroke="gray" stroke-width="10.58" stroke-miterlimit="22.9256" x1="7650.81" y1="16782.44" x2="7650.81" y2= "9833.5" />
   </g>
   <g>
    <line fill="none" stroke="gray" stroke-width="10.58" stroke-miterlimit="22.9256" x1="8831.32" y1="18131.97" x2="8831.32" y2= "16730.03" />
    <line fill="none" stroke="gray" stroke-width="10.58" stroke-miterlimit="22.9256" x1="14958.08" y1="17608.36" x2="8368.8" y2= "17608.36" />
    <line fill="none" stroke="gray" stroke-width="10.58" stroke-miterlimit="22.9256" x1="14497.43" y1="18133.93" x2="14497.43" y2= "16735.4" />
   </g>
  </g>
 </g>
</svg>
