<?xml version="1.0" encoding="UTF-8"?>
<!DOCTYPE svg PUBLIC "-//W3C//DTD SVG 1.1//EN" "http://www.w3.org/Graphics/SVG/1.1/DTD/svg11.dtd">
<!-- Creator: CorelDRAW 2021.5 -->
<svg xmlns="http://www.w3.org/2000/svg" xml:space="preserve" width="297.169mm" height="210.169mm" version="1.1" shape-rendering="geometricPrecision" text-rendering="geometricPrecision" image-rendering="optimizeQuality" fill-rule="evenodd" clip-rule="evenodd"
viewBox="0 0 29715.88 21016.19"
 xmlns:xlink="http://www.w3.org/1999/xlink"
 xmlns:xodm="http://www.corel.com/coreldraw/odm/2003">
 <g id="Тени">
  <metadata id="CorelCorpID_0Corel-Layer"/>
  <polygon fill="black" fill-opacity="0.101961" points="19602.01,3281.52 21795.6,3281.52 21795.6,3419.84 19772.48,3419.84 19602.12,3511.9 19602.01,3419.84 "/>
  <polygon fill="black" fill-opacity="0.101961" points="16705.15,4774.95 16661.54,4711.26 16566.86,4697.24 16548.79,5671.38 16652.77,5661.09 16713.53,5616.26 "/>
  <path fill="black" fill-opacity="0.101961" d="M5514.04 6086.76c3925.43,0 7850.86,0 11776.28,0 -17.94,80.69 -85.12,122.98 -85.12,122.98 -3865.35,0 -7730.68,0 -11596.04,0 0,7.97 -80.11,-58.86 -95.13,-122.98z"/>
  <path fill="black" fill-opacity="0.101961" d="M6757.76 2357.51c547.11,71.32 716.01,210.64 1153.8,218.25 466.6,8.11 599.54,-109.12 1325.37,-233.97 -408.14,9.86 -807.47,34.98 -1215.63,44.86l-1263.54 -29.14z"/>
  <path fill="black" fill-opacity="0.101961" d="M10184.18 2347.57c547.11,71.32 716.01,210.65 1153.8,218.25 466.6,8.11 599.54,-109.12 1325.37,-233.97 -408.14,9.87 -807.47,34.98 -1215.63,44.87l-1263.54 -29.15z"/>
  <path fill="black" fill-opacity="0.101961" d="M13614.87 2368.19c547.11,71.33 716.01,210.65 1153.8,218.26 466.6,8.11 599.54,-109.12 1325.37,-233.97 -408.14,9.86 -807.47,34.97 -1215.63,44.86l-1263.54 -29.15z"/>
  <path fill="black" fill-opacity="0.101961" d="M11987.05 11554.45c0,0 35.12,379.98 -129.64,520.2 -107.31,91.35 -430.27,119.31 -642.48,127.71 137.23,27.96 264.2,12.41 264.2,12.41 0,0 -363.2,4.07 -516.75,131.14 -87.38,72.32 -113.47,333.47 -121.24,508.09 20.82,80.1 56.29,161.07 116.41,220.21 62.22,61.22 145.85,94.66 226.97,112.51 217.92,-1.05 563.94,16.78 668.12,134.03 155.8,175.35 109.18,425.99 117.28,626.91 8.1,200.93 -27.52,-509.38 126.02,-636.45 94.05,-77.81 266.7,-109.48 386.42,-122.36 204.45,7.51 445.43,37.41 529.38,131.9 155.82,175.35 109.2,425.99 117.29,626.91 8.1,200.93 -27.53,-509.38 126.01,-636.45 94.47,-78.16 268.26,-109.79 388.05,-122.53 205.5,7.21 449.63,36.83 534.25,132.07 155.8,175.35 109.18,425.99 117.28,626.91 8.12,200.93 -27.52,-509.38 126.02,-636.45 94.05,-77.81 266.7,-109.48 386.42,-122.36 204.45,7.51 445.43,37.41 529.38,131.9 155.81,175.35 109.2,425.99 117.29,626.91 8.1,200.93 -27.54,-509.38 126.03,-636.45 153.53,-127.06 516.75,-131.12 516.75,-131.12 0,0 -331.44,40.54 -502.05,-127.26 -60.09,-59.14 -95.61,-140.1 -116.41,-220.2 7.77,-174.66 33.89,-435.77 121.27,-508.1 153.53,-127.05 516.75,-131.11 516.75,-131.11 0,0 -331.44,40.54 -502.03,-127.26 -170.61,-167.81 -143.19,-511.71 -143.19,-511.71 0,0 35.15,379.98 -129.62,520.2 -89.22,75.92 -327.44,108.06 -527.18,121.57 -110.76,-6.16 -261.33,-33.89 -359.12,-130.06 -170.59,-167.81 -143.16,-511.71 -143.16,-511.71 0,0 35.12,379.98 -129.62,520.2 -89.67,76.32 -329.8,108.36 -530.15,121.76 -111.09,-5.77 -263.82,-33.07 -362.64,-130.25 -170.61,-167.81 -143.19,-511.71 -143.19,-511.71 0,0 35.15,379.98 -129.62,520.2 -89.22,75.95 -327.44,108.08 -527.18,121.57 -110.76,-6.16 -261.33,-33.89 -359.11,-130.06 -170.59,-167.81 -143.17,-511.71 -143.17,-511.71zm-1150.64 1280.29c2.64,-166.48 2.06,-344.97 -117.32,-479.29 -83.94,-94.5 -324.99,-124.44 -529.47,-131.93 -119.72,12.86 -292.3,44.57 -386.32,122.38 -87.38,72.32 -113.5,333.47 -121.27,508.09 20.8,80.1 56.29,161.07 116.41,220.21 97.81,96.18 248.4,123.88 359.19,130.04 199.71,-13.51 437.91,-45.63 527.11,-121.55 164.75,-140.22 129.64,-520.2 129.64,-520.2 0,0 -10.5,131.93 22.03,272.25zm-666.35 375.45c-119.72,12.86 -292.32,44.58 -386.32,122.38 -153.55,127.08 -117.93,837.36 -126.03,636.46 -8.09,-200.91 38.53,-451.55 -117.29,-626.91 -84.6,-95.24 -328.78,-124.88 -534.28,-132.09 -119.79,12.76 -293.56,44.36 -388.01,122.54 -153.53,127.08 -117.92,837.36 -126.02,636.46 -8.1,-200.91 38.53,-451.55 -117.27,-626.91 -83.97,-94.5 -325,-124.44 -529.47,-131.93 -119.73,12.86 -292.33,44.58 -386.33,122.38 -153.55,127.08 -117.93,837.36 -126.02,636.46 -8.1,-200.91 38.53,-451.55 -117.3,-626.91 -155.8,-175.38 -852.72,-128.36 -852.72,-128.36 0,0 673.19,9.17 837.95,-131.07 164.75,-140.22 129.61,-520.2 129.61,-520.2 0,0 -10.5,131.93 22.04,272.25 2.63,-166.48 2.05,-344.97 -117.3,-479.29 -155.82,-175.38 -852.74,-128.36 -852.74,-128.36 0,0 673.19,9.17 837.94,-131.07 164.76,-140.23 129.65,-520.2 129.65,-520.2 0,0 -27.45,343.89 143.16,511.71 97.79,96.17 248.4,123.87 359.16,130.04 199.74,-13.52 437.92,-45.63 527.12,-121.55 164.75,-140.23 129.64,-520.2 129.64,-520.2 0,0 -27.42,343.89 143.17,511.71 98.86,97.22 251.71,124.5 362.8,130.25 200.3,-13.4 440.36,-45.47 529.98,-121.76 164.76,-140.23 129.64,-520.2 129.64,-520.2 0,0 -27.44,343.89 143.17,511.71 97.79,96.17 248.4,123.87 359.16,130.04 199.74,-13.52 437.94,-45.63 527.14,-121.55 164.73,-140.23 129.62,-520.2 129.62,-520.2 0,0 -27.42,343.89 143.17,511.71 62.24,61.21 145.82,94.65 226.97,112.51 217.92,-1.05 563.96,16.78 668.12,134.03 119.37,134.33 119.96,312.81 117.32,479.29 -32.53,-140.3 -22.03,-272.25 -22.03,-272.25 0,0 35.12,379.98 -129.64,520.21 -107.31,91.34 -430.29,119.3 -642.47,127.7 137.22,27.96 264.19,12.42 264.19,12.42 0,0 -363.19,4.06 -516.75,131.13 -153.53,127.08 -117.9,837.36 -126.02,636.46 -8.1,-200.91 38.53,-451.55 -117.28,-626.91 -83.96,-94.5 -324.99,-124.44 -529.47,-131.93zm-492.76 -375.45c2.64,-166.48 2.06,-344.97 -117.29,-479.29 -84.63,-95.25 -328.82,-124.89 -534.3,-132.1 -119.77,12.77 -293.54,44.37 -388.01,122.55 -87.38,72.32 -113.47,333.47 -121.24,508.09 20.82,80.1 56.29,161.07 116.41,220.21 98.86,97.23 251.71,124.51 362.8,130.25 200.3,-13.4 440.37,-45.46 529.98,-121.76 164.76,-140.22 129.62,-520.2 129.62,-520.2 0,0 -10.5,131.93 22.03,272.25zm-1165.57 0c2.64,-166.48 2.06,-344.97 -117.32,-479.29 -83.94,-94.5 -324.99,-124.44 -529.47,-131.93 -119.72,12.86 -292.32,44.57 -386.32,122.38 -87.38,72.32 -113.5,333.47 -121.27,508.09 20.8,80.1 56.29,161.07 116.41,220.21 97.81,96.18 248.4,123.88 359.19,130.04 199.71,-13.51 437.91,-45.63 527.11,-121.55 164.76,-140.22 129.64,-520.2 129.64,-520.2 0,0 -10.5,131.93 22.03,272.25zm6282.72 348.14c-110.76,-6.16 -261.35,-33.88 -359.11,-130.06 -60.1,-59.14 -95.62,-140.1 -116.41,-220.2 7.77,-174.66 33.86,-435.77 121.24,-508.1 94.05,-77.81 266.69,-109.48 386.42,-122.36 204.45,7.52 445.45,37.41 529.4,131.91 119.35,134.33 119.93,312.81 117.29,479.29 -32.53,-140.3 -22.03,-272.25 -22.03,-272.25 0,0 35.13,379.98 -129.62,520.21 -89.22,75.94 -327.44,108.08 -527.18,121.56zm-1162.07 0.19c-111.07,-5.76 -263.83,-33.07 -362.64,-130.25 -60.09,-59.14 -95.61,-140.1 -116.41,-220.2 7.77,-174.66 33.89,-435.77 121.27,-508.1 94.47,-78.16 268.26,-109.78 388.05,-122.52 205.48,7.21 449.63,36.83 534.23,132.07 119.37,134.33 119.96,312.81 117.32,479.29 -32.53,-140.3 -22.03,-272.25 -22.03,-272.25 0,0 35.12,379.98 -129.64,520.21 -89.67,76.31 -329.8,108.36 -530.15,121.75zm-1162.63 -0.19c-110.76,-6.16 -261.33,-33.88 -359.09,-130.06 -60.1,-59.14 -95.62,-140.1 -116.41,-220.2 7.77,-174.66 33.86,-435.77 121.24,-508.1 94.05,-77.81 266.69,-109.48 386.42,-122.36 204.45,7.52 445.43,37.41 529.38,131.91 119.37,134.33 119.95,312.81 117.32,479.29 -32.54,-140.3 -22.04,-272.25 -22.04,-272.25 0,0 35.13,379.98 -129.64,520.21 -89.2,75.92 -327.42,108.05 -527.18,121.56z"/>
  <path fill="black" fill-opacity="0.101961" d="M7294.99 2617.19c0,0 31.32,469.19 -115.57,642.33 -146.88,173.14 -747.08,161.82 -747.08,161.82 0,0 621.35,-58.07 760.27,158.45 138.93,216.52 70.17,634.73 77.41,882.8l0.47 16.68c-158.29,29.39 -315.34,112.84 -555.5,140.37l1225.88 -28c408.15,7.61 794.91,20.63 1203.05,28.24 -385.23,-46.84 -550.03,-139.12 -725.26,-176.2 4.25,-243.82 -28.08,-645.95 108.66,-859.06 136.74,-213.11 760.27,-158.45 760.27,-158.45 0,0 -600.21,11.32 -747.08,-161.82 -146.88,-173.13 -115.57,-642.31 -115.57,-642.31 0,0 24.43,424.62 -127.66,631.81 -152.09,207.19 -447.6,157.13 -447.6,157.13 0,0 343.78,27.86 460.71,161.88 116.95,134.03 104.72,692.63 106.21,870.4 -139.14,-29.33 -267.79,-48.38 -473.92,-45.62 -258.48,3.45 -442.8,39.07 -671.32,81.49 0.16,-129.4 16.8,-772.01 138.18,-911.1 121.38,-139.09 438.18,-161.89 438.18,-161.89 0,0 -272.98,50.06 -425.06,-157.12 -152.08,-207.18 -127.66,-631.83 -127.66,-631.83zm5258.19 2001.04c36.41,-4.06 432.74,22.61 555.91,6.02 55.24,-7.42 163.66,6.53 211.44,-1.8 450.61,-78.79 550.4,-144.03 911.85,-180.67l18.41 -0.3c-1.1,-237.13 14.38,-639.77 -119.3,-848.14 -133.68,-208.38 -770.05,-174.65 -770.05,-174.65 0,0 609.98,27.51 756.86,-145.62 146.88,-173.14 115.59,-642.33 115.59,-642.33 0,0 -24.43,424.63 127.66,631.83 152.09,207.18 447.58,157.1 447.58,157.1 0,0 -346.51,31.01 -460.72,161.91 -114.21,130.9 -92.02,662.7 -94.82,859.87 386.07,-56.33 754.23,-43.92 1099.04,28.78 -1.5,-177.76 4.97,-768.88 -111.98,-902.91 -116.94,-134.03 -429.56,-142.85 -429.56,-142.85 0,0 264.36,31.02 416.46,-176.16 152.08,-207.19 127.65,-631.83 127.65,-631.83 0,0 -31.32,469.19 115.57,642.33 146.88,173.13 747.09,161.81 747.09,161.81 0,0 -623.55,-54.65 -760.27,158.46 -136.74,213.11 -98.65,647.72 -102.9,891.57 238.32,50.41 604.43,125.18 841.4,154 -464.41,-8.66 -1008.28,-22.17 -1475.07,-30.69 -510.92,7.44 -1166.32,30.87 -1716.68,30.5 -588.7,-0.42 -1072.5,-25.32 -1614.64,-35.45l-1254.45 30.6c240.16,-27.52 463.41,-120.52 621.71,-149.92l-0.47 -16.68c-6.91,-248.08 38.18,-647.66 -100.75,-864.18 -138.93,-216.52 -792.69,-161.04 -792.69,-161.04 0,0 632.63,13.88 779.5,-159.25 146.88,-173.13 115.57,-642.31 115.57,-642.31 0,0 -24.43,424.61 127.66,631.81 152.08,207.18 415.2,154.53 415.2,154.53 0,0 -306.96,25.39 -428.3,164.48 -121.36,139.09 -114.69,763.09 -114.85,892.5 228.51,-42.4 375.22,-71.11 633.67,-74.51 206.11,-2.74 334.8,16.26 473.93,45.6 -1.49,-177.78 15.17,-727.35 -101.78,-861.37 -116.94,-134.03 -460.71,-161.89 -460.71,-161.89 0,0 295.49,50.06 447.57,-157.12 152.09,-207.19 127.69,-631.81 127.69,-631.81 0,0 -31.32,469.16 115.57,642.31 146.87,173.13 759.01,146.83 759.01,146.83 0,0 -635.5,-39.65 -772.2,173.46 -136.71,213.11 -108.85,606.18 -113.1,850.01 126.47,26.77 475.31,142.05 685.72,177.17z"/>
  <polygon fill="black" fill-opacity="0.101961" points="6139.67,4760.34 6171.08,4714.51 6278.27,4705.62 6290.8,5671.38 6190.24,5671.38 6127.67,5596.61 "/>
 </g>
 <g id="Схема">
  <metadata id="CorelCorpID_1Corel-Layer"/>
  <g id="_2238057099792">
   <line fill="none" stroke="black" stroke-width="10.58" stroke-miterlimit="22.9256" x1="6139.07" y1="12192.84" x2="16677.32" y2= "12190.52" />
   <rect fill="none" stroke="black" stroke-width="10.58" stroke-miterlimit="22.9256" x="6139.05" y="10226.48" width="10557" height="3954.16" rx="86.99" ry="82.38"/>
   <path fill="none" stroke="black" stroke-width="10.58" stroke-miterlimit="22.9256" d="M6083.96 9054.86l-440.81 0c-32.98,0 -37.62,16.03 -50.62,29.66 -55.34,58.09 -69.78,286.07 -62.71,736.17 6.09,387.56 -1.71,3291.53 -1.71,3513.88 0,551.53 10.25,791.66 61.78,837.22 11.58,6.84 -3.52,11.83 53.26,11.83l440.81 0c30.31,0 55.1,-24.78 55.1,-55.1l0 -5018.57c0,-30.31 -24.79,-55.1 -55.1,-55.1z"/>
   <path fill="none" stroke="black" stroke-width="10.58" stroke-miterlimit="22.9256" d="M17181.7 9062.47l-431.69 0c-29.68,0 -53.95,24.27 -53.95,53.96l0 5020.85c0,29.66 24.27,53.96 53.95,53.96l420.7 0c56.57,0 51.74,-13.58 69.33,-45.98 42.29,-112.3 47.82,-395.63 47.82,-806.29 0,-221.21 -13.44,-3110.2 -2.94,-3495.76 8.89,-327.28 -4.1,-609.57 -50.59,-729.51 -20.07,-38.58 -32.21,-51.23 -52.63,-51.23z"/>
   <path fill="none" stroke="black" stroke-width="10.58" stroke-miterlimit="22.9256" d="M16696.02 9213.72c-34.93,-139.16 -651.57,-135.4 -1577.92,-122.47 -797.67,11.13 -6774.54,-3.12 -7232.17,-3.12 -1135.13,0 -1697.12,-28.78 -1746.91,135.36"/>
   <path fill="none" stroke="black" stroke-width="10.58" stroke-miterlimit="22.9256" d="M9681.16 11012.83c-5.67,58.26 9.29,169.55 -135.82,238.26 -165.61,78.43 -592.45,105.17 -996.69,114.28 -24.69,0.55 -46.63,-34.76 -70.08,-34.36 -23.81,0.42 -49.15,36.58 -72.02,36.88 -159.35,2.07 -300.25,1.52 -481.59,2.68 -163.91,1.04 -327.22,-2.51 -502.36,-3.96 -36.42,-0.3 -67.21,-32.12 -104.77,-32.17 -26.39,-0.05 -58.74,31.19 -84.64,30.59 -65.68,-1.54 -129.7,-4.86 -191.53,-9.6 -281.75,-21.57 -518.56,-73.02 -662.88,-124.37 -144.09,-51.26 -188.58,-193.87 -176.15,-248.44"/>
   <path fill="none" stroke="black" stroke-width="10.58" stroke-miterlimit="22.9256" d="M6338.72 10225.19l3215.3 0c63.04,0 111.62,83.8 114.61,185.74l14.33 488.54c2.99,101.98 -51.65,181.08 -114.61,185.74 -580.59,52.84 -1057.67,53.29 -1690.61,66.82 -617.41,13.2 -993.41,-14.4 -1560.5,-66.82 -62.96,-4.66 -119.09,-83.83 -114.6,-185.74l21.49 -488.54c4.48,-101.92 51.57,-185.74 114.6,-185.74z"/>
   <polyline fill="none" stroke="black" stroke-width="10.58" stroke-miterlimit="22.9256" stroke-dasharray="52.898113 52.898113" points="6137.51,13987.54 6130.93,17101.58 16686.48,17101.58 16694.58,13637.97 "/>
   <line fill="none" stroke="black" stroke-width="10.58" stroke-miterlimit="22.9256" x1="6139.04" y1="13179.51" x2="16696.04" y2= "13177.19" />
   <line fill="none" stroke="black" stroke-width="10.58" stroke-miterlimit="22.9256" x1="7357.5" y1="14168.45" x2="7355.22" y2= "11182.58" />
   <line fill="none" stroke="black" stroke-width="10.58" stroke-miterlimit="22.9256" x1="8495.25" y1="14180.64" x2="8492.96" y2= "11182.58" />
   <path fill="none" stroke="black" stroke-width="10.58" stroke-miterlimit="22.9256" d="M13163.6 11018.73c-5.68,58.26 9.28,169.54 -135.82,238.26 -165.61,78.43 -592.46,105.17 -996.69,114.28 -24.7,0.55 -46.63,-34.76 -70.08,-34.36 -23.81,0.42 -49.15,36.58 -72.02,36.88 -159.35,2.07 -300.25,1.52 -481.59,2.67 -163.91,1.05 -327.23,-2.5 -502.36,-3.95 -36.43,-0.3 -67.21,-32.12 -104.77,-32.17 -26.39,-0.05 -58.74,31.19 -84.65,30.58 -65.67,-1.53 -129.69,-4.85 -191.52,-9.59 -281.75,-21.58 -518.56,-73.03 -662.88,-124.37 -144.09,-51.26 -188.58,-193.87 -176.15,-248.44"/>
   <path fill="none" stroke="black" stroke-width="10.58" stroke-miterlimit="22.9256" d="M9821.16 10231.09l3215.3 0c63.03,0 111.62,83.79 114.61,185.74l14.32 488.54c3,101.98 -51.64,181.08 -114.6,185.74 -580.59,52.84 -1057.67,53.29 -1690.61,66.82 -617.42,13.2 -993.41,-14.4 -1560.5,-66.82 -62.96,-4.66 -119.09,-83.83 -114.6,-185.74l21.48 -488.54c4.49,-101.92 51.58,-185.74 114.61,-185.74z"/>
   <path fill="none" stroke="black" stroke-width="10.58" stroke-miterlimit="22.9256" d="M16631.82 11018.73c-5.68,58.26 9.28,169.54 -135.82,238.26 -165.61,78.43 -592.46,105.17 -996.7,114.28 -24.69,0.55 -46.63,-34.76 -70.07,-34.36 -23.82,0.42 -49.15,36.58 -72.02,36.88 -159.35,2.07 -300.26,1.52 -481.59,2.67 -163.91,1.05 -327.23,-2.5 -502.36,-3.95 -36.43,-0.3 -67.22,-32.12 -104.77,-32.17 -26.4,-0.05 -58.75,31.19 -84.65,30.58 -65.67,-1.53 -129.69,-4.85 -191.52,-9.59 -281.75,-21.58 -518.56,-73.03 -662.88,-124.37 -144.09,-51.26 -188.58,-193.87 -176.16,-248.44"/>
   <path fill="none" stroke="black" stroke-width="10.58" stroke-miterlimit="22.9256" d="M13289.38 10231.09l3215.3 0c63.03,0 111.62,83.79 114.6,185.74l14.33 488.54c2.99,101.98 -51.64,181.08 -114.61,185.74 -580.58,52.84 -1057.66,53.29 -1690.6,66.82 -617.42,13.2 -993.41,-14.4 -1560.5,-66.82 -62.96,-4.66 -119.09,-83.83 -114.61,-185.74l21.49 -488.54c4.49,-101.92 51.57,-185.74 114.61,-185.74z"/>
   <line fill="none" stroke="black" stroke-width="10.58" stroke-miterlimit="22.9256" x1="9681.16" y1="14127.73" x2="9678.87" y2= "11141.85" />
   <line fill="none" stroke="black" stroke-width="10.58" stroke-miterlimit="22.9256" x1="10814.83" y1="14172.97" x2="10812.55" y2= "11187.1" />
   <line fill="none" stroke="black" stroke-width="10.58" stroke-miterlimit="22.9256" x1="11973.94" y1="14185.16" x2="11971.66" y2= "11187.1" />
   <line fill="none" stroke="black" stroke-width="10.58" stroke-miterlimit="22.9256" x1="13159.87" y1="14132.25" x2="13157.58" y2= "11146.37" />
   <line fill="none" stroke="black" stroke-width="10.58" stroke-miterlimit="22.9256" x1="14313.14" y1="14147.59" x2="14310.85" y2= "11161.71" />
   <line fill="none" stroke="black" stroke-width="10.58" stroke-miterlimit="22.9256" x1="15450.88" y1="14127.73" x2="15448.59" y2= "11129.66" />
  </g>
  <g id="_2238057071184">
   <path fill="none" stroke="black" stroke-width="10.58" stroke-miterlimit="22.9256" d="M6073.71 3489.27l-431.68 0c-16.48,0 -31.28,7.47 -41.19,19.21l0 -9.1c-54.27,22.01 -64.53,152.2 -58,391.72 5.63,206.22 -1.59,1751.45 -1.59,1869.76 0,293.46 9.5,421.23 57.16,445.48l0 -10.32c9.82,13.49 25.74,22.29 43.62,22.29l431.68 0c29.69,0 53.96,-24.27 53.96,-53.96l0 -2621.13c0,-29.68 -24.27,-53.96 -53.96,-53.96z"/>
   <path fill="none" stroke="black" stroke-width="10.58" stroke-miterlimit="22.9256" d="M6233.5 4705.63c3482.46,0 6891.94,0 10374.18,0 58.22,0 105.86,48.3 105.86,107.31l0 751.14c0,59.02 -47.64,107.31 -105.86,107.31l-10374.18 0c-58.22,0 -105.86,-48.29 -105.86,-107.31l0 -751.14c0,-59.02 47.64,-107.31 105.86,-107.31z"/>
   <path fill="none" stroke="black" stroke-width="10.58" stroke-miterlimit="22.9256" d="M6127.86 4706.15l0 -1959.69c-2.51,-100.61 23.28,-141.76 85.11,-156.89m10360.14 -3.71c100.03,19 142.87,91.98 133.14,183.82l7.28 2220.72"/>
   <path fill="none" stroke="black" stroke-width="10.58" stroke-miterlimit="22.9256" d="M6359.77 4624.2c510.53,0 994.51,-32.78 1505.02,-32.78 517.4,0 1171.68,33.76 1689.09,33.76 94.24,0 91.34,-98.27 91.34,-239.32 0,-243.5 -31.04,-653.18 -31.04,-896.68 0,-341.49 31.04,-697.71 31.04,-1039.22 0,-141.02 -117.95,-94.65 -212.17,-94.65 -544.99,0 -1038.9,20.42 -1583.87,20.42 -452.17,0 -914.6,-9.97 -1366.73,-19.47 -30.76,-0.63 -125,-1.01 -155.77,-1.01 -94.24,0 -99.58,24.18 -99.58,165.23 0,295.08 14.84,643.43 14.84,938.5 0,289.92 -23.12,754.13 -23.12,1044.05 0,141.04 46.74,121.17 140.96,121.17z"/>
   <line fill="none" stroke="black" stroke-width="10.58" stroke-miterlimit="22.9256" x1="6241.94" y1="3416.23" x2="9618.82" y2= "3418.52" />
   <line fill="none" stroke="black" stroke-width="10.58" stroke-miterlimit="22.9256" x1="7307.81" y1="2371.69" x2="7306.41" y2= "4611.79" />
   <line fill="none" stroke="black" stroke-width="10.58" stroke-miterlimit="22.9256" x1="8425.37" y1="2369.63" x2="8421.4" y2= "4611.79" />
   <path fill="none" stroke="black" stroke-width="10.58" stroke-miterlimit="22.9256" d="M17199.18 3417.79l-431.69 0c-29.68,0 -53.95,24.27 -53.95,53.96l0 2692.28c0,29.68 24.27,53.95 53.95,53.95l431.69 0c46.07,0 39.53,-5.37 47.89,-10.59 47.68,-24.74 57.15,-155.17 57.15,-454.72 0,-120.78 -7.21,-1698.1 -1.58,-1908.6 6.53,-244.48 -7.59,-396.76 -61.85,-419.23 -8.84,-1.19 -5.58,-7.05 -41.61,-7.05z"/>
   <rect fill="none" stroke="black" stroke-width="10.58" stroke-miterlimit="22.9256" x="6127.67" y="5671.38" width="10585.86" height="534.25"/>
   <rect fill="none" stroke="black" stroke-width="10.58" stroke-miterlimit="22.9256" x="5620.65" y="6218.32" width="466.71" height="685.46"/>
   <rect fill="none" stroke="black" stroke-width="10.58" stroke-miterlimit="22.9256" x="16749.97" y="6218.32" width="466.71" height="685.46"/>
   <path fill="none" stroke="black" stroke-width="10.58" stroke-miterlimit="22.9256" d="M9810.23 4623.48c510.53,0 994.51,-32.79 1505.02,-32.79 517.4,0 1171.68,33.77 1689.09,33.77 94.24,0 91.34,-98.27 91.34,-239.32 0,-243.5 -31.04,-653.18 -31.04,-896.68 0,-341.5 31.04,-697.71 31.04,-1039.23 0,-141.01 -117.95,-94.65 -212.17,-94.65 -544.99,0 -1038.9,20.42 -1583.87,20.42 -452.17,0 -914.6,-9.97 -1366.73,-19.47 -30.76,-0.63 -125,-1 -155.77,-1 -94.24,0 -99.58,24.18 -99.58,165.23 0,295.07 14.84,643.43 14.84,938.5 0,289.92 -23.13,754.13 -23.13,1044.04 0,141.05 46.75,121.18 140.97,121.18z"/>
   <line fill="none" stroke="black" stroke-width="10.58" stroke-miterlimit="22.9256" x1="9692.39" y1="3415.51" x2="13069.27" y2= "3417.8" />
   <line fill="none" stroke="black" stroke-width="10.58" stroke-miterlimit="22.9256" x1="10758.27" y1="2370.96" x2="10756.86" y2= "4611.06" />
   <line fill="none" stroke="black" stroke-width="10.58" stroke-miterlimit="22.9256" x1="11875.83" y1="2368.91" x2="11871.86" y2= "4611.06" />
   <path fill="none" stroke="black" stroke-width="10.58" stroke-miterlimit="22.9256" d="M13290.78 4626.5c510.52,0 994.5,-32.78 1505.01,-32.78 517.4,0 1171.68,33.76 1689.09,33.76 94.24,0 91.35,-98.27 91.35,-239.32 0,-243.49 -31.04,-653.18 -31.04,-896.68 0,-341.49 31.04,-697.71 31.04,-1039.22 0,-141.02 -117.96,-94.65 -212.18,-94.65 -544.99,0 -1038.9,20.42 -1583.86,20.42 -452.18,0 -914.61,-9.97 -1366.73,-19.47 -30.76,-0.63 -125.01,-1.01 -155.78,-1.01 -94.24,0 -99.58,24.18 -99.58,165.23 0,295.08 14.85,643.43 14.85,938.5 0,289.92 -23.13,754.13 -23.13,1044.05 0,141.04 46.74,121.17 140.97,121.17z"/>
   <line fill="none" stroke="black" stroke-width="10.58" stroke-miterlimit="22.9256" x1="13172.93" y1="3418.54" x2="16549.82" y2= "3420.83" />
   <line fill="none" stroke="black" stroke-width="10.58" stroke-miterlimit="22.9256" x1="14238.8" y1="2374" x2="14237.4" y2= "4614.1" />
   <line fill="none" stroke="black" stroke-width="10.58" stroke-miterlimit="22.9256" x1="15356.36" y1="2371.94" x2="15352.39" y2= "4614.1" />
  </g>
  <g id="_2238057076272">
   <path fill="none" stroke="black" stroke-width="10.58" stroke-miterlimit="22.9256" d="M24750.29 4585.49c74.44,21.63 129.26,90.71 129.26,171.89l0 725.99c0,82.06 -55.98,151.66 -131.6,172.55"/>
   <path fill="none" stroke="black" stroke-width="10.58" stroke-miterlimit="22.9256" d="M20731.5 3424.86c1.14,-24.74 -0.43,-713.78 -3.5,-731.82 -22.15,-128.94 -140.56,-101.01 -179.9,-100.82 -207.98,0.95 -770.9,2.1 -804.29,2.5 -120.75,1.45 -157.26,233.92 -145.93,464.45 3.27,66.65 4.37,261.47 4.26,506.03"/>
   <path fill="none" stroke="black" stroke-width="10.58" stroke-miterlimit="22.9256" d="M20868.89 3421.12l-32.44 -841.97c-4.13,-107.29 -25.74,-215.07 127.36,-221.43l451.89 -18.78c40.63,-1.68 151.17,-5.09 157.64,162.84l35.42 919.35"/>
   <path fill="none" stroke="black" stroke-width="10.58" stroke-miterlimit="22.9256" d="M20886.49 2382.56c-138.83,11.1 -165.78,350.19 -146.99,496.65 8.81,68.68 20.71,315.13 30.17,537.1"/>
   <path fill="none" stroke="black" stroke-width="10.58" stroke-miterlimit="22.9256" d="M21415.72 2338.94c139.26,0.02 306.98,188.59 326.44,335.99 20.57,155.63 39.86,508.32 50.67,746.2"/>
   <rect fill="none" stroke="black" stroke-width="10.58" stroke-miterlimit="22.9256" transform="matrix(2.12503E-14 -2.08348 1.07812 7.4144E-14 19587.2 6217.99)" width="1340.61" height="4789.06" rx="96.84" ry="96.84"/>
   <path fill="none" stroke="black" stroke-width="10.58" stroke-miterlimit="22.9256" d="M19587.23 6854.26l0 -586.74c0,-27.25 22.27,-49.53 49.53,-49.53l373.64 0 0 53.45 -327.94 0c-23.01,0 -41.8,18.8 -41.8,41.81l0 495.28c0,23.01 18.79,41.82 41.8,41.82l4972.7 0c23,0 41.82,-18.81 41.82,-41.82l0 -495.28c0,-23.01 -18.82,-41.81 -41.82,-41.81l-362.08 0 0 -53.45 407.8 0c27.24,0 49.53,22.28 49.53,49.53l0 586.74c0,27.25 -22.29,49.53 -49.53,49.53l-5064.12 0c-27.26,0 -49.53,-22.28 -49.53,-49.53z"/>
  </g>
 </g>
 <g id="Шрифт">
  <metadata id="CorelCorpID_2Corel-Layer"/>
  <path fill="#666666" fill-rule="nonzero" fill-opacity="0.800000" d="M19981.34 9325.83l0 18.11c24.7,11.52 44.59,29.64 59.69,54.34 15.09,24.7 22.64,51.87 22.64,81.5 0,49.4 -17.02,89.33 -51.05,119.8 -34.03,30.46 -83.43,45.69 -148.18,45.69l-262.63 0 0 -587.82 256.04 0c59.83,0 106.07,14.13 138.73,42.4 32.66,28.26 48.99,63.8 48.99,106.62 0,56.53 -21.41,96.32 -64.22,119.38zm-305.44 -202.53l0 183.59 180.29 0c76.3,0 114.44,-31.29 114.44,-93.86 0,-30.73 -10.97,-53.38 -32.93,-67.92 -21.95,-14.55 -49.67,-21.82 -83.15,-21.82l-178.65 0zm0 456.1l183.59 0c37.87,0 68.88,-8.1 93.03,-24.29 24.15,-16.19 36.23,-43.23 36.23,-81.1 0,-35.68 -11.94,-61.61 -35.82,-77.8 -23.87,-16.19 -54.75,-24.29 -92.62,-24.29l-184.41 0 0 207.47zm495.61 -349.08l69.98 0 0 138.32 114.44 0c49.95,0 88.51,12.07 115.68,36.22 27.17,24.15 40.75,57.91 40.75,101.27 0,43.91 -13.58,78.08 -40.75,102.5 -27.17,24.43 -65.73,36.64 -115.68,36.64l-184.41 0 0 -414.94zm69.98 197.59l0 156.42 104.56 0c34.58,0 59.28,-6.59 74.1,-19.76 14.82,-13.18 22.23,-32.66 22.23,-58.46 0,-25.8 -7.41,-45.28 -22.23,-58.45 -14.82,-13.18 -39.52,-19.76 -74.1,-19.76l-104.56 0zm337.55 -197.59l69.98 0 0 414.94 -69.98 0 0 -414.94zm485.73 289.8l69.98 0c-8.23,41.71 -27.58,74.78 -58.04,99.21 -30.46,24.42 -69.3,36.63 -116.5,36.63 -62.57,0 -111.83,-20.44 -147.77,-61.33 -35.96,-40.89 -53.93,-93.17 -53.93,-156.83 0,-64.22 17.84,-116.64 53.51,-157.25 35.68,-40.61 85.08,-60.92 148.19,-60.92 47.75,0 86.58,11.94 116.5,35.81 29.91,23.88 48.44,55.58 55.57,95.1l-69.98 0c-14.82,-46.66 -48.85,-69.99 -102.09,-69.99 -44.46,0 -77.53,14.69 -99.21,44.05 -21.68,29.37 -32.52,66.55 -32.52,111.56 0,45.56 10.98,83.43 32.93,113.62 21.96,30.18 54.89,45.28 98.8,45.28 58.18,0 93.03,-24.98 104.56,-74.92zm203.76 -238.75c36.5,-41.17 86.31,-61.75 149.42,-61.75 63.12,0 112.93,20.58 149.42,61.75 36.5,41.16 54.75,93.31 54.75,156.42 0,63.12 -18.25,115.26 -54.75,156.41 -36.5,41.17 -86.31,61.75 -149.42,61.75 -63.12,0 -112.93,-20.58 -149.42,-61.75 -36.5,-41.16 -54.75,-93.3 -54.75,-156.41 0,-63.12 18.25,-115.27 54.75,-156.42zm49.81 267.97c23.05,30.47 56.26,45.7 99.62,45.7 43.36,0 76.57,-15.23 99.62,-45.7 23.05,-30.46 34.58,-67.64 34.58,-111.55 0,-43.91 -11.53,-81.1 -34.58,-111.56 -23.05,-30.47 -56.26,-45.7 -99.62,-45.7 -43.36,0 -76.57,15.23 -99.62,45.7 -23.05,30.46 -34.58,67.65 -34.58,111.56 0,43.91 11.53,81.09 34.58,111.55zm362.25 -258.09l0 -60.93 357.31 0 0 60.93 -143.25 0 0 354.01 -69.98 0 0 -354.01 -144.07 0zm713.78 354.01l0 -43.64 -18.11 0c-28.54,36.23 -71.63,54.34 -129.26,54.34 -45.56,0 -81.78,-13.17 -108.68,-39.52 -26.89,-26.34 -40.34,-58.18 -40.34,-95.5 0,-37.87 13.18,-70.26 39.52,-97.15 26.35,-26.9 66.14,-40.34 119.38,-40.34l135.02 0 0 -16.47c0,-26.34 -8.23,-47.34 -24.7,-62.98 -16.46,-15.64 -41.98,-23.47 -76.56,-23.47 -60.38,0 -92.49,20.04 -96.33,60.11l-69.98 0c2.74,-37.88 19.07,-67.52 48.99,-88.92 29.91,-21.41 68.47,-32.11 115.67,-32.11 53.24,0 95.09,12.35 125.56,37.05 30.46,24.7 45.69,60.1 45.69,106.2l0 282.39 -65.87 0zm-130.08 -50.22c34.58,0 64.49,-11.39 89.74,-34.17 25.25,-22.78 37.87,-50.63 37.87,-83.57l0 -37.87 -124.32 0c-66.41,0 -99.62,26.35 -99.62,79.04 0,23.6 8.37,42.26 25.11,55.99 16.75,13.72 40.48,20.58 71.22,20.58zm-2389.16 824.17l69.98 0c-8.23,41.71 -27.58,74.78 -58.04,99.21 -30.46,24.42 -69.3,36.63 -116.5,36.63 -62.57,0 -111.83,-20.44 -147.77,-61.33 -35.96,-40.89 -53.93,-93.17 -53.93,-156.83 0,-64.22 17.84,-116.64 53.51,-157.25 35.68,-40.61 85.08,-60.92 148.19,-60.92 47.75,0 86.58,11.94 116.5,35.81 29.91,23.88 48.44,55.58 55.57,95.1l-69.98 0c-14.82,-46.66 -48.85,-69.99 -102.09,-69.99 -44.46,0 -77.53,14.69 -99.21,44.05 -21.68,29.37 -32.52,66.55 -32.52,111.56 0,45.56 10.98,83.43 32.93,113.62 21.96,30.18 54.89,45.28 98.8,45.28 58.18,0 93.03,-24.98 104.56,-74.92zm273.33 125.14l-98.8 0 0 -414.94 68.34 0 0 321.08 18.11 0 181.94 -321.08 102.09 0 0 414.94 -68.33 0 0 -321.08 -18.12 0 -185.23 321.08zm776.35 -60.92l76.57 0 0 178.64 -68.34 0 0 -117.73 -358.95 0 0 117.73 -68.34 0 0 -178.64 55.16 0c34.03,-72.46 51.05,-152.58 51.05,-240.4l0 -113.62 312.85 0 0 354.02zm-69.98 0l0 -293.09 -177.83 0 0 52.69c0,93.86 -15.09,173.98 -45.28,240.4l223.11 0zm596.88 -171.24l0 23.87 -316.14 0c1.09,49.95 12.9,88.78 35.4,116.5 22.5,27.72 54.89,41.58 97.15,41.58 57.08,0 92.21,-21.41 105.38,-64.22l70.81 0c-7.14,37.32 -25.94,67.51 -56.4,90.56 -30.46,23.06 -70.39,34.58 -119.79,34.58 -63.12,0 -112.52,-20.58 -148.19,-61.75 -35.67,-41.16 -53.51,-94.68 -53.51,-160.53 0,-64.77 17.84,-116.64 53.51,-155.6 35.68,-38.97 84.53,-58.45 146.54,-58.45 58.73,0 104.01,18.52 135.85,55.57 31.83,37.05 48.3,83.02 49.4,137.91zm-186.88 -132.56c-35.68,0 -64.22,9.2 -85.63,27.58 -21.4,18.39 -34.58,41.86 -39.52,70.4l239.58 0c-2.2,-27.99 -13.45,-51.32 -33.76,-69.98 -20.31,-18.67 -47.2,-28 -80.68,-28zm665.21 364.72l-69.98 0 0 -182.76 -229.7 0 0 182.76 -69.98 0 0 -414.94 69.98 0 0 171.24 229.7 0 0 -171.24 69.98 0 0 414.94zm717.89 -414.94l206.64 0 0 414.94 -70.8 0 0 -163.83 -125.97 0c-10.98,0 -19.48,-0.27 -25.52,-0.82l-62.57 164.65 -73.28 0 69.98 -180.29c-42.81,-20.31 -64.21,-56.54 -64.21,-108.68 0,-40.07 12.48,-71.08 37.46,-93.04 24.97,-21.95 61.06,-32.93 108.26,-32.93zm135.85 59.28l-128.44 0c-30.19,0 -51.59,5.76 -64.22,17.29 -12.62,11.53 -18.93,28.27 -18.93,50.22 0,21.41 6.31,37.6 18.93,48.58 12.63,10.97 34.03,16.46 64.22,16.46l128.44 0 0 -132.55zm-2100.18 1254.75l-85.63 0 0 -95.5 85.63 0 0 95.5zm143.24 -512.9c38.42,-49.95 89.74,-74.92 153.95,-74.92 64.22,0 115.68,25.11 154.36,75.33 38.7,50.22 58.05,125.01 58.05,224.34 0,99.35 -19.35,173.98 -58.05,223.93 -38.69,49.95 -90.15,74.92 -154.36,74.92 -64.22,0 -115.54,-24.97 -153.95,-74.92 -38.42,-49.95 -57.63,-124.59 -57.63,-223.93 0,-99.89 19.21,-174.8 57.63,-224.75zm49.4 397.23c23.06,41.44 57.91,62.16 104.56,62.16 46.66,0 81.65,-20.72 104.97,-62.16 23.33,-41.43 35,-98.93 35,-172.47 0,-74.1 -11.67,-131.87 -35,-173.3 -23.32,-41.44 -58.31,-62.16 -104.97,-62.16 -46.65,0 -81.5,20.72 -104.56,62.16 -23.05,41.44 -34.58,99.21 -34.58,173.3 0,73.55 11.53,131.05 34.58,172.47zm939.37 -9.46l69.98 0c-8.23,41.71 -27.58,74.78 -58.04,99.21 -30.46,24.42 -69.3,36.63 -116.5,36.63 -62.57,0 -111.83,-20.44 -147.77,-61.33 -35.96,-40.89 -53.93,-93.17 -53.93,-156.83 0,-64.22 17.84,-116.64 53.51,-157.25 35.68,-40.61 85.08,-60.92 148.19,-60.92 47.75,0 86.58,11.94 116.5,35.81 29.91,23.88 48.44,55.58 55.57,95.1l-69.98 0c-14.82,-46.66 -48.85,-69.99 -102.09,-69.99 -44.46,0 -77.53,14.69 -99.21,44.05 -21.68,29.37 -32.52,66.55 -32.52,111.56 0,45.56 10.98,83.43 32.93,113.62 21.96,30.18 54.89,45.28 98.8,45.28 58.18,0 93.03,-24.98 104.56,-74.92zm174.53 125.14l0 -414.94 111.15 0 102.09 189.35 18.11 0 102.09 -189.35 109.5 0 0 414.94 -68.33 0 0 -333.43 -18.12 0 -96.32 177.82 -77.39 0 -96.33 -177.82 -18.11 0 0 333.43 -68.34 0zm144.88 -1314.02l0 138.32 122.68 0c49.94,0 88.5,12.07 115.67,36.22 27.17,24.15 40.75,57.91 40.75,101.27 0,43.91 -13.58,78.08 -40.75,102.5 -27.17,24.43 -65.73,36.64 -115.67,36.64l-192.65 0 0 -414.94 69.98 0zm0 354.02l112.8 0c34.58,0 59.27,-6.59 74.09,-19.76 14.82,-13.18 22.23,-32.66 22.23,-58.46 0,-25.8 -7.41,-45.28 -22.23,-58.45 -14.82,-13.18 -39.51,-19.76 -74.09,-19.76l-112.8 0 0 156.42zm935.25 60.92l-85.63 0 0 -95.5 85.63 0 0 95.5zm0 -319.43l-85.63 0 0 -95.51 85.63 0 0 95.51zm-3155.63 1019.28l79.04 0 0 64.22 -79.04 0 0 135.02 -70.81 0 0 -135.02 -284.85 0 0 -82.33 254.39 -358.96 101.27 0 0 377.07zm-279.92 0l209.94 0 0 -295.56 -18.12 0 -191.82 277.45 0 18.11zm783.77 0l79.04 0 0 64.22 -79.04 0 0 135.02 -70.81 0 0 -135.02 -284.85 0 0 -82.33 254.39 -358.96 101.27 0 0 377.07zm-279.92 0l209.94 0 0 -295.56 -18.12 0 -191.82 277.45 0 18.11z"/>
  <path fill="#666666" fill-rule="nonzero" fill-opacity="0.800000" d="M9840.35 18955.6l-72.45 0c3.29,-55.43 22.64,-97.7 58.04,-126.79 35.4,-29.09 80,-43.63 133.79,-43.63 55.98,0 101.13,15.23 135.43,45.69 34.31,30.46 51.46,73.69 51.46,129.67 0,68.06 -42.54,137.49 -127.62,208.29l-144.89 121.85 0 18.11 290.62 0 0 64.22 -396 0 0 -81.51 84.8 -69.16c52.69,-42.26 96.33,-79.31 130.91,-111.14 13.17,-11.53 23.73,-21.41 31.69,-29.64 7.96,-8.23 17.02,-19.08 27.17,-32.52 10.16,-13.45 17.84,-27.58 23.06,-42.4 5.21,-14.82 7.82,-30.19 7.82,-46.11 0,-35.68 -10.43,-63.12 -31.29,-82.33 -20.86,-19.21 -49.12,-28.82 -84.8,-28.82 -33.48,0 -60.51,8.92 -81.1,26.76 -20.58,17.84 -32.79,44.32 -36.63,79.45zm479.15 0l-72.45 0c3.29,-55.43 22.64,-97.7 58.04,-126.79 35.4,-29.09 80,-43.63 133.79,-43.63 55.98,0 101.13,15.23 135.43,45.69 34.31,30.46 51.46,73.69 51.46,129.67 0,68.06 -42.54,137.49 -127.62,208.29l-144.89 121.85 0 18.11 290.62 0 0 64.22 -396 0 0 -81.51 84.8 -69.16c52.69,-42.26 96.33,-79.31 130.91,-111.14 13.17,-11.53 23.73,-21.41 31.69,-29.64 7.96,-8.23 17.02,-19.08 27.17,-32.52 10.16,-13.45 17.84,-27.58 23.06,-42.4 5.21,-14.82 7.82,-30.19 7.82,-46.11 0,-35.68 -10.43,-63.12 -31.29,-82.33 -20.86,-19.21 -49.12,-28.82 -84.8,-28.82 -33.48,0 -60.51,8.92 -81.1,26.76 -20.58,17.84 -32.79,44.32 -36.63,79.45zm631.46 41.99c52.69,0 96.6,17.7 131.73,53.1 35.13,35.41 52.69,80.28 52.69,134.62 0,56.53 -17.7,103.73 -53.1,141.59 -35.41,37.88 -83.02,56.81 -142.84,56.81 -65.31,0 -116.91,-22.5 -154.77,-67.51 -37.87,-45.01 -56.81,-116.91 -56.81,-215.7 0,-92.76 18.53,-168.49 55.58,-227.22 37.04,-58.73 91.52,-88.09 163.41,-88.09 47.75,0 86.86,12.76 117.32,38.28 30.47,25.52 48.99,58.59 55.58,99.21l-71.63 0c-14.27,-48.85 -48.03,-73.28 -101.27,-73.28 -45.55,0 -81.23,18.12 -107.03,54.34 -25.79,36.23 -39.79,86.18 -41.99,149.84l18.12 0c12.07,-14.82 29.77,-27.86 53.1,-39.11 23.33,-11.25 50.63,-16.88 81.92,-16.88zm-102.91 286.5c24.15,23.6 54.33,35.4 90.56,35.4 36.23,0 66,-11.52 89.33,-34.57 23.33,-23.06 34.99,-55.17 34.99,-96.33 0,-41.17 -11.8,-72.73 -35.4,-94.68 -23.6,-21.96 -53.79,-32.93 -90.57,-32.93 -36.22,0 -66.14,11.25 -89.74,33.75 -23.6,22.51 -35.4,53.52 -35.4,93.04 0,40.61 12.07,72.72 36.23,96.32zm471.73 88.92l-85.63 0 0 -95.5 85.63 0 0 95.5zm143.24 -512.9c38.42,-49.95 89.74,-74.92 153.95,-74.92 64.22,0 115.68,25.11 154.36,75.33 38.7,50.22 58.05,125.01 58.05,224.34 0,99.35 -19.35,173.98 -58.05,223.93 -38.69,49.95 -90.15,74.92 -154.36,74.92 -64.22,0 -115.54,-24.97 -153.95,-74.92 -38.42,-49.95 -57.63,-124.59 -57.63,-223.93 0,-99.89 19.21,-174.8 57.63,-224.75zm49.4 397.23c23.06,41.44 57.91,62.16 104.56,62.16 46.66,0 81.65,-20.72 104.97,-62.16 23.33,-41.43 35,-98.93 35,-172.47 0,-74.1 -11.67,-131.87 -35,-173.3 -23.32,-41.44 -58.31,-62.16 -104.97,-62.16 -46.65,0 -81.5,20.72 -104.56,62.16 -23.05,41.44 -34.58,99.21 -34.58,173.3 0,73.55 11.53,131.05 34.58,172.47zm939.37 -9.46l69.98 0c-8.23,41.71 -27.58,74.78 -58.04,99.21 -30.46,24.42 -69.3,36.63 -116.5,36.63 -62.57,0 -111.83,-20.44 -147.77,-61.33 -35.96,-40.89 -53.93,-93.17 -53.93,-156.83 0,-64.22 17.84,-116.64 53.51,-157.25 35.68,-40.61 85.08,-60.92 148.19,-60.92 47.75,0 86.58,11.94 116.5,35.81 29.91,23.88 48.44,55.58 55.57,95.1l-69.98 0c-14.82,-46.66 -48.85,-69.99 -102.09,-69.99 -44.46,0 -77.53,14.69 -99.21,44.05 -21.68,29.37 -32.52,66.55 -32.52,111.56 0,45.56 10.98,83.43 32.93,113.62 21.96,30.18 54.89,45.28 98.8,45.28 58.18,0 93.03,-24.98 104.56,-74.92zm174.53 125.14l0 -414.94 111.15 0 102.09 189.35 18.11 0 102.09 -189.35 109.5 0 0 414.94 -68.33 0 0 -333.43 -18.12 0 -96.32 177.82 -77.39 0 -96.33 -177.82 -18.11 0 0 333.43 -68.34 0z"/>
  <path fill="#666666" fill-rule="nonzero" fill-opacity="0.800000" d="M3826.47 5837.56c0,52.69 -17.7,96.6 -53.1,131.73 -35.41,35.12 -80.28,52.69 -134.62,52.69 -56.53,0 -103.73,-17.7 -141.59,-53.11 -37.88,-35.4 -56.81,-83.01 -56.81,-142.83 0,-65.32 22.5,-116.91 67.51,-154.77 45.01,-37.87 116.91,-56.81 215.7,-56.81 92.75,0 168.49,18.52 227.22,55.57 58.73,37.05 88.09,91.53 88.09,163.42 0,47.75 -12.76,86.86 -38.28,117.32 -25.52,30.46 -58.59,48.99 -99.21,55.57l0 -71.62c48.85,-14.27 73.27,-48.03 73.27,-101.27 0,-45.56 -18.11,-81.23 -54.33,-107.03 -36.23,-25.8 -86.18,-39.79 -149.84,-41.99l0 18.11c14.82,12.08 27.86,29.78 39.11,53.11 11.25,23.32 16.88,50.63 16.88,81.92zm-286.5 -102.92c-23.6,24.15 -35.41,54.34 -35.41,90.57 0,36.22 11.53,66 34.58,89.33 23.06,23.32 55.17,34.99 96.33,34.99 41.17,0 72.73,-11.8 94.68,-35.41 21.96,-23.6 32.93,-53.79 32.93,-90.56 0,-36.23 -11.25,-66.14 -33.75,-89.74 -22.51,-23.6 -53.52,-35.4 -93.04,-35.4 -40.61,0 -72.72,12.07 -96.32,36.22zm-24.7 -268.38c-49.95,-38.42 -74.92,-89.74 -74.92,-153.95 0,-64.22 25.11,-115.68 75.33,-154.36 50.22,-38.7 125.01,-58.05 224.34,-58.05 99.35,0 173.98,19.35 223.93,58.05 49.95,38.69 74.92,90.15 74.92,154.36 0,64.22 -24.97,115.54 -74.92,153.95 -49.95,38.42 -124.59,57.63 -223.93,57.63 -99.89,0 -174.8,-19.21 -224.75,-57.63zm397.23 -49.4c41.44,-23.06 62.16,-57.91 62.16,-104.56 0,-46.66 -20.72,-81.65 -62.16,-104.97 -41.43,-23.33 -98.93,-35 -172.47,-35 -74.1,0 -131.87,11.67 -173.3,35 -41.44,23.32 -62.16,58.31 -62.16,104.97 0,46.65 20.72,81.5 62.16,104.56 41.44,23.05 99.21,34.58 173.3,34.58 73.55,0 131.05,-11.53 172.47,-34.58zm115.68 -511.26l0 85.63 -95.5 0 0 -85.63 95.5 0zm-512.9 -143.24c-49.95,-38.42 -74.92,-89.74 -74.92,-153.95 0,-64.22 25.11,-115.68 75.33,-154.36 50.22,-38.7 125.01,-58.05 224.34,-58.05 99.35,0 173.98,19.35 223.93,58.05 49.95,38.69 74.92,90.15 74.92,154.36 0,64.22 -24.97,115.54 -74.92,153.95 -49.95,38.42 -124.59,57.63 -223.93,57.63 -99.89,0 -174.8,-19.21 -224.75,-57.63zm397.23 -49.4c41.44,-23.06 62.16,-57.91 62.16,-104.56 0,-46.66 -20.72,-81.65 -62.16,-104.97 -41.43,-23.33 -98.93,-35 -172.47,-35 -74.1,0 -131.87,11.67 -173.3,35 -41.44,23.32 -62.16,58.31 -62.16,104.97 0,46.65 20.72,81.5 62.16,104.56 41.44,23.05 99.21,34.58 173.3,34.58 73.55,0 131.05,-11.53 172.47,-34.58zm-9.46 -939.37l0 -69.98c41.71,8.23 74.78,27.58 99.21,58.04 24.42,30.46 36.63,69.3 36.63,116.5 0,62.57 -20.44,111.83 -61.33,147.77 -40.89,35.96 -93.17,53.93 -156.83,53.93 -64.22,0 -116.64,-17.84 -157.25,-53.51 -40.61,-35.68 -60.92,-85.08 -60.92,-148.19 0,-47.75 11.94,-86.58 35.81,-116.5 23.88,-29.91 55.58,-48.44 95.1,-55.57l0 69.98c-46.66,14.82 -69.99,48.85 -69.99,102.09 0,44.46 14.69,77.53 44.05,99.21 29.37,21.68 66.55,32.52 111.56,32.52 45.56,0 83.43,-10.98 113.62,-32.93 30.18,-21.96 45.28,-54.89 45.28,-98.8 0,-58.18 -24.98,-93.03 -74.92,-104.56zm125.14 -174.53l-414.94 0 0 -111.15 189.35 -102.09 0 -18.11 -189.35 -102.09 0 -109.5 414.94 0 0 68.33 -333.43 0 0 18.12 177.82 96.32 0 77.39 -177.82 96.33 0 18.11 333.43 0 0 68.34z"/>
  <path fill="#666666" fill-rule="nonzero" fill-opacity="0.800000" d="M3826.47 12920.52c0,52.69 -17.7,96.6 -53.1,131.73 -35.41,35.12 -80.28,52.69 -134.62,52.69 -56.53,0 -103.73,-17.7 -141.59,-53.11 -37.88,-35.4 -56.81,-83.01 -56.81,-142.83 0,-65.32 22.5,-116.91 67.51,-154.77 45.01,-37.87 116.91,-56.81 215.7,-56.81 92.75,0 168.49,18.52 227.22,55.57 58.73,37.05 88.09,91.53 88.09,163.42 0,47.75 -12.76,86.86 -38.28,117.32 -25.52,30.46 -58.59,48.99 -99.21,55.57l0 -71.62c48.85,-14.27 73.27,-48.03 73.27,-101.27 0,-45.56 -18.11,-81.23 -54.33,-107.03 -36.23,-25.8 -86.18,-39.79 -149.84,-41.99l0 18.11c14.82,12.08 27.86,29.78 39.11,53.11 11.25,23.32 16.88,50.63 16.88,81.92zm-286.5 -102.92c-23.6,24.15 -35.41,54.34 -35.41,90.57 0,36.22 11.53,66 34.58,89.33 23.06,23.32 55.17,34.99 96.33,34.99 41.17,0 72.73,-11.8 94.68,-35.41 21.96,-23.6 32.93,-53.79 32.93,-90.56 0,-36.23 -11.25,-66.14 -33.75,-89.74 -22.51,-23.6 -53.52,-35.4 -93.04,-35.4 -40.61,0 -72.72,12.07 -96.32,36.22zm70.8 -281.56l0 72.45c-55.43,-3.29 -97.7,-22.64 -126.79,-58.04 -29.09,-35.4 -43.63,-80 -43.63,-133.79 0,-55.98 15.23,-101.13 45.69,-135.43 30.46,-34.31 73.69,-51.46 129.67,-51.46 68.06,0 137.49,42.54 208.29,127.62l121.85 144.89 18.11 0 0 -290.62 64.22 0 0 396 -81.51 0 -69.16 -84.8c-42.26,-52.69 -79.31,-96.33 -111.14,-130.91 -11.53,-13.17 -21.41,-23.73 -29.64,-31.69 -8.23,-7.96 -19.08,-17.02 -32.52,-27.17 -13.45,-10.16 -27.58,-17.84 -42.4,-23.06 -14.82,-5.21 -30.19,-7.82 -46.11,-7.82 -35.68,0 -63.12,10.43 -82.33,31.29 -19.21,20.86 -28.82,49.12 -28.82,84.8 0,33.48 8.92,60.51 26.76,81.1 17.84,20.58 44.32,32.79 79.45,36.63zm417.41 -512.08l0 85.63 -95.5 0 0 -85.63 95.5 0zm-512.9 -143.24c-49.95,-38.42 -74.92,-89.74 -74.92,-153.95 0,-64.22 25.11,-115.68 75.33,-154.36 50.22,-38.7 125.01,-58.05 224.34,-58.05 99.35,0 173.98,19.35 223.93,58.05 49.95,38.69 74.92,90.15 74.92,154.36 0,64.22 -24.97,115.54 -74.92,153.95 -49.95,38.42 -124.59,57.63 -223.93,57.63 -99.89,0 -174.8,-19.21 -224.75,-57.63zm397.23 -49.4c41.44,-23.06 62.16,-57.91 62.16,-104.56 0,-46.66 -20.72,-81.65 -62.16,-104.97 -41.43,-23.33 -98.93,-35 -172.47,-35 -74.1,0 -131.87,11.67 -173.3,35 -41.44,23.32 -62.16,58.31 -62.16,104.97 0,46.65 20.72,81.5 62.16,104.56 41.44,23.05 99.21,34.58 173.3,34.58 73.55,0 131.05,-11.53 172.47,-34.58zm-9.46 -939.37l0 -69.98c41.71,8.23 74.78,27.58 99.21,58.04 24.42,30.46 36.63,69.3 36.63,116.5 0,62.57 -20.44,111.83 -61.33,147.77 -40.89,35.96 -93.17,53.93 -156.83,53.93 -64.22,0 -116.64,-17.84 -157.25,-53.51 -40.61,-35.68 -60.92,-85.08 -60.92,-148.19 0,-47.75 11.94,-86.58 35.81,-116.5 23.88,-29.91 55.58,-48.44 95.1,-55.57l0 69.98c-46.66,14.82 -69.99,48.85 -69.99,102.09 0,44.46 14.69,77.53 44.05,99.21 29.37,21.68 66.55,32.52 111.56,32.52 45.56,0 83.43,-10.98 113.62,-32.93 30.18,-21.96 45.28,-54.89 45.28,-98.8 0,-58.18 -24.98,-93.03 -74.92,-104.56zm125.14 -174.53l-414.94 0 0 -111.15 189.35 -102.09 0 -18.11 -189.35 -102.09 0 -109.5 414.94 0 0 68.33 -333.43 0 0 18.12 177.82 96.32 0 77.39 -177.82 96.33 0 18.11 333.43 0 0 68.34z"/>
  <path fill="#666666" fill-rule="nonzero" fill-opacity="0.800000" d="M8261.59 15798.92l0 -64.22 136.66 0 0 -436.33 -16.46 0 -121.03 81.51 0 -75.75 120.21 -81.51 89.74 0 0 512.08 125.96 0 0 64.22 -335.07 0zm586.17 -201.7c-52.69,0 -96.6,-17.7 -131.73,-53.1 -35.12,-35.41 -52.69,-80.28 -52.69,-134.62 0,-56.53 17.7,-103.73 53.11,-141.59 35.4,-37.88 83.01,-56.81 142.83,-56.81 65.32,0 116.91,22.5 154.77,67.51 37.87,45.01 56.81,116.91 56.81,215.7 0,92.75 -18.52,168.49 -55.57,227.22 -37.05,58.73 -91.53,88.09 -163.42,88.09 -47.75,0 -86.86,-12.76 -117.32,-38.28 -30.46,-25.52 -48.99,-58.59 -55.57,-99.21l71.62 0c14.27,48.85 48.03,73.27 101.27,73.27 45.56,0 81.23,-18.11 107.03,-54.33 25.8,-36.23 39.79,-86.18 41.99,-149.84l-18.11 0c-12.08,14.82 -29.78,27.86 -53.11,39.11 -23.32,11.25 -50.63,16.88 -81.92,16.88zm102.92 -286.5c-24.15,-23.6 -54.34,-35.41 -90.57,-35.41 -36.22,0 -66,11.53 -89.33,34.58 -23.32,23.06 -34.99,55.17 -34.99,96.33 0,41.17 11.8,72.73 35.41,94.68 23.6,21.96 53.79,32.93 90.56,32.93 36.23,0 66.14,-11.25 89.74,-33.75 23.6,-22.51 35.4,-53.52 35.4,-93.04 0,-40.61 -12.07,-72.72 -36.22,-96.32zm426.45 100.44c55.98,0 100.85,18.39 134.61,55.16 33.76,36.78 50.63,82.61 50.63,137.5 0,62.02 -18.25,111.83 -54.75,149.42 -36.5,37.59 -84.11,56.39 -142.83,56.39 -60.93,0 -108.81,-15.91 -143.66,-47.75 -34.85,-31.83 -53.92,-73.27 -57.22,-124.32l71.63 0c4.39,35.13 17.56,61.89 39.52,80.27 21.95,18.39 50.77,27.58 86.45,27.58 38.42,0 69.43,-12.48 93.03,-37.46 23.6,-24.97 35.4,-58.59 35.4,-100.85 0,-40.07 -11.39,-72.59 -34.16,-97.56 -22.78,-24.98 -53.38,-37.46 -91.8,-37.46 -51.6,0 -89.74,18.11 -114.44,54.33l-72.46 0 25.53 -303.79 329.31 0 0 62.57 -270.86 0 -13.17 166.3 18.11 0c29.64,-26.89 66.69,-40.34 111.15,-40.34zm365.54 387.77l-85.63 0 0 -95.5 85.63 0 0 95.5zm1970.11 -576.3l336.73 0 0 80.69 -144.07 123.49 0 17.29c51.04,1.1 92.34,17.02 123.9,47.76 31.56,30.73 47.34,73.27 47.34,127.61 0,58.73 -18.93,105.11 -56.8,139.14 -37.88,34.03 -86.73,51.04 -146.54,51.04 -57.63,0 -104.84,-16.19 -141.6,-48.57 -36.78,-32.39 -56.81,-73.55 -60.1,-123.5l72.45 0c3.29,32.38 16.88,58.46 40.75,78.22 23.88,19.76 53.38,29.63 88.51,29.63 40.06,0 71.9,-11.25 95.5,-33.75 23.6,-22.5 35.4,-53.24 35.4,-92.21 0,-38.42 -11.25,-68.47 -33.75,-90.15 -22.51,-21.68 -54.62,-32.52 -96.33,-32.52 -20.31,0 -37.05,1.64 -50.22,4.94l0 -76.57 140.77 -121.85 0 -18.12 -251.92 0 0 -62.57zm773.06 263.45l0 18.12c22.5,7.68 43.08,23.73 61.74,48.16 18.67,24.42 28,54.2 28,89.33 0,48.3 -19.08,88.37 -57.22,120.2 -38.15,31.84 -88.51,47.75 -151.07,47.75 -62.57,0 -112.93,-15.91 -151.07,-47.75 -38.14,-31.83 -57.22,-71.9 -57.22,-120.2 0,-34.58 9.33,-64.22 27.99,-88.92 18.67,-24.7 39.25,-40.89 61.75,-48.57l0 -18.12c-18.11,-7.68 -34.71,-22.23 -49.81,-43.63 -15.09,-21.41 -22.64,-47.21 -22.64,-77.39 0,-45.56 17.84,-82.61 53.52,-111.15 35.67,-28.54 81.5,-42.81 137.49,-42.81 55.98,0 101.82,14.27 137.49,42.81 35.68,28.54 53.52,65.59 53.52,111.15 0,29.09 -7.69,54.61 -23.06,76.56 -15.36,21.96 -31.83,36.78 -49.39,44.46zm-32.52 -187.29c-22.78,-16.74 -51.46,-25.11 -86.04,-25.11 -34.58,0 -63.26,8.37 -86.04,25.11 -22.77,16.74 -34.16,39.93 -34.16,69.57 0,29.64 11.39,52.97 34.16,69.98 22.78,17.02 51.46,25.52 86.04,25.52 34.58,0 63.26,-8.5 86.04,-25.52 22.77,-17.01 34.16,-40.34 34.16,-69.98 0,-29.64 -11.39,-52.83 -34.16,-69.57zm-186.06 416.58c24.42,20.04 57.77,30.05 100.03,30.05 42.26,0 75.61,-10.01 100.03,-30.05 24.43,-20.03 36.64,-46.79 36.64,-80.27 0,-34.03 -12.08,-60.65 -36.23,-79.86 -24.15,-19.21 -57.63,-28.82 -100.44,-28.82 -42.81,0 -76.29,9.61 -100.44,28.82 -24.15,19.21 -36.23,45.83 -36.23,79.86 0,33.48 12.21,60.24 36.64,80.27zm1632.97 -41.57l69.98 0c-8.23,41.71 -27.58,74.78 -58.04,99.21 -30.46,24.42 -69.3,36.63 -116.5,36.63 -62.57,0 -111.83,-20.44 -147.77,-61.33 -35.96,-40.89 -53.93,-93.17 -53.93,-156.83 0,-64.22 17.84,-116.64 53.51,-157.25 35.68,-40.61 85.08,-60.92 148.19,-60.92 47.75,0 86.58,11.94 116.5,35.81 29.91,23.88 48.44,55.58 55.57,95.1l-69.98 0c-14.82,-46.66 -48.85,-69.99 -102.09,-69.99 -44.46,0 -77.53,14.69 -99.21,44.05 -21.68,29.37 -32.52,66.55 -32.52,111.56 0,45.56 10.98,83.43 32.93,113.62 21.96,30.18 54.89,45.28 98.8,45.28 58.18,0 93.03,-24.98 104.56,-74.92zm174.53 125.14l0 -414.94 111.15 0 102.09 189.35 18.11 0 102.09 -189.35 109.5 0 0 414.94 -68.33 0 0 -333.43 -18.12 0 -96.32 177.82 -77.39 0 -96.33 -177.82 -18.11 0 0 333.43 -68.34 0zm-4165.8 -512.9c38.42,-49.95 89.74,-74.92 153.95,-74.92 64.22,0 115.68,25.11 154.36,75.33 38.7,50.22 58.05,125.01 58.05,224.34 0,99.35 -19.35,173.98 -58.05,223.93 -38.69,49.95 -90.15,74.92 -154.36,74.92 -64.22,0 -115.54,-24.97 -153.95,-74.92 -38.42,-49.95 -57.63,-124.59 -57.63,-223.93 0,-99.89 19.21,-174.8 57.63,-224.75zm49.4 397.23c23.06,41.44 57.91,62.16 104.56,62.16 46.66,0 81.65,-20.72 104.97,-62.16 23.33,-41.43 35,-98.93 35,-172.47 0,-74.1 -11.67,-131.87 -35,-173.3 -23.32,-41.44 -58.31,-62.16 -104.97,-62.16 -46.65,0 -81.5,20.72 -104.56,62.16 -23.05,41.44 -34.58,99.21 -34.58,173.3 0,73.55 11.53,131.05 34.58,172.47zm936.08 115.68l-102.92 -173.71 -29.64 0 -105.38 173.71 -76.57 0 129.26 -212.4 -116.08 -202.53 74.09 0 95.51 164.65 29.64 0 97.15 -164.65 73.27 0 -117.73 200.06 128.43 214.87 -79.03 0zm386.95 0l0 -64.22 136.66 0 0 -436.33 -16.46 0 -121.03 81.51 0 -75.75 120.21 -81.51 89.74 0 0 512.08 125.96 0 0 64.22 -335.07 0zm1486.84 0l-85.63 0 0 -95.5 85.63 0 0 95.5zm143.24 -512.9c38.42,-49.95 89.74,-74.92 153.95,-74.92 64.22,0 115.68,25.11 154.36,75.33 38.7,50.22 58.05,125.01 58.05,224.34 0,99.35 -19.35,173.98 -58.05,223.93 -38.69,49.95 -90.15,74.92 -154.36,74.92 -64.22,0 -115.54,-24.97 -153.95,-74.92 -38.42,-49.95 -57.63,-124.59 -57.63,-223.93 0,-99.89 19.21,-174.8 57.63,-224.75zm49.4 397.23c23.06,41.44 57.91,62.16 104.56,62.16 46.66,0 81.65,-20.72 104.97,-62.16 23.33,-41.43 35,-98.93 35,-172.47 0,-74.1 -11.67,-131.87 -35,-173.3 -23.32,-41.44 -58.31,-62.16 -104.97,-62.16 -46.65,0 -81.5,20.72 -104.56,62.16 -23.05,41.44 -34.58,99.21 -34.58,173.3 0,73.55 11.53,131.05 34.58,172.47z"/>
 </g>
 <g id="Выносные_x0020_линии">
  <metadata id="CorelCorpID_3Corel-Layer"/>
  <rect fill="none" stroke="black" stroke-width="16.93" stroke-miterlimit="22.9256" x="8.47" y="8.47" width="29698.94" height="20999.25"/>
  <g id="_2238057091296">
   <line fill="none" stroke="gray" stroke-width="10.58" stroke-miterlimit="22.9256" x1="4049.5" y1="6888.58" x2="5258.2" y2= "6888.58" />
   <line fill="none" stroke="gray" stroke-width="10.58" stroke-miterlimit="22.9256" x1="4046.55" y1="2364.5" x2="5258.2" y2= "2364.5" />
   <line fill="none" stroke="gray" stroke-width="10.58" stroke-miterlimit="22.9256" x1="4503.72" y1="7339.26" x2="4503.72" y2= "1971.87" />
  </g>
  <g id="_2238057093312">
   <line fill="none" stroke="gray" stroke-width="10.58" stroke-miterlimit="22.9256" x1="4049.5" y1="14210.74" x2="5258.2" y2= "14210.74" />
   <line fill="none" stroke="gray" stroke-width="10.58" stroke-miterlimit="22.9256" x1="4046.55" y1="9073.27" x2="5258.2" y2= "9073.27" />
   <line fill="none" stroke="gray" stroke-width="10.58" stroke-miterlimit="22.9256" x1="4503.72" y1="14686.42" x2="4503.72" y2= "8680.64" />
  </g>
  <g id="_2238057094032">
   <line fill="none" stroke="gray" stroke-width="10.58" stroke-miterlimit="22.9256" x1="5527.7" y1="18695.65" x2="5527.7" y2= "17483.99" />
   <line fill="none" stroke="gray" stroke-width="10.58" stroke-miterlimit="22.9256" x1="17702.87" y1="18238.47" x2="5134.36" y2= "18238.47" />
   <line fill="none" stroke="gray" stroke-width="10.58" stroke-miterlimit="22.9256" x1="17304.74" y1="18692.7" x2="17304.74" y2= "17483.99" />
  </g>
 </g>
</svg>
