<?xml version="1.0" encoding="UTF-8"?>
<!DOCTYPE svg PUBLIC "-//W3C//DTD SVG 1.1//EN" "http://www.w3.org/Graphics/SVG/1.1/DTD/svg11.dtd">
<!-- Creator: CorelDRAW 2021.5 -->
<svg xmlns="http://www.w3.org/2000/svg" xml:space="preserve" width="297mm" height="97.313mm" version="1.1" shape-rendering="geometricPrecision" text-rendering="geometricPrecision" image-rendering="optimizeQuality" fill-rule="evenodd" clip-rule="evenodd"
viewBox="0 0 29698.94 9730.95"
 xmlns:xlink="http://www.w3.org/1999/xlink"
 xmlns:xodm="http://www.corel.com/coreldraw/odm/2003">
 <g id="Тени">
  <metadata id="CorelCorpID_0Corel-Layer"/>
  <g id="_2238322279168">
   <path fill="black" fill-opacity="0.101961" d="M10023.69 3013.84l-22.78 326.55c-0.15,2.1 -4.07,39.23 -34.12,59.08 -19.45,12.86 -53.39,10.88 -92.49,13.3 -99.51,6.14 -1323.68,-10.05 -1361.79,-6.78 -25.44,2.19 -92.25,29.17 -129.94,-20.1 -18.76,-24.52 -19.02,-78.94 -25.81,-142.82 -20.43,-192.27 -79.38,-812.54 -67.85,-811.9 217.39,757.39 1090.71,518.35 1734.77,582.68z"/>
   <path fill="black" fill-opacity="0.101961" d="M3883.08 6337.54c10.18,-377.71 14.34,-686.03 452.15,-713.39 84.55,-5.29 2129.65,0 2129.65,0 414.51,-41.45 369.92,440.37 419.08,792.67l0.3 72.22c62.78,0.1 72.71,0.12 188.34,0.3 -66.27,-136.02 -66.55,-738.32 -60.72,-944.39 6.45,-228.05 48.65,-388.89 87.67,-651.01 0,0 -125.98,271.88 -291.91,331.92 -165.93,60.04 -2630.96,17.8 -2630.96,17.8 -284.89,1.66 -350.68,-18.59 -502.74,-338.5l30.86 172.24c26.97,210.06 92.7,492.94 80.83,694.71 -5.28,89.83 -58.11,717.22 -95.11,717.22l192.56 0 -0.01 -151.79z"/>
   <path fill="black" fill-opacity="0.101961" d="M3552.23 2827.71c0,0 79.03,327.76 199.33,360.11 120.31,32.35 1451.35,20.7 1451.35,20.7l1517.06 -23.87c96.44,-1.62 393.48,54.71 447.07,-243.88 33.26,-185.32 52.99,-294.15 52.99,-294.15l-57.04 621.75 -52.56 141.24 -3495.89 0.03 -23.51 -75.11 -16.23 -169.02 -22.58 -337.8z"/>
   <path fill="black" fill-opacity="0.101961" d="M4197.13 2496.44c348.31,76.19 1758.45,10.24 2237.24,10.24 0,0 149.62,10.32 221.85,-103.19 72.23,-113.5 179.73,-301.84 179.73,-301.84l22.2 7.98c0,0 -32.2,47.2 -43.16,201.54 -10.95,154.34 154.59,177.45 145.77,208.72l-103.48 351.05c-16.53,-62.18 -64.73,-64.77 -179.79,-75.31 -81.88,-7.5 -2498.66,6.84 -2523.52,7.26l-144.5 2.45c-133.6,2.27 -109.89,126.39 -115.63,95.69l-71.96 -297.22c0,0 100.1,-133.24 105.65,-214.1 5.55,-80.88 -29.09,-275.84 -29.09,-275.84 93.02,91.94 115.14,342.43 298.68,382.57z"/>
   <path fill="black" fill-opacity="0.101961" d="M3942.45 2912.26c0,0 -52.77,125.44 -57.89,208.3 -5.12,82.88 -14.04,-340.5 -14.04,-340.5l26.73 135.24 45.2 -3.04z"/>
   <path fill="black" fill-opacity="0.101961" d="M6814.33 2899.1c0,0 52.77,125.44 57.89,208.3 5.12,82.88 14.04,-340.5 14.04,-340.5l-26.73 135.24 -45.2 -3.04z"/>
  </g>
  <g id="_2238322278784">
   <path fill="black" fill-opacity="0.101961" d="M13535.26 2498.28c236.71,76.17 1169.36,3.16 1494.77,3.16 0,0 101.69,10.32 150.77,-103.19 49.09,-113.51 122.16,-301.84 122.16,-301.84l15.08 7.97c0,0 -21.88,47.21 -29.32,201.55 -7.44,154.34 122.61,193.39 116.62,224.65l-87.88 335.11c-11.24,-62.17 -44,-64.77 -122.2,-75.3 -55.64,-7.49 -1698.17,6.85 -1715.06,7.26l-79.35 1.98c-90.78,2.26 -71.92,116.67 -75.82,85.97l-70.54 -287.04c0,0 68.04,-133.24 71.81,-214.1 3.77,-80.87 4.76,-275.84 4.76,-275.84 63.22,91.95 79.47,349.52 204.19,389.66z"/>
   <path fill="black" fill-opacity="0.101961" d="M12984.84 2822.47c0,0 58.26,327.76 146.94,360.11 88.68,32.35 1068.67,0 1068.67,0l1119.46 -16.18c71.1,-1.63 290.04,54.73 329.56,-243.88 24.54,-185.37 39.07,-281.15 39.07,-281.15l-42.05 608.74 -45.64 152.17 -2570.07 2.12 -17.33 -75.11 -11.97 -169.03 -16.65 -337.79z"/>
   <path fill="black" fill-opacity="0.101961" d="M18463.33 3003.96l-22.78 326.55c-0.15,2.1 -4.07,39.22 -34.12,59.08 -19.45,12.85 -53.39,10.88 -92.49,13.29 -99.52,6.15 -1323.68,-10.04 -1361.79,-6.77 -25.44,2.18 -92.25,29.17 -129.94,-20.1 -18.76,-24.52 -19.03,-78.95 -25.81,-142.83 -20.44,-192.26 -79.38,-812.54 -67.85,-811.89 217.39,757.39 1090.71,518.34 1734.77,582.68z"/>
   <path fill="black" fill-opacity="0.101961" d="M13375.06 2907.01c0,0 -52.77,125.45 -57.89,208.31 -5.12,82.87 -14.04,-340.5 -14.04,-340.5l26.73 135.23 45.2 -3.04z"/>
   <path fill="black" fill-opacity="0.101961" d="M13681.55 5617.3c61.16,-5.27 1277.23,-0.39 1277.23,-0.39 351.23,-17.9 329.37,570.21 330.28,866.59 45.42,0.1 52.6,0.11 136.28,0.3 42.02,-234.63 86.04,-738.24 96.34,-944.09 12.98,-259.28 23.77,-417.98 48.09,-665.42 0,0 -75.81,286.29 -195.86,346.33 -120.06,60.04 -1903.59,17.8 -1903.59,17.8 -206.12,1.66 -253.72,-18.59 -363.75,-338.5l12.74 191.39c8.62,129.54 106.19,1392.78 132.93,1392.78l139.33 0c-0.02,-407.08 -37.24,-838.55 290,-866.8z"/>
   <path fill="black" fill-opacity="0.101961" d="M15270.97 2889.82c0,0 52.77,125.45 57.89,208.31 5.12,82.87 14.04,-340.5 14.04,-340.5l-26.73 135.23 -45.2 -3.04z"/>
  </g>
  <g id="_2238322280464">
   <path fill="black" fill-opacity="0.101961" d="M21985.16 5590.22c150.27,-12.97 370.44,-59.62 480.3,112.79 120.24,188.67 100.21,541.56 100.85,753.41 45.43,0.1 52.61,0.12 136.29,0.3 -2.32,-213.52 92.12,-738.03 96.34,-944.09 4.66,-228.05 35.2,-388.89 63.42,-651.01 0,0 -91.14,271.88 -211.19,331.92 -120.07,60.04 -877.23,17.8 -877.23,17.8 -206.13,1.66 -253.73,-18.59 -363.76,-338.5l22.33 172.24c16.69,128.75 96.6,1411.94 123.34,1411.94l139.33 0c-0.01,-407.08 -37.25,-838.57 290,-866.81z"/>
   <path fill="black" fill-opacity="0.101961" d="M21824.19 2486.94c126.84,40.82 597.03,93.14 674.21,-85.32 49.09,-113.5 122.16,-301.84 122.16,-301.84l15.08 7.98c0,0 -21.88,47.2 -29.33,201.54 -7.44,154.34 124.9,191.03 118.9,222.29l-90.15 337.48c-11.24,-62.18 -44,-64.77 -122.2,-75.31 -55.64,-7.49 -701.09,-0.79 -717.98,-0.37l-98.22 2.45c-90.8,2.27 -74.69,126.39 -78.59,95.69l-48.9 -297.22c0,0 68.03,-133.24 71.8,-214.1 3.78,-80.88 -19.77,-275.84 -19.77,-275.84 63.22,91.94 78.25,342.43 202.99,382.57z"/>
   <path fill="black" fill-opacity="0.101961" d="M21286.23 2605.89c0,0 71.53,540.08 160.21,572.43 75.23,27.45 438.32,18.77 767.7,17.02 377.2,-2.01 722.73,-12.88 754.79,-255.19 24.52,-185.35 49.34,-396.09 49.34,-396.09l-74.83 701.78 -41.37 149.09 -1543.43 -1.86 -30.53 -68.05 -11.97 -169.02 -29.92 -550.12z"/>
   <path fill="black" fill-opacity="0.101961" d="M21689.73 2902.76c0,0 -52.77,125.44 -57.89,208.3 -5.12,82.88 -14.04,-340.5 -14.04,-340.5l26.73 135.24 45.2 -3.04z"/>
   <path fill="black" fill-opacity="0.101961" d="M25843.73 3002.15l-22.78 326.55c-0.15,2.1 -4.07,39.23 -34.12,59.09 -19.45,12.85 -53.39,10.87 -92.49,13.29 -99.51,6.14 -1323.68,-10.05 -1361.79,-6.78 -25.43,2.19 -92.25,29.17 -129.94,-20.1 -18.76,-24.52 -19.02,-78.94 -25.81,-142.82 -20.43,-192.27 -79.38,-812.54 -67.85,-811.9 217.39,757.39 1090.71,518.35 1734.77,582.68z"/>
   <path fill="black" fill-opacity="0.101961" d="M22571.4 2890.27c0,0 52.77,125.44 57.89,208.3 5.12,82.88 14.04,-340.5 14.04,-340.5l-26.73 135.24 -45.2 -3.04z"/>
  </g>
 </g>
 <g id="Схемы">
  <metadata id="CorelCorpID_1Corel-Layer"/>
  <g id="_2238322284208">
   <line fill="none" stroke="black" stroke-width="10.58" stroke-miterlimit="22.9256" x1="4873.25" y1="4691.77" x2="4871.77" y2= "6489.34" />
   <line fill="none" stroke="black" stroke-width="10.58" stroke-miterlimit="22.9256" x1="5871.89" y1="4691.77" x2="5871.03" y2= "6489.34" />
   <line fill="none" stroke="black" stroke-width="10.58" stroke-miterlimit="22.9256" x1="3925.97" y1="5492.08" x2="6847.4" y2= "5492.08" />
   <path fill="none" stroke="black" stroke-width="10.58" stroke-miterlimit="22.9256" d="M3579.45 6489.34c-31.53,0 -51.87,-22.09 -53.89,-83.51 -9.88,-299.55 -1.29,-511.64 23.31,-789.58 21.45,-242.25 40.04,-537.66 83.54,-689.59 43.5,-151.92 171.4,-164.46 293.56,-180.88 311.85,-41.92 617.23,-53.37 929.9,-53.98 9.11,-0.02 1016.87,-0.03 1025.99,-0.03"/>
   <path fill="none" stroke="black" stroke-width="10.58" stroke-miterlimit="22.9256" d="M7184.46 6489.93c31.52,0 51.87,-22.1 53.89,-83.51 9.87,-299.55 1.29,-511.64 -23.32,-789.58 -21.45,-242.25 -40.03,-537.66 -83.54,-689.6 -43.5,-151.92 -171.4,-164.46 -293.56,-180.88 -320.93,-43.13 -635.02,-54 -957.24,-54"/>
   <path fill="none" stroke="black" stroke-width="10.58" stroke-miterlimit="22.9256" d="M3674.46 4846.46c-14.57,137.9 80.99,486.65 251.51,645.63"/>
   <path fill="none" stroke="black" stroke-width="10.58" stroke-miterlimit="22.9256" d="M7098.61 4843.02c14.57,137.9 -80.99,486.64 -251.52,645.63"/>
   <path fill="none" stroke="black" stroke-width="10.58" stroke-miterlimit="22.9256" d="M3883.09 6489.34c2.74,-228.96 -15.18,-672.54 42.88,-997.25"/>
   <path fill="none" stroke="black" stroke-width="10.58" stroke-miterlimit="22.9256" d="M6884.26 6489.04c-2.75,-228.96 15.18,-672.55 -42.88,-997.25"/>
   <polyline fill="none" stroke="black" stroke-width="10.58" stroke-miterlimit="22.9256" points="3574.28,6489.34 3880.76,6489.34 7192.96,6489.34 "/>
  </g>
  <g id="_2238322287904">
   <path fill="none" stroke="black" stroke-width="10.58" stroke-miterlimit="22.9256" d="M3614.55 3409.64l3495.89 -0.03c0,0 44.55,-102.2 52.55,-154.26 8,-52.07 77.39,-837.17 77.39,-837.17 0,0 -0.02,-110.19 -8.02,-136.2 -25.35,-82.48 -362.74,-203.56 -537.16,-198.99 -186.69,4.89 -2607.44,1.98 -2607.44,1.98 -107.99,12.79 -590.26,78 -569.97,215.04 6.31,42.56 42.69,705.61 66.37,985.97 6.41,75.81 30.4,123.66 30.4,123.66z"/>
   <line fill="none" stroke="black" stroke-width="10.58" stroke-miterlimit="22.9256" x1="3899.03" y1="2912.46" x2="6857.44" y2= "2898.45" />
   <path fill="none" stroke="black" stroke-width="10.58" stroke-miterlimit="22.9256" d="M7232.36 2281.98c0,0 -91.64,6.02 -132.49,40.06 -158.71,132.24 -209.57,402.59 -242.44,580.82l25.38 410.54 4.58 74.14"/>
   <path fill="none" stroke="black" stroke-width="10.58" stroke-miterlimit="22.9256" d="M6857.44 2898.45c17.62,-87.73 -87.86,-106.42 -179.93,-102.81 -51.09,2 -1810.84,7.26 -1810.84,7.26l-785.36 0c-95.52,0.49 -172.32,2.3 -187.45,98.14"/>
   <path fill="none" stroke="black" stroke-width="10.58" stroke-miterlimit="22.9256" d="M3917.58 2843.51c0,0 46.57,-228.34 43.78,-352.99 -2.8,-124.65 -18.01,-177.38 -31.85,-258.89 -13.84,-81.5 -31.06,-117.76 -31.06,-117.76"/>
   <path fill="none" stroke="black" stroke-width="10.58" stroke-miterlimit="22.9256" d="M6844.8 2834.8c0,0 -34.49,-220.11 -38.48,-277.02 -4,-56.91 -3.83,-175.46 8.69,-246.6 12.52,-71.14 43.15,-201.54 43.15,-201.54"/>
   <line fill="none" stroke="black" stroke-width="10.58" stroke-miterlimit="22.9256" x1="4869.25" y1="3401.78" x2="4867.77" y2= "2085.62" />
   <line fill="none" stroke="black" stroke-width="10.58" stroke-miterlimit="22.9256" x1="5870.89" y1="3409.63" x2="5870.03" y2= "2085.72" />
   <path fill="none" stroke="black" stroke-width="10.58" stroke-miterlimit="22.9256" d="M3522.32 2294.42c0,0 91.63,6.02 132.49,40.06 158.7,132.24 209.57,402.59 242.44,580.81l-25.38 410.55 -4.59 74.14"/>
   <polyline fill="none" stroke="black" stroke-width="10.58" stroke-miterlimit="22.9256" points="3665.41,3413.68 3665.41,3740.14 3695.27,3740.14 3733.1,3434.92 3890.34,3435.58 3900.96,3413.68 "/>
   <polyline fill="none" stroke="black" stroke-width="10.58" stroke-miterlimit="22.9256" points="7064.14,3413.68 7064.14,3740.13 7034.28,3740.13 6996.45,3434.92 6839.21,3435.58 6828.59,3413.68 "/>
  </g>
  <g id="_2238322289200">
   <line fill="none" stroke="black" stroke-width="10.58" stroke-miterlimit="22.9256" x1="13358.58" y1="5486.84" x2="15322.62" y2= "5486.84" />
   <path fill="none" stroke="black" stroke-width="10.58" stroke-miterlimit="22.9256" d="M13012.06 6484.1c-31.52,0 -51.87,-22.1 -53.89,-83.51 -9.87,-299.55 -1.28,-511.64 23.32,-789.58 21.45,-242.25 40.04,-537.66 83.54,-689.6 43.5,-151.92 171.4,-164.46 293.56,-180.88 311.85,-41.91 617.23,-53.36 929.9,-53.97"/>
   <path fill="none" stroke="black" stroke-width="10.58" stroke-miterlimit="22.9256" d="M15654.19 6486.46c31.52,0 51.87,-22.09 53.89,-83.51 9.88,-299.55 1.29,-511.64 -23.32,-789.57 -21.44,-242.26 -40.03,-537.67 -83.53,-689.6 -43.51,-151.92 -171.41,-164.47 -293.57,-180.88 -320.93,-43.14 -696.97,-56.34 -1019.18,-56.34"/>
   <path fill="none" stroke="black" stroke-width="10.58" stroke-miterlimit="22.9256" d="M13107.06 4841.22c-14.57,137.9 81,486.64 251.52,645.63"/>
   <path fill="none" stroke="black" stroke-width="10.58" stroke-miterlimit="22.9256" d="M15569.4 4853.48c14.57,137.9 -82.06,472.72 -252.59,631.7"/>
   <path fill="none" stroke="black" stroke-width="10.58" stroke-miterlimit="22.9256" d="M13315.7 6484.1c2.74,-228.96 -15.19,-672.55 42.88,-997.25"/>
   <path fill="none" stroke="black" stroke-width="10.58" stroke-miterlimit="22.9256" d="M15353.99 6485.57c-2.74,-228.96 15.18,-672.54 -42.88,-997.25"/>
   <polyline fill="none" stroke="black" stroke-width="10.58" stroke-miterlimit="22.9256" points="13006.89,6484.1 13228.76,6484.1 15654.19,6486.46 "/>
   <line fill="none" stroke="black" stroke-width="10.58" stroke-miterlimit="22.9256" x1="14326.8" y1="4686.53" x2="14325.32" y2= "6484.1" />
  </g>
  <g id="_2238322290976">
   <line fill="none" stroke="black" stroke-width="10.58" stroke-miterlimit="22.9256" x1="21662.19" y1="5459.77" x2="22610.22" y2= "5459.77" />
   <path fill="none" stroke="black" stroke-width="10.58" stroke-miterlimit="22.9256" d="M21315.67 6457.02c-31.53,0 -51.87,-22.09 -53.89,-83.51 -9.88,-299.55 -1.29,-511.64 23.31,-789.57 21.45,-242.26 40.5,-537.54 83.54,-689.6 67.65,-238.97 496.08,-228.74 732.78,-227.63"/>
   <path fill="none" stroke="black" stroke-width="10.58" stroke-miterlimit="22.9256" d="M22961.82 6458.1c31.52,0 51.87,-22.09 53.89,-83.51 9.87,-299.55 1.29,-511.64 -23.32,-789.57 -21.45,-242.26 -44,-536.59 -83.54,-689.6 -63.22,-244.65 -595.37,-228.71 -807.44,-228.71"/>
   <path fill="none" stroke="black" stroke-width="10.58" stroke-miterlimit="22.9256" d="M21408.14 4806.23c-14.57,137.9 83.53,494.56 254.05,653.54"/>
   <path fill="none" stroke="black" stroke-width="10.58" stroke-miterlimit="22.9256" d="M22863.46 4802.35c14.57,137.89 -82.72,498.44 -253.24,657.42"/>
   <path fill="none" stroke="black" stroke-width="10.58" stroke-miterlimit="22.9256" d="M21619.31 6457.02c2.74,-228.96 -15.18,-672.54 42.88,-997.25"/>
   <path fill="none" stroke="black" stroke-width="10.58" stroke-miterlimit="22.9256" d="M22651.62 6452.82c-2.74,-228.96 15.19,-672.55 -42.88,-997.26"/>
   <polyline fill="none" stroke="black" stroke-width="10.58" stroke-miterlimit="22.9256" points="21310.5,6457.03 21448.16,6457.03 22961.82,6458.1 "/>
  </g>
  <g id="_2238322295872">
   <path fill="none" stroke="black" stroke-width="10.58" stroke-miterlimit="22.9256" d="M8444.18 3412.79c491.91,-9.2 984,0 1476.01,0 43.5,-3.39 74.41,-22.53 80.73,-72.4l63.85 -914.93c5.35,-76.72 -2.54,-79.44 -87.39,-93.68 -536.36,-90.02 -1034.32,-235.06 -1601.15,-239.03 -70.76,-0.49 -112.25,20.59 -107.75,83.62l93.11 1160.53c11.6,53.65 40.3,76.68 82.6,75.89z"/>
   <polyline fill="none" stroke="black" stroke-width="10.58" stroke-miterlimit="22.9256" points="8483.72,3407.38 8483.72,3733.84 8513.58,3733.84 8551.4,3428.62 8708.65,3429.28 8719.27,3407.38 "/>
   <polyline fill="none" stroke="black" stroke-width="10.58" stroke-miterlimit="22.9256" points="9881.82,3410.55 9881.82,3737 9851.96,3737 9814.13,3431.79 9656.89,3432.45 9646.27,3410.55 "/>
  </g>
  <g id="_2238322296544">
   <g>
    <path fill="none" stroke="black" stroke-width="10.58" stroke-miterlimit="22.9256" d="M13047.16 3404.4l2553.69 -2.12c0,0 28.05,-80.11 36.05,-132.19 8,-52.07 77.39,-857.16 77.39,-857.16 0,0 -0.03,-110.2 -8.02,-136.2 -25.33,-82.47 -362.75,-203.55 -537.16,-198.99 -186.68,4.88 -1648.75,1.98 -1648.75,1.98 -107.98,12.79 -590.25,78 -569.96,215.03 6.31,42.57 42.68,705.61 66.37,985.98 6.41,75.81 30.4,123.66 30.4,123.66z"/>
    <line fill="none" stroke="black" stroke-width="10.58" stroke-miterlimit="22.9256" x1="13331.64" y1="2907.22" x2="15312.73" y2= "2893.23" />
    <path fill="none" stroke="black" stroke-width="10.58" stroke-miterlimit="22.9256" d="M15687.58 2288.34c0,0 -91.63,6.02 -132.49,40.07 -158.7,132.23 -209.57,402.58 -242.44,580.81l25.38 410.55 7.36 82.74"/>
    <path fill="none" stroke="black" stroke-width="10.58" stroke-miterlimit="22.9256" d="M15312.73 2893.23c19.95,-87.89 -53.97,-106.44 -115.84,-102.83 -34.33,2 -1216.77,7.26 -1216.77,7.26l-527.71 0c-64.19,0.49 -115.8,2.29 -125.96,98.14"/>
    <path fill="none" stroke="black" stroke-width="10.58" stroke-miterlimit="22.9256" d="M13349.3 2827.95c0,0 47.45,-218.02 44.66,-342.67 -2.79,-124.65 -18,-177.38 -31.84,-258.89 -13.84,-81.5 -31.06,-117.77 -31.06,-117.77"/>
    <path fill="none" stroke="black" stroke-width="10.58" stroke-miterlimit="22.9256" d="M15311.44 2843.02c0,0 -38.93,-238.82 -42.91,-295.73 -3.98,-56.91 -3.83,-175.46 8.69,-246.6 12.52,-71.13 43.16,-201.54 43.16,-201.54"/>
    <line fill="none" stroke="black" stroke-width="10.58" stroke-miterlimit="22.9256" x1="14325.85" y1="3396.54" x2="14324.38" y2= "2080.38" />
    <path fill="none" stroke="black" stroke-width="10.58" stroke-miterlimit="22.9256" d="M12954.94 2289.18c0,0 91.63,6.02 132.49,40.06 158.7,132.24 209.56,402.58 242.44,580.81l-25.39 410.55 -4.58 74.14"/>
   </g>
   <polyline fill="none" stroke="black" stroke-width="10.58" stroke-miterlimit="22.9256" points="13134.73,3403.81 13134.73,3730.27 13164.59,3730.27 13202.42,3425.05 13359.66,3425.71 13370.28,3403.81 "/>
   <polyline fill="none" stroke="black" stroke-width="10.58" stroke-miterlimit="22.9256" points="15504.33,3407.68 15504.33,3734.13 15474.47,3734.13 15436.64,3428.92 15279.39,3429.58 15268.78,3407.68 "/>
  </g>
  <g id="_2238322294912">
   <g>
    <path fill="none" stroke="black" stroke-width="10.58" stroke-miterlimit="22.9256" d="M16883.82 3402.91c491.91,-9.2 984,0 1476.01,0 43.5,-3.39 74.41,-22.53 80.73,-72.4l63.85 -914.93c5.35,-76.72 -2.54,-79.45 -87.39,-93.68 -536.37,-90.03 -1034.32,-235.06 -1601.16,-239.03 -70.76,-0.5 -112.24,20.59 -107.74,83.62l93.11 1160.52c11.59,53.66 40.3,76.69 82.6,75.9z"/>
   </g>
   <polyline fill="none" stroke="black" stroke-width="10.58" stroke-miterlimit="22.9256" points="16923.91,3401.38 16923.91,3727.84 16953.76,3727.84 16991.59,3422.62 17148.84,3423.28 17159.46,3401.38 "/>
   <polyline fill="none" stroke="black" stroke-width="10.58" stroke-miterlimit="22.9256" points="18322.01,3404.55 18322.01,3731 18292.15,3731 18254.32,3425.79 18097.07,3426.45 18086.45,3404.55 "/>
  </g>
  <g id="_2238322297936">
   <g>
    <path fill="none" stroke="black" stroke-width="10.58" stroke-miterlimit="22.9256" d="M24264.21 3401.1c491.91,-9.2 984,0 1476.01,0 43.5,-3.39 74.41,-22.53 80.73,-72.4l63.85 -914.93c5.35,-76.72 -2.54,-79.44 -87.39,-93.68 -536.36,-90.02 -1034.31,-235.06 -1601.15,-239.03 -70.76,-0.49 -112.25,20.59 -107.75,83.62l93.11 1160.53c11.6,53.65 40.3,76.68 82.6,75.89z"/>
   </g>
   <g>
    <polyline fill="none" stroke="black" stroke-width="10.58" stroke-miterlimit="22.9256" points="24307.45,3403.38 24307.45,3729.84 24337.31,3729.84 24375.14,3424.62 24532.38,3425.28 24543,3403.38 "/>
    <polyline fill="none" stroke="black" stroke-width="10.58" stroke-miterlimit="22.9256" points="25705.55,3406.55 25705.55,3733 25675.69,3733 25637.86,3427.79 25480.62,3428.45 25470,3406.55 "/>
   </g>
  </g>
  <g id="_2238322298608">
   <g>
    <path fill="none" stroke="black" stroke-width="10.58" stroke-miterlimit="22.9256" d="M21358.65 3393.08l1543.43 1.86c0,0 28.05,-80.12 36.05,-132.19 8,-52.07 84.85,-784.48 92.17,-854.08 7.32,-69.6 -0.02,-110.21 -8.01,-136.2 -20.61,-67.1 -247.82,-159.75 -425.73,-189.51 -210.31,-35.17 -642.18,-26.51 -846.23,3.89 -174.6,26.01 -502.05,90.23 -485.26,203.65 6.31,42.56 42.69,705.62 66.37,985.97 6.4,75.81 27.22,116.6 27.22,116.6z"/>
    <line fill="none" stroke="black" stroke-width="10.58" stroke-miterlimit="22.9256" x1="21646.31" y1="2902.96" x2="22630.3" y2= "2894.71" />
    <path fill="none" stroke="black" stroke-width="10.58" stroke-miterlimit="22.9256" d="M23022.29 2272.48c0,0 -108.69,7.38 -149.54,41.42 -158.69,132.24 -209.57,402.58 -242.44,580.81l25.38 410.55 9.37 90.5"/>
    <path fill="none" stroke="black" stroke-width="10.58" stroke-miterlimit="22.9256" d="M22630.3 2894.71c5.91,-87.73 -28.5,-111.81 -59.37,-108.2 -17.12,2 -603.76,6.89 -603.76,6.89l-263.22 0c-32.02,0.49 -57.76,2.3 -62.83,98.14"/>
    <path fill="none" stroke="black" stroke-width="10.58" stroke-miterlimit="22.9256" d="M21671.37 2800.31c0,0 40.06,-194.64 37.27,-319.29 -2.79,-124.65 -18.01,-177.38 -31.85,-258.89 -13.84,-81.5 -31.06,-117.76 -31.06,-117.76"/>
    <path fill="none" stroke="black" stroke-width="10.58" stroke-miterlimit="22.9256" d="M22612.36 2803.64c0,0 -22.2,-213.95 -26.18,-270.86 -3.98,-56.91 -3.83,-175.46 8.69,-246.59 12.52,-71.13 41.78,-195.63 41.78,-195.63"/>
    <path fill="none" stroke="black" stroke-width="10.58" stroke-miterlimit="22.9256" d="M21269.6 2284.92c0,0 91.63,6.02 132.49,40.06 158.7,132.24 209.57,402.59 242.44,580.81l-25.38 410.55 -10.98 82.98"/>
   </g>
   <g>
    <polyline fill="none" stroke="black" stroke-width="10.58" stroke-miterlimit="22.9256" points="21432.05,3391.43 21432.05,3717.89 21461.9,3717.89 21499.73,3412.67 21656.98,3413.33 21667.6,3391.43 "/>
    <polyline fill="none" stroke="black" stroke-width="10.58" stroke-miterlimit="22.9256" points="22830.15,3394.6 22830.15,3721.05 22800.29,3721.05 22762.46,3415.84 22605.21,3416.5 22594.59,3394.6 "/>
   </g>
  </g>
 </g>
 <g id="Выносные">
  <metadata id="CorelCorpID_2Corel-Layer"/>
  <g id="_2238322266544">
   <line fill="none" stroke="gray" stroke-width="10.58" stroke-miterlimit="22.9256" x1="20624.65" y1="4667.51" x2="21143.84" y2= "4667.51" />
   <line fill="none" stroke="gray" stroke-width="10.58" stroke-miterlimit="22.9256" x1="20620.31" y1="6466.33" x2="21138.23" y2= "6466.33" />
   <line fill="none" stroke="gray" stroke-width="10.58" stroke-miterlimit="22.9256" x1="20814.94" y1="6670.15" x2="20814.94" y2= "4500.89" />
  </g>
  <g id="_2238322272832">
   <line fill="none" stroke="gray" stroke-width="10.58" stroke-miterlimit="22.9256" x1="20625.92" y1="3733.07" x2="21143.84" y2= "3733.07" />
   <line fill="none" stroke="gray" stroke-width="10.58" stroke-miterlimit="22.9256" x1="20624.65" y1="2064.9" x2="21143.84" y2= "2064.9" />
   <line fill="none" stroke="gray" stroke-width="10.58" stroke-miterlimit="22.9256" x1="20820.55" y1="3933.38" x2="20820.55" y2= "1890.38" />
  </g>
  <g id="_2238322277152">
   <line fill="none" stroke="gray" stroke-width="10.58" stroke-miterlimit="22.9256" x1="21256.64" y1="7185.17" x2="21256.64" y2= "6665.99" />
   <line fill="none" stroke="gray" stroke-width="10.58" stroke-miterlimit="22.9256" x1="23007.24" y1="7183.9" x2="23007.24" y2= "6665.99" />
   <line fill="none" stroke="gray" stroke-width="10.58" stroke-miterlimit="22.9256" x1="23185.35" y1="6989.27" x2="21071.08" y2= "6989.27" />
  </g>
  <g id="_2238322278112">
   <line fill="none" stroke="gray" stroke-width="10.58" stroke-miterlimit="22.9256" x1="3517.15" y1="7422.37" x2="3517.15" y2= "6903.18" />
   <line fill="none" stroke="gray" stroke-width="10.58" stroke-miterlimit="22.9256" x1="7249.25" y1="7421.1" x2="7249.25" y2= "6903.18" />
   <line fill="none" stroke="gray" stroke-width="10.58" stroke-miterlimit="22.9256" x1="7427.36" y1="7226.46" x2="3322.87" y2= "7226.46" />
  </g>
  <g id="_2238322276576">
   <line fill="none" stroke="gray" stroke-width="10.58" stroke-miterlimit="22.9256" x1="2886.48" y1="4693.53" x2="3405.66" y2= "4693.53" />
   <line fill="none" stroke="gray" stroke-width="10.58" stroke-miterlimit="22.9256" x1="2882.14" y1="6492.35" x2="3400.05" y2= "6492.35" />
   <line fill="none" stroke="gray" stroke-width="10.58" stroke-miterlimit="22.9256" x1="3076.76" y1="6696.17" x2="3076.76" y2= "4526.91" />
  </g>
  <g id="_2274494177408">
   <line fill="none" stroke="gray" stroke-width="10.58" stroke-miterlimit="22.9256" x1="2887.75" y1="3748.78" x2="3405.66" y2= "3748.78" />
   <line fill="none" stroke="gray" stroke-width="10.58" stroke-miterlimit="22.9256" x1="2886.48" y1="2058.26" x2="3405.66" y2= "2058.26" />
   <line fill="none" stroke="gray" stroke-width="10.58" stroke-miterlimit="22.9256" x1="3082.37" y1="3951.78" x2="3082.37" y2= "1881.4" />
  </g>
  <g id="_2274494177072">
   <line fill="none" stroke="gray" stroke-width="10.58" stroke-miterlimit="22.9256" x1="12340.14" y1="4687.36" x2="12859.32" y2= "4687.36" />
   <line fill="none" stroke="gray" stroke-width="10.58" stroke-miterlimit="22.9256" x1="12335.8" y1="6486.18" x2="12853.71" y2= "6486.18" />
   <line fill="none" stroke="gray" stroke-width="10.58" stroke-miterlimit="22.9256" x1="12530.42" y1="6690" x2="12530.42" y2= "4520.74" />
  </g>
  <g id="_2274494179712">
   <line fill="none" stroke="gray" stroke-width="10.58" stroke-miterlimit="22.9256" x1="12341.41" y1="3736.64" x2="12859.32" y2= "3736.64" />
   <line fill="none" stroke="gray" stroke-width="10.58" stroke-miterlimit="22.9256" x1="12340.14" y1="2052" x2="12859.32" y2= "2052" />
   <line fill="none" stroke="gray" stroke-width="10.58" stroke-miterlimit="22.9256" x1="12536.03" y1="3938.93" x2="12536.03" y2= "1875.76" />
  </g>
  <g id="_2274494183888">
   <line fill="none" stroke="gray" stroke-width="10.58" stroke-miterlimit="22.9256" x1="12973.8" y1="7142.55" x2="12973.8" y2= "6623.36" />
   <line fill="none" stroke="gray" stroke-width="10.58" stroke-miterlimit="22.9256" x1="15709.79" y1="7141.28" x2="15709.79" y2= "6623.36" />
   <line fill="none" stroke="gray" stroke-width="10.58" stroke-miterlimit="22.9256" x1="15887.9" y1="6946.64" x2="12787.48" y2= "6946.64" />
  </g>
 </g>
 <g id="Текст">
  <metadata id="CorelCorpID_3Corel-Layer"/>
  <rect fill="none" width="29698.94" height="9730.95"/>
  <g id="_2274494191472">
   <path fill="#666666" fill-rule="nonzero" fill-opacity="0.800000" d="M24282.62 4806.26l0 7.76c10.59,4.94 19.11,12.7 25.58,23.29 6.47,10.58 9.7,22.22 9.7,34.92 0,21.17 -7.29,38.28 -21.87,51.33 -14.58,13.05 -35.75,19.58 -63.5,19.58l-112.54 0 0 -251.87 109.72 0c25.63,0 45.45,6.05 59.44,18.16 13.99,12.12 20.99,27.34 20.99,45.69 0,24.22 -9.17,41.27 -27.52,51.15zm-130.88 -86.78l0 78.67 77.26 0c32.69,0 49.04,-13.41 49.04,-40.22 0,-13.17 -4.71,-22.87 -14.11,-29.1 -9.41,-6.24 -21.29,-9.35 -35.63,-9.35l-76.56 0zm0 195.43l78.67 0c16.23,0 29.52,-3.47 39.87,-10.41 10.35,-6.94 15.52,-18.52 15.52,-34.75 0,-15.29 -5.12,-26.4 -15.35,-33.34 -10.23,-6.93 -23.46,-10.4 -39.68,-10.4l-79.03 0 0 88.9zm212.37 -149.57l29.98 0 0 59.27 49.04 0c21.4,0 37.92,5.17 49.57,15.52 11.64,10.35 17.46,24.81 17.46,43.39 0,18.82 -5.82,33.46 -17.46,43.92 -11.65,10.47 -28.17,15.7 -49.57,15.7l-79.02 0 0 -177.79zm29.98 84.67l0 67.02 44.81 0c14.81,0 25.4,-2.82 31.75,-8.46 6.35,-5.65 9.52,-14 9.52,-25.05 0,-11.05 -3.17,-19.4 -9.52,-25.05 -6.35,-5.64 -16.94,-8.46 -31.75,-8.46l-44.81 0zm144.63 -84.67l29.99 0 0 177.79 -29.99 0 0 -177.79zm208.14 124.18l29.98 0c-3.53,17.87 -11.82,32.04 -24.87,42.51 -13.05,10.46 -29.69,15.7 -49.92,15.7 -26.81,0 -47.92,-8.76 -63.32,-26.29 -15.41,-17.52 -23.11,-39.92 -23.11,-67.2 0,-27.52 7.65,-49.98 22.93,-67.38 15.29,-17.41 36.46,-26.11 63.5,-26.11 20.46,0 37.1,5.12 49.92,15.35 12.82,10.23 20.76,23.81 23.81,40.74l-29.98 0c-6.35,-19.99 -20.93,-29.98 -43.75,-29.98 -19.05,0 -33.22,6.29 -42.51,18.87 -9.29,12.58 -13.93,28.52 -13.93,47.8 0,19.52 4.7,35.75 14.11,48.69 9.41,12.93 23.52,19.4 42.33,19.4 24.93,0 39.87,-10.7 44.81,-32.1zm87.31 -102.31c15.64,-17.64 36.98,-26.46 64.03,-26.46 27.05,0 48.39,8.82 64.03,26.46 15.64,17.64 23.46,39.98 23.46,67.03 0,27.05 -7.82,49.39 -23.46,67.03 -15.64,17.64 -36.98,26.46 -64.03,26.46 -27.05,0 -48.39,-8.82 -64.03,-26.46 -15.64,-17.64 -23.46,-39.98 -23.46,-67.03 0,-27.05 7.82,-49.39 23.46,-67.03zm21.34 114.83c9.88,13.05 24.11,19.58 42.69,19.58 18.58,0 32.81,-6.53 42.69,-19.58 9.88,-13.05 14.81,-28.99 14.81,-47.8 0,-18.82 -4.93,-34.75 -14.81,-47.8 -9.88,-13.06 -24.11,-19.58 -42.69,-19.58 -18.58,0 -32.81,6.52 -42.69,19.58 -9.87,13.05 -14.81,28.98 -14.81,47.8 0,18.81 4.94,34.75 14.81,47.8zm155.21 -110.6l0 -26.1 153.1 0 0 26.1 -61.38 0 0 151.69 -29.99 0 0 -151.69 -61.74 0zm305.85 151.69l0 -18.7 -7.76 0c-12.23,15.52 -30.69,23.29 -55.39,23.29 -19.52,0 -35.04,-5.65 -46.56,-16.94 -11.53,-11.29 -17.29,-24.93 -17.29,-40.92 0,-16.23 5.64,-30.1 16.93,-41.63 11.29,-11.52 28.34,-17.28 51.16,-17.28l57.85 0 0 -7.06c0,-11.29 -3.53,-20.28 -10.58,-26.99 -7.06,-6.7 -17.99,-10.05 -32.81,-10.05 -25.87,0 -39.63,8.58 -41.28,25.75l-29.98 0c1.17,-16.23 8.17,-28.93 20.99,-38.1 12.82,-9.17 29.34,-13.76 49.56,-13.76 22.82,0 40.75,5.29 53.8,15.88 13.06,10.58 19.58,25.75 19.58,45.51l0 121 -28.22 0zm-55.74 -21.52c14.82,0 27.64,-4.88 38.45,-14.64 10.82,-9.76 16.23,-21.7 16.23,-35.81l0 -16.23 -53.27 0c-28.46,0 -42.68,11.29 -42.68,33.87 0,10.11 3.58,18.11 10.76,23.99 7.17,5.88 17.34,8.82 30.51,8.82zm-1023.72 353.16l29.98 0c-3.53,17.87 -11.82,32.04 -24.87,42.51 -13.05,10.46 -29.69,15.7 -49.92,15.7 -26.81,0 -47.92,-8.76 -63.32,-26.29 -15.41,-17.52 -23.11,-39.92 -23.11,-67.2 0,-27.52 7.65,-49.98 22.93,-67.38 15.29,-17.41 36.46,-26.11 63.5,-26.11 20.46,0 37.1,5.12 49.92,15.35 12.82,10.23 20.76,23.81 23.81,40.74l-29.98 0c-6.35,-19.99 -20.93,-29.98 -43.75,-29.98 -19.05,0 -33.22,6.29 -42.51,18.87 -9.29,12.58 -13.93,28.52 -13.93,47.8 0,19.52 4.7,35.75 14.11,48.69 9.41,12.93 23.52,19.4 42.33,19.4 24.93,0 39.87,-10.7 44.81,-32.1zm117.12 53.62l-42.33 0 0 -177.79 29.28 0 0 137.58 7.76 0 77.96 -137.58 43.75 0 0 177.79 -29.28 0 0 -137.58 -7.76 0 -79.38 137.58zm332.67 -26.11l32.8 0 0 76.56 -29.28 0 0 -50.45 -153.8 0 0 50.45 -29.28 0 0 -76.56 23.64 0c14.58,-31.04 21.87,-65.38 21.87,-103.01l0 -48.68 134.06 0 0 151.68zm-29.99 0l0 -125.59 -76.2 0 0 22.58c0,40.22 -6.47,74.56 -19.4,103.01l95.6 0zm255.75 -73.37l0 10.23 -135.46 0c0.47,21.4 5.52,38.04 15.16,49.92 9.65,11.87 23.52,17.81 41.63,17.81 24.46,0 39.51,-9.17 45.16,-27.52l30.34 0c-3.06,16 -11.11,28.93 -24.17,38.81 -13.05,9.88 -30.16,14.82 -51.33,14.82 -27.04,0 -48.21,-8.82 -63.5,-26.46 -15.28,-17.64 -22.93,-40.57 -22.93,-68.79 0,-27.76 7.65,-49.98 22.93,-66.68 15.29,-16.7 36.22,-25.05 62.8,-25.05 25.16,0 44.57,7.94 58.21,23.82 13.64,15.87 20.69,35.57 21.16,59.09zm-80.08 -56.8c-15.29,0 -27.52,3.94 -36.69,11.82 -9.17,7.88 -14.81,17.93 -16.93,30.16l102.66 0c-0.94,-12 -5.76,-21.99 -14.47,-29.99 -8.7,-7.99 -20.22,-11.99 -34.57,-11.99zm285.04 156.27l-29.99 0 0 -78.32 -98.43 0 0 78.32 -29.98 0 0 -177.79 29.98 0 0 73.38 98.43 0 0 -73.38 29.99 0 0 177.79zm307.61 -177.79l88.55 0 0 177.79 -30.34 0 0 -70.2 -53.98 0c-4.7,0 -8.34,-0.12 -10.93,-0.36l-26.81 70.56 -31.4 0 29.99 -77.26c-18.35,-8.7 -27.52,-24.22 -27.52,-46.57 0,-17.16 5.35,-30.45 16.05,-39.86 10.7,-9.41 26.17,-14.11 46.39,-14.11zm58.21 25.4l-55.03 0c-12.94,0 -22.11,2.47 -27.52,7.41 -5.41,4.94 -8.11,12.11 -8.11,21.52 0,9.17 2.7,16.11 8.11,20.81 5.41,4.7 14.58,7.06 27.52,7.06l55.03 0 0 -56.8zm-915.09 537.65l-36.69 0 0 -40.92 36.69 0 0 40.92zm61.39 -219.77c16.46,-21.4 38.45,-32.1 65.97,-32.1 27.51,0 49.56,10.75 66.14,32.27 16.58,21.52 24.87,53.57 24.87,96.14 0,42.57 -8.29,74.55 -24.87,95.95 -16.58,21.41 -38.63,32.11 -66.14,32.11 -27.52,0 -49.51,-10.7 -65.97,-32.11 -16.47,-21.4 -24.7,-53.38 -24.7,-95.95 0,-42.81 8.23,-74.91 24.7,-96.31zm21.16 170.2c9.88,17.76 24.82,26.64 44.81,26.64 19.99,0 34.98,-8.88 44.98,-26.64 9.99,-17.75 14.99,-42.39 14.99,-73.9 0,-31.75 -5,-56.51 -14.99,-74.26 -10,-17.76 -24.99,-26.64 -44.98,-26.64 -19.99,0 -34.93,8.88 -44.81,26.64 -9.87,17.75 -14.81,42.51 -14.81,74.26 0,31.51 4.94,56.15 14.81,73.9zm402.52 -4.05l29.98 0c-3.53,17.87 -11.82,32.04 -24.87,42.51 -13.05,10.46 -29.69,15.7 -49.92,15.7 -26.81,0 -47.92,-8.76 -63.32,-26.29 -15.41,-17.52 -23.11,-39.92 -23.11,-67.2 0,-27.52 7.65,-49.98 22.93,-67.38 15.29,-17.41 36.46,-26.11 63.5,-26.11 20.46,0 37.1,5.12 49.92,15.35 12.82,10.23 20.76,23.81 23.81,40.74l-29.98 0c-6.35,-19.99 -20.93,-29.98 -43.75,-29.98 -19.05,0 -33.22,6.29 -42.51,18.87 -9.29,12.58 -13.93,28.52 -13.93,47.8 0,19.52 4.7,35.75 14.11,48.69 9.41,12.93 23.52,19.4 42.33,19.4 24.93,0 39.87,-10.7 44.81,-32.1zm74.79 53.62l0 -177.79 47.62 0 43.75 81.14 7.76 0 43.74 -81.14 46.92 0 0 177.79 -29.28 0 0 -142.87 -7.76 0 -41.27 76.2 -33.16 0 -41.28 -76.2 -7.76 0 0 142.87 -29.28 0zm77.25 -563.05l0 59.27 52.57 0c21.4,0 37.92,5.17 49.56,15.52 11.65,10.35 17.47,24.81 17.47,43.39 0,18.82 -5.82,33.46 -17.47,43.92 -11.64,10.47 -28.16,15.7 -49.56,15.7l-82.55 0 0 -177.79 29.98 0zm0 151.68l48.34 0c14.81,0 25.4,-2.82 31.75,-8.46 6.35,-5.65 9.52,-14 9.52,-25.05 0,-11.05 -3.17,-19.4 -9.52,-25.05 -6.35,-5.64 -16.94,-8.46 -31.75,-8.46l-48.34 0 0 67.02zm400.75 26.11l-36.69 0 0 -40.92 36.69 0 0 40.92zm0 -136.88l-36.69 0 0 -40.92 36.69 0 0 40.92zm-1352.15 436.76l33.87 0 0 27.51 -33.87 0 0 57.86 -30.34 0 0 -57.86 -122.06 0 0 -35.27 109.01 -153.81 43.39 0 0 161.57zm-119.95 0l89.96 0 0 -126.65 -7.76 0 -82.2 118.89 0 7.76zm197.55 -161.57l144.28 0 0 34.58 -61.74 52.91 0 7.41c21.87,0.47 39.57,7.29 53.09,20.46 13.53,13.17 20.29,31.4 20.29,54.68 0,25.17 -8.12,45.04 -24.34,59.62 -16.23,14.59 -37.16,21.88 -62.8,21.88 -24.69,0 -44.92,-6.94 -60.68,-20.82 -15.75,-13.87 -24.34,-31.51 -25.75,-52.91l31.05 0c1.41,13.87 7.23,25.04 17.46,33.51 10.23,8.47 22.87,12.7 37.92,12.7 17.17,0 30.81,-4.82 40.92,-14.46 10.12,-9.65 15.17,-22.82 15.17,-39.52 0,-16.46 -4.82,-29.34 -14.46,-38.63 -9.64,-9.29 -23.4,-13.93 -41.28,-13.93 -8.7,0 -15.87,0.71 -21.52,2.12l0 -32.81 60.33 -52.21 0 -7.76 -107.95 0 0 -26.82z"/>
   <path fill="#666666" fill-rule="nonzero" fill-opacity="0.800000" d="M21658.34 7326.63l0 7.76c9.64,3.3 18.46,10.18 26.46,20.64 7.99,10.47 11.99,23.23 11.99,38.28 0,20.7 -8.17,37.86 -24.52,51.5 -16.34,13.65 -37.92,20.47 -64.73,20.47 -26.81,0 -48.39,-6.82 -64.74,-20.47 -16.34,-13.64 -24.52,-30.8 -24.52,-51.5 0,-14.82 4,-27.52 12,-38.1 8,-10.58 16.81,-17.52 26.46,-20.82l0 -7.76c-7.76,-3.29 -14.88,-9.52 -21.35,-18.69 -6.46,-9.18 -9.7,-20.23 -9.7,-33.17 0,-19.52 7.65,-35.39 22.93,-47.62 15.29,-12.23 34.93,-18.34 58.92,-18.34 23.99,0 43.63,6.11 58.91,18.34 15.29,12.23 22.93,28.1 22.93,47.62 0,12.47 -3.29,23.41 -9.87,32.81 -6.59,9.41 -13.65,15.76 -21.17,19.05zm-13.94 -80.25c-9.76,-7.18 -22.05,-10.76 -36.86,-10.76 -14.82,0 -27.11,3.58 -36.87,10.76 -9.76,7.17 -14.64,17.11 -14.64,29.81 0,12.7 4.88,22.69 14.64,29.98 9.76,7.29 22.05,10.94 36.87,10.94 14.81,0 27.1,-3.65 36.86,-10.94 9.76,-7.29 14.64,-17.28 14.64,-29.98 0,-12.7 -4.88,-22.64 -14.64,-29.81zm-79.72 178.49c10.46,8.59 24.75,12.88 42.86,12.88 18.11,0 32.39,-4.29 42.86,-12.88 10.47,-8.58 15.7,-20.05 15.7,-34.39 0,-14.58 -5.17,-25.99 -15.52,-34.22 -10.35,-8.23 -24.7,-12.35 -43.04,-12.35 -18.35,0 -32.69,4.12 -43.04,12.35 -10.35,8.23 -15.52,19.64 -15.52,34.22 0,14.34 5.23,25.81 15.7,34.39zm265.81 -125.06c22.57,0 41.39,7.59 56.44,22.76 15.05,15.17 22.58,34.39 22.58,57.68 0,24.22 -7.59,44.45 -22.76,60.67 -15.16,16.23 -35.57,24.35 -61.2,24.35 -27.99,0 -50.1,-9.65 -66.33,-28.93 -16.22,-19.29 -24.34,-50.1 -24.34,-92.43 0,-39.75 7.94,-72.2 23.82,-97.37 15.87,-25.16 39.21,-37.74 70.02,-37.74 20.46,0 37.22,5.46 50.27,16.4 13.06,10.94 20.99,25.11 23.82,42.51l-30.7 0c-6.11,-20.93 -20.57,-31.4 -43.39,-31.4 -19.52,0 -34.81,7.76 -45.86,23.29 -11.05,15.52 -17.05,36.92 -17.99,64.2l7.76 0c5.17,-6.35 12.76,-11.93 22.75,-16.76 10,-4.82 21.7,-7.23 35.11,-7.23zm-44.1 122.77c10.35,10.11 23.28,15.17 38.8,15.17 15.53,0 28.29,-4.94 38.28,-14.82 10,-9.88 14.99,-23.63 14.99,-41.27 0,-17.64 -5.05,-31.16 -15.17,-40.57 -10.11,-9.41 -23.04,-14.11 -38.8,-14.11 -15.52,0 -28.34,4.82 -38.45,14.46 -10.12,9.64 -15.17,22.93 -15.17,39.86 0,17.41 5.17,31.17 15.52,41.28zm202.13 38.1l-36.69 0 0 -40.92 36.69 0 0 40.92zm61.39 -219.77c16.46,-21.4 38.45,-32.1 65.97,-32.1 27.51,0 49.56,10.75 66.14,32.27 16.58,21.52 24.87,53.57 24.87,96.14 0,42.57 -8.29,74.55 -24.87,95.95 -16.58,21.41 -38.63,32.11 -66.14,32.11 -27.52,0 -49.51,-10.7 -65.97,-32.11 -16.47,-21.4 -24.7,-53.38 -24.7,-95.95 0,-42.81 8.23,-74.91 24.7,-96.31zm21.16 170.2c9.88,17.76 24.82,26.64 44.81,26.64 19.99,0 34.98,-8.88 44.98,-26.64 9.99,-17.75 14.99,-42.39 14.99,-73.9 0,-31.75 -5,-56.51 -14.99,-74.26 -10,-17.76 -24.99,-26.64 -44.98,-26.64 -19.99,0 -34.93,8.88 -44.81,26.64 -9.87,17.75 -14.81,42.51 -14.81,74.26 0,31.51 4.94,56.15 14.81,73.9zm402.52 -4.05l29.98 0c-3.53,17.87 -11.82,32.04 -24.87,42.51 -13.05,10.46 -29.69,15.7 -49.92,15.7 -26.81,0 -47.92,-8.76 -63.32,-26.29 -15.41,-17.52 -23.11,-39.92 -23.11,-67.2 0,-27.52 7.65,-49.98 22.93,-67.38 15.29,-17.41 36.46,-26.11 63.5,-26.11 20.46,0 37.1,5.12 49.92,15.35 12.82,10.23 20.76,23.81 23.81,40.74l-29.98 0c-6.35,-19.99 -20.93,-29.98 -43.75,-29.98 -19.05,0 -33.22,6.29 -42.51,18.87 -9.29,12.58 -13.93,28.52 -13.93,47.8 0,19.52 4.7,35.75 14.11,48.69 9.41,12.93 23.52,19.4 42.33,19.4 24.93,0 39.87,-10.7 44.81,-32.1zm74.79 53.62l0 -177.79 47.62 0 43.75 81.14 7.76 0 43.74 -81.14 46.92 0 0 177.79 -29.28 0 0 -142.87 -7.76 0 -41.27 76.2 -33.16 0 -41.28 -76.2 -7.76 0 0 142.87 -29.28 0z"/>
   <path fill="#666666" fill-rule="nonzero" fill-opacity="0.800000" d="M20530.36 3411.69c0,22.58 -7.59,41.39 -22.76,56.44 -15.16,15.05 -34.39,22.58 -57.67,22.58 -24.23,0 -44.46,-7.58 -60.68,-22.75 -16.23,-15.17 -24.34,-35.58 -24.34,-61.21 0,-27.99 9.64,-50.1 28.92,-66.32 19.29,-16.23 50.1,-24.35 92.43,-24.35 39.75,0 72.2,7.94 97.37,23.82 25.16,15.87 37.75,39.21 37.75,70.02 0,20.47 -5.47,37.22 -16.41,50.27 -10.93,13.06 -25.1,21 -42.51,23.82l0 -30.69c20.93,-6.12 31.4,-20.58 31.4,-43.4 0,-19.52 -7.76,-34.8 -23.28,-45.86 -15.53,-11.05 -36.93,-17.05 -64.21,-17.99l0 7.76c6.35,5.18 11.94,12.76 16.76,22.76 4.82,9.99 7.23,21.69 7.23,35.1zm-122.77 -44.1c-10.11,10.35 -15.17,23.28 -15.17,38.81 0,15.52 4.94,28.28 14.82,38.27 9.88,10 23.63,15 41.27,15 17.64,0 31.17,-5.06 40.57,-15.17 9.41,-10.12 14.11,-23.05 14.11,-38.81 0,-15.52 -4.82,-28.34 -14.46,-38.45 -9.64,-10.12 -22.93,-15.17 -39.86,-15.17 -17.41,0 -31.17,5.17 -41.28,15.52zm-10.58 -115.01c-21.4,-16.46 -32.1,-38.45 -32.1,-65.97 0,-27.51 10.75,-49.56 32.27,-66.14 21.52,-16.58 53.57,-24.87 96.14,-24.87 42.57,0 74.55,8.29 95.95,24.87 21.41,16.58 32.11,38.63 32.11,66.14 0,27.52 -10.7,49.51 -32.11,65.97 -21.4,16.47 -53.38,24.7 -95.95,24.7 -42.81,0 -74.91,-8.23 -96.31,-24.7zm170.2 -21.16c17.76,-9.88 26.64,-24.82 26.64,-44.81 0,-19.99 -8.88,-34.98 -26.64,-44.98 -17.75,-9.99 -42.39,-14.99 -73.9,-14.99 -31.75,0 -56.51,5 -74.26,14.99 -17.76,10 -26.64,24.99 -26.64,44.98 0,19.99 8.88,34.93 26.64,44.81 17.75,9.87 42.51,14.81 74.26,14.81 31.51,0 56.15,-4.94 73.9,-14.81zm49.57 -219.07l0 36.69 -40.92 0 0 -36.69 40.92 0zm-219.77 -61.39c-21.4,-16.46 -32.1,-38.45 -32.1,-65.97 0,-27.51 10.75,-49.56 32.27,-66.14 21.52,-16.58 53.57,-24.87 96.14,-24.87 42.57,0 74.55,8.29 95.95,24.87 21.41,16.58 32.11,38.63 32.11,66.14 0,27.52 -10.7,49.51 -32.11,65.97 -21.4,16.47 -53.38,24.7 -95.95,24.7 -42.81,0 -74.91,-8.23 -96.31,-24.7zm170.2 -21.16c17.76,-9.88 26.64,-24.82 26.64,-44.81 0,-19.99 -8.88,-34.98 -26.64,-44.98 -17.75,-9.99 -42.39,-14.99 -73.9,-14.99 -31.75,0 -56.51,5 -74.26,14.99 -17.76,10 -26.64,24.99 -26.64,44.98 0,19.99 8.88,34.93 26.64,44.81 17.75,9.87 42.51,14.81 74.26,14.81 31.51,0 56.15,-4.94 73.9,-14.81zm-4.05 -402.52l0 -29.98c17.87,3.53 32.04,11.82 42.51,24.87 10.46,13.05 15.7,29.69 15.7,49.92 0,26.81 -8.76,47.92 -26.29,63.32 -17.52,15.41 -39.92,23.11 -67.2,23.11 -27.52,0 -49.98,-7.65 -67.38,-22.93 -17.41,-15.29 -26.11,-36.46 -26.11,-63.5 0,-20.46 5.12,-37.1 15.35,-49.92 10.23,-12.82 23.81,-20.76 40.74,-23.81l0 29.98c-19.99,6.35 -29.98,20.93 -29.98,43.75 0,19.05 6.29,33.22 18.87,42.51 12.58,9.29 28.52,13.93 47.8,13.93 19.52,0 35.75,-4.7 48.69,-14.11 12.93,-9.41 19.4,-23.52 19.4,-42.33 0,-24.93 -10.7,-39.87 -32.1,-44.81zm53.62 -74.79l-177.79 0 0 -47.62 81.14 -43.75 0 -7.76 -81.14 -43.74 0 -46.92 177.79 0 0 29.28 -142.87 0 0 7.76 76.2 41.27 0 33.16 -76.2 41.28 0 7.76 142.87 0 0 29.28z"/>
   <path fill="#666666" fill-rule="nonzero" fill-opacity="0.800000" d="M20530.36 6120.5c0,22.58 -7.59,41.39 -22.76,56.44 -15.16,15.05 -34.39,22.58 -57.67,22.58 -24.23,0 -44.46,-7.58 -60.68,-22.75 -16.23,-15.17 -24.34,-35.58 -24.34,-61.21 0,-27.99 9.64,-50.1 28.92,-66.32 19.29,-16.23 50.1,-24.35 92.43,-24.35 39.75,0 72.2,7.94 97.37,23.82 25.16,15.87 37.75,39.21 37.75,70.02 0,20.47 -5.47,37.22 -16.41,50.27 -10.93,13.06 -25.1,21 -42.51,23.82l0 -30.69c20.93,-6.12 31.4,-20.58 31.4,-43.4 0,-19.52 -7.76,-34.8 -23.28,-45.86 -15.53,-11.05 -36.93,-17.05 -64.21,-17.99l0 7.76c6.35,5.18 11.94,12.76 16.76,22.76 4.82,9.99 7.23,21.69 7.23,35.1zm-122.77 -44.1c-10.11,10.35 -15.17,23.28 -15.17,38.81 0,15.52 4.94,28.28 14.82,38.27 9.88,10 23.63,15 41.27,15 17.64,0 31.17,-5.06 40.57,-15.17 9.41,-10.12 14.11,-23.05 14.11,-38.81 0,-15.52 -4.82,-28.34 -14.46,-38.45 -9.64,-10.12 -22.93,-15.17 -39.86,-15.17 -17.41,0 -31.17,5.17 -41.28,15.52zm-10.58 -115.01c-21.4,-16.46 -32.1,-38.45 -32.1,-65.97 0,-27.51 10.75,-49.56 32.27,-66.14 21.52,-16.58 53.57,-24.87 96.14,-24.87 42.57,0 74.55,8.29 95.95,24.87 21.41,16.58 32.11,38.63 32.11,66.14 0,27.52 -10.7,49.51 -32.11,65.97 -21.4,16.47 -53.38,24.7 -95.95,24.7 -42.81,0 -74.91,-8.23 -96.31,-24.7zm170.2 -21.16c17.76,-9.88 26.64,-24.82 26.64,-44.81 0,-19.99 -8.88,-34.98 -26.64,-44.98 -17.75,-9.99 -42.39,-14.99 -73.9,-14.99 -31.75,0 -56.51,5 -74.26,14.99 -17.76,10 -26.64,24.99 -26.64,44.98 0,19.99 8.88,34.93 26.64,44.81 17.75,9.87 42.51,14.81 74.26,14.81 31.51,0 56.15,-4.94 73.9,-14.81zm49.57 -219.07l0 36.69 -40.92 0 0 -36.69 40.92 0zm-219.77 -61.39c-21.4,-16.46 -32.1,-38.45 -32.1,-65.97 0,-27.51 10.75,-49.56 32.27,-66.14 21.52,-16.58 53.57,-24.87 96.14,-24.87 42.57,0 74.55,8.29 95.95,24.87 21.41,16.58 32.11,38.63 32.11,66.14 0,27.52 -10.7,49.51 -32.11,65.97 -21.4,16.47 -53.38,24.7 -95.95,24.7 -42.81,0 -74.91,-8.23 -96.31,-24.7zm170.2 -21.16c17.76,-9.88 26.64,-24.82 26.64,-44.81 0,-19.99 -8.88,-34.98 -26.64,-44.98 -17.75,-9.99 -42.39,-14.99 -73.9,-14.99 -31.75,0 -56.51,5 -74.26,14.99 -17.76,10 -26.64,24.99 -26.64,44.98 0,19.99 8.88,34.93 26.64,44.81 17.75,9.87 42.51,14.81 74.26,14.81 31.51,0 56.15,-4.94 73.9,-14.81zm-4.05 -402.52l0 -29.98c17.87,3.53 32.04,11.82 42.51,24.87 10.46,13.05 15.7,29.69 15.7,49.92 0,26.81 -8.76,47.92 -26.29,63.32 -17.52,15.41 -39.92,23.11 -67.2,23.11 -27.52,0 -49.98,-7.65 -67.38,-22.93 -17.41,-15.29 -26.11,-36.46 -26.11,-63.5 0,-20.46 5.12,-37.1 15.35,-49.92 10.23,-12.82 23.81,-20.76 40.74,-23.81l0 29.98c-19.99,6.35 -29.98,20.93 -29.98,43.75 0,19.05 6.29,33.22 18.87,42.51 12.58,9.29 28.52,13.93 47.8,13.93 19.52,0 35.75,-4.7 48.69,-14.11 12.93,-9.41 19.4,-23.52 19.4,-42.33 0,-24.93 -10.7,-39.87 -32.1,-44.81zm53.62 -74.79l-177.79 0 0 -47.62 81.14 -43.75 0 -7.76 -81.14 -43.74 0 -46.92 177.79 0 0 29.28 -142.87 0 0 7.76 76.2 41.27 0 33.16 -76.2 41.28 0 7.76 142.87 0 0 29.28z"/>
  </g>
  <g id="_2274494205296">
   <path fill="#666666" fill-rule="nonzero" fill-opacity="0.800000" d="M16966.55 4804.97l0 7.76c10.59,4.94 19.11,12.7 25.58,23.29 6.47,10.58 9.7,22.22 9.7,34.92 0,21.17 -7.29,38.28 -21.87,51.33 -14.58,13.05 -35.75,19.58 -63.5,19.58l-112.54 0 0 -251.87 109.72 0c25.63,0 45.45,6.05 59.44,18.16 13.99,12.12 20.99,27.34 20.99,45.69 0,24.22 -9.17,41.27 -27.52,51.15zm-130.88 -86.78l0 78.67 77.26 0c32.69,0 49.04,-13.41 49.04,-40.22 0,-13.17 -4.71,-22.87 -14.11,-29.1 -9.41,-6.24 -21.29,-9.35 -35.63,-9.35l-76.56 0zm0 195.43l78.67 0c16.23,0 29.52,-3.47 39.87,-10.41 10.35,-6.94 15.52,-18.52 15.52,-34.75 0,-15.29 -5.12,-26.4 -15.35,-33.34 -10.23,-6.93 -23.46,-10.4 -39.68,-10.4l-79.03 0 0 88.9zm212.37 -149.57l29.98 0 0 59.27 49.04 0c21.4,0 37.92,5.17 49.57,15.52 11.64,10.35 17.46,24.81 17.46,43.39 0,18.82 -5.82,33.46 -17.46,43.92 -11.65,10.47 -28.17,15.7 -49.57,15.7l-79.02 0 0 -177.79zm29.98 84.67l0 67.02 44.81 0c14.81,0 25.4,-2.82 31.75,-8.46 6.35,-5.65 9.52,-14 9.52,-25.05 0,-11.05 -3.17,-19.4 -9.52,-25.05 -6.35,-5.64 -16.94,-8.46 -31.75,-8.46l-44.81 0zm144.63 -84.67l29.99 0 0 177.79 -29.99 0 0 -177.79zm208.14 124.18l29.98 0c-3.53,17.87 -11.82,32.04 -24.87,42.51 -13.05,10.46 -29.69,15.7 -49.92,15.7 -26.81,0 -47.92,-8.76 -63.32,-26.29 -15.41,-17.52 -23.11,-39.92 -23.11,-67.2 0,-27.52 7.65,-49.98 22.93,-67.38 15.29,-17.41 36.46,-26.11 63.5,-26.11 20.46,0 37.1,5.12 49.92,15.35 12.82,10.23 20.76,23.81 23.81,40.74l-29.98 0c-6.35,-19.99 -20.93,-29.98 -43.75,-29.98 -19.05,0 -33.22,6.29 -42.51,18.87 -9.29,12.58 -13.93,28.52 -13.93,47.8 0,19.52 4.7,35.75 14.11,48.69 9.41,12.93 23.52,19.4 42.33,19.4 24.93,0 39.87,-10.7 44.81,-32.1zm87.31 -102.31c15.64,-17.64 36.98,-26.46 64.03,-26.46 27.05,0 48.39,8.82 64.03,26.46 15.64,17.64 23.46,39.98 23.46,67.03 0,27.05 -7.82,49.39 -23.46,67.03 -15.64,17.64 -36.98,26.46 -64.03,26.46 -27.05,0 -48.39,-8.82 -64.03,-26.46 -15.64,-17.64 -23.46,-39.98 -23.46,-67.03 0,-27.05 7.82,-49.39 23.46,-67.03zm21.34 114.83c9.88,13.05 24.11,19.58 42.69,19.58 18.58,0 32.81,-6.53 42.69,-19.58 9.88,-13.05 14.81,-28.99 14.81,-47.8 0,-18.82 -4.93,-34.75 -14.81,-47.8 -9.88,-13.06 -24.11,-19.58 -42.69,-19.58 -18.58,0 -32.81,6.52 -42.69,19.58 -9.87,13.05 -14.81,28.98 -14.81,47.8 0,18.81 4.94,34.75 14.81,47.8zm155.21 -110.6l0 -26.1 153.1 0 0 26.1 -61.38 0 0 151.69 -29.99 0 0 -151.69 -61.74 0zm305.85 151.69l0 -18.7 -7.76 0c-12.23,15.52 -30.69,23.29 -55.39,23.29 -19.52,0 -35.04,-5.65 -46.56,-16.94 -11.53,-11.29 -17.29,-24.93 -17.29,-40.92 0,-16.23 5.64,-30.1 16.93,-41.63 11.29,-11.52 28.34,-17.28 51.16,-17.28l57.85 0 0 -7.06c0,-11.29 -3.53,-20.28 -10.58,-26.99 -7.06,-6.7 -17.99,-10.05 -32.81,-10.05 -25.87,0 -39.63,8.58 -41.28,25.75l-29.98 0c1.17,-16.23 8.17,-28.93 20.99,-38.1 12.82,-9.17 29.34,-13.76 49.56,-13.76 22.82,0 40.75,5.29 53.8,15.88 13.06,10.58 19.58,25.75 19.58,45.51l0 121 -28.22 0zm-55.74 -21.52c14.82,0 27.64,-4.88 38.45,-14.64 10.82,-9.76 16.23,-21.7 16.23,-35.81l0 -16.23 -53.27 0c-28.46,0 -42.68,11.29 -42.68,33.87 0,10.11 3.58,18.11 10.76,23.99 7.17,5.88 17.34,8.82 30.51,8.82zm-1023.72 353.16l29.98 0c-3.53,17.87 -11.82,32.04 -24.87,42.51 -13.05,10.46 -29.69,15.7 -49.92,15.7 -26.81,0 -47.92,-8.76 -63.32,-26.29 -15.41,-17.52 -23.11,-39.92 -23.11,-67.2 0,-27.52 7.65,-49.98 22.93,-67.38 15.29,-17.41 36.46,-26.11 63.5,-26.11 20.46,0 37.1,5.12 49.92,15.35 12.82,10.23 20.76,23.81 23.81,40.74l-29.98 0c-6.35,-19.99 -20.93,-29.98 -43.75,-29.98 -19.05,0 -33.22,6.29 -42.51,18.87 -9.29,12.58 -13.93,28.52 -13.93,47.8 0,19.52 4.7,35.75 14.11,48.69 9.41,12.93 23.52,19.4 42.33,19.4 24.93,0 39.87,-10.7 44.81,-32.1zm117.12 53.62l-42.33 0 0 -177.79 29.28 0 0 137.58 7.76 0 77.96 -137.58 43.75 0 0 177.79 -29.28 0 0 -137.58 -7.76 0 -79.38 137.58zm332.67 -26.11l32.8 0 0 76.56 -29.28 0 0 -50.45 -153.8 0 0 50.45 -29.28 0 0 -76.56 23.64 0c14.58,-31.04 21.87,-65.38 21.87,-103.01l0 -48.68 134.06 0 0 151.68zm-29.99 0l0 -125.59 -76.2 0 0 22.58c0,40.22 -6.47,74.56 -19.4,103.01l95.6 0zm255.75 -73.37l0 10.23 -135.46 0c0.47,21.4 5.52,38.04 15.16,49.92 9.65,11.87 23.52,17.81 41.63,17.81 24.46,0 39.51,-9.17 45.16,-27.52l30.34 0c-3.06,16 -11.11,28.93 -24.17,38.81 -13.05,9.88 -30.16,14.82 -51.33,14.82 -27.04,0 -48.21,-8.82 -63.5,-26.46 -15.28,-17.64 -22.93,-40.57 -22.93,-68.79 0,-27.76 7.65,-49.98 22.93,-66.68 15.29,-16.7 36.22,-25.05 62.8,-25.05 25.16,0 44.57,7.94 58.21,23.82 13.64,15.87 20.69,35.57 21.16,59.09zm-80.08 -56.8c-15.29,0 -27.52,3.94 -36.69,11.82 -9.17,7.88 -14.81,17.93 -16.93,30.16l102.66 0c-0.94,-12 -5.76,-21.99 -14.47,-29.99 -8.7,-7.99 -20.22,-11.99 -34.57,-11.99zm285.04 156.27l-29.99 0 0 -78.32 -98.43 0 0 78.32 -29.98 0 0 -177.79 29.98 0 0 73.38 98.43 0 0 -73.38 29.99 0 0 177.79zm307.61 -177.79l88.55 0 0 177.79 -30.34 0 0 -70.2 -53.98 0c-4.7,0 -8.34,-0.12 -10.93,-0.36l-26.81 70.56 -31.4 0 29.99 -77.26c-18.35,-8.7 -27.52,-24.22 -27.52,-46.57 0,-17.16 5.35,-30.45 16.05,-39.86 10.7,-9.41 26.17,-14.11 46.39,-14.11zm58.21 25.4l-55.03 0c-12.94,0 -22.11,2.47 -27.52,7.41 -5.41,4.94 -8.11,12.11 -8.11,21.52 0,9.17 2.7,16.11 8.11,20.81 5.41,4.7 14.58,7.06 27.52,7.06l55.03 0 0 -56.8zm-915.09 537.65l-36.69 0 0 -40.92 36.69 0 0 40.92zm61.39 -219.77c16.46,-21.4 38.45,-32.1 65.97,-32.1 27.51,0 49.56,10.75 66.14,32.27 16.58,21.52 24.87,53.57 24.87,96.14 0,42.57 -8.29,74.55 -24.87,95.95 -16.58,21.41 -38.63,32.11 -66.14,32.11 -27.52,0 -49.51,-10.7 -65.97,-32.11 -16.47,-21.4 -24.7,-53.38 -24.7,-95.95 0,-42.81 8.23,-74.91 24.7,-96.31zm21.16 170.2c9.88,17.76 24.82,26.64 44.81,26.64 19.99,0 34.98,-8.88 44.98,-26.64 9.99,-17.75 14.99,-42.39 14.99,-73.9 0,-31.75 -5,-56.51 -14.99,-74.26 -10,-17.76 -24.99,-26.64 -44.98,-26.64 -19.99,0 -34.93,8.88 -44.81,26.64 -9.87,17.75 -14.81,42.51 -14.81,74.26 0,31.51 4.94,56.15 14.81,73.9zm402.52 -4.05l29.98 0c-3.53,17.87 -11.82,32.04 -24.87,42.51 -13.05,10.46 -29.69,15.7 -49.92,15.7 -26.81,0 -47.92,-8.76 -63.32,-26.29 -15.41,-17.52 -23.11,-39.92 -23.11,-67.2 0,-27.52 7.65,-49.98 22.93,-67.38 15.29,-17.41 36.46,-26.11 63.5,-26.11 20.46,0 37.1,5.12 49.92,15.35 12.82,10.23 20.76,23.81 23.81,40.74l-29.98 0c-6.35,-19.99 -20.93,-29.98 -43.75,-29.98 -19.05,0 -33.22,6.29 -42.51,18.87 -9.29,12.58 -13.93,28.52 -13.93,47.8 0,19.52 4.7,35.75 14.11,48.69 9.41,12.93 23.52,19.4 42.33,19.4 24.93,0 39.87,-10.7 44.81,-32.1zm74.79 53.62l0 -177.79 47.62 0 43.75 81.14 7.76 0 43.74 -81.14 46.92 0 0 177.79 -29.28 0 0 -142.87 -7.76 0 -41.27 76.2 -33.16 0 -41.28 -76.2 -7.76 0 0 142.87 -29.28 0zm77.25 -563.05l0 59.27 52.57 0c21.4,0 37.92,5.17 49.56,15.52 11.65,10.35 17.47,24.81 17.47,43.39 0,18.82 -5.82,33.46 -17.47,43.92 -11.64,10.47 -28.16,15.7 -49.56,15.7l-82.55 0 0 -177.79 29.98 0zm0 151.68l48.34 0c14.81,0 25.4,-2.82 31.75,-8.46 6.35,-5.65 9.52,-14 9.52,-25.05 0,-11.05 -3.17,-19.4 -9.52,-25.05 -6.35,-5.64 -16.94,-8.46 -31.75,-8.46l-48.34 0 0 67.02zm400.75 26.11l-36.69 0 0 -40.92 36.69 0 0 40.92zm0 -136.88l-36.69 0 0 -40.92 36.69 0 0 40.92zm-1352.15 436.76l33.87 0 0 27.51 -33.87 0 0 57.86 -30.34 0 0 -57.86 -122.06 0 0 -35.27 109.01 -153.81 43.39 0 0 161.57zm-119.95 0l89.96 0 0 -126.65 -7.76 0 -82.2 118.89 0 7.76zm197.55 -161.57l144.28 0 0 34.58 -61.74 52.91 0 7.41c21.87,0.47 39.57,7.29 53.09,20.46 13.53,13.17 20.29,31.4 20.29,54.68 0,25.17 -8.12,45.04 -24.34,59.62 -16.23,14.59 -37.16,21.88 -62.8,21.88 -24.69,0 -44.92,-6.94 -60.68,-20.82 -15.75,-13.87 -24.34,-31.51 -25.75,-52.91l31.05 0c1.41,13.87 7.23,25.04 17.46,33.51 10.23,8.47 22.87,12.7 37.92,12.7 17.17,0 30.81,-4.82 40.92,-14.46 10.12,-9.65 15.17,-22.82 15.17,-39.52 0,-16.46 -4.82,-29.34 -14.46,-38.63 -9.64,-9.29 -23.4,-13.93 -41.28,-13.93 -8.7,0 -15.87,0.71 -21.52,2.12l0 -32.81 60.33 -52.21 0 -7.76 -107.95 0 0 -26.82z"/>
   <path fill="#666666" fill-rule="nonzero" fill-opacity="0.800000" d="M13647.68 7418.06l0 -27.52 58.57 0 0 -186.96 -7.06 0 -51.86 34.92 0 -32.45 51.51 -34.93 38.45 0 0 219.42 53.98 0 0 27.52 -143.58 0zm184.85 -246.94l144.28 0 0 34.58 -61.74 52.91 0 7.41c21.87,0.47 39.57,7.29 53.09,20.46 13.53,13.17 20.29,31.4 20.29,54.68 0,25.17 -8.12,45.04 -24.34,59.62 -16.23,14.59 -37.16,21.88 -62.8,21.88 -24.69,0 -44.92,-6.94 -60.68,-20.82 -15.75,-13.87 -24.34,-31.51 -25.75,-52.91l31.05 0c1.41,13.87 7.23,25.04 17.46,33.51 10.23,8.47 22.87,12.7 37.92,12.7 17.17,0 30.81,-4.82 40.92,-14.46 10.12,-9.65 15.17,-22.82 15.17,-39.52 0,-16.46 -4.82,-29.34 -14.46,-38.63 -9.64,-9.29 -23.4,-13.93 -41.28,-13.93 -8.7,0 -15.87,0.71 -21.52,2.12l0 -32.81 60.33 -52.21 0 -7.76 -107.95 0 0 -26.82zm287.86 86.08c22.57,0 41.39,7.59 56.44,22.76 15.05,15.17 22.58,34.39 22.58,57.68 0,24.22 -7.59,44.45 -22.76,60.67 -15.16,16.23 -35.57,24.35 -61.2,24.35 -27.99,0 -50.1,-9.65 -66.33,-28.93 -16.22,-19.29 -24.34,-50.1 -24.34,-92.43 0,-39.75 7.94,-72.2 23.82,-97.37 15.87,-25.16 39.21,-37.74 70.02,-37.74 20.46,0 37.22,5.46 50.27,16.4 13.06,10.94 20.99,25.11 23.82,42.51l-30.7 0c-6.11,-20.93 -20.57,-31.4 -43.39,-31.4 -19.52,0 -34.81,7.76 -45.86,23.29 -11.05,15.52 -17.05,36.92 -17.99,64.2l7.76 0c5.17,-6.35 12.76,-11.93 22.75,-16.76 10,-4.82 21.7,-7.23 35.11,-7.23zm-44.1 122.77c10.35,10.11 23.28,15.17 38.8,15.17 15.53,0 28.29,-4.94 38.28,-14.82 10,-9.88 14.99,-23.63 14.99,-41.27 0,-17.64 -5.05,-31.16 -15.17,-40.57 -10.11,-9.41 -23.04,-14.11 -38.8,-14.11 -15.52,0 -28.34,4.82 -38.45,14.46 -10.12,9.64 -15.17,22.93 -15.17,39.86 0,17.41 5.17,31.17 15.52,41.28zm202.13 38.1l-36.69 0 0 -40.92 36.69 0 0 40.92zm61.39 -219.77c16.46,-21.4 38.45,-32.1 65.97,-32.1 27.51,0 49.56,10.75 66.14,32.27 16.58,21.52 24.87,53.57 24.87,96.14 0,42.57 -8.29,74.55 -24.87,95.95 -16.58,21.41 -38.63,32.11 -66.14,32.11 -27.52,0 -49.51,-10.7 -65.97,-32.11 -16.47,-21.4 -24.7,-53.38 -24.7,-95.95 0,-42.81 8.23,-74.91 24.7,-96.31zm21.16 170.2c9.88,17.76 24.82,26.64 44.81,26.64 19.99,0 34.98,-8.88 44.98,-26.64 9.99,-17.75 14.99,-42.39 14.99,-73.9 0,-31.75 -5,-56.51 -14.99,-74.26 -10,-17.76 -24.99,-26.64 -44.98,-26.64 -19.99,0 -34.93,8.88 -44.81,26.64 -9.87,17.75 -14.81,42.51 -14.81,74.26 0,31.51 4.94,56.15 14.81,73.9zm402.52 -4.05l29.98 0c-3.53,17.87 -11.82,32.04 -24.87,42.51 -13.05,10.46 -29.69,15.7 -49.92,15.7 -26.81,0 -47.92,-8.76 -63.32,-26.29 -15.41,-17.52 -23.11,-39.92 -23.11,-67.2 0,-27.52 7.65,-49.98 22.93,-67.38 15.29,-17.41 36.46,-26.11 63.5,-26.11 20.46,0 37.1,5.12 49.92,15.35 12.82,10.23 20.76,23.81 23.81,40.74l-29.98 0c-6.35,-19.99 -20.93,-29.98 -43.75,-29.98 -19.05,0 -33.22,6.29 -42.51,18.87 -9.29,12.58 -13.93,28.52 -13.93,47.8 0,19.52 4.7,35.75 14.11,48.69 9.41,12.93 23.52,19.4 42.33,19.4 24.93,0 39.87,-10.7 44.81,-32.1zm74.79 53.62l0 -177.79 47.62 0 43.75 81.14 7.76 0 43.74 -81.14 46.92 0 0 177.79 -29.28 0 0 -142.87 -7.76 0 -41.27 76.2 -33.16 0 -41.28 -76.2 -7.76 0 0 142.87 -29.28 0z"/>
   <path fill="#666666" fill-rule="nonzero" fill-opacity="0.800000" d="M12245.84 3396.54c0,22.58 -7.59,41.39 -22.76,56.44 -15.16,15.05 -34.39,22.58 -57.67,22.58 -24.23,0 -44.46,-7.58 -60.68,-22.75 -16.23,-15.17 -24.34,-35.58 -24.34,-61.21 0,-27.99 9.64,-50.1 28.92,-66.32 19.29,-16.23 50.1,-24.35 92.43,-24.35 39.75,0 72.2,7.94 97.37,23.82 25.16,15.87 37.75,39.21 37.75,70.02 0,20.47 -5.47,37.22 -16.41,50.27 -10.93,13.06 -25.1,21 -42.51,23.82l0 -30.69c20.93,-6.12 31.4,-20.58 31.4,-43.4 0,-19.52 -7.76,-34.8 -23.28,-45.86 -15.53,-11.05 -36.93,-17.05 -64.21,-17.99l0 7.76c6.35,5.18 11.94,12.76 16.76,22.76 4.82,9.99 7.23,21.69 7.23,35.1zm-122.77 -44.1c-10.11,10.35 -15.17,23.28 -15.17,38.81 0,15.52 4.94,28.28 14.82,38.27 9.88,10 23.63,15 41.27,15 17.64,0 31.17,-5.06 40.57,-15.17 9.41,-10.12 14.11,-23.05 14.11,-38.81 0,-15.52 -4.82,-28.34 -14.46,-38.45 -9.64,-10.12 -22.93,-15.17 -39.86,-15.17 -17.41,0 -31.17,5.17 -41.28,15.52zm-10.58 -115.01c-21.4,-16.46 -32.1,-38.45 -32.1,-65.97 0,-27.51 10.75,-49.56 32.27,-66.14 21.52,-16.58 53.57,-24.87 96.14,-24.87 42.57,0 74.55,8.29 95.95,24.87 21.41,16.58 32.11,38.63 32.11,66.14 0,27.52 -10.7,49.51 -32.11,65.97 -21.4,16.47 -53.38,24.7 -95.95,24.7 -42.81,0 -74.91,-8.23 -96.31,-24.7zm170.2 -21.16c17.76,-9.88 26.64,-24.82 26.64,-44.81 0,-19.99 -8.88,-34.98 -26.64,-44.98 -17.75,-9.99 -42.39,-14.99 -73.9,-14.99 -31.75,0 -56.51,5 -74.26,14.99 -17.76,10 -26.64,24.99 -26.64,44.98 0,19.99 8.88,34.93 26.64,44.81 17.75,9.87 42.51,14.81 74.26,14.81 31.51,0 56.15,-4.94 73.9,-14.81zm49.57 -219.07l0 36.69 -40.92 0 0 -36.69 40.92 0zm-219.77 -61.39c-21.4,-16.46 -32.1,-38.45 -32.1,-65.97 0,-27.51 10.75,-49.56 32.27,-66.14 21.52,-16.58 53.57,-24.87 96.14,-24.87 42.57,0 74.55,8.29 95.95,24.87 21.41,16.58 32.11,38.63 32.11,66.14 0,27.52 -10.7,49.51 -32.11,65.97 -21.4,16.47 -53.38,24.7 -95.95,24.7 -42.81,0 -74.91,-8.23 -96.31,-24.7zm170.2 -21.16c17.76,-9.88 26.64,-24.82 26.64,-44.81 0,-19.99 -8.88,-34.98 -26.64,-44.98 -17.75,-9.99 -42.39,-14.99 -73.9,-14.99 -31.75,0 -56.51,5 -74.26,14.99 -17.76,10 -26.64,24.99 -26.64,44.98 0,19.99 8.88,34.93 26.64,44.81 17.75,9.87 42.51,14.81 74.26,14.81 31.51,0 56.15,-4.94 73.9,-14.81zm-4.05 -402.52l0 -29.98c17.87,3.53 32.04,11.82 42.51,24.87 10.46,13.05 15.7,29.69 15.7,49.92 0,26.81 -8.76,47.92 -26.29,63.32 -17.52,15.41 -39.92,23.11 -67.2,23.11 -27.52,0 -49.98,-7.65 -67.38,-22.93 -17.41,-15.29 -26.11,-36.46 -26.11,-63.5 0,-20.46 5.12,-37.1 15.35,-49.92 10.23,-12.82 23.81,-20.76 40.74,-23.81l0 29.98c-19.99,6.35 -29.98,20.93 -29.98,43.75 0,19.05 6.29,33.22 18.87,42.51 12.58,9.29 28.52,13.93 47.8,13.93 19.52,0 35.75,-4.7 48.69,-14.11 12.93,-9.41 19.4,-23.52 19.4,-42.33 0,-24.93 -10.7,-39.87 -32.1,-44.81zm53.62 -74.79l-177.79 0 0 -47.62 81.14 -43.75 0 -7.76 -81.14 -43.74 0 -46.92 177.79 0 0 29.28 -142.87 0 0 7.76 76.2 41.27 0 33.16 -76.2 41.28 0 7.76 142.87 0 0 29.28z"/>
   <path fill="#666666" fill-rule="nonzero" fill-opacity="0.800000" d="M12245.84 6140.35c0,22.58 -7.59,41.39 -22.76,56.44 -15.16,15.05 -34.39,22.58 -57.67,22.58 -24.23,0 -44.46,-7.58 -60.68,-22.75 -16.23,-15.17 -24.34,-35.58 -24.34,-61.21 0,-27.99 9.64,-50.1 28.92,-66.32 19.29,-16.23 50.1,-24.35 92.43,-24.35 39.75,0 72.2,7.94 97.37,23.82 25.16,15.87 37.75,39.21 37.75,70.02 0,20.47 -5.47,37.22 -16.41,50.27 -10.93,13.06 -25.1,21 -42.51,23.82l0 -30.69c20.93,-6.12 31.4,-20.58 31.4,-43.4 0,-19.52 -7.76,-34.8 -23.28,-45.86 -15.53,-11.05 -36.93,-17.05 -64.21,-17.99l0 7.76c6.35,5.18 11.94,12.76 16.76,22.76 4.82,9.99 7.23,21.69 7.23,35.1zm-122.77 -44.1c-10.11,10.35 -15.17,23.28 -15.17,38.81 0,15.52 4.94,28.28 14.82,38.27 9.88,10 23.63,15 41.27,15 17.64,0 31.17,-5.06 40.57,-15.17 9.41,-10.12 14.11,-23.05 14.11,-38.81 0,-15.52 -4.82,-28.34 -14.46,-38.45 -9.64,-10.12 -22.93,-15.17 -39.86,-15.17 -17.41,0 -31.17,5.17 -41.28,15.52zm-10.58 -115.01c-21.4,-16.46 -32.1,-38.45 -32.1,-65.97 0,-27.51 10.75,-49.56 32.27,-66.14 21.52,-16.58 53.57,-24.87 96.14,-24.87 42.57,0 74.55,8.29 95.95,24.87 21.41,16.58 32.11,38.63 32.11,66.14 0,27.52 -10.7,49.51 -32.11,65.97 -21.4,16.47 -53.38,24.7 -95.95,24.7 -42.81,0 -74.91,-8.23 -96.31,-24.7zm170.2 -21.16c17.76,-9.88 26.64,-24.82 26.64,-44.81 0,-19.99 -8.88,-34.98 -26.64,-44.98 -17.75,-9.99 -42.39,-14.99 -73.9,-14.99 -31.75,0 -56.51,5 -74.26,14.99 -17.76,10 -26.64,24.99 -26.64,44.98 0,19.99 8.88,34.93 26.64,44.81 17.75,9.87 42.51,14.81 74.26,14.81 31.51,0 56.15,-4.94 73.9,-14.81zm49.57 -219.07l0 36.69 -40.92 0 0 -36.69 40.92 0zm-219.77 -61.39c-21.4,-16.46 -32.1,-38.45 -32.1,-65.97 0,-27.51 10.75,-49.56 32.27,-66.14 21.52,-16.58 53.57,-24.87 96.14,-24.87 42.57,0 74.55,8.29 95.95,24.87 21.41,16.58 32.11,38.63 32.11,66.14 0,27.52 -10.7,49.51 -32.11,65.97 -21.4,16.47 -53.38,24.7 -95.95,24.7 -42.81,0 -74.91,-8.23 -96.31,-24.7zm170.2 -21.16c17.76,-9.88 26.64,-24.82 26.64,-44.81 0,-19.99 -8.88,-34.98 -26.64,-44.98 -17.75,-9.99 -42.39,-14.99 -73.9,-14.99 -31.75,0 -56.51,5 -74.26,14.99 -17.76,10 -26.64,24.99 -26.64,44.98 0,19.99 8.88,34.93 26.64,44.81 17.75,9.87 42.51,14.81 74.26,14.81 31.51,0 56.15,-4.94 73.9,-14.81zm-4.05 -402.52l0 -29.98c17.87,3.53 32.04,11.82 42.51,24.87 10.46,13.05 15.7,29.69 15.7,49.92 0,26.81 -8.76,47.92 -26.29,63.32 -17.52,15.41 -39.92,23.11 -67.2,23.11 -27.52,0 -49.98,-7.65 -67.38,-22.93 -17.41,-15.29 -26.11,-36.46 -26.11,-63.5 0,-20.46 5.12,-37.1 15.35,-49.92 10.23,-12.82 23.81,-20.76 40.74,-23.81l0 29.98c-19.99,6.35 -29.98,20.93 -29.98,43.75 0,19.05 6.29,33.22 18.87,42.51 12.58,9.29 28.52,13.93 47.8,13.93 19.52,0 35.75,-4.7 48.69,-14.11 12.93,-9.41 19.4,-23.52 19.4,-42.33 0,-24.93 -10.7,-39.87 -32.1,-44.81zm53.62 -74.79l-177.79 0 0 -47.62 81.14 -43.75 0 -7.76 -81.14 -43.74 0 -46.92 177.79 0 0 29.28 -142.87 0 0 7.76 76.2 41.27 0 33.16 -76.2 41.28 0 7.76 142.87 0 0 29.28z"/>
  </g>
  <path fill="#666666" fill-rule="nonzero" fill-opacity="0.800000" d="M8430.7 4773.31l0 7.76c10.59,4.94 19.11,12.7 25.58,23.29 6.47,10.58 9.7,22.22 9.7,34.92 0,21.17 -7.29,38.28 -21.87,51.33 -14.58,13.05 -35.75,19.58 -63.5,19.58l-112.54 0 0 -251.87 109.72 0c25.63,0 45.45,6.05 59.44,18.16 13.99,12.12 20.99,27.34 20.99,45.69 0,24.22 -9.17,41.27 -27.52,51.15zm-130.88 -86.78l0 78.67 77.26 0c32.69,0 49.04,-13.41 49.04,-40.22 0,-13.17 -4.71,-22.87 -14.11,-29.1 -9.41,-6.24 -21.29,-9.35 -35.63,-9.35l-76.56 0zm0 195.43l78.67 0c16.23,0 29.52,-3.47 39.87,-10.41 10.35,-6.94 15.52,-18.52 15.52,-34.75 0,-15.29 -5.12,-26.4 -15.35,-33.34 -10.23,-6.93 -23.46,-10.4 -39.68,-10.4l-79.03 0 0 88.9zm212.37 -149.57l29.98 0 0 59.27 49.04 0c21.4,0 37.92,5.17 49.57,15.52 11.64,10.35 17.46,24.81 17.46,43.39 0,18.82 -5.82,33.46 -17.46,43.92 -11.65,10.47 -28.17,15.7 -49.57,15.7l-79.02 0 0 -177.79zm29.98 84.67l0 67.02 44.81 0c14.81,0 25.4,-2.82 31.75,-8.46 6.35,-5.65 9.52,-14 9.52,-25.05 0,-11.05 -3.17,-19.4 -9.52,-25.05 -6.35,-5.64 -16.94,-8.46 -31.75,-8.46l-44.81 0zm144.63 -84.67l29.99 0 0 177.79 -29.99 0 0 -177.79zm208.14 124.18l29.98 0c-3.53,17.87 -11.82,32.04 -24.87,42.51 -13.05,10.46 -29.69,15.7 -49.92,15.7 -26.81,0 -47.92,-8.76 -63.32,-26.29 -15.41,-17.52 -23.11,-39.92 -23.11,-67.2 0,-27.52 7.65,-49.98 22.93,-67.38 15.29,-17.41 36.46,-26.11 63.5,-26.11 20.46,0 37.1,5.12 49.92,15.35 12.82,10.23 20.76,23.81 23.81,40.74l-29.98 0c-6.35,-19.99 -20.93,-29.98 -43.75,-29.98 -19.05,0 -33.22,6.29 -42.51,18.87 -9.29,12.58 -13.93,28.52 -13.93,47.8 0,19.52 4.7,35.75 14.11,48.69 9.41,12.93 23.52,19.4 42.33,19.4 24.93,0 39.87,-10.7 44.81,-32.1zm87.31 -102.31c15.64,-17.64 36.98,-26.46 64.03,-26.46 27.05,0 48.39,8.82 64.03,26.46 15.64,17.64 23.46,39.98 23.46,67.03 0,27.05 -7.82,49.39 -23.46,67.03 -15.64,17.64 -36.98,26.46 -64.03,26.46 -27.05,0 -48.39,-8.82 -64.03,-26.46 -15.64,-17.64 -23.46,-39.98 -23.46,-67.03 0,-27.05 7.82,-49.39 23.46,-67.03zm21.34 114.83c9.88,13.05 24.11,19.58 42.69,19.58 18.58,0 32.81,-6.53 42.69,-19.58 9.88,-13.05 14.81,-28.99 14.81,-47.8 0,-18.82 -4.93,-34.75 -14.81,-47.8 -9.88,-13.06 -24.11,-19.58 -42.69,-19.58 -18.58,0 -32.81,6.52 -42.69,19.58 -9.87,13.05 -14.81,28.98 -14.81,47.8 0,18.81 4.94,34.75 14.81,47.8zm155.21 -110.6l0 -26.1 153.1 0 0 26.1 -61.38 0 0 151.69 -29.99 0 0 -151.69 -61.74 0zm305.85 151.69l0 -18.7 -7.76 0c-12.23,15.52 -30.69,23.29 -55.39,23.29 -19.52,0 -35.04,-5.65 -46.56,-16.94 -11.53,-11.29 -17.29,-24.93 -17.29,-40.92 0,-16.23 5.64,-30.1 16.93,-41.63 11.29,-11.52 28.34,-17.28 51.16,-17.28l57.85 0 0 -7.06c0,-11.29 -3.53,-20.28 -10.58,-26.99 -7.06,-6.7 -17.99,-10.05 -32.81,-10.05 -25.87,0 -39.63,8.58 -41.28,25.75l-29.98 0c1.17,-16.23 8.17,-28.93 20.99,-38.1 12.82,-9.17 29.34,-13.76 49.56,-13.76 22.82,0 40.75,5.29 53.8,15.88 13.06,10.58 19.58,25.75 19.58,45.51l0 121 -28.22 0zm-55.74 -21.52c14.82,0 27.64,-4.88 38.45,-14.64 10.82,-9.76 16.23,-21.7 16.23,-35.81l0 -16.23 -53.27 0c-28.46,0 -42.68,11.29 -42.68,33.87 0,10.11 3.58,18.11 10.76,23.99 7.17,5.88 17.34,8.82 30.51,8.82zm-1023.72 353.16l29.98 0c-3.53,17.87 -11.82,32.04 -24.87,42.51 -13.05,10.46 -29.69,15.7 -49.92,15.7 -26.81,0 -47.92,-8.76 -63.32,-26.29 -15.41,-17.52 -23.11,-39.92 -23.11,-67.2 0,-27.52 7.65,-49.98 22.93,-67.38 15.29,-17.41 36.46,-26.11 63.5,-26.11 20.46,0 37.1,5.12 49.92,15.35 12.82,10.23 20.76,23.81 23.81,40.74l-29.98 0c-6.35,-19.99 -20.93,-29.98 -43.75,-29.98 -19.05,0 -33.22,6.29 -42.51,18.87 -9.29,12.58 -13.93,28.52 -13.93,47.8 0,19.52 4.7,35.75 14.11,48.69 9.41,12.93 23.52,19.4 42.33,19.4 24.93,0 39.87,-10.7 44.81,-32.1zm117.12 53.62l-42.33 0 0 -177.79 29.28 0 0 137.58 7.76 0 77.96 -137.58 43.75 0 0 177.79 -29.28 0 0 -137.58 -7.76 0 -79.38 137.58zm332.67 -26.11l32.8 0 0 76.56 -29.28 0 0 -50.45 -153.8 0 0 50.45 -29.28 0 0 -76.56 23.64 0c14.58,-31.04 21.87,-65.38 21.87,-103.01l0 -48.68 134.06 0 0 151.68zm-29.99 0l0 -125.59 -76.2 0 0 22.58c0,40.22 -6.47,74.56 -19.4,103.01l95.6 0zm255.75 -73.37l0 10.23 -135.46 0c0.47,21.4 5.52,38.04 15.16,49.92 9.65,11.87 23.52,17.81 41.63,17.81 24.46,0 39.51,-9.17 45.16,-27.52l30.34 0c-3.06,16 -11.11,28.93 -24.17,38.81 -13.05,9.88 -30.16,14.82 -51.33,14.82 -27.04,0 -48.21,-8.82 -63.5,-26.46 -15.28,-17.64 -22.93,-40.57 -22.93,-68.79 0,-27.76 7.65,-49.98 22.93,-66.68 15.29,-16.7 36.22,-25.05 62.8,-25.05 25.16,0 44.57,7.94 58.21,23.82 13.64,15.87 20.69,35.57 21.16,59.09zm-80.08 -56.8c-15.29,0 -27.52,3.94 -36.69,11.82 -9.17,7.88 -14.81,17.93 -16.93,30.16l102.66 0c-0.94,-12 -5.76,-21.99 -14.47,-29.99 -8.7,-7.99 -20.22,-11.99 -34.57,-11.99zm285.04 156.27l-29.99 0 0 -78.32 -98.43 0 0 78.32 -29.98 0 0 -177.79 29.98 0 0 73.38 98.43 0 0 -73.38 29.99 0 0 177.79zm307.61 -177.79l88.55 0 0 177.79 -30.34 0 0 -70.2 -53.98 0c-4.7,0 -8.34,-0.12 -10.93,-0.36l-26.81 70.56 -31.4 0 29.99 -77.26c-18.35,-8.7 -27.52,-24.22 -27.52,-46.57 0,-17.16 5.35,-30.45 16.05,-39.86 10.7,-9.41 26.17,-14.11 46.39,-14.11zm58.21 25.4l-55.03 0c-12.94,0 -22.11,2.47 -27.52,7.41 -5.41,4.94 -8.11,12.11 -8.11,21.52 0,9.17 2.7,16.11 8.11,20.81 5.41,4.7 14.58,7.06 27.52,7.06l55.03 0 0 -56.8zm-915.09 537.65l-36.69 0 0 -40.92 36.69 0 0 40.92zm61.39 -219.77c16.46,-21.4 38.45,-32.1 65.97,-32.1 27.51,0 49.56,10.75 66.14,32.27 16.58,21.52 24.87,53.57 24.87,96.14 0,42.57 -8.29,74.55 -24.87,95.95 -16.58,21.41 -38.63,32.11 -66.14,32.11 -27.52,0 -49.51,-10.7 -65.97,-32.11 -16.47,-21.4 -24.7,-53.38 -24.7,-95.95 0,-42.81 8.23,-74.91 24.7,-96.31zm21.16 170.2c9.88,17.76 24.82,26.64 44.81,26.64 19.99,0 34.98,-8.88 44.98,-26.64 9.99,-17.75 14.99,-42.39 14.99,-73.9 0,-31.75 -5,-56.51 -14.99,-74.26 -10,-17.76 -24.99,-26.64 -44.98,-26.64 -19.99,0 -34.93,8.88 -44.81,26.64 -9.87,17.75 -14.81,42.51 -14.81,74.26 0,31.51 4.94,56.15 14.81,73.9zm402.52 -4.05l29.98 0c-3.53,17.87 -11.82,32.04 -24.87,42.51 -13.05,10.46 -29.69,15.7 -49.92,15.7 -26.81,0 -47.92,-8.76 -63.32,-26.29 -15.41,-17.52 -23.11,-39.92 -23.11,-67.2 0,-27.52 7.65,-49.98 22.93,-67.38 15.29,-17.41 36.46,-26.11 63.5,-26.11 20.46,0 37.1,5.12 49.92,15.35 12.82,10.23 20.76,23.81 23.81,40.74l-29.98 0c-6.35,-19.99 -20.93,-29.98 -43.75,-29.98 -19.05,0 -33.22,6.29 -42.51,18.87 -9.29,12.58 -13.93,28.52 -13.93,47.8 0,19.52 4.7,35.75 14.11,48.69 9.41,12.93 23.52,19.4 42.33,19.4 24.93,0 39.87,-10.7 44.81,-32.1zm74.79 53.62l0 -177.79 47.62 0 43.75 81.14 7.76 0 43.74 -81.14 46.92 0 0 177.79 -29.28 0 0 -142.87 -7.76 0 -41.27 76.2 -33.16 0 -41.28 -76.2 -7.76 0 0 142.87 -29.28 0zm77.25 -563.05l0 59.27 52.57 0c21.4,0 37.92,5.17 49.56,15.52 11.65,10.35 17.47,24.81 17.47,43.39 0,18.82 -5.82,33.46 -17.47,43.92 -11.64,10.47 -28.16,15.7 -49.56,15.7l-82.55 0 0 -177.79 29.98 0zm0 151.68l48.34 0c14.81,0 25.4,-2.82 31.75,-8.46 6.35,-5.65 9.52,-14 9.52,-25.05 0,-11.05 -3.17,-19.4 -9.52,-25.05 -6.35,-5.64 -16.94,-8.46 -31.75,-8.46l-48.34 0 0 67.02zm400.75 26.11l-36.69 0 0 -40.92 36.69 0 0 40.92zm0 -136.88l-36.69 0 0 -40.92 36.69 0 0 40.92zm-1352.15 436.76l33.87 0 0 27.51 -33.87 0 0 57.86 -30.34 0 0 -57.86 -122.06 0 0 -35.27 109.01 -153.81 43.39 0 0 161.57zm-119.95 0l89.96 0 0 -126.65 -7.76 0 -82.2 118.89 0 7.76zm197.55 -161.57l144.28 0 0 34.58 -61.74 52.91 0 7.41c21.87,0.47 39.57,7.29 53.09,20.46 13.53,13.17 20.29,31.4 20.29,54.68 0,25.17 -8.12,45.04 -24.34,59.62 -16.23,14.59 -37.16,21.88 -62.8,21.88 -24.69,0 -44.92,-6.94 -60.68,-20.82 -15.75,-13.87 -24.34,-31.51 -25.75,-52.91l31.05 0c1.41,13.87 7.23,25.04 17.46,33.51 10.23,8.47 22.87,12.7 37.92,12.7 17.17,0 30.81,-4.82 40.92,-14.46 10.12,-9.65 15.17,-22.82 15.17,-39.52 0,-16.46 -4.82,-29.34 -14.46,-38.63 -9.64,-9.29 -23.4,-13.93 -41.28,-13.93 -8.7,0 -15.87,0.71 -21.52,2.12l0 -32.81 60.33 -52.21 0 -7.76 -107.95 0 0 -26.82z"/>
  <path fill="#666666" fill-rule="nonzero" fill-opacity="0.800000" d="M4677.69 7697.88l0 -27.52 58.57 0 0 -186.96 -7.06 0 -51.86 34.92 0 -32.45 51.51 -34.93 38.45 0 0 219.42 53.98 0 0 27.52 -143.58 0zm315.38 -134.06l0 7.76c9.64,3.3 18.46,10.18 26.46,20.64 7.99,10.47 11.99,23.23 11.99,38.28 0,20.7 -8.17,37.86 -24.52,51.5 -16.34,13.65 -37.92,20.47 -64.73,20.47 -26.81,0 -48.39,-6.82 -64.74,-20.47 -16.34,-13.64 -24.52,-30.8 -24.52,-51.5 0,-14.82 4,-27.52 12,-38.1 8,-10.58 16.81,-17.52 26.46,-20.82l0 -7.76c-7.76,-3.29 -14.88,-9.52 -21.35,-18.69 -6.46,-9.18 -9.7,-20.23 -9.7,-33.17 0,-19.52 7.65,-35.39 22.93,-47.62 15.29,-12.23 34.93,-18.34 58.92,-18.34 23.99,0 43.63,6.11 58.91,18.34 15.29,12.23 22.93,28.1 22.93,47.62 0,12.47 -3.29,23.41 -9.87,32.81 -6.59,9.41 -13.65,15.76 -21.17,19.05zm-13.94 -80.25c-9.76,-7.18 -22.05,-10.76 -36.86,-10.76 -14.82,0 -27.11,3.58 -36.87,10.76 -9.76,7.17 -14.64,17.11 -14.64,29.81 0,12.7 4.88,22.69 14.64,29.98 9.76,7.29 22.05,10.94 36.87,10.94 14.81,0 27.1,-3.65 36.86,-10.94 9.76,-7.29 14.64,-17.28 14.64,-29.98 0,-12.7 -4.88,-22.64 -14.64,-29.81zm-79.72 178.49c10.46,8.59 24.75,12.88 42.86,12.88 18.11,0 32.39,-4.29 42.86,-12.88 10.47,-8.58 15.7,-20.05 15.7,-34.39 0,-14.58 -5.17,-25.99 -15.52,-34.22 -10.35,-8.23 -24.7,-12.35 -43.04,-12.35 -18.35,0 -32.69,4.12 -43.04,12.35 -10.35,8.23 -15.52,19.64 -15.52,34.22 0,14.34 5.23,25.81 15.7,34.39zm265.81 -125.06c22.57,0 41.39,7.59 56.44,22.76 15.05,15.17 22.58,34.39 22.58,57.68 0,24.22 -7.59,44.45 -22.76,60.67 -15.16,16.23 -35.57,24.35 -61.2,24.35 -27.99,0 -50.1,-9.65 -66.33,-28.93 -16.22,-19.29 -24.34,-50.1 -24.34,-92.43 0,-39.75 7.94,-72.2 23.82,-97.37 15.87,-25.16 39.21,-37.74 70.02,-37.74 20.46,0 37.22,5.46 50.27,16.4 13.06,10.94 20.99,25.11 23.82,42.51l-30.7 0c-6.11,-20.93 -20.57,-31.4 -43.39,-31.4 -19.52,0 -34.81,7.76 -45.86,23.29 -11.05,15.52 -17.05,36.92 -17.99,64.2l7.76 0c5.17,-6.35 12.76,-11.93 22.75,-16.76 10,-4.82 21.7,-7.23 35.11,-7.23zm-44.1 122.77c10.35,10.11 23.28,15.17 38.8,15.17 15.53,0 28.29,-4.94 38.28,-14.82 10,-9.88 14.99,-23.63 14.99,-41.27 0,-17.64 -5.05,-31.16 -15.17,-40.57 -10.11,-9.41 -23.04,-14.11 -38.8,-14.11 -15.52,0 -28.34,4.82 -38.45,14.46 -10.12,9.64 -15.17,22.93 -15.17,39.86 0,17.41 5.17,31.17 15.52,41.28zm202.13 38.1l-36.69 0 0 -40.92 36.69 0 0 40.92zm61.39 -219.77c16.46,-21.4 38.45,-32.1 65.97,-32.1 27.51,0 49.56,10.75 66.14,32.27 16.58,21.52 24.87,53.57 24.87,96.14 0,42.57 -8.29,74.55 -24.87,95.95 -16.58,21.41 -38.63,32.11 -66.14,32.11 -27.52,0 -49.51,-10.7 -65.97,-32.11 -16.47,-21.4 -24.7,-53.38 -24.7,-95.95 0,-42.81 8.23,-74.91 24.7,-96.31zm21.16 170.2c9.88,17.76 24.82,26.64 44.81,26.64 19.99,0 34.98,-8.88 44.98,-26.64 9.99,-17.75 14.99,-42.39 14.99,-73.9 0,-31.75 -5,-56.51 -14.99,-74.26 -10,-17.76 -24.99,-26.64 -44.98,-26.64 -19.99,0 -34.93,8.88 -44.81,26.64 -9.87,17.75 -14.81,42.51 -14.81,74.26 0,31.51 4.94,56.15 14.81,73.9zm402.52 -4.05l29.98 0c-3.53,17.87 -11.82,32.04 -24.87,42.51 -13.05,10.46 -29.69,15.7 -49.92,15.7 -26.81,0 -47.92,-8.76 -63.32,-26.29 -15.41,-17.52 -23.11,-39.92 -23.11,-67.2 0,-27.52 7.65,-49.98 22.93,-67.38 15.29,-17.41 36.46,-26.11 63.5,-26.11 20.46,0 37.1,5.12 49.92,15.35 12.82,10.23 20.76,23.81 23.81,40.74l-29.98 0c-6.35,-19.99 -20.93,-29.98 -43.75,-29.98 -19.05,0 -33.22,6.29 -42.51,18.87 -9.29,12.58 -13.93,28.52 -13.93,47.8 0,19.52 4.7,35.75 14.11,48.69 9.41,12.93 23.52,19.4 42.33,19.4 24.93,0 39.87,-10.7 44.81,-32.1zm74.79 53.62l0 -177.79 47.62 0 43.75 81.14 7.76 0 43.74 -81.14 46.92 0 0 177.79 -29.28 0 0 -142.87 -7.76 0 -41.27 76.2 -33.16 0 -41.28 -76.2 -7.76 0 0 142.87 -29.28 0z"/>
  <path fill="#666666" fill-rule="nonzero" fill-opacity="0.800000" d="M2792.18 3402.71c0,22.58 -7.59,41.39 -22.76,56.44 -15.16,15.05 -34.39,22.58 -57.67,22.58 -24.23,0 -44.46,-7.58 -60.68,-22.75 -16.23,-15.17 -24.34,-35.58 -24.34,-61.21 0,-27.99 9.64,-50.1 28.92,-66.32 19.29,-16.23 50.1,-24.35 92.43,-24.35 39.75,0 72.2,7.94 97.37,23.82 25.16,15.87 37.75,39.21 37.75,70.02 0,20.47 -5.47,37.22 -16.41,50.27 -10.93,13.06 -25.1,21 -42.51,23.82l0 -30.69c20.93,-6.12 31.4,-20.58 31.4,-43.4 0,-19.52 -7.76,-34.8 -23.28,-45.86 -15.53,-11.05 -36.93,-17.05 -64.21,-17.99l0 7.76c6.35,5.18 11.94,12.76 16.76,22.76 4.82,9.99 7.23,21.69 7.23,35.1zm-122.77 -44.1c-10.11,10.35 -15.17,23.28 -15.17,38.81 0,15.52 4.94,28.28 14.82,38.27 9.88,10 23.63,15 41.27,15 17.64,0 31.17,-5.06 40.57,-15.17 9.41,-10.12 14.11,-23.05 14.11,-38.81 0,-15.52 -4.82,-28.34 -14.46,-38.45 -9.64,-10.12 -22.93,-15.17 -39.86,-15.17 -17.41,0 -31.17,5.17 -41.28,15.52zm-10.58 -115.01c-21.4,-16.46 -32.1,-38.45 -32.1,-65.97 0,-27.51 10.75,-49.56 32.27,-66.14 21.52,-16.58 53.57,-24.87 96.14,-24.87 42.57,0 74.55,8.29 95.95,24.87 21.41,16.58 32.11,38.63 32.11,66.14 0,27.52 -10.7,49.51 -32.11,65.97 -21.4,16.47 -53.38,24.7 -95.95,24.7 -42.81,0 -74.91,-8.23 -96.31,-24.7zm170.2 -21.16c17.76,-9.88 26.64,-24.82 26.64,-44.81 0,-19.99 -8.88,-34.98 -26.64,-44.98 -17.75,-9.99 -42.39,-14.99 -73.9,-14.99 -31.75,0 -56.51,5 -74.26,14.99 -17.76,10 -26.64,24.99 -26.64,44.98 0,19.99 8.88,34.93 26.64,44.81 17.75,9.87 42.51,14.81 74.26,14.81 31.51,0 56.15,-4.94 73.9,-14.81zm49.57 -219.07l0 36.69 -40.92 0 0 -36.69 40.92 0zm-219.77 -61.39c-21.4,-16.46 -32.1,-38.45 -32.1,-65.97 0,-27.51 10.75,-49.56 32.27,-66.14 21.52,-16.58 53.57,-24.87 96.14,-24.87 42.57,0 74.55,8.29 95.95,24.87 21.41,16.58 32.11,38.63 32.11,66.14 0,27.52 -10.7,49.51 -32.11,65.97 -21.4,16.47 -53.38,24.7 -95.95,24.7 -42.81,0 -74.91,-8.23 -96.31,-24.7zm170.2 -21.16c17.76,-9.88 26.64,-24.82 26.64,-44.81 0,-19.99 -8.88,-34.98 -26.64,-44.98 -17.75,-9.99 -42.39,-14.99 -73.9,-14.99 -31.75,0 -56.51,5 -74.26,14.99 -17.76,10 -26.64,24.99 -26.64,44.98 0,19.99 8.88,34.93 26.64,44.81 17.75,9.87 42.51,14.81 74.26,14.81 31.51,0 56.15,-4.94 73.9,-14.81zm-4.05 -402.52l0 -29.98c17.87,3.53 32.04,11.82 42.51,24.87 10.46,13.05 15.7,29.69 15.7,49.92 0,26.81 -8.76,47.92 -26.29,63.32 -17.52,15.41 -39.92,23.11 -67.2,23.11 -27.52,0 -49.98,-7.65 -67.38,-22.93 -17.41,-15.29 -26.11,-36.46 -26.11,-63.5 0,-20.46 5.12,-37.1 15.35,-49.92 10.23,-12.82 23.81,-20.76 40.74,-23.81l0 29.98c-19.99,6.35 -29.98,20.93 -29.98,43.75 0,19.05 6.29,33.22 18.87,42.51 12.58,9.29 28.52,13.93 47.8,13.93 19.52,0 35.75,-4.7 48.69,-14.11 12.93,-9.41 19.4,-23.52 19.4,-42.33 0,-24.93 -10.7,-39.87 -32.1,-44.81zm53.62 -74.79l-177.79 0 0 -47.62 81.14 -43.75 0 -7.76 -81.14 -43.74 0 -46.92 177.79 0 0 29.28 -142.87 0 0 7.76 76.2 41.27 0 33.16 -76.2 41.28 0 7.76 142.87 0 0 29.28z"/>
  <path fill="#666666" fill-rule="nonzero" fill-opacity="0.800000" d="M2792.18 6146.52c0,22.58 -7.59,41.39 -22.76,56.44 -15.16,15.05 -34.39,22.58 -57.67,22.58 -24.23,0 -44.46,-7.58 -60.68,-22.75 -16.23,-15.17 -24.34,-35.58 -24.34,-61.21 0,-27.99 9.64,-50.1 28.92,-66.32 19.29,-16.23 50.1,-24.35 92.43,-24.35 39.75,0 72.2,7.94 97.37,23.82 25.16,15.87 37.75,39.21 37.75,70.02 0,20.47 -5.47,37.22 -16.41,50.27 -10.93,13.06 -25.1,21 -42.51,23.82l0 -30.69c20.93,-6.12 31.4,-20.58 31.4,-43.4 0,-19.52 -7.76,-34.8 -23.28,-45.86 -15.53,-11.05 -36.93,-17.05 -64.21,-17.99l0 7.76c6.35,5.18 11.94,12.76 16.76,22.76 4.82,9.99 7.23,21.69 7.23,35.1zm-122.77 -44.1c-10.11,10.35 -15.17,23.28 -15.17,38.81 0,15.52 4.94,28.28 14.82,38.27 9.88,10 23.63,15 41.27,15 17.64,0 31.17,-5.06 40.57,-15.17 9.41,-10.12 14.11,-23.05 14.11,-38.81 0,-15.52 -4.82,-28.34 -14.46,-38.45 -9.64,-10.12 -22.93,-15.17 -39.86,-15.17 -17.41,0 -31.17,5.17 -41.28,15.52zm-10.58 -115.01c-21.4,-16.46 -32.1,-38.45 -32.1,-65.97 0,-27.51 10.75,-49.56 32.27,-66.14 21.52,-16.58 53.57,-24.87 96.14,-24.87 42.57,0 74.55,8.29 95.95,24.87 21.41,16.58 32.11,38.63 32.11,66.14 0,27.52 -10.7,49.51 -32.11,65.97 -21.4,16.47 -53.38,24.7 -95.95,24.7 -42.81,0 -74.91,-8.23 -96.31,-24.7zm170.2 -21.16c17.76,-9.88 26.64,-24.82 26.64,-44.81 0,-19.99 -8.88,-34.98 -26.64,-44.98 -17.75,-9.99 -42.39,-14.99 -73.9,-14.99 -31.75,0 -56.51,5 -74.26,14.99 -17.76,10 -26.64,24.99 -26.64,44.98 0,19.99 8.88,34.93 26.64,44.81 17.75,9.87 42.51,14.81 74.26,14.81 31.51,0 56.15,-4.94 73.9,-14.81zm49.57 -219.07l0 36.69 -40.92 0 0 -36.69 40.92 0zm-219.77 -61.39c-21.4,-16.46 -32.1,-38.45 -32.1,-65.97 0,-27.51 10.75,-49.56 32.27,-66.14 21.52,-16.58 53.57,-24.87 96.14,-24.87 42.57,0 74.55,8.29 95.95,24.87 21.41,16.58 32.11,38.63 32.11,66.14 0,27.52 -10.7,49.51 -32.11,65.97 -21.4,16.47 -53.38,24.7 -95.95,24.7 -42.81,0 -74.91,-8.23 -96.31,-24.7zm170.2 -21.16c17.76,-9.88 26.64,-24.82 26.64,-44.81 0,-19.99 -8.88,-34.98 -26.64,-44.98 -17.75,-9.99 -42.39,-14.99 -73.9,-14.99 -31.75,0 -56.51,5 -74.26,14.99 -17.76,10 -26.64,24.99 -26.64,44.98 0,19.99 8.88,34.93 26.64,44.81 17.75,9.87 42.51,14.81 74.26,14.81 31.51,0 56.15,-4.94 73.9,-14.81zm-4.05 -402.52l0 -29.98c17.87,3.53 32.04,11.82 42.51,24.87 10.46,13.05 15.7,29.69 15.7,49.92 0,26.81 -8.76,47.92 -26.29,63.32 -17.52,15.41 -39.92,23.11 -67.2,23.11 -27.52,0 -49.98,-7.65 -67.38,-22.93 -17.41,-15.29 -26.11,-36.46 -26.11,-63.5 0,-20.46 5.12,-37.1 15.35,-49.92 10.23,-12.82 23.81,-20.76 40.74,-23.81l0 29.98c-19.99,6.35 -29.98,20.93 -29.98,43.75 0,19.05 6.29,33.22 18.87,42.51 12.58,9.29 28.52,13.93 47.8,13.93 19.52,0 35.75,-4.7 48.69,-14.11 12.93,-9.41 19.4,-23.52 19.4,-42.33 0,-24.93 -10.7,-39.87 -32.1,-44.81zm53.62 -74.79l-177.79 0 0 -47.62 81.14 -43.75 0 -7.76 -81.14 -43.74 0 -46.92 177.79 0 0 29.28 -142.87 0 0 7.76 76.2 41.27 0 33.16 -76.2 41.28 0 7.76 142.87 0 0 29.28z"/>
 </g>
</svg>
