<?xml version="1.0" encoding="UTF-8"?>
<!DOCTYPE svg PUBLIC "-//W3C//DTD SVG 1.1//EN" "http://www.w3.org/Graphics/SVG/1.1/DTD/svg11.dtd">
<!-- Creator: CorelDRAW 2021.5 -->
<svg xmlns="http://www.w3.org/2000/svg" xml:space="preserve" width="210mm" height="148mm" version="1.1" shape-rendering="geometricPrecision" text-rendering="geometricPrecision" image-rendering="optimizeQuality" fill-rule="evenodd" clip-rule="evenodd"
viewBox="0 0 20985.75 14789.96"
 xmlns:xlink="http://www.w3.org/1999/xlink"
 xmlns:xodm="http://www.corel.com/coreldraw/odm/2003">
 <g id="Тени">
  <metadata id="CorelCorpID_0Corel-Layer"/>
  <rect fill="none" width="20985.75" height="14789.96"/>
  <path fill="black" fill-opacity="0.101961" d="M15105.47 3060.16c0,0 23.87,252.56 -88.12,345.79 -112,93.2 -569.63,87.12 -569.63,87.12 0,0 473.76,-31.26 579.69,85.29 105.92,116.57 74.21,283.18 79.72,416.73 5.51,133.54 -18.72,-338.59 85.68,-423.06 104.37,-84.46 351.29,-87.16 351.29,-87.16 0,0 -225.31,26.96 -341.29,-84.58 -115.97,-111.54 -97.33,-340.12 -97.33,-340.12z"/>
  <path fill="black" fill-opacity="0.101961" d="M16356.32 3062.74c0,0 -23.88,252.57 88.12,345.79 112,93.23 569.62,87.12 569.62,87.12 0,0 -473.75,-31.26 -579.68,85.31 -105.93,116.57 -74.23,283.16 -79.74,416.71 -5.51,133.57 18.71,-338.59 -85.66,-423.05 -104.37,-84.45 -351.29,-87.14 -351.29,-87.14 0,0 225.31,26.93 341.29,-84.59 115.97,-111.54 97.33,-340.14 97.33,-340.14z"/>
  <path fill="black" fill-opacity="0.101961" d="M6401.57 2154.69c0,0 28.29,307.1 -104.3,420.45 -132.59,113.35 -674.36,105.95 -674.36,105.95 0,0 560.85,-38.02 686.24,103.73 125.41,141.72 87.87,344.32 94.39,506.71 6.54,162.38 -22.14,-411.73 101.42,-514.43 123.57,-102.7 415.86,-105.97 415.86,-105.97 0,0 -266.71,32.77 -404.03,-102.86 -137.3,-135.63 -115.22,-413.58 -115.22,-413.58z"/>
  <path fill="black" fill-opacity="0.101961" d="M5381.26 3432.33c-12.87,19.3 -30.92,41.49 -30.75,66.13l0.81 60.93 5.12 422.31c0.48,33.07 10.99,60.76 33.4,80.13l-42.33 0c-23.87,0 -45,-12.61 -57.28,-31.64l-11.26 -58.78 0 -467.38c0,-39.41 43.14,-71.69 80.83,-71.69l21.48 0z"/>
  <path fill="black" fill-opacity="0.101961" d="M8589.67 3432.33c12.88,19.3 30.93,41.49 30.75,66.13l-0.81 60.93 -5.11 422.31c-0.48,33.07 -10.99,60.76 -33.4,80.13l42.33 0c23.87,0 45,-12.61 57.28,-31.64l11.26 -58.78 0 -467.38c0,-39.41 -43.14,-71.69 -80.83,-71.69l-21.49 0z"/>
  <path fill="black" fill-opacity="0.101961" d="M12025.54 3432.33c12.87,19.3 30.92,41.49 30.75,66.13l-0.81 60.93 -5.12 422.31c-0.48,33.07 -10.99,60.76 -33.4,80.13l42.33 0c23.87,0 45,-12.61 57.28,-31.64l11.27 -58.78 0 -467.38c0,-39.41 -43.15,-71.69 -80.84,-71.69l-21.48 0z"/>
  <path fill="black" fill-opacity="0.101961" d="M8819.24 3436.42c-12.87,19.31 -30.93,41.5 -30.75,66.14l0.81 60.92 5.12 422.31c0.48,33.07 10.99,60.76 33.39,80.14l-42.33 0c-23.86,0 -44.99,-12.61 -57.27,-31.64l-11.27 -58.79 0 -467.37c0,-39.41 43.14,-71.7 80.83,-71.7l21.49 0z"/>
  <path fill="black" fill-opacity="0.101961" d="M10793.62 2162.34c0,0 -28.26,307.13 104.33,420.47 132.59,113.33 674.34,105.93 674.34,105.93 0,0 -560.86,-37.99 -686.24,103.73 -125.39,141.75 -87.85,344.32 -94.39,506.71 -6.52,162.4 22.15,-411.7 -101.4,-514.41 -123.59,-102.7 -415.89,-105.99 -415.89,-105.99 0,0 266.73,32.79 404.03,-102.84 137.3,-135.63 115.22,-413.6 115.22,-413.6z"/>
  <path fill="black" fill-opacity="0.101961" d="M9687.73 2156.59c0,0 28.26,307.1 -104.33,420.45 -132.59,113.34 -674.34,105.95 -674.34,105.95 0,0 560.86,-38.02 686.24,103.73 125.39,141.72 87.88,344.3 94.39,506.7 6.52,162.39 -22.15,-411.72 101.4,-514.42 123.59,-102.7 415.89,-105.97 415.89,-105.97 0,0 -266.73,32.76 -404.03,-102.86 -137.3,-135.63 -115.22,-413.58 -115.22,-413.58z"/>
  <path fill="black" fill-opacity="0.101961" d="M7507.28 2157.84c0,0 -28.28,307.1 104.31,420.45 132.58,113.34 674.36,105.94 674.36,105.94 0,0 -560.88,-38.01 -686.27,103.71 -125.38,141.75 -87.85,344.33 -94.39,506.73 -6.51,162.38 22.16,-411.72 -101.39,-514.42 -123.57,-102.71 -415.86,-105.97 -415.86,-105.97 0,0 266.7,32.76 404.02,-102.87 137.3,-135.63 115.22,-413.57 115.22,-413.57z"/>
  <path fill="black" fill-opacity="0.101961" d="M5346.48 8587.95c46.83,-584.2 305.99,-753.88 582.09,-764.41 133.43,-5.11 497.53,8.03 165.36,-17.23 -270.83,-20.59 -498.46,-69.68 -637.19,-118.69 -138.52,-48.95 -181.29,-185.05 -169.34,-237.15l20.66 -294.33c3.8,-53.71 38.88,-99.11 88.12,-109.66l-127.75 -0.22 1.59 90.48 0 2449.64c36.02,-663.13 30.67,-427.65 76.46,-998.43zm2297.24 -773.27c218.37,31.11 398.17,41.01 434.56,50.47 291.69,75.6 495.84,196.54 542.11,755.59 15.95,192.84 51.96,650.17 68.33,858.69l0 -2422.78 -130.81 -0.4c35.24,18.54 59.14,56.51 61.17,99.91l13.77 294.33c0.46,10.02 -0.54,19.67 -2.82,28.83l1.1 0.01c-5.46,55.6 8.94,161.83 -130.55,227.41 -125.66,55.42 -490.75,93.73 -743.88,108.81 -41.3,2.47 -77.78,0.26 -112.98,-0.85z"/>
  <path fill="black" fill-opacity="0.101961" d="M6355.42 7864.48c0,0 28.83,311.7 -106.32,426.74 -135.15,115.01 -687.36,107.5 -687.36,107.5 0,0 571.68,-38.56 699.5,105.29 127.79,143.85 89.55,349.43 96.19,514.24 6.65,164.8 -22.57,-417.85 103.36,-522.09 125.96,-104.23 423.9,-107.54 423.9,-107.54 0,0 -271.87,33.26 -411.81,-104.4 -139.94,-137.64 -117.46,-419.74 -117.46,-419.74z"/>
  <path fill="black" fill-opacity="0.101961" d="M7482.45 7867.68c0,0 -28.81,311.7 106.34,426.72 135.15,115.03 687.34,107.52 687.34,107.52 0,0 -571.66,-38.58 -699.48,105.26 -127.81,143.85 -89.57,349.46 -96.21,514.27 -6.65,164.81 22.57,-417.85 -103.37,-522.08 -125.95,-104.24 -423.87,-107.55 -423.87,-107.55 0,0 271.85,33.24 411.79,-104.4 139.96,-137.64 117.46,-419.74 117.46,-419.74z"/>
  <path fill="black" fill-opacity="0.101961" d="M12030.98 8587.95c-46.83,-584.2 -305.99,-753.88 -582.09,-764.41 -133.42,-5.11 -497.53,8.03 -165.35,-17.23 270.82,-20.59 498.45,-69.68 637.19,-118.69 138.52,-48.95 181.29,-185.05 169.33,-237.15l-20.66 -294.33c-3.8,-53.71 -38.87,-99.11 -88.12,-109.66l127.75 -0.22 -1.59 90.48 0 2449.64c-36.02,-663.13 -30.67,-427.65 -76.46,-998.43zm-2297.23 -773.27c-218.37,31.11 -398.18,41.01 -434.57,50.47 -291.68,75.6 -495.83,196.54 -542.1,755.59 -15.96,192.84 -51.97,650.17 -68.34,858.69l0 -2422.78 130.81 -0.4c-35.24,18.54 -59.14,56.51 -61.17,99.91l-13.76 294.33c-0.47,10.02 0.53,19.67 2.81,28.83l-1.1 0.01c5.46,55.6 -8.93,161.83 130.55,227.41 125.66,55.42 490.75,93.73 743.88,108.81 41.3,2.47 77.79,0.26 112.99,-0.85z"/>
  <path fill="black" fill-opacity="0.101961" d="M11022.05 7864.48c0,0 -28.84,311.7 106.31,426.74 135.15,115.01 687.36,107.5 687.36,107.5 0,0 -571.68,-38.56 -699.5,105.29 -127.79,143.85 -89.54,349.43 -96.19,514.24 -6.65,164.8 22.57,-417.85 -103.36,-522.09 -125.96,-104.23 -423.9,-107.54 -423.9,-107.54 0,0 271.88,33.26 411.81,-104.4 139.94,-137.64 117.47,-419.74 117.47,-419.74z"/>
  <path fill="black" fill-opacity="0.101961" d="M9895.01 7867.68c0,0 28.81,311.7 -106.34,426.72 -135.14,115.03 -687.33,107.52 -687.33,107.52 0,0 571.66,-38.58 699.48,105.26 127.8,143.85 89.56,349.46 96.2,514.27 6.66,164.81 -22.57,-417.85 103.37,-522.08 125.96,-104.24 423.88,-107.55 423.88,-107.55 0,0 -271.86,33.24 -411.8,-104.4 -139.96,-137.64 -117.46,-419.74 -117.46,-419.74z"/>
  <path fill="black" fill-opacity="0.101961" d="M14084.93 4162.15c20.05,26.38 43.65,26.38 65.49,26.38 1914.94,0 1349.75,0 3264.58,0 15.23,0 34.01,2.18 48.39,-4.82 9.68,-4.71 19.94,-13.53 33.25,-28.88 -0.43,87.58 -54.84,114.19 -54.84,114.19 -1934.36,0 -1355.77,0 -3290.1,0 0,3.34 -30.77,-13.27 -50.2,-44.46 -10.93,-17.6 -13.85,-47.28 -16.57,-62.42z"/>
  <path fill="black" fill-opacity="0.101961" d="M4500.24 4162.15c20.05,26.38 43.65,26.38 65.49,26.38 1914.93,0 6298.78,0 8213.62,0 15.23,0 34.01,2.18 48.37,-4.82 9.73,-4.71 19.95,-13.53 33.28,-28.88 -0.44,87.58 -54.86,114.19 -54.86,114.19 -1934.34,0 -6304.81,0 -8239.13,0 0,3.34 -30.78,-13.27 -50.2,-44.46 -10.94,-17.6 -13.85,-47.28 -16.57,-62.42z"/>
  <path fill="black" fill-opacity="0.101961" d="M5788.93 3361.07c577.92,-44.07 799.2,-108.21 1229.86,-112.04 459.02,-4.09 527.45,64.82 1208.99,119.98 -401.52,-4.96 -809.26,11.99 -1210.77,7.02l-1228.09 -14.95z"/>
  <path fill="black" fill-opacity="0.101961" d="M9089.13 3364.39c707.01,-105.4 788.76,-95.8 1219.43,-102.98 459.02,-7.65 607.39,-3.56 1219.42,107.32 -401.51,-9.29 -804.27,21.1 -1205.78,11.74l-1233.07 -16.08z"/>
  <path fill="black" fill-opacity="0.101961" d="M5788.93 1902.52c538.2,46.68 704.36,137.89 1135.02,142.86 459.02,5.33 589.78,-71.42 1303.83,-153.15 -401.52,6.45 -794.36,22.89 -1195.88,29.36l-1242.98 -19.08z"/>
  <path fill="black" fill-opacity="0.101961" d="M9123.76 1884.42c667.29,55.04 764.57,146.14 1195.24,150.91 459.02,5.13 695.79,-133.82 1208.98,-142.82 -401.51,6.2 -794.36,15.04 -1195.87,21.26l-1208.35 -29.34z"/>
 </g>
 <g id="Схема">
  <metadata id="CorelCorpID_1Corel-Layer"/>
  <g id="_2274308941776">
   <path fill="none" stroke="black" stroke-width="10.57" stroke-miterlimit="22.9256" d="M8631.14 7479.31c-5.46,55.6 8.94,161.83 -130.55,227.41 -105.75,49.74 -633.39,117.94 -877.54,110.58 -197.73,-5.92 -52.17,-23.86 -250.08,-3.28 -203.97,21.23 -788.51,14.47 -941.31,-9.62 -153.53,-24.16 -191.72,13 -337.72,1.91 -270.83,-20.59 -498.46,-69.68 -637.19,-118.69 -138.52,-48.95 -181.29,-185.05 -169.34,-237.15"/>
   <path fill="none" stroke="black" stroke-width="10.57" stroke-miterlimit="22.9256" d="M5298.2 7046.27l3362.35 0c15.58,0 28.18,24.18 28.18,53.95l-0.01 2480.56c0.01,29.75 -12.59,53.89 -28.16,53.89l-3362.36 0c-15.55,0 -28.16,-24.14 -28.16,-53.92l-0.02 -2480.53c0.02,-29.77 12.63,-53.95 28.19,-53.95l-0.01 0z"/>
   <path fill="none" stroke="black" stroke-width="10.57" stroke-miterlimit="22.9256" d="M12175.95 9627.83c-57.94,-30.77 -69.53,-187.94 -69.53,-549 0,-145.54 8.83,-2046.49 1.92,-2300.19 -7.94,-294.64 4.6,-454.81 70.81,-482.15 65.63,-37.3 591.59,-33.83 649.69,-1.86 66.77,25.09 84.03,207.67 76.06,500.75 -6.89,252.41 1.91,2143.53 1.91,2288.35 0,359.15 -11.57,515.55 -70.01,544.38 -59.65,32.94 -607.54,25.23 -660.84,-0.28z"/>
   <path fill="none" stroke="black" stroke-width="10.57" stroke-miterlimit="22.9256" d="M12124.28 6388.86c-22.69,-91.1 -430.03,-94.16 -1031.57,-85.68 -517.99,7.29 -4399.15,-2.06 -4696.34,-2.06 -737.11,0 -1106.93,-11.05 -1139.28,96.37"/>
   <path fill="none" stroke="black" stroke-width="10.57" stroke-miterlimit="22.9256" d="M5418.21 7044.22l3090.71 0c60.6,0 107.3,50.49 110.18,111.9l13.76 294.35c2.88,61.44 -49.63,109.11 -110.16,111.91 -558.09,31.83 -1016.7,32.1 -1625.1,40.26 -593.51,7.94 -954.91,-8.68 -1500.05,-40.26 -60.5,-2.81 -114.46,-50.5 -110.15,-111.91l20.66 -294.35c4.32,-61.39 49.58,-111.9 110.15,-111.9z"/>
   <line fill="none" stroke="black" stroke-width="10.57" stroke-miterlimit="22.9256" x1="5270.02" y1="8419.3" x2="8656.02" y2= "8417.77" />
   <line fill="none" stroke="black" stroke-width="10.57" stroke-miterlimit="22.9256" x1="6358.76" y1="9634.69" x2="6357.27" y2= "7603.74" />
   <line fill="none" stroke="black" stroke-width="10.57" stroke-miterlimit="22.9256" x1="7477.17" y1="9634.69" x2="7475.69" y2= "7603.74" />
   <path fill="none" stroke="black" stroke-width="10.57" stroke-miterlimit="22.9256" d="M5203.16 9627.83c57.94,-30.77 69.53,-187.94 69.53,-549 0,-145.54 -8.83,-2046.49 -1.92,-2300.19 7.94,-294.64 -4.6,-454.81 -70.81,-482.15 -65.63,-37.3 -591.59,-33.83 -649.69,-1.86 -66.77,25.09 -84.03,207.67 -76.06,500.75 6.89,252.41 -1.91,2143.53 -1.91,2288.35 0,359.15 11.57,515.55 70.01,544.38 59.65,32.94 607.54,25.23 660.84,-0.28z"/>
   <path fill="none" stroke="black" stroke-width="10.57" stroke-miterlimit="22.9256" d="M8746.32 7479.31c5.46,55.6 -8.93,161.83 130.55,227.41 123.18,57.93 818.69,140.88 971.99,100.37 38.42,-10.15 83.25,-3.66 121.89,2.6 154.79,25.04 752,20.77 948.74,-1.77 165.2,-18.94 67.75,-6.92 204.01,2.67 215.05,15.14 598.88,-52.9 797.23,-122.97 138.52,-48.95 181.29,-185.05 169.33,-237.15"/>
   <path fill="none" stroke="black" stroke-width="10.57" stroke-miterlimit="22.9256" d="M12079.27 7046.27l-3362.35 0c-15.59,0 -28.19,24.18 -28.19,53.95l0.02 2480.56c-0.02,29.75 12.58,53.89 28.15,53.89l3362.37 0c15.54,0 28.16,-24.14 28.16,-53.92l0.01 -2480.53c-0.01,-29.77 -12.63,-53.95 -28.19,-53.95l0.02 0z"/>
   <path fill="none" stroke="black" stroke-width="10.57" stroke-miterlimit="22.9256" d="M11959.25 7044.22l-3090.71 0c-60.59,0 -107.3,50.49 -110.18,111.9l-13.75 294.35c-2.88,61.44 49.63,109.11 110.15,111.91 558.09,31.83 1016.7,32.1 1625.1,40.26 593.51,7.94 954.92,-8.68 1500.05,-40.26 60.5,-2.81 114.47,-50.5 110.15,-111.91l-20.65 -294.35c-4.33,-61.39 -49.59,-111.9 -110.16,-111.9z"/>
   <line fill="none" stroke="black" stroke-width="10.57" stroke-miterlimit="22.9256" x1="12107.44" y1="8419.3" x2="8721.44" y2= "8417.77" />
   <line fill="none" stroke="black" stroke-width="10.57" stroke-miterlimit="22.9256" x1="11018.7" y1="9634.69" x2="11020.19" y2= "7603.74" />
   <line fill="none" stroke="black" stroke-width="10.57" stroke-miterlimit="22.9256" x1="9900.29" y1="9634.69" x2="9901.78" y2= "7603.74" />
   <polyline fill="none" stroke="black" stroke-width="10.57" stroke-miterlimit="22.9256" stroke-dasharray="52.864103 52.864103" points="5263.54,9508.29 5259.27,11546.73 12105.7,11546.73 12110.94,9279.47 "/>
  </g>
  <g id="_2274308943312">
   <path fill="none" stroke="black" stroke-width="10.57" stroke-miterlimit="22.9256" d="M17444.76 3363.6c57.1,19.93 95.8,58.41 95.8,102.62l0 475.23c0,53.71 -54.63,110.88 -134.94,112.82 23.11,-14.1 39.13,-44.67 39.15,-80.11l-0.02 -610.57z"/>
   <path fill="none" stroke="black" stroke-width="10.57" stroke-miterlimit="22.9256" d="M14087.36 2925.01c0.84,-253.85 -1.12,-508.36 -4.18,-570.45 -8.48,-171.44 -8.97,-282.2 82.11,-288.63l620.98 -8.23c90.87,7.43 88.4,124.17 79.94,299.53 -2.97,61.49 -3.17,231.49 -2.39,481.33"/>
   <path fill="none" stroke="black" stroke-width="10.57" stroke-miterlimit="22.9256" d="M14963.15 2838.55l-30.68 -795.77c-2.69,-70.23 -16.84,-140.79 83.37,-144.94l295.81 -12.3c158.75,-6.56 135.27,463.97 146.21,585.96 -0.66,46.44 12.13,231.73 1.59,367.05l-496.3 0z"/>
   <path fill="none" stroke="black" stroke-width="10.57" stroke-miterlimit="22.9256" d="M14965.25 1914.07c-70.4,5.65 -96.83,140.03 -99.47,244.9"/>
   <path fill="none" stroke="black" stroke-width="10.57" stroke-miterlimit="22.9256" d="M15311.65 1885.54c213,0 296.94,380.81 305.21,535.38 9.14,171.07 -2.27,356.2 -4.29,417.64"/>
   <path fill="none" stroke="black" stroke-width="10.57" stroke-miterlimit="22.9256" d="M14087.47 3974.15l0 -1047.17c0,-48.83 30.39,-88.43 67.88,-88.43l3221.54 0c37.44,0 67.85,39.6 67.85,88.43l0.03 1047.17c-0.03,48.83 -30.44,88.43 -67.9,88.43l-3221.52 0c-37.49,0 -67.88,-39.6 -67.88,-88.43z"/>
   <rect fill="none" stroke="black" stroke-width="10.57" stroke-miterlimit="22.9256" x="14413.38" y="4276.69" width="2779.28" height="185.85"/>
   <line fill="none" stroke="black" stroke-width="10.57" stroke-miterlimit="22.9256" x1="14081.17" y1="3487.5" x2="17456.02" y2= "3486.27" />
   <line fill="none" stroke="black" stroke-width="10.57" stroke-miterlimit="22.9256" x1="15108.34" y1="4029.67" x2="15107.1" y2= "2848.87" />
   <line fill="none" stroke="black" stroke-width="10.57" stroke-miterlimit="22.9256" x1="16355.57" y1="4029.42" x2="16354.33" y2= "2848.87" />
   <path fill="none" stroke="black" stroke-width="10.57" stroke-miterlimit="22.9256" d="M17384.85 4280.87l-190.53 0c0,72.63 -3.04,116.36 -3.04,189.02 40.92,119.47 60.73,210.52 69.16,402.72l124.41 2.72 0 -594.46z"/>
   <path fill="none" stroke="black" stroke-width="10.57" stroke-miterlimit="22.9256" d="M14221.35 4276.78l190.55 0c0,72.66 3.04,116.39 3.04,189.02 -40.91,119.48 -60.73,210.53 -69.18,402.73l-124.41 2.72 0 -594.47z"/>
   <path fill="none" stroke="black" stroke-width="10.57" stroke-miterlimit="22.9256" d="M17025.16 4065.35l359.71 0c151.06,0 151.03,209.83 0,209.83l-359.71 0 -2825.13 0c-151.02,0 -151.06,-209.83 0,-209.83l2825.13 0z"/>
  </g>
  <g id="_2274308947152">
   <path fill="none" stroke="black" stroke-width="10.57" stroke-miterlimit="22.9256" d="M12201.13 4061.3c-61.79,-10.89 -74.07,-68.22 -74.07,-199.9 0,-53.13 9.35,-746.47 2.03,-839.01 -8.44,-107.46 4.86,-165.9 75.23,-175.77l604.45 -1.46c70.31,9.82 88.67,76.43 80.17,183.34 -7.31,92.08 2.03,781.87 2.03,834.66 0,131.01 -12.29,188.07 -74.05,198.87l-615.78 -0.73z"/>
   <path fill="none" stroke="black" stroke-width="10.57" stroke-miterlimit="22.9256" d="M5341.03 3432.34c1063.65,0 2127.28,0 3190.92,0 93.75,0 156.57,14.87 168.21,90.29 11.58,-79.17 97.74,-93.47 197.64,-90.29 1053.82,0 2107.67,0 3161.49,0 37.7,0 68.54,31.48 68.54,69.93 0,163.21 0,326.41 0,489.62 0,38.47 -30.84,69.93 -68.54,69.93 -2239.41,0 -4478.85,0 -6718.26,0 -37.7,0 -68.56,-31.46 -68.56,-69.93 0,-163.21 0,-326.41 0,-489.62 0,-38.45 30.86,-69.93 68.56,-69.93z"/>
   <path fill="none" stroke="black" stroke-width="10.57" stroke-miterlimit="22.9256" d="M12127.83 3502.27c5.45,-77.71 -20.31,-92.24 -115.08,-104.9 -172.41,-23 -534.9,-23.14 -921.35,-19.26 -244.56,2.45 -1242.14,1.01 -2255.06,-0.66 -46.32,-0.07 -117.37,53.78 -137.14,79.7 -26.93,-26.05 -91.78,-80.09 -136.56,-80.16 -1028.67,-1.69 -2004.45,-3.32 -2147.36,-0.91 -470.6,7.85 -851.71,-1.63 -1028.03,20.56 -96.82,12.2 -127.05,31.03 -114.78,142.78"/>
   <rect fill="none" stroke="black" stroke-width="10.57" stroke-miterlimit="22.9256" x="4816.63" y="4274.06" width="7795.39" height="192.34"/>
   <path fill="none" stroke="black" stroke-width="10.57" stroke-miterlimit="22.9256" d="M5273.56 2947.8l-6.86 -797.93c-1.62,-65.88 15.11,-92.81 55.2,-102.73m6719.98 -2.42c64.87,12.45 92.68,60.21 86.34,120.34l-1.21 819.33"/>
   <path fill="none" stroke="black" stroke-width="10.57" stroke-miterlimit="22.9256" d="M5490.41 3388.06c-92.7,0 -176.48,-88.72 -176.48,-181.03 0,-193.16 22.76,-361.48 22.76,-554.64 0,-189.77 -22.76,-404.39 -22.76,-594.17 0,-92.33 75.86,-167.87 168.56,-167.87 502.2,0 948.47,20.75 1450.67,20.75 508.98,0 1073.93,-20.75 1582.9,-20.75 92.72,0 168.55,75.54 168.55,167.87 0,159.39 -30.5,415 -30.5,574.38 0,223.55 30.5,350.86 30.5,574.43 0,92.31 -72.43,169.89 -165.15,169.89"/>
   <path fill="none" stroke="black" stroke-width="10.57" stroke-miterlimit="22.9256" d="M8627.87 4063.83c48.79,-3.49 75.65,-33.4 72.38,-99.59l-0.09 -491.85"/>
   <path fill="none" stroke="black" stroke-width="10.57" stroke-miterlimit="22.9256" d="M8859.39 3377.5c-91.92,0 -162.61,-85.81 -162.61,-178.12 0,-193.16 22.57,-361.48 22.57,-554.64 0,-189.77 -22.57,-404.39 -22.57,-594.17 0,-92.33 75.19,-167.87 167.11,-167.87 497.93,0 940.38,20.75 1438.29,20.75 504.65,0 1064.77,-20.75 1569.41,-20.75 91.9,0 167.09,75.54 167.09,167.87 0,159.39 -30.25,415 -30.25,574.38 0,223.55 30.25,350.88 30.25,574.43 0,92.31 -76.86,185.75 -168.76,185.75"/>
   <path fill="none" stroke="black" stroke-width="10.57" stroke-miterlimit="22.9256" d="M4622.23 4274.24l190.55 0c0,72.66 3.04,116.39 3.04,189.03 -40.92,119.47 -60.73,210.52 -69.15,402.72l-124.44 2.72 0 -594.47z"/>
   <line fill="none" stroke="black" stroke-width="10.57" stroke-linejoin="round" stroke-miterlimit="22.9256" x1="5336.7" y1="2675.03" x2="8658.65" y2= "2673.55" />
   <line fill="none" stroke="black" stroke-width="10.57" stroke-linejoin="round" stroke-miterlimit="22.9256" x1="6403.29" y1="3376.3" x2="6401.82" y2= "1897.76" />
   <line fill="none" stroke="black" stroke-width="10.57" stroke-linejoin="round" stroke-miterlimit="22.9256" x1="7506.78" y1="3375.32" x2="7505.32" y2= "1897.76" />
   <line fill="none" stroke="black" stroke-width="10.57" stroke-miterlimit="22.9256" x1="9693.26" y1="3372.45" x2="9691.79" y2= "1892.69" />
   <line fill="none" stroke="black" stroke-width="10.57" stroke-miterlimit="22.9256" x1="10799.04" y1="3377.91" x2="10797.57" y2= "1892.69" />
   <line fill="none" stroke="black" stroke-width="10.57" stroke-miterlimit="22.9256" x1="12008.97" y1="2675.03" x2="8718.76" y2= "2673.55" />
   <path fill="none" stroke="black" stroke-width="10.57" stroke-miterlimit="22.9256" d="M12806.13 4272.44l-190.56 0c0,72.63 -3.04,116.36 -3.04,189.02 40.92,119.47 60.74,210.53 69.16,402.72l124.44 2.72 0 -594.46z"/>
   <path fill="none" stroke="black" stroke-width="10.57" stroke-miterlimit="22.9256" d="M5199.56 4064.38c61.79,-10.89 74.07,-68.22 74.07,-199.9 0,-53.13 -9.34,-746.47 -2.03,-839.01 8.44,-107.46 -4.85,-165.91 -75.22,-175.77l-604.45 -1.46c-70.31,9.82 -88.67,76.43 -80.18,183.34 7.32,92.08 -2.03,781.87 -2.03,834.66 0,131.01 12.3,188.07 74.06,198.87l615.77 -0.73z"/>
   <path fill="none" stroke="black" stroke-width="10.57" stroke-miterlimit="22.9256" d="M7440.48 4065.35l5308.75 0c151.06,0 151.04,209.83 0,209.83l-5308.75 0 -2825.13 0c-151.02,0 -151.06,-209.83 0,-209.83l2825.13 0z"/>
   <path fill="none" stroke="black" stroke-width="10.57" stroke-miterlimit="22.9256" d="M8778.11 4063.83c-48.78,-3.49 -75.65,-33.4 -72.38,-99.59l0.09 -491.85"/>
  </g>
 </g>
 <g id="Шрифт">
  <metadata id="CorelCorpID_2Corel-Layer"/>
  <path fill="#666666" fill-rule="nonzero" fill-opacity="0.800000" d="M14409.71 6604.26l0 11.91c16.25,7.57 29.33,19.49 39.25,35.74 9.92,16.24 14.89,34.11 14.89,53.59 0,32.49 -11.19,58.75 -33.57,78.78 -22.37,20.04 -54.86,30.05 -97.45,30.05l-172.71 0 0 -386.57 168.39 0c39.33,0 69.74,9.29 91.23,27.88 21.48,18.59 32.21,41.96 32.21,70.11 0,37.17 -14.07,63.35 -42.23,78.51zm-200.86 -133.19l0 120.74 118.57 0c50.18,0 75.26,-20.58 75.26,-61.72 0,-20.22 -7.22,-35.11 -21.66,-44.67 -14.44,-9.56 -32.67,-14.35 -54.68,-14.35l-117.49 0zm0 299.95l120.74 0c24.9,0 45.3,-5.33 61.18,-15.97 15.88,-10.65 23.82,-28.43 23.82,-53.33 0,-23.46 -7.85,-40.51 -23.55,-51.17 -15.7,-10.64 -36.01,-15.97 -60.91,-15.97l-121.28 0 0 136.44zm325.94 -229.56l46.02 0 0 90.96 75.25 0c32.85,0 58.21,7.94 76.07,23.82 17.87,15.88 26.8,38.08 26.8,66.59 0,28.87 -8.93,51.35 -26.8,67.4 -17.86,16.06 -43.22,24.09 -76.07,24.09l-121.27 0 0 -272.87zm46.02 129.94l0 102.87 68.75 0c22.74,0 38.98,-4.34 48.73,-12.99 9.75,-8.66 14.62,-21.49 14.62,-38.44 0,-16.97 -4.87,-29.78 -14.62,-38.44 -9.74,-8.66 -25.98,-12.99 -48.73,-12.99l-68.75 0zm221.98 -129.94l46.02 0 0 272.87 -46.02 0 0 -272.87zm319.42 190.58l46.02 0c-5.41,27.43 -18.14,49.18 -38.16,65.24 -20.04,16.07 -45.57,24.09 -76.61,24.09 -41.15,0 -73.54,-13.44 -97.18,-40.33 -23.64,-26.89 -35.47,-61.27 -35.47,-103.14 0,-42.23 11.73,-76.7 35.2,-103.41 23.45,-26.71 55.94,-40.06 97.45,-40.06 31.4,0 56.93,7.85 76.61,23.55 19.67,15.7 31.85,36.55 36.55,62.53l-46.02 0c-9.74,-30.68 -32.13,-46.02 -67.13,-46.02 -29.24,0 -50.99,9.65 -65.25,28.97 -14.25,19.31 -21.39,43.76 -21.39,73.36 0,29.96 7.23,54.86 21.66,74.71 14.44,19.86 36.1,29.78 64.98,29.78 38.25,0 61.18,-16.42 68.75,-49.27zm134 -157.01c24,-27.07 56.76,-40.6 98.26,-40.6 41.51,0 74.27,13.53 98.27,40.6 23.99,27.07 36,61.36 36,102.87 0,41.51 -12,75.8 -36,102.87 -24,27.07 -56.76,40.6 -98.27,40.6 -41.5,0 -74.26,-13.53 -98.26,-40.6 -24,-27.07 -36.01,-61.36 -36.01,-102.87 0,-41.51 12,-75.8 36.01,-102.87zm32.76 176.23c15.16,20.04 36.99,30.05 65.51,30.05 28.52,0 50.36,-10.01 65.52,-30.05 15.16,-20.03 22.73,-44.48 22.73,-73.36 0,-28.87 -7.57,-53.32 -22.73,-73.36 -15.16,-20.04 -36.99,-30.05 -65.52,-30.05 -28.51,0 -50.35,10.01 -65.51,30.05 -15.16,20.04 -22.74,44.49 -22.74,73.36 0,28.88 7.58,53.33 22.74,73.36zm238.22 -169.73l0 -40.06 234.98 0 0 40.06 -94.21 0 0 232.81 -46.03 0 0 -232.81 -94.75 0zm469.41 232.81l0 -28.69 -11.91 0c-18.77,23.81 -47.11,35.73 -85,35.73 -29.96,0 -53.78,-8.66 -71.47,-25.98 -17.68,-17.33 -26.52,-38.26 -26.52,-62.81 0,-24.9 8.66,-46.2 25.98,-63.89 17.33,-17.69 43.49,-26.53 78.51,-26.53l88.79 0 0 -10.82c0,-17.33 -5.42,-31.13 -16.24,-41.42 -10.83,-10.28 -27.61,-15.43 -50.36,-15.43 -39.7,0 -60.82,13.17 -63.35,39.52l-46.02 0c1.81,-24.9 12.54,-44.39 32.22,-58.47 19.67,-14.08 45.03,-21.12 76.07,-21.12 35.01,0 62.54,8.12 82.56,24.36 20.04,16.24 30.05,39.52 30.05,69.84l0 185.7 -43.31 0zm-85.54 -33.03c22.73,0 42.41,-7.48 59.01,-22.46 16.6,-14.98 24.9,-33.3 24.9,-54.95l0 -24.91 -81.75 0c-43.67,0 -65.51,17.33 -65.51,51.98 0,15.52 5.51,27.79 16.51,36.82 11.01,9.02 26.62,13.53 46.84,13.53zm-1571.18 542l46.02 0c-5.41,27.43 -18.14,49.18 -38.16,65.24 -20.04,16.07 -45.57,24.09 -76.61,24.09 -41.15,0 -73.54,-13.44 -97.18,-40.33 -23.64,-26.89 -35.47,-61.27 -35.47,-103.14 0,-42.23 11.73,-76.7 35.2,-103.41 23.45,-26.71 55.94,-40.06 97.45,-40.06 31.4,0 56.93,7.85 76.61,23.55 19.67,15.7 31.85,36.55 36.55,62.53l-46.02 0c-9.74,-30.68 -32.13,-46.02 -67.13,-46.02 -29.24,0 -50.99,9.65 -65.25,28.97 -14.25,19.31 -21.39,43.76 -21.39,73.36 0,29.96 7.23,54.86 21.66,74.71 14.44,19.86 36.1,29.78 64.98,29.78 38.25,0 61.18,-16.42 68.75,-49.27zm179.75 82.29l-64.97 0 0 -272.87 44.93 0 0 211.16 11.91 0 119.66 -211.16 67.13 0 0 272.87 -44.94 0 0 -211.15 -11.91 0 -121.82 211.15zm510.55 -40.06l50.35 0 0 117.48 -44.94 0 0 -77.42 -236.05 0 0 77.42 -44.94 0 0 -117.48 36.28 0c22.37,-47.65 33.57,-100.34 33.57,-158.09l0 -74.72 205.74 0 0 232.81zm-46.03 0l0 -192.75 -116.94 0 0 34.66c0,61.72 -9.92,114.41 -29.78,158.09l146.72 0zm392.52 -112.61l0 15.7 -207.9 0c0.72,32.85 8.48,58.38 23.28,76.61 14.8,18.23 36.1,27.34 63.89,27.34 37.53,0 60.64,-14.07 69.29,-42.23l46.57 0c-4.7,24.54 -17.06,44.4 -37.08,59.56 -20.04,15.16 -46.3,22.73 -78.78,22.73 -41.51,0 -74,-13.53 -97.45,-40.6 -23.46,-27.07 -35.2,-62.27 -35.2,-105.58 0,-42.59 11.73,-76.7 35.2,-102.32 23.45,-25.63 55.58,-38.44 96.36,-38.44 38.62,0 68.4,12.18 89.34,36.55 20.94,24.36 31.76,54.59 32.48,90.69zm-122.9 -87.17c-23.46,0 -42.23,6.05 -56.31,18.14 -14.07,12.09 -22.73,27.52 -25.98,46.29l157.55 0c-1.45,-18.41 -8.84,-33.75 -22.2,-46.02 -13.35,-12.27 -31.04,-18.41 -53.05,-18.41zm437.46 239.85l-46.03 0 0 -120.2 -151.05 0 0 120.2 -46.02 0 0 -272.87 46.02 0 0 112.61 151.05 0 0 -112.61 46.03 0 0 272.87zm472.11 -272.87l135.89 0 0 272.87 -46.56 0 0 -107.74 -82.83 0c-7.23,0 -12.81,-0.18 -16.79,-0.55l-41.14 108.29 -48.19 0 46.02 -118.57c-28.15,-13.35 -42.23,-37.17 -42.23,-71.46 0,-26.35 8.21,-46.75 24.63,-61.19 16.43,-14.43 40.15,-21.66 71.2,-21.66zm89.33 38.98l-84.46 0c-19.85,0 -33.93,3.79 -42.23,11.37 -8.29,7.57 -12.45,18.59 -12.45,33.03 0,14.07 4.16,24.72 12.45,31.94 8.3,7.23 22.38,10.83 42.23,10.83l84.46 0 0 -87.17zm-1381.13 825.16l-56.3 0 0 -62.81 56.3 0 0 62.81zm94.21 -337.3c25.27,-32.85 59.02,-49.27 101.25,-49.27 42.22,0 76.07,16.51 101.51,49.54 25.44,33.03 38.16,82.2 38.16,147.54 0,65.33 -12.72,114.41 -38.16,147.26 -25.44,32.85 -59.29,49.27 -101.51,49.27 -42.23,0 -75.98,-16.42 -101.25,-49.27 -25.26,-32.85 -37.89,-81.93 -37.89,-147.26 0,-65.7 12.63,-114.96 37.89,-147.81zm32.49 261.23c15.16,27.25 38.07,40.87 68.76,40.87 30.68,0 53.68,-13.62 69.02,-40.87 15.34,-27.25 23.01,-65.06 23.01,-113.42 0,-48.73 -7.67,-86.72 -23.01,-113.97 -15.34,-27.25 -38.34,-40.87 -69.02,-40.87 -30.69,0 -53.6,13.62 -68.76,40.87 -15.16,27.25 -22.74,65.25 -22.74,113.97 0,48.37 7.58,86.17 22.74,113.42zm617.74 -6.23l46.02 0c-5.41,27.43 -18.14,49.18 -38.16,65.24 -20.04,16.07 -45.57,24.09 -76.61,24.09 -41.15,0 -73.54,-13.44 -97.18,-40.33 -23.64,-26.89 -35.47,-61.27 -35.47,-103.14 0,-42.23 11.73,-76.7 35.2,-103.41 23.45,-26.71 55.94,-40.06 97.45,-40.06 31.4,0 56.93,7.85 76.61,23.55 19.67,15.7 31.85,36.55 36.55,62.53l-46.02 0c-9.74,-30.68 -32.13,-46.02 -67.13,-46.02 -29.24,0 -50.99,9.65 -65.25,28.97 -14.25,19.31 -21.39,43.76 -21.39,73.36 0,29.96 7.23,54.86 21.66,74.71 14.44,19.86 36.1,29.78 64.98,29.78 38.25,0 61.18,-16.42 68.75,-49.27zm114.78 82.29l0 -272.87 73.09 0 67.13 124.53 11.91 0 67.13 -124.53 72 0 0 272.87 -44.93 0 0 -219.27 -11.91 0 -63.35 116.94 -50.9 0 -63.35 -116.94 -11.91 0 0 219.27 -44.93 0zm95.29 -864.14l0 90.96 80.67 0c32.85,0 58.2,7.94 76.07,23.82 17.87,15.88 26.8,38.08 26.8,66.59 0,28.87 -8.93,51.35 -26.8,67.4 -17.87,16.06 -43.22,24.09 -76.07,24.09l-126.68 0 0 -272.87 46.02 0zm0 232.81l74.17 0c22.74,0 38.98,-4.34 48.73,-12.99 9.74,-8.66 14.62,-21.49 14.62,-38.44 0,-16.97 -4.88,-29.78 -14.62,-38.44 -9.74,-8.66 -25.98,-12.99 -48.73,-12.99l-74.17 0 0 102.87zm615.04 40.06l-56.3 0 0 -62.81 56.3 0 0 62.81zm0 -210.07l-56.3 0 0 -62.81 56.3 0 0 62.81zm-2075.22 670.31l51.97 0 0 42.23 -51.97 0 0 88.79 -46.56 0 0 -88.79 -187.33 0 0 -54.14 167.3 -236.06 66.59 0 0 247.97zm-184.08 0l138.07 0 0 -194.37 -11.91 0 -126.15 182.46 0 11.91zm515.43 0l51.97 0 0 42.23 -51.97 0 0 88.79 -46.56 0 0 -88.79 -187.33 0 0 -54.14 167.3 -236.06 66.59 0 0 247.97zm-184.08 0l138.07 0 0 -194.37 -11.91 0 -126.15 182.46 0 11.91z"/>
  <path fill="#666666" fill-rule="nonzero" fill-opacity="0.800000" d="M6640.71 10466.49l-47.65 0c2.17,-36.46 14.89,-64.25 38.17,-83.38 23.28,-19.13 52.6,-28.69 87.98,-28.69 36.82,0 66.5,10.01 89.06,30.05 22.56,20.03 33.84,48.46 33.84,85.27 0,44.76 -27.97,90.42 -83.91,136.98l-95.3 80.13 0 11.91 191.12 0 0 42.23 -260.41 0 0 -53.6 55.76 -45.48c34.65,-27.79 63.35,-52.15 86.08,-73.09 8.66,-7.57 15.61,-14.07 20.85,-19.49 5.24,-5.42 11.19,-12.54 17.87,-21.39 6.68,-8.84 11.73,-18.14 15.16,-27.88 3.43,-9.74 5.15,-19.86 5.15,-30.32 0,-23.46 -6.87,-41.51 -20.58,-54.14 -13.72,-12.63 -32.31,-18.95 -55.76,-18.95 -22.03,0 -39.8,5.87 -53.33,17.6 -13.53,11.72 -21.57,29.14 -24.09,52.24zm306.44 -62.81c25.27,-32.85 59.02,-49.27 101.25,-49.27 42.22,0 76.07,16.51 101.51,49.54 25.44,33.03 38.16,82.2 38.16,147.54 0,65.33 -12.72,114.41 -38.16,147.26 -25.44,32.85 -59.29,49.27 -101.51,49.27 -42.23,0 -75.98,-16.42 -101.25,-49.27 -25.26,-32.85 -37.89,-81.93 -37.89,-147.26 0,-65.7 12.63,-114.96 37.89,-147.81zm32.49 261.23c15.16,27.25 38.07,40.87 68.76,40.87 30.68,0 53.68,-13.62 69.02,-40.87 15.34,-27.25 23.01,-65.06 23.01,-113.42 0,-48.73 -7.67,-86.72 -23.01,-113.97 -15.34,-27.25 -38.34,-40.87 -69.02,-40.87 -30.69,0 -53.6,13.62 -68.76,40.87 -15.16,27.25 -22.74,65.25 -22.74,113.97 0,48.37 7.58,86.17 22.74,113.42zm305.89 -261.23c25.27,-32.85 59.02,-49.27 101.25,-49.27 42.22,0 76.07,16.51 101.51,49.54 25.44,33.03 38.16,82.2 38.16,147.54 0,65.33 -12.72,114.41 -38.16,147.26 -25.44,32.85 -59.29,49.27 -101.51,49.27 -42.23,0 -75.98,-16.42 -101.25,-49.27 -25.26,-32.85 -37.89,-81.93 -37.89,-147.26 0,-65.7 12.63,-114.96 37.89,-147.81zm32.49 261.23c15.16,27.25 38.07,40.87 68.76,40.87 30.68,0 53.68,-13.62 69.02,-40.87 15.34,-27.25 23.01,-65.06 23.01,-113.42 0,-48.73 -7.67,-86.72 -23.01,-113.97 -15.34,-27.25 -38.34,-40.87 -69.02,-40.87 -30.69,0 -53.6,13.62 -68.76,40.87 -15.16,27.25 -22.74,65.25 -22.74,113.97 0,48.37 7.58,86.17 22.74,113.42zm316.72 76.07l-56.3 0 0 -62.81 56.3 0 0 62.81zm2736.28 -82.29l46.02 0c-5.41,27.43 -18.14,49.18 -38.16,65.24 -20.04,16.07 -45.57,24.09 -76.61,24.09 -41.15,0 -73.54,-13.44 -97.18,-40.33 -23.64,-26.89 -35.47,-61.27 -35.47,-103.14 0,-42.23 11.73,-76.7 35.2,-103.41 23.45,-26.71 55.94,-40.06 97.45,-40.06 31.4,0 56.93,7.85 76.61,23.55 19.67,15.7 31.85,36.55 36.55,62.53l-46.02 0c-9.74,-30.68 -32.13,-46.02 -67.13,-46.02 -29.24,0 -50.99,9.65 -65.25,28.97 -14.25,19.31 -21.39,43.76 -21.39,73.36 0,29.96 7.23,54.86 21.66,74.71 14.44,19.86 36.1,29.78 64.98,29.78 38.25,0 61.18,-16.42 68.75,-49.27zm114.78 82.29l0 -272.87 73.09 0 67.13 124.53 11.91 0 67.13 -124.53 72 0 0 272.87 -44.93 0 0 -219.27 -11.91 0 -63.35 116.94 -50.9 0 -63.35 -116.94 -11.91 0 0 219.27 -44.93 0zm-2741.7 -337.3c25.27,-32.85 59.02,-49.27 101.25,-49.27 42.22,0 76.07,16.51 101.51,49.54 25.44,33.03 38.16,82.2 38.16,147.54 0,65.33 -12.72,114.41 -38.16,147.26 -25.44,32.85 -59.29,49.27 -101.51,49.27 -42.23,0 -75.98,-16.42 -101.25,-49.27 -25.26,-32.85 -37.89,-81.93 -37.89,-147.26 0,-65.7 12.63,-114.96 37.89,-147.81zm32.49 261.23c15.16,27.25 38.07,40.87 68.76,40.87 30.68,0 53.68,-13.62 69.02,-40.87 15.34,-27.25 23.01,-65.06 23.01,-113.42 0,-48.73 -7.67,-86.72 -23.01,-113.97 -15.34,-27.25 -38.34,-40.87 -69.02,-40.87 -30.69,0 -53.6,13.62 -68.76,40.87 -15.16,27.25 -22.74,65.25 -22.74,113.97 0,48.37 7.58,86.17 22.74,113.42zm615.58 76.07l-67.68 -114.24 -19.49 0 -69.3 114.24 -50.35 0 85 -139.69 -76.35 -133.19 48.73 0 62.81 108.29 19.5 0 63.89 -108.29 48.18 0 -77.42 131.57 84.46 141.3 -51.97 0zm254.46 0l0 -42.23 89.87 0 0 -286.95 -10.83 0 -79.59 53.59 0 -49.81 79.05 -53.6 59.02 0 0 336.76 82.83 0 0 42.23 -220.35 0zm412.55 -255.01c36.82,0 66.32,12.09 88.53,36.28 22.19,24.18 33.29,54.32 33.29,90.42 0,40.78 -11.99,73.54 -36,98.26 -24,24.72 -55.32,37.08 -93.94,37.08 -40.06,0 -71.56,-10.46 -94.48,-31.4 -22.92,-20.94 -35.47,-48.19 -37.63,-81.75l47.11 0c2.89,23.1 11.55,40.69 25.98,52.78 14.44,12.09 33.39,18.14 56.85,18.14 25.26,0 45.66,-8.2 61.18,-24.63 15.52,-16.42 23.28,-38.52 23.28,-66.31 0,-26.35 -7.49,-47.74 -22.47,-64.17 -14.97,-16.42 -35.1,-24.63 -60.36,-24.63 -33.94,0 -59.02,11.91 -75.26,35.74l-47.65 0 16.79 -199.78 216.56 0 0 41.15 -178.13 0 -8.66 109.37 11.91 0c19.5,-17.69 43.86,-26.53 73.09,-26.53zm218.19 -82.29c25.27,-32.85 59.02,-49.27 101.25,-49.27 42.22,0 76.07,16.51 101.51,49.54 25.44,33.03 38.16,82.2 38.16,147.54 0,65.33 -12.72,114.41 -38.16,147.26 -25.44,32.85 -59.29,49.27 -101.51,49.27 -42.23,0 -75.98,-16.42 -101.25,-49.27 -25.26,-32.85 -37.89,-81.93 -37.89,-147.26 0,-65.7 12.63,-114.96 37.89,-147.81zm32.49 261.23c15.16,27.25 38.07,40.87 68.76,40.87 30.68,0 53.68,-13.62 69.02,-40.87 15.34,-27.25 23.01,-65.06 23.01,-113.42 0,-48.73 -7.67,-86.72 -23.01,-113.97 -15.34,-27.25 -38.34,-40.87 -69.02,-40.87 -30.69,0 -53.6,13.62 -68.76,40.87 -15.16,27.25 -22.74,65.25 -22.74,113.97 0,48.37 7.58,86.17 22.74,113.42zm316.72 76.07l-56.3 0 0 -62.81 56.3 0 0 62.81zm94.21 -337.3c25.27,-32.85 59.02,-49.27 101.25,-49.27 42.22,0 76.07,16.51 101.51,49.54 25.44,33.03 38.16,82.2 38.16,147.54 0,65.33 -12.72,114.41 -38.16,147.26 -25.44,32.85 -59.29,49.27 -101.51,49.27 -42.23,0 -75.98,-16.42 -101.25,-49.27 -25.26,-32.85 -37.89,-81.93 -37.89,-147.26 0,-65.7 12.63,-114.96 37.89,-147.81zm32.49 261.23c15.16,27.25 38.07,40.87 68.76,40.87 30.68,0 53.68,-13.62 69.02,-40.87 15.34,-27.25 23.01,-65.06 23.01,-113.42 0,-48.73 -7.67,-86.72 -23.01,-113.97 -15.34,-27.25 -38.34,-40.87 -69.02,-40.87 -30.69,0 -53.6,13.62 -68.76,40.87 -15.16,27.25 -22.74,65.25 -22.74,113.97 0,48.37 7.58,86.17 22.74,113.42z"/>
  <path fill="#666666" fill-rule="nonzero" fill-opacity="0.800000" d="M7340.69 12951.9l-47.65 0c2.17,-36.46 14.89,-64.25 38.17,-83.38 23.28,-19.13 52.6,-28.69 87.98,-28.69 36.82,0 66.5,10.01 89.06,30.05 22.56,20.03 33.84,48.46 33.84,85.27 0,44.76 -27.97,90.42 -83.91,136.98l-95.3 80.13 0 11.91 191.12 0 0 42.23 -260.41 0 0 -53.6 55.76 -45.48c34.65,-27.79 63.35,-52.15 86.08,-73.09 8.66,-7.57 15.61,-14.07 20.85,-19.49 5.24,-5.42 11.19,-12.54 17.87,-21.39 6.68,-8.84 11.73,-18.14 15.16,-27.88 3.43,-9.74 5.15,-19.86 5.15,-30.32 0,-23.46 -6.87,-41.51 -20.58,-54.14 -13.72,-12.63 -32.31,-18.95 -55.76,-18.95 -22.03,0 -39.8,5.87 -53.33,17.6 -13.53,11.72 -21.57,29.14 -24.09,52.24zm493.77 143.47l51.97 0 0 42.23 -51.97 0 0 88.79 -46.56 0 0 -88.79 -187.33 0 0 -54.14 167.3 -236.06 66.59 0 0 247.97zm-184.08 0l138.07 0 0 -194.37 -11.91 0 -126.15 182.46 0 11.91zm328.1 -206.28c25.27,-32.85 59.02,-49.27 101.25,-49.27 42.22,0 76.07,16.51 101.51,49.54 25.44,33.03 38.16,82.2 38.16,147.54 0,65.33 -12.72,114.41 -38.16,147.26 -25.44,32.85 -59.29,49.27 -101.51,49.27 -42.23,0 -75.98,-16.42 -101.25,-49.27 -25.26,-32.85 -37.89,-81.93 -37.89,-147.26 0,-65.7 12.63,-114.96 37.89,-147.81zm32.49 261.23c15.16,27.25 38.07,40.87 68.76,40.87 30.68,0 53.68,-13.62 69.02,-40.87 15.34,-27.25 23.01,-65.06 23.01,-113.42 0,-48.73 -7.67,-86.72 -23.01,-113.97 -15.34,-27.25 -38.34,-40.87 -69.02,-40.87 -30.69,0 -53.6,13.62 -68.76,40.87 -15.16,27.25 -22.74,65.25 -22.74,113.97 0,48.37 7.58,86.17 22.74,113.42zm316.72 76.07l-56.3 0 0 -62.81 56.3 0 0 62.81zm94.21 -337.3c25.27,-32.85 59.02,-49.27 101.25,-49.27 42.22,0 76.07,16.51 101.51,49.54 25.44,33.03 38.16,82.2 38.16,147.54 0,65.33 -12.72,114.41 -38.16,147.26 -25.44,32.85 -59.29,49.27 -101.51,49.27 -42.23,0 -75.98,-16.42 -101.25,-49.27 -25.26,-32.85 -37.89,-81.93 -37.89,-147.26 0,-65.7 12.63,-114.96 37.89,-147.81zm32.49 261.23c15.16,27.25 38.07,40.87 68.76,40.87 30.68,0 53.68,-13.62 69.02,-40.87 15.34,-27.25 23.01,-65.06 23.01,-113.42 0,-48.73 -7.67,-86.72 -23.01,-113.97 -15.34,-27.25 -38.34,-40.87 -69.02,-40.87 -30.69,0 -53.6,13.62 -68.76,40.87 -15.16,27.25 -22.74,65.25 -22.74,113.97 0,48.37 7.58,86.17 22.74,113.42zm617.74 -6.23l46.02 0c-5.41,27.43 -18.14,49.18 -38.16,65.24 -20.04,16.07 -45.57,24.09 -76.61,24.09 -41.15,0 -73.54,-13.44 -97.18,-40.33 -23.64,-26.89 -35.47,-61.27 -35.47,-103.14 0,-42.23 11.73,-76.7 35.2,-103.41 23.45,-26.71 55.94,-40.06 97.45,-40.06 31.4,0 56.93,7.85 76.61,23.55 19.67,15.7 31.85,36.55 36.55,62.53l-46.02 0c-9.74,-30.68 -32.13,-46.02 -67.13,-46.02 -29.24,0 -50.99,9.65 -65.25,28.97 -14.25,19.31 -21.39,43.76 -21.39,73.36 0,29.96 7.23,54.86 21.66,74.71 14.44,19.86 36.1,29.78 64.98,29.78 38.25,0 61.18,-16.42 68.75,-49.27zm114.78 82.29l0 -272.87 73.09 0 67.13 124.53 11.91 0 67.13 -124.53 72 0 0 272.87 -44.93 0 0 -219.27 -11.91 0 -63.35 116.94 -50.9 0 -63.35 -116.94 -11.91 0 0 219.27 -44.93 0z"/>
  <path fill="#666666" fill-rule="nonzero" fill-opacity="0.800000" d="M3335.24 4041.77l11.91 0c5.06,-14.8 15.61,-28.33 31.68,-40.6 16.06,-12.27 35.64,-18.41 58.74,-18.41 31.76,0 58.11,12.54 79.05,37.62 20.94,25.08 31.4,58.2 31.4,99.35 0,41.14 -10.46,74.26 -31.4,99.34 -20.94,25.09 -47.29,37.63 -79.05,37.63 -22.73,0 -42.23,-6.14 -58.47,-18.41 -16.25,-12.27 -26.89,-25.81 -31.95,-40.61l-11.91 0c-5.05,11.91 -14.61,22.83 -28.69,32.76 -14.08,9.92 -31.04,14.89 -50.9,14.89 -29.96,0 -54.32,-11.73 -73.09,-35.2 -18.77,-23.45 -28.15,-53.59 -28.15,-90.41 0,-36.82 9.38,-66.95 28.15,-90.42 18.77,-23.46 43.13,-35.2 73.09,-35.2 19.13,0 35.92,5.06 50.36,15.16 14.43,10.11 24.18,20.94 29.23,32.49zm-123.17 21.39c-11.01,14.98 -16.52,33.84 -16.52,56.58 0,22.73 5.51,41.59 16.52,56.57 11,14.98 26.25,22.47 45.75,22.47 19.49,0 34.83,-7.49 46.02,-22.47 11.19,-14.98 16.79,-33.84 16.79,-56.57 0,-22.74 -5.6,-41.6 -16.79,-56.58 -11.19,-14.98 -26.53,-22.46 -46.02,-22.46 -19.5,0 -34.75,7.48 -45.75,22.46zm273.95 122.36c13.17,-16.06 19.76,-37.98 19.76,-65.78 0,-27.79 -6.59,-49.73 -19.76,-65.79 -13.17,-16.06 -30.77,-24.09 -52.78,-24.09 -22.38,0 -39.89,7.94 -52.52,23.82 -12.63,15.88 -18.95,37.89 -18.95,66.06 0,28.15 6.32,50.17 18.95,66.05 12.63,15.89 30.14,23.82 52.52,23.82 22.02,0 39.61,-8.02 52.78,-24.09zm-27.34 -1394.94l0 -46.02c27.43,5.41 49.18,18.14 65.24,38.16 16.07,20.04 24.09,45.57 24.09,76.61 0,41.15 -13.44,73.54 -40.33,97.18 -26.89,23.64 -61.27,35.47 -103.14,35.47 -42.23,0 -76.7,-11.73 -103.41,-35.2 -26.71,-23.45 -40.06,-55.94 -40.06,-97.45 0,-31.4 7.85,-56.93 23.55,-76.61 15.7,-19.67 36.55,-31.85 62.53,-36.55l0 46.02c-30.68,9.74 -46.02,32.13 -46.02,67.13 0,29.24 9.65,50.99 28.97,65.25 19.31,14.25 43.76,21.39 73.36,21.39 29.96,0 54.86,-7.23 74.71,-21.66 19.86,-14.44 29.78,-36.1 29.78,-64.98 0,-38.25 -16.42,-61.18 -49.27,-68.75zm82.29 -114.78l-272.87 0 0 -73.09 124.53 -67.13 0 -11.91 -124.53 -67.13 0 -72 272.87 0 0 44.93 -219.27 0 0 11.91 116.94 63.35 0 50.9 -116.94 63.35 0 11.91 219.27 0 0 44.93zm-246.88 1101.77c0,-34.65 11.64,-63.53 34.92,-86.63 23.28,-23.09 52.79,-34.65 88.52,-34.65 37.18,0 68.22,11.64 93.13,34.93 24.9,23.27 37.35,54.59 37.35,93.93 0,42.96 -14.8,76.89 -44.39,101.79 -29.6,24.9 -76.89,37.35 -141.85,37.35 -61,0 -110.8,-12.18 -149.43,-36.55 -38.62,-24.36 -57.93,-60.19 -57.93,-107.47 0,-31.4 8.39,-57.12 25.17,-77.16 16.79,-20.03 38.53,-32.21 65.25,-36.55l0 47.11c-32.13,9.38 -48.19,31.58 -48.19,66.59 0,29.96 11.91,53.41 35.74,70.38 23.81,16.97 56.66,26.17 98.53,27.61l0 -11.91c-9.74,-7.93 -18.32,-19.58 -25.72,-34.92 -7.39,-15.34 -11.09,-33.3 -11.09,-53.87zm188.41 67.67c15.52,-15.88 23.27,-35.74 23.27,-59.55 0,-23.82 -7.57,-43.41 -22.73,-58.75 -15.16,-15.34 -36.28,-23 -63.35,-23 -27.07,0 -47.83,7.75 -62.26,23.27 -14.44,15.53 -21.66,35.38 -21.66,59.56 0,23.82 7.39,43.49 22.19,59.01 14.8,15.53 35.19,23.28 61.18,23.28 26.71,0 47.83,-7.94 63.35,-23.82zm58.47 -310.23l0 56.3 -62.81 0 0 -56.3 62.81 0zm-337.3 -94.21c-32.85,-25.27 -49.27,-59.02 -49.27,-101.25 0,-42.22 16.51,-76.07 49.54,-101.51 33.03,-25.44 82.2,-38.16 147.54,-38.16 65.33,0 114.41,12.72 147.26,38.16 32.85,25.44 49.27,59.29 49.27,101.51 0,42.23 -16.42,75.98 -49.27,101.25 -32.85,25.26 -81.93,37.89 -147.26,37.89 -65.7,0 -114.96,-12.63 -147.81,-37.89zm261.23 -32.49c27.25,-15.16 40.87,-38.07 40.87,-68.76 0,-30.68 -13.62,-53.68 -40.87,-69.02 -27.25,-15.34 -65.06,-23.01 -113.42,-23.01 -48.73,0 -86.72,7.67 -113.97,23.01 -27.25,15.34 -40.87,38.34 -40.87,69.02 0,30.69 13.62,53.6 40.87,68.76 27.25,15.16 65.25,22.74 113.97,22.74 48.37,0 86.17,-7.58 113.42,-22.74z"/>
  <path fill="#666666" fill-rule="nonzero" fill-opacity="0.800000" d="M3540.98 9059.79l-42.23 0 0 -89.87 -286.95 0 0 10.83 53.59 79.59 -49.81 0 -53.6 -79.05 0 -59.02 336.76 0 0 -82.83 42.23 0 0 220.35zm-337.3 -308.6c-32.85,-25.27 -49.27,-59.02 -49.27,-101.25 0,-42.22 16.51,-76.07 49.54,-101.51 33.03,-25.44 82.2,-38.16 147.54,-38.16 65.33,0 114.41,12.72 147.26,38.16 32.85,25.44 49.27,59.29 49.27,101.51 0,42.23 -16.42,75.98 -49.27,101.25 -32.85,25.26 -81.93,37.89 -147.26,37.89 -65.7,0 -114.96,-12.63 -147.81,-37.89zm261.23 -32.49c27.25,-15.16 40.87,-38.07 40.87,-68.76 0,-30.68 -13.62,-53.68 -40.87,-69.02 -27.25,-15.34 -65.06,-23.01 -113.42,-23.01 -48.73,0 -86.72,7.67 -113.97,23.01 -27.25,15.34 -40.87,38.34 -40.87,69.02 0,30.69 13.62,53.6 40.87,68.76 27.25,15.16 65.25,22.74 113.97,22.74 48.37,0 86.17,-7.58 113.42,-22.74zm-198.43 -314.56l0 47.65c-36.46,-2.17 -64.25,-14.89 -83.38,-38.17 -19.13,-23.28 -28.69,-52.6 -28.69,-87.98 0,-36.82 10.01,-66.5 30.05,-89.06 20.03,-22.56 48.46,-33.84 85.27,-33.84 44.76,0 90.42,27.97 136.98,83.91l80.13 95.3 11.91 0 0 -191.12 42.23 0 0 260.41 -53.6 0 -45.48 -55.76c-27.79,-34.65 -52.15,-63.35 -73.09,-86.08 -7.57,-8.66 -14.07,-15.61 -19.49,-20.85 -5.42,-5.24 -12.54,-11.19 -21.39,-17.87 -8.84,-6.68 -18.14,-11.73 -27.88,-15.16 -9.74,-3.43 -19.86,-5.15 -30.32,-5.15 -23.46,0 -41.51,6.87 -54.14,20.58 -12.63,13.72 -18.95,32.31 -18.95,55.76 0,22.03 5.87,39.8 17.6,53.33 11.72,13.53 29.14,21.57 52.24,24.09zm274.49 -336.76l0 56.3 -62.81 0 0 -56.3 62.81 0zm-337.3 -94.21c-32.85,-25.27 -49.27,-59.02 -49.27,-101.25 0,-42.22 16.51,-76.07 49.54,-101.51 33.03,-25.44 82.2,-38.16 147.54,-38.16 65.33,0 114.41,12.72 147.26,38.16 32.85,25.44 49.27,59.29 49.27,101.51 0,42.23 -16.42,75.98 -49.27,101.25 -32.85,25.26 -81.93,37.89 -147.26,37.89 -65.7,0 -114.96,-12.63 -147.81,-37.89zm261.23 -32.49c27.25,-15.16 40.87,-38.07 40.87,-68.76 0,-30.68 -13.62,-53.68 -40.87,-69.02 -27.25,-15.34 -65.06,-23.01 -113.42,-23.01 -48.73,0 -86.72,7.67 -113.97,23.01 -27.25,15.34 -40.87,38.34 -40.87,69.02 0,30.69 13.62,53.6 40.87,68.76 27.25,15.16 65.25,22.74 113.97,22.74 48.37,0 86.17,-7.58 113.42,-22.74zm-6.23 -617.74l0 -46.02c27.43,5.41 49.18,18.14 65.24,38.16 16.07,20.04 24.09,45.57 24.09,76.61 0,41.15 -13.44,73.54 -40.33,97.18 -26.89,23.64 -61.27,35.47 -103.14,35.47 -42.23,0 -76.7,-11.73 -103.41,-35.2 -26.71,-23.45 -40.06,-55.94 -40.06,-97.45 0,-31.4 7.85,-56.93 23.55,-76.61 15.7,-19.67 36.55,-31.85 62.53,-36.55l0 46.02c-30.68,9.74 -46.02,32.13 -46.02,67.13 0,29.24 9.65,50.99 28.97,65.25 19.31,14.25 43.76,21.39 73.36,21.39 29.96,0 54.86,-7.23 74.71,-21.66 19.86,-14.44 29.78,-36.1 29.78,-64.98 0,-38.25 -16.42,-61.18 -49.27,-68.75zm82.29 -114.78l-272.87 0 0 -73.09 124.53 -67.13 0 -11.91 -124.53 -67.13 0 -72 272.87 0 0 44.93 -219.27 0 0 11.91 116.94 63.35 0 50.9 -116.94 63.35 0 11.91 219.27 0 0 44.93z"/>
 </g>
 <g id="Выносные_x0020_линии">
  <metadata id="CorelCorpID_3Corel-Layer"/>
  <g id="_2274308959296">
   <line fill="none" stroke="gray" stroke-width="10.57" stroke-miterlimit="22.9256" x1="3555" y1="4865.99" x2="4349.89" y2= "4865.99" />
   <line fill="none" stroke="gray" stroke-width="10.57" stroke-miterlimit="22.9256" x1="3553.06" y1="1890.8" x2="4349.89" y2= "1890.8" />
   <line fill="none" stroke="gray" stroke-width="10.57" stroke-miterlimit="22.9256" x1="3853.71" y1="5162.36" x2="3853.71" y2= "1632.6" />
  </g>
  <g id="_2274308958864">
   <line fill="none" stroke="gray" stroke-width="10.57" stroke-miterlimit="22.9256" x1="12919.18" y1="12752.47" x2="12919.18" y2= "11957.59" />
   <line fill="none" stroke="gray" stroke-width="10.57" stroke-miterlimit="22.9256" x1="4467.98" y1="12754.42" x2="4467.98" y2= "11957.59" />
   <line fill="none" stroke="gray" stroke-width="10.57" stroke-miterlimit="22.9256" x1="13192.56" y1="12453.75" x2="4169.26" y2= "12453.75" />
  </g>
  <g id="_2274308959200">
   <line fill="none" stroke="gray" stroke-width="10.57" stroke-miterlimit="22.9256" x1="3555" y1="9650.67" x2="4349.89" y2= "9650.67" />
   <line fill="none" stroke="gray" stroke-width="10.57" stroke-miterlimit="22.9256" x1="3553.06" y1="6272.09" x2="4349.89" y2= "6272.09" />
   <line fill="none" stroke="gray" stroke-width="10.57" stroke-miterlimit="22.9256" x1="3853.71" y1="9963.47" x2="3853.71" y2= "6013.89" />
  </g>
 </g>
</svg>
