<?xml version="1.0" encoding="UTF-8"?>
<!DOCTYPE svg PUBLIC "-//W3C//DTD SVG 1.1//EN" "http://www.w3.org/Graphics/SVG/1.1/DTD/svg11.dtd">
<!-- Creator: CorelDRAW 2021.5 -->
<svg xmlns="http://www.w3.org/2000/svg" xml:space="preserve" width="210mm" height="148mm" version="1.1" shape-rendering="geometricPrecision" text-rendering="geometricPrecision" image-rendering="optimizeQuality" fill-rule="evenodd" clip-rule="evenodd"
viewBox="0 0 20985.75 14789.96"
 xmlns:xlink="http://www.w3.org/1999/xlink"
 xmlns:xodm="http://www.corel.com/coreldraw/odm/2003">
 <g id="Тени">
  <metadata id="CorelCorpID_0Corel-Layer"/>
  <rect fill="none" width="20985.75" height="14789.96"/>
  <path fill="black" fill-opacity="0.101961" d="M7413.91 2144.71c0,0 19.11,285.85 -70.52,391.34 -89.63,105.5 -455.85,98.6 -455.85,98.6 0,0 379.13,-35.39 463.89,96.54 84.76,131.92 59.4,320.47 63.81,471.62 4.41,151.15 -14.98,-383.21 68.55,-478.79 83.53,-95.59 281.12,-98.64 281.12,-98.64 0,0 -180.3,30.51 -273.11,-95.73 -92.81,-126.23 -77.89,-384.94 -77.89,-384.94z"/>
  <path fill="black" fill-opacity="0.101961" d="M8133.06 2147.64c0,0 -19.11,285.85 70.52,391.34 89.63,105.5 455.85,98.6 455.85,98.6 0,0 -379.13,-35.39 -463.89,96.54 -84.76,131.92 -59.4,320.47 -63.81,471.62 -4.41,151.15 14.98,-383.21 -68.55,-478.79 -83.53,-95.59 -281.12,-98.64 -281.12,-98.64 0,0 180.3,30.51 273.11,-95.72 92.81,-126.24 77.89,-384.95 77.89,-384.95z"/>
  <path fill="black" fill-opacity="0.101961" d="M14480.28 2975.75c0,0 27.2,233.15 -100.38,319.19 -127.57,86.05 -648.85,80.43 -648.85,80.43 0,0 539.65,-28.86 660.3,78.75 120.66,107.61 84.54,261.39 90.82,384.67 6.28,123.28 -21.32,-312.56 97.57,-390.52 118.9,-77.96 400.15,-80.46 400.15,-80.46 0,0 -256.64,24.88 -388.75,-78.08 -132.11,-102.96 -110.86,-313.98 -110.86,-313.98z"/>
  <path fill="black" fill-opacity="0.101961" d="M15732.08 2972.68c0,0 -27.2,233.15 100.38,319.19 127.57,86.05 648.85,80.43 648.85,80.43 0,0 -539.65,-28.86 -660.3,78.75 -120.65,107.61 -84.54,261.39 -90.82,384.67 -6.28,123.28 21.32,-312.56 -97.57,-390.52 -118.9,-77.96 -400.15,-80.46 -400.15,-80.46 0,0 256.64,24.88 388.75,-78.08 132.11,-102.96 110.86,-313.98 110.86,-313.98z"/>
  <path fill="black" fill-opacity="0.101961" d="M7438.23 7546.9c0,0 19.61,289.47 -72.36,396.31 -91.98,106.83 -467.77,99.85 -467.77,99.85 0,0 389.05,-35.84 476.03,97.76 86.98,133.6 60.95,324.54 65.47,477.61 4.53,153.06 -15.37,-388.07 70.35,-484.87 85.71,-96.79 288.46,-99.89 288.46,-99.89 0,0 -185.01,30.9 -280.25,-96.94 -95.24,-127.83 -79.93,-389.83 -79.93,-389.83z"/>
  <path fill="black" fill-opacity="0.101961" d="M8236.19 7548.87c0,0 -19.62,289.47 72.36,396.31 91.97,106.83 467.76,99.85 467.76,99.85 0,0 -389.05,-35.84 -476.02,97.76 -86.98,133.6 -60.95,324.54 -65.48,477.6 -4.52,153.07 15.37,-388.06 -70.34,-484.86 -85.71,-96.79 -288.47,-99.89 -288.47,-99.89 0,0 185.01,30.9 280.26,-96.94 95.24,-127.83 79.93,-389.83 79.93,-389.83z"/>
  <path fill="black" fill-opacity="0.101961" d="M9755.32 7550.37c0,0 19.61,289.47 -72.36,396.31 -91.98,106.83 -467.77,99.85 -467.77,99.85 0,0 389.05,-35.84 476.03,97.76 86.98,133.6 60.95,324.54 65.47,477.61 4.53,153.06 -15.37,-388.07 70.35,-484.87 85.71,-96.79 288.46,-99.89 288.46,-99.89 0,0 -185.01,30.9 -280.25,-96.94 -95.24,-127.83 -79.93,-389.83 -79.93,-389.83z"/>
  <path fill="black" fill-opacity="0.101961" d="M10523.33 7539.19c0,0 -19.61,289.47 72.36,396.3 91.97,106.84 467.76,99.85 467.76,99.85 0,0 -389.04,-35.83 -476.02,97.77 -86.98,133.59 -60.95,324.53 -65.48,477.6 -4.52,153.06 15.37,-388.07 -70.34,-484.86 -85.71,-96.8 -288.46,-99.89 -288.46,-99.89 0,0 185.01,30.89 280.25,-96.94 95.24,-127.84 79.93,-389.83 79.93,-389.83z"/>
  <path fill="black" fill-opacity="0.101961" d="M5916.97 9106.87c0,0 20.19,289.47 -74.45,396.3 -94.64,106.84 -481.31,99.85 -481.31,99.85 0,0 400.31,-35.83 489.81,97.77 89.5,133.59 62.71,324.53 67.36,477.6 4.66,153.06 -15.82,-388.07 72.38,-484.86 88.2,-96.8 296.83,-99.89 296.83,-99.89 0,0 -190.38,30.89 -288.37,-96.94 -97.99,-127.84 -82.24,-389.83 -82.24,-389.83z"/>
  <path fill="black" fill-opacity="0.101961" d="M5093.88 9110.34c0,0 20.19,289.47 -74.45,396.3 -94.64,106.84 -481.31,99.85 -481.31,99.85 0,0 400.31,-35.83 489.81,97.77 89.49,133.6 62.71,324.54 67.36,477.6 4.65,153.06 -15.82,-388.07 72.38,-484.86 88.2,-96.8 296.82,-99.89 296.82,-99.89 0,0 -190.37,30.89 -288.36,-96.94 -97.99,-127.83 -82.24,-389.83 -82.24,-389.83z"/>
  <path fill="black" fill-opacity="0.101961" d="M5084.58 2155.68c0,0 19.11,285.85 -70.52,391.34 -89.63,105.5 -455.85,98.6 -455.85,98.6 0,0 379.13,-35.39 463.89,96.54 84.77,131.92 59.4,320.47 63.81,471.62 4.41,151.15 -14.98,-383.21 68.55,-478.79 83.53,-95.59 281.12,-98.64 281.12,-98.64 0,0 -180.3,30.51 -273.11,-95.72 -92.81,-126.24 -77.89,-384.95 -77.89,-384.95z"/>
  <path fill="black" fill-opacity="0.101961" d="M5832.02 2158.6c0,0 -19.12,285.85 70.51,391.34 89.63,105.5 455.85,98.6 455.85,98.6 0,0 -379.13,-35.39 -463.89,96.54 -84.76,131.93 -59.4,320.47 -63.81,471.62 -4.41,151.15 14.98,-383.21 -68.54,-478.79 -83.53,-95.59 -281.13,-98.64 -281.13,-98.64 0,0 180.31,30.51 273.11,-95.72 92.82,-126.24 77.9,-384.95 77.9,-384.95z"/>
  <path fill="black" fill-opacity="0.101961" d="M6738.58 8066.27c31.88,-542.53 202.8,-662 390.7,-671.8 388.2,-20.27 1353.88,-6.64 1457.49,27.76 198.5,70.21 348.35,155.3 379.83,674.52 14.29,235.66 52.2,896.81 52.2,896.81 0,0 43.33,-730.99 52.14,-895.03 43,-799.88 401.05,-710.77 956.01,-685.83 311.14,13.97 780.51,-96.54 1052,113.84 193.87,150.26 211.39,326.6 238.26,761.58 39.41,637.69 24.96,990.39 27.61,650.15 4.76,-613.61 9.52,-1227.23 14.29,-1840.85 -2.2,-121.6 19.07,-312.69 -3.44,-414.05 -12.54,-56.52 -30.16,-61.6 -82,-48.8 -5.83,1.45 27.12,114.64 29.99,205.44 4.55,143.22 11.12,325.32 6.19,334.56 -26.09,48.99 -56.66,99.69 -127.81,112.25 -150.04,46.38 -358.85,67.37 -589.86,75.9 -19.8,0.73 -50.69,-31.1 -70.76,-30.54 -23.4,0.64 -36.12,33.69 -59.87,34.11 -188.75,3.46 -387.27,0.62 -577.24,-2.08 -142.26,-2.01 -253.58,-17.04 -381.05,-20.9 -147.05,-4.46 -252.54,-63.5 -402.19,-151.66 -53.24,-3.63 -87.97,-328.21 -24.21,-557.09 -56.82,-6.69 -103.47,13.11 -139.23,-0.06 5.35,54.44 35.09,125.2 35.39,200.15 0.41,102.61 -3.24,213.14 -9.27,300.61 -5.85,84.5 -85.99,140.05 -188.05,158.95 -128.46,15.43 -321.93,45.01 -485.72,54.95 -25.21,1.54 -20.23,-31.81 -45.85,-30.45 -23.47,1.24 -38.26,21.02 -62,22.12 -227.75,10.71 -464.73,14.81 -671.45,9.42 -19.16,-0.49 -56.21,-19.93 -69.2,-19.97 -46.18,-0.17 -42.09,20.64 -103.86,16.73 -254.61,-16.14 -484.09,-80.5 -571.32,-150.97 -41.56,-59.28 -41.56,-59.28 -50.91,-120.29 -7.15,-27.7 -7.03,-259.71 -17.13,-363.44 -9.33,-95.91 -63.2,-77.01 -63.59,-70.38 -4.43,71.87 14.65,442.15 -0.17,493.59 -14.74,51.13 -30.18,101.36 -48.16,109.87 -126.97,60.1 -332.4,112.76 -582.53,110.39 -24.44,-0.23 -43.66,-28.56 -70.08,-29.74 -25.48,-1.14 -3.95,18.36 -31.41,16.25 -228.93,17.96 -490.66,6.59 -742.89,12.48 -23.72,0.54 -41.49,-23.49 -64.97,-23.3 -25.61,0.22 -56.96,24.67 -82.18,24.39 -236.14,-2.78 -452.56,-31.33 -605.67,-135.21 -38.37,-41.81 -62.76,-75.85 -71.97,-135.6 -1.16,-7.57 -23.51,-241.75 -8.78,-402.88 0,0 -31.12,9.39 -35.03,5.14 -0.35,74.36 -1.64,540.86 -1.99,615.22 1.55,573.4 3.1,1146.81 4.65,1720.21 66.94,-377.33 41.1,-1238.15 327.75,-1435.56 470.03,-323.69 1334.67,-200.14 1721.27,-105.43 180.33,44.17 291.19,1085.13 344.06,1511.77 24.49,-615.85 20.88,-397.17 52.01,-927.29z"/>
  <path fill="black" fill-opacity="0.101961" d="M9707.35 2144.71c0,0 19.12,285.85 -70.51,391.34 -89.63,105.5 -455.85,98.6 -455.85,98.6 0,0 379.13,-35.39 463.89,96.54 84.76,131.92 59.39,320.47 63.8,471.62 4.41,151.15 -14.97,-383.21 68.55,-478.79 83.53,-95.59 281.13,-98.64 281.13,-98.64 0,0 -180.31,30.51 -273.11,-95.73 -92.82,-126.23 -77.9,-384.94 -77.9,-384.94z"/>
  <path fill="black" fill-opacity="0.101961" d="M10459.75 2147.64c0,0 -19.11,285.85 70.52,391.34 89.63,105.5 455.85,98.6 455.85,98.6 0,0 -379.13,-35.39 -463.89,96.54 -84.76,131.92 -59.4,320.47 -63.81,471.62 -4.41,151.15 14.98,-383.21 -68.55,-478.79 -83.52,-95.59 -281.12,-98.64 -281.12,-98.64 0,0 180.31,30.51 273.11,-95.72 92.82,-126.24 77.89,-384.95 77.89,-384.95z"/>
  <path fill="black" fill-opacity="0.101961" d="M5089.26 7559.26c0,0 20.18,289.47 -74.46,396.3 -94.64,106.84 -481.31,99.85 -481.31,99.85 0,0 400.31,-35.84 489.81,97.76 89.5,133.6 62.72,324.54 67.37,477.61 4.65,153.06 -15.82,-388.07 72.38,-484.87 88.19,-96.79 296.82,-99.88 296.82,-99.88 0,0 -190.37,30.89 -288.36,-96.94 -98,-127.84 -82.24,-389.83 -82.24,-389.83z"/>
  <path fill="black" fill-opacity="0.101961" d="M5922.45 7553.24c0,0 -20.19,289.47 74.45,396.31 94.64,106.83 481.31,99.85 481.31,99.85 0,0 -400.31,-35.84 -489.81,97.76 -89.49,133.6 -62.71,324.54 -67.36,477.6 -4.66,153.07 15.82,-388.07 -72.38,-484.86 -88.2,-96.79 -296.83,-99.89 -296.83,-99.89 0,0 190.38,30.9 288.37,-96.94 97.99,-127.83 82.24,-389.83 82.24,-389.83z"/>
  <path fill="black" fill-opacity="0.101961" d="M3561.4 4009.69c2832.52,0 5665.03,0 8497.55,0 -12.95,49.17 -61.43,74.93 -61.43,74.93 -2789.16,0 -5578.31,0 -8367.48,0 0,4.86 -57.8,-35.86 -68.64,-74.93z"/>
  <path fill="black" fill-opacity="0.101961" d="M4656.17 1920.97c363.82,43.45 476.14,128.34 767.26,132.98 310.3,4.94 398.7,-66.48 881.37,-142.55 -271.41,6.01 -536.97,21.31 -808.38,27.33l-840.25 -17.76z"/>
  <path fill="black" fill-opacity="0.101961" d="M6957.33 1910c363.83,43.45 476.15,128.34 767.27,132.98 310.29,4.94 398.69,-66.48 881.37,-142.55 -271.42,6.01 -536.98,21.31 -808.39,27.33l-840.25 -17.76z"/>
  <path fill="black" fill-opacity="0.101961" d="M9255.39 1910c363.82,43.45 476.15,128.34 767.27,132.98 310.29,4.94 398.69,-66.48 881.36,-142.55 -271.41,6.01 -536.97,21.31 -808.38,27.33l-840.25 -17.76z"/>
  <path fill="black" fill-opacity="0.101961" d="M4656.17 3278.53c390.66,-41.03 540.25,-100.73 831.38,-104.3 310.3,-3.81 356.56,60.35 817.26,111.67 -271.41,-4.63 -547.04,11.15 -818.45,6.52l-830.18 -13.89z"/>
  <path fill="black" fill-opacity="0.101961" d="M9011.19 3271.12c628.14,-98.08 700.77,-89.16 1083.39,-95.83 407.8,-7.14 539.63,-3.33 1083.38,99.89 -356.71,-8.66 -714.55,19.62 -1071.27,10.93l-1095.51 -14.99z"/>
  <path fill="black" fill-opacity="0.101961" d="M6848.99 3282.62c426.62,-41.03 589.97,-100.73 907.88,-104.31 338.84,-3.81 389.36,60.35 892.44,111.68 -296.38,-4.63 -597.36,11.15 -893.76,6.52l-906.56 -13.89z"/>
  <path fill="black" fill-opacity="0.101961" d="M9283.9 3296.09c390.67,-41.03 540.26,-100.73 831.39,-104.31 310.3,-3.81 356.55,60.35 817.26,111.68 -271.42,-4.63 -547.04,11.15 -818.45,6.52l-830.19 -13.89z"/>
  <polygon fill="black" fill-opacity="0.101961" points="8896.6,3312.82 8960.41,3349.88 9019.56,3312.82 9024.07,3891.76 8897.73,3891.76 "/>
  <polygon fill="black" fill-opacity="0.101961" points="11345.56,3349.69 11318.98,3313.3 11261.28,3305.29 11253.19,3891.75 11347.29,3891.75 "/>
  <path fill="black" fill-opacity="0.101961" d="M6655.28 3302.7l64.07 -0.59 69.79 0.06 133.58 707.52c-188.18,0.08 -166.71,0 -223.31,0.01 -0.1,-34.04 -14.7,-117.94 -40.25,-117.94 21.36,-192.61 20.21,-386.81 -3.88,-589.06z"/>
  <polygon fill="black" fill-opacity="0.101961" points="13175.63,2697.04 14580.85,2697.04 14580.85,2776.41 13241.18,2776.41 13175.58,2812.4 "/>
  <path fill="black" fill-opacity="0.101961" d="M13176.35 4020.6c1794.39,0 3636.99,0 5431.38,0 -8.2,48.76 -77.88,74.3 -77.88,74.3 -1766.93,0 -3483.67,5.28 -5250.6,5.28 0,4.83 -85.13,-13.6 -102.9,-79.58z"/>
 </g>
 <g id="Схема">
  <metadata id="CorelCorpID_1Corel-Layer"/>
  <g id="_2274241107456">
   <path fill="none" stroke="black" stroke-width="10.57" stroke-miterlimit="22.9256" d="M6569.87 6641.02l64.81 0.94c34.98,0.49 63.59,31.69 63.59,70.38l0 4702.9c0,38.66 -28.66,70.38 -63.59,70.38l-2967.58 0c-34.74,0 -63.09,-43.48 -63.09,-82.19l0 -1484.89"/>
   <rect fill="none" stroke="black" stroke-width="10.57" stroke-miterlimit="22.9256" x="9012.94" y="6634.58" width="2342.75" height="2403.86" rx="19.31" ry="50.08"/>
   <path fill="none" stroke="black" stroke-width="10.57" stroke-miterlimit="22.9256" d="M11317.79 7020.53c-3.71,51.63 12.56,179.72 -82.35,240.62 -108.32,69.51 -401.78,93.23 -666.23,101.31 -16.15,0.48 -30.51,-30.83 -45.84,-30.47 -15.58,0.35 -32.15,32.43 -47.12,32.7 -104.23,1.83 -182.19,1.36 -300.82,2.37 -107.22,0.91 -228.27,-2.23 -342.85,-3.52 -23.82,-0.26 -43.97,-28.46 -68.53,-28.5 -17.26,-0.05 -38.43,27.64 -55.37,27.1 -42.95,-1.36 -84.83,-4.32 -125.29,-8.5 -184.31,-19.12 -324.99,-64.74 -419.4,-110.25 -94.27,-45.43 -123.38,-171.85 -115.24,-220.23"/>
   <rect fill="none" stroke="black" stroke-width="10.57" stroke-miterlimit="22.9256" x="6698.26" y="6634.52" width="2314.85" height="2403.91" rx="19.08" ry="50.08"/>
   <path fill="none" stroke="black" stroke-width="10.57" stroke-miterlimit="22.9256" d="M11371.1 6018.81c-23.37,-84.6 -450.31,-82.31 -1070.41,-74.46 -533.97,6.77 -4534.93,-1.9 -4841.28,-1.9 -759.85,0 -1168.42,-4.81 -1201.74,94.98"/>
   <path fill="none" stroke="black" stroke-width="10.57" stroke-miterlimit="22.9256" d="M8973.92 7036.67c-3.71,51.64 6.07,150.32 -88.84,211.21 -108.33,69.51 -330.66,93.26 -595.1,101.3 -16.14,0.49 -30.52,-30.8 -45.85,-30.46 -15.57,0.35 -32.16,32.44 -47.11,32.7 -104.24,1.81 -253.34,1.39 -371.95,2.37 -107.2,0.89 -199.83,-2.25 -314.4,-3.5 -23.81,-0.26 -43.98,-28.49 -68.53,-28.53 -17.26,-0.01 -38.44,27.64 -55.37,27.12 -42.95,-1.34 -113.31,-4.32 -153.75,-8.5 -184.3,-19.1 -325,-64.76 -419.41,-110.25 -94.26,-45.43 -123.37,-171.86 -115.23,-220.24"/>
   <path fill="none" stroke="black" stroke-width="10.57" stroke-miterlimit="22.9256" d="M6787.41 6632.6l2103.34 0c41.23,0 73.01,46.89 74.96,103.93l9.37 273.37c1.96,57.05 -33.78,101.32 -74.97,103.93 -379.79,29.56 -691.89,29.82 -1105.93,37.38 -403.9,7.38 -649.86,-8.05 -1020.83,-37.38 -41.19,-2.61 -77.91,-46.91 -74.97,-103.93l14.05 -273.37c2.94,-57.02 33.74,-103.93 74.97,-103.93z"/>
   <path fill="none" stroke="black" stroke-width="10.57" stroke-miterlimit="22.9256" d="M11228.79 6634.57l-2103.33 0c-41.23,0 -73.02,47.97 -74.97,106.32l-9.37 279.62c-1.96,58.37 33.79,103.65 74.97,106.32 379.8,30.24 691.89,30.5 1105.93,38.24 403.9,7.55 649.86,-8.24 1020.83,-38.24 41.19,-2.67 77.91,-47.98 74.97,-106.32l-14.05 -279.62c-2.94,-58.33 -33.74,-106.32 -74.97,-106.32z"/>
   <polyline fill="none" stroke="black" stroke-width="10.57" stroke-miterlimit="22.9256" stroke-dasharray="52.864103 52.864103" points="6698.39,11367.63 6698.25,11478.24 11353.19,11478.24 11356.76,8944.91 "/>
   <polyline fill="none" stroke="black" stroke-width="10.57" stroke-miterlimit="22.9256" points="7442.4,9038.43 7441.48,7330.31 7441.39,7152.23 "/>
   <line fill="none" stroke="black" stroke-width="10.57" stroke-miterlimit="22.9256" x1="8231.7" y1="9038.43" x2="8230.68" y2= "7152.23" />
   <line fill="none" stroke="black" stroke-width="10.57" stroke-miterlimit="22.9256" x1="9761.52" y1="9031.02" x2="9760.5" y2= "7156.92" />
   <line fill="none" stroke="black" stroke-width="10.57" stroke-miterlimit="22.9256" x1="10522.36" y1="9031.02" x2="10521.35" y2= "7166.25" />
   <path fill="none" stroke="black" stroke-width="10.57" stroke-miterlimit="22.9256" d="M6657.85 7044.02c-2.19,29.56 0.17,74.52 -15.72,118.98 -11.87,33.24 -33.94,66.21 -75.7,92.23 -111.45,69.5 -313.44,93.28 -585.53,101.31 -16.6,0.48 -31.42,-30.79 -47.18,-30.46 -16.01,0.33 -47.34,32.44 -62.7,32.69 -107.26,1.79 -273.26,1.42 -395.29,2.37 -110.29,0.87 -206.05,-2.26 -323.93,-3.5 -24.49,-0.26 -45.26,-28.51 -70.52,-28.52 -17.75,-0.02 -39.56,27.63 -56.97,27.11 -44.2,-1.32 -144.22,-4.33 -185.82,-8.5 -189.63,-19.09 -306.36,-64.75 -403.5,-110.25 -96.98,-45.43 -126.93,-171.86 -118.58,-220.24"/>
   <path fill="none" stroke="black" stroke-width="10.57" stroke-miterlimit="22.9256" d="M4408.02 6639.94l2164.25 0c42.43,0 75.13,46.89 77.14,103.94l9.64 273.36c2.02,57.06 -34.76,101.32 -77.14,103.93 -390.79,29.56 -711.93,29.82 -1137.97,37.38 -415.59,7.38 -668.68,-8.05 -1050.39,-37.38 -42.38,-2.61 -80.17,-46.91 -77.14,-103.93l14.46 -273.36c3.02,-57.03 34.71,-103.94 77.14,-103.94z"/>
   <line fill="none" stroke="black" stroke-width="10.57" stroke-miterlimit="22.9256" x1="4292.26" y1="8040.82" x2="11344.09" y2= "8039.4" />
   <line fill="none" stroke="black" stroke-width="10.57" stroke-miterlimit="22.9256" x1="5095.46" y1="11485.61" x2="5094.41" y2= "7159.58" />
   <line fill="none" stroke="black" stroke-width="10.57" stroke-miterlimit="22.9256" x1="5921.02" y1="11441.78" x2="5919.98" y2= "7159.58" />
   <line fill="none" stroke="black" stroke-width="10.57" stroke-miterlimit="22.9256" x1="4278.01" y1="9600.61" x2="6698.27" y2= "9599.23" />
   <path fill="none" stroke="black" stroke-width="10.57" stroke-miterlimit="22.9256" d="M4229.67 9933.75c53.72,-36.62 64.46,-223.63 64.46,-653.24 0,-173.18 -8.18,-2435.04 -1.78,-2736.9 7.37,-350.58 -4.26,-541.16 -65.64,-573.69 -60.84,-44.39 -548.45,-40.26 -602.3,-2.22 -61.91,29.86 -77.91,247.1 -70.51,595.83 6.38,300.34 -1.77,2550.51 -1.77,2722.81 0,427.33 10.73,613.43 64.91,647.74 55.29,39.19 563.22,30.03 612.63,-0.33z"/>
   <path fill="none" stroke="black" stroke-width="10.57" stroke-miterlimit="22.9256" d="M11419.48 9051.19c-53.71,-28.53 -64.46,-174.23 -64.46,-508.95 0,-134.93 8.18,-1897.21 1.78,-2132.4 -7.36,-273.15 4.26,-421.64 65.65,-446.99 60.84,-34.59 548.44,-31.37 602.3,-1.73 61.91,23.26 77.91,192.53 70.51,464.23 -6.39,233.99 1.76,1987.18 1.76,2121.42 0,332.95 -10.72,477.95 -64.91,504.68 -55.29,30.54 -563.22,23.39 -612.63,-0.26z"/>
  </g>
  <g id="_2274241112160">
   <path fill="none" stroke="black" stroke-width="10.57" stroke-miterlimit="22.9256" d="M13175.46 2856.09c0.77,-233.91 -1.04,-468.43 -3.85,-525.64 -7.82,-157.97 -8.27,-260.02 75.66,-265.96l572.19 -7.58c83.73,6.85 81.46,114.41 73.65,275.99 -2.73,56.65 -2.92,213.31 -2.2,443.52"/>
   <path fill="none" stroke="black" stroke-width="10.57" stroke-miterlimit="22.9256" d="M13982.33 2773.7l-28.16 -730.53c-2.47,-64.72 -15.51,-129.73 76.83,-133.56l272.57 -11.34c146.28,-6.02 124.64,427.53 134.72,539.93 -0.61,42.8 11.37,210.82 1.66,335.5l-457.62 0z"/>
   <path fill="none" stroke="black" stroke-width="10.57" stroke-miterlimit="22.9256" d="M13988.84 1918.06c-73.86,25.4 -93.69,135.54 -96.12,232.17"/>
   <path fill="none" stroke="black" stroke-width="10.57" stroke-miterlimit="22.9256" d="M14303.57 1898.27c196.26,0 273.6,350.89 281.24,493.32 8.42,157.63 -2.1,328.22 -3.96,384.83"/>
   <path fill="none" stroke="black" stroke-width="10.57" stroke-miterlimit="22.9256" d="M13174.14 3820.09l0 -964.9c0,-31.5 16.94,-58.84 41.7,-72.38 10.59,-5.82 22.7,-9.09 35.49,-9.09l3662.99 0c42.58,0 77.16,36.49 77.16,81.47l0.02 964.9c-0.02,44.99 -34.6,81.47 -77.21,81.47l-3662.96 0c-42.63,0 -77.19,-36.49 -77.19,-81.47z"/>
   <line fill="none" stroke="black" stroke-width="10.57" stroke-miterlimit="22.9256" x1="13169.76" y1="3374.38" x2="16994.25" y2= "3373.25" />
   <line fill="none" stroke="black" stroke-width="10.57" stroke-miterlimit="22.9256" x1="14479.09" y1="3906.83" x2="14477.69" y2= "2785.92" />
   <line fill="none" stroke="black" stroke-width="10.57" stroke-miterlimit="22.9256" x1="15727.53" y1="3904.29" x2="15726.13" y2= "2785.92" />
   <path fill="none" stroke="black" stroke-width="10.57" stroke-miterlimit="22.9256" d="M16213.9 4277.18c-90.07,0 -104.55,0 -178.36,2.42 37.7,110.09 55.95,193.98 63.73,371.08l114.63 2.51 0 -376z"/>
   <path fill="none" stroke="black" stroke-width="10.57" stroke-miterlimit="22.9256" d="M13298.92 4101.65l175.58 0c0,66.94 2.81,107.24 2.81,174.17 -37.7,110.09 -55.96,193.98 -63.76,371.08l-114.63 2.51 0 -547.76z"/>
   <path fill="none" stroke="black" stroke-width="10.57" stroke-miterlimit="22.9256" d="M18173.39 3906.84l331.44 0c139.19,0 139.14,193.34 0,193.34l-331.44 0 -4894.12 0c-139.13,0 -139.2,-193.34 0,-193.34l4894.12 0z"/>
   <rect fill="none" stroke="black" stroke-width="10.57" stroke-miterlimit="22.9256" x="13475.99" y="4105.94" width="4874.87" height="171.25"/>
   <path fill="none" stroke="black" stroke-width="10.57" stroke-miterlimit="22.9256" d="M18527.96 4109.79l-175.56 0c0,66.92 -2.8,107.23 -2.8,174.17 37.7,110.09 55.96,193.99 63.73,371.09l114.63 2.5 0 -547.76z"/>
   <path fill="none" stroke="black" stroke-width="10.57" stroke-miterlimit="22.9256" d="M18519.49 3260.2c40.78,0.11 61.03,20.97 72.23,80.43 13.7,166.81 13.69,310.78 0,466.18 -6.85,63.17 -38.91,98.23 -99.46,100.03 -75.84,2.11 -1444.25,-0.07 -1561.33,0 51.34,-16.78 62.62,-59.05 62.95,-101.91 0.78,-103.96 -2.39,-369.24 -2.39,-558.91 493.36,-32.08 1007.26,-1.65 1528,14.18"/>
  </g>
  <g id="_2274241117488">
   <path fill="none" stroke="black" stroke-width="10.57" stroke-miterlimit="22.9256" d="M6578.29 3302.07c732.71,0 1514.41,3.78 2247.12,3.78 73.62,0 70.11,-6.68 136.36,37.27 45.89,-32.26 71.22,-37.27 122.69,-37.27l2211.79 0c26.04,0 47.35,29.33 47.35,65.11l0 455.7c0,35.81 -21.32,65.11 -47.35,65.11l-4654.72 0"/>
   <path fill="none" stroke="black" stroke-width="10.57" stroke-miterlimit="22.9256" d="M3658.81 3895.03l2959.97 0c44.36,0 80.64,36.28 80.64,80.64l0 34.04c0,44.36 -36.28,80.64 -80.64,80.64l-2959.97 0c-44.36,0 -80.64,-36.28 -80.64,-80.64l0 -34.04c0,-44.36 36.28,-80.64 80.64,-80.64z"/>
   <rect fill="none" stroke="black" stroke-width="10.57" stroke-miterlimit="22.9256" x="3862.78" y="4089.29" width="2601.6" height="179.03"/>
   <path fill="none" stroke="black" stroke-width="10.57" stroke-miterlimit="22.9256" d="M4281.69 3291.24l0 -1179.06c-1.67,-61.3 29.8,-86.36 71.07,-95.6m6899.61 -2.25c66.73,11.56 95.33,56.03 88.84,111.98l4.85 1353.05"/>
   <path fill="none" stroke="black" stroke-width="10.57" stroke-miterlimit="22.9256" d="M4463.28 1909.64c339.48,0 641.15,19.31 980.63,19.31 344.08,0 725.97,-19.31 1070.03,-19.31 62.66,0 113.93,13.25 113.93,99.19 0,148.35 -20.63,443.32 -20.63,591.67 0,208.07 20.63,355.08 20.63,563.15 0,85.93 -51.28,127.73 -113.93,127.73 -362.4,0 -724.81,-51.85 -1087.22,-51.85 -300.68,0 -601.37,45.45 -902.06,51.25 -20.47,0.39 -40.92,0.61 -61.39,0.61 -62.67,0 -113.93,-13.28 -113.93,-99.21 0,-179.79 15.38,-393.47 15.38,-573.25 0,-176.64 -15.38,-433.46 -15.38,-610.09 0,-85.94 51.27,-99.19 113.93,-99.19z"/>
   <line fill="none" stroke="black" stroke-width="10.57" stroke-miterlimit="22.9256" x1="8963.85" y1="3893.63" x2="8963.77" y2= "3343.12" />
   <path fill="none" stroke="black" stroke-width="10.57" stroke-miterlimit="22.9256" d="M3681.84 4089.47l177.35 0c0,67.61 2.84,108.31 2.84,175.94 -38.08,111.19 -56.04,199.41 -63.9,378.3l-116.29 -0.94 0 -553.3z"/>
   <line fill="none" stroke="black" stroke-width="10.57" stroke-miterlimit="22.9256" x1="4364.73" y1="2635.97" x2="6610.33" y2= "2634.58" />
   <line fill="none" stroke="black" stroke-width="10.57" stroke-miterlimit="22.9256" x1="5087.85" y1="3255.32" x2="5086.86" y2= "1916.54" />
   <line fill="none" stroke="black" stroke-width="10.57" stroke-miterlimit="22.9256" x1="5829.31" y1="3252.65" x2="5828.32" y2= "1916.54" />
   <path fill="none" stroke="black" stroke-width="10.57" stroke-miterlimit="22.9256" d="M11979.68 4087.35l-177.36 0c0,67.61 -2.83,108.32 -2.83,175.94 38.08,111.19 56.52,195.95 64.38,374.84l115.81 2.53 0 -553.3z"/>
   <path fill="none" stroke="black" stroke-width="10.57" stroke-miterlimit="22.9256" d="M6778.7 1898.68c339.49,0 641.15,19.31 980.64,19.31 344.07,0 725.96,-19.31 1070.02,-19.31 62.67,0 113.93,27.51 113.93,113.45 0,148.35 -20.63,429.06 -20.63,577.41 0,208.07 20.63,340.83 20.63,548.89 0,85.94 -51.27,141.99 -113.93,141.99 -362.4,0 -724.81,-51.85 -1087.21,-51.85 -300.69,0 -601.38,45.45 -902.07,51.25 -20.46,0.39 -40.92,0.61 -61.39,0.61 -62.67,0 -113.93,-41.8 -113.93,-127.73 0,-179.78 15.39,-336.44 15.39,-516.22 0,-176.64 -15.39,-433.44 -15.39,-610.08 0,-85.94 51.27,-127.71 113.93,-127.71z"/>
   <line fill="none" stroke="black" stroke-width="10.57" stroke-miterlimit="22.9256" x1="6680.15" y1="2625.01" x2="8925.76" y2= "2623.61" />
   <line fill="none" stroke="black" stroke-width="10.57" stroke-miterlimit="22.9256" x1="7421.45" y1="3241.98" x2="7420.46" y2= "1905.58" />
   <line fill="none" stroke="black" stroke-width="10.57" stroke-miterlimit="22.9256" x1="8130.48" y1="3241.69" x2="8129.48" y2= "1905.58" />
   <path fill="none" stroke="black" stroke-width="10.57" stroke-miterlimit="22.9256" d="M9091.02 1898.68c339.48,0 641.15,19.31 980.63,19.31 344.08,0 725.97,-19.31 1070.03,-19.31 62.66,0 113.93,13.25 113.93,99.19 0,148.35 -20.63,443.32 -20.63,591.67 0,208.07 20.63,383.6 20.63,591.67 0,85.93 -51.28,99.21 -113.93,99.21 -362.4,0 -710.56,-51.85 -1072.96,-51.85 -300.69,0 -615.63,45.46 -916.32,51.25 -20.46,0.39 -40.93,0.61 -61.39,0.61 -62.67,0 -113.93,-27.54 -113.93,-113.47 0,-179.79 15.38,-379.21 15.38,-559 0,-176.63 -15.38,-433.45 -15.38,-610.08 0,-85.94 51.27,-99.19 113.93,-99.19z"/>
   <line fill="none" stroke="black" stroke-width="10.57" stroke-miterlimit="22.9256" x1="8992.46" y1="2639.27" x2="11238.07" y2= "2637.87" />
   <line fill="none" stroke="black" stroke-width="10.57" stroke-miterlimit="22.9256" x1="9701.32" y1="3244.36" x2="9700.33" y2= "1905.58" />
   <line fill="none" stroke="black" stroke-width="10.57" stroke-miterlimit="22.9256" x1="10457.05" y1="3241.69" x2="10456.06" y2= "1905.58" />
   <path fill="none" stroke="black" stroke-width="10.57" stroke-miterlimit="22.9256" d="M6623.52 3303.34c-1001.33,-28.56 -2013.9,-22.6 -2964,0 -25,0.59 -62.56,9.09 -71.18,59.82 -34.31,201.43 -26.12,328.64 0,480.8 4.21,24.58 20.49,45.56 45.55,45.56 982.28,0 2007.35,0 2989.63,0 25.07,0 42.72,-20.73 45.56,-45.56 22.45,-195.52 11.03,-321.42 0,-495.06 -1.58,-24.92 -20.52,-45.56 -45.56,-45.56"/>
   <path fill="none" stroke="black" stroke-width="10.57" stroke-miterlimit="22.9256" d="M6643.49 4093.02l-177.36 0c0,67.6 -2.83,108.32 -2.83,175.93 38.08,111.2 56.53,195.95 64.38,374.85l115.81 -0.9 0 -549.88z"/>
   <path fill="none" stroke="black" stroke-width="10.57" stroke-miterlimit="22.9256" d="M4278.42 3291.28c-1.05,-163.22 -1.14,-308.7 1.99,-348.17 7.84,-99.84 -4.52,-154.14 -69.89,-163.31l-561.59 -1.35c-65.33,9.11 -74.36,41.44 -74.48,170.32 2.29,89.43 0.74,302.17 -1.38,507.84"/>
   <path fill="none" stroke="black" stroke-width="10.57" stroke-miterlimit="22.9256" d="M11990.94 3894.78c57.41,-10.13 68.82,-63.4 68.82,-185.73 0,-49.37 -8.69,-693.54 -1.89,-779.51 7.84,-99.84 -4.51,-154.15 -69.88,-163.31l-561.6 -1.35c-65.33,9.11 -82.37,71 -74.48,170.32 6.79,85.55 -1.89,726.43 -1.89,775.47 0,121.73 11.43,174.74 68.8,184.77l572.11 -0.67z"/>
   <path fill="none" stroke="black" stroke-width="10.57" stroke-miterlimit="22.9256" d="M3658.81 3895.03l8319.06 -1.04c44.36,0 80.64,36.31 80.64,80.64l0 34.04c0,44.33 -36.31,80.64 -80.64,80.64l-8319.06 1.04c-44.33,0 -80.64,-36.28 -80.64,-80.64l0 -34.04c0,-44.36 36.28,-80.64 80.64,-80.64z"/>
   <line fill="none" stroke="black" stroke-width="10.57" stroke-miterlimit="22.9256" x1="8943.25" y1="2026.13" x2="8983.55" y2= "2024.74" />
   <line fill="none" stroke="black" stroke-width="10.57" stroke-miterlimit="22.9256" x1="6626" y1="2024.42" x2="6672.75" y2= "2024.74" />
   <path fill="none" stroke="black" stroke-width="10.57" stroke-miterlimit="22.9256" d="M6648.48 4093.02l177.35 0c0,67.6 2.84,108.32 2.84,175.93 -38.08,111.2 -56.53,195.95 -64.38,374.85l-115.81 -0.9 0 -549.88z"/>
   <rect fill="none" stroke="black" stroke-width="10.57" stroke-miterlimit="22.9256" x="6827.71" y="4089.29" width="4972.87" height="179.03"/>
  </g>
 </g>
 <g id="Выносный_x0020_линии">
  <metadata id="CorelCorpID_2Corel-Layer"/>
  <g id="_2274241119648">
   <line fill="none" stroke="gray" stroke-width="10.57" stroke-miterlimit="22.9256" x1="2607.89" y1="4644.58" x2="3340.33" y2= "4644.58" />
   <line fill="none" stroke="gray" stroke-width="10.57" stroke-miterlimit="22.9256" x1="2606.1" y1="1903.12" x2="3340.33" y2= "1903.12" />
   <line fill="none" stroke="gray" stroke-width="10.57" stroke-miterlimit="22.9256" x1="2883.14" y1="4917.67" x2="2883.14" y2= "1665.2" />
  </g>
  <g id="_2274241119936">
   <line fill="none" stroke="gray" stroke-width="10.57" stroke-miterlimit="22.9256" x1="11397.98" y1="12675.13" x2="11397.98" y2= "11942.69" />
   <line fill="none" stroke="gray" stroke-width="10.57" stroke-miterlimit="22.9256" x1="3610.72" y1="12676.92" x2="3610.72" y2= "11942.69" />
   <line fill="none" stroke="gray" stroke-width="10.57" stroke-miterlimit="22.9256" x1="11649.88" y1="12399.88" x2="3335.47" y2= "12399.88" />
  </g>
  <g id="_2274241119744">
   <line fill="none" stroke="gray" stroke-width="10.57" stroke-miterlimit="22.9256" x1="2606.1" y1="6000.04" x2="3340.33" y2= "6000.04" />
   <line fill="none" stroke="gray" stroke-width="10.57" stroke-miterlimit="22.9256" x1="2607.89" y1="11513.39" x2="3340.33" y2= "11513.39" />
   <line fill="none" stroke="gray" stroke-width="10.57" stroke-miterlimit="22.9256" x1="2883.14" y1="11745.39" x2="2883.14" y2= "5762.12" />
  </g>
 </g>
 <g id="Текст">
  <metadata id="CorelCorpID_3Corel-Layer"/>
  <path fill="#666666" fill-rule="nonzero" fill-opacity="0.800000" d="M2405.41 3885.11l10.97 0c4.66,-13.64 14.38,-26.11 29.18,-37.41 14.8,-11.31 32.85,-16.96 54.13,-16.96 29.27,0 53.54,11.55 72.84,34.67 19.29,23.11 28.93,53.63 28.93,91.55 0,37.91 -9.64,68.42 -28.93,91.54 -19.3,23.12 -43.57,34.68 -72.84,34.68 -20.96,0 -38.91,-5.66 -53.88,-16.96 -14.96,-11.31 -24.77,-23.78 -29.43,-37.41l-10.97 0c-4.66,10.97 -13.47,21.04 -26.44,30.18 -12.97,9.14 -28.6,13.72 -46.9,13.72 -27.6,0 -50.06,-10.81 -67.34,-32.43 -17.3,-21.63 -25.94,-49.4 -25.94,-83.31 0,-33.93 8.64,-61.7 25.94,-83.31 17.29,-21.62 39.74,-32.43 67.34,-32.43 17.63,0 33.1,4.66 46.4,13.97 13.3,9.31 22.28,19.29 26.94,29.93zm-113.5 19.71c-10.14,13.8 -15.21,31.18 -15.21,52.13 0,20.96 5.07,38.32 15.21,52.13 10.14,13.8 24.2,20.7 42.16,20.7 17.96,0 32.09,-6.9 42.4,-20.7 10.31,-13.81 15.47,-31.18 15.47,-52.13 0,-20.96 -5.16,-38.33 -15.47,-52.13 -10.31,-13.8 -24.44,-20.71 -42.4,-20.71 -17.96,0 -32.02,6.91 -42.16,20.71zm252.44 112.74c12.14,-14.8 18.21,-35.01 18.21,-60.61 0,-25.61 -6.07,-45.82 -18.21,-60.62 -12.14,-14.8 -28.35,-22.19 -48.64,-22.19 -20.63,0 -36.76,7.32 -48.4,21.95 -11.64,14.64 -17.46,34.93 -17.46,60.87 0,25.94 5.82,46.23 17.46,60.86 11.64,14.64 27.77,21.96 48.4,21.96 20.29,0 36.5,-7.4 48.64,-22.2zm-25.19 -1285.36l0 -42.4c25.27,4.99 45.31,16.71 60.11,35.17 14.8,18.46 22.2,41.99 22.2,70.59 0,37.91 -12.39,67.76 -37.16,89.55 -24.78,21.79 -56.46,32.68 -95.04,32.68 -38.91,0 -70.68,-10.81 -95.29,-32.43 -24.61,-21.62 -36.92,-51.55 -36.92,-89.8 0,-28.93 7.24,-52.46 21.71,-70.59 14.47,-18.13 33.68,-29.35 57.62,-33.68l0 42.41c-28.27,8.97 -42.4,29.6 -42.4,61.86 0,26.94 8.89,46.98 26.68,60.12 17.8,13.13 40.33,19.71 67.6,19.71 27.6,0 50.56,-6.66 68.84,-19.96 18.3,-13.31 27.44,-33.26 27.44,-59.87 0,-35.26 -15.14,-56.37 -45.4,-63.36zm75.83 -105.77l-251.44 0 0 -67.34 114.74 -61.86 0 -10.98 -114.74 -61.86 0 -66.35 251.44 0 0 41.41 -202.04 0 0 10.97 107.76 58.37 0 46.9 -107.76 58.37 0 10.97 202.04 0 0 41.4zm-227.49 1015.22c0,-31.93 10.72,-58.53 32.18,-79.82 21.45,-21.29 48.64,-31.93 81.56,-31.93 34.26,0 62.86,10.72 85.8,32.18 22.95,21.46 34.43,50.31 34.43,86.55 0,39.58 -13.64,70.84 -40.91,93.8 -27.27,22.94 -70.84,34.42 -130.7,34.42 -56.21,0 -102.11,-11.22 -137.7,-33.67 -35.59,-22.45 -53.37,-55.46 -53.37,-99.03 0,-28.93 7.72,-52.63 23.19,-71.09 15.47,-18.46 35.51,-29.68 60.12,-33.68l0 43.41c-29.6,8.64 -44.4,29.1 -44.4,61.36 0,27.6 10.97,49.23 32.92,64.86 21.96,15.63 52.22,24.11 90.8,25.44l0 -10.97c-8.97,-7.33 -16.88,-18.05 -23.69,-32.18 -6.82,-14.14 -10.22,-30.69 -10.22,-49.65zm173.6 62.37c14.31,-14.64 21.46,-32.93 21.46,-54.88 0,-21.95 -6.99,-39.99 -20.96,-54.12 -13.96,-14.14 -33.42,-21.21 -58.37,-21.21 -24.94,0 -44.06,7.16 -57.37,21.46 -13.3,14.3 -19.95,32.59 -19.95,54.87 0,21.96 6.82,40.08 20.45,54.38 13.64,14.3 32.43,21.45 56.38,21.45 24.6,0 44.06,-7.32 58.36,-21.95zm53.88 -285.87l0 51.88 -57.87 0 0 -51.88 57.87 0zm-310.8 -86.8c-30.27,-23.28 -45.4,-54.38 -45.4,-93.3 0,-38.91 15.21,-70.09 45.65,-93.54 30.43,-23.44 75.74,-35.18 135.94,-35.18 60.2,0 105.43,11.73 135.7,35.18 30.27,23.44 45.4,54.62 45.4,93.54 0,38.91 -15.13,70.01 -45.4,93.3 -30.27,23.27 -75.5,34.92 -135.7,34.92 -60.53,0 -105.93,-11.64 -136.19,-34.92zm240.71 -29.94c25.11,-13.96 37.66,-35.09 37.66,-63.36 0,-28.27 -12.55,-49.47 -37.66,-63.61 -25.11,-14.13 -59.95,-21.2 -104.52,-21.2 -44.9,0 -79.91,7.07 -105.01,21.2 -25.11,14.14 -37.66,35.34 -37.66,63.61 0,28.27 12.55,49.4 37.66,63.36 25.1,13.97 60.11,20.96 105.01,20.96 44.57,0 79.41,-6.99 104.52,-20.96z"/>
  <path fill="#666666" fill-rule="nonzero" fill-opacity="0.800000" d="M2594.98 9720.02l-38.91 0 0 -82.81 -264.41 0 0 9.97 49.4 73.34 -45.9 0 -49.39 -72.84 0 -54.38 310.3 0 0 -76.33 38.91 0 0 203.05zm-300.33 -468.95l300.33 151.16 0 45.9 -300.33 -151.66 -10.97 0 0 177.1 -37.91 0 0 -222.5 48.89 0zm47.4 -96.78l0 43.9c-33.6,-2 -59.21,-13.72 -76.83,-35.17 -17.63,-21.46 -26.44,-48.48 -26.44,-81.07 0,-33.92 9.22,-61.28 27.68,-82.06 18.46,-20.79 44.65,-31.18 78.58,-31.18 41.24,0 83.31,25.77 126.21,77.33l73.84 87.8 10.97 0 0 -176.1 38.91 0 0 239.96 -49.39 0 -41.91 -51.39c-25.6,-31.93 -48.06,-58.37 -67.34,-79.32 -6.99,-7.98 -12.97,-14.39 -17.96,-19.21 -5,-4.83 -11.56,-10.31 -19.71,-16.47 -8.15,-6.15 -16.72,-10.8 -25.69,-13.97 -8.98,-3.16 -18.3,-4.74 -27.94,-4.74 -21.62,0 -38.24,6.32 -49.89,18.96 -11.64,12.64 -17.46,29.77 -17.46,51.39 0,20.29 5.4,36.67 16.21,49.14 10.81,12.48 26.86,19.88 48.15,22.2zm252.93 -310.31l0 51.88 -57.87 0 0 -51.88 57.87 0zm-310.8 -86.8c-30.27,-23.28 -45.4,-54.38 -45.4,-93.3 0,-38.91 15.21,-70.09 45.65,-93.54 30.43,-23.44 75.74,-35.18 135.94,-35.18 60.2,0 105.43,11.73 135.7,35.18 30.27,23.44 45.4,54.62 45.4,93.54 0,38.91 -15.13,70.01 -45.4,93.3 -30.27,23.27 -75.5,34.92 -135.7,34.92 -60.53,0 -105.93,-11.64 -136.19,-34.92zm240.71 -29.94c25.11,-13.96 37.66,-35.09 37.66,-63.36 0,-28.27 -12.55,-49.47 -37.66,-63.61 -25.11,-14.13 -59.95,-21.2 -104.52,-21.2 -44.9,0 -79.91,7.07 -105.01,21.2 -25.11,14.14 -37.66,35.34 -37.66,63.61 0,28.27 12.55,49.4 37.66,63.36 25.1,13.97 60.11,20.96 105.01,20.96 44.57,0 79.41,-6.99 104.52,-20.96zm-5.74 -569.21l0 -42.4c25.27,4.99 45.31,16.71 60.11,35.17 14.8,18.46 22.2,41.99 22.2,70.59 0,37.91 -12.39,67.76 -37.16,89.55 -24.78,21.79 -56.46,32.68 -95.04,32.68 -38.91,0 -70.68,-10.81 -95.29,-32.43 -24.61,-21.62 -36.92,-51.55 -36.92,-89.8 0,-28.93 7.24,-52.46 21.71,-70.59 14.47,-18.13 33.68,-29.35 57.62,-33.68l0 42.41c-28.27,8.97 -42.4,29.6 -42.4,61.86 0,26.94 8.89,46.98 26.68,60.12 17.8,13.13 40.33,19.71 67.6,19.71 27.6,0 50.56,-6.66 68.84,-19.96 18.3,-13.31 27.44,-33.26 27.44,-59.87 0,-35.26 -15.14,-56.37 -45.4,-63.36zm75.83 -105.77l-251.44 0 0 -67.34 114.74 -61.86 0 -10.98 -114.74 -61.86 0 -66.35 251.44 0 0 41.41 -202.04 0 0 10.97 107.76 58.37 0 46.9 -107.76 58.37 0 10.97 202.04 0 0 41.4z"/>
  <path fill="#666666" fill-rule="nonzero" fill-opacity="0.800000" d="M7172.01 10133.51l-43.9 0c2,-33.6 13.72,-59.21 35.17,-76.83 21.46,-17.63 48.48,-26.44 81.07,-26.44 33.92,0 61.28,9.22 82.06,27.68 20.79,18.46 31.18,44.65 31.18,78.58 0,41.24 -25.77,83.31 -77.33,126.21l-87.8 73.84 0 10.97 176.1 0 0 38.91 -239.96 0 0 -49.39 51.39 -41.91c31.93,-25.6 58.37,-48.06 79.32,-67.34 7.98,-6.99 14.39,-12.97 19.21,-17.96 4.83,-5 10.31,-11.56 16.47,-19.71 6.15,-8.15 10.8,-16.72 13.97,-25.69 3.16,-8.98 4.74,-18.3 4.74,-27.94 0,-21.62 -6.32,-38.24 -18.96,-49.89 -12.64,-11.64 -29.77,-17.46 -51.39,-17.46 -20.29,0 -36.67,5.4 -49.14,16.21 -12.48,10.81 -19.88,26.86 -22.2,48.15zm290.35 0l-43.9 0c2,-33.6 13.72,-59.21 35.17,-76.83 21.46,-17.63 48.48,-26.44 81.07,-26.44 33.92,0 61.28,9.22 82.06,27.68 20.79,18.46 31.18,44.65 31.18,78.58 0,41.24 -25.77,83.31 -77.33,126.21l-87.8 73.84 0 10.97 176.1 0 0 38.91 -239.96 0 0 -49.39 51.39 -41.91c31.93,-25.6 58.37,-48.06 79.32,-67.34 7.98,-6.99 14.39,-12.97 19.21,-17.96 4.83,-5 10.31,-11.56 16.47,-19.71 6.15,-8.15 10.8,-16.72 13.97,-25.69 3.16,-8.98 4.74,-18.3 4.74,-27.94 0,-21.62 -6.32,-38.24 -18.96,-49.89 -12.64,-11.64 -29.77,-17.46 -51.39,-17.46 -20.29,0 -36.67,5.4 -49.14,16.21 -12.48,10.81 -19.88,26.86 -22.2,48.15zm282.37 -57.87c23.28,-30.27 54.38,-45.4 93.3,-45.4 38.91,0 70.09,15.21 93.54,45.65 23.44,30.43 35.18,75.74 35.18,135.94 0,60.2 -11.73,105.43 -35.18,135.7 -23.44,30.27 -54.62,45.4 -93.54,45.4 -38.91,0 -70.01,-15.13 -93.3,-45.4 -23.27,-30.27 -34.92,-75.5 -34.92,-135.7 0,-60.53 11.64,-105.93 34.92,-136.19zm29.94 240.71c13.96,25.11 35.09,37.66 63.36,37.66 28.27,0 49.47,-12.55 63.61,-37.66 14.13,-25.11 21.2,-59.95 21.2,-104.52 0,-44.9 -7.07,-79.91 -21.2,-105.01 -14.14,-25.11 -35.34,-37.66 -63.61,-37.66 -28.27,0 -49.4,12.55 -63.36,37.66 -13.97,25.1 -20.96,60.11 -20.96,105.01 0,44.57 6.99,79.41 20.96,104.52zm291.84 70.09l-51.88 0 0 -57.87 51.88 0 0 57.87zm2521.34 -75.83l42.4 0c-4.99,25.27 -16.71,45.31 -35.17,60.11 -18.46,14.8 -41.99,22.2 -70.59,22.2 -37.91,0 -67.76,-12.39 -89.55,-37.16 -21.79,-24.78 -32.68,-56.46 -32.68,-95.04 0,-38.91 10.81,-70.68 32.43,-95.29 21.62,-24.61 51.55,-36.92 89.8,-36.92 28.93,0 52.46,7.24 70.59,21.71 18.13,14.47 29.35,33.68 33.68,57.62l-42.41 0c-8.97,-28.27 -29.6,-42.4 -61.86,-42.4 -26.94,0 -46.98,8.89 -60.12,26.68 -13.13,17.8 -19.71,40.33 -19.71,67.6 0,27.6 6.66,50.56 19.96,68.84 13.31,18.3 33.26,27.44 59.87,27.44 35.26,0 56.37,-15.14 63.36,-45.4zm105.77 75.83l0 -251.44 67.34 0 61.86 114.74 10.98 0 61.86 -114.74 66.35 0 0 251.44 -41.41 0 0 -202.04 -10.97 0 -58.37 107.76 -46.9 0 -58.37 -107.76 -10.97 0 0 202.04 -41.4 0zm-2526.33 -310.8c23.28,-30.27 54.38,-45.4 93.3,-45.4 38.91,0 70.09,15.21 93.54,45.65 23.44,30.43 35.18,75.74 35.18,135.94 0,60.2 -11.73,105.43 -35.18,135.7 -23.44,30.27 -54.62,45.4 -93.54,45.4 -38.91,0 -70.01,-15.13 -93.3,-45.4 -23.27,-30.27 -34.92,-75.5 -34.92,-135.7 0,-60.53 11.64,-105.93 34.92,-136.19zm29.94 240.71c13.96,25.11 35.09,37.66 63.36,37.66 28.27,0 49.47,-12.55 63.61,-37.66 14.13,-25.11 21.2,-59.95 21.2,-104.52 0,-44.9 -7.07,-79.91 -21.2,-105.01 -14.14,-25.11 -35.34,-37.66 -63.61,-37.66 -28.27,0 -49.4,12.55 -63.36,37.66 -13.97,25.1 -20.96,60.11 -20.96,105.01 0,44.57 6.99,79.41 20.96,104.52zm567.21 70.09l-62.36 -105.27 -17.96 0 -63.86 105.27 -46.4 0 78.33 -128.71 -70.34 -122.73 44.9 0 57.87 99.78 17.96 0 58.87 -99.78 44.4 0 -71.34 121.23 77.83 130.21 -47.9 0zm234.47 0l0 -38.91 82.81 0 0 -264.41 -9.97 0 -73.34 49.4 0 -45.9 72.84 -49.39 54.38 0 0 310.3 76.33 0 0 38.91 -203.05 0zm380.15 -234.97c33.93,0 61.12,11.14 81.57,33.43 20.45,22.27 30.68,50.05 30.68,83.3 0,37.58 -11.06,67.77 -33.18,90.55 -22.11,22.78 -50.97,34.18 -86.56,34.18 -36.91,0 -65.94,-9.64 -87.05,-28.93 -21.12,-19.3 -32.68,-44.41 -34.68,-75.34l43.41 0c2.66,21.29 10.64,37.5 23.94,48.65 13.3,11.14 30.76,16.71 52.38,16.71 23.27,0 42.07,-7.56 56.37,-22.69 14.3,-15.14 21.46,-35.51 21.46,-61.12 0,-24.27 -6.91,-43.98 -20.71,-59.12 -13.8,-15.13 -32.35,-22.69 -55.62,-22.69 -31.27,0 -54.38,10.97 -69.35,32.93l-43.9 0 15.47 -184.08 199.55 0 0 37.91 -164.14 0 -7.97 100.77 10.97 0c17.96,-16.3 40.4,-24.44 67.34,-24.44zm201.05 -75.83c23.28,-30.27 54.38,-45.4 93.3,-45.4 38.91,0 70.09,15.21 93.54,45.65 23.44,30.43 35.18,75.74 35.18,135.94 0,60.2 -11.73,105.43 -35.18,135.7 -23.44,30.27 -54.62,45.4 -93.54,45.4 -38.91,0 -70.01,-15.13 -93.3,-45.4 -23.27,-30.27 -34.92,-75.5 -34.92,-135.7 0,-60.53 11.64,-105.93 34.92,-136.19zm29.94 240.71c13.96,25.11 35.09,37.66 63.36,37.66 28.27,0 49.47,-12.55 63.61,-37.66 14.13,-25.11 21.2,-59.95 21.2,-104.52 0,-44.9 -7.07,-79.91 -21.2,-105.01 -14.14,-25.11 -35.34,-37.66 -63.61,-37.66 -28.27,0 -49.4,12.55 -63.36,37.66 -13.97,25.1 -20.96,60.11 -20.96,105.01 0,44.57 6.99,79.41 20.96,104.52zm291.84 70.09l-51.88 0 0 -57.87 51.88 0 0 57.87zm86.8 -310.8c23.28,-30.27 54.38,-45.4 93.3,-45.4 38.91,0 70.09,15.21 93.54,45.65 23.44,30.43 35.18,75.74 35.18,135.94 0,60.2 -11.73,105.43 -35.18,135.7 -23.44,30.27 -54.62,45.4 -93.54,45.4 -38.91,0 -70.01,-15.13 -93.3,-45.4 -23.27,-30.27 -34.92,-75.5 -34.92,-135.7 0,-60.53 11.64,-105.93 34.92,-136.19zm29.94 240.71c13.96,25.11 35.09,37.66 63.36,37.66 28.27,0 49.47,-12.55 63.61,-37.66 14.13,-25.11 21.2,-59.95 21.2,-104.52 0,-44.9 -7.07,-79.91 -21.2,-105.01 -14.14,-25.11 -35.34,-37.66 -63.61,-37.66 -28.27,0 -49.4,12.55 -63.36,37.66 -13.97,25.1 -20.96,60.11 -20.96,105.01 0,44.57 6.99,79.41 20.96,104.52z"/>
  <path fill="#666666" fill-rule="nonzero" fill-opacity="0.800000" d="M6534.56 12858.88l-43.9 0c2,-33.6 13.72,-59.21 35.17,-76.83 21.46,-17.63 48.48,-26.44 81.07,-26.44 33.92,0 61.28,9.22 82.06,27.68 20.79,18.46 31.18,44.65 31.18,78.58 0,41.24 -25.77,83.31 -77.33,126.21l-87.8 73.84 0 10.97 176.1 0 0 38.91 -239.96 0 0 -49.39 51.39 -41.91c31.93,-25.6 58.37,-48.06 79.32,-67.34 7.98,-6.99 14.39,-12.97 19.21,-17.96 4.83,-5 10.31,-11.56 16.47,-19.71 6.15,-8.15 10.8,-16.72 13.97,-25.69 3.16,-8.98 4.74,-18.3 4.74,-27.94 0,-21.62 -6.32,-38.24 -18.96,-49.89 -12.64,-11.64 -29.77,-17.46 -51.39,-17.46 -20.29,0 -36.67,5.4 -49.14,16.21 -12.48,10.81 -19.88,26.86 -22.2,48.15zm578.21 -57.87c23.28,-30.27 54.38,-45.4 93.3,-45.4 38.91,0 70.09,15.21 93.54,45.65 23.44,30.43 35.18,75.74 35.18,135.94 0,60.2 -11.73,105.43 -35.18,135.7 -23.44,30.27 -54.62,45.4 -93.54,45.4 -38.91,0 -70.01,-15.13 -93.3,-45.4 -23.27,-30.27 -34.92,-75.5 -34.92,-135.7 0,-60.53 11.64,-105.93 34.92,-136.19zm29.94 240.71c13.96,25.11 35.09,37.66 63.36,37.66 28.27,0 49.47,-12.55 63.61,-37.66 14.13,-25.11 21.2,-59.95 21.2,-104.52 0,-44.9 -7.07,-79.91 -21.2,-105.01 -14.14,-25.11 -35.34,-37.66 -63.61,-37.66 -28.27,0 -49.4,12.55 -63.36,37.66 -13.97,25.1 -20.96,60.11 -20.96,105.01 0,44.57 6.99,79.41 20.96,104.52zm291.84 70.09l-51.88 0 0 -57.87 51.88 0 0 57.87zm86.8 -310.8c23.28,-30.27 54.38,-45.4 93.3,-45.4 38.91,0 70.09,15.21 93.54,45.65 23.44,30.43 35.18,75.74 35.18,135.94 0,60.2 -11.73,105.43 -35.18,135.7 -23.44,30.27 -54.62,45.4 -93.54,45.4 -38.91,0 -70.01,-15.13 -93.3,-45.4 -23.27,-30.27 -34.92,-75.5 -34.92,-135.7 0,-60.53 11.64,-105.93 34.92,-136.19zm29.94 240.71c13.96,25.11 35.09,37.66 63.36,37.66 28.27,0 49.47,-12.55 63.61,-37.66 14.13,-25.11 21.2,-59.95 21.2,-104.52 0,-44.9 -7.07,-79.91 -21.2,-105.01 -14.14,-25.11 -35.34,-37.66 -63.61,-37.66 -28.27,0 -49.4,12.55 -63.36,37.66 -13.97,25.1 -20.96,60.11 -20.96,105.01 0,44.57 6.99,79.41 20.96,104.52zm569.21 -5.74l42.4 0c-4.99,25.27 -16.71,45.31 -35.17,60.11 -18.46,14.8 -41.99,22.2 -70.59,22.2 -37.91,0 -67.76,-12.39 -89.55,-37.16 -21.79,-24.78 -32.68,-56.46 -32.68,-95.04 0,-38.91 10.81,-70.68 32.43,-95.29 21.62,-24.61 51.55,-36.92 89.8,-36.92 28.93,0 52.46,7.24 70.59,21.71 18.13,14.47 29.35,33.68 33.68,57.62l-42.41 0c-8.97,-28.27 -29.6,-42.4 -61.86,-42.4 -26.94,0 -46.98,8.89 -60.12,26.68 -13.13,17.8 -19.71,40.33 -19.71,67.6 0,27.6 6.66,50.56 19.96,68.84 13.31,18.3 33.26,27.44 59.87,27.44 35.26,0 56.37,-15.14 63.36,-45.4zm105.77 75.83l0 -251.44 67.34 0 61.86 114.74 10.98 0 61.86 -114.74 66.35 0 0 251.44 -41.41 0 0 -202.04 -10.97 0 -58.37 107.76 -46.9 0 -58.37 -107.76 -10.97 0 0 202.04 -41.4 0zm-1309.06 -227.49c31.93,0 58.53,10.72 79.82,32.18 21.29,21.45 31.93,48.64 31.93,81.56 0,34.26 -10.72,62.86 -32.18,85.8 -21.46,22.95 -50.31,34.43 -86.55,34.43 -39.58,0 -70.84,-13.64 -93.8,-40.91 -22.94,-27.27 -34.42,-70.84 -34.42,-130.7 0,-56.21 11.22,-102.11 33.67,-137.7 22.45,-35.59 55.46,-53.37 99.03,-53.37 28.93,0 52.63,7.72 71.09,23.19 18.46,15.47 29.68,35.51 33.68,60.12l-43.41 0c-8.64,-29.6 -29.1,-44.4 -61.36,-44.4 -27.6,0 -49.23,10.97 -64.86,32.92 -15.63,21.96 -24.11,52.22 -25.44,90.8l10.97 0c7.33,-8.97 18.05,-16.88 32.18,-23.69 14.14,-6.82 30.69,-10.22 49.65,-10.22zm-62.37 173.6c14.64,14.31 32.93,21.46 54.88,21.46 21.95,0 39.99,-6.99 54.12,-20.96 14.14,-13.96 21.21,-33.42 21.21,-58.37 0,-24.94 -7.16,-44.06 -21.46,-57.37 -14.3,-13.3 -32.59,-19.95 -54.87,-19.95 -21.96,0 -40.08,6.82 -54.38,20.45 -14.3,13.64 -21.45,32.43 -21.45,56.38 0,24.6 7.32,44.06 21.95,58.36z"/>
  <path fill="#666666" fill-rule="nonzero" fill-opacity="0.800000" d="M13557.33 6246.27l0 10.98c14.97,6.98 27.02,17.96 36.17,32.92 9.15,14.97 13.72,31.43 13.72,49.4 0,29.93 -10.31,54.12 -30.93,72.58 -20.62,18.46 -50.56,27.69 -89.8,27.69l-159.14 0 0 -356.2 155.15 0c36.25,0 64.27,8.56 84.06,25.69 19.79,17.13 29.68,38.66 29.68,64.61 0,34.26 -12.97,58.36 -38.91,72.33zm-185.08 -122.73l0 111.25 109.26 0c46.23,0 69.34,-18.96 69.34,-56.87 0,-18.63 -6.66,-32.35 -19.96,-41.16 -13.3,-8.81 -30.1,-13.22 -50.39,-13.22l-108.26 0zm0 276.38l111.24 0c22.95,0 41.74,-4.91 56.38,-14.71 14.63,-9.81 21.95,-26.19 21.95,-49.15 0,-21.62 -7.24,-37.33 -21.7,-47.14 -14.47,-9.81 -33.18,-14.72 -56.13,-14.72l-111.74 0 0 125.71zm300.33 -211.53l42.4 0 0 83.81 69.34 0c30.27,0 53.63,7.32 70.09,21.96 16.47,14.63 24.69,35.09 24.69,61.36 0,26.61 -8.22,47.31 -24.69,62.11 -16.46,14.8 -39.82,22.2 -70.09,22.2l-111.74 0 0 -251.44zm42.4 119.74l0 94.79 63.36 0c20.96,0 35.92,-4 44.9,-11.97 8.98,-7.98 13.47,-19.8 13.47,-35.43 0,-15.63 -4.49,-27.44 -13.47,-35.42 -8.98,-7.98 -23.94,-11.97 -44.9,-11.97l-63.36 0zm204.54 -119.74l42.4 0 0 251.44 -42.4 0 0 -251.44zm294.34 175.61l42.4 0c-4.99,25.27 -16.71,45.31 -35.17,60.11 -18.46,14.8 -41.99,22.2 -70.59,22.2 -37.91,0 -67.76,-12.39 -89.55,-37.16 -21.79,-24.78 -32.68,-56.46 -32.68,-95.04 0,-38.91 10.81,-70.68 32.43,-95.29 21.62,-24.61 51.55,-36.92 89.8,-36.92 28.93,0 52.46,7.24 70.59,21.71 18.13,14.47 29.35,33.68 33.68,57.62l-42.41 0c-8.97,-28.27 -29.6,-42.4 -61.86,-42.4 -26.94,0 -46.98,8.89 -60.12,26.68 -13.13,17.8 -19.71,40.33 -19.71,67.6 0,27.6 6.66,50.56 19.96,68.84 13.31,18.3 33.26,27.44 59.87,27.44 35.26,0 56.37,-15.14 63.36,-45.4zm123.48 -144.68c22.11,-24.94 52.29,-37.41 90.55,-37.41 38.24,0 68.42,12.47 90.55,37.41 22.11,24.95 33.17,56.54 33.17,94.8 0,38.24 -11.05,69.84 -33.17,94.79 -22.12,24.94 -52.3,37.41 -90.55,37.41 -38.25,0 -68.43,-12.47 -90.55,-37.41 -22.11,-24.94 -33.18,-56.54 -33.18,-94.79 0,-38.25 11.06,-69.84 33.18,-94.8zm30.18 162.39c13.97,18.46 34.09,27.69 60.37,27.69 26.27,0 46.39,-9.23 60.36,-27.69 13.97,-18.46 20.96,-40.99 20.96,-67.59 0,-26.61 -6.99,-49.15 -20.96,-67.6 -13.97,-18.46 -34.09,-27.68 -60.36,-27.68 -26.28,0 -46.4,9.22 -60.37,27.68 -13.97,18.46 -20.96,40.99 -20.96,67.6 0,26.6 6.99,49.14 20.96,67.59zm219.51 -156.39l0 -36.92 216.51 0 0 36.92 -86.81 0 0 214.51 -42.4 0 0 -214.51 -87.3 0zm432.53 214.51l0 -26.44 -10.98 0c-17.29,21.96 -43.4,32.93 -78.32,32.93 -27.61,0 -49.56,-7.98 -65.86,-23.94 -16.3,-15.97 -24.44,-35.26 -24.44,-57.87 0,-22.95 7.97,-42.57 23.94,-58.87 15.96,-16.3 40.07,-24.44 72.34,-24.44l81.81 0 0 -9.98c0,-15.96 -4.99,-28.68 -14.97,-38.16 -9.97,-9.47 -25.44,-14.21 -46.4,-14.21 -36.59,0 -56.04,12.13 -58.36,36.42l-42.41 0c1.67,-22.95 11.56,-40.91 29.69,-53.88 18.12,-12.97 41.48,-19.46 70.09,-19.46 32.26,0 57.62,7.48 76.08,22.45 18.46,14.96 27.68,36.42 27.68,64.36l0 171.11 -39.9 0zm-78.83 -30.43c20.96,0 39.07,-6.91 54.37,-20.71 15.3,-13.8 22.95,-30.68 22.95,-50.64l0 -22.95 -75.33 0c-40.24,0 -60.37,15.97 -60.37,47.9 0,14.3 5.08,25.61 15.22,33.93 10.14,8.31 24.52,12.47 43.15,12.47zm-1447.75 499.42l42.4 0c-4.99,25.27 -16.71,45.31 -35.17,60.11 -18.46,14.8 -41.99,22.2 -70.59,22.2 -37.91,0 -67.76,-12.39 -89.55,-37.16 -21.79,-24.78 -32.68,-56.46 -32.68,-95.04 0,-38.91 10.81,-70.68 32.43,-95.29 21.62,-24.61 51.55,-36.92 89.8,-36.92 28.93,0 52.46,7.24 70.59,21.71 18.13,14.47 29.35,33.68 33.68,57.62l-42.41 0c-8.97,-28.27 -29.6,-42.4 -61.86,-42.4 -26.94,0 -46.98,8.89 -60.12,26.68 -13.13,17.8 -19.71,40.33 -19.71,67.6 0,27.6 6.66,50.56 19.96,68.84 13.31,18.3 33.26,27.44 59.87,27.44 35.26,0 56.37,-15.14 63.36,-45.4zm165.63 75.83l-59.86 0 0 -251.44 41.4 0 0 194.57 10.97 0 110.26 -194.57 61.87 0 0 251.44 -41.41 0 0 -194.57 -10.97 0 -112.25 194.57zm470.45 -36.91l46.39 0 0 108.26 -41.4 0 0 -71.34 -217.51 0 0 71.34 -41.41 0 0 -108.26 33.43 0c20.63,-43.9 30.93,-92.46 30.93,-145.67l0 -68.85 189.58 0 0 214.52zm-42.41 0l0 -177.6 -107.76 0 0 31.93c0,56.87 -9.14,105.43 -27.44,145.67l135.2 0zm361.69 -103.77l0 14.47 -191.58 0c0.67,30.26 7.82,53.79 21.46,70.59 13.64,16.79 33.26,25.19 58.87,25.19 34.59,0 55.87,-12.97 63.86,-38.91l42.9 0c-4.32,22.61 -15.71,40.9 -34.17,54.87 -18.47,13.97 -42.66,20.96 -72.59,20.96 -38.24,0 -68.18,-12.47 -89.8,-37.41 -21.62,-24.94 -32.43,-57.37 -32.43,-97.28 0,-39.24 10.81,-70.67 32.43,-94.29 21.62,-23.61 51.22,-35.43 88.8,-35.43 35.59,0 63.03,11.23 82.31,33.68 19.3,22.45 29.27,50.31 29.94,83.56zm-113.25 -80.32c-21.62,0 -38.91,5.57 -51.88,16.71 -12.97,11.14 -20.95,25.36 -23.94,42.65l145.17 0c-1.33,-16.96 -8.14,-31.1 -20.45,-42.4 -12.31,-11.31 -28.61,-16.96 -48.9,-16.96zm403.11 221l-42.41 0 0 -110.75 -139.19 0 0 110.75 -42.4 0 0 -251.44 42.4 0 0 103.77 139.19 0 0 -103.77 42.41 0 0 251.44zm435.01 -251.44l125.21 0 0 251.44 -42.9 0 0 -99.27 -76.33 0c-6.66,0 -11.81,-0.17 -15.47,-0.5l-37.91 99.77 -44.4 0 42.41 -109.26c-25.94,-12.3 -38.91,-34.26 -38.91,-65.86 0,-24.27 7.56,-43.07 22.69,-56.37 15.13,-13.3 37,-19.96 65.61,-19.96zm82.31 35.93l-77.83 0c-18.29,0 -31.26,3.49 -38.91,10.47 -7.64,6.99 -11.47,17.13 -11.47,30.43 0,12.97 3.83,22.78 11.47,29.44 7.65,6.65 20.63,9.97 38.91,9.97l77.83 0 0 -80.32zm-1272.65 760.33l-51.88 0 0 -57.87 51.88 0 0 57.87zm86.8 -310.8c23.28,-30.27 54.38,-45.4 93.3,-45.4 38.91,0 70.09,15.21 93.54,45.65 23.44,30.43 35.18,75.74 35.18,135.94 0,60.2 -11.73,105.43 -35.18,135.7 -23.44,30.27 -54.62,45.4 -93.54,45.4 -38.91,0 -70.01,-15.13 -93.3,-45.4 -23.27,-30.27 -34.92,-75.5 -34.92,-135.7 0,-60.53 11.64,-105.93 34.92,-136.19zm29.94 240.71c13.96,25.11 35.09,37.66 63.36,37.66 28.27,0 49.47,-12.55 63.61,-37.66 14.13,-25.11 21.2,-59.95 21.2,-104.52 0,-44.9 -7.07,-79.91 -21.2,-105.01 -14.14,-25.11 -35.34,-37.66 -63.61,-37.66 -28.27,0 -49.4,12.55 -63.36,37.66 -13.97,25.1 -20.96,60.11 -20.96,105.01 0,44.57 6.99,79.41 20.96,104.52zm569.21 -5.74l42.4 0c-4.99,25.27 -16.71,45.31 -35.17,60.11 -18.46,14.8 -41.99,22.2 -70.59,22.2 -37.91,0 -67.76,-12.39 -89.55,-37.16 -21.79,-24.78 -32.68,-56.46 -32.68,-95.04 0,-38.91 10.81,-70.68 32.43,-95.29 21.62,-24.61 51.55,-36.92 89.8,-36.92 28.93,0 52.46,7.24 70.59,21.71 18.13,14.47 29.35,33.68 33.68,57.62l-42.41 0c-8.97,-28.27 -29.6,-42.4 -61.86,-42.4 -26.94,0 -46.98,8.89 -60.12,26.68 -13.13,17.8 -19.71,40.33 -19.71,67.6 0,27.6 6.66,50.56 19.96,68.84 13.31,18.3 33.26,27.44 59.87,27.44 35.26,0 56.37,-15.14 63.36,-45.4zm105.77 75.83l0 -251.44 67.34 0 61.86 114.74 10.98 0 61.86 -114.74 66.35 0 0 251.44 -41.41 0 0 -202.04 -10.97 0 -58.37 107.76 -46.9 0 -58.37 -107.76 -10.97 0 0 202.04 -41.4 0zm87.81 -796.26l0 83.81 74.33 0c30.27,0 53.63,7.32 70.09,21.96 16.47,14.63 24.7,35.09 24.7,61.36 0,26.61 -8.23,47.31 -24.7,62.11 -16.46,14.8 -39.82,22.2 -70.09,22.2l-116.73 0 0 -251.44 42.4 0zm0 214.52l68.34 0c20.96,0 35.93,-4 44.9,-11.97 8.98,-7.98 13.47,-19.8 13.47,-35.43 0,-15.63 -4.49,-27.44 -13.47,-35.42 -8.97,-7.98 -23.94,-11.97 -44.9,-11.97l-68.34 0 0 94.79zm566.73 36.91l-51.88 0 0 -57.87 51.88 0 0 57.87zm0 -193.57l-51.88 0 0 -57.87 51.88 0 0 57.87zm-1912.21 617.66l47.9 0 0 38.91 -47.9 0 0 81.81 -42.9 0 0 -81.81 -172.61 0 0 -49.89 154.16 -217.51 61.36 0 0 228.48zm-169.61 0l127.21 0 0 -179.1 -10.97 0 -116.24 168.13 0 10.97zm474.93 0l47.9 0 0 38.91 -47.9 0 0 81.81 -42.9 0 0 -81.81 -172.61 0 0 -49.89 154.16 -217.51 61.36 0 0 228.48zm-169.61 0l127.21 0 0 -179.1 -10.97 0 -116.24 168.13 0 10.97z"/>
 </g>
</svg>
