<?xml version="1.0" encoding="UTF-8"?>
<!DOCTYPE svg PUBLIC "-//W3C//DTD SVG 1.1//EN" "http://www.w3.org/Graphics/SVG/1.1/DTD/svg11.dtd">
<!-- Creator: CorelDRAW 2021.5 -->
<svg xmlns="http://www.w3.org/2000/svg" xml:space="preserve" width="210mm" height="148mm" version="1.1" shape-rendering="geometricPrecision" text-rendering="geometricPrecision" image-rendering="optimizeQuality" fill-rule="evenodd" clip-rule="evenodd"
viewBox="0 0 20985.75 14789.96"
 xmlns:xlink="http://www.w3.org/1999/xlink"
 xmlns:xodm="http://www.corel.com/coreldraw/odm/2003">
 <g id="Тени">
  <metadata id="CorelCorpID_0Corel-Layer"/>
  <rect fill="none" width="20985.75" height="14789.96"/>
  <g id="_2238819491520">
   <path fill="black" fill-opacity="0.101961" d="M2566.53 1322.61c923.74,0 1867.04,0 2790.79,0 -4.22,23.5 -40.09,35.82 -40.09,35.82 -909.6,0 -1795.18,-1.33 -2704.78,-1.33 -5.92,0.06 -36.78,-2.69 -45.92,-34.49z"/>
   <path fill="black" fill-opacity="0.101961" d="M6146.53 1326.99c1195.42,0 2416.17,0 3611.6,0 -5.46,23.5 -40.57,36.06 -40.57,36.06 -1177.13,0 -2341.96,0.27 -3519.1,0.27 -7.64,0.06 -40.1,-4.53 -51.92,-36.33z"/>
   <path fill="black" fill-opacity="0.101961" d="M3328 1245.07c-32.97,4.52 -52.66,21.14 -115.13,2.22 -17.36,-5.26 -141.75,-193.22 -128.77,-164.24 14.85,33.15 112.9,155.63 84.21,158.9 -69.25,7.89 -91.38,-10.72 -120.14,-32.73 -4.65,-3.55 17.03,38.97 12.13,38.32 -4.61,-0.6 -35.78,-44.47 -41.36,-46.7 -7.67,-3.08 -16.67,-9.6 -27.86,-24.8 -0.1,-0.13 25.1,57.53 14.25,69.51 -6.56,7.24 -45.96,-31.57 -56.32,-26.07 -47.07,24.95 -114.72,41.4 -85.56,40.52 57.98,-1.76 153.09,-1.32 223.73,-1.32 207.61,0 405.66,-3.64 615.46,-1.1 119.36,1.45 218.63,-4.21 343.45,-0.26 182.92,5.79 359.12,-0.29 530.56,-0.4 66.52,-0.04 285.96,-0.29 377.13,-0.29 -8.32,-8.55 -54.91,-11.69 -65.43,-21.36 -10.52,-9.67 -26.7,-15.78 -37.2,-24.33 -41.84,-34.05 -66.15,-60.46 -20.52,12.31 13.32,21.27 -45.38,-5 -80.16,12.24 -1.1,0.55 -104.02,19.14 -425.5,14.8 -37.79,-0.5 -53.61,-19.42 -85.85,-20.3 -20.03,-0.54 -148.31,-120.67 -163.02,-122.73 -14.47,-2.02 84.46,114.02 77.9,109.86 -52.12,-33.05 -55.53,21.73 -91.92,-5.87 -2.12,-1.6 -207.15,-247.67 -161.62,-184.76 23.79,32.89 124.52,160.29 76.53,198.27 -0.31,0.24 -41.76,29.81 -96.59,24.66 -50.79,-4.76 -99.29,-13.3 -143.44,-13.89 -56.08,-0.74 -54.31,16.08 -66.62,16.85 -289.89,18.23 -64.43,-45.43 -342.33,-7.33z"/>
   <path fill="black" fill-opacity="0.101961" d="M3124.71 636.41c11.48,-1.45 38.5,29.9 44.42,40.18 65.14,112.91 -42.39,175.6 -98.44,231.39 -5.46,5.43 5.74,19.96 2.19,19.43 -2.75,-0.41 -16.25,-1.48 -35.33,-0.3 -38.27,2.35 -158.04,-6.98 -153.45,-9.39 49.9,-26.29 123.35,-48.3 181.14,-160.97 -12.04,107.9 -77.04,146.34 -38.42,141.95 28.43,-3.24 93.26,-55.36 106.18,-136.18 6.81,-42.47 -12.94,-125.52 -8.28,-126.11z"/>
   <path fill="black" fill-opacity="0.101961" d="M3664.15 649.69c-11.48,-1.47 -24,17.54 -27.91,28.75 -39.76,114.02 29.7,176.34 66.56,231.28 4.3,6.41 -5.74,19.96 -2.18,19.43 2.75,-0.41 16.24,-1.47 35.32,-0.3 38.27,2.36 134.17,-4.79 129.55,-7.23 -49.89,-26.3 -126.26,-68.72 -138.45,-183.56 -18.37,109.34 58.26,166.78 19.63,162.37 -28.44,-3.25 -68.79,-61.34 -81.72,-142.15 -6.8,-42.48 3.87,-108.01 -0.8,-108.6z"/>
   <path fill="black" fill-opacity="0.101961" d="M4348.85 925.11c-4.8,0.28 40.47,-45.78 174.86,-43.91 100.4,1.4 182.02,36.98 163.75,36.98 -27.08,0 -44.75,0.75 -71.61,-2.35 -22.33,-2.58 -112.96,-1.23 -137.26,1.56 -24.59,2.83 -85.44,5.16 -129.74,7.71z"/>
   <path fill="black" fill-opacity="0.101961" d="M3578.56 927.57c4.77,0.27 -42.62,-35.65 -177,-33.79 -100.39,1.4 -179.88,26.86 -161.61,26.86 27.08,0 44.75,0.74 71.61,-2.35 22.33,-2.58 112.96,-1.24 137.26,1.56 24.59,2.83 85.44,5.18 129.74,7.71z"/>
   <path fill="black" fill-opacity="0.101961" d="M3689.36 3000.46c-11.46,-1.77 -38.5,36.68 -44.42,49.25 -65.11,138.34 -1.35,138.86 54.68,207.21 5.45,6.64 3.75,14.65 2.87,11.16 -24.18,-95.59 -30.7,-101.43 -19.74,-171.91 8.07,-51.84 11.24,-94.99 6.61,-95.71z"/>
   <path fill="black" fill-opacity="0.101961" d="M3680.16 3177.22c11.94,3.51 19.01,79.82 83.12,67 41.9,-8.36 90.55,20.17 168.48,8.21 -53.81,23.6 -107.69,18.99 -112.87,19.28 -24.82,1.35 -67.21,-3.25 -116.39,-3.64l-22.33 -90.86z"/>
   <path fill="black" fill-opacity="0.101961" d="M3168.69 3170.58c-11.93,3.51 -19.02,79.82 -83.12,67 -41.9,-8.36 -89.2,29.2 -167.12,17.23 53.8,23.6 106.33,9.97 111.51,10.25 24.81,1.36 67.21,-3.24 116.39,-3.63l22.33 -90.86z"/>
   <path fill="black" fill-opacity="0.101961" d="M4253.52 3174.34c-11.94,3.51 -19.02,79.82 -83.13,67 -41.89,-8.36 -90.54,20.18 -168.47,8.21 53.81,23.6 107.69,18.99 112.87,19.28 24.81,1.35 67.2,-3.25 116.38,-3.64l22.34 -90.86z"/>
   <path fill="black" fill-opacity="0.101961" d="M4764.99 3167.7c11.93,3.51 19.02,79.82 83.12,67 41.89,-8.36 89.19,29.2 167.12,17.23 -53.8,23.61 -106.34,9.97 -111.52,10.26 -24.81,1.35 -67.2,-3.25 -116.38,-3.64l-22.33 -90.86z"/>
   <path fill="black" fill-opacity="0.101961" d="M4772.57 3029.88c-12.08,0.14 -26.75,31.77 -32.66,44.32 -65.09,138.33 -5.08,112.01 50.96,180.37 5.44,6.63 3.75,14.65 2.87,11.17 -24.17,-95.59 -34.14,-91.08 -32.07,-165.2 1.47,-52.43 15.57,-70.72 10.9,-70.66z"/>
   <path fill="black" fill-opacity="0.101961" d="M4714.25 2986.2c18.68,-6.82 -165.18,-17.34 -183.69,-12.43 -35.92,9.5 -137.82,-3.09 -225.87,3.48 177.35,51.37 205.39,83.45 409.55,8.95z"/>
   <path fill="black" fill-opacity="0.101961" d="M4244.32 2997.58c11.46,-1.77 38.5,36.68 44.42,49.25 65.11,138.34 1.35,138.86 -54.69,207.21 -5.44,6.64 -3.75,14.65 -2.87,11.16 24.19,-95.58 30.71,-101.42 19.75,-171.91 -8.07,-51.84 -11.25,-94.99 -6.61,-95.71z"/>
   <path fill="black" fill-opacity="0.101961" d="M3219.43 2989.08c-18.68,-6.82 165.18,-17.34 183.68,-12.43 35.93,9.5 137.83,-3.09 225.87,3.47 -177.35,51.38 -205.39,83.45 -409.54,8.96z"/>
   <path fill="black" fill-opacity="0.101961" d="M6888.69 935.39c3.87,2.74 -14.31,-57.45 -103.24,-158.2 -66.42,-75.26 -141.93,-125.68 -130.07,-111.78 17.56,20.59 14.16,24.94 34.47,42.91 16.89,14.94 74.45,84.97 87.62,105.66 13.31,20.97 87.11,104.38 111.22,121.42z"/>
   <path fill="black" fill-opacity="0.101961" d="M4244.24 633.2c11.49,-1.48 21.98,18.46 27.91,28.75 65.14,112.91 8.51,189.52 -47.55,245.32 -5.47,5.44 5.74,19.96 2.18,19.43 -2.75,-0.41 -16.24,-1.48 -35.32,-0.3 -38.27,2.36 -134.17,-4.8 -129.55,-7.23 49.9,-26.31 126.26,-68.72 138.45,-183.57 18.37,109.35 -58.26,166.79 -19.63,162.38 28.44,-3.25 68.78,-61.35 81.72,-142.16 6.8,-42.48 -22.89,-122.03 -18.22,-122.63z"/>
   <path fill="black" fill-opacity="0.101961" d="M4802.7 633.95c-11.48,-1.46 -21.98,18.48 -27.9,28.75 -65.14,112.92 25.86,187.03 81.92,242.83 5.46,5.44 -5.74,19.96 -2.19,19.43 2.75,-0.41 16.26,-1.47 35.33,-0.3 38.27,2.35 158.04,-6.97 153.45,-9.39 -49.89,-26.29 -123.35,-48.3 -181.14,-160.96 12.04,107.9 77.04,146.34 38.42,141.94 -28.43,-3.23 -93.26,-55.35 -106.18,-136.17 -6.8,-42.48 12.95,-125.52 8.28,-126.12z"/>
   <path fill="black" fill-opacity="0.101961" d="M3161.1 3032.76c12.08,0.14 26.76,31.76 32.66,44.32 65.1,138.33 5.09,112.01 -50.95,180.36 -5.44,6.64 -3.75,14.65 -2.87,11.18 24.17,-95.59 34.14,-91.08 32.06,-165.2 -1.47,-52.43 -15.57,-70.72 -10.9,-70.66z"/>
   <g>
    <rect fill="none" stroke="black" stroke-width="10.57" stroke-miterlimit="22.9256" x="6149.6" y="1260.68" width="3605.5" height="102.63" rx="173.3" ry="42.38"/>
    <rect fill="none" stroke="black" stroke-width="10.57" stroke-miterlimit="22.9256" x="6289.23" y="1364.98" width="3332.26" height="87.77"/>
    <path fill="none" stroke="black" stroke-width="10.57" stroke-miterlimit="22.9256" d="M6200.63 1364.32l86.95 0c0,33.16 1.39,53.11 1.39,86.26 -18.68,54.51 -27.61,93.76 -31.46,181.46l-56.88 -0.01 0 -267.71z"/>
    <path fill="none" stroke="black" stroke-width="10.57" stroke-miterlimit="22.9256" d="M9709.53 1365.78l-86.94 0c0,33.14 -1.39,53.09 -1.39,86.25 18.67,54.5 27.67,95.16 31.52,182.86l56.81 0.11 0 -269.22z"/>
    <rect fill="none" stroke="black" stroke-width="10.57" stroke-miterlimit="22.9256" x="6150.07" y="523.15" width="319.15" height="735.97" rx="29.06" ry="45.86"/>
    <path fill="none" stroke="black" stroke-width="10.57" stroke-miterlimit="22.9256" d="M6501.03 935.4c1046.18,0 2070.45,0 3116.57,0 17.49,0 31.8,16.31 31.8,36.23l0 253.64c0,19.93 -14.31,36.23 -31.8,36.23l-3116.57 0c-17.5,0 -31.81,-16.3 -31.81,-36.23l0 -253.64c0,-19.93 14.31,-36.23 31.81,-36.23z"/>
    <path fill="none" stroke="black" stroke-width="10.57" stroke-miterlimit="22.9256" d="M6471.77 590.31c-14.39,133.35 76.37,212.55 57.2,306.71 -3.6,17.7 88.18,38.98 161.08,38.38 31.93,-0.27 77.06,-1.64 105.51,-1.4 11.92,0.09 55.49,-25.05 53.53,-27.34 -28.02,-32.69 -47.64,-57.96 -125.21,-155.07 -10.58,-13.25 -50.59,-57.58 -78.16,-95.98 -44.92,-62.58 -148.53,-90.65 -173.95,-65.3z"/>
    <path fill="none" stroke="black" stroke-width="10.57" stroke-miterlimit="22.9256" d="M6648.98 657.68c-22.15,-35.63 64.68,-55.36 86.28,-34.63 67.28,64.61 245.34,223.5 240.08,298.95 -1.34,19.13 -72.14,19.9 -88.58,12.66 -41.42,-18.25 -164.96,-189.73 -237.78,-276.98z"/>
    <path fill="none" stroke="black" stroke-width="10.57" stroke-miterlimit="22.9256" d="M6496.18 634.25c56.33,110.34 213.34,214.19 253.25,278.35"/>
    <line fill="none" stroke="black" stroke-width="10.57" stroke-miterlimit="22.9256" x1="7542.87" y1="935.4" x2="7541.79" y2= "1260.68" />
   </g>
   <g>
    <rect fill="none" stroke="black" stroke-width="10.57" stroke-miterlimit="22.9256" x="2567.93" y="1258.69" width="2790.22" height="98.4" rx="134.12" ry="40.63"/>
    <rect fill="none" stroke="black" stroke-width="10.57" stroke-miterlimit="22.9256" x="2698.86" y="1357.92" width="2518.65" height="88.2"/>
    <path fill="none" stroke="black" stroke-width="10.57" stroke-miterlimit="22.9256" d="M2609.73 1358.01l87.37 0c0,33.32 1.39,53.36 1.39,86.68 -18.76,54.77 -27.84,96.52 -31.72,184.65l-56.11 -0.22 -0.93 -271.12z"/>
    <path fill="none" stroke="black" stroke-width="10.57" stroke-miterlimit="22.9256" d="M5305.7 1359.88l-87.37 0c0,33.31 -1.4,53.35 -1.4,86.67 18.77,54.77 27.85,96.52 31.72,184.65l57.05 0.02 0 -271.35z"/>
    <path fill="none" stroke="black" stroke-width="10.57" stroke-miterlimit="22.9256" d="M3961.2 929.87l0 -377.59c0,-18.42 -16.67,-33.47 -37.03,-33.47l-1282.75 0c-20.37,0 -37.03,15.05 -37.03,33.47l0 672.62c0,18.42 16.67,33.47 37.03,33.47"/>
    <path fill="none" stroke="black" stroke-width="10.57" stroke-miterlimit="22.9256" d="M5317.58 1258.71c20.81,0 37.83,-15.05 37.83,-33.44l0 -676.42c0,-18.4 -17.03,-33.44 -37.83,-33.44l-1318.55 0c-20.8,0 -37.82,15.04 -37.82,33.44"/>
    <path fill="none" stroke="black" stroke-width="10.57" stroke-miterlimit="22.9256" d="M2713.26 929.87c841.42,0 1665.2,0 2506.57,0 14.06,0 25.57,16.39 25.57,36.42l0 254.87c0,20 0.67,35.5 -13.36,35.5l-2533.19 1.72c-14.03,0 -11.16,-17.19 -11.16,-37.21l0 -254.87c0,-20.03 11.51,-36.42 25.57,-36.42z"/>
    <path fill="none" stroke="black" stroke-width="10.57" stroke-miterlimit="22.9256" d="M4254.39 610.33c-7.67,1.83 -8.83,22.44 -10.15,22.87 -30.95,10.07 -67.65,17.83 -82.14,41.4 -37.05,60.3 -50.63,147.88 -114.49,203.29 -38.37,33.28 -23.58,53.62 98.47,50.04 102.81,-3.01 269.89,0 372.3,0 142.68,0 274.92,0 416.68,0 99.98,0 149.6,-12.89 126.98,-35.27 -58.84,-58.24 -76.02,-141.28 -148.16,-228.98 -19.38,-23.54 -68.17,-27.15 -110.44,-29.68 -3.43,-11.52 -16.57,-17.68 -23.93,-19.43 -171.84,-40.59 -448.16,-22.57 -525.11,-4.25z"/>
    <path fill="none" stroke="black" stroke-width="10.57" stroke-miterlimit="22.9256" d="M4196.61 689.34c9.22,81.85 6.43,123.92 -56.43,202.76"/>
    <path fill="none" stroke="black" stroke-width="10.57" stroke-miterlimit="22.9256" d="M4864.95 687.28c-28.72,99.7 52.22,146.91 111.4,206.86"/>
    <path fill="none" stroke="black" stroke-width="10.57" stroke-miterlimit="22.9256" d="M4254.39 610.33c45.22,-26.99 548.11,-34.6 548.31,23.63 0.4,109.12 -44.68,92.66 47.74,239.47 28.94,45.96 6.6,54.56 -30.75,54.5 -92.03,-0.14 -173.3,-17.82 -280.15,-13.56 -95,3.8 -214.9,14.25 -278.69,13.56 -42.52,-0.45 -41.59,-15.85 -36.24,-28.36 86.67,-202.26 -6.23,-247.66 29.78,-289.24z"/>
    <path fill="none" stroke="black" stroke-width="10.57" stroke-miterlimit="22.9256" d="M3656.21 623.75c7.67,1.82 8.84,22.44 10.15,22.87 30.94,10.06 62.38,8.77 76.86,32.33 37.05,60.3 72.72,145.99 136.59,201.39 38.36,33.29 23.58,53.63 -98.47,50.05 -102.81,-3.01 -269.89,0 -372.3,0 -142.68,0 -274.92,0 -416.68,0 -99.98,0 -149.6,-12.9 -126.98,-35.28 58.84,-58.23 109.63,-120.16 148.16,-228.97 10.17,-28.74 68.17,-27.15 110.44,-29.69 3.43,-11.52 16.57,-17.68 23.93,-19.42 78.74,-18.6 173.39,-10.9 262.94,-8 105.88,3.42 203.68,4.8 245.36,14.72z"/>
    <path fill="none" stroke="black" stroke-width="10.57" stroke-miterlimit="22.9256" d="M3730.8 691.8c-9.22,81.84 -6.43,123.91 56.44,202.76"/>
    <path fill="none" stroke="black" stroke-width="10.57" stroke-miterlimit="22.9256" d="M3062.46 689.73c28.72,99.71 -52.22,146.91 -111.4,206.86"/>
    <path fill="none" stroke="black" stroke-width="10.57" stroke-miterlimit="22.9256" d="M3656.21 623.75c-19.87,-11.85 -133.93,-11.91 -245.36,-14.72 -142.25,-3.59 -286.03,-5.27 -286.14,27.38 -0.38,109.11 44.68,92.67 -47.74,239.48 -28.94,45.95 -6.59,54.56 30.75,54.5 92.03,-0.15 173.3,-17.83 280.15,-13.56 95,3.79 214.9,14.24 278.69,13.56 42.52,-0.45 41.59,-15.86 36.24,-28.36 -86.66,-202.26 -10.58,-236.7 -46.59,-278.28z"/>
   </g>
   <g>
    <rect fill="none" stroke="black" stroke-width="10.57" stroke-miterlimit="22.9256" x="3961.92" y="2533.32" width="1391.39" height="320.71" rx="126.71" ry="19.98"/>
    <rect fill="none" stroke="black" stroke-width="10.57" stroke-miterlimit="22.9256" x="2604.49" y="2533.32" width="1357.43" height="320.71" rx="123.62" ry="19.98"/>
    <path fill="none" stroke="black" stroke-width="10.57" stroke-miterlimit="22.9256" d="M2628.27 2854.34l2701.87 0c12.62,0 22.93,10.31 22.93,22.93l0 3186.85c0,51.45 -42.09,93.54 -93.54,93.54l-2560.66 0c-51.45,0 -93.54,-42.09 -93.54,-93.54l0 -3186.85c0,-12.62 10.31,-22.93 22.93,-22.93z"/>
    <rect fill="none" stroke="black" stroke-width="10.57" stroke-miterlimit="22.9256" x="2707.51" y="2854.03" width="2534.74" height="3207.11" rx="36.21" ry="31.21"/>
    <path fill="none" stroke="black" stroke-width="10.57" stroke-miterlimit="22.9256" d="M3153.02 2881.24c-4.94,1.48 -127.31,31.89 -132.76,43.11 -37.05,76.25 -26.97,211.33 -90.84,281.39 -38.36,42.09 -23.57,67.8 98.47,63.29 24.24,-0.9 79.06,-8.25 108.54,-4.54 2.1,0.26 -9.99,29.28 -1.25,38.49 3.84,4.03 14.93,8.3 20.89,8.58 79.02,3.69 194.79,-8.51 257.55,-11.49 108.28,-5.15 188.1,11.08 280.06,11.08 21.82,0 8.82,-43.08 8.82,-43.08 24.1,0 89.8,0.95 114.37,0.95 99.98,0 130.58,-4.64 107.99,-32.91 -58.83,-73.64 -82.06,-210.19 -120.57,-347.8 -4.61,-16.49 -103.85,-30.46 -126.33,-30.52 -107.54,-0.31 -214.12,-3.66 -303.67,0 -105.88,4.32 -179.59,10.91 -221.26,23.44z"/>
    <path fill="none" stroke="black" stroke-width="10.57" stroke-miterlimit="22.9256" d="M3091.76 2917.52c-56.62,16.86 8.5,30.61 9.76,72.34 2.63,86.82 -25.3,151.96 -79.53,235.28"/>
    <path fill="none" stroke="black" stroke-width="10.57" stroke-miterlimit="22.9256" d="M3748.92 2884.08c57.14,-0.75 -4.66,68.89 -6.21,81.48 -15.2,123.07 61.77,195.44 115.45,262.07"/>
    <path fill="none" stroke="black" stroke-width="10.57" stroke-miterlimit="22.9256" d="M3158.82 2952.65c19.87,-14.03 133.93,-14.1 245.36,-17.43 142.26,-4.24 286.04,-6.22 286.15,32.4 0.36,129.1 -31.1,137.72 6.36,277.68 15.92,59.47 14.28,64.46 -23.04,64.39 -92.02,-0.15 -139.65,-15.31 -246.47,-10.28 -94.98,4.48 -191.74,16.42 -255.52,15.62 -42.52,-0.53 -41.59,-18.77 -36.25,-33.55 86.66,-239.32 -12.59,-279.63 23.41,-328.83z"/>
    <path fill="none" stroke="black" stroke-width="10.57" stroke-miterlimit="22.9256" d="M3645.09 2995.82c-6.37,-27.79 -66.85,-18.75 -91.76,-18.75 -96.17,0 -196,-3.82 -290.26,7.75 -12.36,1.51 -65.97,-2.37 -77.83,28.87"/>
    <path fill="none" stroke="black" stroke-width="10.57" stroke-miterlimit="22.9256" d="M4780.66 2878.37c4.94,1.48 127.3,31.89 132.75,43.11 37.05,76.25 26.98,211.33 90.85,281.39 38.36,42.09 23.56,67.8 -98.47,63.29 -24.25,-0.9 -79.06,-8.25 -108.54,-4.54 -2.1,0.26 9.99,29.29 1.24,38.49 -3.84,4.03 -14.92,8.3 -20.88,8.58 -79.02,3.69 -194.8,-8.51 -257.56,-11.49 -108.28,-5.15 -188.09,11.09 -280.05,11.09 -21.83,0 -8.83,-43.09 -8.83,-43.09 -24.1,0 -89.8,0.95 -114.36,0.95 -99.98,0 -130.59,-4.63 -108,-32.91 58.84,-73.64 82.06,-210.19 120.57,-347.8 4.62,-16.49 103.85,-30.45 126.33,-30.52 107.55,-0.31 214.13,-3.65 303.68,0 105.87,4.33 179.58,10.91 221.26,23.44z"/>
    <path fill="none" stroke="black" stroke-width="10.57" stroke-miterlimit="22.9256" d="M4841.92 2914.64c56.61,16.87 -8.51,30.62 -9.77,72.34 -2.62,86.82 25.31,151.96 79.54,235.28"/>
    <path fill="none" stroke="black" stroke-width="10.57" stroke-miterlimit="22.9256" d="M4184.76 2881.2c-57.14,-0.75 4.66,68.89 6.21,81.48 15.19,123.07 -61.77,195.45 -115.46,262.07"/>
    <path fill="none" stroke="black" stroke-width="10.57" stroke-miterlimit="22.9256" d="M4774.86 2949.77c-19.86,-14.03 -133.93,-14.1 -245.36,-17.42 -142.25,-4.25 -286.03,-6.23 -286.14,32.39 -0.37,129.1 31.1,137.72 -6.36,277.68 -15.92,59.48 -14.28,64.46 23.04,64.4 92.02,-0.16 139.65,-15.31 246.47,-10.29 94.98,4.48 191.74,16.42 255.52,15.62 42.52,-0.53 41.59,-18.77 36.24,-33.55 -86.65,-239.32 12.59,-279.63 -23.41,-328.83z"/>
    <path fill="none" stroke="black" stroke-width="10.57" stroke-miterlimit="22.9256" d="M4288.58 2992.94c6.37,-27.79 66.85,-18.75 91.77,-18.75 96.17,0 196,-3.82 290.26,7.75 12.36,1.52 65.97,-2.37 77.82,28.88"/>
    <line fill="none" stroke="black" stroke-width="10.57" stroke-miterlimit="22.9256" x1="2707.52" y1="3964.44" x2="5242.25" y2= "3964.44" />
   </g>
   <g>
    <line fill="none" stroke="gray" stroke-width="10.57" stroke-miterlimit="22.9256" x1="5358.24" y1="6709" x2="5358.24" y2= "6355.96" />
    <line fill="none" stroke="gray" stroke-width="10.57" stroke-miterlimit="22.9256" x1="2591.37" y1="6705.53" x2="2591.37" y2= "6351.62" />
    <line fill="none" stroke="gray" stroke-width="10.57" stroke-miterlimit="22.9256" x1="5483.89" y1="6571.99" x2="2458.7" y2= "6571.99" />
   </g>
   <g>
    <line fill="none" stroke="gray" stroke-width="10.57" stroke-miterlimit="22.9256" x1="2110.84" y1="6158.33" x2="2463.88" y2= "6158.33" />
    <line fill="none" stroke="gray" stroke-width="10.57" stroke-miterlimit="22.9256" x1="2104.38" y1="2532.7" x2="2458.28" y2= "2532.7" />
    <line fill="none" stroke="gray" stroke-width="10.57" stroke-miterlimit="22.9256" x1="2243.51" y1="6270.15" x2="2237.91" y2= "2418.03" />
   </g>
   <g>
    <line fill="none" stroke="gray" stroke-width="10.57" stroke-miterlimit="22.9256" x1="2112.34" y1="1625.47" x2="2465.38" y2= "1625.47" />
    <line fill="none" stroke="gray" stroke-width="10.57" stroke-miterlimit="22.9256" x1="2245.01" y1="1757.1" x2="2245.01" y2= "372.5" />
    <line fill="none" stroke="gray" stroke-width="10.57" stroke-miterlimit="22.9256" x1="2123.32" y1="501.25" x2="2477.22" y2= "501.25" />
   </g>
   <path fill="#666666" fill-rule="nonzero" fill-opacity="0.800000" d="M1964.76 1361.42l144.76 72.86 0 22.12 -144.76 -73.1 -5.29 0 0 85.36 -18.28 0 0 -107.25 23.56 0zm-23.56 -31.75l0 -98.35 23.56 0 36.08 42.08 5.05 0c0.32,-14.91 4.97,-26.97 13.95,-36.19 8.97,-9.22 21.4,-13.83 37.26,-13.83 17.16,0 30.7,5.54 40.64,16.6 9.94,11.05 14.91,25.32 14.91,42.8 0,16.83 -4.73,30.62 -14.19,41.36 -9.45,10.73 -21.49,16.59 -36.07,17.55l0 -21.16c9.45,-0.97 17.07,-4.94 22.84,-11.9 5.77,-6.98 8.65,-15.6 8.65,-25.85 0,-11.7 -3.29,-21.01 -9.86,-27.9 -6.57,-6.89 -15.55,-10.33 -26.93,-10.33 -11.22,0 -20,3.29 -26.33,9.85 -6.33,6.58 -9.49,15.95 -9.49,28.14 0,5.93 0.48,10.82 1.44,14.67l-22.36 0 -35.59 -41.12 -5.29 0 0 73.58 -18.28 0zm168.33 -157.74l0 25 -27.89 0 0 -25 27.89 0zm-149.81 -41.84c-14.59,-11.22 -21.89,-26.21 -21.89,-44.97 0,-18.76 7.34,-33.79 22.01,-45.08 14.67,-11.3 36.51,-16.96 65.53,-16.96 29.02,0 50.82,5.66 65.41,16.96 14.59,11.29 21.89,26.32 21.89,45.08 0,18.76 -7.3,33.75 -21.89,44.97 -14.59,11.22 -36.39,16.84 -65.41,16.84 -29.18,0 -51.06,-5.62 -65.65,-16.84zm116.02 -14.43c12.1,-6.73 18.16,-16.91 18.16,-30.54 0,-13.62 -6.06,-23.84 -18.16,-30.66 -12.1,-6.81 -28.89,-10.21 -50.38,-10.21 -21.65,0 -38.51,3.41 -50.62,10.21 -12.1,6.82 -18.16,17.04 -18.16,30.66 0,13.63 6.06,23.81 18.16,30.54 12.1,6.74 28.97,10.1 50.62,10.1 21.49,0 38.27,-3.37 50.38,-10.1zm-2.77 -274.37l0 -20.44c12.19,2.41 21.85,8.05 28.98,16.95 7.14,8.9 10.7,20.25 10.7,34.03 0,18.28 -5.98,32.67 -17.92,43.17 -11.94,10.49 -27.21,15.75 -45.81,15.75 -18.76,0 -34.07,-5.22 -45.93,-15.63 -11.86,-10.42 -17.8,-24.85 -17.8,-43.29 0,-13.94 3.49,-25.28 10.46,-34.03 6.98,-8.73 16.23,-14.14 27.77,-16.23l0 20.45c-13.62,4.33 -20.44,14.26 -20.44,29.81 0,12.99 4.29,22.64 12.86,28.98 8.58,6.34 19.45,9.49 32.59,9.49 13.3,0 24.36,-3.2 33.19,-9.61 8.81,-6.42 13.22,-16.03 13.22,-28.86 0,-16.99 -7.3,-27.17 -21.89,-30.54zm36.56 -50.98l-121.2 0 0 -32.47 55.31 -29.81 0 -5.3 -55.31 -29.82 0 -31.98 121.2 0 0 19.96 -97.39 0 0 5.3 51.94 28.13 0 22.6 -51.94 28.13 0 5.3 97.39 0 0 19.96z"/>
   <path fill="#666666" fill-rule="nonzero" fill-opacity="0.800000" d="M1982.69 4803.86l0 21.17c-16.19,-0.97 -28.53,-6.62 -37.03,-16.96 -8.49,-10.33 -12.74,-23.36 -12.74,-39.07 0,-16.35 4.45,-29.54 13.35,-39.55 8.89,-10.02 21.52,-15.03 37.86,-15.03 19.89,0 40.16,12.42 60.84,37.26l35.6 42.33 5.29 0 0 -84.89 18.76 0 0 115.67 -23.8 0 -20.21 -24.77c-12.34,-15.39 -23.16,-28.13 -32.46,-38.23 -3.37,-3.85 -6.26,-6.94 -8.65,-9.25 -2.41,-2.33 -5.58,-4.98 -9.5,-7.93 -3.93,-2.97 -8.05,-5.22 -12.38,-6.74 -4.33,-1.53 -8.81,-2.29 -13.47,-2.29 -10.41,0 -18.43,3.05 -24.04,9.14 -5.61,6.09 -8.41,14.34 -8.41,24.76 0,9.78 2.61,17.68 7.81,23.68 5.21,6.02 12.94,9.58 23.2,10.7zm0 -139.95l0 21.17c-16.19,-0.97 -28.53,-6.62 -37.03,-16.96 -8.49,-10.33 -12.74,-23.36 -12.74,-39.07 0,-16.35 4.45,-29.54 13.35,-39.55 8.89,-10.02 21.52,-15.03 37.86,-15.03 19.89,0 40.16,12.42 60.84,37.26l35.6 42.33 5.29 0 0 -84.89 18.76 0 0 115.67 -23.8 0 -20.21 -24.77c-12.34,-15.39 -23.16,-28.13 -32.46,-38.23 -3.37,-3.85 -6.26,-6.94 -8.65,-9.25 -2.41,-2.33 -5.58,-4.98 -9.5,-7.93 -3.93,-2.97 -8.05,-5.22 -12.38,-6.74 -4.33,-1.53 -8.81,-2.29 -13.47,-2.29 -10.41,0 -18.43,3.05 -24.04,9.14 -5.61,6.09 -8.41,14.34 -8.41,24.76 0,9.78 2.61,17.68 7.81,23.68 5.21,6.02 12.94,9.58 23.2,10.7zm12.26 -184.44c0,-15.39 5.18,-28.21 15.51,-38.47 10.34,-10.25 23.44,-15.39 39.32,-15.39 16.51,0 30.3,5.18 41.35,15.51 11.06,10.34 16.6,24.25 16.6,41.72 0,19.08 -6.58,34.15 -19.72,45.21 -13.15,11.06 -34.15,16.6 -63.01,16.6 -27.09,0 -49.22,-5.42 -66.36,-16.24 -17.16,-10.82 -25.73,-26.73 -25.73,-47.73 0,-13.95 3.73,-25.37 11.18,-34.27 7.45,-8.9 17.11,-14.31 28.98,-16.23l0 20.92c-14.27,4.17 -21.41,14.03 -21.41,29.58 0,13.3 5.29,23.72 15.87,31.26 10.58,7.53 25.17,11.62 43.77,12.26l0 -5.29c-4.34,-3.53 -8.14,-8.69 -11.42,-15.51 -3.29,-6.82 -4.94,-14.79 -4.94,-23.93zm83.68 30.06c6.9,-7.06 10.34,-15.87 10.34,-26.45 0,-10.57 -3.37,-19.28 -10.1,-26.08 -6.74,-6.82 -16.11,-10.22 -28.13,-10.22 -12.02,0 -21.25,3.45 -27.65,10.34 -6.42,6.89 -9.62,15.71 -9.62,26.45 0,10.57 3.29,19.32 9.86,26.2 6.57,6.9 15.63,10.34 27.17,10.34 11.86,0 21.24,-3.53 28.13,-10.58zm25.97 -134.17l0 25 -27.89 0 0 -25 27.89 0zm-149.81 -41.84c-14.59,-11.22 -21.89,-26.21 -21.89,-44.97 0,-18.76 7.34,-33.79 22.01,-45.08 14.67,-11.3 36.51,-16.96 65.53,-16.96 29.02,0 50.82,5.66 65.41,16.96 14.59,11.29 21.89,26.32 21.89,45.08 0,18.76 -7.3,33.75 -21.89,44.97 -14.59,11.22 -36.39,16.84 -65.41,16.84 -29.18,0 -51.06,-5.62 -65.65,-16.84zm116.02 -14.43c12.1,-6.73 18.16,-16.91 18.16,-30.54 0,-13.62 -6.06,-23.84 -18.16,-30.66 -12.1,-6.81 -28.89,-10.21 -50.38,-10.21 -21.65,0 -38.51,3.41 -50.62,10.21 -12.1,6.82 -18.16,17.04 -18.16,30.66 0,13.63 6.06,23.81 18.16,30.54 12.1,6.74 28.97,10.1 50.62,10.1 21.49,0 38.27,-3.37 50.38,-10.1zm-2.77 -274.37l0 -20.44c12.19,2.41 21.85,8.05 28.98,16.95 7.14,8.9 10.7,20.25 10.7,34.03 0,18.28 -5.98,32.67 -17.92,43.17 -11.94,10.49 -27.21,15.75 -45.81,15.75 -18.76,0 -34.07,-5.22 -45.93,-15.63 -11.86,-10.42 -17.8,-24.85 -17.8,-43.29 0,-13.94 3.49,-25.28 10.46,-34.03 6.98,-8.73 16.23,-14.14 27.77,-16.23l0 20.45c-13.62,4.33 -20.44,14.26 -20.44,29.81 0,12.99 4.29,22.64 12.86,28.98 8.58,6.34 19.45,9.49 32.59,9.49 13.3,0 24.36,-3.2 33.19,-9.61 8.81,-6.42 13.22,-16.03 13.22,-28.86 0,-16.99 -7.3,-27.17 -21.89,-30.54zm36.56 -50.98l-121.2 0 0 -32.47 55.31 -29.81 0 -5.3 -55.31 -29.82 0 -31.98 121.2 0 0 19.96 -97.39 0 0 5.3 51.94 28.13 0 22.6 -51.94 28.13 0 5.3 97.39 0 0 19.96z"/>
   <path fill="#666666" fill-rule="nonzero" fill-opacity="0.800000" d="M3499.14 6897.04l0 -18.76 39.91 0 0 -127.44 -4.81 0 -35.35 23.8 0 -22.12 35.11 -23.8 26.21 0 0 149.57 36.79 0 0 18.76 -97.86 0zm226.04 -144.76l-72.86 144.76 -22.12 0 73.1 -144.76 0 -5.29 -85.36 0 0 -18.28 107.25 0 0 23.56zm46.66 22.84l-21.17 0c0.97,-16.19 6.62,-28.53 16.96,-37.03 10.33,-8.49 23.36,-12.74 39.07,-12.74 16.35,0 29.54,4.45 39.55,13.35 10.02,8.89 15.03,21.52 15.03,37.86 0,19.89 -12.42,40.16 -37.26,60.84l-42.33 35.6 0 5.29 84.89 0 0 18.76 -115.67 0 0 -23.8 24.77 -20.21c15.39,-12.34 28.13,-23.16 38.23,-32.46 3.85,-3.37 6.94,-6.26 9.25,-8.65 2.33,-2.41 4.98,-5.58 7.93,-9.5 2.97,-3.93 5.22,-8.05 6.74,-12.38 1.53,-4.33 2.29,-8.81 2.29,-13.47 0,-10.41 -3.05,-18.43 -9.14,-24.04 -6.09,-5.61 -14.34,-8.41 -24.76,-8.41 -9.78,0 -17.68,2.61 -23.68,7.81 -6.02,5.21 -9.58,12.94 -10.7,23.2zm149.57 121.92l-25 0 0 -27.89 25 0 0 27.89zm41.84 -149.81c11.22,-14.59 26.21,-21.89 44.97,-21.89 18.76,0 33.79,7.34 45.08,22.01 11.3,14.67 16.96,36.51 16.96,65.53 0,29.02 -5.66,50.82 -16.96,65.41 -11.29,14.59 -26.32,21.89 -45.08,21.89 -18.76,0 -33.75,-7.3 -44.97,-21.89 -11.22,-14.59 -16.84,-36.39 -16.84,-65.41 0,-29.18 5.62,-51.06 16.84,-65.65zm14.43 116.02c6.73,12.1 16.91,18.16 30.54,18.16 13.62,0 23.84,-6.06 30.66,-18.16 6.81,-12.1 10.21,-28.89 10.21,-50.38 0,-21.65 -3.41,-38.51 -10.21,-50.62 -6.82,-12.1 -17.04,-18.16 -30.66,-18.16 -13.63,0 -23.81,6.06 -30.54,18.16 -6.74,12.1 -10.1,28.97 -10.1,50.62 0,21.49 3.37,38.27 10.1,50.38zm274.37 -2.77l20.44 0c-2.41,12.19 -8.05,21.85 -16.95,28.98 -8.9,7.14 -20.25,10.7 -34.03,10.7 -18.28,0 -32.67,-5.98 -43.17,-17.92 -10.49,-11.94 -15.75,-27.21 -15.75,-45.81 0,-18.76 5.22,-34.07 15.63,-45.93 10.42,-11.86 24.85,-17.8 43.29,-17.8 13.94,0 25.28,3.49 34.03,10.46 8.73,6.98 14.14,16.23 16.23,27.77l-20.45 0c-4.33,-13.62 -14.26,-20.44 -29.81,-20.44 -12.99,0 -22.64,4.29 -28.98,12.86 -6.34,8.58 -9.49,19.45 -9.49,32.59 0,13.3 3.2,24.36 9.61,33.19 6.42,8.81 16.03,13.22 28.86,13.22 16.99,0 27.17,-7.3 30.54,-21.89zm50.98 36.56l0 -121.2 32.47 0 29.81 55.31 5.3 0 29.82 -55.31 31.98 0 0 121.2 -19.96 0 0 -97.39 -5.3 0 -28.13 51.94 -22.6 0 -28.13 -51.94 -5.3 0 0 97.39 -19.96 0z"/>
   <g>
    <path fill="black" fill-opacity="0.101961" d="M2406.48 8955.24c1005.55,0 2032.4,0 3037.96,0 -4.6,23.01 -43.64,35.08 -43.64,35.08 -990.17,0 -1954.17,-1.31 -2944.33,-1.31 -6.45,0.06 -40.03,-2.63 -49.99,-33.77z"/>
    <path fill="black" fill-opacity="0.101961" d="M6218.18 8952.85c1170.71,0 2366.21,0 3536.93,0 -5.35,23.01 -39.74,35.31 -39.74,35.31 -1152.79,0 -2293.52,0.27 -3446.32,0.27 -7.49,0.06 -39.27,-4.44 -50.87,-35.58z"/>
    <path fill="black" fill-opacity="0.101961" d="M3374.11 8875.89c-33.41,4.42 -53.37,20.71 -116.7,2.17 -17.59,-5.15 -143.67,-189.22 -130.51,-160.84 15.05,32.46 114.43,152.42 85.35,155.62 -70.19,7.72 -92.63,-10.51 -121.77,-32.06 -4.71,-3.47 17.26,38.17 12.29,37.53 -4.66,-0.59 -36.27,-43.55 -41.92,-45.74 -7.77,-3.01 -16.89,-9.4 -28.24,-24.28 -0.1,-0.13 25.45,56.34 14.44,68.07 -6.65,7.09 -46.58,-30.92 -57.08,-25.54 -47.71,24.44 -116.28,40.55 -86.72,39.69 58.76,-1.73 155.16,-1.29 226.77,-1.29 210.43,0 411.18,-3.57 623.82,-1.08 120.98,1.42 221.61,-4.12 348.12,-0.25 185.39,5.66 363.98,-0.29 537.76,-0.4 67.42,-0.04 289.83,-0.28 382.25,-0.28 -8.44,-8.37 -55.66,-11.45 -66.31,-20.92 -10.66,-9.47 -27.07,-15.45 -37.71,-23.82 -42.41,-33.36 -67.03,-59.21 -20.8,12.05 13.51,20.83 -45.99,-4.9 -81.23,11.99 -1.12,0.53 -105.44,18.74 -431.29,14.49 -38.3,-0.49 -54.34,-19.02 -87.02,-19.88 -20.3,-0.53 -150.32,-118.18 -165.23,-120.19 -14.67,-1.98 85.61,111.66 78.96,107.59 -52.83,-32.37 -56.29,21.27 -93.17,-5.75 -2.15,-1.57 -209.96,-242.56 -163.82,-180.95 24.11,32.21 126.2,156.97 77.57,194.17 -0.31,0.24 -42.32,29.19 -97.9,24.15 -51.48,-4.66 -100.64,-13.03 -145.39,-13.6 -56.84,-0.73 -55.05,15.75 -67.53,16.5 -293.82,17.85 -65.3,-44.49 -346.97,-7.18z"/>
    <path fill="black" fill-opacity="0.101961" d="M3026.83 8281.09c11.24,-1.42 37.7,29.29 43.5,39.35 63.79,110.58 -41.51,171.97 -96.4,226.61 -5.35,5.33 5.62,19.55 2.14,19.03 -2.7,-0.4 -15.92,-1.44 -34.6,-0.29 -37.48,2.3 -154.77,-6.83 -150.27,-9.2 48.86,-25.74 120.79,-47.3 177.39,-157.63 -11.79,105.67 -75.45,143.31 -37.62,139.01 27.84,-3.16 91.33,-54.2 103.98,-133.35 6.66,-41.6 -12.67,-122.94 -8.11,-123.52z"/>
    <path fill="black" fill-opacity="0.101961" d="M3555.12 8294.1c-11.24,-1.44 -23.5,17.18 -27.32,28.15 -38.94,111.67 29.08,172.69 65.19,226.51 4.2,6.27 -5.62,19.55 -2.14,19.03 2.69,-0.4 15.91,-1.44 34.59,-0.29 37.48,2.31 131.4,-4.7 126.87,-7.09 -48.86,-25.75 -123.66,-67.29 -135.59,-179.76 -17.99,107.08 57.06,163.34 19.23,159.01 -27.86,-3.18 -67.37,-60.07 -80.04,-139.22 -6.66,-41.6 3.79,-105.77 -0.79,-106.35z"/>
    <path fill="black" fill-opacity="0.101961" d="M4420.69 8563.43c-4.69,0.26 39.64,-44.84 171.24,-43.01 98.33,1.37 178.26,36.23 160.37,36.23 -26.52,0 -43.83,0.73 -70.13,-2.3 -21.88,-2.53 -110.62,-1.21 -134.41,1.53 -24.09,2.77 -83.68,5.05 -127.07,7.55z"/>
    <path fill="black" fill-opacity="0.101961" d="M3471.3 8566.23c4.67,0.27 -41.74,-34.92 -173.34,-33.09 -98.32,1.37 -176.16,26.3 -158.26,26.3 26.52,0 43.82,0.73 70.13,-2.3 21.87,-2.53 110.62,-1.21 134.41,1.53 24.09,2.77 83.67,5.07 127.06,7.55z"/>
    <path fill="black" fill-opacity="0.101961" d="M2994.67 10596.31c11.22,-1.74 37.7,35.92 43.5,48.22 63.76,135.48 1.32,135.99 -53.55,202.93 -5.33,6.5 -3.68,14.34 -2.82,10.93 23.69,-93.61 30.08,-99.33 19.34,-168.36 -7.9,-50.78 -11.01,-93.03 -6.47,-93.73z"/>
    <path fill="black" fill-opacity="0.101961" d="M3003.68 10769.42c-11.69,3.43 -18.63,78.16 -81.41,65.62 -41.02,-8.19 -88.67,19.76 -164.98,8.04 52.69,23.11 105.46,18.6 110.53,18.88 24.3,1.33 65.82,-3.18 113.98,-3.56l21.88 -88.98z"/>
    <path fill="black" fill-opacity="0.101961" d="M3504.57 10762.91c11.69,3.43 18.63,78.16 81.41,65.62 41.02,-8.19 87.34,28.59 163.66,16.88 -52.69,23.11 -104.14,9.76 -109.22,10.04 -24.3,1.32 -65.83,-3.19 -113.98,-3.57l-21.88 -88.97z"/>
    <path fill="black" fill-opacity="0.101961" d="M4366.27 10766.82c-11.69,3.44 -18.63,78.16 -81.41,65.62 -41.02,-8.19 -88.67,19.76 -164.98,8.04 52.69,23.11 105.46,18.6 110.53,18.88 24.3,1.33 65.82,-3.18 113.98,-3.56l21.88 -88.98z"/>
    <path fill="black" fill-opacity="0.101961" d="M4867.15 10760.31c11.69,3.43 18.63,78.16 81.41,65.62 41.02,-8.19 87.34,28.59 163.66,16.88 -52.69,23.11 -104.14,9.76 -109.22,10.04 -24.3,1.33 -65.83,-3.18 -113.98,-3.57l-21.88 -88.97z"/>
    <path fill="black" fill-opacity="0.101961" d="M4874.58 10625.34c-11.83,0.14 -26.2,31.11 -31.98,43.4 -63.75,135.47 -4.98,109.71 49.9,176.63 5.32,6.5 3.67,14.35 2.81,10.95 -23.67,-93.61 -33.43,-89.19 -31.4,-161.79 1.44,-51.35 15.25,-69.25 10.67,-69.19z"/>
    <path fill="black" fill-opacity="0.101961" d="M4817.47 10582.56c18.29,-6.68 -161.77,-16.98 -179.89,-12.17 -35.18,9.3 -134.97,-3.02 -221.2,3.4 173.68,50.31 201.15,81.73 401.09,8.77z"/>
    <path fill="black" fill-opacity="0.101961" d="M4357.25 10593.72c11.22,-1.74 37.7,35.92 43.5,48.23 63.76,135.47 1.32,135.98 -53.55,202.92 -5.33,6.51 -3.68,14.35 -2.82,10.93 23.69,-93.61 30.08,-99.33 19.34,-168.36 -7.9,-50.78 -11.01,-93.03 -6.47,-93.73z"/>
    <path fill="black" fill-opacity="0.101961" d="M3454.88 10585.16c18.29,-6.68 -161.77,-16.98 -179.89,-12.18 -35.18,9.31 -134.97,-3.02 -221.2,3.41 173.68,50.31 201.15,81.72 401.09,8.77z"/>
    <path fill="black" fill-opacity="0.101961" d="M6945 8569.35c3.8,2.68 -14.02,-56.26 -101.1,-154.93 -65.06,-73.7 -139,-123.08 -127.38,-109.48 17.2,20.17 13.87,24.43 33.76,42.02 16.53,14.64 72.91,83.22 85.8,103.48 13.04,20.54 85.31,102.22 108.93,118.91z"/>
    <path fill="black" fill-opacity="0.101961" d="M4318.25 8277.54c11.26,-1.44 21.53,18.09 27.33,28.16 63.79,110.58 8.33,185.6 -46.56,240.25 -5.36,5.33 5.62,19.55 2.14,19.03 -2.7,-0.4 -15.91,-1.45 -34.6,-0.3 -37.48,2.31 -131.39,-4.69 -126.87,-7.08 48.87,-25.76 123.66,-67.3 135.59,-179.76 17.99,107.08 -57.06,163.33 -19.22,159.01 27.85,-3.18 67.35,-60.07 80.03,-139.22 6.66,-41.61 -22.41,-119.51 -17.84,-120.1z"/>
    <path fill="black" fill-opacity="0.101961" d="M4865.17 8278.28c-11.25,-1.43 -21.53,18.09 -27.33,28.16 -63.79,110.58 25.33,183.16 80.24,237.8 5.35,5.33 -5.62,19.55 -2.14,19.03 2.69,-0.4 15.91,-1.45 34.59,-0.3 37.48,2.31 154.78,-6.82 150.28,-9.19 -48.86,-25.75 -120.8,-47.3 -177.4,-157.63 11.8,105.66 75.46,143.31 37.63,139.01 -27.84,-3.17 -91.33,-54.21 -103.99,-133.35 -6.66,-41.6 12.69,-122.94 8.12,-123.52z"/>
    <path fill="black" fill-opacity="0.101961" d="M3512 10627.94c-11.83,0.14 -26.2,31.1 -31.98,43.4 -63.75,135.47 -4.98,109.7 49.9,176.63 5.32,6.5 3.67,14.35 2.81,10.94 -23.67,-93.61 -33.43,-89.19 -31.4,-161.78 1.44,-51.35 15.25,-69.25 10.67,-69.19z"/>
   </g>
   <g>
    <g>
     <rect fill="none" stroke="black" stroke-width="10.57" stroke-miterlimit="22.9256" x="6221.2" y="8887.91" width="3530.95" height="100.51" rx="169.72" ry="41.5"/>
     <rect fill="none" stroke="black" stroke-width="10.57" stroke-miterlimit="22.9256" x="6357.94" y="8990.05" width="3263.36" height="85.95"/>
     <path fill="none" stroke="black" stroke-width="10.57" stroke-miterlimit="22.9256" d="M6271.17 8989.42l85.15 0c0,32.47 1.36,52 1.36,84.47 -18.29,53.38 -27.04,91.82 -30.81,177.71l-55.7 -0.01 0 -262.17z"/>
     <path fill="none" stroke="black" stroke-width="10.57" stroke-miterlimit="22.9256" d="M9707.52 8990.83l-85.15 0c0,32.46 -1.36,52 -1.36,84.47 18.29,53.37 27.1,93.19 30.87,179.07l55.64 0.11 0 -263.65z"/>
     <rect fill="none" stroke="black" stroke-width="10.57" stroke-miterlimit="22.9256" x="6221.65" y="8165.63" width="312.55" height="720.75" rx="28.46" ry="44.91"/>
     <path fill="none" stroke="black" stroke-width="10.57" stroke-miterlimit="22.9256" d="M6565.35 8569.35c1024.55,0 2027.64,0 3052.13,0 17.13,0 31.15,15.98 31.15,35.49l0 248.39c0,19.52 -14.02,35.49 -31.15,35.49l-3052.13 0c-17.13,0 -31.15,-15.97 -31.15,-35.49l0 -248.39c0,-19.52 14.02,-35.49 31.15,-35.49z"/>
     <path fill="none" stroke="black" stroke-width="10.57" stroke-miterlimit="22.9256" d="M6536.7 8231.4c-14.09,130.59 74.79,208.15 56.01,300.37 -3.52,17.34 86.36,38.18 157.75,37.59 31.27,-0.26 75.46,-1.61 103.33,-1.37 11.67,0.09 54.34,-24.53 52.42,-26.78 -27.44,-32.01 -46.66,-56.76 -122.62,-151.87 -10.37,-12.97 -49.55,-56.39 -76.55,-94 -43.99,-61.29 -145.46,-88.77 -170.35,-63.95z"/>
     <path fill="none" stroke="black" stroke-width="10.57" stroke-miterlimit="22.9256" d="M6710.25 8297.38c-21.71,-34.89 63.34,-54.21 84.49,-33.91 65.89,63.27 240.27,218.88 235.11,292.77 -1.31,18.73 -70.65,19.48 -86.75,12.4 -40.56,-17.88 -161.55,-185.81 -232.85,-271.27z"/>
     <path fill="none" stroke="black" stroke-width="10.57" stroke-miterlimit="22.9256" d="M6560.61 8274.43c55.17,108.06 208.93,209.77 248.01,272.59"/>
     <line fill="none" stroke="black" stroke-width="10.57" stroke-miterlimit="22.9256" x1="7585.65" y1="8569.36" x2="7584.6" y2= "8887.9" />
    </g>
    <g>
     <rect fill="none" stroke="black" stroke-width="10.57" stroke-miterlimit="22.9256" x="2408.01" y="8892.64" width="3037.33" height="96.37" rx="146" ry="39.79"/>
     <rect fill="none" stroke="black" stroke-width="10.57" stroke-miterlimit="22.9256" x="2536.07" y="8989.82" width="2766.44" height="86.37"/>
     <path fill="none" stroke="black" stroke-width="10.57" stroke-miterlimit="22.9256" d="M2448.78 8989.91l85.57 0c0,32.62 1.36,52.26 1.36,84.88 -18.37,53.64 -27.27,94.53 -31.06,180.84l-54.95 -0.21 -0.92 -265.51z"/>
     <path fill="none" stroke="black" stroke-width="10.57" stroke-miterlimit="22.9256" d="M5389.06 8988.83l-85.55 0c0,32.62 -1.37,52.25 -1.37,84.88 18.38,53.64 27.27,94.53 31.06,180.84l55.86 0.01 0 -265.73z"/>
     <path fill="none" stroke="black" stroke-width="10.57" stroke-miterlimit="22.9256" d="M3919.61 8570.62l0 -369.8c0,-18.03 -18.14,-32.77 -40.28,-32.77l-1395.49 0c-22.15,0 -40.28,14.74 -40.28,32.77l0 658.72c0,18.03 18.13,32.78 40.28,32.78"/>
     <path fill="none" stroke="black" stroke-width="10.57" stroke-miterlimit="22.9256" d="M5399.16 8892.65c22.74,0 41.35,-14.74 41.35,-32.75l0 -662.44c0,-18.01 -18.61,-32.74 -41.35,-32.74l-1441.34 0c-22.73,0 -41.35,14.73 -41.35,32.74"/>
     <path fill="none" stroke="black" stroke-width="10.57" stroke-miterlimit="22.9256" d="M2553.29 8570.62c925.39,0 1831.39,0 2756.72,0 15.47,0 28.12,16.05 28.12,35.66l0 249.6c0,19.59 0.75,34.76 -14.69,34.76l-2786 1.68c-15.43,0 -12.28,-16.83 -12.28,-36.44l0 -249.6c0,-19.61 12.66,-35.66 28.13,-35.66z"/>
     <path fill="none" stroke="black" stroke-width="10.57" stroke-miterlimit="22.9256" d="M4328.19 8255.14c-7.51,1.79 -8.65,21.98 -9.94,22.39 -30.31,9.87 -66.26,17.47 -80.45,40.54 -36.3,59.06 -49.58,144.83 -112.12,199.09 -37.57,32.6 -23.09,52.51 96.43,49.01 100.68,-2.95 264.3,0 364.6,0 139.74,0 269.25,0 408.05,0 97.92,0 146.51,-12.63 124.37,-34.55 -57.63,-57.03 -74.44,-138.36 -145.09,-224.25 -18.98,-23.05 -66.77,-26.58 -108.16,-29.07 -3.36,-11.28 -16.22,-17.31 -23.44,-19.02 -168.29,-39.75 -438.88,-22.1 -514.25,-4.16z"/>
     <path fill="none" stroke="black" stroke-width="10.57" stroke-miterlimit="22.9256" d="M4271.6 8332.53c9.04,80.16 6.31,121.34 -55.26,198.57"/>
     <path fill="none" stroke="black" stroke-width="10.57" stroke-miterlimit="22.9256" d="M4926.12 8330.5c-28.12,97.64 51.14,143.87 109.11,202.58"/>
     <path fill="none" stroke="black" stroke-width="10.57" stroke-miterlimit="22.9256" d="M4328.19 8255.14c44.29,-26.44 536.78,-33.89 536.98,23.13 0.38,106.87 -43.76,90.75 46.75,234.53 28.34,45 6.46,53.42 -30.12,53.37 -90.12,-0.14 -169.71,-17.46 -274.35,-13.28 -93.03,3.72 -210.46,13.95 -272.92,13.28 -41.65,-0.45 -40.74,-15.52 -35.5,-27.77 84.88,-198.09 -6.09,-242.55 29.17,-283.27z"/>
     <path fill="none" stroke="black" stroke-width="10.57" stroke-miterlimit="22.9256" d="M3547.34 8268.7c7.51,1.78 8.66,21.99 9.94,22.39 30.3,9.86 61.09,8.59 75.26,31.66 36.3,59.06 71.22,142.98 133.78,197.24 37.56,32.6 23.08,52.51 -96.44,49.01 -100.68,-2.95 -264.3,0 -364.6,0 -139.73,0 -269.24,0 -408.05,0 -97.91,0 -146.51,-12.63 -124.37,-34.54 57.63,-57.03 107.37,-117.68 145.1,-224.25 9.96,-28.15 66.76,-26.59 108.15,-29.08 3.37,-11.27 16.23,-17.31 23.44,-19.02 77.11,-18.21 169.8,-10.67 257.51,-7.83 103.69,3.35 199.46,4.7 240.29,14.42z"/>
     <path fill="none" stroke="black" stroke-width="10.57" stroke-miterlimit="22.9256" d="M3620.39 8335.34c-9.03,80.16 -6.3,121.35 55.26,198.57"/>
     <path fill="none" stroke="black" stroke-width="10.57" stroke-miterlimit="22.9256" d="M2965.88 8333.32c28.12,97.64 -51.15,143.87 -109.11,202.57"/>
     <path fill="none" stroke="black" stroke-width="10.57" stroke-miterlimit="22.9256" d="M3547.34 8268.7c-19.45,-11.61 -131.16,-11.67 -240.29,-14.42 -139.32,-3.51 -280.12,-5.16 -280.22,26.81 -0.38,106.86 43.75,90.75 -46.76,234.53 -28.34,45 -6.45,53.43 30.12,53.37 90.12,-0.14 169.71,-17.46 274.35,-13.28 93.03,3.71 210.47,13.95 272.92,13.28 41.65,-0.44 40.74,-15.53 35.5,-27.77 -84.87,-198.08 -10.36,-231.8 -45.63,-272.52z"/>
    </g>
    <g>
     <rect fill="none" stroke="black" stroke-width="10.57" stroke-miterlimit="22.9256" x="3914.85" y="10140.91" width="1525.01" height="314.08" rx="138.88" ry="19.57"/>
     <rect fill="none" stroke="black" stroke-width="10.57" stroke-miterlimit="22.9256" x="2443.65" y="10140.91" width="1471.2" height="314.08" rx="133.98" ry="19.57"/>
     <path fill="none" stroke="black" stroke-width="10.57" stroke-miterlimit="22.9256" d="M2469.49 10455.3l2946.3 0c13.76,0 25.01,11.25 25.01,25.01l0 3107.99c0,56.11 -45.9,102.01 -102,102.01l-2792.32 0c-56.1,0 -102,-45.9 -102,-102.01l0 -3107.99c0,-13.76 11.25,-25.01 25.01,-25.01z"/>
     <rect fill="none" stroke="black" stroke-width="10.57" stroke-miterlimit="22.9256" x="2544.55" y="10454.99" width="2793.64" height="3140.79" rx="39.91" ry="30.56"/>
     <path fill="none" stroke="black" stroke-width="10.57" stroke-miterlimit="22.9256" d="M3519.92 10479.55c4.84,1.45 124.68,31.24 130.01,42.22 36.29,74.68 26.42,206.95 88.96,275.57 37.57,41.22 23.08,66.39 -96.43,61.98 -23.74,-0.88 -77.42,-8.08 -106.29,-4.45 -2.06,0.26 9.78,28.68 1.22,37.7 -3.76,3.94 -14.62,8.13 -20.45,8.4 -77.39,3.61 -190.77,-8.33 -252.23,-11.25 -106.04,-5.04 -184.2,10.85 -274.26,10.85 -21.38,0 -8.65,-42.19 -8.65,-42.19 -23.6,0 -87.94,0.93 -111.99,0.93 -97.91,0 -127.89,-4.54 -105.76,-32.23 57.61,-72.11 80.37,-205.84 118.07,-340.62 4.52,-16.14 101.7,-29.82 123.73,-29.88 105.32,-0.31 209.7,-3.58 297.4,0 103.68,4.23 175.87,10.68 216.68,22.95z"/>
     <path fill="none" stroke="black" stroke-width="10.57" stroke-miterlimit="22.9256" d="M3579.91 10515.08c55.45,16.52 -8.32,29.98 -9.56,70.84 -2.57,85.03 24.78,148.82 77.89,230.42"/>
     <path fill="none" stroke="black" stroke-width="10.57" stroke-miterlimit="22.9256" d="M2936.34 10482.34c-55.96,-0.74 4.57,67.46 6.08,79.79 14.88,120.54 -60.49,191.41 -113.06,256.67"/>
     <path fill="none" stroke="black" stroke-width="10.57" stroke-miterlimit="22.9256" d="M3514.24 10549.48c-19.46,-13.73 -131.16,-13.81 -240.3,-17.06 -139.32,-4.15 -280.11,-6.09 -280.22,31.72 -0.36,126.43 30.45,134.88 -6.23,271.95 -15.59,58.24 -13.98,63.12 22.56,63.06 90.12,-0.15 136.76,-14.99 241.39,-10.07 93.01,4.38 187.77,16.08 250.22,15.29 41.65,-0.52 40.74,-18.38 35.5,-32.85 -84.86,-234.37 12.33,-273.85 -22.92,-322.03z"/>
     <path fill="none" stroke="black" stroke-width="10.57" stroke-miterlimit="22.9256" d="M3038.02 10591.77c6.24,-27.23 65.47,-18.37 89.86,-18.37 94.2,0 191.95,-3.74 284.27,7.59 12.1,1.48 64.6,-2.32 76.21,28.28"/>
     <path fill="none" stroke="black" stroke-width="10.57" stroke-miterlimit="22.9256" d="M4882.5 10476.96c4.84,1.45 124.68,31.24 130.01,42.22 36.29,74.68 26.42,206.96 88.97,275.57 37.56,41.22 23.07,66.4 -96.44,61.98 -23.74,-0.88 -77.42,-8.08 -106.29,-4.45 -2.06,0.26 9.78,28.68 1.22,37.7 -3.76,3.94 -14.62,8.13 -20.45,8.4 -77.39,3.61 -190.77,-8.33 -252.23,-11.25 -106.04,-5.04 -184.2,10.85 -274.26,10.85 -21.38,0 -8.65,-42.19 -8.65,-42.19 -23.59,0 -87.94,0.93 -111.99,0.93 -97.91,0 -127.89,-4.54 -105.76,-32.23 57.61,-72.11 80.37,-205.84 118.07,-340.61 4.52,-16.15 101.7,-29.83 123.73,-29.89 105.32,-0.31 209.7,-3.58 297.4,0 103.68,4.23 175.87,10.68 216.68,22.95z"/>
     <path fill="none" stroke="black" stroke-width="10.57" stroke-miterlimit="22.9256" d="M4942.49 10512.48c55.45,16.52 -8.32,29.98 -9.56,70.84 -2.57,85.03 24.78,148.82 77.89,230.42"/>
     <path fill="none" stroke="black" stroke-width="10.57" stroke-miterlimit="22.9256" d="M4298.92 10479.74c-55.96,-0.74 4.57,67.46 6.08,79.8 14.88,120.53 -60.49,191.4 -113.06,256.66"/>
     <path fill="none" stroke="black" stroke-width="10.57" stroke-miterlimit="22.9256" d="M4876.83 10546.89c-19.46,-13.74 -131.16,-13.81 -240.3,-17.07 -139.32,-4.15 -280.11,-6.09 -280.22,31.72 -0.36,126.43 30.45,134.88 -6.23,271.95 -15.59,58.25 -13.98,63.12 22.56,63.06 90.12,-0.15 136.76,-14.99 241.39,-10.07 93.01,4.39 187.77,16.08 250.22,15.3 41.65,-0.52 40.74,-18.38 35.5,-32.86 -84.86,-234.36 12.33,-273.85 -22.92,-322.02z"/>
     <path fill="none" stroke="black" stroke-width="10.57" stroke-miterlimit="22.9256" d="M4400.6 10589.17c6.24,-27.22 65.47,-18.37 89.86,-18.37 94.2,0 191.95,-3.74 284.27,7.59 12.1,1.48 64.6,-2.32 76.21,28.28"/>
     <line fill="none" stroke="black" stroke-width="10.57" stroke-miterlimit="22.9256" x1="2544.55" y1="11542.43" x2="5338.2" y2= "11542.43" />
    </g>
   </g>
   <g>
    <g>
     <line fill="none" stroke="gray" stroke-width="10.57" stroke-miterlimit="22.9256" x1="5438.95" y1="14227.09" x2="5438.95" y2= "13881.34" />
     <line fill="none" stroke="gray" stroke-width="10.57" stroke-miterlimit="22.9256" x1="2430.81" y1="14226.85" x2="2430.81" y2= "13880.25" />
     <line fill="none" stroke="gray" stroke-width="10.57" stroke-miterlimit="22.9256" x1="5561.27" y1="14096.07" x2="2300.88" y2= "14096.07" />
    </g>
    <g>
     <line fill="none" stroke="gray" stroke-width="10.57" stroke-miterlimit="22.9256" x1="1960.21" y1="13690.96" x2="2305.95" y2= "13690.96" />
     <line fill="none" stroke="gray" stroke-width="10.57" stroke-miterlimit="22.9256" x1="1953.88" y1="10140.3" x2="2300.47" y2= "10140.3" />
     <line fill="none" stroke="gray" stroke-width="10.57" stroke-miterlimit="22.9256" x1="2090.13" y1="13800.48" x2="2084.65" y2= "10028" />
    </g>
    <g>
     <line fill="none" stroke="gray" stroke-width="10.57" stroke-miterlimit="22.9256" x1="1961.68" y1="9251.83" x2="2307.42" y2= "9251.83" />
     <line fill="none" stroke="gray" stroke-width="10.57" stroke-miterlimit="22.9256" x1="2091.61" y1="9380.74" x2="2091.61" y2= "8024.76" />
     <line fill="none" stroke="gray" stroke-width="10.57" stroke-miterlimit="22.9256" x1="1972.43" y1="8150.86" x2="2319.02" y2= "8150.86" />
    </g>
   </g>
   <g>
    <path fill="#666666" fill-rule="nonzero" fill-opacity="0.800000" d="M1817.16 8993.22l141.76 71.36 0 21.66 -141.76 -71.58 -5.19 0 0 83.59 -17.9 0 0 -105.03 23.08 0zm-23.08 -31.09l0 -96.31 23.08 0 35.33 41.21 4.94 0c0.32,-14.6 4.87,-26.41 13.66,-35.44 8.79,-9.03 20.97,-13.54 36.51,-13.54 16.8,0 30.06,5.42 39.79,16.25 9.73,10.83 14.6,24.8 14.6,41.91 0,16.49 -4.63,29.99 -13.89,40.5 -9.26,10.52 -21.04,16.25 -35.33,17.2l0 -20.73c9.26,-0.94 16.72,-4.83 22.37,-11.66 5.65,-6.83 8.47,-15.26 8.47,-25.31 0,-11.46 -3.22,-20.57 -9.65,-27.31 -6.44,-6.76 -15.23,-10.13 -26.37,-10.13 -10.99,0 -19.59,3.22 -25.79,9.66 -6.2,6.44 -9.29,15.62 -9.29,27.55 0,5.81 0.47,10.59 1.41,14.36l-21.91 0 -34.85 -40.27 -5.19 0 0 72.06 -17.9 0zm164.85 -154.48l0 24.48 -27.32 0 0 -24.48 27.32 0zm-146.71 -40.98c-14.29,-10.98 -21.43,-25.66 -21.43,-44.03 0,-18.37 7.18,-33.09 21.55,-44.16 14.36,-11.06 35.76,-16.6 64.17,-16.6 28.42,0 49.77,5.54 64.06,16.6 14.29,11.07 21.43,25.79 21.43,44.16 0,18.37 -7.14,33.05 -21.43,44.03 -14.29,10.99 -35.64,16.49 -64.06,16.49 -28.57,0 -50,-5.5 -64.29,-16.49zm113.62 -14.13c11.85,-6.59 17.78,-16.56 17.78,-29.9 0,-13.35 -5.93,-23.35 -17.78,-30.03 -11.85,-6.67 -28.3,-10 -49.34,-10 -21.2,0 -37.71,3.34 -49.57,10 -11.85,6.68 -17.78,16.68 -17.78,30.03 0,13.34 5.93,23.31 17.78,29.9 11.85,6.6 28.37,9.89 49.57,9.89 21.04,0 37.48,-3.3 49.34,-9.89zm-2.71 -268.69l0 -20.02c11.93,2.36 21.4,7.88 28.38,16.6 6.99,8.71 10.47,19.83 10.47,33.33 0,17.9 -5.85,31.99 -17.54,42.27 -11.7,10.28 -26.65,15.42 -44.86,15.42 -18.37,0 -33.37,-5.1 -44.98,-15.31 -11.62,-10.2 -17.43,-24.33 -17.43,-42.38 0,-13.66 3.42,-24.76 10.24,-33.33 6.83,-8.55 15.9,-13.85 27.2,-15.89l0 20.02c-13.35,4.24 -20.02,13.97 -20.02,29.2 0,12.71 4.2,22.17 12.59,28.37 8.4,6.21 19.04,9.3 31.91,9.3 13.03,0 23.86,-3.14 32.5,-9.41 8.64,-6.29 12.96,-15.7 12.96,-28.26 0,-16.65 -7.15,-26.61 -21.44,-29.91zm35.8 -49.92l-118.69 0 0 -31.8 54.16 -29.2 0 -5.18 -54.16 -29.2 0 -31.32 118.69 0 0 19.55 -95.38 0 0 5.18 50.87 27.55 0 22.13 -50.87 27.55 0 5.19 95.38 0 0 19.55z"/>
    <path fill="#666666" fill-rule="nonzero" fill-opacity="0.800000" d="M1834.72 12364.49l0 20.73c-15.86,-0.94 -27.95,-6.48 -36.27,-16.6 -8.32,-10.13 -12.48,-22.88 -12.48,-38.27 0,-16.01 4.36,-28.92 13.06,-38.73 8.71,-9.81 21.09,-14.72 37.09,-14.72 19.47,0 39.32,12.17 59.58,36.51l34.85 41.44 5.19 0 0 -83.12 18.37 0 0 113.26 -23.31 0 -19.78 -24.25c-12.09,-15.07 -22.68,-27.55 -31.8,-37.44 -3.3,-3.77 -6.12,-6.79 -8.47,-9.06 -2.36,-2.28 -5.46,-4.87 -9.3,-7.76 -3.85,-2.91 -7.88,-5.11 -12.12,-6.6 -4.25,-1.5 -8.63,-2.24 -13.19,-2.24 -10.2,0 -18.06,2.98 -23.55,8.94 -5.49,5.97 -8.23,14.05 -8.23,24.26 0,9.57 2.55,17.31 7.65,23.19 5.1,5.89 12.67,9.37 22.72,10.47zm0 -137.06l0 20.73c-15.86,-0.94 -27.95,-6.48 -36.27,-16.6 -8.32,-10.13 -12.48,-22.88 -12.48,-38.27 0,-16.01 4.36,-28.92 13.06,-38.73 8.71,-9.81 21.09,-14.72 37.09,-14.72 19.47,0 39.32,12.17 59.58,36.51l34.85 41.44 5.19 0 0 -83.12 18.37 0 0 113.26 -23.31 0 -19.78 -24.25c-12.09,-15.07 -22.68,-27.55 -31.8,-37.44 -3.3,-3.77 -6.12,-6.79 -8.47,-9.06 -2.36,-2.28 -5.46,-4.87 -9.3,-7.76 -3.85,-2.91 -7.88,-5.11 -12.12,-6.6 -4.25,-1.5 -8.63,-2.24 -13.19,-2.24 -10.2,0 -18.06,2.98 -23.55,8.94 -5.49,5.97 -8.23,14.05 -8.23,24.26 0,9.57 2.55,17.31 7.65,23.19 5.1,5.89 12.67,9.37 22.72,10.47zm12 -180.62c0,-15.07 5.07,-27.63 15.19,-37.68 10.13,-10.04 22.96,-15.07 38.5,-15.07 16.17,0 29.67,5.07 40.5,15.19 10.83,10.12 16.25,23.74 16.25,40.86 0,18.68 -6.44,33.44 -19.31,44.27 -12.87,10.83 -33.44,16.25 -61.7,16.25 -26.53,0 -48.2,-5.3 -65,-15.9 -16.8,-10.59 -25.19,-26.17 -25.19,-46.74 0,-13.66 3.65,-24.84 10.94,-33.56 7.31,-8.71 16.76,-14.01 28.38,-15.9l0 20.49c-13.97,4.09 -20.96,13.74 -20.96,28.97 0,13.03 5.18,23.23 15.54,30.61 10.36,7.37 24.64,11.38 42.86,12.01l0 -5.19c-4.24,-3.45 -7.97,-8.51 -11.19,-15.18 -3.22,-6.68 -4.83,-14.49 -4.83,-23.43zm81.95 29.43c6.76,-6.91 10.12,-15.54 10.12,-25.9 0,-10.36 -3.3,-18.88 -9.88,-25.55 -6.6,-6.67 -15.78,-10 -27.56,-10 -11.77,0 -20.8,3.38 -27.08,10.12 -6.28,6.76 -9.41,15.39 -9.41,25.9 0,10.36 3.22,18.92 9.65,25.67 6.44,6.76 15.31,10.12 26.61,10.12 11.61,0 20.8,-3.45 27.55,-10.36zm25.43 -131.4l0 24.48 -27.32 0 0 -24.48 27.32 0zm-146.71 -40.98c-14.29,-10.98 -21.43,-25.66 -21.43,-44.03 0,-18.37 7.18,-33.09 21.55,-44.16 14.36,-11.06 35.76,-16.6 64.17,-16.6 28.42,0 49.77,5.54 64.06,16.6 14.29,11.07 21.43,25.79 21.43,44.16 0,18.37 -7.14,33.05 -21.43,44.03 -14.29,10.99 -35.64,16.49 -64.06,16.49 -28.57,0 -50,-5.5 -64.29,-16.49zm113.62 -14.13c11.85,-6.59 17.78,-16.56 17.78,-29.9 0,-13.35 -5.93,-23.35 -17.78,-30.03 -11.85,-6.67 -28.3,-10 -49.34,-10 -21.2,0 -37.71,3.34 -49.57,10 -11.85,6.68 -17.78,16.68 -17.78,30.03 0,13.34 5.93,23.31 17.78,29.9 11.85,6.6 28.37,9.89 49.57,9.89 21.04,0 37.48,-3.3 49.34,-9.89zm-2.71 -268.69l0 -20.02c11.93,2.36 21.4,7.88 28.38,16.6 6.99,8.71 10.47,19.83 10.47,33.33 0,17.9 -5.85,31.99 -17.54,42.27 -11.7,10.28 -26.65,15.42 -44.86,15.42 -18.37,0 -33.37,-5.1 -44.98,-15.31 -11.62,-10.2 -17.43,-24.33 -17.43,-42.38 0,-13.66 3.42,-24.76 10.24,-33.33 6.83,-8.55 15.9,-13.85 27.2,-15.89l0 20.02c-13.35,4.24 -20.02,13.97 -20.02,29.2 0,12.71 4.2,22.17 12.59,28.37 8.4,6.21 19.04,9.3 31.91,9.3 13.03,0 23.86,-3.14 32.5,-9.41 8.64,-6.29 12.96,-15.7 12.96,-28.26 0,-16.65 -7.15,-26.61 -21.44,-29.91zm35.8 -49.92l-118.69 0 0 -31.8 54.16 -29.2 0 -5.18 -54.16 -29.2 0 -31.32 118.69 0 0 19.55 -95.38 0 0 5.18 50.87 27.55 0 22.13 -50.87 27.55 0 5.19 95.38 0 0 19.55z"/>
    <path fill="#666666" fill-rule="nonzero" fill-opacity="0.800000" d="M3468.9 14414.4l0 -18.37 39.09 0 0 -124.82 -4.71 0 -34.62 23.31 0 -21.67 34.38 -23.31 25.67 0 0 146.48 36.03 0 0 18.37 -95.84 0zm167.68 -57.69c-15.07,0 -27.63,-5.07 -37.68,-15.19 -10.04,-10.13 -15.07,-22.96 -15.07,-38.5 0,-16.17 5.07,-29.67 15.19,-40.5 10.13,-10.83 23.74,-16.25 40.86,-16.25 18.68,0 33.44,6.44 44.27,19.31 10.83,12.87 16.25,33.44 16.25,61.7 0,26.53 -5.3,48.2 -15.9,65 -10.59,16.8 -26.17,25.19 -46.74,25.19 -13.66,0 -24.84,-3.65 -33.56,-10.94 -8.71,-7.31 -14.01,-16.76 -15.9,-28.38l20.49 0c4.09,13.97 13.74,20.96 28.97,20.96 13.03,0 23.23,-5.18 30.61,-15.54 7.38,-10.36 11.38,-24.64 12.01,-42.86l-5.18 0c-3.46,4.24 -8.52,7.96 -15.19,11.18 -6.68,3.23 -14.49,4.84 -23.43,4.84zm29.43 -81.95c-6.91,-6.76 -15.54,-10.12 -25.9,-10.12 -10.36,0 -18.88,3.3 -25.54,9.88 -6.68,6.6 -10.01,15.78 -10.01,27.55 0,11.78 3.38,20.81 10.12,27.08 6.76,6.29 15.39,9.42 25.9,9.42 10.36,0 18.93,-3.22 25.67,-9.65 6.76,-6.44 10.12,-15.31 10.12,-26.61 0,-11.61 -3.45,-20.81 -10.36,-27.55zm80.55 20.26l-20.73 0c0.94,-15.86 6.48,-27.95 16.6,-36.27 10.13,-8.32 22.88,-12.48 38.27,-12.48 16.01,0 28.92,4.36 38.73,13.06 9.81,8.71 14.72,21.09 14.72,37.09 0,19.47 -12.17,39.32 -36.51,59.58l-41.44 34.85 0 5.19 83.12 0 0 18.37 -113.26 0 0 -23.31 24.25 -19.78c15.07,-12.09 27.55,-22.68 37.44,-31.8 3.77,-3.3 6.79,-6.12 9.06,-8.47 2.28,-2.36 4.87,-5.46 7.76,-9.3 2.91,-3.85 5.11,-7.88 6.6,-12.12 1.5,-4.25 2.24,-8.63 2.24,-13.19 0,-10.2 -2.98,-18.06 -8.94,-23.55 -5.97,-5.49 -14.05,-8.23 -24.26,-8.23 -9.57,0 -17.31,2.55 -23.19,7.65 -5.89,5.1 -9.37,12.67 -10.47,22.72zm146.47 119.39l-24.48 0 0 -27.32 24.48 0 0 27.32zm40.98 -146.71c10.98,-14.29 25.66,-21.43 44.03,-21.43 18.37,0 33.09,7.18 44.16,21.55 11.06,14.36 16.6,35.76 16.6,64.17 0,28.42 -5.54,49.77 -16.6,64.06 -11.07,14.29 -25.79,21.43 -44.16,21.43 -18.37,0 -33.05,-7.14 -44.03,-21.43 -10.99,-14.29 -16.49,-35.64 -16.49,-64.06 0,-28.57 5.5,-50 16.49,-64.29zm14.13 113.62c6.59,11.85 16.56,17.78 29.9,17.78 13.35,0 23.35,-5.93 30.03,-17.78 6.67,-11.85 10,-28.3 10,-49.34 0,-21.2 -3.34,-37.71 -10,-49.57 -6.68,-11.85 -16.68,-17.78 -30.03,-17.78 -13.34,0 -23.31,5.93 -29.9,17.78 -6.6,11.85 -9.89,28.37 -9.89,49.57 0,21.04 3.3,37.48 9.89,49.34zm268.69 -2.71l20.02 0c-2.36,11.93 -7.88,21.4 -16.6,28.38 -8.71,6.99 -19.83,10.47 -33.33,10.47 -17.9,0 -31.99,-5.85 -42.27,-17.54 -10.28,-11.7 -15.42,-26.65 -15.42,-44.86 0,-18.37 5.1,-33.37 15.31,-44.98 10.2,-11.62 24.33,-17.43 42.38,-17.43 13.66,0 24.76,3.42 33.33,10.24 8.55,6.83 13.85,15.9 15.89,27.2l-20.02 0c-4.24,-13.35 -13.97,-20.02 -29.2,-20.02 -12.71,0 -22.17,4.2 -28.37,12.59 -6.21,8.4 -9.3,19.04 -9.3,31.91 0,13.03 3.14,23.86 9.41,32.5 6.29,8.64 15.7,12.96 28.26,12.96 16.65,0 26.61,-7.15 29.91,-21.44zm49.92 35.8l0 -118.69 31.8 0 29.2 54.16 5.18 0 29.2 -54.16 31.32 0 0 118.69 -19.55 0 0 -95.38 -5.18 0 -27.55 50.87 -22.13 0 -27.55 -50.87 -5.19 0 0 95.38 -19.55 0z"/>
   </g>
   <g>
    <path fill="black" fill-opacity="0.101961" d="M12303.71 1322.16c832.7,0 1683.04,0 2515.74,0 -3.8,23.48 -36.14,35.8 -36.14,35.8 -819.96,0 -1618.25,-1.33 -2438.21,-1.33 -5.33,0.06 -33.15,-2.69 -41.39,-34.47z"/>
    <path fill="black" fill-opacity="0.101961" d="M15589.89 1326.53c1194.85,0 2415.01,0 3609.87,0 -5.46,23.49 -40.56,36.04 -40.56,36.04 -1176.56,0 -2340.83,0.27 -3517.4,0.27 -7.65,0.07 -40.08,-4.52 -51.9,-36.31z"/>
    <path fill="black" fill-opacity="0.101961" d="M13064.82 1244.65c-32.95,4.52 -52.63,21.14 -115.08,2.22 -17.35,-5.26 -141.68,-193.13 -128.7,-164.16 14.84,33.13 112.84,155.56 84.16,158.83 -69.21,7.88 -91.34,-10.72 -120.08,-32.72 -4.64,-3.55 17.02,38.95 12.13,38.31 -4.61,-0.61 -35.77,-44.46 -41.34,-46.69 -7.67,-3.07 -16.66,-9.6 -27.85,-24.78 -0.1,-0.14 25.09,57.5 14.24,69.47 -6.56,7.24 -45.93,-31.56 -56.29,-26.06 -47.04,24.94 -114.67,41.39 -85.51,40.5 57.94,-1.76 153.01,-1.31 223.62,-1.31 207.51,0 405.46,-3.65 615.16,-1.1 119.3,1.44 218.53,-4.21 343.29,-0.26 182.83,5.78 358.94,-0.29 530.31,-0.4 66.48,-0.04 285.82,-0.3 376.94,-0.3 -8.32,-8.54 -54.88,-11.68 -65.4,-21.35 -10.51,-9.66 -26.69,-15.76 -37.18,-24.31 -41.82,-34.04 -66.12,-60.43 -20.52,12.3 13.32,21.27 -45.35,-4.99 -80.11,12.24 -1.1,0.54 -103.97,19.13 -425.3,14.79 -37.77,-0.5 -53.59,-19.41 -85.81,-20.29 -20.02,-0.54 -148.24,-120.62 -162.94,-122.67 -14.47,-2.03 84.42,113.96 77.86,109.8 -52.09,-33.03 -55.5,21.72 -91.88,-5.86 -2.11,-1.6 -207.04,-247.56 -161.54,-184.67 23.78,32.87 124.46,160.21 76.5,198.17 -0.31,0.25 -41.74,29.79 -96.55,24.65 -50.76,-4.75 -99.23,-13.29 -143.36,-13.88 -56.06,-0.74 -54.29,16.07 -66.6,16.84 -289.74,18.22 -64.39,-45.41 -342.16,-7.33z"/>
    <path fill="black" fill-opacity="0.101961" d="M12761.96 636.6c11.47,-1.45 38.48,29.89 44.4,40.16 65.11,112.86 -42.36,175.52 -98.39,231.28 -5.46,5.43 5.74,19.95 2.18,19.42 -2.74,-0.41 -16.24,-1.47 -35.3,-0.3 -38.26,2.35 -157.97,-6.97 -153.38,-9.39 49.87,-26.27 123.29,-48.27 181.06,-160.88 -12.04,107.85 -77.02,146.27 -38.41,141.87 28.42,-3.23 93.22,-55.32 106.13,-136.1 6.8,-42.46 -12.93,-125.47 -8.28,-126.06z"/>
    <path fill="black" fill-opacity="0.101961" d="M13301.15 649.87c-11.47,-1.46 -23.98,17.54 -27.89,28.74 -39.74,113.97 29.69,176.26 66.53,231.17 4.29,6.41 -5.74,19.96 -2.18,19.43 2.74,-0.41 16.23,-1.48 35.3,-0.3 38.26,2.35 134.11,-4.8 129.49,-7.23 -49.87,-26.29 -126.2,-68.69 -138.39,-183.48 -18.36,109.3 58.24,166.71 19.63,162.3 -28.43,-3.25 -68.76,-61.31 -81.68,-142.09 -6.8,-42.45 3.86,-107.95 -0.81,-108.55z"/>
    <path fill="black" fill-opacity="0.101961" d="M13938.08 926.84c-4.79,0.27 40.45,-45.77 174.78,-43.89 100.35,1.4 181.93,36.96 163.67,36.96 -27.07,0 -44.73,0.75 -71.58,-2.35 -22.31,-2.58 -112.9,-1.23 -137.18,1.56 -24.59,2.83 -85.4,5.16 -129.69,7.71z"/>
    <path fill="black" fill-opacity="0.101961" d="M13215.61 927.62c4.77,0.28 -42.6,-35.63 -176.92,-33.77 -100.35,1.4 -179.79,26.85 -161.53,26.85 27.07,0 44.73,0.74 71.58,-2.36 22.31,-2.57 112.9,-1.23 137.18,1.57 24.59,2.83 85.4,5.18 129.69,7.7z"/>
    <path fill="black" fill-opacity="0.101961" d="M13235.55 2995.75c-11.46,-1.77 -38.48,36.66 -44.4,49.23 -65.08,138.27 -1.35,138.79 54.66,207.11 5.44,6.64 3.75,14.64 2.87,11.16 -24.18,-95.54 -30.69,-101.38 -19.73,-171.83 8.06,-51.82 11.24,-94.95 6.6,-95.67z"/>
    <path fill="black" fill-opacity="0.101961" d="M13226.36 3172.43c11.93,3.5 19,79.78 83.08,66.97 41.87,-8.36 90.5,20.16 168.39,8.2 -53.78,23.59 -107.63,18.98 -112.81,19.27 -24.81,1.35 -67.18,-3.25 -116.33,-3.64l-22.32 -90.81z"/>
    <path fill="black" fill-opacity="0.101961" d="M12715.13 3165.78c-11.93,3.51 -19.01,79.78 -83.08,66.97 -41.87,-8.36 -89.15,29.18 -167.04,17.22 53.78,23.59 106.28,9.97 111.46,10.25 24.8,1.36 67.18,-3.25 116.33,-3.63l22.32 -90.82z"/>
    <path fill="black" fill-opacity="0.101961" d="M13793.41 3175.96c-11.93,3.5 -19,79.77 -83.08,66.96 -41.88,-8.35 -90.5,20.17 -168.39,8.21 53.78,23.59 107.63,18.98 112.81,19.27 24.8,1.35 67.17,-3.25 116.33,-3.64l22.32 -90.81z"/>
    <path fill="black" fill-opacity="0.101961" d="M14304.65 3169.32c11.92,3.51 19.01,79.78 83.08,66.97 41.87,-8.36 89.15,29.18 167.04,17.22 -53.78,23.59 -106.29,9.97 -111.47,10.25 -24.79,1.36 -67.17,-3.25 -116.32,-3.64l-22.32 -90.81z"/>
    <path fill="black" fill-opacity="0.101961" d="M14312.22 3031.57c-12.07,0.14 -26.74,31.75 -32.65,44.29 -65.06,138.27 -5.08,111.96 50.94,180.28 5.43,6.64 3.75,14.65 2.87,11.17 -24.17,-95.54 -34.13,-91.03 -32.05,-165.12 1.46,-52.41 15.56,-70.68 10.89,-70.62z"/>
    <path fill="black" fill-opacity="0.101961" d="M14253.92 2987.9c18.68,-6.81 -165.1,-17.32 -183.59,-12.42 -35.91,9.5 -137.76,-3.08 -225.77,3.48 177.27,51.34 205.3,83.41 409.35,8.94z"/>
    <path fill="black" fill-opacity="0.101961" d="M13784.22 2999.28c11.45,-1.77 38.48,36.66 44.4,49.23 65.07,138.27 1.35,138.79 -54.66,207.11 -5.44,6.64 -3.75,14.64 -2.87,11.16 24.17,-95.55 30.69,-101.38 19.73,-171.83 -8.06,-51.82 -11.24,-94.95 -6.6,-95.67z"/>
    <path fill="black" fill-opacity="0.101961" d="M12765.84 2984.37c-18.67,-6.82 165.11,-17.33 183.6,-12.43 35.91,9.5 137.76,-3.08 225.76,3.48 -177.26,51.35 -205.29,83.41 -409.35,8.95z"/>
    <path fill="black" fill-opacity="0.101961" d="M16331.7 935.13c3.88,2.74 -14.3,-57.42 -103.18,-158.12 -66.39,-75.23 -141.86,-125.62 -130.01,-111.73 17.55,20.58 14.15,24.92 34.45,42.89 16.88,14.93 74.42,84.93 87.57,105.61 13.31,20.96 87.07,104.33 111.17,121.36z"/>
    <path fill="black" fill-opacity="0.101961" d="M13833.53 635.06c11.48,-1.47 21.97,18.46 27.89,28.74 65.11,112.86 8.5,189.43 -47.53,245.2 -5.46,5.44 5.74,19.95 2.19,19.42 -2.75,-0.41 -16.24,-1.47 -35.31,-0.3 -38.26,2.36 -134.11,-4.79 -129.49,-7.23 49.87,-26.29 126.2,-68.68 138.39,-183.47 18.36,109.29 -58.24,166.71 -19.63,162.29 28.44,-3.24 68.75,-61.31 81.68,-142.08 6.8,-42.46 -22.87,-121.98 -18.2,-122.58z"/>
    <path fill="black" fill-opacity="0.101961" d="M14391.72 635.82c-11.48,-1.46 -21.97,18.47 -27.89,28.74 -65.11,112.86 25.85,186.93 81.88,242.71 5.46,5.44 -5.74,19.95 -2.18,19.42 2.74,-0.41 16.24,-1.48 35.31,-0.3 38.25,2.35 157.96,-6.97 153.37,-9.39 -49.87,-26.28 -123.29,-48.27 -181.05,-160.88 12.03,107.84 77.01,146.27 38.4,141.87 -28.42,-3.23 -93.22,-55.33 -106.13,-136.11 -6.8,-42.45 12.94,-125.46 8.28,-126.05z"/>
    <path fill="black" fill-opacity="0.101961" d="M12707.55 3028.03c12.07,0.14 26.74,31.75 32.64,44.29 65.07,138.27 5.08,111.96 -50.93,180.28 -5.43,6.64 -3.75,14.65 -2.87,11.17 24.16,-95.54 34.12,-91.03 32.05,-165.12 -1.46,-52.4 -15.56,-70.68 -10.89,-70.62z"/>
   </g>
   <g>
    <g>
     <rect fill="none" stroke="black" stroke-width="10.57" stroke-miterlimit="22.9256" x="15592.97" y="1260.25" width="3603.77" height="102.58" rx="173.22" ry="42.36"/>
     <rect fill="none" stroke="black" stroke-width="10.57" stroke-miterlimit="22.9256" x="15732.53" y="1364.5" width="3330.67" height="87.72"/>
     <path fill="none" stroke="black" stroke-width="10.57" stroke-miterlimit="22.9256" d="M15643.98 1363.85l86.9 0c0,33.14 1.39,53.08 1.39,86.21 -18.67,54.48 -27.6,93.72 -31.45,181.38l-56.84 -0.01 0 -267.58z"/>
     <path fill="none" stroke="black" stroke-width="10.57" stroke-miterlimit="22.9256" d="M19151.2 1365.3l-86.91 0c0,33.13 -1.38,53.07 -1.38,86.21 18.66,54.48 27.65,95.11 31.5,182.77l56.79 0.11 0 -269.09z"/>
     <rect fill="none" stroke="black" stroke-width="10.57" stroke-miterlimit="22.9256" x="15593.43" y="523.08" width="319" height="735.62" rx="29.05" ry="45.83"/>
     <path fill="none" stroke="black" stroke-width="10.57" stroke-miterlimit="22.9256" d="M15944.22 935.13c1045.68,0 2069.45,0 3115.07,0 17.49,0 31.79,16.3 31.79,36.22l0 253.51c0,19.92 -14.3,36.22 -31.79,36.22l-3115.07 0c-17.49,0 -31.79,-16.3 -31.79,-36.22l0 -253.51c0,-19.93 14.3,-36.22 31.79,-36.22z"/>
     <path fill="none" stroke="black" stroke-width="10.57" stroke-miterlimit="22.9256" d="M15914.98 590.2c-14.39,133.3 76.32,212.46 57.16,306.57 -3.59,17.69 88.15,38.96 161.01,38.36 31.91,-0.27 77.02,-1.64 105.46,-1.4 11.91,0.09 55.47,-25.04 53.5,-27.33 -28,-32.67 -47.62,-57.93 -125.15,-154.99 -10.58,-13.24 -50.57,-57.56 -78.13,-95.94 -44.89,-62.55 -148.46,-90.6 -173.86,-65.27z"/>
     <path fill="none" stroke="black" stroke-width="10.57" stroke-miterlimit="22.9256" d="M16092.1 657.54c-22.14,-35.61 64.65,-55.33 86.24,-34.61 67.24,64.58 245.22,223.39 239.96,298.81 -1.33,19.12 -72.11,19.88 -88.53,12.65 -41.41,-18.24 -164.89,-189.64 -237.67,-276.85z"/>
     <path fill="none" stroke="black" stroke-width="10.57" stroke-miterlimit="22.9256" d="M15939.38 634.13c56.31,110.28 213.24,214.08 253.13,278.21"/>
     <line fill="none" stroke="black" stroke-width="10.57" stroke-miterlimit="22.9256" x1="16985.57" y1="935.13" x2="16984.49" y2= "1260.25" />
    </g>
    <g>
     <rect fill="none" stroke="black" stroke-width="10.57" stroke-miterlimit="22.9256" x="12304.98" y="1258.27" width="2515.22" height="98.35" rx="120.9" ry="40.61"/>
     <rect fill="none" stroke="black" stroke-width="10.57" stroke-miterlimit="22.9256" x="12435.98" y="1357.45" width="2255.6" height="88.15"/>
     <path fill="none" stroke="black" stroke-width="10.57" stroke-miterlimit="22.9256" d="M12346.89 1357.54l87.33 0c0,33.3 1.39,53.34 1.39,86.64 -18.75,54.74 -27.83,96.47 -31.7,184.56l-56.09 -0.22 -0.93 -270.99z"/>
     <path fill="none" stroke="black" stroke-width="10.57" stroke-miterlimit="22.9256" d="M14780.3 1359.4l-87.33 0c0,33.3 -1.39,53.33 -1.39,86.64 18.76,54.74 27.83,96.47 31.7,184.56l57.02 0.01 0 -271.22z"/>
     <path fill="none" stroke="black" stroke-width="10.57" stroke-miterlimit="22.9256" d="M13567.34 929.61l0 -377.42c0,-18.4 -15.06,-33.45 -33.46,-33.45l-1158.87 0c-18.41,0 -33.46,15.05 -33.46,33.45l0 672.3c0,18.41 15.05,33.46 33.46,33.46"/>
     <path fill="none" stroke="black" stroke-width="10.57" stroke-miterlimit="22.9256" d="M14765.42 1258.28c18.38,0 33.42,-15.03 33.42,-33.42l0 -676.1c0,-18.38 -15.04,-33.42 -33.42,-33.42l-1164.67 0c-18.38,0 -33.42,15.04 -33.42,33.42"/>
     <path fill="none" stroke="black" stroke-width="10.57" stroke-miterlimit="22.9256" d="M12447.55 929.61c749.05,0 1482.39,0 2231.39,0 12.52,0 22.76,16.38 22.76,36.39l0 254.75c0,20 0.61,35.48 -11.88,35.48l-2255.1 1.72c-12.49,0 -9.94,-17.18 -9.94,-37.19l0 -254.75c0,-20.01 10.24,-36.39 22.76,-36.39z"/>
     <path fill="none" stroke="black" stroke-width="10.57" stroke-miterlimit="22.9256" d="M13843.67 612.2c-7.67,1.83 -8.83,22.42 -10.15,22.85 -30.93,10.07 -67.62,17.83 -82.1,41.38 -37.03,60.28 -50.6,147.82 -114.43,203.2 -38.35,33.27 -23.57,53.59 98.42,50.02 102.76,-3.01 269.76,0 372.13,0 142.61,0 274.79,0 416.47,0 99.93,0 149.53,-12.89 126.92,-35.26 -58.81,-58.21 -75.98,-141.21 -148.09,-228.87 -19.36,-23.53 -68.14,-27.13 -110.38,-29.67 -3.44,-11.51 -16.56,-17.67 -23.92,-19.41 -171.76,-40.58 -447.94,-22.57 -524.86,-4.25z"/>
     <path fill="none" stroke="black" stroke-width="10.57" stroke-miterlimit="22.9256" d="M13785.92 691.18c9.21,81.81 6.43,123.85 -56.41,202.66"/>
     <path fill="none" stroke="black" stroke-width="10.57" stroke-miterlimit="22.9256" d="M14453.94 689.12c-28.71,99.65 52.19,146.84 111.35,206.76"/>
     <path fill="none" stroke="black" stroke-width="10.57" stroke-miterlimit="22.9256" d="M13843.67 612.2c45.2,-26.98 547.84,-34.59 548.05,23.61 0.39,109.07 -44.66,92.62 47.72,239.36 28.92,45.94 6.59,54.53 -30.74,54.48 -91.98,-0.15 -173.22,-17.82 -280.02,-13.56 -94.95,3.8 -214.8,14.24 -278.55,13.56 -42.51,-0.46 -41.58,-15.84 -36.23,-28.35 86.63,-202.16 -6.22,-247.54 29.77,-289.1z"/>
     <path fill="none" stroke="black" stroke-width="10.57" stroke-miterlimit="22.9256" d="M13293.21 623.95c7.66,1.82 8.83,22.43 10.14,22.85 30.93,10.07 62.35,8.77 76.82,32.32 37.03,60.27 72.69,145.93 136.53,201.3 38.34,33.27 23.57,53.6 -98.42,50.02 -102.76,-3.01 -269.76,0 -372.13,0 -142.6,0 -274.79,0 -416.47,0 -99.93,0 -149.53,-12.89 -126.92,-35.26 58.81,-58.2 109.58,-120.1 148.09,-228.87 10.16,-28.72 68.14,-27.13 110.38,-29.67 3.44,-11.51 16.57,-17.67 23.92,-19.41 78.71,-18.59 173.31,-10.89 262.82,-7.99 105.83,3.42 203.58,4.79 245.24,14.71z"/>
     <path fill="none" stroke="black" stroke-width="10.57" stroke-miterlimit="22.9256" d="M13367.77 691.97c-9.22,81.8 -6.44,123.85 56.4,202.66"/>
     <path fill="none" stroke="black" stroke-width="10.57" stroke-miterlimit="22.9256" d="M12699.75 689.9c28.71,99.66 -52.19,146.84 -111.34,206.76"/>
     <path fill="none" stroke="black" stroke-width="10.57" stroke-miterlimit="22.9256" d="M13293.21 623.95c-19.86,-11.84 -133.86,-11.91 -245.24,-14.71 -142.19,-3.59 -285.9,-5.27 -286.01,27.36 -0.38,109.06 44.66,92.62 -47.72,239.37 -28.92,45.93 -6.59,54.53 30.74,54.47 91.98,-0.14 173.22,-17.82 280.02,-13.55 94.95,3.79 214.8,14.23 278.55,13.55 42.51,-0.45 41.58,-15.85 36.23,-28.34 -86.62,-202.17 -10.58,-236.59 -46.57,-278.15z"/>
    </g>
    <g>
     <g>
      <rect fill="none" stroke="black" stroke-width="10.57" stroke-miterlimit="22.9256" x="13565.72" y="2532.29" width="1225.78" height="320.56" rx="111.63" ry="19.97"/>
      <rect fill="none" stroke="black" stroke-width="10.57" stroke-miterlimit="22.9256" x="12341.65" y="2532.29" width="1225.78" height="320.56" rx="111.63" ry="19.97"/>
     </g>
     <path fill="none" stroke="black" stroke-width="10.57" stroke-miterlimit="22.9256" d="M12362.93 2853.15l2407.3 0c11.24,0 20.44,9.19 20.44,20.44l0 3197.96c0,45.84 -37.5,83.34 -83.34,83.34l-2281.48 0c-45.84,0 -83.34,-37.5 -83.34,-83.34l0 -3197.96c0,-11.24 9.19,-20.44 20.44,-20.44z"/>
     <rect fill="none" stroke="black" stroke-width="10.57" stroke-miterlimit="22.9256" x="12444.63" y="2852.84" width="2243.9" height="3205.57" rx="32.06" ry="31.19"/>
     <path fill="none" stroke="black" stroke-width="10.57" stroke-miterlimit="22.9256" d="M12444.63 3962.71l2243.9 0 0 2051.13c0,24.51 -20.06,44.57 -44.57,44.57l-2154.76 0c-24.51,0 -44.57,-20.06 -44.57,-44.57l0 -2051.13z"/>
     <path fill="none" stroke="black" stroke-width="10.57" stroke-miterlimit="22.9256" d="M13243.37 2876.59c4.94,1.48 127.25,31.88 132.69,43.09 37.04,76.22 26.97,211.22 90.81,281.25 38.34,42.07 23.55,67.77 -98.43,63.26 -24.23,-0.89 -79.02,-8.24 -108.48,-4.53 -2.1,0.26 9.98,29.27 1.24,38.47 -3.84,4.03 -14.92,8.3 -20.87,8.57 -78.99,3.69 -194.71,-8.5 -257.44,-11.48 -108.23,-5.15 -188,11.08 -279.92,11.08 -21.81,0 -8.82,-43.07 -8.82,-43.07 -24.09,0 -89.76,0.95 -114.31,0.95 -99.93,0 -130.52,-4.63 -107.94,-32.89 58.8,-73.6 82.02,-210.09 120.51,-347.64 4.61,-16.48 103.8,-30.43 126.27,-30.5 107.5,-0.31 214.02,-3.65 303.53,0 105.82,4.32 179.5,10.9 221.15,23.43z"/>
     <path fill="none" stroke="black" stroke-width="10.57" stroke-miterlimit="22.9256" d="M13304.6 2912.84c56.59,16.86 -8.5,30.6 -9.76,72.3 -2.62,86.79 25.3,151.89 79.5,235.18"/>
     <path fill="none" stroke="black" stroke-width="10.57" stroke-miterlimit="22.9256" d="M12647.75 2879.42c-57.11,-0.75 4.66,68.86 6.2,81.44 15.19,123.01 -61.74,195.35 -115.39,261.94"/>
     <path fill="none" stroke="black" stroke-width="10.57" stroke-miterlimit="22.9256" d="M13237.57 2947.95c-19.86,-14.02 -133.86,-14.09 -245.24,-17.41 -142.19,-4.24 -285.9,-6.22 -286.01,32.38 -0.36,129.04 31.08,137.65 -6.36,277.54 -15.91,59.45 -14.27,64.43 23.03,64.37 91.98,-0.16 139.58,-15.3 246.36,-10.28 94.93,4.47 191.64,16.41 255.39,15.61 42.5,-0.53 41.57,-18.76 36.23,-33.54 -86.61,-239.2 12.58,-279.49 -23.4,-328.67z"/>
     <path fill="none" stroke="black" stroke-width="10.57" stroke-miterlimit="22.9256" d="M12751.52 2991.11c6.37,-27.78 66.82,-18.75 91.72,-18.75 96.13,0 195.91,-3.82 290.12,7.75 12.36,1.51 65.94,-2.37 77.79,28.86"/>
     <path fill="none" stroke="black" stroke-width="10.57" stroke-miterlimit="22.9256" d="M14320.31 2880.12c4.94,1.48 127.24,31.88 132.69,43.09 37.03,76.21 26.97,211.22 90.8,281.25 38.34,42.07 23.56,67.77 -98.42,63.26 -24.23,-0.89 -79.02,-8.24 -108.49,-4.54 -2.09,0.27 9.99,29.28 1.25,38.48 -3.84,4.02 -14.92,8.3 -20.88,8.57 -78.98,3.69 -194.7,-8.5 -257.43,-11.48 -108.23,-5.15 -188,11.08 -279.92,11.08 -21.82,0 -8.82,-43.07 -8.82,-43.07 -24.09,0 -89.76,0.95 -114.31,0.95 -99.93,0 -130.53,-4.63 -107.95,-32.9 58.81,-73.59 82.02,-210.08 120.52,-347.63 4.61,-16.48 103.8,-30.44 126.27,-30.5 107.49,-0.31 214.02,-3.65 303.52,0 105.83,4.32 179.51,10.9 221.16,23.43z"/>
     <path fill="none" stroke="black" stroke-width="10.57" stroke-miterlimit="22.9256" d="M14381.53 2916.38c56.59,16.86 -8.5,30.6 -9.76,72.3 -2.62,86.79 25.29,151.89 79.5,235.18"/>
     <path fill="none" stroke="black" stroke-width="10.57" stroke-miterlimit="22.9256" d="M13724.68 2882.96c-57.11,-0.75 4.67,68.86 6.21,81.43 15.19,123.02 -61.74,195.36 -115.4,261.95"/>
     <path fill="none" stroke="black" stroke-width="10.57" stroke-miterlimit="22.9256" d="M14314.51 2951.49c-19.86,-14.02 -133.87,-14.09 -245.24,-17.41 -142.19,-4.24 -285.9,-6.22 -286.01,32.38 -0.37,129.03 31.08,137.65 -6.36,277.54 -15.91,59.45 -14.27,64.43 23.03,64.37 91.97,-0.16 139.58,-15.3 246.35,-10.28 94.94,4.47 191.65,16.41 255.4,15.61 42.5,-0.53 41.57,-18.76 36.23,-33.54 -86.62,-239.2 12.58,-279.49 -23.4,-328.67z"/>
     <path fill="none" stroke="black" stroke-width="10.57" stroke-miterlimit="22.9256" d="M13828.46 2994.65c6.37,-27.79 66.82,-18.75 91.72,-18.75 96.13,0 195.91,-3.82 290.12,7.75 12.36,1.51 65.94,-2.37 77.79,28.86"/>
    </g>
   </g>
   <g>
    <g>
     <line fill="none" stroke="gray" stroke-width="10.57" stroke-miterlimit="22.9256" x1="14794.31" y1="6704.13" x2="14794.31" y2= "6351.26" />
     <line fill="none" stroke="gray" stroke-width="10.57" stroke-miterlimit="22.9256" x1="12328.55" y1="6702.49" x2="12328.55" y2= "6348.76" />
     <line fill="none" stroke="gray" stroke-width="10.57" stroke-miterlimit="22.9256" x1="14915.28" y1="6569.02" x2="12195.94" y2= "6569.02" />
    </g>
    <g>
     <line fill="none" stroke="gray" stroke-width="10.57" stroke-miterlimit="22.9256" x1="11848.23" y1="6155.55" x2="12201.11" y2= "6155.55" />
     <line fill="none" stroke="gray" stroke-width="10.57" stroke-miterlimit="22.9256" x1="11841.78" y1="2531.67" x2="12195.52" y2= "2531.67" />
     <line fill="none" stroke="gray" stroke-width="10.57" stroke-miterlimit="22.9256" x1="11980.84" y1="6267.32" x2="11975.25" y2= "2417.04" />
    </g>
    <g>
     <line fill="none" stroke="gray" stroke-width="10.57" stroke-miterlimit="22.9256" x1="11849.73" y1="1624.87" x2="12202.61" y2= "1624.87" />
     <line fill="none" stroke="gray" stroke-width="10.57" stroke-miterlimit="22.9256" x1="11982.34" y1="1756.44" x2="11982.34" y2= "372.5" />
     <line fill="none" stroke="gray" stroke-width="10.57" stroke-miterlimit="22.9256" x1="11860.71" y1="501.18" x2="12214.45" y2= "501.18" />
    </g>
   </g>
   <g>
    <path fill="#666666" fill-rule="nonzero" fill-opacity="0.800000" d="M11702.23 1360.93l144.68 72.82 0 22.11 -144.68 -73.06 -5.29 0 0 85.32 -18.27 0 0 -107.2 23.55 0zm-23.55 -31.72l0 -98.29 23.55 0 36.05 42.05 5.05 0c0.33,-14.9 4.97,-26.95 13.94,-36.17 8.97,-9.21 21.4,-13.82 37.25,-13.82 17.15,0 30.68,5.53 40.62,16.58 9.93,11.06 14.9,25.32 14.9,42.78 0,16.83 -4.73,30.61 -14.18,41.34 -9.45,10.73 -21.48,16.58 -36.06,17.55l0 -21.16c9.45,-0.96 17.07,-4.93 22.83,-11.89 5.77,-6.98 8.65,-15.59 8.65,-25.84 0,-11.69 -3.29,-20.99 -9.85,-27.88 -6.58,-6.89 -15.55,-10.33 -26.92,-10.33 -11.21,0 -19.99,3.29 -26.31,9.85 -6.34,6.58 -9.49,15.95 -9.49,28.12 0,5.93 0.48,10.81 1.44,14.66l-22.35 0 -35.57 -41.09 -5.29 0 0 73.54 -18.27 0zm168.24 -157.66l0 24.99 -27.88 0 0 -24.99 27.88 0zm-149.73 -41.82c-14.58,-11.22 -21.88,-26.2 -21.88,-44.95 0,-18.75 7.34,-33.77 22,-45.06 14.66,-11.29 36.49,-16.95 65.49,-16.95 29.01,0 50.8,5.66 65.38,16.95 14.58,11.29 21.88,26.31 21.88,45.06 0,18.75 -7.3,33.73 -21.88,44.95 -14.58,11.21 -36.37,16.82 -65.38,16.82 -29.16,0 -51.03,-5.61 -65.61,-16.82zm115.96 -14.42c12.09,-6.74 18.15,-16.91 18.15,-30.53 0,-13.61 -6.06,-23.83 -18.15,-30.64 -12.1,-6.81 -28.88,-10.21 -50.36,-10.21 -21.63,0 -38.49,3.41 -50.59,10.21 -12.1,6.81 -18.15,17.03 -18.15,30.64 0,13.62 6.05,23.79 18.15,30.53 12.09,6.73 28.96,10.09 50.59,10.09 21.48,0 38.25,-3.37 50.36,-10.09zm-2.77 -274.22l0 -20.43c12.18,2.4 21.84,8.04 28.96,16.94 7.14,8.89 10.7,20.23 10.7,34.01 0,18.27 -5.98,32.65 -17.91,43.14 -11.94,10.49 -27.2,15.74 -45.79,15.74 -18.75,0 -34.05,-5.21 -45.9,-15.62 -11.86,-10.41 -17.79,-24.83 -17.79,-43.26 0,-13.94 3.49,-25.27 10.45,-34.01 6.98,-8.73 16.23,-14.14 27.76,-16.22l0 20.43c-13.62,4.33 -20.43,14.26 -20.43,29.8 0,12.98 4.29,22.63 12.86,28.96 8.56,6.34 19.43,9.49 32.56,9.49 13.3,0 24.35,-3.2 33.17,-9.61 8.81,-6.41 13.22,-16.02 13.22,-28.84 0,-16.98 -7.3,-27.15 -21.88,-30.52zm36.54 -50.96l-121.13 0 0 -32.45 55.27 -29.8 0 -5.29 -55.27 -29.8 0 -31.97 121.13 0 0 19.95 -97.33 0 0 5.29 51.91 28.12 0 22.59 -51.91 28.12 0 5.29 97.33 0 0 19.95z"/>
    <path fill="#666666" fill-rule="nonzero" fill-opacity="0.800000" d="M11720.16 4801.72l0 21.15c-16.19,-0.96 -28.52,-6.61 -37.01,-16.94 -8.49,-10.33 -12.74,-23.35 -12.74,-39.05 0,-16.35 4.45,-29.52 13.34,-39.54 8.89,-10.01 21.52,-15.02 37.85,-15.02 19.87,0 40.13,12.42 60.81,37.25l35.57 42.3 5.29 0 0 -84.84 18.75 0 0 115.6 -23.79 0 -20.19 -24.75c-12.34,-15.38 -23.15,-28.12 -32.45,-38.21 -3.37,-3.85 -6.25,-6.93 -8.65,-9.25 -2.4,-2.32 -5.57,-4.97 -9.49,-7.92 -3.92,-2.97 -8.04,-5.21 -12.37,-6.74 -4.33,-1.52 -8.81,-2.28 -13.46,-2.28 -10.41,0 -18.43,3.04 -24.03,9.13 -5.61,6.09 -8.41,14.34 -8.41,24.75 0,9.77 2.61,17.66 7.81,23.67 5.21,6.01 12.94,9.57 23.19,10.69zm0 -139.88l0 21.15c-16.19,-0.96 -28.52,-6.61 -37.01,-16.94 -8.49,-10.33 -12.74,-23.35 -12.74,-39.05 0,-16.35 4.45,-29.52 13.34,-39.54 8.89,-10.01 21.52,-15.02 37.85,-15.02 19.87,0 40.13,12.42 60.81,37.25l35.57 42.3 5.29 0 0 -84.84 18.75 0 0 115.6 -23.79 0 -20.19 -24.75c-12.34,-15.38 -23.15,-28.12 -32.45,-38.21 -3.37,-3.85 -6.25,-6.93 -8.65,-9.25 -2.4,-2.32 -5.57,-4.97 -9.49,-7.92 -3.92,-2.97 -8.04,-5.21 -12.37,-6.74 -4.33,-1.52 -8.81,-2.28 -13.46,-2.28 -10.41,0 -18.43,3.04 -24.03,9.13 -5.61,6.09 -8.41,14.34 -8.41,24.75 0,9.77 2.61,17.66 7.81,23.67 5.21,6.01 12.94,9.57 23.19,10.69zm12.25 -184.33c0,-15.39 5.17,-28.2 15.5,-38.45 10.34,-10.25 23.43,-15.39 39.3,-15.39 16.5,0 30.28,5.18 41.33,15.51 11.05,10.33 16.59,24.23 16.59,41.69 0,19.07 -6.58,34.13 -19.71,45.19 -13.14,11.05 -34.14,16.58 -62.98,16.58 -27.07,0 -49.19,-5.41 -66.32,-16.22 -17.15,-10.81 -25.72,-26.72 -25.72,-47.71 0,-13.94 3.73,-25.35 11.18,-34.25 7.44,-8.89 17.1,-14.3 28.96,-16.23l0 20.92c-14.26,4.17 -21.4,14.02 -21.4,29.56 0,13.3 5.29,23.71 15.86,31.24 10.58,7.53 25.16,11.62 43.75,12.26l0 -5.29c-4.33,-3.53 -8.13,-8.69 -11.42,-15.5 -3.28,-6.82 -4.93,-14.78 -4.93,-23.91zm83.64 30.04c6.89,-7.06 10.33,-15.86 10.33,-26.44 0,-10.57 -3.37,-19.27 -10.09,-26.07 -6.74,-6.81 -16.11,-10.21 -28.12,-10.21 -12.02,0 -21.24,3.45 -27.64,10.33 -6.41,6.89 -9.61,15.7 -9.61,26.44 0,10.57 3.29,19.31 9.85,26.19 6.57,6.89 15.62,10.33 27.16,10.33 11.85,0 21.23,-3.53 28.12,-10.57zm25.95 -134.11l0 24.99 -27.88 0 0 -24.99 27.88 0zm-149.73 -41.82c-14.58,-11.22 -21.88,-26.2 -21.88,-44.95 0,-18.75 7.34,-33.77 22,-45.06 14.66,-11.29 36.49,-16.95 65.49,-16.95 29.01,0 50.8,5.66 65.38,16.95 14.58,11.29 21.88,26.31 21.88,45.06 0,18.75 -7.3,33.73 -21.88,44.95 -14.58,11.21 -36.37,16.82 -65.38,16.82 -29.16,0 -51.03,-5.61 -65.61,-16.82zm115.96 -14.42c12.09,-6.74 18.15,-16.91 18.15,-30.53 0,-13.61 -6.06,-23.83 -18.15,-30.64 -12.1,-6.81 -28.88,-10.21 -50.36,-10.21 -21.63,0 -38.49,3.41 -50.59,10.21 -12.1,6.81 -18.15,17.03 -18.15,30.64 0,13.62 6.05,23.79 18.15,30.53 12.09,6.73 28.96,10.09 50.59,10.09 21.48,0 38.25,-3.37 50.36,-10.09zm-2.77 -274.22l0 -20.43c12.18,2.4 21.84,8.04 28.96,16.94 7.14,8.89 10.7,20.23 10.7,34.01 0,18.27 -5.98,32.65 -17.91,43.14 -11.94,10.49 -27.2,15.74 -45.79,15.74 -18.75,0 -34.05,-5.21 -45.9,-15.62 -11.86,-10.41 -17.79,-24.83 -17.79,-43.26 0,-13.94 3.49,-25.27 10.45,-34.01 6.98,-8.73 16.23,-14.14 27.76,-16.22l0 20.43c-13.62,4.33 -20.43,14.26 -20.43,29.8 0,12.98 4.29,22.63 12.86,28.96 8.56,6.34 19.43,9.49 32.56,9.49 13.3,0 24.35,-3.2 33.17,-9.61 8.81,-6.41 13.22,-16.02 13.22,-28.84 0,-16.98 -7.3,-27.15 -21.88,-30.52zm36.54 -50.96l-121.13 0 0 -32.45 55.27 -29.8 0 -5.29 -55.27 -29.8 0 -31.97 121.13 0 0 19.95 -97.33 0 0 5.29 51.91 28.12 0 22.59 -51.91 28.12 0 5.29 97.33 0 0 19.95z"/>
    <path fill="#666666" fill-rule="nonzero" fill-opacity="0.800000" d="M13160.2 6893.91l0 -18.75 39.89 0 0 -127.37 -4.81 0 -35.33 23.79 0 -22.11 35.09 -23.79 26.2 0 0 149.49 36.77 0 0 18.75 -97.81 0zm183.14 -113.2c16.34,0 29.44,5.38 39.29,16.11 9.85,10.73 14.78,24.11 14.78,40.13 0,18.11 -5.33,32.65 -15.98,43.62 -10.65,10.98 -24.55,16.47 -41.7,16.47 -17.79,0 -31.77,-4.65 -41.94,-13.94 -10.17,-9.29 -15.74,-21.4 -16.7,-36.3l20.91 0c1.29,10.25 5.13,18.07 11.54,23.43 6.41,5.37 14.82,8.05 25.23,8.05 11.21,0 20.27,-3.65 27.16,-10.94 6.89,-7.29 10.33,-17.1 10.33,-29.44 0,-11.69 -3.33,-21.19 -9.97,-28.48 -6.66,-7.29 -15.59,-10.93 -26.8,-10.93 -15.06,0 -26.19,5.29 -33.41,15.86l-21.15 0 7.44 -88.68 96.13 0 0 18.27 -79.07 0 -3.85 48.55 5.29 0c8.65,-7.85 19.47,-11.78 32.45,-11.78zm100.7 -8.64l-21.15 0c0.96,-16.19 6.61,-28.52 16.94,-37.01 10.33,-8.49 23.35,-12.74 39.05,-12.74 16.35,0 29.52,4.45 39.54,13.34 10.01,8.89 15.02,21.52 15.02,37.85 0,19.87 -12.42,40.13 -37.25,60.81l-42.3 35.57 0 5.29 84.84 0 0 18.75 -115.6 0 0 -23.79 24.75 -20.19c15.38,-12.34 28.12,-23.15 38.21,-32.45 3.85,-3.37 6.93,-6.25 9.25,-8.65 2.32,-2.4 4.97,-5.57 7.92,-9.49 2.97,-3.92 5.21,-8.04 6.74,-12.37 1.52,-4.33 2.28,-8.81 2.28,-13.46 0,-10.41 -3.04,-18.43 -9.13,-24.03 -6.09,-5.61 -14.34,-8.41 -24.75,-8.41 -9.77,0 -17.66,2.61 -23.67,7.81 -6.01,5.21 -9.57,12.94 -10.69,23.19zm149.49 121.85l-24.99 0 0 -27.88 24.99 0 0 27.88zm41.82 -149.73c11.22,-14.58 26.2,-21.88 44.95,-21.88 18.75,0 33.77,7.34 45.06,22 11.29,14.66 16.95,36.49 16.95,65.49 0,29.01 -5.66,50.8 -16.95,65.38 -11.29,14.58 -26.31,21.88 -45.06,21.88 -18.75,0 -33.73,-7.3 -44.95,-21.88 -11.21,-14.58 -16.82,-36.37 -16.82,-65.38 0,-29.16 5.61,-51.03 16.82,-65.61zm14.42 115.96c6.74,12.09 16.91,18.15 30.53,18.15 13.61,0 23.83,-6.06 30.64,-18.15 6.81,-12.1 10.21,-28.88 10.21,-50.36 0,-21.63 -3.41,-38.49 -10.21,-50.59 -6.81,-12.1 -17.03,-18.15 -30.64,-18.15 -13.62,0 -23.79,6.05 -30.53,18.15 -6.73,12.09 -10.09,28.96 -10.09,50.59 0,21.48 3.37,38.25 10.09,50.36zm274.22 -2.77l20.43 0c-2.4,12.18 -8.04,21.84 -16.94,28.96 -8.89,7.14 -20.23,10.7 -34.01,10.7 -18.27,0 -32.65,-5.98 -43.14,-17.91 -10.49,-11.94 -15.74,-27.2 -15.74,-45.79 0,-18.75 5.21,-34.05 15.62,-45.9 10.41,-11.86 24.83,-17.79 43.26,-17.79 13.94,0 25.27,3.49 34.01,10.45 8.73,6.98 14.14,16.23 16.22,27.76l-20.43 0c-4.33,-13.62 -14.26,-20.43 -29.8,-20.43 -12.98,0 -22.63,4.29 -28.96,12.86 -6.34,8.56 -9.49,19.43 -9.49,32.56 0,13.3 3.2,24.35 9.61,33.17 6.41,8.81 16.02,13.22 28.84,13.22 16.98,0 27.15,-7.3 30.52,-21.88zm50.96 36.54l0 -121.13 32.45 0 29.8 55.27 5.29 0 29.8 -55.27 31.97 0 0 121.13 -19.95 0 0 -97.33 -5.29 0 -28.12 51.91 -22.59 0 -28.12 -51.91 -5.29 0 0 97.33 -19.95 0z"/>
   </g>
  </g>
 </g>
</svg>
