<?xml version="1.0" encoding="UTF-8"?>
<!DOCTYPE svg PUBLIC "-//W3C//DTD SVG 1.1//EN" "http://www.w3.org/Graphics/SVG/1.1/DTD/svg11.dtd">
<!-- Creator: CorelDRAW 2021.5 -->
<svg xmlns="http://www.w3.org/2000/svg" xml:space="preserve" width="210mm" height="148mm" version="1.1" shape-rendering="geometricPrecision" text-rendering="geometricPrecision" image-rendering="optimizeQuality" fill-rule="evenodd" clip-rule="evenodd"
viewBox="0 0 20985.75 14789.96"
 xmlns:xlink="http://www.w3.org/1999/xlink"
 xmlns:xodm="http://www.corel.com/coreldraw/odm/2003">
 <g id="Тени">
  <metadata id="CorelCorpID_0Corel-Layer"/>
  <rect fill="none" width="20985.75" height="14789.96"/>
  <path fill="black" fill-opacity="0.101961" d="M13363.49 3176.38c0,0 29.25,309.42 -107.97,423.62 -137.21,114.17 -697.85,106.73 -697.85,106.73 0,0 580.4,-38.29 710.17,104.49 129.76,142.81 90.91,346.92 97.65,510.53 6.75,163.61 -22.92,-414.8 104.97,-518.29 127.86,-103.48 430.36,-106.78 430.36,-106.78 0,0 -276.01,33.03 -418.1,-103.63 -142.08,-136.65 -119.24,-416.68 -119.24,-416.68z"/>
  <path fill="black" fill-opacity="0.101961" d="M14895.87 3179.55c0,0 -29.25,309.41 107.97,423.61 137.21,114.2 697.85,106.74 697.85,106.74 0,0 -580.4,-38.29 -710.17,104.52 -129.76,142.8 -90.94,346.88 -97.68,510.49 -6.75,163.64 22.92,-414.8 -104.94,-518.28 -127.86,-103.46 -430.37,-106.76 -430.37,-106.76 0,0 276.02,33 418.11,-103.62 142.08,-136.66 119.24,-416.71 119.24,-416.71z"/>
  <path fill="black" fill-opacity="0.101961" d="M7470.22 2060.88c0,0 24.85,376.22 -91.64,515.09 -116.49,138.87 -592.49,129.79 -592.49,129.79 0,0 492.77,-46.58 602.93,127.08 110.19,173.62 77.21,421.82 82.92,620.76 5.75,198.92 -19.45,-504.4 89.11,-630.22 108.57,-125.81 365.37,-129.82 365.37,-129.82 0,0 -234.33,40.14 -354.97,-126.01 -120.63,-166.16 -101.24,-506.67 -101.24,-506.67z"/>
  <path fill="black" fill-opacity="0.101961" d="M6639.72 3632.32c-15.77,23.64 -37.89,50.84 -37.69,81.01l1.01 74.64 6.27 517.38c0.59,40.5 13.47,74.41 40.91,98.16l-89.45 0c-29.24,0 -36.33,-15.45 -51.38,-38.76l-13.8 -72.02 18.79 -572.57c0,-48.29 -2.58,-87.84 43.57,-87.84l81.77 0z"/>
  <path fill="black" fill-opacity="0.101961" d="M8441.69 2064.75c0,0 -24.85,376.22 91.64,515.09 116.49,138.86 592.49,129.79 592.49,129.79 0,0 -492.78,-46.58 -602.94,127.05 -110.18,173.65 -77.19,421.82 -82.93,620.78 -5.72,198.93 19.48,-504.4 -89.09,-630.21 -108.56,-125.82 -365.36,-129.82 -365.36,-129.82 0,0 234.32,40.13 354.97,-126.02 120.63,-166.15 101.23,-506.66 101.23,-506.66z"/>
  <path fill="black" fill-opacity="0.101961" d="M6573.15 9948.42c42.99,-715.7 280.91,-923.56 534.38,-936.46 122.49,-6.27 456.75,9.84 151.81,-21.12 -248.62,-25.22 -457.6,-85.36 -584.96,-145.4 -127.15,-59.96 -166.43,-226.72 -155.44,-290.53l18.96 -360.59c3.49,-65.8 35.7,-121.42 80.91,-134.34l-117.28 -0.27 1.46 110.84 0 3001.03c33.06,-812.39 28.15,-523.9 70.18,-1223.17zm2108.93 -947.33c200.46,38.1 365.53,50.25 398.95,61.82 267.77,92.62 455.19,240.79 497.66,925.67 14.65,236.25 47.71,796.52 62.74,1051.97l0 -2968.13 -120.09 -0.49c32.35,22.7 54.29,69.23 56.15,122.4l12.64 360.59c0.43,12.28 -0.49,24.1 -2.58,35.32l1 0.02c-5.01,68.12 8.2,198.27 -119.85,278.59 -115.36,67.9 -450.51,114.82 -682.91,133.3 -37.91,3.02 -71.4,0.32 -103.72,-1.04z"/>
  <path fill="black" fill-opacity="0.101961" d="M7499.38 9062.12c0,0 26.47,381.85 -97.59,522.79 -124.07,140.91 -631.02,131.7 -631.02,131.7 0,0 524.82,-47.25 642.16,128.98 117.31,176.23 82.19,428.1 88.3,629.99 6.11,201.9 -20.73,-511.89 94.9,-639.6 115.63,-127.69 389.15,-131.75 389.15,-131.75 0,0 -249.58,40.75 -378.05,-127.89 -128.47,-168.62 -107.84,-514.22 -107.84,-514.22z"/>
  <path fill="black" fill-opacity="0.101961" d="M8534.02 9066.03c0,0 -26.45,381.85 97.61,522.77 124.08,140.93 631,131.72 631,131.72 0,0 -524.8,-47.28 -642.13,128.95 -117.34,176.24 -82.22,428.13 -88.33,630.02 -6.11,201.9 20.73,-511.89 -94.89,-639.6 -115.64,-127.69 -389.14,-131.75 -389.14,-131.75 0,0 249.56,40.73 378.03,-127.89 128.49,-168.62 107.84,-514.22 107.84,-514.22z"/>
  <path fill="black" fill-opacity="0.101961" d="M12113.22 4526.43c24.54,32.33 53.47,32.33 80.22,32.33 2345.97,0 1653.58,0 3999.41,0 18.65,0 41.65,2.66 59.27,-5.91 11.87,-5.77 24.43,-16.57 40.74,-35.39 -0.53,107.3 -67.19,139.9 -67.19,139.9 -2369.76,0 -1660.94,0 -4030.66,0 0,4.09 -37.7,-16.27 -61.49,-54.47 -13.4,-21.56 -16.97,-57.91 -20.3,-76.47z"/>
  <path fill="black" fill-opacity="0.101961" d="M6938.84 3569.66c507.76,-53.99 695.29,-163.42 1073.66,-168.12 425.84,1.9 498.08,94.78 1096.88,162.35 -352.76,-6.08 -745.67,-0.68 -1098.43,-6.78l-1072.1 12.54z"/>
  <path fill="black" fill-opacity="0.101961" d="M6920.03 1739.66c472.87,57.18 630.77,181.21 1009.14,187.31 403.29,6.53 518.18,-87.5 1145.53,-187.62 -352.76,7.89 -712.98,14.97 -1065.74,22.89l-1088.94 -22.58z"/>
  <path fill="black" fill-opacity="0.101961" d="M5551.81 4531.55c28.88,32.33 62.91,32.33 94.38,32.33 2760.07,0 1945.46,0 4705.35,0 21.96,0 49.02,2.67 69.74,-5.91 13.97,-5.77 28.75,-16.57 47.93,-35.38 -0.62,107.29 -79.06,139.9 -79.06,139.9 -2788.05,0 -1954.11,0 -4742.12,0 0,4.09 -44.36,-16.26 -72.34,-54.46 -15.77,-21.56 -19.97,-57.92 -23.88,-76.48z"/>
  <path fill="black" fill-opacity="0.101961" d="M9391.71 3624.26c15.77,23.64 37.88,50.84 37.66,81.01l-0.99 74.64 -6.27 517.37c-0.59,40.51 -13.47,74.44 -40.91,98.17l51.86 0c29.24,0 55.12,-15.46 70.17,-38.76l13.8 -72.02 0 -572.57c0,-48.29 -52.85,-87.84 -99.02,-87.84l-26.31 0z"/>
 </g>
 <g id="Схема">
  <metadata id="CorelCorpID_1Corel-Layer"/>
  <g id="_2238318950544">
   <path fill="none" stroke="black" stroke-width="10.57" stroke-miterlimit="22.9256" d="M9588.55 8590.25c-5.01,68.12 8.2,198.27 -119.85,278.59 -97.07,60.93 -581.47,144.48 -805.6,135.48 -181.52,-7.26 -47.91,-29.24 -229.58,-4.01 -187.25,25.99 -723.88,17.72 -864.15,-11.79 -140.94,-29.61 -176,15.92 -310.03,2.33 -248.62,-25.22 -457.6,-85.36 -584.96,-145.4 -127.15,-59.96 -166.43,-226.72 -155.44,-290.53"/>
   <path fill="none" stroke="black" stroke-width="10.57" stroke-miterlimit="22.9256" d="M6528.83 8059.72l3086.72 0c14.31,0 25.87,29.63 25.87,66.11l-0.01 3038.91c0.01,36.45 -49.21,66.02 -63.46,66.02l-3011.53 0c-14.27,0 -63.46,-29.57 -63.46,-66.05l-0.01 -3038.88c0.01,-36.48 11.59,-66.11 25.87,-66.11l-0.01 0z"/>
   <path fill="none" stroke="black" stroke-width="10.57" stroke-miterlimit="22.9256" d="M9742.59 11259.31c-70.99,-37.7 -85.18,-230.26 -85.18,-672.58 0,-178.3 10.81,-2507.13 2.35,-2817.93 -9.74,-360.97 5.63,-557.2 86.74,-590.69 80.4,-45.7 724.76,-41.45 795.93,-2.28 81.81,30.75 102.95,254.42 93.18,613.47 -8.42,309.22 2.34,2626.02 2.34,2803.42 0,439.99 -14.18,631.6 -85.77,666.92 -73.07,40.36 -744.28,30.92 -809.58,-0.33z"/>
   <path fill="none" stroke="black" stroke-width="10.57" stroke-miterlimit="22.9256" d="M9678.78 7254.34c-10.54,-111.6 -199.83,-115.35 -479.37,-104.97 -240.71,8.93 -2044.28,-2.52 -2182.39,-2.52 -342.53,0 -514.39,-13.55 -529.42,118.07"/>
   <path fill="none" stroke="black" stroke-width="10.57" stroke-miterlimit="22.9256" d="M6639 8057.21l2837.35 0c55.62,0 98.5,61.86 101.14,137.11l12.63 360.61c2.64,75.27 -45.56,133.66 -101.12,137.1 -512.34,38.99 -933.36,39.33 -1491.89,49.33 -544.85,9.73 -876.63,-10.64 -1377.08,-49.33 -55.54,-3.44 -105.08,-61.86 -101.12,-137.1l18.97 -360.61c3.97,-75.22 45.52,-137.11 101.12,-137.11z"/>
   <line fill="none" stroke="black" stroke-width="10.57" stroke-miterlimit="22.9256" x1="6502.95" y1="9741.82" x2="9611.39" y2= "9739.95" />
   <line fill="none" stroke="black" stroke-width="10.57" stroke-miterlimit="22.9256" x1="7502.45" y1="11230.77" x2="7501.09" y2= "8742.68" />
   <line fill="none" stroke="black" stroke-width="10.57" stroke-miterlimit="22.9256" x1="8529.18" y1="11230.77" x2="8527.82" y2= "8742.68" />
   <path fill="none" stroke="black" stroke-width="10.57" stroke-miterlimit="22.9256" d="M6421.52 11222.38c70.99,-37.7 85.18,-230.25 85.18,-672.57 0,-178.31 -10.81,-2507.13 -2.35,-2817.94 9.74,-360.96 -5.63,-557.19 -86.74,-590.68 -80.4,-45.7 -724.76,-41.45 -795.93,-2.29 -81.81,30.76 -102.95,254.43 -93.18,613.47 8.42,309.23 -2.34,2626.03 -2.34,2803.43 0,439.99 14.18,631.6 85.77,666.92 73.07,40.35 744.28,30.92 809.58,-0.34z"/>
  </g>
  <g id="_2238318959856">
   <path fill="none" stroke="black" stroke-width="10.57" stroke-miterlimit="22.9256" d="M16229.33 3548.12c69.95,24.41 117.36,71.56 117.36,125.72l0 582.19c0,65.81 -66.92,135.84 -165.31,138.23 28.31,-17.29 47.95,-54.73 47.97,-98.15l-0.02 -747.99z"/>
   <path fill="none" stroke="black" stroke-width="10.57" stroke-miterlimit="22.9256" d="M12116.21 3010.83c1.02,-310.99 -1.38,-622.8 -5.13,-698.86 -10.39,-210.04 -11,-345.73 100.6,-353.62l760.74 -10.07c111.33,9.1 108.31,152.11 97.93,366.95 -3.63,75.32 -3.88,283.59 -2.93,589.67"/>
   <path fill="none" stroke="black" stroke-width="10.57" stroke-miterlimit="22.9256" d="M13189.11 2904.9l-37.58 -974.89c-3.29,-86.04 -20.63,-172.48 102.15,-177.57l362.39 -15.07c194.48,-8.02 165.71,568.41 179.11,717.85 -0.8,56.9 14.87,283.9 1.95,449.67l-608.02 0z"/>
   <path fill="none" stroke="black" stroke-width="10.57" stroke-miterlimit="22.9256" d="M13191.68 1772.32c-86.23,6.93 -118.62,171.56 -121.86,300.04"/>
   <path fill="none" stroke="black" stroke-width="10.57" stroke-miterlimit="22.9256" d="M13616.07 1737.37c260.93,0 363.76,466.52 373.91,655.88 11.2,209.58 -2.79,436.37 -5.26,511.64"/>
   <path fill="none" stroke="black" stroke-width="10.57" stroke-miterlimit="22.9256" d="M12116.34 4296.11l0 -1282.89c0,-59.81 37.22,-108.32 83.16,-108.32l3946.68 0c45.87,0 83.12,48.51 83.12,108.32l0.03 1282.89c-0.03,59.82 -37.28,108.33 -83.18,108.33l-3946.65 0c-45.94,0 -83.16,-48.51 -83.16,-108.33z"/>
   <rect fill="none" stroke="black" stroke-width="10.57" stroke-miterlimit="22.9256" x="12515.6" y="4666.74" width="3404.87" height="227.68"/>
   <line fill="none" stroke="black" stroke-width="10.57" stroke-miterlimit="22.9256" x1="12108.62" y1="3699.92" x2="16243.11" y2= "3698.41" />
   <line fill="none" stroke="black" stroke-width="10.57" stroke-miterlimit="22.9256" x1="13366.99" y1="4364.13" x2="13365.48" y2= "2917.53" />
   <line fill="none" stroke="black" stroke-width="10.57" stroke-miterlimit="22.9256" x1="14894.96" y1="4363.83" x2="14893.45" y2= "2917.53" />
   <path fill="none" stroke="black" stroke-width="10.57" stroke-miterlimit="22.9256" d="M16155.93 4671.87l-233.41 0c0,88.98 -3.73,142.55 -3.73,231.56 50.14,146.37 74.4,257.91 84.73,493.37l152.41 3.33 0 -728.27z"/>
   <path fill="none" stroke="black" stroke-width="10.57" stroke-miterlimit="22.9256" d="M12280.35 4666.85l233.45 0c0,89.01 3.72,142.59 3.72,231.57 -50.14,146.36 -74.4,257.9 -84.75,493.36l-152.42 3.34 0 -728.28z"/>
   <path fill="none" stroke="black" stroke-width="10.57" stroke-miterlimit="22.9256" d="M15715.28 4407.84l440.66 0c185.05,0 185.02,257.06 0,257.06l-440.66 0 -3461.06 0c-185,0 -185.05,-257.06 0,-257.06l3461.06 0z"/>
  </g>
  <g id="_2238318969360">
   <path fill="none" stroke="black" stroke-width="10.57" stroke-miterlimit="22.9256" d="M9598.58 4402.88c-75.69,-13.35 -90.74,-83.59 -90.74,-244.9 0,-65.1 11.45,-914.5 2.49,-1027.86 -10.34,-131.65 5.95,-203.25 92.15,-215.34l740.51 -1.78c86.14,12.03 108.64,93.64 98.22,224.6 -8.95,112.81 2.48,957.86 2.48,1022.54 0,160.51 -15.06,230.41 -90.72,243.64l-754.39 -0.89z"/>
   <path fill="none" stroke="black" stroke-width="10.57" stroke-miterlimit="22.9256" d="M6536.4 3632.33c1004.6,0 1931.45,0 2936.21,0 16.48,0 29.96,38.57 29.96,85.68 0,199.93 0,399.88 0,599.82 0,47.13 -13.48,85.67 -29.96,85.67 -978.74,0 -1957.47,0 -2936.21,0 -16.48,0 -29.97,-38.54 -29.97,-85.67 0,-199.94 0,-399.89 0,-599.82 0,-47.11 13.49,-85.68 29.97,-85.68z"/>
   <path fill="none" stroke="black" stroke-width="10.57" stroke-miterlimit="22.9256" d="M9504.31 3662.73c-16.51,-66.56 -79.82,-98.11 -118.76,-98.19 -894.56,-2.07 -1761.92,-4.06 -1886.2,-1.12 -409.25,9.63 -740.68,-1.99 -894.01,25.19 -84.2,14.95 -110.49,38.01 -99.82,174.91"/>
   <path fill="none" stroke="black" stroke-width="10.57" stroke-miterlimit="22.9256" d="M6697.87 3577.85c-81.44,0 -183.24,-114.67 -183.24,-227.76 0,-236.64 19.99,-442.85 19.99,-679.49 0,-232.49 -19.99,-495.41 -19.99,-727.91 0,-113.11 66.64,-205.65 148.08,-205.65 441.23,0 833.32,25.41 1274.55,25.41 447.19,0 943.54,-25.41 1390.71,-25.41 81.46,0 148.09,92.54 148.09,205.65 0,195.27 -26.8,508.4 -26.8,703.67 0,273.86 26.8,429.83 26.8,703.72 0,113.08 -91.36,214.23 -172.79,214.23"/>
   <line fill="none" stroke="black" stroke-width="10.57" stroke-linejoin="round" stroke-miterlimit="22.9256" x1="6534.62" y1="2698.36" x2="9453.26" y2= "2696.54" />
   <line fill="none" stroke="black" stroke-width="10.57" stroke-linejoin="round" stroke-miterlimit="22.9256" x1="7471.73" y1="3557.46" x2="7470.44" y2= "1746.12" />
   <line fill="none" stroke="black" stroke-width="10.57" stroke-linejoin="round" stroke-miterlimit="22.9256" x1="8441.25" y1="3556.27" x2="8439.96" y2= "1746.12" />
   <path fill="none" stroke="black" stroke-width="10.57" stroke-miterlimit="22.9256" d="M6417.12 4406.65c75.69,-13.35 90.74,-83.58 90.74,-244.9 0,-65.1 -11.45,-914.5 -2.48,-1027.86 10.34,-131.65 -5.95,-203.24 -92.16,-215.33l-740.51 -1.79c-86.14,12.03 -108.63,93.64 -98.21,224.6 8.95,112.81 -2.49,957.87 -2.49,1022.55 0,160.5 15.07,230.4 90.73,243.63l754.38 -0.89z"/>
   <rect fill="none" stroke="black" stroke-width="10.57" stroke-miterlimit="22.9256" x="5897.5" y="4671.87" width="4249.29" height="227.68"/>
   <path fill="none" stroke="black" stroke-width="10.57" stroke-miterlimit="22.9256" d="M10383.91 4670.08l-233.41 0c0,88.98 -3.73,142.55 -3.73,231.57 50.14,146.36 74.4,257.9 84.73,493.36l152.41 3.33 0 -728.27z"/>
   <path fill="none" stroke="black" stroke-width="10.57" stroke-miterlimit="22.9256" d="M5662.26 4671.99l233.44 0c0,89.01 3.73,142.58 3.73,231.57 -50.14,146.36 -74.4,257.9 -84.76,493.36l-152.41 3.33 0 -728.27z"/>
   <path fill="none" stroke="black" stroke-width="10.57" stroke-miterlimit="22.9256" d="M9893.16 4412.96l435.84 0c183.03,0 182.95,257.07 0,257.07l-435.84 0 -4204.11 0c-182.94,0 -183.04,-257.07 0,-257.07l4204.11 0z"/>
  </g>
 </g>
 <g id="Шрифт">
  <metadata id="CorelCorpID_2Corel-Layer"/>
  <path fill="#666666" fill-rule="nonzero" fill-opacity="0.800000" d="M12511.1 7518.21l0 14.59c19.9,9.29 35.93,23.88 48.09,43.78 12.16,19.9 18.24,41.79 18.24,65.67 0,39.79 -13.71,71.96 -41.12,96.5 -27.41,24.54 -67.21,36.82 -119.39,36.82l-211.59 0 0 -473.58 206.28 0c48.2,0 85.45,11.38 111.76,34.16 26.31,22.77 39.46,51.41 39.46,85.89 0,45.55 -17.25,77.61 -51.73,96.17zm-246.07 -163.16l0 147.91 145.25 0c61.47,0 92.2,-25.2 92.2,-75.62 0,-24.76 -8.84,-43 -26.53,-54.72 -17.69,-11.71 -40.01,-17.57 -66.99,-17.57l-143.92 0zm0 367.45l147.91 0c30.51,0 55.49,-6.53 74.95,-19.57 19.46,-13.04 29.18,-34.82 29.18,-65.34 0,-28.74 -9.61,-49.63 -28.85,-62.68 -19.24,-13.04 -44.11,-19.57 -74.62,-19.57l-148.57 0 0 167.15zm399.29 -281.23l56.37 0 0 111.43 92.2 0c40.24,0 71.3,9.72 93.2,29.18 21.89,19.46 32.83,46.65 32.83,81.58 0,35.38 -10.94,62.9 -32.83,82.57 -21.9,19.68 -52.95,29.52 -93.2,29.52l-148.57 0 0 -334.29zm56.37 159.19l0 126.01 84.24 0c27.85,0 47.76,-5.31 59.69,-15.92 11.94,-10.61 17.91,-26.3 17.91,-47.09 0,-20.79 -5.97,-36.49 -17.91,-47.1 -11.93,-10.6 -31.84,-15.91 -59.69,-15.91l-84.24 0zm271.95 -159.19l56.38 0 0 334.29 -56.38 0 0 -334.29zm391.34 233.47l56.37 0c-6.63,33.61 -22.21,60.25 -46.76,79.93 -24.54,19.68 -55.82,29.52 -93.86,29.52 -50.41,0 -90.09,-16.47 -119.06,-49.42 -28.96,-32.94 -43.44,-75.06 -43.44,-126.35 0,-51.73 14.37,-93.97 43.11,-126.68 28.74,-32.73 68.54,-49.09 119.39,-49.09 38.47,0 69.76,9.62 93.86,28.85 24.1,19.24 39.02,44.78 44.77,76.61l-56.37 0c-11.94,-37.58 -39.35,-56.37 -82.25,-56.37 -35.82,0 -62.46,11.82 -79.93,35.49 -17.46,23.65 -26.19,53.61 -26.19,89.87 0,36.71 8.84,67.21 26.53,91.54 17.69,24.31 44.22,36.48 79.59,36.48 46.88,0 74.96,-20.12 84.24,-60.36zm164.16 -192.35c29.4,-33.17 69.53,-49.75 120.39,-49.75 50.85,0 90.98,16.58 120.38,49.75 29.41,33.17 44.11,75.17 44.11,126.02 0,50.86 -14.7,92.86 -44.11,126.02 -29.4,33.17 -69.53,49.75 -120.38,49.75 -50.86,0 -90.99,-16.58 -120.39,-49.75 -29.41,-33.17 -44.11,-75.17 -44.11,-126.02 0,-50.86 14.7,-92.86 44.11,-126.02zm40.12 215.9c18.58,24.53 45.33,36.81 80.27,36.81 34.93,0 61.68,-12.27 80.26,-36.81 18.57,-24.54 27.85,-54.5 27.85,-89.88 0,-35.38 -9.28,-65.34 -27.85,-89.88 -18.58,-24.53 -45.33,-36.81 -80.26,-36.81 -34.94,0 -61.69,12.27 -80.27,36.81 -18.57,24.54 -27.85,54.5 -27.85,89.88 0,35.38 9.28,65.34 27.85,89.88zm291.84 -207.94l0 -49.09 287.86 0 0 49.09 -115.41 0 0 285.21 -56.38 0 0 -285.21 -116.07 0zm575.06 285.21l0 -35.16 -14.59 0c-22.99,29.19 -57.7,43.78 -104.13,43.78 -36.71,0 -65.89,-10.61 -87.56,-31.84 -21.67,-21.23 -32.5,-46.87 -32.5,-76.94 0,-30.51 10.61,-56.6 31.84,-78.27 21.23,-21.68 53.28,-32.51 96.17,-32.51l108.78 0 0 -13.26c0,-21.23 -6.64,-38.14 -19.9,-50.75 -13.26,-12.6 -33.83,-18.9 -61.69,-18.9 -48.64,0 -74.51,16.14 -77.6,48.42l-56.38 0c2.21,-30.51 15.37,-54.39 39.46,-71.63 24.1,-17.25 55.16,-25.87 93.2,-25.87 42.89,0 76.61,9.95 101.14,29.85 24.54,19.9 36.82,48.42 36.82,85.56l0 227.51 -53.06 0zm-104.8 -40.46c27.86,0 51.96,-9.17 72.3,-27.52 20.34,-18.36 30.51,-40.79 30.51,-67.32l0 -30.51 -100.15 0c-53.5,0 -80.26,21.23 -80.26,63.68 0,19.01 6.75,34.05 20.23,45.1 13.49,11.05 32.61,16.58 57.37,16.58zm-1924.82 664.01l56.37 0c-6.63,33.61 -22.21,60.25 -46.76,79.93 -24.54,19.68 -55.82,29.52 -93.86,29.52 -50.41,0 -90.09,-16.47 -119.06,-49.42 -28.96,-32.94 -43.44,-75.06 -43.44,-126.35 0,-51.73 14.37,-93.97 43.11,-126.68 28.74,-32.73 68.54,-49.09 119.39,-49.09 38.47,0 69.76,9.62 93.86,28.85 24.1,19.24 39.02,44.78 44.77,76.61l-56.37 0c-11.94,-37.58 -39.35,-56.37 -82.25,-56.37 -35.82,0 -62.46,11.82 -79.93,35.49 -17.46,23.65 -26.19,53.61 -26.19,89.87 0,36.71 8.84,67.21 26.53,91.54 17.69,24.31 44.22,36.48 79.59,36.48 46.88,0 74.96,-20.12 84.24,-60.36zm220.2 100.82l-79.59 0 0 -334.29 55.05 0 0 258.67 14.59 0 146.58 -258.67 82.24 0 0 334.29 -55.05 0 0 -258.67 -14.59 0 -149.24 258.67zm625.48 -49.09l61.69 0 0 143.93 -55.05 0 0 -94.85 -289.19 0 0 94.85 -55.05 0 0 -143.93 44.44 0c27.42,-58.36 41.12,-122.93 41.12,-193.68l0 -91.53 252.05 0 0 285.21zm-56.38 0l0 -236.12 -143.26 0 0 42.44c0,75.62 -12.16,140.17 -36.49,193.68l179.75 0zm480.88 -137.96l0 19.24 -254.71 0c0.89,40.23 10.39,71.52 28.52,93.85 18.14,22.33 44.22,33.5 78.27,33.5 45.99,0 74.29,-17.24 84.9,-51.73l57.04 0c-5.75,30.07 -20.9,54.39 -45.43,72.96 -24.54,18.58 -56.71,27.86 -96.51,27.86 -50.85,0 -90.65,-16.58 -119.39,-49.75 -28.74,-33.17 -43.11,-76.28 -43.11,-129.34 0,-52.17 14.37,-93.97 43.11,-125.35 28.74,-31.4 68.1,-47.1 118.07,-47.1 47.31,0 83.79,14.93 109.44,44.77 25.65,29.85 38.91,66.88 39.8,111.1zm-150.57 -106.79c-28.74,0 -51.73,7.4 -68.98,22.21 -17.25,14.82 -27.86,33.72 -31.84,56.71l193.02 0c-1.77,-22.55 -10.83,-41.34 -27.2,-56.38 -16.36,-15.03 -38.02,-22.54 -65,-22.54zm535.93 293.83l-56.38 0 0 -147.25 -185.05 0 0 147.25 -56.37 0 0 -334.29 56.37 0 0 137.97 185.05 0 0 -137.97 56.38 0 0 334.29zm578.38 -334.29l166.49 0 0 334.29 -57.04 0 0 -131.99 -101.48 0c-8.84,0 -15.7,-0.22 -20.57,-0.67l-50.41 132.66 -59.03 0 56.37 -145.26c-34.49,-16.36 -51.73,-45.54 -51.73,-87.55 0,-32.28 10.06,-57.26 30.18,-74.95 20.13,-17.69 49.2,-26.53 87.22,-26.53zm109.45 47.76l-103.47 0c-24.32,0 -41.57,4.64 -51.73,13.93 -10.17,9.28 -15.26,22.77 -15.26,40.45 0,17.25 5.09,30.29 15.26,39.13 10.16,8.84 27.41,13.27 51.73,13.27l103.47 0 0 -106.79zm-1692.02 1010.9l-68.98 0 0 -76.94 68.98 0 0 76.94zm115.41 -413.22c30.95,-40.24 72.29,-60.36 124.03,-60.36 51.73,0 93.2,20.23 124.37,60.69 31.18,40.46 46.77,100.7 46.77,180.74 0,80.04 -15.59,140.17 -46.77,180.42 -31.17,40.24 -72.63,60.36 -124.37,60.36 -51.73,0 -93.08,-20.12 -124.03,-60.36 -30.96,-40.24 -46.43,-100.38 -46.43,-180.42 0,-80.48 15.47,-140.83 46.43,-181.07zm39.79 320.03c18.57,33.38 46.65,50.08 84.23,50.08 37.59,0 65.78,-16.7 84.57,-50.08 18.8,-33.39 28.19,-79.71 28.19,-138.97 0,-59.69 -9.39,-106.23 -28.19,-139.62 -18.8,-33.39 -46.98,-50.08 -84.57,-50.08 -37.58,0 -65.67,16.69 -84.23,50.08 -18.57,33.39 -27.86,79.93 -27.86,139.62 0,59.26 9.29,105.58 27.86,138.97zm756.81 -7.63l56.37 0c-6.63,33.61 -22.21,60.25 -46.76,79.93 -24.54,19.68 -55.82,29.52 -93.86,29.52 -50.41,0 -90.09,-16.47 -119.06,-49.42 -28.96,-32.94 -43.44,-75.06 -43.44,-126.35 0,-51.73 14.37,-93.97 43.11,-126.68 28.74,-32.73 68.54,-49.09 119.39,-49.09 38.47,0 69.76,9.62 93.86,28.85 24.1,19.24 39.02,44.78 44.77,76.61l-56.37 0c-11.94,-37.58 -39.35,-56.37 -82.25,-56.37 -35.82,0 -62.46,11.82 -79.93,35.49 -17.46,23.65 -26.19,53.61 -26.19,89.87 0,36.71 8.84,67.21 26.53,91.54 17.69,24.31 44.22,36.48 79.59,36.48 46.88,0 74.96,-20.12 84.24,-60.36zm140.61 100.82l0 -334.29 89.54 0 82.24 152.56 14.59 0 82.25 -152.56 88.21 0 0 334.29 -55.05 0 0 -268.63 -14.59 0 -77.61 143.27 -62.35 0 -77.6 -143.27 -14.59 0 0 268.63 -55.05 0zm116.73 -1058.66l0 111.43 98.83 0c40.23,0 71.3,9.72 93.19,29.18 21.9,19.46 32.84,46.65 32.84,81.58 0,35.38 -10.94,62.9 -32.84,82.57 -21.89,19.68 -52.95,29.52 -93.19,29.52l-155.2 0 0 -334.29 56.37 0zm0 285.21l90.87 0c27.86,0 47.76,-5.31 59.7,-15.92 11.94,-10.61 17.91,-26.3 17.91,-47.09 0,-20.79 -5.97,-36.49 -17.91,-47.1 -11.94,-10.6 -31.84,-15.91 -59.7,-15.91l-90.87 0 0 126.01zm753.49 49.09l-68.98 0 0 -76.94 68.98 0 0 76.94zm0 -257.36l-68.98 0 0 -76.94 68.98 0 0 76.94zm-2542.34 821.21l63.67 0 0 51.73 -63.67 0 0 108.78 -57.04 0 0 -108.78 -229.49 0 0 -66.32 204.95 -289.19 81.58 0 0 303.78zm-225.52 0l169.14 0 0 -238.12 -14.59 0 -154.55 223.53 0 14.59zm631.44 0l63.67 0 0 51.73 -63.67 0 0 108.78 -57.04 0 0 -108.78 -229.49 0 0 -66.32 204.95 -289.19 81.58 0 0 303.78zm-225.52 0l169.14 0 0 -238.12 -14.59 0 -154.55 223.53 0 14.59z"/>
  <path fill="#666666" fill-rule="nonzero" fill-opacity="0.800000" d="M6847.88 13039.68l0 -51.73 110.11 0 0 -351.54 -13.27 0 -97.49 65.67 0 -61.02 96.83 -65.67 72.3 0 0 412.56 101.48 0 0 51.73 -269.96 0zm334.29 0l0 -51.73 110.11 0 0 -351.54 -13.27 0 -97.49 65.67 0 -61.02 96.83 -65.67 72.3 0 0 412.56 101.48 0 0 51.73 -269.96 0zm607.57 -160.51l63.67 0 0 51.73 -63.67 0 0 108.78 -57.04 0 0 -108.78 -229.49 0 0 -66.32 204.95 -289.19 81.58 0 0 303.78zm-225.52 0l169.14 0 0 -238.12 -14.59 0 -154.55 223.53 0 14.59zm439.09 160.51l-68.98 0 0 -76.94 68.98 0 0 76.94zm115.41 -413.22c30.95,-40.24 72.29,-60.36 124.03,-60.36 51.73,0 93.2,20.23 124.37,60.69 31.18,40.46 46.77,100.7 46.77,180.74 0,80.04 -15.59,140.17 -46.77,180.42 -31.17,40.24 -72.63,60.36 -124.37,60.36 -51.73,0 -93.08,-20.12 -124.03,-60.36 -30.96,-40.24 -46.43,-100.38 -46.43,-180.42 0,-80.48 15.47,-140.83 46.43,-181.07zm39.79 320.03c18.57,33.38 46.65,50.08 84.23,50.08 37.59,0 65.78,-16.7 84.57,-50.08 18.8,-33.39 28.19,-79.71 28.19,-138.97 0,-59.69 -9.39,-106.23 -28.19,-139.62 -18.8,-33.39 -46.98,-50.08 -84.57,-50.08 -37.58,0 -65.67,16.69 -84.23,50.08 -18.57,33.39 -27.86,79.93 -27.86,139.62 0,59.26 9.29,105.58 27.86,138.97zm756.81 -7.63l56.37 0c-6.63,33.61 -22.21,60.25 -46.76,79.93 -24.54,19.68 -55.82,29.52 -93.86,29.52 -50.41,0 -90.09,-16.47 -119.06,-49.42 -28.96,-32.94 -43.44,-75.06 -43.44,-126.35 0,-51.73 14.37,-93.97 43.11,-126.68 28.74,-32.73 68.54,-49.09 119.39,-49.09 38.47,0 69.76,9.62 93.86,28.85 24.1,19.24 39.02,44.78 44.77,76.61l-56.37 0c-11.94,-37.58 -39.35,-56.37 -82.25,-56.37 -35.82,0 -62.46,11.82 -79.93,35.49 -17.46,23.65 -26.19,53.61 -26.19,89.87 0,36.71 8.84,67.21 26.53,91.54 17.69,24.31 44.22,36.48 79.59,36.48 46.88,0 74.96,-20.12 84.24,-60.36zm140.61 100.82l0 -334.29 89.54 0 82.24 152.56 14.59 0 82.25 -152.56 88.21 0 0 334.29 -55.05 0 0 -268.63 -14.59 0 -77.61 143.27 -62.35 0 -77.6 -143.27 -14.59 0 0 268.63 -55.05 0z"/>
  <path fill="#666666" fill-rule="nonzero" fill-opacity="0.800000" d="M4133.15 4378.95l14.59 0c6.2,-18.14 19.13,-34.72 38.8,-49.75 19.68,-15.04 43.67,-22.55 71.97,-22.55 38.91,0 71.19,15.37 96.83,46.1 25.65,30.73 38.47,71.3 38.47,121.71 0,50.42 -12.82,90.98 -38.47,121.72 -25.64,30.73 -57.92,46.1 -96.83,46.1 -27.86,0 -51.73,-7.52 -71.64,-22.55 -19.9,-15.04 -32.94,-31.62 -39.13,-49.75l-14.59 0c-6.19,14.59 -17.91,27.97 -35.16,40.13 -17.24,12.15 -38.02,18.24 -62.35,18.24 -36.7,0 -66.54,-14.37 -89.54,-43.11 -22.99,-28.75 -34.49,-65.67 -34.49,-110.77 0,-45.1 11.49,-82.02 34.49,-110.76 22.99,-28.74 52.84,-43.11 89.54,-43.11 23.44,0 44,6.19 61.69,18.57 17.69,12.38 29.63,25.65 35.82,39.8zm-150.9 26.19c-13.48,18.36 -20.23,41.46 -20.23,69.31 0,27.86 6.75,50.97 20.23,69.31 13.49,18.36 32.17,27.53 56.05,27.53 23.87,0 42.67,-9.17 56.38,-27.53 13.7,-18.35 20.56,-41.45 20.56,-69.31 0,-27.85 -6.86,-50.96 -20.56,-69.31 -13.71,-18.35 -32.51,-27.52 -56.38,-27.52 -23.88,0 -42.56,9.17 -56.05,27.52zm335.62 149.91c16.14,-19.69 24.21,-46.55 24.21,-80.6 0,-34.05 -8.07,-60.91 -24.21,-80.59 -16.14,-19.68 -37.69,-29.52 -64.67,-29.52 -27.42,0 -48.87,9.73 -64.34,29.19 -15.48,19.46 -23.21,46.43 -23.21,80.92 0,34.5 7.73,61.47 23.21,80.93 15.47,19.46 36.91,29.18 64.34,29.18 26.97,0 48.53,-9.83 64.67,-29.51zm-33.5 -1708.95l0 -56.37c33.61,6.63 60.25,22.21 79.93,46.76 19.68,24.54 29.52,55.82 29.52,93.86 0,50.41 -16.47,90.09 -49.42,119.06 -32.94,28.96 -75.06,43.44 -126.35,43.44 -51.73,0 -93.97,-14.37 -126.68,-43.11 -32.73,-28.74 -49.09,-68.54 -49.09,-119.39 0,-38.47 9.62,-69.76 28.85,-93.86 19.24,-24.1 44.78,-39.02 76.61,-44.77l0 56.37c-37.58,11.94 -56.37,39.35 -56.37,82.25 0,35.82 11.82,62.46 35.49,79.93 23.65,17.46 53.61,26.19 89.87,26.19 36.71,0 67.21,-8.84 91.54,-26.53 24.31,-17.69 36.48,-44.22 36.48,-79.59 0,-46.88 -20.12,-74.96 -60.36,-84.24zm100.82 -140.61l-334.29 0 0 -89.54 152.56 -82.24 0 -14.59 -152.56 -82.25 0 -88.21 334.29 0 0 55.05 -268.63 0 0 14.59 143.27 77.61 0 62.35 -143.27 77.6 0 14.59 268.63 0 0 55.05zm-302.45 1349.77c0,-42.44 14.26,-77.82 42.78,-106.12 28.52,-28.3 64.67,-42.45 108.45,-42.45 45.55,0 83.57,14.26 114.08,42.78 30.51,28.52 45.77,66.88 45.77,115.08 0,52.61 -18.13,94.19 -54.39,124.7 -36.26,30.51 -94.19,45.76 -173.77,45.76 -74.73,0 -135.76,-14.92 -183.07,-44.77 -47.32,-29.84 -70.97,-73.73 -70.97,-131.66 0,-38.46 10.27,-69.97 30.84,-94.52 20.57,-24.54 47.21,-39.46 79.93,-44.77l0 57.7c-39.35,11.5 -59.03,38.69 -59.03,81.58 0,36.71 14.59,65.45 43.77,86.23 29.19,20.78 69.42,32.06 120.72,33.83l0 -14.59c-11.93,-9.73 -22.43,-23.99 -31.5,-42.78 -9.07,-18.8 -13.6,-40.79 -13.6,-66.01zm230.82 82.91c19.01,-19.46 28.52,-43.78 28.52,-72.96 0,-29.18 -9.28,-53.17 -27.86,-71.96 -18.57,-18.8 -44.44,-28.19 -77.61,-28.19 -33.16,0 -58.58,9.5 -76.27,28.52 -17.69,19.01 -26.53,43.33 -26.53,72.96 0,29.18 9.06,53.28 27.19,72.29 18.13,19.02 43.11,28.52 74.95,28.52 32.72,0 58.59,-9.72 77.61,-29.18zm71.63 -380.06l0 68.98 -76.94 0 0 -68.98 76.94 0zm-413.22 -115.41c-40.24,-30.95 -60.36,-72.29 -60.36,-124.03 0,-51.73 20.23,-93.2 60.69,-124.37 40.46,-31.18 100.7,-46.77 180.74,-46.77 80.04,0 140.17,15.59 180.42,46.77 40.24,31.17 60.36,72.63 60.36,124.37 0,51.73 -20.12,93.08 -60.36,124.03 -40.24,30.96 -100.38,46.43 -180.42,46.43 -80.48,0 -140.83,-15.47 -181.07,-46.43zm320.03 -39.79c33.38,-18.57 50.08,-46.65 50.08,-84.23 0,-37.59 -16.7,-65.78 -50.08,-84.57 -33.39,-18.8 -79.71,-28.19 -138.97,-28.19 -59.69,0 -106.23,9.39 -139.62,28.19 -33.39,18.8 -50.08,46.98 -50.08,84.57 0,37.58 16.69,65.67 50.08,84.23 33.39,18.57 79.93,27.86 139.62,27.86 59.26,0 105.58,-9.29 138.97,-27.86z"/>
  <path fill="#666666" fill-rule="nonzero" fill-opacity="0.800000" d="M4385.2 10451.28l-51.73 0 0 -110.11 -351.54 0 0 13.27 65.67 97.49 -61.02 0 -65.67 -96.83 0 -72.3 412.56 0 0 -101.48 51.73 0 0 269.96zm-413.22 -378.07c-40.24,-30.95 -60.36,-72.29 -60.36,-124.03 0,-51.73 20.23,-93.2 60.69,-124.37 40.46,-31.18 100.7,-46.77 180.74,-46.77 80.04,0 140.17,15.59 180.42,46.77 40.24,31.17 60.36,72.63 60.36,124.37 0,51.73 -20.12,93.08 -60.36,124.03 -40.24,30.96 -100.38,46.43 -180.42,46.43 -80.48,0 -140.83,-15.47 -181.07,-46.43zm320.03 -39.79c33.38,-18.57 50.08,-46.65 50.08,-84.23 0,-37.59 -16.7,-65.78 -50.08,-84.57 -33.39,-18.8 -79.71,-28.19 -138.97,-28.19 -59.69,0 -106.23,9.39 -139.62,28.19 -33.39,18.8 -50.08,46.98 -50.08,84.57 0,37.58 16.69,65.67 50.08,84.23 33.39,18.57 79.93,27.86 139.62,27.86 59.26,0 105.58,-9.29 138.97,-27.86zm-243.09 -385.37l0 58.37c-44.66,-2.65 -78.71,-18.24 -102.15,-46.76 -23.43,-28.52 -35.15,-64.45 -35.15,-107.79 0,-45.1 12.27,-81.46 36.81,-109.11 24.54,-27.64 59.37,-41.45 104.47,-41.45 54.83,0 110.76,34.27 167.81,102.8l98.17 116.74 14.59 0 0 -234.14 51.73 0 0 319.04 -65.67 0 -55.71 -68.32c-34.05,-42.44 -63.9,-77.6 -89.55,-105.46 -9.28,-10.61 -17.24,-19.13 -23.87,-25.53 -6.64,-6.42 -15.37,-13.71 -26.2,-21.9 -10.83,-8.17 -22.21,-14.37 -34.16,-18.57 -11.94,-4.2 -24.32,-6.31 -37.14,-6.31 -28.74,0 -50.85,8.4 -66.32,25.21 -15.48,16.8 -23.21,39.57 -23.21,68.31 0,26.97 7.19,48.75 21.56,65.34 14.37,16.58 35.71,26.42 64.01,29.51zm336.28 -412.56l0 68.98 -76.94 0 0 -68.98 76.94 0zm-413.22 -115.41c-40.24,-30.95 -60.36,-72.29 -60.36,-124.03 0,-51.73 20.23,-93.2 60.69,-124.37 40.46,-31.18 100.7,-46.77 180.74,-46.77 80.04,0 140.17,15.59 180.42,46.77 40.24,31.17 60.36,72.63 60.36,124.37 0,51.73 -20.12,93.08 -60.36,124.03 -40.24,30.96 -100.38,46.43 -180.42,46.43 -80.48,0 -140.83,-15.47 -181.07,-46.43zm320.03 -39.79c33.38,-18.57 50.08,-46.65 50.08,-84.23 0,-37.59 -16.7,-65.78 -50.08,-84.57 -33.39,-18.8 -79.71,-28.19 -138.97,-28.19 -59.69,0 -106.23,9.39 -139.62,28.19 -33.39,18.8 -50.08,46.98 -50.08,84.57 0,37.58 16.69,65.67 50.08,84.23 33.39,18.57 79.93,27.86 139.62,27.86 59.26,0 105.58,-9.29 138.97,-27.86zm-7.63 -756.81l0 -56.37c33.61,6.63 60.25,22.21 79.93,46.76 19.68,24.54 29.52,55.82 29.52,93.86 0,50.41 -16.47,90.09 -49.42,119.06 -32.94,28.96 -75.06,43.44 -126.35,43.44 -51.73,0 -93.97,-14.37 -126.68,-43.11 -32.73,-28.74 -49.09,-68.54 -49.09,-119.39 0,-38.47 9.62,-69.76 28.85,-93.86 19.24,-24.1 44.78,-39.02 76.61,-44.77l0 56.37c-37.58,11.94 -56.37,39.35 -56.37,82.25 0,35.82 11.82,62.46 35.49,79.93 23.65,17.46 53.61,26.19 89.87,26.19 36.71,0 67.21,-8.84 91.54,-26.53 24.31,-17.69 36.48,-44.22 36.48,-79.59 0,-46.88 -20.12,-74.96 -60.36,-84.24zm100.82 -140.61l-334.29 0 0 -89.54 152.56 -82.24 0 -14.59 -152.56 -82.25 0 -88.21 334.29 0 0 55.05 -268.63 0 0 14.59 143.27 77.61 0 62.35 -143.27 77.6 0 14.59 268.63 0 0 55.05z"/>
 </g>
 <g id="Выносные_x0020_линии">
  <metadata id="CorelCorpID_3Corel-Layer"/>
  <g id="_2238482408864">
   <line fill="none" stroke="gray" stroke-width="10.57" stroke-miterlimit="22.9256" x1="4402.38" y1="5388.69" x2="5376.19" y2= "5388.69" />
   <line fill="none" stroke="gray" stroke-width="10.57" stroke-miterlimit="22.9256" x1="4400" y1="1743.82" x2="5376.19" y2= "1743.82" />
   <line fill="none" stroke="gray" stroke-width="10.57" stroke-miterlimit="22.9256" x1="4768.33" y1="5751.78" x2="4768.33" y2= "1427.49" />
  </g>
  <g id="_2238482413568">
   <line fill="none" stroke="gray" stroke-width="10.57" stroke-miterlimit="22.9256" x1="4402.38" y1="11250.35" x2="5376.19" y2= "11250.35" />
   <line fill="none" stroke="gray" stroke-width="10.57" stroke-miterlimit="22.9256" x1="4400" y1="7111.29" x2="5376.19" y2= "7111.29" />
   <line fill="none" stroke="gray" stroke-width="10.57" stroke-miterlimit="22.9256" x1="4768.33" y1="11633.57" x2="4768.33" y2= "6794.97" />
  </g>
  <g id="_2238482412416">
   <line fill="none" stroke="gray" stroke-width="10.57" stroke-miterlimit="22.9256" x1="10520.88" y1="12577.85" x2="10520.88" y2= "11604.04" />
   <line fill="none" stroke="gray" stroke-width="10.57" stroke-miterlimit="22.9256" x1="5622.36" y1="12580.23" x2="5622.36" y2= "11604.04" />
   <line fill="none" stroke="gray" stroke-width="10.57" stroke-miterlimit="22.9256" x1="10974.41" y1="12211.9" x2="5248.01" y2= "12211.9" />
  </g>
 </g>
</svg>
