<?xml version="1.0" encoding="UTF-8"?>
<!DOCTYPE svg PUBLIC "-//W3C//DTD SVG 1.1//EN" "http://www.w3.org/Graphics/SVG/1.1/DTD/svg11.dtd">
<!-- Creator: CorelDRAW 2021.5 -->
<svg xmlns="http://www.w3.org/2000/svg" xml:space="preserve" width="420mm" height="297mm" version="1.1" shape-rendering="geometricPrecision" text-rendering="geometricPrecision" image-rendering="optimizeQuality" fill-rule="evenodd" clip-rule="evenodd"
viewBox="0 0 41988.4 29691.8"
 xmlns:xlink="http://www.w3.org/1999/xlink"
 xmlns:xodm="http://www.corel.com/coreldraw/odm/2003">
 <g id="Текст">
  <metadata id="CorelCorpID_0Corel-Layer"/>
  <path fill="#666666" fill-rule="nonzero" fill-opacity="0.800000" d="M7406.51 5751.05l7.76 0c3.3,-9.64 10.18,-18.45 20.63,-26.45 10.47,-7.99 23.22,-11.99 38.27,-11.99 20.69,0 37.85,8.17 51.49,24.51 13.65,16.34 20.46,37.91 20.46,64.71 0,26.8 -6.82,48.38 -20.46,64.72 -13.64,16.34 -30.79,24.51 -51.49,24.51 -14.82,0 -27.51,-4 -38.09,-12 -10.58,-8 -17.52,-16.81 -20.81,-26.45l-7.76 0c-3.29,7.76 -9.52,14.88 -18.68,21.34 -9.18,6.46 -20.22,9.7 -33.16,9.7 -19.51,0 -35.38,-7.65 -47.61,-22.92 -12.23,-15.29 -18.33,-34.92 -18.33,-58.9 0,-23.98 6.11,-43.62 18.33,-58.89 12.23,-15.29 28.09,-22.92 47.61,-22.92 12.47,0 23.4,3.29 32.8,9.87 9.41,6.59 15.76,13.65 19.04,21.16zm-80.23 13.94c-7.18,9.76 -10.76,22.04 -10.76,36.85 0,14.82 3.58,27.1 10.76,36.86 7.17,9.76 17.11,14.64 29.8,14.64 12.7,0 22.68,-4.88 29.97,-14.64 7.29,-9.76 10.94,-22.04 10.94,-36.86 0,-14.81 -3.65,-27.09 -10.94,-36.85 -7.29,-9.76 -17.28,-14.64 -29.97,-14.64 -12.7,0 -22.63,4.88 -29.8,14.64zm178.45 79.7c8.59,-10.46 12.88,-24.74 12.88,-42.85 0,-18.1 -4.29,-32.38 -12.88,-42.85 -8.58,-10.47 -20.04,-15.7 -34.38,-15.7 -14.58,0 -25.98,5.17 -34.21,15.52 -8.23,10.35 -12.35,24.69 -12.35,43.03 0,18.34 4.12,32.68 12.35,43.03 8.23,10.35 19.63,15.52 34.21,15.52 14.34,0 25.8,-5.23 34.38,-15.7zm-183.92 -194.86c-21.39,-16.46 -32.09,-38.44 -32.09,-65.95 0,-27.5 10.75,-49.55 32.26,-66.12 21.51,-16.58 53.56,-24.86 96.11,-24.86 42.56,0 74.53,8.29 95.92,24.86 21.4,16.58 32.1,38.62 32.1,66.12 0,27.51 -10.7,49.5 -32.1,65.95 -21.39,16.47 -53.37,24.69 -95.92,24.69 -42.8,0 -74.89,-8.23 -96.28,-24.69zm170.16 -21.15c17.76,-9.88 26.63,-24.81 26.63,-44.8 0,-19.98 -8.88,-34.97 -26.63,-44.97 -17.75,-9.99 -42.38,-14.99 -73.88,-14.99 -31.74,0 -56.49,5 -74.24,14.99 -17.76,10 -26.63,24.98 -26.63,44.97 0,19.98 8.88,34.92 26.63,44.8 17.75,9.87 42.5,14.81 74.24,14.81 31.5,0 56.13,-4.94 73.88,-14.81zm49.56 -206.32l0 36.68 -40.91 0 0 -36.68 40.91 0zm-219.72 -61.37c-21.39,-16.46 -32.09,-38.44 -32.09,-65.95 0,-27.5 10.75,-49.55 32.26,-66.12 21.51,-16.58 53.56,-24.86 96.11,-24.86 42.56,0 74.53,8.29 95.92,24.86 21.4,16.58 32.1,38.62 32.1,66.12 0,27.51 -10.7,49.5 -32.1,65.95 -21.39,16.47 -53.37,24.69 -95.92,24.69 -42.8,0 -74.89,-8.23 -96.28,-24.69zm170.16 -21.15c17.76,-9.88 26.63,-24.81 26.63,-44.8 0,-19.98 -8.88,-34.97 -26.63,-44.97 -17.75,-9.99 -42.38,-14.99 -73.88,-14.99 -31.74,0 -56.49,5 -74.24,14.99 -17.76,10 -26.63,24.98 -26.63,44.97 0,19.98 8.88,34.92 26.63,44.8 17.75,9.87 42.5,14.81 74.24,14.81 31.5,0 56.13,-4.94 73.88,-14.81zm-4.05 -402.42l0 -29.97c17.87,3.53 32.03,11.82 42.5,24.86 10.46,13.05 15.7,29.68 15.7,49.91 0,26.8 -8.76,47.91 -26.28,63.3 -17.52,15.41 -39.91,23.1 -67.18,23.1 -27.51,0 -49.97,-7.65 -67.36,-22.92 -17.41,-15.29 -26.1,-36.45 -26.1,-63.48 0,-20.45 5.12,-37.09 15.35,-49.91 10.23,-12.82 23.8,-20.75 40.73,-23.8l0 29.97c-19.98,6.35 -29.97,20.92 -29.97,43.74 0,19.04 6.29,33.21 18.86,42.5 12.58,9.29 28.51,13.93 47.79,13.93 19.51,0 35.74,-4.7 48.68,-14.11 12.93,-9.41 19.39,-23.51 19.39,-42.32 0,-24.92 -10.7,-39.86 -32.09,-44.8zm53.61 -74.77l-177.75 0 0 -47.61 81.12 -43.74 0 -7.76 -81.12 -43.73 0 -46.91 177.75 0 0 29.27 -142.84 0 0 7.76 76.18 41.26 0 33.15 -76.18 41.27 0 7.76 142.84 0 0 29.27z"/>
  <path fill="#666666" fill-rule="nonzero" fill-opacity="0.800000" d="M7353.87 10660.28l0 31.03c-23.74,-1.41 -41.85,-9.7 -54.31,-24.86 -12.46,-15.17 -18.68,-34.27 -18.68,-57.31 0,-23.97 6.52,-43.32 19.56,-58.01 13.06,-14.7 31.57,-22.04 55.55,-22.04 29.15,0 58.89,18.22 89.23,54.66l52.2 62.07 7.76 0 0 -124.5 27.51 0 0 169.64 -34.92 0 -29.62 -36.33c-18.1,-22.56 -33.97,-41.26 -47.61,-56.07 -4.94,-5.64 -9.18,-10.17 -12.7,-13.58 -3.53,-3.41 -8.18,-7.29 -13.94,-11.64 -5.76,-4.35 -11.82,-7.65 -18.16,-9.88 -6.35,-2.23 -12.93,-3.35 -19.74,-3.35 -15.29,0 -27.04,4.47 -35.27,13.4 -8.23,8.94 -12.35,21.04 -12.35,36.33 0,14.35 3.82,25.92 11.47,34.74 7.64,8.82 18.98,14.05 34.03,15.7zm93.46 -321.65l0 -33.86 27.5 0 0 33.86 57.84 0 0 30.33 -57.84 0 0 122.03 -35.26 0 -153.78 -108.98 0 -43.38 161.54 0zm0 119.92l0 -89.94 -126.62 0 0 7.76 118.86 82.18 7.76 0zm-161.54 -197.51l0 -144.25 34.57 0 52.9 61.72 7.41 0c0.47,-21.86 7.29,-39.56 20.45,-53.08 13.17,-13.53 31.39,-20.28 54.66,-20.28 25.16,0 45.03,8.12 59.6,24.33 14.59,16.23 21.87,37.15 21.87,62.78 0,24.68 -6.94,44.91 -20.81,60.66 -13.87,15.75 -31.5,24.33 -52.9,25.74l0 -31.04c13.87,-1.41 25.03,-7.23 33.5,-17.46 8.47,-10.23 12.7,-22.86 12.7,-37.91 0,-17.17 -4.82,-30.8 -14.46,-40.91 -9.65,-10.12 -22.81,-15.17 -39.51,-15.17 -16.46,0 -29.33,4.82 -38.62,14.46 -9.29,9.64 -13.93,23.39 -13.93,41.27 0,8.7 0.71,15.87 2.12,21.51l-32.8 0 -52.2 -60.31 -7.76 0 0 107.92 -26.81 0zm246.88 -231.36l0 36.68 -40.91 0 0 -36.68 40.91 0zm-219.72 -61.37c-21.39,-16.46 -32.09,-38.44 -32.09,-65.95 0,-27.5 10.75,-49.55 32.26,-66.12 21.51,-16.58 53.56,-24.86 96.11,-24.86 42.56,0 74.53,8.29 95.92,24.86 21.4,16.58 32.1,38.62 32.1,66.12 0,27.51 -10.7,49.5 -32.1,65.95 -21.39,16.47 -53.37,24.69 -95.92,24.69 -42.8,0 -74.89,-8.23 -96.28,-24.69zm170.16 -21.15c17.76,-9.88 26.63,-24.81 26.63,-44.8 0,-19.98 -8.88,-34.97 -26.63,-44.97 -17.75,-9.99 -42.38,-14.99 -73.88,-14.99 -31.74,0 -56.49,5 -74.24,14.99 -17.76,10 -26.63,24.98 -26.63,44.97 0,19.98 8.88,34.92 26.63,44.8 17.75,9.87 42.5,14.81 74.24,14.81 31.5,0 56.13,-4.94 73.88,-14.81zm-4.05 -402.42l0 -29.97c17.87,3.53 32.03,11.82 42.5,24.86 10.46,13.05 15.7,29.68 15.7,49.91 0,26.8 -8.76,47.91 -26.28,63.3 -17.52,15.41 -39.91,23.1 -67.18,23.1 -27.51,0 -49.97,-7.65 -67.36,-22.92 -17.41,-15.29 -26.1,-36.45 -26.1,-63.48 0,-20.45 5.12,-37.09 15.35,-49.91 10.23,-12.82 23.8,-20.75 40.73,-23.8l0 29.97c-19.98,6.35 -29.97,20.92 -29.97,43.74 0,19.04 6.29,33.21 18.86,42.5 12.58,9.29 28.51,13.93 47.79,13.93 19.51,0 35.74,-4.7 48.68,-14.11 12.93,-9.41 19.39,-23.51 19.39,-42.32 0,-24.92 -10.7,-39.86 -32.09,-44.8zm53.61 -74.77l-177.75 0 0 -47.61 81.12 -43.74 0 -7.76 -81.12 -43.73 0 -46.91 177.75 0 0 29.27 -142.84 0 0 7.76 76.18 41.26 0 33.15 -76.18 41.27 0 7.76 142.84 0 0 29.27z"/>
  <path fill="#666666" fill-rule="nonzero" fill-opacity="0.800000" d="M9446.93 13789.14l0 -27.51 58.55 0 0 -186.92 -7.06 0 -51.85 34.91 0 -32.44 51.5 -34.92 38.44 0 0 219.37 53.97 0 0 27.51 -143.55 0zm271.92 -160.83c22.56,0 41.38,7.59 56.42,22.75 15.05,15.17 22.57,34.38 22.57,57.66 0,24.21 -7.59,44.44 -22.75,60.65 -15.16,16.23 -35.56,24.34 -61.18,24.34 -27.98,0 -50.09,-9.65 -66.31,-28.92 -16.22,-19.28 -24.33,-50.09 -24.33,-92.4 0,-39.74 7.94,-72.18 23.81,-97.34 15.87,-25.15 39.2,-37.73 70,-37.73 20.45,0 37.21,5.46 50.26,16.4 13.06,10.94 20.98,25.1 23.81,42.5l-30.69 0c-6.11,-20.92 -20.56,-31.39 -43.38,-31.39 -19.51,0 -34.8,7.76 -45.85,23.28 -11.05,15.52 -17.05,36.91 -17.99,64.18l7.76 0c5.17,-6.35 12.76,-11.93 22.74,-16.76 10,-4.82 21.69,-7.23 35.1,-7.23zm-44.09 122.74c10.35,10.11 23.27,15.17 38.79,15.17 15.53,0 28.28,-4.94 38.27,-14.82 10,-9.88 14.99,-23.62 14.99,-41.26 0,-17.64 -5.05,-31.15 -15.17,-40.56 -10.11,-9.41 -23.03,-14.11 -38.79,-14.11 -15.52,0 -28.33,4.82 -38.44,14.46 -10.12,9.64 -15.17,22.92 -15.17,39.85 0,17.41 5.17,31.16 15.52,41.27zm296.61 -95.93l0 7.76c9.64,3.3 18.45,10.18 26.45,20.63 7.99,10.47 11.99,23.22 11.99,38.27 0,20.69 -8.17,37.85 -24.51,51.49 -16.34,13.65 -37.91,20.46 -64.71,20.46 -26.8,0 -48.38,-6.82 -64.72,-20.46 -16.34,-13.64 -24.51,-30.79 -24.51,-51.49 0,-14.82 4,-27.51 12,-38.09 8,-10.58 16.81,-17.52 26.45,-20.81l0 -7.76c-7.76,-3.29 -14.88,-9.52 -21.34,-18.68 -6.46,-9.18 -9.7,-20.22 -9.7,-33.16 0,-19.51 7.65,-35.38 22.92,-47.61 15.29,-12.23 34.92,-18.33 58.9,-18.33 23.98,0 43.62,6.11 58.89,18.33 15.29,12.23 22.92,28.09 22.92,47.61 0,12.47 -3.29,23.4 -9.87,32.8 -6.59,9.41 -13.65,15.76 -21.16,19.04zm-13.94 -80.23c-9.76,-7.18 -22.04,-10.76 -36.85,-10.76 -14.82,0 -27.1,3.58 -36.86,10.76 -9.76,7.17 -14.64,17.11 -14.64,29.8 0,12.7 4.88,22.68 14.64,29.97 9.76,7.29 22.04,10.94 36.86,10.94 14.81,0 27.09,-3.65 36.85,-10.94 9.76,-7.29 14.64,-17.28 14.64,-29.97 0,-12.7 -4.88,-22.63 -14.64,-29.8zm-79.7 178.45c10.46,8.59 24.74,12.88 42.85,12.88 18.1,0 32.38,-4.29 42.85,-12.88 10.47,-8.58 15.7,-20.04 15.7,-34.38 0,-14.58 -5.17,-25.98 -15.52,-34.21 -10.35,-8.23 -24.69,-12.35 -43.03,-12.35 -18.34,0 -32.68,4.12 -43.03,12.35 -10.35,8.23 -15.52,19.63 -15.52,34.21 0,14.34 5.23,25.8 15.7,34.38zm214.6 35.8l-36.68 0 0 -40.91 36.68 0 0 40.91zm61.37 -219.72c16.46,-21.39 38.44,-32.09 65.95,-32.09 27.5,0 49.55,10.75 66.12,32.26 16.58,21.51 24.86,53.56 24.86,96.11 0,42.56 -8.29,74.53 -24.86,95.92 -16.58,21.4 -38.62,32.1 -66.12,32.1 -27.51,0 -49.5,-10.7 -65.95,-32.1 -16.47,-21.39 -24.69,-53.37 -24.69,-95.92 0,-42.8 8.23,-74.89 24.69,-96.28zm21.15 170.16c9.88,17.76 24.81,26.63 44.8,26.63 19.98,0 34.97,-8.88 44.97,-26.63 9.99,-17.75 14.99,-42.38 14.99,-73.88 0,-31.74 -5,-56.49 -14.99,-74.24 -10,-17.76 -24.98,-26.63 -44.97,-26.63 -19.98,0 -34.92,8.88 -44.8,26.63 -9.87,17.75 -14.81,42.5 -14.81,74.24 0,31.5 4.94,56.13 14.81,73.88zm402.42 -4.05l29.97 0c-3.53,17.87 -11.82,32.03 -24.86,42.5 -13.05,10.46 -29.68,15.7 -49.91,15.7 -26.8,0 -47.91,-8.76 -63.3,-26.28 -15.41,-17.52 -23.1,-39.91 -23.1,-67.18 0,-27.51 7.65,-49.97 22.92,-67.36 15.29,-17.41 36.45,-26.1 63.48,-26.1 20.45,0 37.09,5.12 49.91,15.35 12.82,10.23 20.75,23.8 23.8,40.73l-29.97 0c-6.35,-19.98 -20.92,-29.97 -43.74,-29.97 -19.04,0 -33.21,6.29 -42.5,18.86 -9.29,12.58 -13.93,28.51 -13.93,47.79 0,19.51 4.7,35.74 14.11,48.68 9.41,12.93 23.51,19.39 42.32,19.39 24.92,0 39.86,-10.7 44.8,-32.09zm74.77 53.61l0 -177.75 47.61 0 43.74 81.12 7.76 0 43.73 -81.12 46.91 0 0 177.75 -29.27 0 0 -142.84 -7.76 0 -41.26 76.18 -33.15 0 -41.27 -76.18 -7.76 0 0 142.84 -29.27 0z"/>
  <path fill="#666666" fill-rule="nonzero" fill-opacity="0.800000" d="M22056.47 18229.68l7.76 0c3.3,-9.64 10.18,-18.45 20.63,-26.45 10.47,-7.99 23.22,-11.99 38.27,-11.99 20.69,0 37.85,8.17 51.49,24.51 13.65,16.34 20.46,37.91 20.46,64.71 0,26.8 -6.82,48.38 -20.46,64.72 -13.64,16.34 -30.79,24.51 -51.49,24.51 -14.82,0 -27.51,-4 -38.09,-12 -10.58,-8 -17.52,-16.81 -20.81,-26.45l-7.76 0c-3.29,7.76 -9.52,14.88 -18.68,21.34 -9.18,6.46 -20.22,9.7 -33.16,9.7 -19.51,0 -35.38,-7.65 -47.61,-22.92 -12.23,-15.29 -18.33,-34.92 -18.33,-58.9 0,-23.98 6.11,-43.62 18.33,-58.89 12.23,-15.29 28.09,-22.92 47.61,-22.92 12.47,0 23.4,3.29 32.8,9.87 9.41,6.59 15.76,13.65 19.04,21.16zm-80.23 13.94c-7.18,9.76 -10.76,22.04 -10.76,36.85 0,14.82 3.58,27.1 10.76,36.86 7.17,9.76 17.11,14.64 29.8,14.64 12.7,0 22.68,-4.88 29.97,-14.64 7.29,-9.76 10.94,-22.04 10.94,-36.86 0,-14.81 -3.65,-27.09 -10.94,-36.85 -7.29,-9.76 -17.28,-14.64 -29.97,-14.64 -12.7,0 -22.63,4.88 -29.8,14.64zm178.45 79.7c8.59,-10.46 12.88,-24.74 12.88,-42.85 0,-18.1 -4.29,-32.38 -12.88,-42.85 -8.58,-10.47 -20.04,-15.7 -34.38,-15.7 -14.58,0 -25.98,5.17 -34.21,15.52 -8.23,10.35 -12.35,24.69 -12.35,43.03 0,18.34 4.12,32.68 12.35,43.03 8.23,10.35 19.63,15.52 34.21,15.52 14.34,0 25.8,-5.23 34.38,-15.7zm-183.92 -194.86c-21.39,-16.46 -32.09,-38.44 -32.09,-65.95 0,-27.5 10.75,-49.55 32.26,-66.12 21.51,-16.58 53.56,-24.86 96.11,-24.86 42.56,0 74.53,8.29 95.92,24.86 21.4,16.58 32.1,38.62 32.1,66.12 0,27.51 -10.7,49.5 -32.1,65.95 -21.39,16.47 -53.37,24.69 -95.92,24.69 -42.8,0 -74.89,-8.23 -96.28,-24.69zm170.16 -21.15c17.76,-9.88 26.63,-24.81 26.63,-44.8 0,-19.98 -8.88,-34.97 -26.63,-44.97 -17.75,-9.99 -42.38,-14.99 -73.88,-14.99 -31.74,0 -56.49,5 -74.24,14.99 -17.76,10 -26.63,24.98 -26.63,44.97 0,19.98 8.88,34.92 26.63,44.8 17.75,9.87 42.5,14.81 74.24,14.81 31.5,0 56.13,-4.94 73.88,-14.81zm49.56 -219.02l0 36.68 -40.91 0 0 -36.68 40.91 0zm-219.72 -61.37c-21.39,-16.46 -32.09,-38.44 -32.09,-65.95 0,-27.5 10.75,-49.55 32.26,-66.12 21.51,-16.58 53.56,-24.86 96.11,-24.86 42.56,0 74.53,8.29 95.92,24.86 21.4,16.58 32.1,38.62 32.1,66.12 0,27.51 -10.7,49.5 -32.1,65.95 -21.39,16.47 -53.37,24.69 -95.92,24.69 -42.8,0 -74.89,-8.23 -96.28,-24.69zm170.16 -21.15c17.76,-9.88 26.63,-24.81 26.63,-44.8 0,-19.98 -8.88,-34.97 -26.63,-44.97 -17.75,-9.99 -42.38,-14.99 -73.88,-14.99 -31.74,0 -56.49,5 -74.24,14.99 -17.76,10 -26.63,24.98 -26.63,44.97 0,19.98 8.88,34.92 26.63,44.8 17.75,9.87 42.5,14.81 74.24,14.81 31.5,0 56.13,-4.94 73.88,-14.81zm-4.05 -402.42l0 -29.97c17.87,3.53 32.03,11.82 42.5,24.86 10.46,13.05 15.7,29.68 15.7,49.91 0,26.8 -8.76,47.91 -26.28,63.3 -17.52,15.41 -39.91,23.1 -67.18,23.1 -27.51,0 -49.97,-7.65 -67.36,-22.92 -17.41,-15.29 -26.1,-36.45 -26.1,-63.48 0,-20.45 5.12,-37.09 15.35,-49.91 10.23,-12.82 23.8,-20.75 40.73,-23.8l0 29.97c-19.98,6.35 -29.97,20.92 -29.97,43.74 0,19.04 6.29,33.21 18.86,42.5 12.58,9.29 28.51,13.93 47.79,13.93 19.51,0 35.74,-4.7 48.68,-14.11 12.93,-9.41 19.39,-23.51 19.39,-42.32 0,-24.92 -10.7,-39.86 -32.09,-44.8zm53.61 -74.77l-177.75 0 0 -47.61 81.12 -43.74 0 -7.76 -81.12 -43.73 0 -46.91 177.75 0 0 29.27 -142.84 0 0 7.76 76.18 41.26 0 33.15 -76.18 41.27 0 7.76 142.84 0 0 29.27z"/>
  <path fill="#666666" fill-rule="nonzero" fill-opacity="0.800000" d="M22004.48 23119.77l0 31.03c-23.74,-1.41 -41.85,-9.7 -54.31,-24.86 -12.46,-15.17 -18.68,-34.27 -18.68,-57.31 0,-23.97 6.52,-43.32 19.56,-58.01 13.06,-14.7 31.57,-22.04 55.55,-22.04 29.15,0 58.89,18.22 89.23,54.66l52.2 62.07 7.76 0 0 -124.5 27.51 0 0 169.64 -34.92 0 -29.62 -36.33c-18.1,-22.56 -33.97,-41.26 -47.61,-56.07 -4.94,-5.64 -9.18,-10.17 -12.7,-13.58 -3.53,-3.41 -8.18,-7.29 -13.94,-11.64 -5.76,-4.35 -11.82,-7.65 -18.16,-9.88 -6.35,-2.23 -12.93,-3.35 -19.74,-3.35 -15.29,0 -27.04,4.47 -35.27,13.4 -8.23,8.94 -12.35,21.04 -12.35,36.33 0,14.35 3.82,25.92 11.47,34.74 7.64,8.82 18.98,14.05 34.03,15.7zm93.46 -321.65l0 -33.86 27.5 0 0 33.86 57.84 0 0 30.33 -57.84 0 0 122.03 -35.26 0 -153.78 -108.98 0 -43.38 161.54 0zm0 119.92l0 -89.94 -126.62 0 0 7.76 118.86 82.18 7.76 0zm-161.54 -197.51l0 -144.25 34.57 0 52.9 61.72 7.41 0c0.47,-21.86 7.29,-39.56 20.45,-53.08 13.17,-13.53 31.39,-20.28 54.66,-20.28 25.16,0 45.03,8.12 59.6,24.33 14.59,16.23 21.87,37.15 21.87,62.78 0,24.68 -6.94,44.91 -20.81,60.66 -13.87,15.75 -31.5,24.33 -52.9,25.74l0 -31.04c13.87,-1.41 25.03,-7.23 33.5,-17.46 8.47,-10.23 12.7,-22.86 12.7,-37.91 0,-17.17 -4.82,-30.8 -14.46,-40.91 -9.65,-10.12 -22.81,-15.17 -39.51,-15.17 -16.46,0 -29.33,4.82 -38.62,14.46 -9.29,9.64 -13.93,23.39 -13.93,41.27 0,8.7 0.71,15.87 2.12,21.51l-32.8 0 -52.2 -60.31 -7.76 0 0 107.92 -26.81 0zm246.88 -231.36l0 36.68 -40.91 0 0 -36.68 40.91 0zm-219.72 -61.37c-21.39,-16.46 -32.09,-38.44 -32.09,-65.95 0,-27.5 10.75,-49.55 32.26,-66.12 21.51,-16.58 53.56,-24.86 96.11,-24.86 42.56,0 74.53,8.29 95.92,24.86 21.4,16.58 32.1,38.62 32.1,66.12 0,27.51 -10.7,49.5 -32.1,65.95 -21.39,16.47 -53.37,24.69 -95.92,24.69 -42.8,0 -74.89,-8.23 -96.28,-24.69zm170.16 -21.15c17.76,-9.88 26.63,-24.81 26.63,-44.8 0,-19.98 -8.88,-34.97 -26.63,-44.97 -17.75,-9.99 -42.38,-14.99 -73.88,-14.99 -31.74,0 -56.49,5 -74.24,14.99 -17.76,10 -26.63,24.98 -26.63,44.97 0,19.98 8.88,34.92 26.63,44.8 17.75,9.87 42.5,14.81 74.24,14.81 31.5,0 56.13,-4.94 73.88,-14.81zm-4.05 -402.42l0 -29.97c17.87,3.53 32.03,11.82 42.5,24.86 10.46,13.05 15.7,29.68 15.7,49.91 0,26.8 -8.76,47.91 -26.28,63.3 -17.52,15.41 -39.91,23.1 -67.18,23.1 -27.51,0 -49.97,-7.65 -67.36,-22.92 -17.41,-15.29 -26.1,-36.45 -26.1,-63.48 0,-20.45 5.12,-37.09 15.35,-49.91 10.23,-12.82 23.8,-20.75 40.73,-23.8l0 29.97c-19.98,6.35 -29.97,20.92 -29.97,43.74 0,19.04 6.29,33.21 18.86,42.5 12.58,9.29 28.51,13.93 47.79,13.93 19.51,0 35.74,-4.7 48.68,-14.11 12.93,-9.41 19.39,-23.51 19.39,-42.32 0,-24.92 -10.7,-39.86 -32.09,-44.8zm53.61 -74.77l-177.75 0 0 -47.61 81.12 -43.74 0 -7.76 -81.12 -43.73 0 -46.91 177.75 0 0 29.27 -142.84 0 0 7.76 76.18 41.26 0 33.15 -76.18 41.27 0 7.76 142.84 0 0 29.27z"/>
  <path fill="#666666" fill-rule="nonzero" fill-opacity="0.800000" d="M24830.7 26099.82l-31.03 0c1.41,-23.74 9.7,-41.85 24.86,-54.31 15.17,-12.46 34.27,-18.68 57.31,-18.68 23.97,0 43.32,6.52 58.01,19.56 14.7,13.06 22.04,31.57 22.04,55.55 0,29.15 -18.22,58.89 -54.66,89.23l-62.07 52.2 0 7.76 124.5 0 0 27.51 -169.64 0 0 -34.92 36.33 -29.62c22.56,-18.1 41.26,-33.97 56.07,-47.61 5.64,-4.94 10.17,-9.18 13.58,-12.7 3.41,-3.53 7.29,-8.18 11.64,-13.94 4.35,-5.76 7.65,-11.82 9.88,-18.16 2.23,-6.35 3.35,-12.93 3.35,-19.74 0,-15.29 -4.47,-27.04 -13.4,-35.27 -8.94,-8.23 -21.04,-12.35 -36.33,-12.35 -14.35,0 -25.92,3.82 -34.74,11.47 -8.82,7.64 -14.05,18.98 -15.7,34.03zm205.26 0l-31.03 0c1.41,-23.74 9.7,-41.85 24.86,-54.31 15.17,-12.46 34.27,-18.68 57.31,-18.68 23.97,0 43.32,6.52 58.01,19.56 14.7,13.06 22.04,31.57 22.04,55.55 0,29.15 -18.22,58.89 -54.66,89.23l-62.07 52.2 0 7.76 124.5 0 0 27.51 -169.64 0 0 -34.92 36.33 -29.62c22.56,-18.1 41.26,-33.97 56.07,-47.61 5.64,-4.94 10.17,-9.18 13.58,-12.7 3.41,-3.53 7.29,-8.18 11.64,-13.94 4.35,-5.76 7.65,-11.82 9.88,-18.16 2.23,-6.35 3.35,-12.93 3.35,-19.74 0,-15.29 -4.47,-27.04 -13.4,-35.27 -8.94,-8.23 -21.04,-12.35 -36.33,-12.35 -14.35,0 -25.92,3.82 -34.74,11.47 -8.82,7.64 -14.05,18.98 -15.7,34.03zm313.89 44.79l0 7.76c9.64,3.3 18.45,10.18 26.45,20.63 7.99,10.47 11.99,23.22 11.99,38.27 0,20.69 -8.17,37.85 -24.51,51.49 -16.34,13.65 -37.91,20.46 -64.71,20.46 -26.8,0 -48.38,-6.82 -64.72,-20.46 -16.34,-13.64 -24.51,-30.79 -24.51,-51.49 0,-14.82 4,-27.51 12,-38.09 8,-10.58 16.81,-17.52 26.45,-20.81l0 -7.76c-7.76,-3.29 -14.88,-9.52 -21.34,-18.68 -6.46,-9.18 -9.7,-20.22 -9.7,-33.16 0,-19.51 7.65,-35.38 22.92,-47.61 15.29,-12.23 34.92,-18.33 58.9,-18.33 23.98,0 43.62,6.11 58.89,18.33 15.29,12.23 22.92,28.09 22.92,47.61 0,12.47 -3.29,23.4 -9.87,32.8 -6.59,9.41 -13.65,15.76 -21.16,19.04zm-13.94 -80.23c-9.76,-7.18 -22.04,-10.76 -36.85,-10.76 -14.82,0 -27.1,3.58 -36.86,10.76 -9.76,7.17 -14.64,17.11 -14.64,29.8 0,12.7 4.88,22.68 14.64,29.97 9.76,7.29 22.04,10.94 36.86,10.94 14.81,0 27.09,-3.65 36.85,-10.94 9.76,-7.29 14.64,-17.28 14.64,-29.97 0,-12.7 -4.88,-22.63 -14.64,-29.8zm-79.7 178.45c10.46,8.59 24.74,12.88 42.85,12.88 18.1,0 32.38,-4.29 42.85,-12.88 10.47,-8.58 15.7,-20.04 15.7,-34.38 0,-14.58 -5.17,-25.98 -15.52,-34.21 -10.35,-8.23 -24.69,-12.35 -43.03,-12.35 -18.34,0 -32.68,4.12 -43.03,12.35 -10.35,8.23 -15.52,19.63 -15.52,34.21 0,14.34 5.23,25.8 15.7,34.38zm214.6 35.8l-36.68 0 0 -40.91 36.68 0 0 40.91zm61.37 -219.72c16.46,-21.39 38.44,-32.09 65.95,-32.09 27.5,0 49.55,10.75 66.12,32.26 16.58,21.51 24.86,53.56 24.86,96.11 0,42.56 -8.29,74.53 -24.86,95.92 -16.58,21.4 -38.62,32.1 -66.12,32.1 -27.51,0 -49.5,-10.7 -65.95,-32.1 -16.47,-21.39 -24.69,-53.37 -24.69,-95.92 0,-42.8 8.23,-74.89 24.69,-96.28zm21.15 170.16c9.88,17.76 24.81,26.63 44.8,26.63 19.98,0 34.97,-8.88 44.97,-26.63 9.99,-17.75 14.99,-42.38 14.99,-73.88 0,-31.74 -5,-56.49 -14.99,-74.24 -10,-17.76 -24.98,-26.63 -44.97,-26.63 -19.98,0 -34.92,8.88 -44.8,26.63 -9.87,17.75 -14.81,42.5 -14.81,74.24 0,31.5 4.94,56.13 14.81,73.88zm402.42 -4.05l29.97 0c-3.53,17.87 -11.82,32.03 -24.86,42.5 -13.05,10.46 -29.68,15.7 -49.91,15.7 -26.8,0 -47.91,-8.76 -63.3,-26.28 -15.41,-17.52 -23.1,-39.91 -23.1,-67.18 0,-27.51 7.65,-49.97 22.92,-67.36 15.29,-17.41 36.45,-26.1 63.48,-26.1 20.45,0 37.09,5.12 49.91,15.35 12.82,10.23 20.75,23.8 23.8,40.73l-29.97 0c-6.35,-19.98 -20.92,-29.97 -43.74,-29.97 -19.04,0 -33.21,6.29 -42.5,18.86 -9.29,12.58 -13.93,28.51 -13.93,47.79 0,19.51 4.7,35.74 14.11,48.68 9.41,12.93 23.51,19.39 42.32,19.39 24.92,0 39.86,-10.7 44.8,-32.09zm74.77 53.61l0 -177.75 47.61 0 43.74 81.12 7.76 0 43.73 -81.12 46.91 0 0 177.75 -29.27 0 0 -142.84 -7.76 0 -41.26 76.18 -33.15 0 -41.27 -76.18 -7.76 0 0 142.84 -29.27 0z"/>
  <path fill="#666666" fill-rule="nonzero" fill-opacity="0.800000" d="M22053.38 5754.61l7.76 0c3.3,-9.64 10.18,-18.45 20.63,-26.45 10.47,-7.99 23.22,-11.99 38.27,-11.99 20.69,0 37.85,8.17 51.49,24.51 13.65,16.34 20.46,37.91 20.46,64.71 0,26.8 -6.82,48.38 -20.46,64.72 -13.64,16.34 -30.79,24.51 -51.49,24.51 -14.82,0 -27.51,-4 -38.09,-12 -10.58,-8 -17.52,-16.81 -20.81,-26.45l-7.76 0c-3.29,7.76 -9.52,14.88 -18.68,21.34 -9.18,6.46 -20.22,9.7 -33.16,9.7 -19.51,0 -35.38,-7.65 -47.61,-22.92 -12.23,-15.29 -18.33,-34.92 -18.33,-58.9 0,-23.98 6.11,-43.62 18.33,-58.89 12.23,-15.29 28.09,-22.92 47.61,-22.92 12.47,0 23.4,3.29 32.8,9.87 9.41,6.59 15.76,13.65 19.04,21.16zm-80.23 13.94c-7.18,9.76 -10.76,22.04 -10.76,36.85 0,14.82 3.58,27.1 10.76,36.86 7.17,9.76 17.11,14.64 29.8,14.64 12.7,0 22.68,-4.88 29.97,-14.64 7.29,-9.76 10.94,-22.04 10.94,-36.86 0,-14.81 -3.65,-27.09 -10.94,-36.85 -7.29,-9.76 -17.28,-14.64 -29.97,-14.64 -12.7,0 -22.63,4.88 -29.8,14.64zm178.45 79.7c8.59,-10.46 12.88,-24.74 12.88,-42.85 0,-18.1 -4.29,-32.38 -12.88,-42.85 -8.58,-10.47 -20.04,-15.7 -34.38,-15.7 -14.58,0 -25.98,5.17 -34.21,15.52 -8.23,10.35 -12.35,24.69 -12.35,43.03 0,18.34 4.12,32.68 12.35,43.03 8.23,10.35 19.63,15.52 34.21,15.52 14.34,0 25.8,-5.23 34.38,-15.7zm-183.92 -194.86c-21.39,-16.46 -32.09,-38.44 -32.09,-65.95 0,-27.5 10.75,-49.55 32.26,-66.12 21.51,-16.58 53.56,-24.86 96.11,-24.86 42.56,0 74.53,8.29 95.92,24.86 21.4,16.58 32.1,38.62 32.1,66.12 0,27.51 -10.7,49.5 -32.1,65.95 -21.39,16.47 -53.37,24.69 -95.92,24.69 -42.8,0 -74.89,-8.23 -96.28,-24.69zm170.16 -21.15c17.76,-9.88 26.63,-24.81 26.63,-44.8 0,-19.98 -8.88,-34.97 -26.63,-44.97 -17.75,-9.99 -42.38,-14.99 -73.88,-14.99 -31.74,0 -56.49,5 -74.24,14.99 -17.76,10 -26.63,24.98 -26.63,44.97 0,19.98 8.88,34.92 26.63,44.8 17.75,9.87 42.5,14.81 74.24,14.81 31.5,0 56.13,-4.94 73.88,-14.81zm49.56 -219.02l0 36.68 -40.91 0 0 -36.68 40.91 0zm-219.72 -61.37c-21.39,-16.46 -32.09,-38.44 -32.09,-65.95 0,-27.5 10.75,-49.55 32.26,-66.12 21.51,-16.58 53.56,-24.86 96.11,-24.86 42.56,0 74.53,8.29 95.92,24.86 21.4,16.58 32.1,38.62 32.1,66.12 0,27.51 -10.7,49.5 -32.1,65.95 -21.39,16.47 -53.37,24.69 -95.92,24.69 -42.8,0 -74.89,-8.23 -96.28,-24.69zm170.16 -21.15c17.76,-9.88 26.63,-24.81 26.63,-44.8 0,-19.98 -8.88,-34.97 -26.63,-44.97 -17.75,-9.99 -42.38,-14.99 -73.88,-14.99 -31.74,0 -56.49,5 -74.24,14.99 -17.76,10 -26.63,24.98 -26.63,44.97 0,19.98 8.88,34.92 26.63,44.8 17.75,9.87 42.5,14.81 74.24,14.81 31.5,0 56.13,-4.94 73.88,-14.81zm-4.05 -402.42l0 -29.97c17.87,3.53 32.03,11.82 42.5,24.86 10.46,13.05 15.7,29.68 15.7,49.91 0,26.8 -8.76,47.91 -26.28,63.3 -17.52,15.41 -39.91,23.1 -67.18,23.1 -27.51,0 -49.97,-7.65 -67.36,-22.92 -17.41,-15.29 -26.1,-36.45 -26.1,-63.48 0,-20.45 5.12,-37.09 15.35,-49.91 10.23,-12.82 23.8,-20.75 40.73,-23.8l0 29.97c-19.98,6.35 -29.97,20.92 -29.97,43.74 0,19.04 6.29,33.21 18.86,42.5 12.58,9.29 28.51,13.93 47.79,13.93 19.51,0 35.74,-4.7 48.68,-14.11 12.93,-9.41 19.39,-23.51 19.39,-42.32 0,-24.92 -10.7,-39.86 -32.09,-44.8zm53.61 -74.77l-177.75 0 0 -47.61 81.12 -43.74 0 -7.76 -81.12 -43.73 0 -46.91 177.75 0 0 29.27 -142.84 0 0 7.76 76.18 41.26 0 33.15 -76.18 41.27 0 7.76 142.84 0 0 29.27z"/>
  <path fill="#666666" fill-rule="nonzero" fill-opacity="0.800000" d="M22008.59 10694.7l0 31.03c-23.74,-1.41 -41.85,-9.7 -54.31,-24.86 -12.46,-15.17 -18.68,-34.27 -18.68,-57.31 0,-23.97 6.52,-43.32 19.56,-58.01 13.06,-14.7 31.57,-22.04 55.55,-22.04 29.15,0 58.89,18.22 89.23,54.66l52.2 62.07 7.76 0 0 -124.5 27.51 0 0 169.64 -34.92 0 -29.62 -36.33c-18.1,-22.56 -33.97,-41.26 -47.61,-56.07 -4.94,-5.64 -9.18,-10.17 -12.7,-13.58 -3.53,-3.41 -8.18,-7.29 -13.94,-11.64 -5.76,-4.35 -11.82,-7.65 -18.16,-9.88 -6.35,-2.23 -12.93,-3.35 -19.74,-3.35 -15.29,0 -27.04,4.47 -35.27,13.4 -8.23,8.94 -12.35,21.04 -12.35,36.33 0,14.35 3.82,25.92 11.47,34.74 7.64,8.82 18.98,14.05 34.03,15.7zm93.46 -321.65l0 -33.86 27.5 0 0 33.86 57.84 0 0 30.33 -57.84 0 0 122.03 -35.26 0 -153.78 -108.98 0 -43.38 161.54 0zm0 119.92l0 -89.94 -126.62 0 0 7.76 118.86 82.18 7.76 0zm-161.54 -197.51l0 -144.25 34.57 0 52.9 61.72 7.41 0c0.47,-21.86 7.29,-39.56 20.45,-53.08 13.17,-13.53 31.39,-20.28 54.66,-20.28 25.16,0 45.03,8.12 59.6,24.33 14.59,16.23 21.87,37.15 21.87,62.78 0,24.68 -6.94,44.91 -20.81,60.66 -13.87,15.75 -31.5,24.33 -52.9,25.74l0 -31.04c13.87,-1.41 25.03,-7.23 33.5,-17.46 8.47,-10.23 12.7,-22.86 12.7,-37.91 0,-17.17 -4.82,-30.8 -14.46,-40.91 -9.65,-10.12 -22.81,-15.17 -39.51,-15.17 -16.46,0 -29.33,4.82 -38.62,14.46 -9.29,9.64 -13.93,23.39 -13.93,41.27 0,8.7 0.71,15.87 2.12,21.51l-32.8 0 -52.2 -60.31 -7.76 0 0 107.92 -26.81 0zm246.88 -231.36l0 36.68 -40.91 0 0 -36.68 40.91 0zm-219.72 -61.37c-21.39,-16.46 -32.09,-38.44 -32.09,-65.95 0,-27.5 10.75,-49.55 32.26,-66.12 21.51,-16.58 53.56,-24.86 96.11,-24.86 42.56,0 74.53,8.29 95.92,24.86 21.4,16.58 32.1,38.62 32.1,66.12 0,27.51 -10.7,49.5 -32.1,65.95 -21.39,16.47 -53.37,24.69 -95.92,24.69 -42.8,0 -74.89,-8.23 -96.28,-24.69zm170.16 -21.15c17.76,-9.88 26.63,-24.81 26.63,-44.8 0,-19.98 -8.88,-34.97 -26.63,-44.97 -17.75,-9.99 -42.38,-14.99 -73.88,-14.99 -31.74,0 -56.49,5 -74.24,14.99 -17.76,10 -26.63,24.98 -26.63,44.97 0,19.98 8.88,34.92 26.63,44.8 17.75,9.87 42.5,14.81 74.24,14.81 31.5,0 56.13,-4.94 73.88,-14.81zm-4.05 -402.42l0 -29.97c17.87,3.53 32.03,11.82 42.5,24.86 10.46,13.05 15.7,29.68 15.7,49.91 0,26.8 -8.76,47.91 -26.28,63.3 -17.52,15.41 -39.91,23.1 -67.18,23.1 -27.51,0 -49.97,-7.65 -67.36,-22.92 -17.41,-15.29 -26.1,-36.45 -26.1,-63.48 0,-20.45 5.12,-37.09 15.35,-49.91 10.23,-12.82 23.8,-20.75 40.73,-23.8l0 29.97c-19.98,6.35 -29.97,20.92 -29.97,43.74 0,19.04 6.29,33.21 18.86,42.5 12.58,9.29 28.51,13.93 47.79,13.93 19.51,0 35.74,-4.7 48.68,-14.11 12.93,-9.41 19.39,-23.51 19.39,-42.32 0,-24.92 -10.7,-39.86 -32.09,-44.8zm53.61 -74.77l-177.75 0 0 -47.61 81.12 -43.74 0 -7.76 -81.12 -43.73 0 -46.91 177.75 0 0 29.27 -142.84 0 0 7.76 76.18 41.26 0 33.15 -76.18 41.27 0 7.76 142.84 0 0 29.27z"/>
  <path fill="#666666" fill-rule="nonzero" fill-opacity="0.800000" d="M24385.43 13833.56l0 -27.51 58.55 0 0 -186.92 -7.06 0 -51.85 34.91 0 -32.44 51.5 -34.92 38.44 0 0 219.37 53.97 0 0 27.51 -143.55 0zm315.3 -134.02l0 7.76c9.64,3.3 18.45,10.18 26.45,20.63 7.99,10.47 11.99,23.22 11.99,38.27 0,20.69 -8.17,37.85 -24.51,51.49 -16.34,13.65 -37.91,20.46 -64.71,20.46 -26.8,0 -48.38,-6.82 -64.72,-20.46 -16.34,-13.64 -24.51,-30.79 -24.51,-51.49 0,-14.82 4,-27.51 12,-38.09 8,-10.58 16.81,-17.52 26.45,-20.81l0 -7.76c-7.76,-3.29 -14.88,-9.52 -21.34,-18.68 -6.46,-9.18 -9.7,-20.22 -9.7,-33.16 0,-19.51 7.65,-35.38 22.92,-47.61 15.29,-12.23 34.92,-18.33 58.9,-18.33 23.98,0 43.62,6.11 58.89,18.33 15.29,12.23 22.92,28.09 22.92,47.61 0,12.47 -3.29,23.4 -9.87,32.8 -6.59,9.41 -13.65,15.76 -21.16,19.04zm-13.94 -80.23c-9.76,-7.18 -22.04,-10.76 -36.85,-10.76 -14.82,0 -27.1,3.58 -36.86,10.76 -9.76,7.17 -14.64,17.11 -14.64,29.8 0,12.7 4.88,22.68 14.64,29.97 9.76,7.29 22.04,10.94 36.86,10.94 14.81,0 27.09,-3.65 36.85,-10.94 9.76,-7.29 14.64,-17.28 14.64,-29.97 0,-12.7 -4.88,-22.63 -14.64,-29.8zm-79.7 178.45c10.46,8.59 24.74,12.88 42.85,12.88 18.1,0 32.38,-4.29 42.85,-12.88 10.47,-8.58 15.7,-20.04 15.7,-34.38 0,-14.58 -5.17,-25.98 -15.52,-34.21 -10.35,-8.23 -24.69,-12.35 -43.03,-12.35 -18.34,0 -32.68,4.12 -43.03,12.35 -10.35,8.23 -15.52,19.63 -15.52,34.21 0,14.34 5.23,25.8 15.7,34.38zm309.12 -98.22l0 7.76c9.64,3.3 18.45,10.18 26.45,20.63 7.99,10.47 11.99,23.22 11.99,38.27 0,20.69 -8.17,37.85 -24.51,51.49 -16.34,13.65 -37.91,20.46 -64.71,20.46 -26.8,0 -48.38,-6.82 -64.72,-20.46 -16.34,-13.64 -24.51,-30.79 -24.51,-51.49 0,-14.82 4,-27.51 12,-38.09 8,-10.58 16.81,-17.52 26.45,-20.81l0 -7.76c-7.76,-3.29 -14.88,-9.52 -21.34,-18.68 -6.46,-9.18 -9.7,-20.22 -9.7,-33.16 0,-19.51 7.65,-35.38 22.92,-47.61 15.29,-12.23 34.92,-18.33 58.9,-18.33 23.98,0 43.62,6.11 58.89,18.33 15.29,12.23 22.92,28.09 22.92,47.61 0,12.47 -3.29,23.4 -9.87,32.8 -6.59,9.41 -13.65,15.76 -21.16,19.04zm-13.94 -80.23c-9.76,-7.18 -22.04,-10.76 -36.85,-10.76 -14.82,0 -27.1,3.58 -36.86,10.76 -9.76,7.17 -14.64,17.11 -14.64,29.8 0,12.7 4.88,22.68 14.64,29.97 9.76,7.29 22.04,10.94 36.86,10.94 14.81,0 27.09,-3.65 36.85,-10.94 9.76,-7.29 14.64,-17.28 14.64,-29.97 0,-12.7 -4.88,-22.63 -14.64,-29.8zm-79.7 178.45c10.46,8.59 24.74,12.88 42.85,12.88 18.1,0 32.38,-4.29 42.85,-12.88 10.47,-8.58 15.7,-20.04 15.7,-34.38 0,-14.58 -5.17,-25.98 -15.52,-34.21 -10.35,-8.23 -24.69,-12.35 -43.03,-12.35 -18.34,0 -32.68,4.12 -43.03,12.35 -10.35,8.23 -15.52,19.63 -15.52,34.21 0,14.34 5.23,25.8 15.7,34.38zm214.6 35.8l-36.68 0 0 -40.91 36.68 0 0 40.91zm61.37 -219.72c16.46,-21.39 38.44,-32.09 65.95,-32.09 27.5,0 49.55,10.75 66.12,32.26 16.58,21.51 24.86,53.56 24.86,96.11 0,42.56 -8.29,74.53 -24.86,95.92 -16.58,21.4 -38.62,32.1 -66.12,32.1 -27.51,0 -49.5,-10.7 -65.95,-32.1 -16.47,-21.39 -24.69,-53.37 -24.69,-95.92 0,-42.8 8.23,-74.89 24.69,-96.28zm21.15 170.16c9.88,17.76 24.81,26.63 44.8,26.63 19.98,0 34.97,-8.88 44.97,-26.63 9.99,-17.75 14.99,-42.38 14.99,-73.88 0,-31.74 -5,-56.49 -14.99,-74.24 -10,-17.76 -24.98,-26.63 -44.97,-26.63 -19.98,0 -34.92,8.88 -44.8,26.63 -9.87,17.75 -14.81,42.5 -14.81,74.24 0,31.5 4.94,56.13 14.81,73.88zm402.42 -4.05l29.97 0c-3.53,17.87 -11.82,32.03 -24.86,42.5 -13.05,10.46 -29.68,15.7 -49.91,15.7 -26.8,0 -47.91,-8.76 -63.3,-26.28 -15.41,-17.52 -23.1,-39.91 -23.1,-67.18 0,-27.51 7.65,-49.97 22.92,-67.36 15.29,-17.41 36.45,-26.1 63.48,-26.1 20.45,0 37.09,5.12 49.91,15.35 12.82,10.23 20.75,23.8 23.8,40.73l-29.97 0c-6.35,-19.98 -20.92,-29.97 -43.74,-29.97 -19.04,0 -33.21,6.29 -42.5,18.86 -9.29,12.58 -13.93,28.51 -13.93,47.79 0,19.51 4.7,35.74 14.11,48.68 9.41,12.93 23.51,19.39 42.32,19.39 24.92,0 39.86,-10.7 44.8,-32.09zm74.77 53.61l0 -177.75 47.61 0 43.74 81.12 7.76 0 43.73 -81.12 46.91 0 0 177.75 -29.27 0 0 -142.84 -7.76 0 -41.26 76.18 -33.15 0 -41.27 -76.18 -7.76 0 0 142.84 -29.27 0z"/>
  <path fill="#666666" fill-rule="nonzero" fill-opacity="0.800000" d="M7426.69 18180.87l7.76 0c3.3,-9.64 10.18,-18.45 20.63,-26.45 10.47,-7.99 23.22,-11.99 38.27,-11.99 20.69,0 37.85,8.17 51.49,24.51 13.65,16.34 20.46,37.91 20.46,64.71 0,26.8 -6.82,48.38 -20.46,64.72 -13.64,16.34 -30.79,24.51 -51.49,24.51 -14.82,0 -27.51,-4 -38.09,-12 -10.58,-8 -17.52,-16.81 -20.81,-26.45l-7.76 0c-3.29,7.76 -9.52,14.88 -18.68,21.34 -9.18,6.46 -20.22,9.7 -33.16,9.7 -19.51,0 -35.38,-7.65 -47.61,-22.92 -12.23,-15.29 -18.33,-34.92 -18.33,-58.9 0,-23.98 6.11,-43.62 18.33,-58.89 12.23,-15.29 28.09,-22.92 47.61,-22.92 12.47,0 23.4,3.29 32.8,9.87 9.41,6.59 15.76,13.65 19.04,21.16zm-80.23 13.94c-7.18,9.76 -10.76,22.04 -10.76,36.85 0,14.82 3.58,27.1 10.76,36.86 7.17,9.76 17.11,14.64 29.8,14.64 12.7,0 22.68,-4.88 29.97,-14.64 7.29,-9.76 10.94,-22.04 10.94,-36.86 0,-14.81 -3.65,-27.09 -10.94,-36.85 -7.29,-9.76 -17.28,-14.64 -29.97,-14.64 -12.7,0 -22.63,4.88 -29.8,14.64zm178.45 79.7c8.59,-10.46 12.88,-24.74 12.88,-42.85 0,-18.1 -4.29,-32.38 -12.88,-42.85 -8.58,-10.47 -20.04,-15.7 -34.38,-15.7 -14.58,0 -25.98,5.17 -34.21,15.52 -8.23,10.35 -12.35,24.69 -12.35,43.03 0,18.34 4.12,32.68 12.35,43.03 8.23,10.35 19.63,15.52 34.21,15.52 14.34,0 25.8,-5.23 34.38,-15.7zm-183.92 -194.86c-21.39,-16.46 -32.09,-38.44 -32.09,-65.95 0,-27.5 10.75,-49.55 32.26,-66.12 21.51,-16.58 53.56,-24.86 96.11,-24.86 42.56,0 74.53,8.29 95.92,24.86 21.4,16.58 32.1,38.62 32.1,66.12 0,27.51 -10.7,49.5 -32.1,65.95 -21.39,16.47 -53.37,24.69 -95.92,24.69 -42.8,0 -74.89,-8.23 -96.28,-24.69zm170.16 -21.15c17.76,-9.88 26.63,-24.81 26.63,-44.8 0,-19.98 -8.88,-34.97 -26.63,-44.97 -17.75,-9.99 -42.38,-14.99 -73.88,-14.99 -31.74,0 -56.49,5 -74.24,14.99 -17.76,10 -26.63,24.98 -26.63,44.97 0,19.98 8.88,34.92 26.63,44.8 17.75,9.87 42.5,14.81 74.24,14.81 31.5,0 56.13,-4.94 73.88,-14.81zm49.56 -219.02l0 36.68 -40.91 0 0 -36.68 40.91 0zm-219.72 -61.37c-21.39,-16.46 -32.09,-38.44 -32.09,-65.95 0,-27.5 10.75,-49.55 32.26,-66.12 21.51,-16.58 53.56,-24.86 96.11,-24.86 42.56,0 74.53,8.29 95.92,24.86 21.4,16.58 32.1,38.62 32.1,66.12 0,27.51 -10.7,49.5 -32.1,65.95 -21.39,16.47 -53.37,24.69 -95.92,24.69 -42.8,0 -74.89,-8.23 -96.28,-24.69zm170.16 -21.15c17.76,-9.88 26.63,-24.81 26.63,-44.8 0,-19.98 -8.88,-34.97 -26.63,-44.97 -17.75,-9.99 -42.38,-14.99 -73.88,-14.99 -31.74,0 -56.49,5 -74.24,14.99 -17.76,10 -26.63,24.98 -26.63,44.97 0,19.98 8.88,34.92 26.63,44.8 17.75,9.87 42.5,14.81 74.24,14.81 31.5,0 56.13,-4.94 73.88,-14.81zm-4.05 -402.42l0 -29.97c17.87,3.53 32.03,11.82 42.5,24.86 10.46,13.05 15.7,29.68 15.7,49.91 0,26.8 -8.76,47.91 -26.28,63.3 -17.52,15.41 -39.91,23.1 -67.18,23.1 -27.51,0 -49.97,-7.65 -67.36,-22.92 -17.41,-15.29 -26.1,-36.45 -26.1,-63.48 0,-20.45 5.12,-37.09 15.35,-49.91 10.23,-12.82 23.8,-20.75 40.73,-23.8l0 29.97c-19.98,6.35 -29.97,20.92 -29.97,43.74 0,19.04 6.29,33.21 18.86,42.5 12.58,9.29 28.51,13.93 47.79,13.93 19.51,0 35.74,-4.7 48.68,-14.11 12.93,-9.41 19.39,-23.51 19.39,-42.32 0,-24.92 -10.7,-39.86 -32.09,-44.8zm53.61 -74.77l-177.75 0 0 -47.61 81.12 -43.74 0 -7.76 -81.12 -43.73 0 -46.91 177.75 0 0 29.27 -142.84 0 0 7.76 76.18 41.26 0 33.15 -76.18 41.27 0 7.76 142.84 0 0 29.27z"/>
  <path fill="#666666" fill-rule="nonzero" fill-opacity="0.800000" d="M7382.43 23149.96l0 31.03c-23.74,-1.41 -41.85,-9.7 -54.31,-24.86 -12.46,-15.17 -18.68,-34.27 -18.68,-57.31 0,-23.97 6.52,-43.32 19.56,-58.01 13.06,-14.7 31.57,-22.04 55.55,-22.04 29.15,0 58.89,18.22 89.23,54.66l52.2 62.07 7.76 0 0 -124.5 27.51 0 0 169.64 -34.92 0 -29.62 -36.33c-18.1,-22.56 -33.97,-41.26 -47.61,-56.07 -4.94,-5.64 -9.18,-10.17 -12.7,-13.58 -3.53,-3.41 -8.18,-7.29 -13.94,-11.64 -5.76,-4.35 -11.82,-7.65 -18.16,-9.88 -6.35,-2.23 -12.93,-3.35 -19.74,-3.35 -15.29,0 -27.04,4.47 -35.27,13.4 -8.23,8.94 -12.35,21.04 -12.35,36.33 0,14.35 3.82,25.92 11.47,34.74 7.64,8.82 18.98,14.05 34.03,15.7zm93.46 -321.65l0 -33.86 27.5 0 0 33.86 57.84 0 0 30.33 -57.84 0 0 122.03 -35.26 0 -153.78 -108.98 0 -43.38 161.54 0zm0 119.92l0 -89.94 -126.62 0 0 7.76 118.86 82.18 7.76 0zm-161.54 -197.51l0 -144.25 34.57 0 52.9 61.72 7.41 0c0.47,-21.86 7.29,-39.56 20.45,-53.08 13.17,-13.53 31.39,-20.28 54.66,-20.28 25.16,0 45.03,8.12 59.6,24.33 14.59,16.23 21.87,37.15 21.87,62.78 0,24.68 -6.94,44.91 -20.81,60.66 -13.87,15.75 -31.5,24.33 -52.9,25.74l0 -31.04c13.87,-1.41 25.03,-7.23 33.5,-17.46 8.47,-10.23 12.7,-22.86 12.7,-37.91 0,-17.17 -4.82,-30.8 -14.46,-40.91 -9.65,-10.12 -22.81,-15.17 -39.51,-15.17 -16.46,0 -29.33,4.82 -38.62,14.46 -9.29,9.64 -13.93,23.39 -13.93,41.27 0,8.7 0.71,15.87 2.12,21.51l-32.8 0 -52.2 -60.31 -7.76 0 0 107.92 -26.81 0zm246.88 -231.36l0 36.68 -40.91 0 0 -36.68 40.91 0zm-219.72 -61.37c-21.39,-16.46 -32.09,-38.44 -32.09,-65.95 0,-27.5 10.75,-49.55 32.26,-66.12 21.51,-16.58 53.56,-24.86 96.11,-24.86 42.56,0 74.53,8.29 95.92,24.86 21.4,16.58 32.1,38.62 32.1,66.12 0,27.51 -10.7,49.5 -32.1,65.95 -21.39,16.47 -53.37,24.69 -95.92,24.69 -42.8,0 -74.89,-8.23 -96.28,-24.69zm170.16 -21.15c17.76,-9.88 26.63,-24.81 26.63,-44.8 0,-19.98 -8.88,-34.97 -26.63,-44.97 -17.75,-9.99 -42.38,-14.99 -73.88,-14.99 -31.74,0 -56.49,5 -74.24,14.99 -17.76,10 -26.63,24.98 -26.63,44.97 0,19.98 8.88,34.92 26.63,44.8 17.75,9.87 42.5,14.81 74.24,14.81 31.5,0 56.13,-4.94 73.88,-14.81zm-4.05 -402.42l0 -29.97c17.87,3.53 32.03,11.82 42.5,24.86 10.46,13.05 15.7,29.68 15.7,49.91 0,26.8 -8.76,47.91 -26.28,63.3 -17.52,15.41 -39.91,23.1 -67.18,23.1 -27.51,0 -49.97,-7.65 -67.36,-22.92 -17.41,-15.29 -26.1,-36.45 -26.1,-63.48 0,-20.45 5.12,-37.09 15.35,-49.91 10.23,-12.82 23.8,-20.75 40.73,-23.8l0 29.97c-19.98,6.35 -29.97,20.92 -29.97,43.74 0,19.04 6.29,33.21 18.86,42.5 12.58,9.29 28.51,13.93 47.79,13.93 19.51,0 35.74,-4.7 48.68,-14.11 12.93,-9.41 19.39,-23.51 19.39,-42.32 0,-24.92 -10.7,-39.86 -32.09,-44.8zm53.61 -74.77l-177.75 0 0 -47.61 81.12 -43.74 0 -7.76 -81.12 -43.73 0 -46.91 177.75 0 0 29.27 -142.84 0 0 7.76 76.18 41.26 0 33.15 -76.18 41.27 0 7.76 142.84 0 0 29.27z"/>
  <path fill="#666666" fill-rule="nonzero" fill-opacity="0.800000" d="M9964.66 26142.83l-31.03 0c1.41,-23.74 9.7,-41.85 24.86,-54.31 15.17,-12.46 34.27,-18.68 57.31,-18.68 23.97,0 43.32,6.52 58.01,19.56 14.7,13.06 22.04,31.57 22.04,55.55 0,29.15 -18.22,58.89 -54.66,89.23l-62.07 52.2 0 7.76 124.5 0 0 27.51 -169.64 0 0 -34.92 36.33 -29.62c22.56,-18.1 41.26,-33.97 56.07,-47.61 5.64,-4.94 10.17,-9.18 13.58,-12.7 3.41,-3.53 7.29,-8.18 11.64,-13.94 4.35,-5.76 7.65,-11.82 9.88,-18.16 2.23,-6.35 3.35,-12.93 3.35,-19.74 0,-15.29 -4.47,-27.04 -13.4,-35.27 -8.94,-8.23 -21.04,-12.35 -36.33,-12.35 -14.35,0 -25.92,3.82 -34.74,11.47 -8.82,7.64 -14.05,18.98 -15.7,34.03zm199.62 -40.91c16.46,-21.39 38.44,-32.09 65.95,-32.09 27.5,0 49.55,10.75 66.12,32.26 16.58,21.51 24.86,53.56 24.86,96.11 0,42.56 -8.29,74.53 -24.86,95.92 -16.58,21.4 -38.62,32.1 -66.12,32.1 -27.51,0 -49.5,-10.7 -65.95,-32.1 -16.47,-21.39 -24.69,-53.37 -24.69,-95.92 0,-42.8 8.23,-74.89 24.69,-96.28zm21.15 170.16c9.88,17.76 24.81,26.63 44.8,26.63 19.98,0 34.97,-8.88 44.97,-26.63 9.99,-17.75 14.99,-42.38 14.99,-73.88 0,-31.74 -5,-56.49 -14.99,-74.24 -10,-17.76 -24.98,-26.63 -44.97,-26.63 -19.98,0 -34.92,8.88 -44.8,26.63 -9.87,17.75 -14.81,42.5 -14.81,74.24 0,31.5 4.94,56.13 14.81,73.88zm313.54 -84.47l0 7.76c9.64,3.3 18.45,10.18 26.45,20.63 7.99,10.47 11.99,23.22 11.99,38.27 0,20.69 -8.17,37.85 -24.51,51.49 -16.34,13.65 -37.91,20.46 -64.71,20.46 -26.8,0 -48.38,-6.82 -64.72,-20.46 -16.34,-13.64 -24.51,-30.79 -24.51,-51.49 0,-14.82 4,-27.51 12,-38.09 8,-10.58 16.81,-17.52 26.45,-20.81l0 -7.76c-7.76,-3.29 -14.88,-9.52 -21.34,-18.68 -6.46,-9.18 -9.7,-20.22 -9.7,-33.16 0,-19.51 7.65,-35.38 22.92,-47.61 15.29,-12.23 34.92,-18.33 58.9,-18.33 23.98,0 43.62,6.11 58.89,18.33 15.29,12.23 22.92,28.09 22.92,47.61 0,12.47 -3.29,23.4 -9.87,32.8 -6.59,9.41 -13.65,15.76 -21.16,19.04zm-13.94 -80.23c-9.76,-7.18 -22.04,-10.76 -36.85,-10.76 -14.82,0 -27.1,3.58 -36.86,10.76 -9.76,7.17 -14.64,17.11 -14.64,29.8 0,12.7 4.88,22.68 14.64,29.97 9.76,7.29 22.04,10.94 36.86,10.94 14.81,0 27.09,-3.65 36.85,-10.94 9.76,-7.29 14.64,-17.28 14.64,-29.97 0,-12.7 -4.88,-22.63 -14.64,-29.8zm-79.7 178.45c10.46,8.59 24.74,12.88 42.85,12.88 18.1,0 32.38,-4.29 42.85,-12.88 10.47,-8.58 15.7,-20.04 15.7,-34.38 0,-14.58 -5.17,-25.98 -15.52,-34.21 -10.35,-8.23 -24.69,-12.35 -43.03,-12.35 -18.34,0 -32.68,4.12 -43.03,12.35 -10.35,8.23 -15.52,19.63 -15.52,34.21 0,14.34 5.23,25.8 15.7,34.38zm214.6 35.8l-36.68 0 0 -40.91 36.68 0 0 40.91zm61.37 -219.72c16.46,-21.39 38.44,-32.09 65.95,-32.09 27.5,0 49.55,10.75 66.12,32.26 16.58,21.51 24.86,53.56 24.86,96.11 0,42.56 -8.29,74.53 -24.86,95.92 -16.58,21.4 -38.62,32.1 -66.12,32.1 -27.51,0 -49.5,-10.7 -65.95,-32.1 -16.47,-21.39 -24.69,-53.37 -24.69,-95.92 0,-42.8 8.23,-74.89 24.69,-96.28zm21.15 170.16c9.88,17.76 24.81,26.63 44.8,26.63 19.98,0 34.97,-8.88 44.97,-26.63 9.99,-17.75 14.99,-42.38 14.99,-73.88 0,-31.74 -5,-56.49 -14.99,-74.24 -10,-17.76 -24.98,-26.63 -44.97,-26.63 -19.98,0 -34.92,8.88 -44.8,26.63 -9.87,17.75 -14.81,42.5 -14.81,74.24 0,31.5 4.94,56.13 14.81,73.88zm402.42 -4.05l29.97 0c-3.53,17.87 -11.82,32.03 -24.86,42.5 -13.05,10.46 -29.68,15.7 -49.91,15.7 -26.8,0 -47.91,-8.76 -63.3,-26.28 -15.41,-17.52 -23.1,-39.91 -23.1,-67.18 0,-27.51 7.65,-49.97 22.92,-67.36 15.29,-17.41 36.45,-26.1 63.48,-26.1 20.45,0 37.09,5.12 49.91,15.35 12.82,10.23 20.75,23.8 23.8,40.73l-29.97 0c-6.35,-19.98 -20.92,-29.97 -43.74,-29.97 -19.04,0 -33.21,6.29 -42.5,18.86 -9.29,12.58 -13.93,28.51 -13.93,47.79 0,19.51 4.7,35.74 14.11,48.68 9.41,12.93 23.51,19.39 42.32,19.39 24.92,0 39.86,-10.7 44.8,-32.09zm74.77 53.61l0 -177.75 47.61 0 43.74 81.12 7.76 0 43.73 -81.12 46.91 0 0 177.75 -29.27 0 0 -142.84 -7.76 0 -41.26 76.18 -33.15 0 -41.27 -76.18 -7.76 0 0 142.84 -29.27 0z"/>
 </g>
 <g id="Схемы">
  <metadata id="CorelCorpID_1Corel-Layer"/>
  <g id="_2238817178416">
   <path fill="none" stroke="black" stroke-width="10.58" stroke-miterlimit="22.9256" d="M13023.94 18376.24l-2325.62 0c-22.52,0 -40.95,-18.41 -40.95,-40.94l0 -1491.63c0,-22.52 18.42,-40.94 40.95,-40.94l2325.62 0c22.52,0 40.95,18.41 40.95,40.94l0 1491.63c0,22.52 -18.42,40.94 -40.95,40.94"/>
   <path fill="none" stroke="black" stroke-width="10.58" stroke-miterlimit="22.9256" d="M10621.04 18373.74c22.52,0 40.95,-18.41 40.95,-40.94l0 -1491.63c0,-22.52 -18.42,-40.94 -40.95,-40.94l-2325.62 0c-22.52,0 -40.95,18.41 -40.95,40.94l0 1491.63c0,22.52 18.42,40.94 40.95,40.94"/>
   <path fill="white" stroke="black" stroke-width="10.58" stroke-miterlimit="22.9256" d="M8627.73 17707.03c1370.88,0 2713.04,0 4083.82,0 22.92,0 41.68,23.66 41.68,52.57l0 367.96c0,28.91 -18.75,52.58 -41.68,52.58l-4083.82 0c-22.92,0 -41.67,-23.66 -41.67,-52.58l0 -367.96c0,-28.91 18.74,-52.57 41.67,-52.57z"/>
   <path fill="white" stroke="black" stroke-width="10.58" stroke-miterlimit="22.9256" d="M8807.46 17711.66c360.22,-4.63 1351.59,-16.01 1680.64,-4.63 130.61,4.52 -15.4,-87.22 60.32,-292.22 38.78,-104.99 -68.31,9.32 -197.33,-151.16 -30.95,-38.47 -908.04,-57.05 -978.3,-19.67 -177.43,94.4 -268.36,-6.75 -262.96,113.59 5.71,127.04 -165.12,85.29 -160.52,187.82 4.37,97.51 -141.86,-7.54 -141.86,166.27z"/>
   <path fill="none" stroke="black" stroke-width="10.58" stroke-miterlimit="22.9256" d="M9317.44 17284.49c-2.04,72.26 -4.8,123.32 -64.19,178.01"/>
   <path fill="none" stroke="black" stroke-width="10.58" stroke-miterlimit="22.9256" d="M10316.82 17299.53c93.84,-4.2 106.42,164.17 203.46,156.52"/>
   <path fill="none" stroke="black" stroke-width="10.58" stroke-miterlimit="22.9256" d="M11209.85 17219.89c-315.47,48.9 -221.41,92.3 -307.75,117.39 -42.17,137.63 -186.23,-22.91 -98.06,156.53 57.1,116.18 -246.32,222.98 128.98,213.22 214.56,-5.58 584.63,0 760.85,0 245.46,0 437.15,0 669.77,0 297.26,0 273.88,37.75 85.97,-147.1 -62.96,-61.94 67.49,-30.13 31.03,-104.42 -32.66,-66.57 -114.51,-154.27 -293.43,-227.56 -157.84,-18.12 -893.42,-21.06 -977.36,-8.06z"/>
   <path fill="none" stroke="black" stroke-width="10.58" stroke-miterlimit="22.9256" d="M11067.53 17278.18c-41.24,80.76 -126.63,144.34 -78.78,227.3 -41.55,72.02 -52.61,1.19 -49.64,125.22"/>
   <path fill="none" stroke="black" stroke-width="10.58" stroke-miterlimit="22.9256" d="M12238.39 17267.49c-182.42,92.03 -90.3,200.81 -13.37,303.84"/>
   <rect fill="none" stroke="black" stroke-width="10.58" stroke-miterlimit="22.9256" x="14116.59" y="16820.81" width="463.02" height="1698.3" rx="79.21" ry="198.78"/>
   <path fill="white" stroke="black" stroke-width="10.58" stroke-miterlimit="22.9256" d="M14798.86 17712.11c1523.2,0 3014.49,0 4537.59,0 25.46,0 46.3,23.65 46.3,52.57l0 367.96c0,28.91 -20.83,52.57 -46.3,52.57l-4537.59 0c-25.46,0 -46.31,-23.65 -46.31,-52.57l0 -367.96c0,-28.91 20.84,-52.57 46.31,-52.57z"/>
   <path fill="none" stroke="black" stroke-width="10.58" stroke-miterlimit="22.9256" d="M8253.13 19987.11l4815.4 0 0 5072.7c0,90.17 -73.76,163.92 -163.92,163.92l-4487.55 0c-90.17,0 -163.92,-73.76 -163.92,-163.92l0 -5072.7z"/>
   <rect fill="none" stroke="black" stroke-width="10.58" stroke-miterlimit="22.9256" x="8599.55" y="20250.58" width="4120.87" height="4630.19" rx="58.87" ry="45.06"/>
   <path fill="white" stroke="black" stroke-width="10.58" stroke-miterlimit="22.9256" d="M14662.95 18055.92l4950.1 0c58.37,0 106.1,47.74 106.1,106.09l0 247.62c0,58.36 -47.73,106.09 -106.1,106.09l-5004.07 0c-16.16,0 -29.38,-13.22 -29.38,-29.37l0 -347.09c0,-45.84 37.5,-83.34 83.35,-83.34z"/>
   <rect fill="white" stroke="black" stroke-width="10.58" stroke-miterlimit="22.9256" x="8254.47" y="18058.19" width="4815.4" height="463.02" rx="63.38" ry="83.7"/>
   <rect fill="none" stroke="black" stroke-width="10.58" stroke-miterlimit="22.9256" x="8827.94" y="18522.09" width="94.67" height="115.75"/>
   <rect fill="none" stroke="black" stroke-width="10.58" stroke-miterlimit="22.9256" x="12393.04" y="18524.22" width="94.67" height="115.75"/>
   <path fill="none" stroke="black" stroke-width="10.58" stroke-miterlimit="22.9256" d="M14116.59 18467.69c-0.68,-4.51 -24.59,-39.71 -25.36,-96.59 -4.67,-341.8 -1.43,-1497.21 -0.36,-1502.29 10.29,-49.13 68.3,-76.05 95.66,-75.78l324.08 3.23c53.66,0.53 112.75,51.72 122.11,104.32 88.67,498.2 141.33,718.3 115.21,1002.7 -9.35,101.82 -24.33,150.11 -96.79,152.09"/>
   <rect fill="none" stroke="black" stroke-width="10.58" stroke-miterlimit="22.9256" x="14899.88" y="18515.33" width="94.67" height="115.75"/>
   <rect fill="none" stroke="black" stroke-width="10.58" stroke-miterlimit="22.9256" x="19197.09" y="18517.46" width="94.67" height="115.75"/>
   <path fill="none" stroke="black" stroke-width="10.58" stroke-linecap="round" stroke-linejoin="round" stroke-miterlimit="22.9256" d="M8253.13 20033.85c43.46,85.29 309.85,227 398.8,217.03 56.39,-6.32 1637.58,-0.42 1671.29,-0.42 92.86,0 284.45,-131.05 324.84,-233.01l-2394.93 16.4z"/>
   <path fill="none" stroke="black" stroke-width="10.58" stroke-linecap="round" stroke-linejoin="round" stroke-miterlimit="22.9256" d="M13070.68 20034.05c-43.46,85.3 -309.85,227 -398.8,217.03 -56.39,-6.32 -1637.58,-0.42 -1671.29,-0.42 -92.86,0 -284.45,-131.05 -324.83,-233.01l2394.92 16.4z"/>
   <rect fill="white" stroke="black" stroke-width="10.58" stroke-miterlimit="22.9256" x="10659.15" y="19597.73" width="2409.38" height="463.02" rx="219.41" ry="28.85"/>
   <rect fill="white" stroke="black" stroke-width="10.58" stroke-miterlimit="22.9256" x="8253.14" y="19597.73" width="2409.38" height="463.02" rx="219.41" ry="28.85"/>
   <path fill="white" stroke="black" stroke-width="10.58" stroke-miterlimit="22.9256" d="M14792.34 17712.72c51.98,0 154.77,-56.54 219.18,-69.06 25.27,-4.91 21.73,70.05 54.98,77.71 40.97,9.43 119.92,-47.37 161.02,-47.55 99.74,-0.43 151.32,40.1 208.03,47.55 77.86,10.23 142.46,-14.89 145.66,-48.04 8.19,-84.84 -139.44,-264.23 -330.29,-379.07 -163.83,-98.58 -389.02,-176.75 -494.18,-185.42 -30.07,-2.49 -31.32,47.52 -35.38,74.4 -8.84,58.53 -28.52,529.47 70.98,529.47z"/>
   <path fill="white" stroke="black" stroke-width="10.58" stroke-miterlimit="22.9256" d="M12339.92 20170.79c69.95,141.28 92.19,81.78 101.07,298.22 2.69,65.76 135.3,92.38 125.16,349.63 -4.44,112.66 160.02,178.13 48.19,306.73 80.05,152.11 -186.35,42.9 -315.55,42.9 -308.81,0 -563.29,-76.03 -884.36,56.41 -87.14,35.94 -472.38,-76.98 -637.56,-76.98 0,-201.17 83.47,-126.87 39.37,-306.74 -14.88,-60.68 150.67,-113.89 7.05,-315.55 -19.37,-27.2 90.02,-389.09 282.67,-387.59 262.33,2.06 933.94,11.97 1028.3,0.36 59.8,-7.36 179.13,-20.99 205.67,32.61z"/>
   <path fill="none" stroke="black" stroke-width="10.58" stroke-miterlimit="22.9256" d="M11027.29 20250.59c74.57,256.04 -67.53,526.08 73.35,758.43l25.85 35.85"/>
   <path fill="none" stroke="black" stroke-width="10.58" stroke-miterlimit="22.9256" d="M12257.64 20248.18c89.89,174.7 54.18,523.32 -56.4,678.58 -11.54,16.2 -5.29,55.85 -5.29,76.97"/>
   <path fill="none" stroke="black" stroke-width="10.58" stroke-miterlimit="22.9256" d="M12381.05 20818.64c-7.52,167.85 155.9,179.05 164.53,226.23"/>
   <path fill="white" stroke="black" stroke-width="10.58" stroke-miterlimit="22.9256" d="M9263.78 20156.01c197.35,-40.22 727.5,-58.94 903.16,13.52 157.33,64.9 316.21,287.92 316.21,287.92 -130.43,143.8 45.55,642.93 -33.57,699.28 -75.47,53.75 -442.02,63.56 -525.79,38.3 -113.05,-34.09 -614.97,-73.36 -648.26,-40.07 -34.35,34.35 -468.89,60.24 -465.98,-13.52 9.1,-230.89 53.57,-245.01 -35.84,-396.05 -41.83,-70.67 132.97,-220.67 41.13,-349.63 -98.31,-138.04 291.08,-207.57 448.95,-239.74z"/>
   <path fill="none" stroke="black" stroke-width="10.58" stroke-miterlimit="22.9256" d="M8912.85 20248.19c273.39,274.42 102.4,381.98 198.13,765.83"/>
   <path fill="none" stroke="black" stroke-width="10.58" stroke-miterlimit="22.9256" d="M10201 20335.32c0,200.69 64.22,605.52 -102.83,719.83"/>
   <path fill="none" stroke="black" stroke-width="10.58" stroke-miterlimit="22.9256" d="M8987.58 20479.28c-10.74,114.52 -138.62,130.81 -164.53,205.67"/>
   <path fill="none" stroke="black" stroke-width="10.58" stroke-miterlimit="22.9256" d="M14748.69 17467.15c-56.81,-0.45 50.53,-112.75 50.53,-141.87 0,-115.57 21.23,-105.56 12.6,4.7 -5.6,71.44 -11.76,127.39 -51.5,185.5"/>
   <path fill="none" stroke="black" stroke-width="10.58" stroke-miterlimit="22.9256" d="M14931.43 17416.07c1.39,29.62 -95.83,109.19 -64.84,198.85"/>
  </g>
  <g id="_2238817185760">
   <path fill="none" stroke="black" stroke-width="10.58" stroke-miterlimit="22.9256" d="M10154.25 4886.02l0 -507.01c0,-22.52 18.41,-40.94 40.94,-40.94l1872.62 0c22.52,0 40.94,18.42 40.94,40.94l0 1219.26"/>
   <path fill="none" stroke="black" stroke-width="10.58" stroke-miterlimit="22.9256" d="M10154.25 4886.02l4.6 -509.52c0.2,-22.52 -18.42,-40.94 -40.94,-40.94l-1843.28 0c-22.5,0 -40.94,18.42 -40.94,40.94l0 1221.77"/>
   <path fill="white" stroke="black" stroke-width="10.58" stroke-miterlimit="22.9256" d="M8585.91 5242.36c1062.69,0 2103.12,0 3165.75,0 17.77,0 32.3,23.66 32.3,52.57l0 367.97c0,28.91 -14.54,52.57 -32.3,52.57l-3165.75 0c-17.77,0 -32.31,-23.65 -32.31,-52.57l0 -367.97c0,-28.9 14.55,-52.57 32.31,-52.57z"/>
   <path fill="white" stroke="black" stroke-width="10.58" stroke-miterlimit="22.9256" d="M8585.9 5247c333.7,-4.64 1252.07,-16.02 1556.89,-4.64 120.99,4.52 -14.27,-87.21 55.88,-292.22 20.68,-60.47 -3.46,-48.2 -50.49,-57.56 -34.61,-6.91 -81.65,-25.54 -132.31,-93.58 -28.67,-38.48 -841.18,-57.06 -906.27,-19.67 -164.36,94.39 -248.6,-6.76 -243.59,113.58 5.29,127.04 -152.97,85.29 -148.7,187.83 4.05,97.51 -131.41,-7.55 -131.41,166.27z"/>
   <path fill="none" stroke="black" stroke-width="10.58" stroke-miterlimit="22.9256" d="M8852.45 5152.81c165.98,-112.66 297.3,-75.05 337.99,-201.92"/>
   <path fill="none" stroke="black" stroke-width="10.58" stroke-miterlimit="22.9256" d="M9058.33 4819.83c-1.89,72.25 -4.45,123.31 -59.47,178"/>
   <path fill="none" stroke="black" stroke-width="10.58" stroke-miterlimit="22.9256" d="M9984.12 4834.86c86.94,-4.2 98.59,164.18 188.49,156.52"/>
   <path fill="white" stroke="black" stroke-width="10.58" stroke-miterlimit="22.9256" d="M10592.61 4755.24c-291.62,48.9 -204.66,92.3 -284.48,117.38 -38.97,137.63 -172.13,-22.9 -90.63,156.53 52.78,116.18 -227.69,222.99 119.23,213.22 198.33,-5.58 540.41,0 703.3,0 226.91,0 404.1,0 619.12,0 274.77,0 253.17,37.76 79.46,-147.09 -58.2,-61.94 62.39,-30.14 28.68,-104.43 -30.19,-66.56 -105.84,-154.26 -271.23,-227.56 -145.91,-18.11 -825.85,-21.06 -903.44,-8.05z"/>
   <path fill="none" stroke="black" stroke-width="10.58" stroke-miterlimit="22.9256" d="M10461.06 4813.52c-38.12,80.76 -117.06,144.33 -72.82,227.29 -38.41,72.02 -48.64,1.19 -45.89,125.22"/>
   <path fill="none" stroke="black" stroke-width="10.58" stroke-miterlimit="22.9256" d="M10443.77 4877.25c-87.17,8.84 -164.36,252.94 -237.75,232.16"/>
   <path fill="none" stroke="black" stroke-width="10.58" stroke-miterlimit="22.9256" d="M11543.35 4802.82c-168.61,92.04 -83.46,200.81 -12.36,303.84"/>
   <rect fill="none" stroke="black" stroke-width="10.58" stroke-miterlimit="22.9256" x="13223.56" y="4356.15" width="463.02" height="1698.3" rx="79.21" ry="198.78"/>
   <path fill="white" stroke="black" stroke-width="10.58" stroke-miterlimit="22.9256" d="M13905.83 5247.44c1523.2,0 3014.49,0 4537.59,0 25.46,0 46.3,23.66 46.3,52.57l0 367.96c0,28.91 -20.83,52.57 -46.3,52.57l-4537.59 0c-25.46,0 -46.3,-23.65 -46.3,-52.57l0 -367.96c0,-28.91 20.83,-52.57 46.3,-52.57z"/>
   <path fill="none" stroke="black" stroke-width="10.58" stroke-miterlimit="22.9256" d="M8242.22 7522.44l3848.57 0 0 5105.61c0,72.06 -58.95,131.01 -131.01,131.01l-3586.54 0c-72.06,0 -131.01,-58.95 -131.01,-131.01l0 -5105.61z"/>
   <rect fill="none" stroke="black" stroke-width="10.58" stroke-miterlimit="22.9256" x="8538.27" y="7785.92" width="3256.48" height="4630.19" rx="46.52" ry="45.06"/>
   <path fill="white" stroke="black" stroke-width="10.58" stroke-miterlimit="22.9256" d="M13769.92 5591.26l4950.11 0c58.36,0 106.09,47.74 106.09,106.1l0 247.61c0,58.36 -47.73,106.1 -106.09,106.1l-5004.08 0c-16.16,0 -29.37,-13.22 -29.37,-29.38l0 -347.09c0,-45.84 37.5,-83.34 83.34,-83.34z"/>
   <rect fill="white" stroke="black" stroke-width="10.58" stroke-miterlimit="22.9256" x="8177.69" y="5593.52" width="3987.05" height="463.02" rx="52.47" ry="83.7"/>
   <rect fill="none" stroke="black" stroke-width="10.58" stroke-miterlimit="22.9256" x="8750.77" y="6057.43" width="94.67" height="115.75"/>
   <rect fill="none" stroke="black" stroke-width="10.58" stroke-miterlimit="22.9256" x="11487.07" y="6059.56" width="94.67" height="115.75"/>
   <path fill="none" stroke="black" stroke-width="10.58" stroke-miterlimit="22.9256" d="M13223.56 6003.02c-0.68,-4.51 -24.59,-39.7 -25.36,-96.59 -4.67,-341.8 -1.42,-1497.2 -0.36,-1502.28 10.29,-49.13 68.3,-76.06 95.66,-75.79l324.08 3.23c53.66,0.54 112.75,51.73 122.11,104.33 88.67,498.2 141.33,718.29 115.21,1002.69 -9.35,101.82 -24.33,150.12 -96.79,152.09"/>
   <rect fill="none" stroke="black" stroke-width="10.58" stroke-miterlimit="22.9256" x="14006.85" y="6050.66" width="94.67" height="115.75"/>
   <rect fill="none" stroke="black" stroke-width="10.58" stroke-miterlimit="22.9256" x="18364.04" y="6052.8" width="94.67" height="115.75"/>
   <path fill="none" stroke="black" stroke-width="10.58" stroke-linecap="round" stroke-linejoin="round" stroke-miterlimit="22.9256" d="M8242.22 7569.18c34.53,85.3 246.17,227 316.83,217.03 44.81,-6.32 1301,-0.42 1327.79,-0.42 73.77,0 225.99,-131.05 258.07,-233.01l-1902.69 16.4z"/>
   <path fill="none" stroke="black" stroke-width="10.58" stroke-linecap="round" stroke-linejoin="round" stroke-miterlimit="22.9256" d="M12071.69 7569.38c-34.45,85.3 -245.69,227.01 -316.22,217.03 -44.72,-6.32 -1298.53,-0.41 -1325.26,-0.41 -73.64,0 -225.56,-131.05 -257.58,-233.01l1899.07 16.39z"/>
   <rect fill="white" stroke="black" stroke-width="10.58" stroke-miterlimit="22.9256" x="10163.31" y="7133.07" width="1927.48" height="463.02" rx="175.53" ry="28.85"/>
   <rect fill="white" stroke="black" stroke-width="10.58" stroke-miterlimit="22.9256" x="8238.52" y="7133.07" width="1927.48" height="463.02" rx="175.53" ry="28.85"/>
   <path fill="white" stroke="black" stroke-width="10.58" stroke-miterlimit="22.9256" d="M13899.32 5248.06c51.97,0 154.76,-56.54 219.17,-69.07 25.27,-4.91 21.73,70.05 54.98,77.72 40.97,9.42 119.92,-47.38 161.02,-47.56 99.74,-0.42 151.33,40.1 208.03,47.56 77.86,10.22 142.46,-14.9 145.66,-48.04 8.19,-84.84 -139.44,-264.24 -330.29,-379.08 -163.83,-98.58 -389.02,-176.74 -494.18,-185.42 -30.07,-2.48 -31.32,47.52 -35.38,74.4 -8.84,58.54 -28.52,529.48 70.99,529.48z"/>
   <path fill="white" stroke="black" stroke-width="10.58" stroke-miterlimit="22.9256" d="M11551.62 7715.24c63.3,127.84 83.44,74 91.46,269.87 2.44,59.51 122.45,83.61 113.27,316.4 -4.02,101.96 144.8,161.21 43.6,277.57 72.45,137.65 -168.62,38.83 -285.55,38.83 -279.46,0 -509.76,-68.8 -800.31,51.05 -78.85,32.52 -427.47,-69.66 -576.96,-69.66 0,-182.06 75.54,-114.82 35.63,-277.58 -13.47,-54.91 136.35,-103.06 6.38,-285.55 -17.54,-24.63 81.46,-352.12 255.8,-350.76 237.39,1.86 845.18,10.83 930.56,0.32 54.13,-6.66 162.11,-18.99 186.12,29.52z"/>
   <path fill="none" stroke="black" stroke-width="10.58" stroke-miterlimit="22.9256" d="M10363.76 7787.45c67.48,231.71 -61.11,476.08 66.38,686.35l23.39 32.43"/>
   <path fill="none" stroke="black" stroke-width="10.58" stroke-miterlimit="22.9256" d="M11477.17 7785.27c81.34,158.1 49.03,473.58 -51.05,614.08 -10.44,14.66 -4.78,50.56 -4.78,69.66"/>
   <path fill="white" stroke="black" stroke-width="10.58" stroke-miterlimit="22.9256" d="M9082.71 7687.98c178.59,-36.4 658.36,-53.35 817.32,12.23 142.37,58.73 286.15,260.56 286.15,260.56 -118.04,130.13 41.23,581.82 -30.37,632.81 -68.3,48.65 -400.01,57.52 -475.82,34.66 -102.31,-30.85 -556.52,-66.38 -586.65,-36.25 -31.08,31.08 -424.32,54.51 -421.69,-12.24 8.24,-208.94 48.47,-221.73 -32.43,-358.41 -37.86,-63.95 120.34,-199.69 37.22,-316.39 -88.97,-124.94 263.41,-187.85 406.27,-216.96z"/>
   <path fill="none" stroke="black" stroke-width="10.58" stroke-miterlimit="22.9256" d="M8765.14 7771.38c247.4,248.35 92.66,345.68 179.29,693.04"/>
   <path fill="none" stroke="black" stroke-width="10.58" stroke-miterlimit="22.9256" d="M9930.86 7850.24c0,181.61 58.11,547.97 -93.06,651.41"/>
   <path fill="none" stroke="black" stroke-width="10.58" stroke-miterlimit="22.9256" d="M8832.76 7980.52c-9.72,103.63 -125.45,118.39 -148.89,186.13"/>
   <path fill="none" stroke="black" stroke-width="10.58" stroke-miterlimit="22.9256" d="M13855.65 5002.48c-56.8,-0.45 50.53,-112.75 50.53,-141.87 0,-115.57 21.23,-105.55 12.6,4.7 -5.59,71.44 -11.76,127.4 -51.5,185.51"/>
  </g>
  <g id="_2238817187008">
   <rect fill="none" stroke="black" stroke-width="10.58" stroke-miterlimit="22.9256" x="25069.34" y="4328.07" width="2179.18" height="1573.51" rx="56.7" ry="28.01"/>
   <rect fill="none" stroke="black" stroke-width="10.58" stroke-miterlimit="22.9256" x="22879.13" y="4325.56" width="2184.49" height="1573.51" rx="56.84" ry="28.01"/>
   <path fill="white" stroke="black" stroke-width="10.58" stroke-miterlimit="22.9256" d="M23248.98 5232.36c1225.45,0 2425.24,0 3650.62,0 20.48,0 37.25,23.66 37.25,52.57l0 367.97c0,28.91 -16.77,52.57 -37.25,52.57l-3650.62 0c-20.49,0 -37.26,-23.65 -37.26,-52.57l0 -367.97c0,-28.9 16.77,-52.57 37.26,-52.57z"/>
   <path fill="white" stroke="black" stroke-width="10.58" stroke-miterlimit="22.9256" d="M23342.98 5237c360.21,-4.64 1351.59,-16.02 1680.63,-4.64 130.61,4.52 -15.39,-87.21 60.33,-292.22 38.77,-104.99 -68.32,9.32 -197.34,-151.15 -30.94,-38.48 -908.04,-57.06 -978.3,-19.67 -177.43,94.39 -268.36,-6.76 -262.96,113.58 5.71,127.04 -165.11,85.29 -160.52,187.83 4.38,97.51 -141.85,-7.55 -141.85,166.27z"/>
   <path fill="none" stroke="black" stroke-width="10.58" stroke-miterlimit="22.9256" d="M23852.95 4809.83c-2.04,72.25 -4.8,123.31 -64.19,178"/>
   <path fill="none" stroke="black" stroke-width="10.58" stroke-miterlimit="22.9256" d="M24852.34 4824.87c93.84,-4.2 106.43,164.18 203.47,156.52"/>
   <path fill="white" stroke="black" stroke-width="10.58" stroke-miterlimit="22.9256" d="M25509.23 4745.24c-315.47,48.9 -221.41,92.3 -307.76,117.38 -42.16,137.63 -186.22,-22.9 -98.05,156.53 57.1,116.18 -246.32,222.99 128.98,213.22 214.56,-5.58 584.63,0 760.84,0 245.47,0 437.16,0 669.78,0 297.26,0 273.88,37.76 85.97,-147.09 -62.97,-61.94 67.49,-30.14 31.03,-104.43 -32.67,-66.56 -114.51,-154.26 -293.43,-227.56 -157.84,-18.11 -893.42,-21.06 -977.36,-8.05z"/>
   <path fill="none" stroke="black" stroke-width="10.58" stroke-miterlimit="22.9256" d="M25348.21 4867.26c-94.29,8.84 -177.82,252.94 -257.21,232.16"/>
   <path fill="none" stroke="black" stroke-width="10.58" stroke-miterlimit="22.9256" d="M26537.77 4792.83c-182.42,92.04 -90.3,200.81 -13.38,303.84"/>
   <rect fill="none" stroke="black" stroke-width="10.58" stroke-miterlimit="22.9256" x="28320.21" y="4346.15" width="463.02" height="1698.3" rx="79.21" ry="198.78"/>
   <path fill="white" stroke="black" stroke-width="10.58" stroke-miterlimit="22.9256" d="M29002.48 5237.44c1523.2,0 3014.49,0 4537.59,0 25.46,0 46.3,23.66 46.3,52.57l0 367.96c0,28.91 -20.83,52.57 -46.3,52.57l-4537.59 0c-25.46,0 -46.3,-23.65 -46.3,-52.57l0 -367.96c0,-28.91 20.83,-52.57 46.3,-52.57z"/>
   <path fill="none" stroke="black" stroke-width="10.58" stroke-miterlimit="22.9256" d="M22879.13 7522.44l4373.02 0 0 5087.75c0,81.89 -66.98,148.87 -148.87,148.87l-4075.28 0c-81.89,0 -148.87,-66.98 -148.87,-148.87l0 -5087.75z"/>
   <rect fill="none" stroke="black" stroke-width="10.58" stroke-miterlimit="22.9256" x="23199.41" y="7785.92" width="3704.63" height="4630.19" rx="52.92" ry="45.06"/>
   <path fill="white" stroke="black" stroke-width="10.58" stroke-miterlimit="22.9256" d="M28866.57 5581.26l4950.11 0c58.36,0 106.09,47.74 106.09,106.1l0 247.61c0,58.36 -47.73,106.1 -106.09,106.1l-5004.08 0c-16.16,0 -29.37,-13.22 -29.37,-29.38l0 -347.09c0,-45.84 37.5,-83.34 83.34,-83.34z"/>
   <rect fill="white" stroke="black" stroke-width="10.58" stroke-miterlimit="22.9256" x="22879.13" y="5583.53" width="4374.36" height="463.02" rx="57.57" ry="83.7"/>
   <rect fill="none" stroke="black" stroke-width="10.58" stroke-miterlimit="22.9256" x="23465.32" y="6047.43" width="94.67" height="115.75"/>
   <rect fill="none" stroke="black" stroke-width="10.58" stroke-miterlimit="22.9256" x="26576.66" y="6049.56" width="94.67" height="115.75"/>
   <path fill="none" stroke="black" stroke-width="10.58" stroke-miterlimit="22.9256" d="M28320.21 5993.02c-0.68,-4.51 -24.59,-39.7 -25.36,-96.59 -4.67,-341.8 -1.42,-1497.2 -0.36,-1502.28 10.29,-49.13 68.3,-76.06 95.66,-75.79l324.08 3.23c53.66,0.54 112.75,51.73 122.11,104.33 88.67,498.2 141.33,718.29 115.21,1002.69 -9.35,101.82 -24.33,150.12 -96.79,152.09"/>
   <rect fill="none" stroke="black" stroke-width="10.58" stroke-miterlimit="22.9256" x="29103.5" y="6040.67" width="94.67" height="115.75"/>
   <rect fill="none" stroke="black" stroke-width="10.58" stroke-miterlimit="22.9256" x="33400.71" y="6042.8" width="94.67" height="115.75"/>
   <path fill="none" stroke="black" stroke-width="10.58" stroke-linecap="round" stroke-linejoin="round" stroke-miterlimit="22.9256" d="M22879.13 7569.18c39.47,85.3 281.4,227 362.18,217.03 51.22,-6.32 1487.2,-0.42 1517.82,-0.42 84.34,0 258.34,-131.05 295.01,-233.01l-2175.01 16.4z"/>
   <path fill="none" stroke="black" stroke-width="10.58" stroke-linecap="round" stroke-linejoin="round" stroke-miterlimit="22.9256" d="M27254.3 7569.38c-39.47,85.3 -281.4,227.01 -362.18,217.03 -51.22,-6.32 -1487.2,-0.41 -1517.82,-0.41 -84.34,0 -258.33,-131.05 -295.01,-233.01l2175.01 16.39z"/>
   <rect fill="white" stroke="black" stroke-width="10.58" stroke-miterlimit="22.9256" x="25064.22" y="7133.07" width="2188.14" height="463.02" rx="199.26" ry="28.85"/>
   <rect fill="white" stroke="black" stroke-width="10.58" stroke-miterlimit="22.9256" x="22879.13" y="7133.07" width="2188.14" height="463.02" rx="199.26" ry="28.85"/>
   <path fill="white" stroke="black" stroke-width="10.58" stroke-miterlimit="22.9256" d="M28995.97 5238.06c51.97,0 154.76,-56.54 219.17,-69.07 25.27,-4.91 21.73,70.05 54.98,77.72 40.97,9.42 119.92,-47.38 161.02,-47.56 99.74,-0.42 151.33,40.1 208.04,47.56 77.85,10.22 142.45,-14.9 145.65,-48.04 8.19,-84.84 -139.44,-264.24 -330.29,-379.08 -163.83,-98.58 -389.02,-176.74 -494.18,-185.42 -30.07,-2.48 -31.32,47.52 -35.38,74.4 -8.84,58.54 -28.52,529.48 70.99,529.48z"/>
   <path fill="white" stroke="black" stroke-width="10.58" stroke-miterlimit="22.9256" d="M26569.54 7706.12c67.95,141.28 89.57,81.79 98.18,298.22 2.62,65.76 131.43,92.38 121.59,349.63 -4.32,112.67 155.44,178.13 46.81,306.74 77.76,152.1 -181.02,42.9 -306.54,42.9 -300,0 -547.2,-76.03 -859.09,56.4 -84.65,35.94 -458.88,-76.98 -619.35,-76.98 0,-201.17 81.09,-126.87 38.25,-306.74 -14.46,-60.68 146.36,-113.89 6.85,-315.54 -18.83,-27.21 87.44,-389.1 274.58,-387.59 254.84,2.05 907.27,11.96 998.92,0.35 58.09,-7.36 174.01,-20.99 199.79,32.61z"/>
   <path fill="none" stroke="black" stroke-width="10.58" stroke-miterlimit="22.9256" d="M25294.41 7785.92c72.44,256.04 -65.6,526.09 71.26,758.44l25.1 35.84"/>
   <path fill="none" stroke="black" stroke-width="10.58" stroke-miterlimit="22.9256" d="M26489.62 7783.51c87.31,174.7 52.63,523.33 -54.79,678.58 -11.21,16.21 -5.14,55.86 -5.14,76.98"/>
   <path fill="none" stroke="black" stroke-width="10.58" stroke-miterlimit="22.9256" d="M26609.5 8353.97c-7.3,167.85 151.44,179.05 159.83,226.23"/>
   <path fill="white" stroke="black" stroke-width="10.58" stroke-miterlimit="22.9256" d="M23786.41 7691.36c205.72,-40.23 758.37,-58.94 941.49,13.51 164,64.9 329.63,287.93 329.63,287.93 -135.97,143.79 47.49,642.92 -34.99,699.27 -78.68,53.76 -460.78,63.56 -548.11,38.3 -117.85,-34.09 -641.06,-73.35 -675.76,-40.06 -35.81,34.35 -488.79,60.24 -485.76,-13.52 9.49,-230.9 55.83,-245.02 -37.36,-396.06 -43.61,-70.67 138.61,-220.67 42.87,-349.62 -102.48,-138.05 303.43,-207.58 467.99,-239.74z"/>
   <path fill="none" stroke="black" stroke-width="10.58" stroke-miterlimit="22.9256" d="M23420.59 7783.52c284.99,274.43 106.74,381.99 206.53,765.83"/>
   <path fill="none" stroke="black" stroke-width="10.58" stroke-miterlimit="22.9256" d="M24763.4 7870.66c0,200.69 66.95,605.52 -107.19,719.83"/>
   <path fill="none" stroke="black" stroke-width="10.58" stroke-miterlimit="22.9256" d="M23498.49 8014.63c-11.2,114.51 -144.5,130.81 -171.51,205.66"/>
   <path fill="none" stroke="black" stroke-width="10.58" stroke-miterlimit="22.9256" d="M28952.3 4992.48c-56.8,-0.45 50.53,-112.75 50.53,-141.87 0,-115.57 21.23,-105.55 12.6,4.7 -5.59,71.44 -11.76,127.4 -51.5,185.51"/>
   <path fill="none" stroke="black" stroke-width="10.58" stroke-miterlimit="22.9256" d="M29303.64 5105.67c4.2,5.11 49.45,49.55 30.25,34.58"/>
  </g>
  <g id="_2238817193104">
   <path fill="none" stroke="black" stroke-width="10.58" stroke-miterlimit="22.9256" d="M28101.08 16821.77l-2535.69 0c-22.51,0 -40.93,18.41 -40.93,40.94l0 1491.63c0,22.52 18.41,40.94 40.93,40.94l2535.69 0c22.52,0 40.94,-18.41 40.94,-40.94l0 -1491.63c0,-22.52 -18.41,-40.94 -40.94,-40.94"/>
   <rect fill="none" stroke="black" stroke-width="10.58" stroke-miterlimit="22.9256" x="22885.73" y="16819.26" width="2638.73" height="1573.51" rx="68.66" ry="28.01"/>
   <path fill="white" stroke="black" stroke-width="10.58" stroke-miterlimit="22.9256" d="M23254.16 17726.06c1520.64,0 3009.43,0 4529.97,0 25.42,0 46.23,23.66 46.23,52.57l0 367.96c0,28.91 -20.8,52.58 -46.23,52.58l-4529.97 0c-25.42,0 -46.23,-23.66 -46.23,-52.58l0 -367.96c0,-28.91 20.8,-52.57 46.23,-52.57z"/>
   <path fill="white" stroke="black" stroke-width="10.58" stroke-miterlimit="22.9256" d="M23513.96 17730.69c401.27,-4.63 1505.61,-16.01 1872.15,-4.63 145.5,4.52 -17.15,-87.22 67.2,-292.22 43.2,-104.99 -76.1,9.32 -219.81,-151.16 -34.48,-38.47 -1011.52,-57.05 -1089.79,-19.67 -197.66,94.4 -298.94,-6.75 -292.93,113.59 6.37,127.04 -183.94,85.29 -178.81,187.82 4.88,97.51 -158.02,-7.54 -158.02,166.27z"/>
   <path fill="none" stroke="black" stroke-width="10.58" stroke-miterlimit="22.9256" d="M24082.05 17303.52c-2.27,72.26 -5.35,123.32 -71.51,178.01"/>
   <path fill="none" stroke="black" stroke-width="10.58" stroke-miterlimit="22.9256" d="M25195.32 17318.57c104.53,-4.2 118.56,164.17 226.66,156.52"/>
   <path fill="none" stroke="black" stroke-width="10.58" stroke-miterlimit="22.9256" d="M26129.56 17238.93c-315.48,48.9 -221.41,92.3 -307.76,117.39 -42.17,137.63 -186.23,-22.91 -98.05,156.53 57.09,116.18 -246.32,222.98 128.97,213.22 214.56,-5.58 584.64,0 760.85,0 245.47,0 437.16,0 669.77,0 297.27,0 273.88,37.75 85.97,-147.1 -62.96,-61.94 67.49,-30.13 31.03,-104.42 -32.66,-66.57 -114.5,-154.27 -293.42,-227.56 -157.85,-18.12 -893.42,-21.06 -977.36,-8.06z"/>
   <path fill="none" stroke="black" stroke-width="10.58" stroke-miterlimit="22.9256" d="M25987.24 17297.21c-41.24,80.76 -126.64,144.34 -78.78,227.3 -41.55,72.02 -52.62,1.19 -49.64,125.22"/>
   <path fill="none" stroke="black" stroke-width="10.58" stroke-miterlimit="22.9256" d="M27158.09 17286.53c-182.41,92.03 -90.29,200.81 -13.37,303.84"/>
   <rect fill="none" stroke="black" stroke-width="10.58" stroke-miterlimit="22.9256" x="29203.72" y="16839.84" width="463.02" height="1698.3" rx="79.21" ry="198.78"/>
   <path fill="white" stroke="black" stroke-width="10.58" stroke-miterlimit="22.9256" d="M29885.99 17731.14c1523.2,0 3014.49,0 4537.59,0 25.46,0 46.31,23.65 46.31,52.57l0 367.96c0,28.91 -20.84,52.57 -46.31,52.57l-4537.59 0c-25.46,0 -46.3,-23.65 -46.3,-52.57l0 -367.96c0,-28.91 20.83,-52.57 46.3,-52.57z"/>
   <path fill="none" stroke="black" stroke-width="10.58" stroke-miterlimit="22.9256" d="M22895.47 19976.15l5250.19 0 0 5058.35c0,98.05 -80.22,178.27 -178.26,178.27l-4893.66 0c-98.05,0 -178.27,-80.22 -178.27,-178.27l0 -5058.35z"/>
   <rect fill="none" stroke="black" stroke-width="10.58" stroke-miterlimit="22.9256" x="23207.93" y="20239.63" width="4589.61" height="4630.19" rx="65.57" ry="45.06"/>
   <path fill="white" stroke="black" stroke-width="10.58" stroke-miterlimit="22.9256" d="M29750.07 18074.96l4950.11 0c58.36,0 106.1,47.74 106.1,106.09l0 247.62c0,58.36 -47.74,106.09 -106.1,106.09l-5004.07 0c-16.17,0 -29.38,-13.22 -29.38,-29.37l0 -347.09c0,-45.84 37.5,-83.34 83.34,-83.34z"/>
   <rect fill="white" stroke="black" stroke-width="10.58" stroke-miterlimit="22.9256" x="22885.73" y="18077.22" width="5261.27" height="463.02" rx="69.24" ry="83.7"/>
   <rect fill="none" stroke="black" stroke-width="10.58" stroke-miterlimit="22.9256" x="23474.46" y="18541.13" width="94.67" height="115.75"/>
   <rect fill="none" stroke="black" stroke-width="10.58" stroke-miterlimit="22.9256" x="27456.28" y="18543.26" width="94.67" height="115.75"/>
   <path fill="none" stroke="black" stroke-width="10.58" stroke-miterlimit="22.9256" d="M29203.71 18486.72c-0.67,-4.51 -24.59,-39.71 -25.36,-96.59 -4.66,-341.8 -1.42,-1497.21 -0.36,-1502.29 10.29,-49.13 68.3,-76.05 95.66,-75.78l324.08 3.23c53.66,0.53 112.76,51.72 122.12,104.32 88.66,498.2 141.32,718.3 115.21,1002.7 -9.36,101.82 -24.34,150.11 -96.8,152.09"/>
   <rect fill="none" stroke="black" stroke-width="10.58" stroke-miterlimit="22.9256" x="29987.01" y="18534.36" width="94.67" height="115.75"/>
   <rect fill="none" stroke="black" stroke-width="10.58" stroke-miterlimit="22.9256" x="34284.22" y="18536.5" width="94.67" height="115.75"/>
   <path fill="none" stroke="black" stroke-width="10.58" stroke-linecap="round" stroke-linejoin="round" stroke-miterlimit="22.9256" d="M22895.47 20022.89c47.38,85.29 337.82,227 434.79,217.03 61.48,-6.32 1785.37,-0.42 1822.13,-0.42 101.25,0 310.12,-131.05 354.15,-233.01l-2611.07 16.4z"/>
   <path fill="none" stroke="black" stroke-width="10.58" stroke-linecap="round" stroke-linejoin="round" stroke-miterlimit="22.9256" d="M28147.81 20023.09c-47.38,85.3 -337.82,227 -434.79,217.03 -61.48,-6.32 -1785.37,-0.42 -1822.13,-0.42 -101.25,0 -310.12,-131.05 -354.15,-233.01l2611.07 16.4z"/>
   <rect fill="white" stroke="black" stroke-width="10.58" stroke-miterlimit="22.9256" x="25518.63" y="19586.78" width="2626.84" height="463.02" rx="239.21" ry="28.85"/>
   <rect fill="white" stroke="black" stroke-width="10.58" stroke-miterlimit="22.9256" x="22895.47" y="19586.78" width="2626.84" height="463.02" rx="239.21" ry="28.85"/>
   <path fill="white" stroke="black" stroke-width="10.58" stroke-miterlimit="22.9256" d="M29879.48 17731.75c51.97,0 154.76,-56.54 219.17,-69.06 25.27,-4.91 21.73,70.05 54.99,77.71 40.96,9.43 119.91,-47.37 161.01,-47.55 99.74,-0.43 151.33,40.1 208.04,47.55 77.85,10.23 142.45,-14.89 145.65,-48.04 8.19,-84.84 -139.44,-264.23 -330.29,-379.07 -163.83,-98.58 -389.02,-176.75 -494.18,-185.42 -30.07,-2.49 -31.31,47.52 -35.38,74.4 -8.84,58.53 -28.52,529.47 70.99,529.47z"/>
   <path fill="white" stroke="black" stroke-width="10.58" stroke-miterlimit="22.9256" d="M27254.99 20159.83c69.95,141.28 92.19,81.78 101.07,298.22 2.69,65.76 135.3,92.38 125.17,349.63 -4.45,112.66 160.01,178.13 48.18,306.73 80.05,152.11 -186.34,42.9 -315.54,42.9 -308.82,0 -563.29,-76.03 -884.37,56.41 -87.14,35.94 -472.38,-76.98 -637.56,-76.98 0,-201.17 83.48,-126.87 39.37,-306.74 -14.88,-60.68 150.67,-113.89 7.06,-315.55 -19.38,-27.2 90.01,-389.09 282.66,-387.59 262.33,2.06 933.95,11.97 1028.31,0.36 59.8,-7.36 179.12,-20.99 205.66,32.61z"/>
   <path fill="none" stroke="black" stroke-width="10.58" stroke-miterlimit="22.9256" d="M25942.36 20239.63c74.57,256.04 -67.53,526.08 73.35,758.43l25.85 35.85"/>
   <path fill="none" stroke="black" stroke-width="10.58" stroke-miterlimit="22.9256" d="M27172.73 20237.22c89.88,174.7 54.17,523.32 -56.41,678.58 -11.54,16.2 -5.28,55.85 -5.28,76.97"/>
   <path fill="none" stroke="black" stroke-width="10.58" stroke-miterlimit="22.9256" d="M27296.12 20807.68c-7.51,167.85 155.9,179.05 164.53,226.23"/>
   <path fill="white" stroke="black" stroke-width="10.58" stroke-miterlimit="22.9256" d="M23988.38 20145.06c225.24,-40.22 830.33,-58.94 1030.82,13.52 179.57,64.9 360.91,287.92 360.91,287.92 -148.87,143.8 52,642.93 -38.31,699.28 -86.14,53.75 -504.5,63.56 -600.11,38.3 -129.03,-34.09 -701.9,-73.36 -739.89,-40.07 -39.21,34.35 -535.17,60.24 -531.85,-13.52 10.39,-230.89 61.13,-245.01 -40.91,-396.05 -47.74,-70.67 151.77,-220.67 46.95,-349.63 -112.21,-138.04 332.22,-207.57 512.4,-239.74z"/>
   <path fill="none" stroke="black" stroke-width="10.58" stroke-miterlimit="22.9256" d="M23587.85 20237.23c312.03,274.42 116.88,381.98 226.14,765.83"/>
   <path fill="none" stroke="black" stroke-width="10.58" stroke-miterlimit="22.9256" d="M25058.08 20324.37c0,200.69 73.3,605.52 -117.37,719.83"/>
   <path fill="none" stroke="black" stroke-width="10.58" stroke-miterlimit="22.9256" d="M23673.14 20468.33c-12.26,114.52 -158.22,130.81 -187.8,205.67"/>
   <path fill="none" stroke="black" stroke-width="10.58" stroke-miterlimit="22.9256" d="M30187.14 17599.36c4.2,5.12 49.45,49.56 30.25,34.59"/>
  </g>
 </g>
 <g id="Выносные">
  <metadata id="CorelCorpID_2Corel-Layer"/>
  <rect fill="none" width="41988.4" height="29691.8"/>
  <g id="_2238817131568">
   <line fill="none" stroke="gray" stroke-width="10.58" stroke-miterlimit="22.9256" x1="7541.82" y1="12823.99" x2="8059.6" y2= "12823.99" />
   <line fill="none" stroke="gray" stroke-width="10.58" stroke-miterlimit="22.9256" x1="7532.34" y1="7126.59" x2="8051.4" y2= "7126.59" />
   <line fill="none" stroke="gray" stroke-width="10.58" stroke-miterlimit="22.9256" x1="7736.39" y1="13013.15" x2="7728.19" y2= "6958.39" />
  </g>
  <g id="_2238817131616">
   <line fill="none" stroke="gray" stroke-width="10.58" stroke-miterlimit="22.9256" x1="7544.02" y1="6147.58" x2="8061.8" y2= "6147.58" />
   <line fill="none" stroke="gray" stroke-width="10.58" stroke-miterlimit="22.9256" x1="7738.59" y1="6340.64" x2="7738.59" y2= "4149.96" />
   <line fill="none" stroke="gray" stroke-width="10.58" stroke-miterlimit="22.9256" x1="7560.11" y1="4338.79" x2="8079.17" y2= "4338.79" />
  </g>
  <g id="_2238817133728">
   <line fill="none" stroke="gray" stroke-width="10.58" stroke-miterlimit="22.9256" x1="8213.03" y1="13508.27" x2="8213.03" y2= "12989.21" />
   <line fill="none" stroke="gray" stroke-width="10.58" stroke-miterlimit="22.9256" x1="12111.11" y1="13510.67" x2="12111.11" y2= "12992.88" />
   <line fill="none" stroke="gray" stroke-width="10.58" stroke-miterlimit="22.9256" x1="12288.6" y1="13312.41" x2="7999.77" y2= "13312.41" />
  </g>
  <g id="_2238817136368">
   <line fill="none" stroke="gray" stroke-width="10.58" stroke-miterlimit="22.9256" x1="22889.67" y1="13540.44" x2="22889.67" y2= "13021.38" />
   <line fill="none" stroke="gray" stroke-width="10.58" stroke-miterlimit="22.9256" x1="27267.61" y1="13542.84" x2="27267.61" y2= "13025.05" />
   <line fill="none" stroke="gray" stroke-width="10.58" stroke-miterlimit="22.9256" x1="27445.1" y1="13344.58" x2="22726.64" y2= "13344.58" />
  </g>
  <g id="_2238817135840">
   <line fill="none" stroke="gray" stroke-width="10.58" stroke-miterlimit="22.9256" x1="22878.91" y1="25997.76" x2="22878.91" y2= "25478.7" />
   <line fill="none" stroke="gray" stroke-width="10.58" stroke-miterlimit="22.9256" x1="28143.74" y1="25998.12" x2="28143.74" y2= "25480.33" />
   <line fill="none" stroke="gray" stroke-width="10.58" stroke-miterlimit="22.9256" x1="28326.93" y1="25801.9" x2="22693.02" y2= "25801.9" />
  </g>
  <g id="_2238817134400">
   <line fill="none" stroke="gray" stroke-width="10.58" stroke-miterlimit="22.9256" x1="8239.18" y1="26010.78" x2="8239.18" y2= "25491.72" />
   <line fill="none" stroke="gray" stroke-width="10.58" stroke-miterlimit="22.9256" x1="13104.12" y1="26011.14" x2="13104.12" y2= "25493.35" />
   <line fill="none" stroke="gray" stroke-width="10.58" stroke-miterlimit="22.9256" x1="13287.31" y1="25814.92" x2="8015.72" y2= "25814.92" />
  </g>
  <g id="_2238817137856">
   <line fill="none" stroke="gray" stroke-width="10.58" stroke-miterlimit="22.9256" x1="22192.2" y1="25283.49" x2="22709.99" y2= "25283.49" />
   <line fill="none" stroke="gray" stroke-width="10.58" stroke-miterlimit="22.9256" x1="22182.72" y1="19586.09" x2="22701.78" y2= "19586.09" />
   <line fill="none" stroke="gray" stroke-width="10.58" stroke-miterlimit="22.9256" x1="22386.78" y1="25472.64" x2="22378.57" y2= "19417.89" />
  </g>
  <g id="_2238817138000">
   <line fill="none" stroke="gray" stroke-width="10.58" stroke-miterlimit="22.9256" x1="22178.78" y1="18634.91" x2="22696.57" y2= "18634.91" />
   <line fill="none" stroke="gray" stroke-width="10.58" stroke-miterlimit="22.9256" x1="22373.36" y1="18827.97" x2="22373.36" y2= "16637.29" />
   <line fill="none" stroke="gray" stroke-width="10.58" stroke-miterlimit="22.9256" x1="22194.88" y1="16826.12" x2="22713.94" y2= "16826.12" />
   <line fill="none" stroke="gray" stroke-width="10.58" stroke-miterlimit="22.9256" x1="22373.59" y1="18871.23" x2="22373.59" y2= "16911.07" />
  </g>
  <g id="_2238817140160">
   <line fill="none" stroke="gray" stroke-width="10.58" stroke-miterlimit="22.9256" x1="22159.09" y1="12858.41" x2="22676.88" y2= "12858.41" />
   <line fill="none" stroke="gray" stroke-width="10.58" stroke-miterlimit="22.9256" x1="22149.61" y1="7161.01" x2="22668.67" y2= "7161.01" />
   <line fill="none" stroke="gray" stroke-width="10.58" stroke-miterlimit="22.9256" x1="22353.67" y1="13047.57" x2="22345.46" y2= "6992.81" />
  </g>
  <g id="_2238817141696">
   <line fill="none" stroke="gray" stroke-width="10.58" stroke-miterlimit="22.9256" x1="22161.29" y1="6181.48" x2="22679.08" y2= "6181.48" />
   <line fill="none" stroke="gray" stroke-width="10.58" stroke-miterlimit="22.9256" x1="22355.87" y1="6374.54" x2="22355.87" y2= "4183.86" />
   <line fill="none" stroke="gray" stroke-width="10.58" stroke-miterlimit="22.9256" x1="22177.38" y1="4372.69" x2="22696.44" y2= "4372.69" />
  </g>
  <g id="_2238817141360">
   <line fill="none" stroke="gray" stroke-width="10.58" stroke-miterlimit="22.9256" x1="7570.15" y1="25313.67" x2="8087.94" y2= "25313.67" />
   <line fill="none" stroke="gray" stroke-width="10.58" stroke-miterlimit="22.9256" x1="7560.67" y1="19616.27" x2="8079.73" y2= "19616.27" />
   <line fill="none" stroke="gray" stroke-width="10.58" stroke-miterlimit="22.9256" x1="7764.73" y1="25502.83" x2="7756.52" y2= "19448.07" />
  </g>
  <g id="_2238817142704">
   <line fill="none" stroke="gray" stroke-width="10.58" stroke-miterlimit="22.9256" x1="7572.35" y1="18586.11" x2="8090.14" y2= "18586.11" />
   <line fill="none" stroke="gray" stroke-width="10.58" stroke-miterlimit="22.9256" x1="7766.92" y1="18779.16" x2="7766.92" y2= "16588.49" />
   <line fill="none" stroke="gray" stroke-width="10.58" stroke-miterlimit="22.9256" x1="7588.44" y1="16777.32" x2="8107.5" y2= "16777.32" />
   <line fill="none" stroke="gray" stroke-width="10.58" stroke-miterlimit="22.9256" x1="7767.15" y1="18822.42" x2="7767.15" y2= "16862.26" />
  </g>
 </g>
</svg>
