<?xml version="1.0" encoding="UTF-8"?>
<!DOCTYPE svg PUBLIC "-//W3C//DTD SVG 1.1//EN" "http://www.w3.org/Graphics/SVG/1.1/DTD/svg11.dtd">
<!-- Creator: CorelDRAW 2021.5 -->
<svg xmlns="http://www.w3.org/2000/svg" xml:space="preserve" width="267.549mm" height="191.275mm" version="1.1" shape-rendering="geometricPrecision" text-rendering="geometricPrecision" image-rendering="optimizeQuality" fill-rule="evenodd" clip-rule="evenodd"
viewBox="0 0 25865.57 18491.77"
 xmlns:xlink="http://www.w3.org/1999/xlink"
 xmlns:xodm="http://www.corel.com/coreldraw/odm/2003">
 <g id="Тени">
  <metadata id="CorelCorpID_0Corel-Layer"/>
  <path fill="black" fill-opacity="0.101961" d="M3492.78 333.34c594.35,63.16 777.84,186.55 1253.42,193.28 506.9,7.18 651.31,-96.63 1439.82,-207.21 -443.39,8.74 -877.2,30.98 -1320.59,39.73l-1372.65 -25.81z"/>
  <path fill="black" fill-opacity="0.101961" d="M7175.47 329.82c736.89,74.47 844.32,197.68 1319.91,204.16 506.89,6.9 768.36,-181.04 1335.08,-193.24 -443.39,8.39 -877.2,20.33 -1320.6,28.76l-1334.39 -39.69z"/>
  <path fill="black" fill-opacity="0.101961" d="M3423.8 2308.79c638.21,-64.02 882.57,-157.17 1358.16,-162.74 506.9,-5.94 582.47,94.16 1335.08,174.25 -443.38,-7.22 -893.65,17.4 -1337.04,10.16l-1356.19 -21.67z"/>
  <path fill="black" fill-opacity="0.101961" d="M7137.22 2332c780.76,-142.57 875.29,-177.22 1350.88,-186.93 506.89,-10.34 666.5,42.79 1342.36,192.83 -443.38,-12.6 -888.16,-8.41 -1331.55,-21.04l-1361.68 15.14z"/>
  <g id="_2238819502656">
   <path fill="black" fill-opacity="0.101961" d="M10882.88 333.52c736.89,74.47 844.31,197.69 1319.9,204.16 506.89,6.91 768.37,-181.04 1335.09,-193.23 -443.39,8.39 -877.2,20.33 -1320.6,28.75l-1334.39 -39.69z"/>
   <path fill="black" fill-opacity="0.101961" d="M10844.61 2335.72c780.77,-142.57 875.3,-177.23 1350.88,-186.93 506.89,-10.34 666.5,42.79 1342.37,192.82 -443.38,-12.59 -888.16,-8.4 -1331.56,-21.04l-1361.68 15.15z"/>
  </g>
  <polygon fill="black" fill-opacity="0.101961" points="10397.67,2604.37 10402.49,2490.15 10350.93,2403.94 10295.08,2382.61 10181.31,3316.57 6737.29,3316.57 6748.34,2384.2 6711.68,2419.26 6676.84,2481.32 6645.81,2399.85 6611.29,2380.66 6610.2,3316.57 2933.55,3316.57 2907.48,3346.43 2904.07,3515.99 9860.7,3515.99 9572.64,4266.22 10481.57,4262.99 10466.09,4239.66 10463.17,3515.99 14089.96,3515.99 14086.15,4251.52 14197.84,4251.52 14196.95,3515.99 14211.78,3515.99 14211.78,3316.57 14196.72,3316.57 14195.77,2539.13 14164.23,2424.2 14095.76,2398.89 14091.01,3316.57 10447.36,3316.57 10414.93,3297.59 10399.61,3254.99 "/>
  <path fill="black" fill-opacity="0.101961" d="M6667.01 9198.3c-6.15,75.24 -9.76,153.7 -167.11,242.42 -279.29,157.53 -1061.19,176.24 -1768.95,181.64 -654.73,5.01 -1312.29,-47.64 -1616.43,-176.49 -149.18,-63.22 -157.98,-163.33 -173.06,-251.16 -4.92,-16.76 -6.68,-34.93 -6.13,-54.17l11.68 -387.14 1.53 -36.19 1.36 -5.56c9.66,-78.05 58.64,-139.89 122.91,-139.89l2216.92 -0.06c64.61,-3.23 141.26,-3.84 236.64,0l994.07 0c68.36,0 138.04,69.9 141.21,154.91l0.43 11.25 0.55 4.9c11.54,102.13 9.72,184.62 10.72,292.89l2.85 76.1c0.43,11.3 0.64,47.38 -1.05,58.01l-8.15 28.52zm3654.03 1860.69c-64.27,-1215.52 -1407.83,-1024.02 -1828.62,-1034.18 -443.22,-10.68 -1644.56,-207.4 -1702.63,1188.22 -18.99,456.56 -78.99,949.47 -78.99,949.47 0,0 -56.53,-591.53 -67.25,-909.28 -48.64,-1442.47 -964.18,-1264.23 -1867.9,-1249.86 -769.3,12.21 -1764.08,-463.88 -1766.85,1132.39 -0.28,163.76 -26.33,507.28 -98.18,1007.62l-10.23 -3533.74 48.13 -45.77 3732.3 4.04 35.44 56.84 24.66 -56.77 112.3 0.13c-62.26,2.43 -75.03,69 -84.57,145.29l-1.39 5.87 -1.53 36.12 -22.65 386.59c-1.11,19.15 1.17,37.52 6.11,54.31 15.09,87.81 31.59,176.51 161.68,232.37 303.66,130.45 987.87,177.61 1642.58,172.64 707.73,-5.38 1439.15,-3.1 1718.41,-160.57 157.28,-88.68 146.74,-206.84 152.89,-282.08l-0.04 -2.58c1.7,-10.64 2.38,-21.72 1.95,-33.17l-3.31 -87.02c-1,-108.27 7.39,-202.64 -0.81,-305.32l-0.67 -8.38 -0.31 -7.77c-0.16,-4.59 -0.5,-9.12 -0.97,-13.6 -1.54,-29.17 -3.23,-48.84 -25.04,-78.6 -15.26,-25.77 -36.33,-45.45 -61,-55.42l45.14 0.88 52.14 42.23 38.08 -46.27 123.2 1.04c-29.51,19.87 -41.98,47.83 -51.57,83.87 -5.03,14.11 -8.64,29.29 -10.62,45.15l-1.44 6.39 -1.52 35.9 -24.52 380.44c-1.19,18.97 1.18,37.51 6.08,54.29 14.95,87.82 51.81,221.4 165.06,269.34 301.41,127.63 980.45,175.47 1628.74,170.55 700.82,-5.32 1398.92,-27.51 1675.49,-185.02 155.76,-88.72 145.28,-186.64 151.37,-261.89l-0.04 -2.53c1.7,-10.67 2.37,-21.77 1.95,-33.24l-3.28 -86.96c-0.98,-108.31 -1.2,-201.85 -11.15,-304.27l-0.6 -6.25 -0.39 -9.93c-3.19,-85.02 -24.35,-149.67 -91.68,-157.55 -117.69,-13.77 14.65,-4.2 105.59,-14.44 29.36,-3.29 66,44.55 89.92,80.32 4.28,1577.31 -10.08,2949.58 -5.73,4526.91 -145.15,-3059.09 -397.3,-3039.16 -1958.45,-3070.36 -640.28,-12.8 -1582.78,40.26 -1709.53,973 -53.7,395.19 -77.04,748.26 -120.06,1110.39 -2.63,-420.53 -78.47,-594.4 -105.71,-1109.77z"/>
  <g id="_2238819506064">
   <polygon fill="black" fill-opacity="0.101961" points="17311.99,1573.82 18321.53,1573.82 18321.53,1695.05 17311.99,1695.05 "/>
   <polygon fill="black" fill-opacity="0.101961" points="21732.32,3365.05 25747.78,3365.05 25747.78,3486.29 21732.32,3486.29 "/>
  </g>
 </g>
 <g id="Схема">
  <metadata id="CorelCorpID_1Corel-Layer"/>
  <g id="_2238819506112">
   <g>
    <path fill="none" stroke="black" stroke-width="10.23" stroke-miterlimit="22.9256" d="M18503.26 1667.12l-41.8 -1084.37c-3.64,-95.01 -22.8,-190.47 112.8,-196.09l400.19 -16.65c35.98,-1.48 133.88,-4.5 139.6,144.21l44.42 1152.88"/>
    <path fill="none" stroke="black" stroke-width="10.23" stroke-miterlimit="22.9256" d="M18528.4 393.33c-122.95,9.83 -228.92,161.99 -212.28,291.72"/>
    <path fill="none" stroke="black" stroke-width="10.23" stroke-miterlimit="22.9256" d="M19003.56 370.28c175.78,-5.94 255.22,297.73 266.89,355.96 60.06,299.85 114.82,743.74 109.15,945.86"/>
    <path fill="none" fill-rule="nonzero" stroke="black" stroke-width="10.23" stroke-miterlimit="22.9256" d="M17314.23 1695.93c-4.06,-12.64 -1.15,-69.05 -2.78,-91.64 0,-52.49 5.21,-803.39 5.09,-895.32 -0.16,-105.97 43.11,-134.08 149.67,-134.08l14.82 0 742.23 0c52.05,0 94.48,42.58 94.61,94.61l2.37 982.07"/>
    <path fill="none" stroke="black" stroke-width="10.23" stroke-miterlimit="22.9256" d="M21734.25 2399.38l2.46 0c87.16,0 158.47,71.3 158.47,158.47l0 642.93c0,87.17 -71.31,158.48 -158.47,158.48"/>
    <polyline fill="none" stroke="black" stroke-width="10.23" stroke-miterlimit="22.9256" points="21644.03,4274.82 25747.77,4278.84 25747.77,3354.18 21732.33,3354.18 "/>
    <path fill="none" stroke="black" stroke-width="10.23" stroke-miterlimit="22.9256" d="M21734.25 2389.42l3967.72 2.66c87.19,0.05 158.49,71.35 158.49,158.52l0 643.03c0,87.17 -71.33,158.52 -158.49,158.52l-3969.64 0"/>
    <rect fill="none" stroke="black" stroke-width="10.23" stroke-miterlimit="22.9256" x="21488.99" y="4284.87" width="162.77" height="141.97"/>
    <rect fill="none" stroke="black" stroke-width="10.23" stroke-miterlimit="22.9256" x="17436.05" y="4277.2" width="162.77" height="141.97"/>
    <rect fill="none" stroke="black" stroke-width="10.23" stroke-miterlimit="22.9256" transform="matrix(1.88158E-14 -2.00811 0.954606 7.14617E-14 17312.5 4274.81)" width="1296.1" height="4630.04" rx="18.85" ry="18.85"/>
    <rect fill="none" stroke="black" stroke-width="10.23" stroke-miterlimit="22.9256" x="25441.83" y="4290.05" width="162.77" height="141.97"/>
   </g>
   <path fill="none" stroke="black" stroke-width="10.23" stroke-miterlimit="22.9256" d="M21734.25 2389.42l2.46 0c87.16,0 158.47,71.31 158.47,158.47l0 642.94c0,87.16 -71.31,158.47 -158.47,158.47"/>
  </g>
  <g id="_2238819444528">
   <path fill="none" stroke="black" stroke-width="10.23" stroke-miterlimit="22.9256" d="M10555.5 333.34c549.87,0 1078.86,25.91 1628.71,25.91 557.3,0 1202.31,-26.79 1759.59,-26.79 101.5,0 153.57,51.21 153.57,176.11 0,215.64 -28.94,611.16 -28.94,826.8 0,302.43 26.15,537.65 26.15,840.08 0,124.92 -48.66,163.11 -150.15,163.11 -586.98,0 -1194.66,-18.04 -1781.64,-18.04 -487.02,0 -980.48,9.78 -1467.48,18.17 -33.13,0.57 -105.93,-1.07 -139.08,-1.07 -101.5,0 -136.04,-30.83 -136.04,-155.73 0,-261.33 16.07,-558.44 16.07,-819.76 0,-256.76 -16.56,-614.52 -16.56,-871.27 0,-124.91 34.29,-157.52 135.78,-157.52z"/>
   <path fill="none" stroke="black" stroke-width="10.23" stroke-miterlimit="22.9256" d="M15098.56 1675.58l-757.04 0c-16.66,0 -38.52,5.74 -53.65,9.64 -95.15,21 -113.17,145.13 -101.7,373.51 9.87,196.63 -2.76,1670.02 -2.76,1782.84 0,279.82 16.61,401.66 100.2,424.78 20.12,7.95 24.25,11.42 57.92,11.42l757.04 0c32.54,0 35.79,-4.92 55.98,-9.82 83.56,-23.01 100.2,-144.21 100.2,-422.6 0,-112.23 -12.64,-1578 -2.76,-1773.63 11.47,-227.18 -13.3,-368.68 -108.46,-389.58 -16.11,-5.21 -26.42,-6.55 -44.94,-6.55z"/>
   <path fill="none" stroke="black" stroke-width="10.23" stroke-miterlimit="22.9256" d="M2882.63 1769.58l0 -1101.61c-2.68,-89.1 24.88,-125.56 90.97,-138.95m11125.84 11.25c67.93,27.46 96.38,82.37 87.97,148.25l-1.22 1249.12"/>
   <path fill="none" stroke="black" stroke-width="10.23" stroke-miterlimit="22.9256" d="M3154.38 316.89c554.59,0 1047.4,28.06 1601.99,28.06 562.09,0 1208.96,-27.3 1771.05,-27.3 102.36,0 156.29,40.78 156.29,165.68 0,215.64 -26.9,622.1 -26.9,837.74 0,302.43 31.18,531.44 31.18,833.87 0,124.91 -29.79,173.18 -132.15,173.18 -592.04,0 -1228.22,-23.46 -1820.24,-23.46 -491.21,0 -989.72,11.35 -1480.91,19.74 -33.41,0.56 -172.02,30.34 -205.45,30.34 -102.37,0 -80.97,-131.65 -80.97,-256.56 0,-261.32 25.13,-489.03 25.13,-750.34 0,-256.75 -25.13,-642.49 -25.13,-899.23 0,-124.93 83.75,-131.7 186.11,-131.7z"/>
   <path fill="none" stroke="black" stroke-width="10.23" stroke-miterlimit="22.9256" d="M6848.11 329.63c549.86,0 1078.85,25.92 1628.71,25.92 557.29,0 1202.3,-26.8 1759.59,-26.8 101.49,0 153.56,51.21 153.56,176.11 0,215.64 -28.93,611.17 -28.93,826.8 0,302.43 26.14,537.65 26.14,840.08 0,124.92 -48.65,163.12 -150.14,163.12 -586.98,0 -1194.66,-18.05 -1781.64,-18.05 -487.02,0 -980.48,9.78 -1467.48,18.17 -33.13,0.57 -105.94,-1.06 -139.08,-1.06 -101.51,0 -136.04,-30.83 -136.04,-155.74 0,-261.32 16.06,-558.44 16.06,-819.76 0,-256.75 -16.56,-614.52 -16.56,-871.27 0,-124.91 34.3,-157.53 135.79,-157.53z"/>
   <path fill="none" stroke="black" stroke-width="10.23" stroke-miterlimit="22.9256" d="M2755.41 1685.08l-757.04 0c-16.66,0 -38.52,5.74 -53.65,9.64 -95.15,21 -113.17,145.13 -101.71,373.5 9.87,196.64 -2.76,1670.03 -2.76,1782.85 0,279.82 16.62,401.66 100.2,424.78 20.12,7.94 24.25,11.42 57.92,11.42l757.04 0c32.54,0 35.79,-4.92 55.97,-9.82 83.57,-23.01 100.2,-144.21 100.2,-422.6 0,-112.23 -12.64,-1578.01 -2.76,-1773.63 11.46,-227.18 -13.3,-368.68 -108.46,-389.58 -16.12,-5.21 -26.42,-6.55 -44.94,-6.55z"/>
   <path fill="none" stroke="black" stroke-width="10.23" stroke-miterlimit="22.9256" d="M2982.17 2379.13c1204.19,0 2408.38,0 3612.58,0 66.91,8.93 63.97,77.83 84.25,114.47 20.67,-34.12 26.9,-108.27 89.93,-114.47 1196.3,2.34 2325.52,4.74 3521.84,7.08 72.97,3.53 95.48,60.46 107.18,107.54 11.58,-43.63 47.41,-98.32 122.71,-107.07l3597.4 2.36c41.55,0 75.54,46.97 75.54,104.05l0 728.3c0,57.2 -34.04,104.1 -75.54,104.05l-11135.88 -9.92c-41.55,-0.05 -75.56,-46.81 -75.56,-104.04l0 -728.32c0,-57.22 33.98,-104.03 75.56,-104.03z"/>
   <rect fill="none" stroke="black" stroke-width="10.23" stroke-miterlimit="22.9256" x="2905.61" y="3325.44" width="11280.83" height="946.44" rx="65.67" ry="47.32"/>
   <rect fill="none" stroke="black" stroke-width="10.23" stroke-miterlimit="22.9256" x="3149.99" y="4271.87" width="946.44" height="141.97"/>
   <rect fill="none" stroke="black" stroke-width="10.23" stroke-miterlimit="22.9256" x="13087.78" y="4270.09" width="946.44" height="141.97"/>
   <line fill="none" stroke="black" stroke-width="10.23" stroke-miterlimit="22.9256" x1="6681.09" y1="3325.18" x2="6679.02" y2= "2492.98" />
   <path fill="none" stroke="black" stroke-width="10.23" stroke-miterlimit="22.9256" d="M10462.39 3325.38c-44.35,0 -64.05,-49.3 -64.7,-90.89l-0.03 -740.73"/>
   <rect fill="none" stroke="black" stroke-width="10.23" stroke-miterlimit="22.9256" x="10621.21" y="4275.17" width="946.44" height="141.97"/>
   <rect fill="none" stroke="black" stroke-width="10.23" stroke-miterlimit="22.9256" x="9377.39" y="4275.17" width="946.44" height="141.97"/>
   <path fill="none" stroke="black" stroke-width="10.23" stroke-miterlimit="22.9256" d="M10508.53 4271.89c-44.34,0 -43.13,-19.45 -43.77,-68.75l-0.03 -877.65"/>
  </g>
  <g id="_2238819446304">
   <path fill="none" stroke="black" stroke-width="10.23" stroke-miterlimit="22.9256" d="M14320.21 12176.19c-79.12,-40.47 -94.94,-247.14 -94.94,-721.92 0,-191.39 12.06,-2691.06 2.62,-3024.66 -10.85,-387.45 6.27,-598.08 96.68,-634.02 89.6,-49.05 807.72,-44.49 887.04,-2.46 91.17,33.01 114.74,273.09 103.84,658.48 -9.4,331.91 2.6,2818.68 2.6,3009.09 0,472.26 -15.8,677.93 -95.58,715.84 -81.44,43.32 -829.49,33.19 -902.26,-0.36z"/>
   <path fill="none" stroke="black" stroke-width="10.23" stroke-miterlimit="22.9256" d="M2811.89 12104.38c79.12,-40.58 94.94,-247.88 94.94,-724.05 0,-191.95 -12.06,-2699.01 -2.62,-3033.59 10.86,-388.59 -6.27,-599.84 -96.68,-635.89 -89.6,-49.2 -807.71,-44.63 -887.03,-2.47 -91.18,33.11 -114.74,273.89 -103.85,660.42 9.4,332.89 -2.6,2826.99 -2.6,3017.98 0,473.66 15.8,679.93 95.59,717.95 81.43,43.45 829.48,33.29 902.25,-0.36z"/>
   <path fill="none" stroke="black" stroke-width="10.23" stroke-miterlimit="22.9256" d="M6675.16 9169.78c-6.1,75.24 -1.09,182.2 -157.11,270.93 -276.96,157.53 -1050.86,176.01 -1752.67,181.44 -649.24,5 -1339.47,-43.09 -1641.05,-171.93 -154.91,-66.19 -173.29,-199.44 -188.7,-288.97"/>
   <path fill="none" stroke="black" stroke-width="10.23" stroke-miterlimit="22.9256" d="M3081.26 8571.73l3457.18 0c67.77,0 120,69.88 123.21,154.89l15.41 407.41c3.22,85.04 -55.53,151.01 -123.22,154.89 -624.27,44.06 -1137.24,44.44 -1817.79,55.71 -663.86,11.01 -1068.15,-12 -1677.89,-55.71 -67.69,-3.89 -128.05,-69.91 -123.22,-154.89l23.11 -407.41c4.82,-84.99 55.45,-154.89 123.22,-154.89z"/>
   <rect fill="none" stroke="black" stroke-width="10.23" stroke-miterlimit="22.9256" x="2901.41" y="8564.86" width="3809.39" height="3674.18" rx="31.39" ry="76.55"/>
   <path fill="none" stroke="black" stroke-width="10.23" stroke-miterlimit="22.9256" d="M10424.75 9158.64c-5.99,75.24 -1.08,182.2 -154.57,270.93 -272.5,157.54 -1017.04,166.11 -1707.51,171.53 -638.75,5.02 -1334.66,-33.15 -1631.35,-162.01 -152.42,-66.19 -173.76,-190.97 -188.92,-280.5"/>
   <path fill="none" stroke="black" stroke-width="10.23" stroke-miterlimit="22.9256" d="M6888.94 8560.58l3401.29 0c66.68,0 118.07,69.88 121.23,154.89l15.15 407.41c3.17,85.04 -54.62,151.01 -121.23,154.89 -614.16,44.06 -1118.85,44.44 -1788.39,55.71 -653.13,11.01 -1050.89,-12 -1650.78,-55.71 -66.6,-3.89 -125.97,-69.91 -121.22,-154.89l22.73 -407.41c4.74,-84.99 54.55,-154.89 121.23,-154.89z"/>
   <path fill="none" stroke="black" stroke-width="10.23" stroke-miterlimit="22.9256" d="M14130.21 9163.66c-5.93,76.1 -1.09,184.27 -152.23,274.01 -268.33,159.34 -1007.04,167.21 -1686.99,172.68 -629.02,5.08 -1308.9,-32.74 -1601.06,-163.04 -150.06,-66.93 -167.48,-198.22 -182.42,-288.76"/>
   <path fill="none" stroke="black" stroke-width="10.23" stroke-miterlimit="22.9256" d="M10648.19 8558.75l3349.54 0c65.66,0 116.27,70.68 119.39,156.67l14.93 412.07c3.11,86.01 -53.8,152.73 -119.39,156.66 -604.83,44.57 -1101.83,44.94 -1761.19,56.35 -643.2,11.14 -1034.89,-12.14 -1625.66,-56.35 -65.59,-3.93 -124.05,-70.7 -119.39,-156.66l22.38 -412.07c4.67,-85.96 53.72,-156.67 119.39,-156.67z"/>
   <rect fill="none" stroke="black" stroke-width="10.23" stroke-miterlimit="22.9256" x="6718.25" y="8563.62" width="3708.51" height="3681.82" rx="30.56" ry="76.71"/>
   <path fill="none" stroke="black" stroke-width="10.23" stroke-miterlimit="22.9256" d="M2893.83 7883.42c-19.72,-173.36 450.66,-174.67 1113.01,-163.21 570.36,9.84 4844.01,-2.76 5171.22,-2.76 811.64,0 1190.49,-17.59 1252.09,136.86"/>
   <polyline fill="none" stroke="black" stroke-width="10.23" stroke-miterlimit="22.9256" stroke-dasharray="51.141695 51.141695" points="10513.1,16450.25 2899.15,16450.25 2901.42,12038.36 "/>
   <rect fill="none" stroke="black" stroke-width="10.23" stroke-miterlimit="22.9256" x="10426.75" y="8558.74" width="3788.03" height="7898.13" rx="31.21" ry="164.55"/>
   <path fill="none" stroke="black" stroke-width="10.23" stroke-miterlimit="22.9256" d="M10429.96 7868.08c12.63,-123.25 232.67,-149.84 567.88,-138.42 288.62,9.83 2451.41,-2.76 2617.02,-2.76 410.73,0 614.11,11.15 632.11,156.53"/>
   <line fill="none" stroke="black" stroke-width="10.23" stroke-miterlimit="22.9256" x1="10425.08" y1="8624.41" x2="10429.96" y2= "7854.31" />
  </g>
 </g>
 <g id="Шрифт">
  <metadata id="CorelCorpID_2Corel-Layer"/>
  <path fill="#666666" fill-rule="nonzero" fill-opacity="0.800000" d="M17656.81 8046.06l0 16.26c22.18,10.34 40.04,26.61 53.6,48.78 13.54,22.18 20.32,46.58 20.32,73.18 0,44.36 -15.27,80.2 -45.82,107.55 -30.56,27.35 -74.91,41.03 -133.07,41.03l-235.8 0 0 -527.79 229.9 0c53.71,0 95.24,12.69 124.56,38.07 29.32,25.38 43.98,57.29 43.98,95.73 0,50.75 -19.22,86.49 -57.66,107.18zm-274.24 -181.85l0 164.84 161.88 0c68.5,0 102.75,-28.08 102.75,-84.27 0,-27.59 -9.85,-47.92 -29.56,-60.98 -19.71,-13.05 -44.61,-19.59 -74.66,-19.59l-160.41 0zm0 409.52l164.84 0c34,0 61.84,-7.27 83.53,-21.81 21.68,-14.53 32.52,-38.81 32.52,-72.81 0,-32.03 -10.72,-55.32 -32.15,-69.86 -21.43,-14.54 -49.16,-21.8 -83.16,-21.8l-165.58 0 0 186.28zm445 -313.42l62.83 0 0 124.19 102.75 0c44.85,0 79.47,10.84 103.86,32.52 24.4,21.68 36.59,51.99 36.59,90.92 0,39.42 -12.19,70.1 -36.59,92.03 -24.39,21.94 -59.01,32.9 -103.86,32.9l-165.58 0 0 -372.56zm62.83 177.41l0 140.45 93.88 0c31.04,0 53.22,-5.92 66.52,-17.74 13.31,-11.83 19.96,-29.32 19.96,-52.49 0,-23.16 -6.65,-40.65 -19.96,-52.49 -13.3,-11.82 -35.48,-17.74 -66.52,-17.74l-93.88 0zm303.08 -177.41l62.83 0 0 372.56 -62.83 0 0 -372.56zm436.13 260.2l62.84 0c-7.4,37.45 -24.77,67.14 -52.12,89.07 -27.35,21.94 -62.21,32.9 -104.59,32.9 -56.18,0 -100.41,-18.36 -132.69,-55.07 -32.28,-36.72 -48.42,-83.65 -48.42,-140.82 0,-57.66 16.01,-104.73 48.05,-141.2 32.03,-36.47 76.38,-54.7 133.06,-54.7 42.88,0 77.74,10.72 104.59,32.15 26.86,21.44 43.49,49.89 49.89,85.38l-62.83 0c-13.3,-41.89 -43.86,-62.84 -91.66,-62.84 -39.92,0 -69.61,13.19 -89.08,39.55 -19.46,26.36 -29.2,59.76 -29.2,100.17 0,40.9 9.85,74.9 29.56,102 19.71,27.11 49.29,40.66 88.71,40.66 52.23,0 83.53,-22.43 93.87,-67.27zm182.95 -214.37c32.77,-36.96 77.5,-55.44 134.17,-55.44 56.67,0 101.39,18.48 134.17,55.44 32.77,36.96 49.16,83.77 49.16,140.45 0,56.67 -16.39,103.48 -49.16,140.44 -32.77,36.96 -77.5,55.44 -134.17,55.44 -56.67,0 -101.39,-18.48 -134.17,-55.44 -32.77,-36.96 -49.15,-83.77 -49.15,-140.44 0,-56.68 16.38,-103.49 49.15,-140.45zm44.72 240.61c20.7,27.35 50.51,41.03 89.44,41.03 38.93,0 68.75,-13.68 89.44,-41.03 20.7,-27.35 31.04,-60.73 31.04,-100.16 0,-39.42 -10.34,-72.82 -31.04,-100.17 -20.7,-27.35 -50.51,-41.03 -89.44,-41.03 -38.93,0 -68.75,13.68 -89.44,41.03 -20.7,27.35 -31.04,60.74 -31.04,100.17 0,39.42 10.34,72.81 31.04,100.16zm325.26 -231.74l0 -54.7 320.81 0 0 54.7 -128.62 0 0 317.86 -62.83 0 0 -317.86 -129.36 0zm640.89 317.86l0 -39.17 -16.26 0c-25.63,32.52 -64.31,48.78 -116.06,48.78 -40.89,0 -73.43,-11.82 -97.57,-35.48 -24.15,-23.66 -36.22,-52.23 -36.22,-85.75 0,-34 11.82,-63.08 35.48,-87.22 23.66,-24.15 59.38,-36.22 107.18,-36.22l121.23 0 0 -14.78c0,-23.66 -7.4,-42.51 -22.18,-56.55 -14.78,-14.05 -37.7,-21.08 -68.75,-21.08 -54.21,0 -83.04,17.99 -86.49,53.96l-62.83 0c2.47,-34 17.12,-60.62 43.98,-79.84 26.86,-19.22 61.48,-28.83 103.86,-28.83 47.81,0 85.37,11.09 112.73,33.27 27.35,22.18 41.02,53.96 41.02,95.36l0 253.54 -59.14 0zm-116.79 -45.09c31.05,0 57.91,-10.23 80.58,-30.68 22.66,-20.46 34,-45.47 34,-75.03l0 -34.01 -111.62 0c-59.63,0 -89.44,23.66 -89.44,70.97 0,21.19 7.51,37.95 22.54,50.26 15.03,12.33 36.35,18.48 63.94,18.48zm-2145.18 740.01l62.84 0c-7.4,37.45 -24.77,67.14 -52.12,89.07 -27.35,21.94 -62.21,32.9 -104.59,32.9 -56.18,0 -100.41,-18.36 -132.69,-55.07 -32.28,-36.72 -48.42,-83.65 -48.42,-140.82 0,-57.66 16.01,-104.73 48.05,-141.2 32.03,-36.47 76.38,-54.7 133.06,-54.7 42.88,0 77.74,10.72 104.59,32.15 26.86,21.44 43.49,49.89 49.89,85.38l-62.83 0c-13.3,-41.89 -43.86,-62.84 -91.66,-62.84 -39.92,0 -69.61,13.19 -89.08,39.55 -19.46,26.36 -29.2,59.76 -29.2,100.17 0,40.9 9.85,74.9 29.56,102 19.71,27.11 49.29,40.66 88.71,40.66 52.23,0 83.53,-22.43 93.87,-67.27zm245.41 112.36l-88.7 0 0 -372.56 61.35 0 0 288.29 16.26 0 163.36 -288.29 91.67 0 0 372.56 -61.36 0 0 -288.29 -16.26 0 -166.32 288.29zm697.07 -54.7l68.75 0 0 160.41 -61.35 0 0 -105.71 -322.29 0 0 105.71 -61.36 0 0 -160.41 49.53 0c30.56,-65.05 45.83,-137 45.83,-215.85l0 -102.01 280.89 0 0 317.86zm-62.83 0l0 -263.16 -159.67 0 0 47.31c0,84.27 -13.55,156.22 -40.65,215.85l200.32 0zm535.92 -153.75l0 21.43 -283.86 0c0.99,44.85 11.58,79.71 31.79,104.59 20.21,24.89 49.29,37.34 87.23,37.34 51.25,0 82.78,-19.22 94.62,-57.66l63.57 0c-6.41,33.51 -23.29,60.62 -50.64,81.31 -27.35,20.7 -63.21,31.04 -107.55,31.04 -56.67,0 -101.03,-18.48 -133.06,-55.44 -32.04,-36.96 -48.05,-85.01 -48.05,-144.14 0,-58.15 16.01,-104.72 48.05,-139.71 32.03,-34.99 75.89,-52.49 131.58,-52.49 52.73,0 93.39,16.64 121.97,49.89 28.59,33.27 43.37,74.54 44.36,123.82zm-167.8 -119.02c-32.03,0 -57.66,8.26 -76.88,24.77 -19.22,16.5 -31.05,37.58 -35.48,63.2l215.1 0c-1.97,-25.13 -12.07,-46.08 -30.31,-62.83 -18.23,-16.75 -42.38,-25.14 -72.44,-25.14zm597.28 327.47l-62.83 0 0 -164.11 -206.24 0 0 164.11 -62.83 0 0 -372.56 62.83 0 0 153.75 206.24 0 0 -153.75 62.83 0 0 372.56zm644.59 -372.56l185.54 0 0 372.56 -63.57 0 0 -147.1 -113.09 0c-9.86,0 -17.5,-0.24 -22.92,-0.73l-56.18 147.84 -65.79 0 62.83 -161.88c-38.44,-18.23 -57.66,-50.76 -57.66,-97.58 0,-35.97 11.21,-63.82 33.63,-83.53 22.43,-19.71 54.83,-29.57 97.21,-29.57zm121.97 53.22l-115.32 0c-27.1,0 -46.32,5.18 -57.66,15.53 -11.33,10.35 -17,25.38 -17,45.09 0,19.22 5.67,33.76 17,43.62 11.34,9.85 30.56,14.78 57.66,14.78l115.32 0 0 -119.02zm-1917.48 1126.62l-76.88 0 0 -85.75 76.88 0 0 85.75zm128.62 -460.53c34.49,-44.85 80.57,-67.27 138.23,-67.27 57.66,0 103.86,22.54 138.6,67.63 34.74,45.1 52.11,112.24 52.11,201.43 0,89.2 -17.37,156.22 -52.11,201.07 -34.75,44.85 -80.95,67.27 -138.6,67.27 -57.66,0 -103.73,-22.42 -138.23,-67.27 -34.49,-44.85 -51.75,-111.86 -51.75,-201.07 0,-89.69 17.26,-156.95 51.75,-201.8zm44.35 356.67c20.7,37.21 51.99,55.81 93.88,55.81 41.89,0 73.31,-18.6 94.25,-55.81 20.94,-37.2 31.42,-88.83 31.42,-154.87 0,-66.52 -10.48,-118.39 -31.42,-155.6 -20.94,-37.21 -52.36,-55.81 -94.25,-55.81 -41.89,0 -73.18,18.6 -93.88,55.81 -20.69,37.21 -31.04,89.08 -31.04,155.6 0,66.04 10.35,117.66 31.04,154.87zm843.43 -8.5l62.84 0c-7.4,37.45 -24.77,67.14 -52.12,89.07 -27.35,21.94 -62.21,32.9 -104.59,32.9 -56.18,0 -100.41,-18.36 -132.69,-55.07 -32.28,-36.72 -48.42,-83.65 -48.42,-140.82 0,-57.66 16.01,-104.73 48.05,-141.2 32.03,-36.47 76.38,-54.7 133.06,-54.7 42.88,0 77.74,10.72 104.59,32.15 26.86,21.44 43.49,49.89 49.89,85.38l-62.83 0c-13.3,-41.89 -43.86,-62.84 -91.66,-62.84 -39.92,0 -69.61,13.19 -89.08,39.55 -19.46,26.36 -29.2,59.76 -29.2,100.17 0,40.9 9.85,74.9 29.56,102 19.71,27.11 49.29,40.66 88.71,40.66 52.23,0 83.53,-22.43 93.87,-67.27zm156.71 112.36l0 -372.56 99.79 0 91.67 170.01 16.26 0 91.66 -170.01 98.31 0 0 372.56 -61.35 0 0 -299.38 -16.26 0 -86.49 159.67 -69.49 0 -86.49 -159.67 -16.26 0 0 299.38 -61.35 0zm161.88 -1179.84l0 124.19 110.14 0c44.85,0 79.47,10.84 103.86,32.52 24.39,21.68 36.59,51.99 36.59,90.92 0,39.42 -12.2,70.1 -36.59,92.03 -24.39,21.94 -59.01,32.9 -103.86,32.9l-172.97 0 0 -372.56 62.83 0zm0 317.86l101.27 0c31.05,0 53.23,-5.92 66.53,-17.74 13.3,-11.83 19.96,-29.32 19.96,-52.49 0,-23.16 -6.66,-40.65 -19.96,-52.49 -13.3,-11.82 -35.48,-17.74 -66.53,-17.74l-101.27 0 0 140.45zm839.75 54.7l-76.88 0 0 -85.75 76.88 0 0 85.75zm0 -286.81l-76.88 0 0 -85.75 76.88 0 0 85.75zm-2833.38 915.19l70.96 0 0 57.66 -70.96 0 0 121.23 -63.57 0 0 -121.23 -255.77 0 0 -73.92 228.42 -322.29 90.92 0 0 338.55zm-251.33 0l188.49 0 0 -265.38 -16.26 0 -172.23 249.12 0 16.26zm413.95 -338.55l302.34 0 0 72.44 -129.35 110.88 0 15.53c45.82,0.99 82.91,15.27 111.25,42.88 28.34,27.59 42.51,65.79 42.51,114.57 0,52.74 -17.01,94.38 -51.01,124.92 -34,30.56 -77.86,45.83 -131.58,45.83 -51.75,0 -94.13,-14.54 -127.15,-43.61 -33.01,-29.08 -51.01,-66.04 -53.96,-110.89l65.05 0c2.96,29.08 15.16,52.49 36.59,70.23 21.43,17.74 47.92,26.61 79.47,26.61 35.97,0 64.55,-10.1 85.74,-30.31 21.19,-20.21 31.79,-47.81 31.79,-82.79 0,-34.49 -10.1,-61.48 -30.31,-80.94 -20.21,-19.47 -49.03,-29.21 -86.49,-29.21 -18.23,0 -33.27,1.48 -45.09,4.44l0 -68.75 126.4 -109.4 0 -16.26 -226.2 0 0 -56.18z"/>
  <path fill="#666666" fill-rule="nonzero" fill-opacity="0.800000" d="M7077.12 18107.39l-65.05 0c2.96,-49.78 20.33,-87.72 52.12,-113.84 31.79,-26.12 71.83,-39.18 120.12,-39.18 50.27,0 90.8,13.68 121.6,41.03 30.8,27.35 46.2,66.16 46.2,116.43 0,61.1 -38.2,123.45 -114.58,187.01l-130.1 109.41 0 16.26 260.94 0 0 57.66 -355.56 0 0 -73.18 76.14 -62.1c47.3,-37.95 86.49,-71.2 117.53,-99.79 11.82,-10.34 21.32,-19.22 28.46,-26.61 7.14,-7.39 15.27,-17.12 24.39,-29.2 9.12,-12.07 16.02,-24.76 20.7,-38.07 4.68,-13.3 7.02,-27.1 7.02,-41.39 0,-32.04 -9.36,-56.68 -28.08,-73.93 -18.73,-17.25 -44.1,-25.87 -76.14,-25.87 -30.06,0 -54.33,8.01 -72.81,24.02 -18.48,16.02 -29.45,39.79 -32.9,71.34zm657.89 93.87l0 16.27c20.21,6.89 38.69,21.31 55.44,43.24 16.75,21.93 25.14,48.66 25.14,80.2 0,43.37 -17.13,79.34 -51.37,107.92 -34.25,28.59 -79.47,42.88 -135.65,42.88 -56.18,0 -101.39,-14.29 -135.65,-42.88 -34.25,-28.58 -51.37,-64.55 -51.37,-107.92 0,-31.05 8.38,-57.66 25.14,-79.84 16.75,-22.18 35.23,-36.72 55.43,-43.61l0 -16.27c-16.26,-6.89 -31.17,-19.95 -44.72,-39.17 -13.54,-19.22 -20.32,-42.38 -20.32,-69.48 0,-40.9 16.01,-74.17 48.05,-99.8 32.03,-25.63 73.17,-38.44 123.45,-38.44 50.26,0 91.42,12.81 123.45,38.44 32.03,25.63 48.05,58.9 48.05,99.8 0,26.11 -6.9,49.03 -20.7,68.74 -13.8,19.71 -28.58,33.02 -44.36,39.92zm-29.2 -168.17c-20.45,-15.02 -46.2,-22.54 -77.24,-22.54 -31.04,0 -56.8,7.52 -77.24,22.54 -20.46,15.03 -30.69,35.86 -30.69,62.46 0,26.61 10.23,47.56 30.69,62.84 20.45,15.27 46.2,22.91 77.24,22.91 31.04,0 56.8,-7.64 77.24,-22.91 20.46,-15.28 30.68,-36.22 30.68,-62.84 0,-26.61 -10.22,-47.43 -30.68,-62.46zm-167.06 374.04c21.93,17.99 51.87,26.98 89.81,26.98 37.95,0 67.89,-8.99 89.81,-26.98 21.93,-17.98 32.9,-42.01 32.9,-72.07 0,-30.55 -10.85,-54.46 -32.53,-71.7 -21.68,-17.25 -51.74,-25.87 -90.18,-25.87 -38.44,0 -68.5,8.62 -90.18,25.87 -21.68,17.25 -32.53,41.16 -32.53,71.7 0,30.07 10.96,54.09 32.9,72.07zm550.33 -273.14c50.27,0 90.56,16.51 120.86,49.53 30.31,33.02 45.46,74.17 45.46,123.46 0,55.69 -16.39,100.41 -49.15,134.16 -32.77,33.76 -75.52,50.64 -128.25,50.64 -54.71,0 -97.7,-14.29 -129,-42.88 -31.29,-28.58 -48.42,-65.79 -51.37,-111.62l64.31 0c3.94,31.55 15.77,55.57 35.48,72.07 19.71,16.51 45.58,24.77 77.62,24.77 34.49,0 62.34,-11.21 83.53,-33.63 21.19,-22.42 31.79,-52.61 31.79,-90.56 0,-35.97 -10.23,-65.17 -30.68,-87.59 -20.46,-22.43 -47.93,-33.63 -82.43,-33.63 -46.33,0 -80.57,16.26 -102.75,48.78l-65.05 0 22.92 -272.76 295.67 0 0 56.18 -243.2 0 -11.82 149.32 16.26 0c26.61,-24.15 59.88,-36.22 99.79,-36.22zm339.3 348.17l-76.88 0 0 -85.75 76.88 0 0 85.75zm128.62 -460.53c34.49,-44.85 80.57,-67.27 138.23,-67.27 57.66,0 103.86,22.54 138.6,67.63 34.74,45.1 52.11,112.24 52.11,201.43 0,89.2 -17.37,156.22 -52.11,201.07 -34.75,44.85 -80.95,67.27 -138.6,67.27 -57.66,0 -103.73,-22.42 -138.23,-67.27 -34.49,-44.85 -51.75,-111.86 -51.75,-201.07 0,-89.69 17.26,-156.95 51.75,-201.8zm44.35 356.67c20.7,37.21 51.99,55.81 93.88,55.81 41.89,0 73.31,-18.6 94.25,-55.81 20.94,-37.2 31.42,-88.83 31.42,-154.87 0,-66.52 -10.48,-118.39 -31.42,-155.6 -20.94,-37.21 -52.36,-55.81 -94.25,-55.81 -41.89,0 -73.18,18.6 -93.88,55.81 -20.69,37.21 -31.04,89.08 -31.04,155.6 0,66.04 10.35,117.66 31.04,154.87zm843.43 -8.5l62.84 0c-7.4,37.45 -24.77,67.14 -52.12,89.07 -27.35,21.94 -62.21,32.9 -104.59,32.9 -56.18,0 -100.41,-18.36 -132.69,-55.07 -32.28,-36.72 -48.42,-83.65 -48.42,-140.82 0,-57.66 16.01,-104.73 48.05,-141.2 32.03,-36.47 76.38,-54.7 133.06,-54.7 42.88,0 77.74,10.72 104.59,32.15 26.86,21.44 43.49,49.89 49.89,85.38l-62.83 0c-13.3,-41.89 -43.86,-62.84 -91.66,-62.84 -39.92,0 -69.61,13.19 -89.08,39.55 -19.46,26.36 -29.2,59.76 -29.2,100.17 0,40.9 9.85,74.9 29.56,102 19.71,27.11 49.29,40.66 88.71,40.66 52.23,0 83.53,-22.43 93.87,-67.27zm156.71 112.36l0 -372.56 99.79 0 91.67 170.01 16.26 0 91.66 -170.01 98.31 0 0 372.56 -61.35 0 0 -299.38 -16.26 0 -86.49 159.67 -69.49 0 -86.49 -159.67 -16.26 0 0 299.38 -61.35 0z"/>
  <path fill="#666666" fill-rule="nonzero" fill-opacity="0.800000" d="M246.89 3301.13l16.27 0c6.89,-20.21 21.31,-38.69 43.24,-55.44 21.93,-16.75 48.66,-25.14 80.2,-25.14 43.37,0 79.34,17.13 107.92,51.37 28.59,34.25 42.88,79.47 42.88,135.65 0,56.18 -14.29,101.39 -42.88,135.65 -28.58,34.25 -64.55,51.37 -107.92,51.37 -31.05,0 -57.66,-8.38 -79.84,-25.14 -22.18,-16.75 -36.72,-35.23 -43.61,-55.43l-16.27 0c-6.89,16.26 -19.95,31.17 -39.17,44.72 -19.22,13.54 -42.38,20.32 -69.48,20.32 -40.9,0 -74.17,-16.01 -99.8,-48.05 -25.63,-32.03 -38.44,-73.17 -38.44,-123.45 0,-50.26 12.81,-91.42 38.44,-123.45 25.63,-32.03 58.9,-48.05 99.8,-48.05 26.11,0 49.03,6.9 68.74,20.7 19.71,13.8 33.02,28.58 39.92,44.36zm-168.17 29.2c-15.02,20.45 -22.54,46.2 -22.54,77.24 0,31.04 7.52,56.8 22.54,77.24 15.03,20.46 35.86,30.69 62.46,30.69 26.61,0 47.56,-10.23 62.84,-30.69 15.27,-20.45 22.91,-46.2 22.91,-77.24 0,-31.04 -7.64,-56.8 -22.91,-77.24 -15.28,-20.46 -36.22,-30.68 -62.84,-30.68 -26.61,0 -47.43,10.22 -62.46,30.68zm374.04 167.06c17.99,-21.93 26.98,-51.87 26.98,-89.81 0,-37.95 -8.99,-67.89 -26.98,-89.81 -17.98,-21.93 -42.01,-32.9 -72.07,-32.9 -30.55,0 -54.46,10.85 -71.7,32.53 -17.25,21.68 -25.87,51.74 -25.87,90.18 0,38.44 8.62,68.5 25.87,90.18 17.25,21.68 41.16,32.53 71.7,32.53 30.07,0 54.09,-10.96 72.07,-32.9zm-37.33 -1928.21l0 -62.84c37.45,7.4 67.14,24.77 89.07,52.12 21.94,27.35 32.9,62.21 32.9,104.59 0,56.18 -18.36,100.41 -55.07,132.69 -36.72,32.28 -83.65,48.42 -140.82,48.42 -57.66,0 -104.73,-16.01 -141.2,-48.05 -36.47,-32.03 -54.7,-76.38 -54.7,-133.06 0,-42.88 10.72,-77.74 32.15,-104.59 21.44,-26.86 49.89,-43.49 85.38,-49.89l0 62.83c-41.89,13.3 -62.84,43.86 -62.84,91.66 0,39.92 13.19,69.61 39.55,89.08 26.36,19.46 59.76,29.2 100.17,29.2 40.9,0 74.9,-9.85 102,-29.56 27.11,-19.71 40.66,-49.29 40.66,-88.71 0,-52.23 -22.43,-83.53 -67.27,-93.87zm112.36 -156.71l-372.56 0 0 -99.79 170.01 -91.67 0 -16.26 -170.01 -91.66 0 -98.31 372.56 0 0 61.35 -299.38 0 0 16.26 159.67 86.49 0 69.49 -159.67 86.49 0 16.26 299.38 0 0 61.35zm-460.53 1676.51c-44.85,-34.49 -67.27,-80.57 -67.27,-138.23 0,-57.66 22.54,-103.86 67.63,-138.6 45.1,-34.74 112.24,-52.11 201.43,-52.11 89.2,0 156.22,17.37 201.07,52.11 44.85,34.75 67.27,80.95 67.27,138.6 0,57.66 -22.42,103.73 -67.27,138.23 -44.85,34.49 -111.86,51.75 -201.07,51.75 -89.69,0 -156.95,-17.26 -201.8,-51.75zm356.67 -44.35c37.21,-20.7 55.81,-51.99 55.81,-93.88 0,-41.89 -18.6,-73.31 -55.81,-94.25 -37.2,-20.94 -88.83,-31.42 -154.87,-31.42 -66.52,0 -118.39,10.48 -155.6,31.42 -37.21,20.94 -55.81,52.36 -55.81,94.25 0,41.89 18.6,73.18 55.81,93.88 37.21,20.69 89.08,31.04 155.6,31.04 66.04,0 117.66,-10.35 154.87,-31.04zm103.86 -459.06l0 76.88 -85.75 0 0 -76.88 85.75 0zm-460.53 -128.62c-44.85,-34.49 -67.27,-80.57 -67.27,-138.23 0,-57.66 22.54,-103.86 67.63,-138.6 45.1,-34.74 112.24,-52.11 201.43,-52.11 89.2,0 156.22,17.37 201.07,52.11 44.85,34.75 67.27,80.95 67.27,138.6 0,57.66 -22.42,103.73 -67.27,138.23 -44.85,34.49 -111.86,51.75 -201.07,51.75 -89.69,0 -156.95,-17.26 -201.8,-51.75zm356.67 -44.35c37.21,-20.7 55.81,-51.99 55.81,-93.88 0,-41.89 -18.6,-73.31 -55.81,-94.25 -37.2,-20.94 -88.83,-31.42 -154.87,-31.42 -66.52,0 -118.39,10.48 -155.6,31.42 -37.21,20.94 -55.81,52.36 -55.81,94.25 0,41.89 18.6,73.18 55.81,93.88 37.21,20.69 89.08,31.04 155.6,31.04 66.04,0 117.66,-10.35 154.87,-31.04z"/>
  <path fill="#666666" fill-rule="nonzero" fill-opacity="0.800000" d="M528.24 13389.27l-57.66 0 0 -122.71 -391.78 0 0 14.78 73.18 108.66 -68.01 0 -73.17 -107.92 0 -80.58 459.78 0 0 -113.09 57.66 0 0 300.86zm-445 -694.86l445 223.98 0 68.01 -445 -224.72 -16.26 0 0 262.42 -56.18 0 0 -329.69 72.44 0zm263.9 -230.62c0,47.3 -15.89,86.73 -47.68,118.27 -31.79,31.54 -72.07,47.3 -120.86,47.3 -50.75,0 -93.14,-15.89 -127.14,-47.68 -34,-31.79 -51.01,-74.54 -51.01,-128.25 0,-58.64 20.21,-104.96 60.62,-138.97 40.41,-34 104.97,-51.01 193.67,-51.01 83.29,0 151.29,16.64 204.03,49.9 52.73,33.26 79.09,82.17 79.09,146.73 0,42.88 -11.46,77.99 -34.37,105.34 -22.92,27.35 -52.61,43.99 -89.08,49.89l0 -64.31c43.86,-12.81 65.79,-43.12 65.79,-90.92 0,-40.9 -16.26,-72.93 -48.79,-96.1 -32.52,-23.16 -77.37,-35.72 -134.53,-37.69l0 16.26c13.31,10.84 25.01,26.73 35.11,47.68 10.1,20.94 15.16,45.46 15.16,73.55zm-257.25 -92.4c-21.19,21.68 -31.79,48.78 -31.79,81.31 0,32.52 10.35,59.25 31.05,80.2 20.7,20.94 49.53,31.41 86.49,31.41 36.96,0 65.3,-10.59 85.01,-31.78 19.71,-21.19 29.56,-48.3 29.56,-81.31 0,-32.53 -10.1,-59.39 -30.31,-80.58 -20.21,-21.18 -48.05,-31.78 -83.53,-31.78 -36.47,0 -65.3,10.84 -86.49,32.52zm438.35 -282.38l0 76.88 -85.75 0 0 -76.88 85.75 0zm-460.53 -128.62c-44.85,-34.49 -67.27,-80.57 -67.27,-138.23 0,-57.66 22.54,-103.86 67.63,-138.6 45.1,-34.74 112.24,-52.11 201.43,-52.11 89.2,0 156.22,17.37 201.07,52.11 44.85,34.75 67.27,80.95 67.27,138.6 0,57.66 -22.42,103.73 -67.27,138.23 -44.85,34.49 -111.86,51.75 -201.07,51.75 -89.69,0 -156.95,-17.26 -201.8,-51.75zm356.67 -44.35c37.21,-20.7 55.81,-51.99 55.81,-93.88 0,-41.89 -18.6,-73.31 -55.81,-94.25 -37.2,-20.94 -88.83,-31.42 -154.87,-31.42 -66.52,0 -118.39,10.48 -155.6,31.42 -37.21,20.94 -55.81,52.36 -55.81,94.25 0,41.89 18.6,73.18 55.81,93.88 37.21,20.69 89.08,31.04 155.6,31.04 66.04,0 117.66,-10.35 154.87,-31.04zm-8.5 -843.43l0 -62.84c37.45,7.4 67.14,24.77 89.07,52.12 21.94,27.35 32.9,62.21 32.9,104.59 0,56.18 -18.36,100.41 -55.07,132.69 -36.72,32.28 -83.65,48.42 -140.82,48.42 -57.66,0 -104.73,-16.01 -141.2,-48.05 -36.47,-32.03 -54.7,-76.38 -54.7,-133.06 0,-42.88 10.72,-77.74 32.15,-104.59 21.44,-26.86 49.89,-43.49 85.38,-49.89l0 62.83c-41.89,13.3 -62.84,43.86 -62.84,91.66 0,39.92 13.19,69.61 39.55,89.08 26.36,19.46 59.76,29.2 100.17,29.2 40.9,0 74.9,-9.85 102,-29.56 27.11,-19.71 40.66,-49.29 40.66,-88.71 0,-52.23 -22.43,-83.53 -67.27,-93.87zm112.36 -156.71l-372.56 0 0 -99.79 170.01 -91.67 0 -16.26 -170.01 -91.66 0 -98.31 372.56 0 0 61.35 -299.38 0 0 16.26 159.67 86.49 0 69.49 -159.67 86.49 0 16.26 299.38 0 0 61.35z"/>
  <path fill="#666666" fill-rule="nonzero" fill-opacity="0.800000" d="M3946.61 14268.61l-65.05 0c2.96,-49.78 20.33,-87.72 52.12,-113.84 31.79,-26.12 71.83,-39.18 120.12,-39.18 50.27,0 90.8,13.68 121.6,41.03 30.8,27.35 46.2,66.16 46.2,116.43 0,61.1 -38.2,123.45 -114.58,187.01l-130.1 109.41 0 16.26 260.94 0 0 57.66 -355.56 0 0 -73.18 76.14 -62.1c47.3,-37.95 86.49,-71.2 117.53,-99.79 11.82,-10.34 21.32,-19.22 28.46,-26.61 7.14,-7.39 15.27,-17.12 24.39,-29.2 9.12,-12.07 16.02,-24.76 20.7,-38.07 4.68,-13.3 7.02,-27.1 7.02,-41.39 0,-32.04 -9.36,-56.68 -28.08,-73.93 -18.73,-17.25 -44.1,-25.87 -76.14,-25.87 -30.06,0 -54.33,8.01 -72.81,24.02 -18.48,16.02 -29.45,39.79 -32.9,71.34zm674.16 195.89l70.96 0 0 57.66 -70.96 0 0 121.23 -63.57 0 0 -121.23 -255.77 0 0 -73.92 228.42 -322.29 90.92 0 0 338.55zm-251.33 0l188.49 0 0 -265.38 -16.26 0 -172.23 249.12 0 16.26zm447.96 -281.64c34.49,-44.85 80.57,-67.27 138.23,-67.27 57.66,0 103.86,22.54 138.6,67.63 34.74,45.1 52.11,112.24 52.11,201.43 0,89.2 -17.37,156.22 -52.11,201.07 -34.75,44.85 -80.95,67.27 -138.6,67.27 -57.66,0 -103.73,-22.42 -138.23,-67.27 -34.49,-44.85 -51.75,-111.86 -51.75,-201.07 0,-89.69 17.26,-156.95 51.75,-201.8zm44.35 356.67c20.7,37.21 51.99,55.81 93.88,55.81 41.89,0 73.31,-18.6 94.25,-55.81 20.94,-37.2 31.42,-88.83 31.42,-154.87 0,-66.52 -10.48,-118.39 -31.42,-155.6 -20.94,-37.21 -52.36,-55.81 -94.25,-55.81 -41.89,0 -73.18,18.6 -93.88,55.81 -20.69,37.21 -31.04,89.08 -31.04,155.6 0,66.04 10.35,117.66 31.04,154.87zm432.44 103.86l-76.88 0 0 -85.75 76.88 0 0 85.75zm2208.73 -517.44l302.34 0 0 72.44 -129.35 110.88 0 15.53c45.82,0.99 82.91,15.27 111.25,42.88 28.34,27.59 42.51,65.79 42.51,114.57 0,52.74 -17.01,94.38 -51.01,124.92 -34,30.56 -77.86,45.83 -131.58,45.83 -51.75,0 -94.13,-14.54 -127.15,-43.61 -33.01,-29.08 -51.01,-66.04 -53.96,-110.89l65.05 0c2.96,29.08 15.16,52.49 36.59,70.23 21.43,17.74 47.92,26.61 79.47,26.61 35.97,0 64.55,-10.1 85.74,-30.31 21.19,-20.21 31.79,-47.81 31.79,-82.79 0,-34.49 -10.1,-61.48 -30.31,-80.94 -20.21,-19.47 -49.03,-29.21 -86.49,-29.21 -18.23,0 -33.27,1.48 -45.09,4.44l0 -68.75 126.4 -109.4 0 -16.26 -226.2 0 0 -56.18zm1512.41 405.08l62.84 0c-7.4,37.45 -24.77,67.14 -52.12,89.07 -27.35,21.94 -62.21,32.9 -104.59,32.9 -56.18,0 -100.41,-18.36 -132.69,-55.07 -32.28,-36.72 -48.42,-83.65 -48.42,-140.82 0,-57.66 16.01,-104.73 48.05,-141.2 32.03,-36.47 76.38,-54.7 133.06,-54.7 42.88,0 77.74,10.72 104.59,32.15 26.86,21.44 43.49,49.89 49.89,85.38l-62.83 0c-13.3,-41.89 -43.86,-62.84 -91.66,-62.84 -39.92,0 -69.61,13.19 -89.08,39.55 -19.46,26.36 -29.2,59.76 -29.2,100.17 0,40.9 9.85,74.9 29.56,102 19.71,27.11 49.29,40.66 88.71,40.66 52.23,0 83.53,-22.43 93.87,-67.27zm156.71 112.36l0 -372.56 99.79 0 91.67 170.01 16.26 0 91.66 -170.01 98.31 0 0 372.56 -61.35 0 0 -299.38 -16.26 0 -86.49 159.67 -69.49 0 -86.49 -159.67 -16.26 0 0 299.38 -61.35 0zm-3728.54 -460.53c34.49,-44.85 80.57,-67.27 138.23,-67.27 57.66,0 103.86,22.54 138.6,67.63 34.74,45.1 52.11,112.24 52.11,201.43 0,89.2 -17.37,156.22 -52.11,201.07 -34.75,44.85 -80.95,67.27 -138.6,67.27 -57.66,0 -103.73,-22.42 -138.23,-67.27 -34.49,-44.85 -51.75,-111.86 -51.75,-201.07 0,-89.69 17.26,-156.95 51.75,-201.8zm44.35 356.67c20.7,37.21 51.99,55.81 93.88,55.81 41.89,0 73.31,-18.6 94.25,-55.81 20.94,-37.2 31.42,-88.83 31.42,-154.87 0,-66.52 -10.48,-118.39 -31.42,-155.6 -20.94,-37.21 -52.36,-55.81 -94.25,-55.81 -41.89,0 -73.18,18.6 -93.88,55.81 -20.69,37.21 -31.04,89.08 -31.04,155.6 0,66.04 10.35,117.66 31.04,154.87zm840.48 103.86l-92.4 -155.97 -26.61 0 -94.62 155.97 -68.75 0 116.06 -190.71 -104.24 -181.85 66.53 0 85.75 147.85 26.61 0 87.23 -147.85 65.79 0 -105.71 179.62 115.32 192.94 -70.96 0zm347.42 0l0 -57.66 122.71 0 0 -391.78 -14.78 0 -108.66 73.18 0 -68.01 107.92 -73.17 80.58 0 0 459.78 113.09 0 0 57.66 -300.86 0zm563.27 -348.17c50.27,0 90.56,16.51 120.86,49.53 30.31,33.02 45.46,74.17 45.46,123.46 0,55.69 -16.39,100.41 -49.15,134.16 -32.77,33.76 -75.52,50.64 -128.25,50.64 -54.71,0 -97.7,-14.29 -129,-42.88 -31.29,-28.58 -48.42,-65.79 -51.37,-111.62l64.31 0c3.94,31.55 15.77,55.57 35.48,72.07 19.71,16.51 45.58,24.77 77.62,24.77 34.49,0 62.34,-11.21 83.53,-33.63 21.19,-22.42 31.79,-52.61 31.79,-90.56 0,-35.97 -10.23,-65.17 -30.68,-87.59 -20.46,-22.43 -47.93,-33.63 -82.43,-33.63 -46.33,0 -80.57,16.26 -102.75,48.78l-65.05 0 22.92 -272.76 295.67 0 0 56.18 -243.2 0 -11.82 149.32 16.26 0c26.61,-24.15 59.88,-36.22 99.79,-36.22zm759.91 348.17l-76.88 0 0 -85.75 76.88 0 0 85.75zm128.62 -460.53c34.49,-44.85 80.57,-67.27 138.23,-67.27 57.66,0 103.86,22.54 138.6,67.63 34.74,45.1 52.11,112.24 52.11,201.43 0,89.2 -17.37,156.22 -52.11,201.07 -34.75,44.85 -80.95,67.27 -138.6,67.27 -57.66,0 -103.73,-22.42 -138.23,-67.27 -34.49,-44.85 -51.75,-111.86 -51.75,-201.07 0,-89.69 17.26,-156.95 51.75,-201.8zm44.35 356.67c20.7,37.21 51.99,55.81 93.88,55.81 41.89,0 73.31,-18.6 94.25,-55.81 20.94,-37.2 31.42,-88.83 31.42,-154.87 0,-66.52 -10.48,-118.39 -31.42,-155.6 -20.94,-37.21 -52.36,-55.81 -94.25,-55.81 -41.89,0 -73.18,18.6 -93.88,55.81 -20.69,37.21 -31.04,89.08 -31.04,155.6 0,66.04 10.35,117.66 31.04,154.87z"/>
  <path fill="#666666" fill-rule="nonzero" fill-opacity="0.800000" d="M18466.6 6267.73c-47.3,0 -86.73,-15.89 -118.27,-47.68 -31.54,-31.79 -47.3,-72.07 -47.3,-120.86 0,-50.75 15.89,-93.14 47.68,-127.14 31.79,-34 74.54,-51.01 128.25,-51.01 58.64,0 104.96,20.21 138.97,60.62 34,40.41 51.01,104.97 51.01,193.67 0,83.29 -16.64,151.29 -49.9,204.03 -33.26,52.73 -82.17,79.09 -146.73,79.09 -42.88,0 -77.99,-11.46 -105.34,-34.37 -27.35,-22.92 -43.99,-52.61 -49.89,-89.08l64.31 0c12.81,43.86 43.12,65.79 90.92,65.79 40.9,0 72.93,-16.26 96.1,-48.79 23.16,-32.52 35.72,-77.37 37.69,-134.53l-16.26 0c-10.84,13.31 -26.73,25.01 -47.68,35.11 -20.94,10.1 -45.46,15.16 -73.55,15.16zm92.4 -257.25c-21.68,-21.19 -48.78,-31.79 -81.31,-31.79 -32.52,0 -59.25,10.35 -80.2,31.05 -20.94,20.7 -31.41,49.53 -31.41,86.49 0,36.96 10.59,65.3 31.78,85.01 21.19,19.71 48.3,29.56 81.31,29.56 32.53,0 59.39,-10.1 80.58,-30.31 21.18,-20.21 31.78,-48.05 31.78,-83.53 0,-36.47 -10.84,-65.3 -32.52,-86.49zm389.57 101.27c47.3,0 86.73,15.89 118.27,47.68 31.54,31.79 47.3,72.07 47.3,120.86 0,50.75 -15.89,93.14 -47.68,127.14 -31.79,34 -74.54,51.01 -128.25,51.01 -58.64,0 -104.96,-20.21 -138.97,-60.62 -34,-40.41 -51.01,-104.96 -51.01,-193.67 0,-83.29 16.64,-151.29 49.9,-204.02 33.26,-52.74 82.17,-79.1 146.73,-79.1 42.88,0 77.99,11.46 105.34,34.38 27.35,22.91 43.99,52.6 49.89,89.07l-64.31 0c-12.81,-43.85 -43.12,-65.79 -90.92,-65.79 -40.9,0 -72.93,16.26 -96.1,48.79 -23.16,32.52 -35.72,77.37 -37.69,134.53l16.26 0c10.84,-13.31 26.73,-25.01 47.68,-35.11 20.94,-10.1 45.46,-15.16 73.55,-15.16zm-92.4 257.25c21.68,21.19 48.78,31.79 81.31,31.79 32.52,0 59.25,-10.34 80.2,-31.04 20.94,-20.7 31.41,-49.53 31.41,-86.49 0,-36.97 -10.6,-65.3 -31.78,-85.02 -21.19,-19.71 -48.3,-29.56 -81.31,-29.56 -32.53,0 -59.39,10.1 -80.58,30.31 -21.19,20.21 -31.78,48.05 -31.78,83.53 0,36.47 10.84,65.3 32.52,86.49zm423.57 79.84l-76.88 0 0 -85.75 76.88 0 0 85.75zm128.62 -460.53c34.49,-44.85 80.57,-67.27 138.23,-67.27 57.66,0 103.86,22.54 138.6,67.63 34.74,45.1 52.11,112.24 52.11,201.43 0,89.2 -17.37,156.22 -52.11,201.07 -34.75,44.85 -80.95,67.27 -138.6,67.27 -57.66,0 -103.73,-22.42 -138.23,-67.27 -34.49,-44.85 -51.75,-111.86 -51.75,-201.07 0,-89.69 17.26,-156.95 51.75,-201.8zm44.35 356.67c20.7,37.21 51.99,55.81 93.88,55.81 41.89,0 73.31,-18.6 94.25,-55.81 20.94,-37.2 31.42,-88.83 31.42,-154.87 0,-66.52 -10.48,-118.39 -31.42,-155.6 -20.94,-37.21 -52.36,-55.81 -94.25,-55.81 -41.89,0 -73.18,18.6 -93.88,55.81 -20.69,37.21 -31.04,89.08 -31.04,155.6 0,66.04 10.35,117.66 31.04,154.87zm843.43 -8.5l62.84 0c-7.4,37.45 -24.77,67.14 -52.12,89.07 -27.35,21.94 -62.21,32.9 -104.59,32.9 -56.18,0 -100.41,-18.36 -132.69,-55.07 -32.28,-36.72 -48.42,-83.65 -48.42,-140.82 0,-57.66 16.01,-104.73 48.05,-141.2 32.03,-36.47 76.38,-54.7 133.06,-54.7 42.88,0 77.74,10.72 104.59,32.15 26.86,21.44 43.49,49.89 49.89,85.38l-62.83 0c-13.3,-41.89 -43.86,-62.84 -91.66,-62.84 -39.92,0 -69.61,13.19 -89.08,39.55 -19.46,26.36 -29.2,59.76 -29.2,100.17 0,40.9 9.85,74.9 29.56,102 19.71,27.11 49.29,40.66 88.71,40.66 52.23,0 83.53,-22.43 93.87,-67.27zm156.71 112.36l0 -372.56 99.79 0 91.67 170.01 16.26 0 91.66 -170.01 98.31 0 0 372.56 -61.35 0 0 -299.38 -16.26 0 -86.49 159.67 -69.49 0 -86.49 -159.67 -16.26 0 0 299.38 -61.35 0z"/>
 </g>
 <g id="Выносные_x0020_линии">
  <metadata id="CorelCorpID_3Corel-Layer"/>
  <g id="_2238819464784">
   <line fill="none" stroke="gray" stroke-width="10.23" stroke-miterlimit="22.9256" x1="546.94" y1="4414.63" x2="1632.21" y2= "4414.63" />
   <line fill="none" stroke="gray" stroke-width="10.23" stroke-miterlimit="22.9256" x1="544.29" y1="352.53" x2="1632.21" y2= "352.53" />
   <line fill="none" stroke="gray" stroke-width="10.23" stroke-miterlimit="22.9256" x1="954.78" y1="4819.29" x2="954.78" y2= "0" />
  </g>
  <g id="_2238819469536">
   <line fill="none" stroke="gray" stroke-width="10.23" stroke-miterlimit="22.9256" x1="17368.92" y1="5916.5" x2="17368.92" y2= "4828.58" />
   <line fill="none" stroke="gray" stroke-width="10.23" stroke-miterlimit="22.9256" x1="22195.08" y1="5506.01" x2="16956.53" y2= "5506.01" />
   <line fill="none" stroke="gray" stroke-width="10.23" stroke-miterlimit="22.9256" x1="21773.16" y1="5913.86" x2="21773.16" y2= "4828.58" />
  </g>
  <g id="_2238819470448">
   <line fill="none" stroke="gray" stroke-width="10.23" stroke-miterlimit="22.9256" x1="544.72" y1="7561.95" x2="1632.66" y2= "7561.95" />
   <line fill="none" stroke="gray" stroke-width="10.23" stroke-miterlimit="22.9256" x1="549.59" y1="16273.72" x2="1634.87" y2= "16273.72" />
   <line fill="none" stroke="gray" stroke-width="10.23" stroke-miterlimit="22.9256" x1="957.44" y1="16689.2" x2="955.2" y2= "7218.99" />
  </g>
  <g id="_2238819472704">
   <line fill="none" stroke="gray" stroke-width="10.23" stroke-miterlimit="22.9256" x1="1855.17" y1="17941.35" x2="1855.17" y2= "16853.42" />
   <line fill="none" stroke="gray" stroke-width="10.23" stroke-miterlimit="22.9256" x1="15563.97" y1="17530.85" x2="1447.32" y2= "17530.85" />
   <line fill="none" stroke="gray" stroke-width="10.23" stroke-miterlimit="22.9256" x1="15247.07" y1="17938.7" x2="15247.07" y2= "16853.42" />
  </g>
 </g>
</svg>
