<?xml version="1.0" encoding="UTF-8"?>
<!DOCTYPE svg PUBLIC "-//W3C//DTD SVG 1.1//EN" "http://www.w3.org/Graphics/SVG/1.1/DTD/svg11.dtd">
<!-- Creator: CorelDRAW 2021.5 -->
<svg xmlns="http://www.w3.org/2000/svg" xml:space="preserve" width="210.726mm" height="179.307mm" version="1.1" shape-rendering="geometricPrecision" text-rendering="geometricPrecision" image-rendering="optimizeQuality" fill-rule="evenodd" clip-rule="evenodd"
viewBox="0 0 31841.93 27094.35"
 xmlns:xlink="http://www.w3.org/1999/xlink"
 xmlns:xodm="http://www.corel.com/coreldraw/odm/2003">
 <g id="Тени">
  <metadata id="CorelCorpID_0Corel-Layer"/>
  <rect fill="#E6E6E6" x="31109.51" y="9228.97" width="732.43" height="87.41"/>
  <g id="_2238831548432">
   <path fill="black" fill-opacity="0.101961" d="M4464.87 13733.61c67.73,-1174.44 442.45,-1515.54 841.66,-1536.79 42.51,-2.27 88.59,-4.23 137.49,-5.91 -335.15,-69.25 -618.52,-157.18 -795.33,-244.46 -199.4,-98.37 -260.93,-372.01 -243.75,-476.72l29.74 -591.73c6.21,-123.47 188.53,-257.02 101.89,-243.66l-158.89 24.54 -23.32 157.3 0 4924.68c52.06,-1333.13 44.35,-859.72 110.5,-2007.26zm3502.58 -1499.01c237.3,14.26 403.45,30.18 447.17,45.92 421.72,151.98 716.92,395.14 783.81,1519.05 30.34,510.12 110.93,1941.3 110.93,1941.3 0,-2637.82 10.86,-4244.04 14.42,-4265.65l-14.42 -583.92c-2.15,-87.87 -2.52,-171.29 -34.29,-236.21l-217.64 -0.94c79.53,11.24 139.08,107.83 142.96,223.85l19.83 591.73c0.68,20.08 1.42,66.67 -1.84,85.07l-3.25 39.45c-7.86,111.82 1.22,206.24 -199.52,338.08 -197.31,129.6 -586.68,233.71 -1048.16,302.26z"/>
   <path fill="black" fill-opacity="0.101961" d="M5094.52 573.75c781.87,93.85 1023.24,277.2 1648.86,287.22 666.83,10.67 856.8,-143.6 1894.08,-307.91 -583.27,12.98 -1153.95,46.03 -1737.23,59.04l-1805.71 -38.35z"/>
   <polygon fill="black" fill-opacity="0.101961" points="4364.05,3847.93 4396.55,3669.3 4555.88,3649.21 4561.42,4918.76 9143.34,4918.76 9151.59,3649.21 9276.33,3640.31 9337.87,3763.41 9339.62,4918.76 9348.93,4918.76 9348.93,5215.06 9340.06,5215.06 9341.71,6307.45 9134.33,6307.45 9141.43,5215.06 4562.74,5215.06 4567.59,6324.89 4360.21,6324.89 "/>
   <path fill="black" fill-opacity="0.101961" d="M5007.16 3567.72c1031.27,-184.45 1060.58,-298.63 1819.24,-300.04 666.81,-1.24 730.26,139.65 1720.32,258.65 -583.27,-10.73 -1157.63,-12.38 -1740.9,-23.15l-1798.66 64.54z"/>
   <polygon fill="black" fill-opacity="0.101961" points="14173.55,2228.47 15670.15,2228.47 15670.15,2489.37 14173.55,2489.37 "/>
   <g>
    <path fill="none" stroke="black" stroke-width="15.99" stroke-miterlimit="22.9256" d="M10705.12 2436.67l-1124.97 0c-24.75,0 -57.22,8.52 -79.71,14.31 -141.39,31.2 -168.17,215.67 -151.14,555.03 14.66,292.21 -4.11,2481.67 -4.11,2649.3 0,415.81 24.69,596.88 148.9,631.23 29.89,11.8 36.02,16.97 86.05,16.97l1124.97 0c48.35,0 53.19,-7.33 83.17,-14.61 124.18,-34.18 148.9,-214.28 148.9,-627.98 0,-166.78 -18.77,-2344.9 -4.11,-2635.6 17.03,-337.58 -19.76,-547.86 -161.17,-578.9 -23.94,-7.77 -39.26,-9.75 -66.79,-9.75z"/>
    <path fill="none" stroke="black" stroke-width="15.99" stroke-miterlimit="22.9256" d="M4452.66 3649.21c1641.91,0 3137.54,0 4779.51,0 63.48,0 107.25,63.36 107.25,140.62l0 984.29c0,77.35 -22.38,140.62 -49.74,140.62l-4877.01 0c-27.37,0 -49.74,-63.27 -49.74,-140.62l0 -984.29c0,-77.32 36.3,-140.62 89.73,-140.62z"/>
    <rect fill="none" stroke="black" stroke-width="15.99" stroke-miterlimit="22.9256" x="4363.17" y="4918.76" width="4982.12" height="1406.12" rx="29" ry="70.31"/>
    <rect fill="none" stroke="black" stroke-width="15.99" stroke-miterlimit="22.9256" x="4617.14" y="6322.75" width="1406.12" height="210.92"/>
    <rect fill="none" stroke="black" stroke-width="15.99" stroke-miterlimit="22.9256" x="7688.1" y="6331.04" width="1406.12" height="210.92"/>
    <path fill="none" stroke="black" stroke-width="15.99" stroke-miterlimit="22.9256" d="M4349.36 2815.85l-4.88 -1713.37c-0.86,-98.76 5.7,-154.04 21.2,-183.96 5.29,-10.15 20.51,-22.98 35.71,-26.35m4900.25 8.66c47.3,25.01 49.34,111.33 44.71,232.2l0.94 1883.5"/>
    <path fill="none" stroke="black" stroke-width="15.99" stroke-miterlimit="22.9256" d="M4649.37 549.3c729.57,0 1377.86,41.69 2107.41,41.69 739.42,0 1590.39,-40.57 2329.81,-40.57 134.67,0 205.59,60.59 205.59,246.2 0,320.45 -35.39,924.45 -35.39,1244.88 0,449.42 41.01,789.71 41.01,1239.13 0,185.6 -39.18,257.35 -173.83,257.35 -778.84,0 -1615.73,-34.88 -2394.52,-34.88 -738.23,0 -1498.38,74.4 -2218.4,74.4 -134.67,0 -106.51,-195.64 -106.51,-381.24 0,-388.31 33.06,-726.68 33.06,-1114.99 0,-381.54 -33.06,-954.75 -33.06,-1336.27 0,-185.65 110.19,-195.7 244.84,-195.7z"/>
    <path fill="none" stroke="black" stroke-width="15.99" stroke-miterlimit="22.9256" d="M4123.07 2508.72l-1124.97 0c-24.75,0 -57.22,8.54 -79.71,14.32 -141.39,31.2 -168.18,215.66 -151.14,555.03 14.66,292.19 -4.11,2481.65 -4.11,2649.3 0,415.8 24.69,596.87 148.9,631.21 29.89,11.8 36.02,16.97 86.05,16.97l1124.97 0c48.35,0 53.19,-7.31 83.17,-14.61 124.18,-34.18 148.9,-214.28 148.9,-627.98 0,-166.76 -18.77,-2344.89 -4.11,-2635.6 17.03,-337.58 -19.76,-547.86 -161.17,-578.9 -23.94,-7.75 -39.26,-9.75 -66.79,-9.75z"/>
   </g>
   <g>
    <path fill="none" stroke="black" stroke-width="15.99" stroke-miterlimit="22.9256" d="M20831.9 3546.34l3.64 0c129.53,0 235.5,105.96 235.5,235.48l0 955.4c0,129.53 -105.97,235.5 -235.5,235.5"/>
    <rect fill="none" stroke="black" stroke-width="15.99" stroke-miterlimit="22.9256" x="20310.12" y="6351.86" width="241.82" height="210.92"/>
    <rect fill="none" stroke="black" stroke-width="15.99" stroke-miterlimit="22.9256" x="14422.02" y="6364.11" width="241.82" height="210.92"/>
    <path fill="none" stroke="black" stroke-width="15.99" stroke-miterlimit="22.9256" d="M15936.33 2489.39l-62.12 -1611.37c-5.41,-141.18 -33.88,-283.04 167.62,-291.38l594.69 -24.74c53.46,-2.21 198.95,-6.69 207.45,214.28l66 1713.19"/>
    <path fill="none" stroke="black" stroke-width="15.99" stroke-miterlimit="22.9256" d="M15973.7 596.53c-182.7,14.6 -340.17,240.73 -315.45,433.49"/>
    <path fill="none" stroke="black" stroke-width="15.99" stroke-miterlimit="22.9256" d="M16679.77 562.28c261.22,-8.81 387.36,441.18 396.61,528.96 46.54,442.06 71.49,1308.27 75.07,1398.13"/>
    <rect fill="none" stroke="black" stroke-width="15.99" stroke-miterlimit="22.9256" transform="matrix(1.81533E-14 -1.90878 0.920994 6.79271E-14 14166.9 6356.2)" width="2025.81" height="7236.79" rx="29.47" ry="29.47"/>
    <path fill="none" fill-rule="nonzero" stroke="black" stroke-width="15.99" stroke-miterlimit="22.9256" d="M14166.86 2555.3c-6.03,-18.78 -1.71,-102.6 -4.14,-136.18 0,-77.99 18.69,-1096.59 4.11,-1232.45 -14.32,-133.43 37.34,-252.83 165.78,-289.08 17.06,-7.37 40.39,-8.16 60.09,-8.16l22.02 0 1102.95 0c77.35,0 140.41,63.27 140.59,140.59l3.52 1459.35"/>
   </g>
   <g>
    <path fill="none" stroke="black" stroke-width="15.99" stroke-miterlimit="22.9256" d="M9455.67 15930.08c-117.56,-60.14 -141.07,-367.26 -141.07,-1072.76 0,-284.41 17.92,-3998.92 3.9,-4494.65 -16.14,-575.74 9.32,-888.73 143.66,-942.14 133.14,-72.89 1200.26,-66.11 1318.14,-3.64 135.48,49.05 170.49,405.81 154.31,978.5 -13.96,493.21 3.87,4188.54 3.87,4471.5 0,701.78 -23.48,1007.39 -142.05,1063.74 -121.01,64.37 -1232.6,49.31 -1340.74,-0.54z"/>
    <path fill="none" stroke="black" stroke-width="15.99" stroke-miterlimit="22.9256" d="M9365.46 9549.37c-16.59,-184.82 -414.75,-179.21 -754.95,-173.83 -379.11,14.78 -3219.53,-4.17 -3437.02,-4.17 -397.65,0.65 -810.08,-22.44 -833.77,195.52"/>
    <path fill="none" stroke="black" stroke-width="15.99" stroke-miterlimit="22.9256" d="M4238.15 15936.68c117.58,-60.32 141.07,-368.35 141.07,-1075.93 0,-285.24 -17.91,-4010.7 -3.9,-4507.9 16.14,-577.45 -9.31,-891.36 -143.66,-944.94 -133.14,-73.09 -1200.26,-66.31 -1318.12,-3.64 -135.48,49.18 -170.51,407 -154.31,981.39 13.96,494.66 -3.87,4200.9 -3.87,4484.69 0,703.85 23.47,1010.37 142.04,1066.87 121.02,64.57 1232.61,49.47 1340.74,-0.53z"/>
    <rect fill="none" stroke="black" stroke-width="15.99" stroke-miterlimit="22.9256" x="4374.23" y="10634.35" width="4935.12" height="5474.58" rx="40.67" ry="114.06"/>
    <path fill="none" stroke="black" stroke-width="15.99" stroke-miterlimit="22.9256" d="M9219.22 11529.96c-7.84,111.79 -1.38,272.79 -202.13,404.66 -356.4,234.09 -1338.99,385.11 -2242.07,393.18 -835.45,7.48 -1736.81,-187.55 -2124.86,-379.06 -199.4,-98.38 -260.93,-372.02 -243.73,-476.74"/>
    <path fill="none" stroke="black" stroke-width="15.99" stroke-miterlimit="22.9256" d="M4601.21 10640.87l4448.61 0c87.2,0 154.41,101.5 158.56,224.98l19.81 591.74c4.16,123.51 -71.44,219.31 -158.56,224.97 -803.28,63.99 -1463.37,64.55 -2339.08,80.93 -854.23,15.99 -1374.46,-17.44 -2159.07,-80.93 -87.11,-5.65 -164.77,-101.53 -158.56,-224.97l29.72 -591.74c6.21,-123.44 71.35,-224.98 158.57,-224.98z"/>
    <polyline fill="none" stroke="black" stroke-width="15.99" stroke-miterlimit="22.9256" stroke-dasharray="79.934851 79.934851" points="4372.92,15960.35 4369.96,24262.71 9306.06,24262.71 9309.36,15915.44 "/>
   </g>
   <path fill="#666666" fill-rule="nonzero" fill-opacity="0.800000" d="M14802.3 9815.58l0 24.18c32.94,15.37 59.49,39.54 79.63,72.49 20.14,32.96 30.21,69.21 30.21,108.75 0,65.91 -22.7,119.19 -68.1,159.82 -45.41,40.65 -111.3,60.97 -197.72,60.97l-350.41 0 0 -784.3 341.62 0c79.83,0 141.53,18.86 185.09,56.57 43.58,37.7 65.37,85.12 65.37,142.25 0,75.42 -28.56,128.52 -85.68,159.27zm-407.53 -270.22l0 244.96 240.56 0c101.78,0 152.69,-41.74 152.69,-125.22 0,-41.01 -14.66,-71.22 -43.94,-90.62 -29.3,-19.4 -66.27,-29.12 -110.94,-29.12l-238.37 0zm0 608.55l244.96 0c50.53,0 91.9,-10.79 124.12,-32.4 32.23,-21.61 48.34,-57.68 48.34,-108.21 0,-47.6 -15.93,-82.2 -47.78,-103.79 -31.85,-21.61 -73.06,-32.41 -123.59,-32.41l-246.05 0 0 276.81zm661.27 -465.74l93.37 0 0 184.53 152.69 0c66.64,0 118.07,16.12 154.32,48.34 36.25,32.22 54.38,77.26 54.38,135.12 0,58.58 -18.13,104.16 -54.38,136.75 -36.25,32.59 -87.69,48.88 -154.32,48.88l-246.06 0 0 -553.62zm93.37 263.63l0 208.71 139.5 0c46.15,0 79.09,-8.79 98.87,-26.37 19.76,-17.57 29.66,-43.58 29.66,-77.99 0,-34.42 -9.9,-60.43 -29.66,-78 -19.78,-17.57 -52.72,-26.35 -98.87,-26.35l-139.5 0zm450.37 -263.63l93.37 0 0 553.62 -93.37 0 0 -553.62zm648.09 386.65l93.37 0c-10.99,55.67 -36.79,99.78 -77.44,132.37 -40.65,32.59 -92.45,48.88 -155.43,48.88 -83.49,0 -149.22,-27.27 -197.18,-81.84 -47.96,-54.55 -71.96,-124.3 -71.96,-209.25 0,-85.68 23.81,-155.62 71.41,-209.81 47.6,-54.19 113.5,-81.28 197.72,-81.28 63.71,0 115.52,15.93 155.43,47.78 39.91,31.85 64.63,74.15 74.15,126.87l-93.37 0c-19.78,-62.24 -65.17,-93.37 -136.21,-93.37 -59.32,0 -103.45,19.6 -132.37,58.76 -28.92,39.18 -43.38,88.79 -43.38,148.84 0,60.79 14.64,111.32 43.93,151.59 29.3,40.28 73.24,60.43 131.82,60.43 77.62,0 124.12,-33.32 139.5,-99.97zm271.87 -318.55c48.69,-54.93 115.16,-82.38 199.37,-82.38 84.21,0 150.67,27.46 199.37,82.38 48.7,54.93 73.04,124.5 73.04,208.71 0,84.21 -24.34,153.78 -73.04,208.71 -48.7,54.93 -115.16,82.38 -199.37,82.38 -84.21,0 -150.68,-27.46 -199.37,-82.38 -48.7,-54.93 -73.06,-124.5 -73.06,-208.71 0,-84.21 24.36,-153.78 73.06,-208.71zm66.46 357.55c30.75,40.65 75.05,60.97 132.91,60.97 57.84,0 102.15,-20.32 132.91,-60.97 30.75,-40.65 46.13,-90.26 46.13,-148.84 0,-58.58 -15.38,-108.21 -46.13,-148.84 -30.77,-40.65 -75.07,-60.97 -132.91,-60.97 -57.86,0 -102.16,20.32 -132.91,60.97 -30.77,40.63 -46.13,90.26 -46.13,148.84 0,58.58 15.37,108.19 46.13,148.84zm483.33 -344.37l0 -81.28 476.72 0 0 81.28 -191.12 0 0 472.34 -93.38 0 0 -472.34 -192.22 0zm952.36 472.34l0 -58.22 -24.16 0c-38.08,48.34 -95.57,72.5 -172.46,72.5 -60.79,0 -109.11,-17.57 -145,-52.72 -35.89,-35.16 -53.82,-77.62 -53.82,-127.43 0,-50.53 17.57,-93.73 52.72,-129.62 35.15,-35.89 88.25,-53.82 159.28,-53.82l180.15 0 0 -21.97c0,-35.15 -10.99,-63.16 -32.96,-84.03 -21.97,-20.87 -56.01,-31.31 -102.15,-31.31 -80.55,0 -123.41,26.73 -128.53,80.19l-93.37 0c3.66,-50.53 25.45,-90.07 65.35,-118.63 39.92,-28.56 91.36,-42.84 154.34,-42.84 71.03,0 126.87,16.47 167.52,49.43 40.65,32.96 60.97,80.19 60.97,141.71l0 376.77 -87.88 0zm-173.56 -67c46.13,0 86.05,-15.2 119.74,-45.59 33.68,-30.39 50.53,-67.56 50.53,-111.5l0 -50.53 -165.87 0c-88.61,0 -132.91,35.15 -132.91,105.46 0,31.49 11.17,56.39 33.5,74.69 22.33,18.31 54.01,27.47 95.02,27.47zm-3187.72 1099.64l93.37 0c-10.99,55.67 -36.79,99.78 -77.44,132.37 -40.65,32.59 -92.45,48.88 -155.43,48.88 -83.49,0 -149.22,-27.27 -197.18,-81.84 -47.96,-54.55 -71.96,-124.3 -71.96,-209.25 0,-85.68 23.81,-155.62 71.41,-209.81 47.6,-54.19 113.5,-81.28 197.72,-81.28 63.71,0 115.52,15.93 155.43,47.78 39.91,31.85 64.63,74.15 74.15,126.87l-93.37 0c-19.78,-62.24 -65.17,-93.37 -136.21,-93.37 -59.32,0 -103.45,19.6 -132.37,58.76 -28.92,39.18 -43.38,88.79 -43.38,148.84 0,60.79 14.64,111.32 43.93,151.59 29.3,40.28 73.24,60.43 131.82,60.43 77.62,0 124.12,-33.32 139.5,-99.97zm364.68 166.97l-131.81 0 0 -553.62 91.18 0 0 428.4 24.16 0 242.77 -428.4 136.21 0 0 553.62 -91.18 0 0 -428.4 -24.16 0 -247.16 428.4zm1035.86 -81.28l102.16 0 0 238.35 -91.18 0 0 -157.07 -478.93 0 0 157.07 -91.18 0 0 -238.35 73.6 0c45.41,-96.68 68.1,-203.58 68.1,-320.75l0 -151.59 417.41 0 0 472.34zm-93.37 0l0 -391.06 -237.27 0 0 70.31c0,125.22 -20.14,232.14 -60.41,320.75l297.68 0zm796.39 -228.49l0 31.85 -421.81 0c1.47,66.64 17.21,118.45 47.24,155.44 30.02,36.98 73.23,55.47 129.62,55.47 76.16,0 123.03,-28.56 140.6,-85.69l94.46 0c-9.52,49.8 -34.59,90.07 -75.24,120.84 -40.65,30.75 -93.93,46.13 -159.82,46.13 -84.23,0 -150.12,-27.46 -197.72,-82.38 -47.6,-54.93 -71.41,-126.32 -71.41,-214.21 0,-86.4 23.81,-155.61 71.41,-207.6 47.6,-52 112.77,-77.99 195.52,-77.99 78.36,0 138.78,24.71 181.25,74.15 42.48,49.43 64.45,110.76 65.91,183.99zm-249.35 -176.85c-47.6,0 -85.68,12.27 -114.24,36.79 -28.56,24.54 -46.15,55.85 -52.74,93.93l319.66 0c-2.93,-37.35 -17.95,-68.48 -45.04,-93.37 -27.09,-24.9 -62.98,-37.35 -107.65,-37.35zm887.55 486.62l-93.37 0 0 -243.85 -306.47 0 0 243.85 -93.37 0 0 -553.62 93.37 0 0 228.47 306.47 0 0 -228.47 93.37 0 0 553.62zm957.86 -553.62l275.72 0 0 553.62 -94.47 0 0 -218.59 -168.06 0c-14.66,0 -26.01,-0.38 -34.06,-1.1l-83.49 219.69 -97.77 0 93.37 -240.56c-57.12,-27.09 -85.68,-75.43 -85.68,-145 0,-53.46 16.67,-94.83 49.99,-124.12 33.32,-29.3 81.46,-43.94 144.44,-43.94zm181.25 79.09l-171.35 0c-40.28,0 -68.84,7.69 -85.69,23.06 -16.83,15.38 -25.26,37.72 -25.26,67.02 0,28.56 8.43,50.15 25.26,64.81 16.85,14.64 45.41,21.97 85.69,21.97l171.35 0 0 -176.85zm-2849.41 1674.14l-114.24 0 0 -127.43 114.24 0 0 127.43zm191.13 -684.34c51.26,-66.64 119.74,-99.96 205.41,-99.96 85.68,0 154.32,33.5 205.96,100.5 51.63,67.02 77.44,166.79 77.44,299.34 0,132.55 -25.81,232.14 -77.44,298.78 -51.63,66.64 -120.28,99.96 -205.96,99.96 -85.68,0 -154.16,-33.32 -205.41,-99.96 -51.27,-66.64 -76.9,-166.23 -76.9,-298.78 0,-133.29 25.63,-233.25 76.9,-299.88zm65.91 530c30.75,55.29 77.25,82.94 139.5,82.94 62.24,0 108.93,-27.65 140.04,-82.94 31.13,-55.29 46.69,-131.99 46.69,-230.12 0,-98.87 -15.56,-175.95 -46.69,-231.24 -31.11,-55.29 -77.8,-82.93 -140.04,-82.93 -62.26,0 -108.75,27.64 -139.5,82.93 -30.77,55.29 -46.15,132.37 -46.15,231.24 0,98.13 15.38,174.83 46.15,230.12zm1253.33 -12.63l93.37 0c-10.99,55.67 -36.79,99.78 -77.44,132.37 -40.65,32.59 -92.45,48.88 -155.43,48.88 -83.49,0 -149.22,-27.27 -197.18,-81.84 -47.96,-54.55 -71.96,-124.3 -71.96,-209.25 0,-85.68 23.81,-155.62 71.41,-209.81 47.6,-54.19 113.5,-81.28 197.72,-81.28 63.71,0 115.52,15.93 155.43,47.78 39.91,31.85 64.63,74.15 74.15,126.87l-93.37 0c-19.78,-62.24 -65.17,-93.37 -136.21,-93.37 -59.32,0 -103.45,19.6 -132.37,58.76 -28.92,39.18 -43.38,88.79 -43.38,148.84 0,60.79 14.64,111.32 43.93,151.59 29.3,40.28 73.24,60.43 131.82,60.43 77.62,0 124.12,-33.32 139.5,-99.97zm232.87 166.97l0 -553.62 148.3 0 136.21 252.65 24.16 0 136.21 -252.65 146.1 0 0 553.62 -91.18 0 0 -444.87 -24.16 0 -128.52 237.27 -103.27 0 -128.52 -237.27 -24.16 0 0 444.87 -91.18 0zm240.58 -1753.23l0 184.53 163.68 0c66.64,0 118.07,16.12 154.32,48.34 36.25,32.22 54.38,77.26 54.38,135.12 0,58.58 -18.13,104.16 -54.38,136.75 -36.25,32.59 -87.69,48.88 -154.32,48.88l-257.05 0 0 -553.62 93.37 0zm0 472.34l150.49 0c46.13,0 79.09,-8.79 98.87,-26.37 19.76,-17.57 29.66,-43.58 29.66,-77.99 0,-34.42 -9.9,-60.43 -29.66,-78 -19.78,-17.57 -52.74,-26.35 -98.87,-26.35l-150.49 0 0 208.71zm1247.86 81.28l-114.24 0 0 -127.43 114.24 0 0 127.43zm0 -426.21l-114.24 0 0 -127.41 114.24 0 0 127.41zm-4210.41 1360l105.46 0 0 85.68 -105.46 0 0 180.15 -94.46 0 0 -180.15 -380.08 0 0 -109.84 339.43 -478.94 135.1 0 0 503.11zm-373.47 0l280.1 0 0 -394.36 -24.16 0 -255.94 370.19 0 24.16zm615.14 -503.11l449.27 0 0 107.66 -192.22 164.77 0 23.06c68.1,1.47 123.2,22.71 165.31,63.72 42.11,41.01 63.16,97.77 63.16,170.25 0,78.36 -25.26,140.24 -75.79,185.65 -50.53,45.41 -115.7,68.1 -195.53,68.1 -76.88,0 -139.86,-21.61 -188.93,-64.81 -49.06,-43.2 -75.79,-98.13 -80.19,-164.77l96.66 0c4.4,43.2 22.53,77.99 54.38,104.35 31.85,26.35 71.22,39.54 118.07,39.54 53.46,0 95.94,-15.02 127.43,-45.04 31.49,-30.02 47.24,-71.03 47.24,-123.03 0,-51.26 -15.02,-91.34 -45.04,-120.28 -30.02,-28.92 -72.86,-43.38 -128.52,-43.38 -27.09,0 -49.43,2.19 -67,6.59l0 -102.16 187.84 -162.56 0 -24.18 -336.13 0 0 -83.49z"/>
   <path fill="#666666" fill-rule="nonzero" fill-opacity="0.800000" d="M4754.08 27080.07l0 -85.68 182.34 0 0 -582.19 -21.97 0 -161.47 108.75 0 -101.06 160.38 -108.75 119.74 0 0 683.25 168.06 0 0 85.68 -447.08 0zm553.62 0l0 -85.68 182.34 0 0 -582.19 -21.97 0 -161.47 108.75 0 -101.06 160.38 -108.75 119.74 0 0 683.25 168.06 0 0 85.68 -447.08 0zm643.69 -556.91l-96.66 0c4.4,-73.97 30.21,-130.36 77.44,-169.16 47.24,-38.82 106.73,-58.22 178.5,-58.22 74.69,0 134.92,20.32 180.69,60.96 45.77,40.65 68.66,98.32 68.66,173.02 0,90.8 -56.76,183.44 -170.27,277.91l-193.34 162.56 0 24.18 387.77 0 0 85.68 -528.36 0 0 -108.75 113.13 -92.27c70.31,-56.39 128.52,-105.82 174.66,-148.3 17.57,-15.38 31.67,-28.56 42.28,-39.54 10.62,-10.99 22.71,-25.45 36.25,-43.38 13.55,-17.95 23.8,-36.81 30.77,-56.57 6.95,-19.78 10.43,-40.28 10.43,-61.52 0,-47.6 -13.9,-84.21 -41.74,-109.85 -27.83,-25.63 -65.55,-38.44 -113.15,-38.44 -44.67,0 -80.74,11.91 -108.19,35.71 -27.46,23.8 -43.76,59.13 -48.88,106zm683.24 556.91l-114.24 0 0 -127.43 114.24 0 0 127.43zm191.13 -684.34c51.26,-66.64 119.74,-99.96 205.41,-99.96 85.68,0 154.32,33.5 205.96,100.5 51.63,67.02 77.44,166.79 77.44,299.34 0,132.55 -25.81,232.14 -77.44,298.78 -51.63,66.64 -120.28,99.96 -205.96,99.96 -85.68,0 -154.16,-33.32 -205.41,-99.96 -51.27,-66.64 -76.9,-166.23 -76.9,-298.78 0,-133.29 25.63,-233.25 76.9,-299.88zm65.91 530c30.75,55.29 77.25,82.94 139.5,82.94 62.24,0 108.93,-27.65 140.04,-82.94 31.13,-55.29 46.69,-131.99 46.69,-230.12 0,-98.87 -15.56,-175.95 -46.69,-231.24 -31.11,-55.29 -77.8,-82.93 -140.04,-82.93 -62.26,0 -108.75,27.64 -139.5,82.93 -30.77,55.29 -46.15,132.37 -46.15,231.24 0,98.13 15.38,174.83 46.15,230.12zm1253.33 -12.63l93.37 0c-10.99,55.67 -36.79,99.78 -77.44,132.37 -40.65,32.59 -92.45,48.88 -155.43,48.88 -83.49,0 -149.22,-27.27 -197.18,-81.84 -47.96,-54.55 -71.96,-124.3 -71.96,-209.25 0,-85.68 23.81,-155.62 71.41,-209.81 47.6,-54.19 113.5,-81.28 197.72,-81.28 63.71,0 115.52,15.93 155.43,47.78 39.91,31.85 64.63,74.15 74.15,126.87l-93.37 0c-19.78,-62.24 -65.17,-93.37 -136.21,-93.37 -59.32,0 -103.45,19.6 -132.37,58.76 -28.92,39.18 -43.38,88.79 -43.38,148.84 0,60.79 14.64,111.32 43.93,151.59 29.3,40.28 73.24,60.43 131.82,60.43 77.62,0 124.12,-33.32 139.5,-99.97zm232.87 166.97l0 -553.62 148.3 0 136.21 252.65 24.16 0 136.21 -252.65 146.1 0 0 553.62 -91.18 0 0 -444.87 -24.16 0 -128.52 237.27 -103.27 0 -128.52 -237.27 -24.16 0 0 444.87 -91.18 0z"/>
   <path fill="#666666" fill-rule="nonzero" fill-opacity="0.800000" d="M366.88 4905.48l24.16 0c10.26,-30.02 31.67,-57.48 64.27,-82.38 32.58,-24.9 72.32,-37.35 119.18,-37.35 64.45,0 117.91,25.45 160.38,76.34 42.48,50.91 63.71,118.09 63.71,201.57 0,83.49 -21.23,150.67 -63.71,201.57 -42.48,50.89 -95.94,76.34 -160.38,76.34 -46.13,0 -85.68,-12.45 -118.63,-37.35 -32.96,-24.9 -54.55,-52.36 -64.81,-82.38l-24.16 0c-10.26,24.16 -29.66,46.31 -58.22,66.46 -28.56,20.14 -62.98,30.21 -103.25,30.21 -60.79,0 -110.22,-23.8 -148.3,-71.4 -38.08,-47.6 -57.12,-108.75 -57.12,-183.44 0,-74.69 19.04,-135.84 57.12,-183.44 38.08,-47.6 87.51,-71.4 148.3,-71.4 38.8,0 72.86,10.24 102.15,30.75 29.3,20.51 49.06,42.48 59.32,65.91zm-249.9 43.38c-22.33,30.4 -33.5,68.66 -33.5,114.79 0,46.13 11.17,84.39 33.5,114.79 22.33,30.39 53.26,45.57 92.82,45.57 39.54,0 70.66,-15.19 93.37,-45.57 22.7,-30.4 34.04,-68.66 34.04,-114.79 0,-46.13 -11.35,-84.39 -34.04,-114.79 -22.71,-30.39 -53.82,-45.57 -93.37,-45.57 -39.56,0 -70.49,15.19 -92.82,45.57zm555.81 248.25c26.73,-32.58 40.1,-77.06 40.1,-133.46 0,-56.39 -13.37,-100.88 -40.1,-133.46 -26.72,-32.59 -62.42,-48.88 -107.09,-48.88 -45.41,0 -80.93,16.11 -106.56,48.32 -25.63,32.23 -38.44,76.9 -38.44,134.02 0,57.12 12.81,101.78 38.44,134.02 25.63,32.22 61.15,48.32 106.56,48.32 44.67,0 80.37,-16.29 107.09,-48.88zm-55.47 -2865.32l0 -93.37c55.67,10.99 99.78,36.79 132.37,77.44 32.59,40.65 48.88,92.45 48.88,155.43 0,83.49 -27.27,149.22 -81.84,197.18 -54.55,47.96 -124.3,71.96 -209.25,71.96 -85.68,0 -155.62,-23.81 -209.81,-71.41 -54.19,-47.6 -81.28,-113.5 -81.28,-197.72 0,-63.71 15.93,-115.52 47.78,-155.43 31.85,-39.91 74.15,-64.63 126.87,-74.15l0 93.37c-62.24,19.78 -93.37,65.17 -93.37,136.21 0,59.32 19.6,103.45 58.76,132.37 39.18,28.92 88.79,43.38 148.84,43.38 60.79,0 111.32,-14.64 151.59,-43.93 40.28,-29.3 60.43,-73.24 60.43,-131.82 0,-77.62 -33.32,-124.12 -99.97,-139.5zm166.97 -232.87l-553.62 0 0 -148.3 252.65 -136.21 0 -24.16 -252.65 -136.21 0 -146.1 553.62 0 0 91.18 -444.87 0 0 24.16 237.27 128.52 0 103.27 -237.27 128.52 0 24.16 444.87 0 0 91.18zm-684.34 2491.29c-66.64,-51.26 -99.96,-119.74 -99.96,-205.41 0,-85.68 33.5,-154.32 100.5,-205.96 67.02,-51.63 166.79,-77.44 299.34,-77.44 132.55,0 232.14,25.81 298.78,77.44 66.64,51.63 99.96,120.28 99.96,205.96 0,85.68 -33.32,154.16 -99.96,205.41 -66.64,51.27 -166.23,76.9 -298.78,76.9 -133.29,0 -233.25,-25.63 -299.88,-76.9zm530 -65.91c55.29,-30.75 82.94,-77.25 82.94,-139.5 0,-62.24 -27.65,-108.93 -82.94,-140.04 -55.29,-31.13 -131.99,-46.69 -230.12,-46.69 -98.87,0 -175.95,15.56 -231.24,46.69 -55.29,31.11 -82.93,77.8 -82.93,140.04 0,62.26 27.64,108.75 82.93,139.5 55.29,30.77 132.37,46.15 231.24,46.15 98.13,0 174.83,-15.38 230.12,-46.15zm154.34 -682.14l0 114.24 -127.43 0 0 -114.24 127.43 0zm-684.34 -191.13c-66.64,-51.26 -99.96,-119.74 -99.96,-205.41 0,-85.68 33.5,-154.32 100.5,-205.96 67.02,-51.63 166.79,-77.44 299.34,-77.44 132.55,0 232.14,25.81 298.78,77.44 66.64,51.63 99.96,120.28 99.96,205.96 0,85.68 -33.32,154.16 -99.96,205.41 -66.64,51.27 -166.23,76.9 -298.78,76.9 -133.29,0 -233.25,-25.63 -299.88,-76.9zm530 -65.91c55.29,-30.75 82.94,-77.25 82.94,-139.5 0,-62.24 -27.65,-108.93 -82.94,-140.04 -55.29,-31.13 -131.99,-46.69 -230.12,-46.69 -98.87,0 -175.95,15.56 -231.24,46.69 -55.29,31.11 -82.93,77.8 -82.93,140.04 0,62.26 27.64,108.75 82.93,139.5 55.29,30.77 132.37,46.15 231.24,46.15 98.13,0 174.83,-15.38 230.12,-46.15z"/>
   <path fill="#666666" fill-rule="nonzero" fill-opacity="0.800000" d="M515.18 14551.98c0,70.31 -23.62,128.89 -70.85,175.77 -47.24,46.86 -107.1,70.29 -179.6,70.29 -75.42,0 -138.4,-23.62 -188.93,-70.85 -50.53,-47.24 -75.79,-110.76 -75.79,-190.57 0,-87.14 30.02,-155.99 90.07,-206.52 60.05,-50.53 155.97,-75.79 287.8,-75.79 123.76,0 224.81,24.72 303.18,74.15 78.35,49.43 117.53,122.11 117.53,218.05 0,63.71 -17.03,115.88 -51.07,156.53 -34.06,40.65 -78.18,65.35 -132.37,74.15l0 -95.57c65.17,-19.04 97.77,-64.07 97.77,-135.1 0,-60.77 -24.16,-108.39 -72.5,-142.79 -48.34,-34.42 -114.98,-53.1 -199.93,-56.03l0 24.16c19.78,16.12 37.17,39.74 52.18,70.85 15.02,31.13 22.53,67.56 22.53,109.29zm-382.27 -137.29c-31.49,32.22 -47.24,72.49 -47.24,120.82 0,48.34 15.38,88.06 46.13,119.18 30.77,31.13 73.6,46.69 128.52,46.69 54.93,0 97.04,-15.75 126.32,-47.24 29.3,-31.49 43.94,-71.76 43.94,-120.82 0,-48.34 -15,-88.25 -45.03,-119.74 -30.02,-31.49 -71.4,-47.24 -124.13,-47.24 -54.19,0 -97.02,16.11 -128.52,48.34zm150.49 -578.9c0,-70.29 23.62,-128.88 70.85,-175.75 47.24,-46.86 107.1,-70.29 179.6,-70.29 75.42,0 138.4,23.62 188.93,70.85 50.53,47.22 75.79,110.76 75.79,190.57 0,87.14 -30.02,155.99 -90.07,206.52 -60.05,50.53 -155.99,75.79 -287.8,75.79 -123.76,0 -224.81,-24.72 -303.18,-74.15 -78.35,-49.43 -117.53,-122.11 -117.53,-218.05 0,-63.71 17.03,-115.88 51.07,-156.53 34.06,-40.65 78.18,-65.35 132.37,-74.15l0 95.56c-65.17,19.04 -97.77,64.08 -97.77,135.12 0,60.77 24.16,108.37 72.5,142.79 48.32,34.42 114.98,53.1 199.91,56.03l0 -24.18c-19.76,-16.11 -37.16,-39.73 -52.18,-70.84 -15,-31.13 -22.51,-67.56 -22.51,-109.31zm382.27 137.31c31.49,-32.22 47.24,-72.5 47.24,-120.82 0,-48.34 -15.38,-88.06 -46.13,-119.19 -30.77,-31.11 -73.6,-46.68 -128.53,-46.68 -54.91,0 -97.02,15.75 -126.32,47.24 -29.28,31.49 -43.93,71.76 -43.93,120.82 0,48.34 15,88.25 45.03,119.74 30.02,31.49 71.4,47.24 124.13,47.24 54.19,0 97.02,-16.11 128.52,-48.34zm118.63 -629.42l0 114.24 -127.43 0 0 -114.24 127.43 0zm-684.34 -191.13c-66.64,-51.26 -99.96,-119.74 -99.96,-205.41 0,-85.68 33.5,-154.32 100.5,-205.96 67.02,-51.63 166.79,-77.44 299.34,-77.44 132.55,0 232.14,25.81 298.78,77.44 66.64,51.63 99.96,120.28 99.96,205.96 0,85.68 -33.32,154.16 -99.96,205.41 -66.64,51.27 -166.23,76.9 -298.78,76.9 -133.29,0 -233.25,-25.63 -299.88,-76.9zm530 -65.91c55.29,-30.75 82.94,-77.25 82.94,-139.5 0,-62.24 -27.65,-108.93 -82.94,-140.04 -55.29,-31.13 -131.99,-46.69 -230.12,-46.69 -98.87,0 -175.95,15.56 -231.24,46.69 -55.29,31.11 -82.93,77.8 -82.93,140.04 0,62.26 27.64,108.75 82.93,139.5 55.29,30.77 132.37,46.15 231.24,46.15 98.13,0 174.83,-15.38 230.12,-46.15zm-12.63 -1253.33l0 -93.37c55.67,10.99 99.78,36.79 132.37,77.44 32.59,40.65 48.88,92.45 48.88,155.43 0,83.49 -27.27,149.22 -81.84,197.18 -54.55,47.96 -124.3,71.96 -209.25,71.96 -85.68,0 -155.62,-23.81 -209.81,-71.41 -54.19,-47.6 -81.28,-113.5 -81.28,-197.72 0,-63.71 15.93,-115.52 47.78,-155.43 31.85,-39.91 74.15,-64.63 126.87,-74.15l0 93.37c-62.24,19.78 -93.37,65.17 -93.37,136.21 0,59.32 19.6,103.45 58.76,132.37 39.18,28.92 88.79,43.38 148.84,43.38 60.79,0 111.32,-14.64 151.59,-43.93 40.28,-29.3 60.43,-73.24 60.43,-131.82 0,-77.62 -33.32,-124.12 -99.97,-139.5zm166.97 -232.87l-553.62 0 0 -148.3 252.65 -136.21 0 -24.16 -252.65 -136.21 0 -146.1 553.62 0 0 91.18 -444.87 0 0 24.16 237.27 128.52 0 103.27 -237.27 128.52 0 24.16 444.87 0 0 91.18z"/>
   <path fill="#666666" fill-rule="nonzero" fill-opacity="0.800000" d="M5822.88 19602.87l-332.84 661.27 -101.04 0 333.93 -661.27 0 -24.18 -389.96 0 0 -83.49 489.91 0 0 107.66zm166.97 -23.07c51.26,-66.64 119.74,-99.96 205.41,-99.96 85.68,0 154.32,33.5 205.96,100.5 51.63,67.02 77.44,166.79 77.44,299.34 0,132.55 -25.81,232.14 -77.44,298.78 -51.63,66.64 -120.28,99.96 -205.96,99.96 -85.68,0 -154.16,-33.32 -205.41,-99.96 -51.27,-66.64 -76.9,-166.23 -76.9,-298.78 0,-133.29 25.63,-233.25 76.9,-299.88zm65.91 530c30.75,55.29 77.25,82.94 139.5,82.94 62.24,0 108.93,-27.65 140.04,-82.94 31.13,-55.29 46.69,-131.99 46.69,-230.12 0,-98.87 -15.56,-175.95 -46.69,-231.24 -31.11,-55.29 -77.8,-82.93 -140.04,-82.93 -62.26,0 -108.75,27.64 -139.5,82.93 -30.77,55.29 -46.15,132.37 -46.15,231.24 0,98.13 15.38,174.83 46.15,230.12zm642.59 154.34l-114.24 0 0 -127.43 114.24 0 0 127.43zm-1964.6 467.91l-96.66 0c4.4,-73.97 30.21,-130.36 77.44,-169.16 47.24,-38.82 106.73,-58.22 178.5,-58.22 74.69,0 134.92,20.32 180.69,60.96 45.77,40.65 68.66,98.32 68.66,173.02 0,90.8 -56.76,183.44 -170.27,277.91l-193.34 162.56 0 24.18 387.77 0 0 85.68 -528.36 0 0 -108.75 113.13 -92.27c70.31,-56.39 128.52,-105.82 174.66,-148.3 17.57,-15.38 31.67,-28.56 42.28,-39.54 10.62,-10.99 22.71,-25.45 36.25,-43.38 13.55,-17.95 23.8,-36.81 30.77,-56.57 6.95,-19.78 10.43,-40.28 10.43,-61.52 0,-47.6 -13.9,-84.21 -41.74,-109.85 -27.83,-25.63 -65.55,-38.44 -113.15,-38.44 -44.67,0 -80.74,11.91 -108.19,35.71 -27.46,23.8 -43.76,59.13 -48.88,106zm549.22 556.91l0 -85.68 182.34 0 0 -582.19 -21.97 0 -161.47 108.75 0 -101.06 160.38 -108.75 119.74 0 0 683.25 168.06 0 0 85.68 -447.08 0zm626.12 -684.34c51.26,-66.64 119.74,-99.96 205.41,-99.96 85.68,0 154.32,33.5 205.96,100.5 51.63,67.02 77.44,166.79 77.44,299.34 0,132.55 -25.81,232.14 -77.44,298.78 -51.63,66.64 -120.28,99.96 -205.96,99.96 -85.68,0 -154.16,-33.32 -205.41,-99.96 -51.27,-66.64 -76.9,-166.23 -76.9,-298.78 0,-133.29 25.63,-233.25 76.9,-299.88zm65.91 530c30.75,55.29 77.25,82.94 139.5,82.94 62.24,0 108.93,-27.65 140.04,-82.94 31.13,-55.29 46.69,-131.99 46.69,-230.12 0,-98.87 -15.56,-175.95 -46.69,-231.24 -31.11,-55.29 -77.8,-82.93 -140.04,-82.93 -62.26,0 -108.75,27.64 -139.5,82.93 -30.77,55.29 -46.15,132.37 -46.15,231.24 0,98.13 15.38,174.83 46.15,230.12zm2192.51 -12.63l93.37 0c-10.99,55.67 -36.79,99.78 -77.44,132.37 -40.65,32.59 -92.45,48.88 -155.43,48.88 -83.49,0 -149.22,-27.27 -197.18,-81.84 -47.96,-54.55 -71.96,-124.3 -71.96,-209.25 0,-85.68 23.81,-155.62 71.41,-209.81 47.6,-54.19 113.5,-81.28 197.72,-81.28 63.71,0 115.52,15.93 155.43,47.78 39.91,31.85 64.63,74.15 74.15,126.87l-93.37 0c-19.78,-62.24 -65.17,-93.37 -136.21,-93.37 -59.32,0 -103.45,19.6 -132.37,58.76 -28.92,39.18 -43.38,88.79 -43.38,148.84 0,60.79 14.64,111.32 43.93,151.59 29.3,40.28 73.24,60.43 131.82,60.43 77.62,0 124.12,-33.32 139.5,-99.97zm232.87 166.97l0 -553.62 148.3 0 136.21 252.65 24.16 0 136.21 -252.65 146.1 0 0 553.62 -91.18 0 0 -444.87 -24.16 0 -128.52 237.27 -103.27 0 -128.52 -237.27 -24.16 0 0 444.87 -91.18 0zm-1480.15 -1709.17c51.26,-66.64 119.74,-99.96 205.41,-99.96 85.68,0 154.32,33.5 205.96,100.5 51.63,67.02 77.44,166.79 77.44,299.34 0,132.55 -25.81,232.14 -77.44,298.78 -51.63,66.64 -120.28,99.96 -205.96,99.96 -85.68,0 -154.16,-33.32 -205.41,-99.96 -51.27,-66.64 -76.9,-166.23 -76.9,-298.78 0,-133.29 25.63,-233.25 76.9,-299.88zm65.91 530c30.75,55.29 77.25,82.94 139.5,82.94 62.24,0 108.93,-27.65 140.04,-82.94 31.13,-55.29 46.69,-131.99 46.69,-230.12 0,-98.87 -15.56,-175.95 -46.69,-231.24 -31.11,-55.29 -77.8,-82.93 -140.04,-82.93 -62.26,0 -108.75,27.64 -139.5,82.93 -30.77,55.29 -46.15,132.37 -46.15,231.24 0,98.13 15.38,174.83 46.15,230.12zm1248.93 154.34l-137.31 -231.78 -39.54 0 -140.6 231.78 -102.15 0 172.46 -283.4 -154.88 -270.22 98.85 0 127.43 219.69 39.54 0 129.62 -219.69 97.77 0 -157.07 266.93 171.35 286.69 -105.46 0zm-1577.94 1024.83l-114.24 0 0 -127.43 114.24 0 0 127.43zm191.13 -684.34c51.26,-66.64 119.74,-99.96 205.41,-99.96 85.68,0 154.32,33.5 205.96,100.5 51.63,67.02 77.44,166.79 77.44,299.34 0,132.55 -25.81,232.14 -77.44,298.78 -51.63,66.64 -120.28,99.96 -205.96,99.96 -85.68,0 -154.16,-33.32 -205.41,-99.96 -51.27,-66.64 -76.9,-166.23 -76.9,-298.78 0,-133.29 25.63,-233.25 76.9,-299.88zm65.91 530c30.75,55.29 77.25,82.94 139.5,82.94 62.24,0 108.93,-27.65 140.04,-82.94 31.13,-55.29 46.69,-131.99 46.69,-230.12 0,-98.87 -15.56,-175.95 -46.69,-231.24 -31.11,-55.29 -77.8,-82.93 -140.04,-82.93 -62.26,0 -108.75,27.64 -139.5,82.93 -30.77,55.29 -46.15,132.37 -46.15,231.24 0,98.13 15.38,174.83 46.15,230.12z"/>
   <g>
    <line fill="none" stroke="gray" stroke-width="15.99" stroke-miterlimit="22.9256" x1="812.74" y1="6560.13" x2="2425.46" y2= "6560.13" />
    <line fill="none" stroke="gray" stroke-width="15.99" stroke-miterlimit="22.9256" x1="808.81" y1="523.85" x2="2425.46" y2= "523.85" />
    <line fill="none" stroke="gray" stroke-width="15.99" stroke-miterlimit="22.9256" x1="1418.79" y1="7161.44" x2="1418.79" y2= "0" />
   </g>
   <g>
    <line fill="none" stroke="gray" stroke-width="15.99" stroke-miterlimit="22.9256" x1="812.74" y1="16267.59" x2="2425.46" y2= "16267.59" />
    <line fill="none" stroke="gray" stroke-width="15.99" stroke-miterlimit="22.9256" x1="808.81" y1="9412.91" x2="2425.46" y2= "9412.91" />
    <line fill="none" stroke="gray" stroke-width="15.99" stroke-miterlimit="22.9256" x1="1418.79" y1="16902.25" x2="1418.79" y2= "8889.04" />
   </g>
   <g>
    <line fill="none" stroke="gray" stroke-width="15.99" stroke-miterlimit="22.9256" x1="2697.2" y1="26249.99" x2="2697.2" y2= "24633.34" />
    <line fill="none" stroke="gray" stroke-width="15.99" stroke-miterlimit="22.9256" x1="11630.75" y1="25639.99" x2="2091.13" y2= "25639.99" />
    <line fill="none" stroke="gray" stroke-width="15.99" stroke-miterlimit="22.9256" x1="11003.78" y1="26246.04" x2="11003.78" y2= "24633.34" />
   </g>
  </g>
 </g>
</svg>
