<?xml version="1.0" encoding="UTF-8"?>
<!DOCTYPE svg PUBLIC "-//W3C//DTD SVG 1.1//EN" "http://www.w3.org/Graphics/SVG/1.1/DTD/svg11.dtd">
<!-- Creator: CorelDRAW 2021.5 -->
<svg xmlns="http://www.w3.org/2000/svg" xml:space="preserve" width="259.624mm" height="188.339mm" version="1.1" shape-rendering="geometricPrecision" text-rendering="geometricPrecision" image-rendering="optimizeQuality" fill-rule="evenodd" clip-rule="evenodd"
viewBox="0 0 28410.62 20609.93"
 xmlns:xlink="http://www.w3.org/1999/xlink"
 xmlns:xodm="http://www.corel.com/coreldraw/odm/2003">
 <g id="Тени">
  <metadata id="CorelCorpID_0Corel-Layer"/>
  <path fill="black" fill-opacity="0.101961" d="M3950.24 12025.93c84.14,-1028.41 549.73,-1327.1 1045.72,-1345.69 52.81,-1.99 110.08,-3.71 170.82,-5.19 -416.4,-60.64 -768.48,-137.64 -988.16,-214.06 -247.74,-86.14 -324.19,-325.75 -302.84,-417.44l22.32 -531.82c4.55,-108.3 127.99,-197.54 157.05,-199.7l-211.55 15.68 -30.68 143.55 0 4312.33c64.68,-1167.36 55.11,-752.81 137.31,-1757.66zm4351.83 -1312.62c294.83,12.49 501.28,26.42 555.59,40.22 523.97,133.09 890.75,346.01 973.85,1330.15 37.71,446.7 137.83,1699.92 137.83,1699.92 0,0 114.35,-1385.62 137.64,-1696.54 113.51,-1516.13 1058.63,-1347.25 2523.55,-1300 156.84,5.04 330,-1.92 512.43,-13.67 -45.94,0.69 -91.8,1.2 -137.47,1.5 -1038.01,6.58 -2157.93,-164.22 -2640.06,-331.92 -247.74,-86.13 -324.19,-325.75 -302.84,-417.44l36.94 -518.16c5.48,-76.81 35.88,-154.48 98.84,-186.91l-174.28 2.87 -49.08 62.02 -62.71 -60.2 -255.64 -7.36c98.8,9.85 172.48,106.04 177.31,207.6l24.62 518.16c0.84,17.64 -0.98,34.6 -5.04,50.71l1.98 0.03c-9.76,97.91 -1.72,238.87 -251.16,354.35 -245.18,113.5 -728.92,204.66 -1302.29,264.67zm6117.12 -10.93c382.79,4.36 740.84,53.87 1017.02,207.54 511.75,284.81 529.19,711.93 600.19,1536.51 104.1,1208.77 101.46,1877.29 101.41,1232.36l-0.58 -4301.04 -70.97 -61.48 -133.14 4.11c48.15,35.96 84.58,121.98 87.66,186.98l24.62 518.16c0.84,17.64 -0.98,34.6 -5.04,50.71l1.99 0.03c-9.76,97.91 -1.72,238.87 -251.17,354.35 -255.05,118.06 -768.24,211.97 -1371.99,271.76z"/>
  <rect fill="#E6E6E6" x="27880.19" y="6961.26" width="530.42" height="63.3"/>
  <path fill="black" fill-opacity="0.101961" d="M4748 502.4c966.68,82.18 1265.11,242.74 2038.6,251.51 824.45,9.35 1059.32,-125.75 2341.78,-269.62 -721.14,11.37 -1426.72,40.3 -2147.86,51.69l-2232.53 -33.58z"/>
  <path fill="black" fill-opacity="0.101961" d="M10737.67 470.55c1198.5,96.9 1373.23,257.25 2146.73,265.66 824.43,9 1249.7,-235.57 2171.43,-251.44 -721.14,10.92 -1426.72,26.46 -2147.86,37.41l-2170.3 -51.64z"/>
  <polygon fill="black" fill-opacity="0.101961" points="3821.41,3369.47 3888.45,3189.22 3983.72,3142.46 3991.47,4307.14 9868.65,4307.14 9893.27,3205.58 9976.87,3265.97 10047.48,3216.38 10051.06,4307.14 15964.54,4307.14 15972.09,3140.55 16083.41,3173.48 16134.7,3323.01 16138.05,5550.73 15956.46,5550.73 15962.84,4566.6 3993.19,4566.6 3999.65,5538.44 3818.06,5538.44 "/>
  <path fill="black" fill-opacity="0.101961" d="M4635.81 3072.9c1038.01,-83.31 1435.44,-204.51 2208.95,-211.76 824.45,-7.73 947.35,122.52 2171.43,226.73 -721.14,-9.4 -1453.47,22.64 -2174.62,13.22l-2205.77 -28.19z"/>
  <path fill="black" fill-opacity="0.101961" d="M10675.43 3075.85c1269.86,-185.52 1423.61,-230.6 2197.11,-243.24 824.42,-13.47 1084.02,55.68 2183.27,250.91 -721.13,-16.39 -1444.54,-10.94 -2165.69,-27.38l-2214.7 19.71z"/>
  <polygon fill="black" fill-opacity="0.101961" points="19984.15,1945.44 21294.66,1945.44 21294.66,2173.89 19984.15,2173.89 "/>
 </g>
 <g id="Схема">
  <metadata id="CorelCorpID_1Corel-Layer"/>
  <g id="_2238613603776">
   <path fill="none" stroke="black" stroke-width="11.58" stroke-miterlimit="22.9256" d="M16260.17 13949.29c-102.94,-52.66 -123.52,-321.59 -123.52,-939.37 0,-249.04 15.68,-3501.67 3.41,-3935.77 -14.13,-504.16 8.15,-778.22 125.79,-824.99 116.59,-63.83 1051.02,-57.89 1154.24,-3.2 118.63,42.95 149.3,355.35 135.12,856.84 -12.22,431.88 3.38,3667.72 3.38,3915.49 0,614.52 -20.55,882.14 -124.38,931.47 -105.97,56.37 -1079.34,43.18 -1174.04,-0.47z"/>
   <path fill="none" stroke="black" stroke-width="11.58" stroke-miterlimit="22.9256" d="M16178.23 8361.97c-41,-161.84 -777.13,-167.27 -1864.22,-152.22 -936.1,12.95 -7950,-3.65 -8487.06,-3.65 -1332.07,0 -2000.4,-19.64 -2058.87,171.21"/>
   <path fill="none" stroke="black" stroke-width="11.58" stroke-miterlimit="22.9256" d="M3683.91 13955.06c102.95,-52.81 123.52,-322.54 123.52,-942.15 0,-249.77 -15.68,-3512 -3.4,-3947.37 14.13,-505.64 -8.16,-780.52 -125.8,-827.43 -116.59,-64.02 -1051.01,-58.06 -1154.24,-3.21 -118.63,43.08 -149.3,356.4 -135.11,859.36 12.22,433.16 -3.39,3678.54 -3.39,3927.05 0,616.33 20.56,884.74 124.39,934.22 105.96,56.53 1079.34,43.31 1174.03,-0.47z"/>
   <rect fill="none" stroke="black" stroke-width="11.58" stroke-miterlimit="22.9256" x="9981.41" y="9312.16" width="6156.4" height="4793.74" rx="50.73" ry="99.87"/>
   <rect fill="none" stroke="black" stroke-width="11.58" stroke-miterlimit="22.9256" x="3812.94" y="9312.05" width="6156.4" height="4793.85" rx="50.73" ry="99.88"/>
   <polyline fill="none" stroke="black" stroke-width="11.58" stroke-miterlimit="22.9256" stroke-dasharray="57.888481 57.888481" points="3812.92,13980.67 3812.44,17234.56 16123.21,17234.56 16137.84,14006.06 "/>
   <path fill="none" stroke="black" stroke-width="11.58" stroke-miterlimit="22.9256" d="M9840.92 10080.64c-9.76,97.9 -1.71,238.87 -251.16,354.35 -442.8,204.98 -1663.64,337.22 -2785.69,344.29 -1038.01,6.55 -2157.91,-164.23 -2640.06,-331.93 -247.74,-86.14 -324.19,-325.76 -302.83,-417.45"/>
   <path fill="none" stroke="black" stroke-width="11.58" stroke-miterlimit="22.9256" d="M10084.25 10087.41c9.75,97.9 1.71,238.87 251.15,354.35 442.8,204.98 1663.64,337.22 2785.71,344.29 1038,6.55 2157.91,-164.23 2640.06,-331.93 247.73,-86.14 271.88,-242.19 296.51,-358.66"/>
   <path fill="none" stroke="black" stroke-width="11.58" stroke-miterlimit="22.9256" d="M4095.11 9314.73l5527.24 0c108.35,0 191.87,88.87 197.01,197.01l24.62 518.16c5.14,108.15 -88.77,192.05 -197.01,197 -998.05,56.04 -1818.18,56.52 -2906.22,70.87 -1061.37,14 -1707.73,-15.27 -2682.58,-70.87 -108.24,-4.95 -204.71,-88.91 -197.01,-197l36.93 -518.16c7.71,-108.09 88.66,-197.01 197.01,-197.01z"/>
   <path fill="none" stroke="black" stroke-width="11.58" stroke-miterlimit="22.9256" d="M15830.05 9298.9l-5527.23 0c-108.36,0 -191.87,90.91 -197.01,201.52l-24.63 530.04c-5.14,110.62 88.78,196.45 197.01,201.52 998.06,57.32 1818.18,57.81 2906.23,72.48 1061.36,14.32 1707.72,-15.62 2682.58,-72.48 108.23,-5.07 204.71,-90.95 197.01,-201.52l-36.94 -530.04c-7.7,-110.57 -88.65,-201.52 -197.01,-201.52z"/>
  </g>
  <g id="_2238613619232">
   <path fill="none" stroke="black" stroke-width="11.58" stroke-miterlimit="22.9256" d="M17325.31 2156.4l-985.09 0c-21.67,0 -50.11,7.46 -69.79,12.54 -123.81,27.31 -147.26,188.84 -132.34,486.01 12.84,255.86 -3.6,2173.08 -3.6,2319.87 0,364.11 21.62,522.66 130.39,552.73 26.18,10.34 31.54,14.86 75.35,14.86l985.09 0c42.34,0 46.57,-6.4 72.83,-12.78 108.74,-29.94 130.39,-187.65 130.39,-549.9 0,-146.03 -16.44,-2053.33 -3.6,-2307.88 14.92,-295.61 -17.31,-479.74 -141.13,-506.92 -20.97,-6.8 -34.37,-8.54 -58.48,-8.54z"/>
   <path fill="none" stroke="black" stroke-width="11.58" stroke-miterlimit="22.9256" d="M3943.56 3195.47c1962.43,0 3924.84,0 5887.27,0 81.36,-5.81 97.37,47.01 146.05,70.52 45.94,-23.51 81.74,-75.21 137.85,-70.52l5895.39 0c67.7,0 123.11,55.43 123.11,123.12l0 861.9c0,67.73 -55.4,123.14 -123.11,123.14l-12066.55 0c-67.74,0 -123.13,-55.42 -123.13,-123.14l0 -861.9c0,-67.69 55.39,-123.12 123.13,-123.12z"/>
   <rect fill="none" stroke="black" stroke-width="11.58" stroke-miterlimit="22.9256" x="3820.64" y="4307.15" width="12312.8" height="1231.28" rx="71.67" ry="61.57"/>
   <rect fill="none" stroke="black" stroke-width="11.58" stroke-miterlimit="22.9256" x="4043.04" y="5536.56" width="1231.28" height="184.69"/>
   <rect fill="none" stroke="black" stroke-width="11.58" stroke-miterlimit="22.9256" x="14662.66" y="5544.12" width="1231.28" height="184.69"/>
   <path fill="none" stroke="black" stroke-width="11.58" stroke-miterlimit="22.9256" d="M3810.07 2371.27l0 -1433.43c-2.92,-115.94 27.13,-163.38 99.17,-180.8m12069.58 -4.29c116.53,21.9 166.45,105.99 155.12,211.83l2.29 1649.3"/>
   <path fill="none" stroke="black" stroke-width="11.58" stroke-miterlimit="22.9256" d="M4197.63 480.99c902.01,0 1703.53,36.52 2605.53,36.52 914.21,0 1966.3,-35.52 2880.5,-35.52 166.49,0 254.18,53.05 254.18,215.58 0,280.6 -43.76,809.5 -43.76,1090.09 0,393.53 50.72,691.52 50.72,1085.04 0,162.54 -48.44,225.35 -214.93,225.35 -962.93,0 -1997.62,-30.53 -2960.51,-30.53 -798.92,0 -1609.73,14.77 -2408.61,25.68 -54.34,0.73 -279.77,39.47 -334.14,39.47 -166.51,0 -131.7,-171.3 -131.7,-333.84 0,-340.03 40.88,-636.32 40.88,-976.36 0,-334.09 -40.88,-836.02 -40.88,-1170.1 0,-162.57 136.23,-171.38 302.72,-171.38z"/>
   <line fill="none" stroke="black" stroke-width="11.58" stroke-miterlimit="22.9256" x1="9977.05" y1="4307.14" x2="9976.86" y2= "3265.96" />
   <path fill="none" stroke="black" stroke-width="11.58" stroke-miterlimit="22.9256" d="M10205.21 470.31c894.32,0 1754.69,33.73 2649.01,33.73 906.4,0 1955.47,-34.88 2861.86,-34.88 165.09,0 249.76,66.64 249.76,229.17 0,280.6 -47.05,795.26 -47.05,1075.85 0,393.53 42.54,699.62 42.54,1093.14 0,162.54 -79.14,212.24 -244.2,212.24 -954.68,0 -1943.03,-23.47 -2897.72,-23.47 -792.1,0 -1594.68,12.73 -2386.76,23.64 -53.88,0.73 -172.29,-1.39 -226.2,-1.39 -165.09,0 -221.26,-40.12 -221.26,-202.64 0,-340.03 26.12,-726.66 26.12,-1066.69 0,-334.09 -26.93,-799.63 -26.93,-1133.71 0,-162.54 55.78,-204.98 220.84,-204.98z"/>
   <path fill="none" stroke="black" stroke-width="11.58" stroke-miterlimit="22.9256" d="M3610.4 2196.77l-985.09 0c-21.68,0 -50.11,7.47 -69.79,12.54 -123.82,27.32 -147.26,188.84 -132.36,486.01 12.85,255.86 -3.59,2173.08 -3.59,2319.87 0,364.11 21.61,522.66 130.37,552.73 26.18,10.34 31.55,14.86 75.36,14.86l985.09 0c42.34,0 46.56,-6.4 72.83,-12.78 108.73,-29.94 130.39,-187.64 130.39,-549.9 0,-146.03 -16.45,-2053.32 -3.6,-2307.88 14.92,-295.61 -17.31,-479.74 -141.13,-506.92 -20.97,-6.8 -34.38,-8.54 -58.48,-8.54z"/>
  </g>
  <g id="_2238613620576">
   <path fill="none" stroke="black" stroke-width="11.58" stroke-miterlimit="22.9256" d="M25821.92 3099.43l3.18 0c113.42,0 206.21,92.79 206.21,206.21l0 836.59c0,113.44 -92.79,206.22 -206.21,206.22"/>
   <rect fill="none" stroke="black" stroke-width="11.58" stroke-miterlimit="22.9256" x="25365.02" y="5556.11" width="211.76" height="184.69"/>
   <rect fill="none" stroke="black" stroke-width="11.58" stroke-miterlimit="22.9256" x="20209.06" y="5566.83" width="211.76" height="184.69"/>
   <path fill="none" stroke="black" stroke-width="11.58" stroke-miterlimit="22.9256" d="M21535.08 2173.9l-54.4 -1411c-4.74,-123.63 -29.67,-247.85 146.78,-255.16l520.74 -21.66c46.81,-1.94 174.2,-5.85 181.65,187.64l57.79 1500.17"/>
   <path fill="none" stroke="black" stroke-width="11.58" stroke-miterlimit="22.9256" d="M21567.8 516.41c-159.99,12.79 -297.88,210.8 -276.22,379.59"/>
   <path fill="none" stroke="black" stroke-width="11.58" stroke-miterlimit="22.9256" d="M22186.07 486.43c228.74,-7.73 327.94,388.37 347.3,463.18 103.41,399.58 157.89,1145.6 161.03,1224.29"/>
   <rect fill="none" stroke="black" stroke-width="11.58" stroke-miterlimit="22.9256" transform="matrix(2.19499E-14 -2.30799 1.11361 8.21336E-14 19985.6 5559.91)" width="1467.08" height="5240.86" rx="21.34" ry="21.34"/>
   <path fill="none" fill-rule="nonzero" stroke="black" stroke-width="11.58" stroke-miterlimit="22.9256" d="M19985.63 2231.62c-5.3,-16.44 -1.5,-89.84 -3.63,-119.23 0,-68.3 16.36,-960.24 3.6,-1079.2 -12.54,-116.84 32.7,-221.4 145.17,-253.13 14.94,-6.47 35.36,-7.15 52.61,-7.15l19.28 0 965.81 0c67.73,0 122.94,55.4 123.11,123.1l3.07 1277.89"/>
  </g>
 </g>
 <g id="Шрифт">
  <metadata id="CorelCorpID_2Corel-Layer"/>
  <path fill="#666666" fill-rule="nonzero" fill-opacity="0.800000" d="M20420.02 8557.01l0 21.16c28.86,13.47 52.1,34.62 69.74,63.48 17.63,28.86 26.45,60.6 26.45,95.23 0,57.71 -19.87,104.36 -59.64,139.96 -39.76,35.59 -97.47,53.38 -173.13,53.38l-306.84 0 0 -686.78 299.14 0c69.9,0 123.93,16.51 162.08,49.54 38.16,33.03 57.23,74.54 57.23,124.56 0,66.05 -25,112.54 -75.03,139.47zm-356.85 -236.62l0 214.5 210.65 0c89.13,0 133.7,-36.56 133.7,-109.66 0,-35.91 -12.83,-62.36 -38.48,-79.36 -25.65,-16.99 -58.04,-25.49 -97.15,-25.49l-208.73 0zm0 532.88l214.49 0c44.25,0 80.47,-9.45 108.7,-28.38 28.21,-18.92 42.32,-50.5 42.32,-94.74 0,-41.68 -13.94,-71.98 -41.84,-90.89 -27.89,-18.92 -63.97,-28.38 -108.22,-28.38l-215.46 0 0 242.39zm579.05 -407.83l81.76 0 0 161.6 133.7 0c58.36,0 103.4,14.11 135.15,42.32 31.75,28.22 47.61,67.66 47.61,118.32 0,51.3 -15.87,91.22 -47.61,119.75 -31.75,28.54 -76.79,42.81 -135.15,42.81l-215.46 0 0 -484.79zm81.76 230.85l0 182.75 122.16 0c40.4,0 69.26,-7.69 86.57,-23.08 17.31,-15.39 25.97,-38.16 25.97,-68.3 0,-30.14 -8.66,-52.9 -25.97,-68.3 -17.31,-15.39 -46.17,-23.08 -86.57,-23.08l-122.16 0zm394.37 -230.85l81.76 0 0 484.79 -81.76 0 0 -484.79zm567.5 338.58l81.77 0c-9.62,48.74 -32.23,87.38 -67.81,115.91 -35.59,28.54 -80.96,42.81 -136.11,42.81 -73.1,0 -130.66,-23.89 -172.66,-71.67 -42,-47.77 -63,-108.85 -63,-183.24 0,-75.03 20.84,-136.26 62.52,-183.71 41.68,-47.46 99.4,-71.18 173.14,-71.18 55.79,0 101.16,13.95 136.11,41.85 34.94,27.89 56.59,64.92 64.92,111.09l-81.76 0c-17.32,-54.51 -57.08,-81.76 -119.28,-81.76 -51.94,0 -90.58,17.15 -115.91,51.45 -25.32,34.31 -37.99,77.76 -37.99,130.34 0,53.22 12.83,97.47 38.48,132.74 25.65,35.27 64.13,52.9 115.43,52.9 67.98,0 108.7,-29.17 122.16,-87.53zm238.07 -278.94c42.64,-48.09 100.84,-72.15 174.58,-72.15 73.74,0 131.94,24.05 174.57,72.15 42.64,48.09 63.97,109.01 63.97,182.75 0,73.74 -21.33,134.66 -63.97,182.76 -42.63,48.09 -100.83,72.15 -174.57,72.15 -73.74,0 -131.94,-24.05 -174.58,-72.15 -42.64,-48.09 -63.96,-109.01 -63.96,-182.76 0,-73.73 21.32,-134.65 63.96,-182.75zm58.19 313.09c26.93,35.59 65.72,53.38 116.39,53.38 50.66,0 89.45,-17.79 116.39,-53.38 26.93,-35.59 40.39,-79.04 40.39,-130.34 0,-51.29 -13.46,-94.74 -40.39,-130.33 -26.94,-35.59 -65.73,-53.38 -116.39,-53.38 -50.67,0 -89.46,17.79 -116.39,53.38 -26.93,35.59 -40.4,79.04 -40.4,130.33 0,51.3 13.47,94.76 40.4,130.34zm423.23 -301.56l0 -71.17 417.45 0 0 71.17 -167.36 0 0 413.61 -81.77 0 0 -413.61 -168.33 0zm833.94 413.61l0 -50.98 -21.15 0c-33.35,42.33 -83.69,63.49 -151.02,63.49 -53.22,0 -95.54,-15.4 -126.96,-46.17 -31.43,-30.78 -47.13,-67.98 -47.13,-111.59 0,-44.24 15.39,-82.07 46.17,-113.5 30.78,-31.42 77.27,-47.13 139.47,-47.13l157.75 0 0 -19.24c0,-30.78 -9.62,-55.31 -28.86,-73.58 -19.24,-18.27 -49.06,-27.41 -89.46,-27.41 -70.54,0 -108.05,23.41 -112.54,70.21l-81.77 0c3.21,-44.24 22.29,-78.87 57.23,-103.88 34.95,-25 80,-37.51 135.15,-37.51 62.2,0 111.1,14.43 146.69,43.29 35.59,28.86 53.38,70.21 53.38,124.08l0 329.92 -76.95 0zm-151.98 -58.68c40.4,0 75.35,-13.31 104.84,-39.92 29.5,-26.61 44.25,-59.15 44.25,-97.62l0 -44.25 -145.25 0c-77.6,0 -116.39,30.78 -116.39,92.35 0,27.57 9.78,49.37 29.34,65.41 19.56,16.03 47.3,24.04 83.2,24.04zm-2791.37 962.93l81.77 0c-9.62,48.74 -32.23,87.38 -67.81,115.91 -35.59,28.54 -80.96,42.81 -136.11,42.81 -73.1,0 -130.66,-23.89 -172.66,-71.67 -42,-47.77 -63,-108.85 -63,-183.24 0,-75.03 20.84,-136.26 62.52,-183.71 41.68,-47.46 99.4,-71.18 173.14,-71.18 55.79,0 101.16,13.95 136.11,41.85 34.94,27.89 56.59,64.92 64.92,111.09l-81.76 0c-17.32,-54.51 -57.08,-81.76 -119.28,-81.76 -51.94,0 -90.58,17.15 -115.91,51.45 -25.32,34.31 -37.99,77.76 -37.99,130.34 0,53.22 12.83,97.47 38.48,132.74 25.65,35.27 64.13,52.9 115.43,52.9 67.98,0 108.7,-29.17 122.16,-87.53zm319.35 146.21l-115.43 0 0 -484.79 79.83 0 0 375.14 21.16 0 212.58 -375.14 119.27 0 0 484.79 -79.83 0 0 -375.14 -21.16 0 -216.42 375.14zm907.04 -71.18l89.46 0 0 208.74 -79.84 0 0 -137.55 -419.38 0 0 137.55 -79.83 0 0 -208.74 64.44 0c39.76,-84.64 59.64,-178.26 59.64,-280.86l0 -132.74 365.51 0 0 413.6zm-81.76 0l0 -342.43 -207.76 0 0 61.57c0,109.65 -17.64,203.28 -52.91,280.86l260.67 0zm697.36 -200.07l0 27.9 -369.37 0c1.29,58.35 15.07,103.72 41.36,136.1 26.3,32.39 64.13,48.58 113.5,48.58 66.69,0 107.73,-25 123.12,-75.03l82.72 0c-8.33,43.61 -30.29,78.88 -65.89,105.81 -35.59,26.93 -82.24,40.4 -139.95,40.4 -73.74,0 -131.46,-24.05 -173.14,-72.15 -41.68,-48.09 -62.52,-110.61 -62.52,-187.56 0,-75.67 20.84,-136.26 62.52,-181.8 41.68,-45.53 98.76,-68.3 171.21,-68.3 68.61,0 121.52,21.65 158.72,64.92 37.18,43.29 56.42,97 57.71,161.11zm-218.35 -154.85c-41.68,0 -75.04,10.74 -100.04,32.22 -25,21.48 -40.4,48.9 -46.17,82.25l279.9 0c-2.56,-32.71 -15.7,-59.96 -39.43,-81.77 -23.74,-21.8 -55.15,-32.7 -94.26,-32.7zm777.19 426.11l-81.76 0 0 -213.54 -268.37 0 0 213.54 -81.76 0 0 -484.79 81.76 0 0 200.07 268.37 0 0 -200.07 81.76 0 0 484.79zm838.76 -484.79l241.44 0 0 484.79 -82.72 0 0 -191.41 -147.17 0c-12.83,0 -22.76,-0.32 -29.82,-0.96l-73.1 192.38 -85.61 0 81.76 -210.65c-50.01,-23.72 -75.03,-66.05 -75.03,-126.97 0,-46.8 14.59,-83.04 43.77,-108.69 29.17,-25.65 71.34,-38.48 126.48,-38.48zm158.72 69.26l-150.06 0c-35.27,0 -60.27,6.73 -75.03,20.2 -14.75,13.46 -22.12,33.02 -22.12,58.67 0,25.02 7.36,43.93 22.12,56.75 14.75,12.83 39.76,19.24 75.03,19.24l150.06 0 0 -154.85zm-2495.11 1465.99l-100.04 0 0 -111.57 100.04 0 0 111.57zm167.36 -599.25c44.89,-58.36 104.84,-87.53 179.87,-87.53 75.04,0 135.15,29.34 180.36,88.01 45.21,58.68 67.8,146.05 67.8,262.11 0,116.07 -22.6,203.28 -67.8,261.64 -45.22,58.35 -105.33,87.53 -180.36,87.53 -75.03,0 -134.98,-29.18 -179.87,-87.53 -44.89,-58.36 -67.33,-145.56 -67.33,-261.64 0,-116.71 22.44,-204.24 67.33,-262.59zm57.71 464.1c26.93,48.41 67.66,72.63 122.16,72.63 54.51,0 95.39,-24.22 122.65,-72.63 27.25,-48.41 40.87,-115.58 40.87,-201.52 0,-86.57 -13.62,-154.06 -40.87,-202.47 -27.26,-48.42 -68.14,-72.63 -122.65,-72.63 -54.5,0 -95.23,24.21 -122.16,72.63 -26.93,48.41 -40.39,115.9 -40.39,202.47 0,85.94 13.46,153.1 40.39,201.52zm1097.51 -11.06l81.77 0c-9.62,48.74 -32.23,87.38 -67.81,115.91 -35.59,28.54 -80.96,42.81 -136.11,42.81 -73.1,0 -130.66,-23.89 -172.66,-71.67 -42,-47.77 -63,-108.85 -63,-183.24 0,-75.03 20.84,-136.26 62.52,-183.71 41.68,-47.46 99.4,-71.18 173.14,-71.18 55.79,0 101.16,13.95 136.11,41.85 34.94,27.89 56.59,64.92 64.92,111.09l-81.76 0c-17.32,-54.51 -57.08,-81.76 -119.28,-81.76 -51.94,0 -90.58,17.15 -115.91,51.45 -25.32,34.31 -37.99,77.76 -37.99,130.34 0,53.22 12.83,97.47 38.48,132.74 25.65,35.27 64.13,52.9 115.43,52.9 67.98,0 108.7,-29.17 122.16,-87.53zm203.92 146.21l0 -484.79 129.85 0 119.28 221.23 21.15 0 119.28 -221.23 127.92 0 0 484.79 -79.83 0 0 -389.56 -21.16 0 -112.54 207.76 -90.42 0 -112.54 -207.76 -21.16 0 0 389.56 -79.83 0zm210.64 -1535.25l0 161.6 143.32 0c58.36,0 103.4,14.11 135.15,42.32 31.75,28.22 47.61,67.66 47.61,118.32 0,51.3 -15.87,91.22 -47.61,119.75 -31.75,28.54 -76.79,42.81 -135.15,42.81l-225.08 0 0 -484.79 81.76 0zm0 413.6l131.78 0c40.4,0 69.26,-7.69 86.57,-23.08 17.31,-15.39 25.97,-38.16 25.97,-68.3 0,-30.14 -8.66,-52.9 -25.97,-68.3 -17.31,-15.39 -46.17,-23.08 -86.57,-23.08l-131.78 0 0 182.75zm1092.7 71.18l-100.04 0 0 -111.57 100.04 0 0 111.57zm0 -373.21l-100.04 0 0 -111.57 100.04 0 0 111.57zm-3686.89 1190.89l92.35 0 0 75.04 -92.35 0 0 157.74 -82.72 0 0 -157.74 -332.81 0 0 -96.19 297.22 -419.38 118.3 0 0 440.53zm-327.03 0l245.28 0 0 -345.31 -21.16 0 -224.11 324.15 0 21.15zm538.65 -440.53l393.41 0 0 94.26 -168.34 144.28 0 20.2c59.64,1.28 107.9,19.87 144.76,55.79 36.88,35.9 55.31,85.61 55.31,149.09 0,68.61 -22.12,122.8 -66.37,162.56 -44.24,39.76 -101.31,59.64 -171.21,59.64 -67.33,0 -122.47,-18.92 -165.44,-56.75 -42.96,-37.84 -66.37,-85.94 -70.22,-144.28l84.64 0c3.85,37.83 19.72,68.3 47.61,91.37 27.89,23.09 62.36,34.63 103.4,34.63 46.81,0 84.01,-13.15 111.59,-39.44 27.57,-26.3 41.35,-62.2 41.35,-107.73 0,-44.89 -13.14,-79.99 -39.44,-105.33 -26.29,-25.33 -63.8,-37.99 -112.54,-37.99 -23.72,0 -43.28,1.93 -58.68,5.77l0 -89.45 164.48 -142.36 0 -21.16 -294.33 0 0 -73.1z"/>
  <path fill="#666666" fill-rule="nonzero" fill-opacity="0.800000" d="M8009.91 20109.75l-84.64 0c3.84,-64.76 26.45,-114.14 67.81,-148.12 41.35,-33.99 93.45,-50.98 156.3,-50.98 65.41,0 118.15,17.79 158.22,53.39 40.08,35.59 60.12,86.08 60.12,151.49 0,79.51 -49.69,160.63 -149.09,243.35l-169.29 142.36 0 21.16 339.54 0 0 75.03 -462.66 0 0 -95.23 99.07 -80.8c61.57,-49.37 112.54,-92.65 152.94,-129.85 15.39,-13.46 27.74,-25 37.03,-34.62 9.3,-9.62 19.88,-22.29 31.75,-37.99 11.86,-15.71 20.84,-32.23 26.93,-49.54 6.1,-17.31 9.14,-35.27 9.14,-53.86 0,-41.68 -12.18,-73.74 -36.55,-96.19 -24.37,-22.44 -57.4,-33.67 -99.08,-33.67 -39.11,0 -70.69,10.42 -94.74,31.26 -24.04,20.84 -38.31,51.78 -42.8,92.82zm877.22 254.9l92.35 0 0 75.04 -92.35 0 0 157.74 -82.72 0 0 -157.74 -332.81 0 0 -96.19 297.22 -419.38 118.3 0 0 440.53zm-327.03 0l245.28 0 0 -345.31 -21.16 0 -224.11 324.15 0 21.15zm1209.08 232.78l-100.04 0 0 -111.57 100.04 0 0 111.57zm167.36 -599.25c44.89,-58.36 104.84,-87.53 179.87,-87.53 75.04,0 135.15,29.34 180.36,88.01 45.21,58.68 67.8,146.05 67.8,262.11 0,116.07 -22.6,203.28 -67.8,261.64 -45.22,58.35 -105.33,87.53 -180.36,87.53 -75.03,0 -134.98,-29.18 -179.87,-87.53 -44.89,-58.36 -67.33,-145.56 -67.33,-261.64 0,-116.71 22.44,-204.24 67.33,-262.59zm57.71 464.1c26.93,48.41 67.66,72.63 122.16,72.63 54.51,0 95.39,-24.22 122.65,-72.63 27.25,-48.41 40.87,-115.58 40.87,-201.52 0,-86.57 -13.62,-154.06 -40.87,-202.47 -27.26,-48.42 -68.14,-72.63 -122.65,-72.63 -54.5,0 -95.23,24.21 -122.16,72.63 -26.93,48.41 -40.39,115.9 -40.39,202.47 0,85.94 13.46,153.1 40.39,201.52zm1097.51 -11.06l81.77 0c-9.62,48.74 -32.23,87.38 -67.81,115.91 -35.59,28.54 -80.96,42.81 -136.11,42.81 -73.1,0 -130.66,-23.89 -172.66,-71.67 -42,-47.77 -63,-108.85 -63,-183.24 0,-75.03 20.84,-136.26 62.52,-183.71 41.68,-47.46 99.4,-71.18 173.14,-71.18 55.79,0 101.16,13.95 136.11,41.85 34.94,27.89 56.59,64.92 64.92,111.09l-81.76 0c-17.32,-54.51 -57.08,-81.76 -119.28,-81.76 -51.94,0 -90.58,17.15 -115.91,51.45 -25.32,34.31 -37.99,77.76 -37.99,130.34 0,53.22 12.83,97.47 38.48,132.74 25.65,35.27 64.13,52.9 115.43,52.9 67.98,0 108.7,-29.17 122.16,-87.53zm203.92 146.21l0 -484.79 129.85 0 119.28 221.23 21.15 0 119.28 -221.23 127.92 0 0 484.79 -79.83 0 0 -389.56 -21.16 0 -112.54 207.76 -90.42 0 -112.54 -207.76 -21.16 0 0 389.56 -79.83 0zm-1968.01 -453.04c65.41,0 117.83,21.48 157.26,64.44 39.44,42.96 59.16,96.51 59.16,160.63 0,72.46 -21.32,130.66 -63.96,174.58 -42.64,43.93 -98.27,65.89 -166.89,65.89 -71.17,0 -127.12,-18.6 -167.84,-55.79 -40.72,-37.2 -63,-85.61 -66.85,-145.25l83.68 0c5.13,41.04 20.53,72.3 46.18,93.78 25.64,21.48 59.31,32.23 100.99,32.23 44.89,0 81.12,-14.6 108.69,-43.77 27.58,-29.17 41.36,-68.45 41.36,-117.82 0,-46.81 -13.31,-84.81 -39.92,-113.98 -26.61,-29.18 -62.35,-43.77 -107.24,-43.77 -60.28,0 -104.84,21.16 -133.7,63.48l-84.64 0 29.81 -354.93 384.76 0 0 73.1 -316.46 0 -15.39 194.3 21.16 0c34.62,-31.43 77.9,-47.13 129.85,-47.13z"/>
  <path fill="#666666" fill-rule="nonzero" fill-opacity="0.800000" d="M321.26 4295.51l21.16 0c8.98,-26.29 27.74,-50.34 56.27,-72.14 28.54,-21.8 63.33,-32.71 104.36,-32.71 56.43,0 103.25,22.29 140.44,66.85 37.18,44.57 55.79,103.4 55.79,176.51 0,73.1 -18.6,131.94 -55.79,176.5 -37.2,44.57 -84.01,66.85 -140.44,66.85 -40.39,0 -75.03,-10.9 -103.88,-32.7 -28.86,-21.81 -47.77,-45.85 -56.75,-72.15l-21.16 0c-8.97,21.16 -25.97,40.57 -50.97,58.19 -25.02,17.64 -55.15,26.45 -90.42,26.45 -53.23,0 -96.51,-20.84 -129.85,-62.52 -33.34,-41.68 -50.02,-95.23 -50.02,-160.63 0,-65.41 16.68,-118.95 50.02,-160.63 33.34,-41.68 76.62,-62.53 129.85,-62.53 33.99,0 63.81,8.98 89.46,26.93 25.65,17.96 42.96,37.2 51.94,57.71zm-218.83 37.99c-19.56,26.61 -29.34,60.12 -29.34,100.52 0,40.4 9.78,73.9 29.34,100.51 19.57,26.61 46.65,39.92 81.28,39.92 34.62,0 61.88,-13.31 81.76,-39.92 19.88,-26.61 29.82,-60.11 29.82,-100.51 0,-40.4 -9.94,-73.91 -29.82,-100.52 -19.87,-26.61 -47.13,-39.91 -81.76,-39.91 -34.63,0 -61.72,13.3 -81.28,39.91zm486.71 217.39c23.41,-28.54 35.12,-67.5 35.12,-116.87 0,-49.37 -11.71,-88.33 -35.12,-116.87 -23.41,-28.54 -54.66,-42.8 -93.78,-42.8 -39.76,0 -70.86,14.11 -93.3,42.32 -22.44,28.21 -33.67,67.33 -33.67,117.35 0,50.02 11.23,89.13 33.67,117.34 22.44,28.22 53.54,42.33 93.3,42.33 39.12,0 70.37,-14.27 93.78,-42.8zm-48.58 -2509.07l0 -81.77c48.74,9.62 87.38,32.23 115.91,67.81 28.54,35.59 42.81,80.96 42.81,136.11 0,73.1 -23.89,130.66 -71.67,172.66 -47.77,42 -108.85,63 -183.24,63 -75.03,0 -136.26,-20.84 -183.71,-62.52 -47.46,-41.68 -71.18,-99.4 -71.18,-173.14 0,-55.79 13.95,-101.16 41.85,-136.11 27.89,-34.94 64.92,-56.59 111.09,-64.92l0 81.76c-54.51,17.32 -81.76,57.08 -81.76,119.28 0,51.94 17.15,90.58 51.45,115.91 34.31,25.32 77.76,37.99 130.34,37.99 53.22,0 97.47,-12.83 132.74,-38.48 35.27,-25.65 52.9,-64.13 52.9,-115.43 0,-67.98 -29.17,-108.7 -87.53,-122.16zm146.21 -203.92l-484.79 0 0 -129.85 221.23 -119.28 0 -21.15 -221.23 -119.28 0 -127.92 484.79 0 0 79.83 -389.56 0 0 21.16 207.76 112.54 0 90.42 -207.76 112.54 0 21.16 389.56 0 0 79.83zm-599.25 2181.55c-58.36,-44.89 -87.53,-104.84 -87.53,-179.87 0,-75.04 29.34,-135.15 88.01,-180.36 58.68,-45.21 146.05,-67.8 262.11,-67.8 116.07,0 203.28,22.6 261.64,67.8 58.35,45.22 87.53,105.33 87.53,180.36 0,75.03 -29.18,134.98 -87.53,179.87 -58.36,44.89 -145.56,67.33 -261.64,67.33 -116.71,0 -204.24,-22.44 -262.59,-67.33zm464.1 -57.71c48.41,-26.93 72.63,-67.66 72.63,-122.16 0,-54.51 -24.22,-95.39 -72.63,-122.65 -48.41,-27.25 -115.58,-40.87 -201.52,-40.87 -86.57,0 -154.06,13.62 -202.47,40.87 -48.42,27.26 -72.63,68.14 -72.63,122.65 0,54.5 24.21,95.23 72.63,122.16 48.41,26.93 115.9,40.39 202.47,40.39 85.94,0 153.1,-13.46 201.52,-40.39zm135.15 -597.33l0 100.04 -111.57 0 0 -100.04 111.57 0zm-599.25 -167.36c-58.36,-44.89 -87.53,-104.84 -87.53,-179.87 0,-75.04 29.34,-135.15 88.01,-180.36 58.68,-45.21 146.05,-67.8 262.11,-67.8 116.07,0 203.28,22.6 261.64,67.8 58.35,45.22 87.53,105.33 87.53,180.36 0,75.03 -29.18,134.98 -87.53,179.87 -58.36,44.89 -145.56,67.33 -261.64,67.33 -116.71,0 -204.24,-22.44 -262.59,-67.33zm464.1 -57.71c48.41,-26.93 72.63,-67.66 72.63,-122.16 0,-54.51 -24.22,-95.39 -72.63,-122.65 -48.41,-27.25 -115.58,-40.87 -201.52,-40.87 -86.57,0 -154.06,13.62 -202.47,40.87 -48.42,27.26 -72.63,68.14 -72.63,122.65 0,54.5 24.21,95.23 72.63,122.16 48.41,26.93 115.9,40.39 202.47,40.39 85.94,0 153.1,-13.46 201.52,-40.39z"/>
  <path fill="#666666" fill-rule="nonzero" fill-opacity="0.800000" d="M451.13 12742.56c0,61.57 -20.68,112.86 -62.05,153.9 -41.35,41.04 -93.78,61.55 -157.26,61.55 -66.05,0 -121.2,-20.67 -165.45,-62.04 -44.24,-41.36 -66.37,-96.99 -66.37,-166.89 0,-76.31 26.3,-136.58 78.88,-180.83 52.58,-44.24 136.58,-66.37 252.01,-66.37 108.38,0 196.86,21.65 265.48,64.94 68.62,43.28 102.93,106.92 102.93,190.92 0,55.8 -14.92,101.49 -44.73,137.07 -29.81,35.59 -68.45,57.23 -115.9,64.92l0 -83.68c57.07,-16.68 85.61,-56.1 85.61,-118.32 0,-53.22 -21.16,-94.9 -63.49,-125.03 -42.32,-30.15 -100.68,-46.5 -175.06,-49.06l0 21.16c17.31,14.11 32.54,34.79 45.69,62.04 13.14,27.25 19.72,59.16 19.72,95.71zm-334.74 -120.23c-27.58,28.21 -41.36,63.48 -41.36,105.8 0,42.33 13.47,77.12 40.4,104.37 26.93,27.25 64.44,40.87 112.54,40.87 48.09,0 84.97,-13.79 110.62,-41.35 25.65,-27.58 38.48,-62.85 38.48,-105.81 0,-42.33 -13.15,-77.28 -39.44,-104.84 -26.3,-27.58 -62.53,-41.36 -108.7,-41.36 -47.45,0 -84.96,14.11 -112.54,42.33zm131.78 -506.91c0,-61.57 20.68,-112.87 62.05,-153.9 41.35,-41.04 93.78,-61.55 157.26,-61.55 66.05,0 121.19,20.67 165.45,62.04 44.24,41.36 66.37,96.99 66.37,166.89 0,76.31 -26.3,136.58 -78.88,180.83 -52.58,44.24 -136.59,66.37 -252.02,66.37 -108.37,0 -196.86,-21.65 -265.48,-64.94 -68.61,-43.28 -102.92,-106.92 -102.92,-190.93 0,-55.79 14.92,-101.47 44.72,-137.06 29.82,-35.59 68.46,-57.23 115.91,-64.92l0 83.68c-57.07,16.67 -85.61,56.1 -85.61,118.3 0,53.23 21.16,94.91 63.49,125.05 42.32,30.14 100.68,46.5 175.06,49.06l0 -21.16c-17.31,-14.11 -32.54,-34.79 -45.69,-62.04 -13.14,-27.26 -19.72,-59.16 -19.72,-95.71zm334.74 120.23c27.58,-28.21 41.36,-63.48 41.36,-105.81 0,-42.32 -13.47,-77.1 -40.4,-104.36 -26.93,-27.25 -64.44,-40.87 -112.54,-40.87 -48.09,0 -84.97,13.79 -110.62,41.35 -25.65,27.58 -38.48,62.85 -38.48,105.81 0,42.33 13.15,77.27 39.44,104.84 26.3,27.58 62.53,41.36 108.7,41.36 47.45,0 84.96,-14.11 112.54,-42.33zm103.88 -551.16l0 100.04 -111.57 0 0 -100.04 111.57 0zm-599.25 -167.36c-58.36,-44.89 -87.53,-104.84 -87.53,-179.87 0,-75.04 29.34,-135.15 88.01,-180.36 58.68,-45.21 146.05,-67.8 262.11,-67.8 116.07,0 203.28,22.6 261.64,67.8 58.35,45.22 87.53,105.33 87.53,180.36 0,75.03 -29.18,134.98 -87.53,179.87 -58.36,44.89 -145.56,67.33 -261.64,67.33 -116.71,0 -204.24,-22.44 -262.59,-67.33zm464.1 -57.71c48.41,-26.93 72.63,-67.66 72.63,-122.16 0,-54.51 -24.22,-95.39 -72.63,-122.65 -48.41,-27.25 -115.58,-40.87 -201.52,-40.87 -86.57,0 -154.06,13.62 -202.47,40.87 -48.42,27.26 -72.63,68.14 -72.63,122.65 0,54.5 24.21,95.23 72.63,122.16 48.41,26.93 115.9,40.39 202.47,40.39 85.94,0 153.1,-13.46 201.52,-40.39zm-11.06 -1097.51l0 -81.77c48.74,9.62 87.38,32.23 115.91,67.81 28.54,35.59 42.81,80.96 42.81,136.11 0,73.1 -23.89,130.66 -71.67,172.66 -47.77,42 -108.85,63 -183.24,63 -75.03,0 -136.26,-20.84 -183.71,-62.52 -47.46,-41.68 -71.18,-99.4 -71.18,-173.14 0,-55.79 13.95,-101.16 41.85,-136.11 27.89,-34.94 64.92,-56.59 111.09,-64.92l0 81.76c-54.51,17.32 -81.76,57.08 -81.76,119.28 0,51.94 17.15,90.58 51.45,115.91 34.31,25.32 77.76,37.99 130.34,37.99 53.22,0 97.47,-12.83 132.74,-38.48 35.27,-25.65 52.9,-64.13 52.9,-115.43 0,-67.98 -29.17,-108.7 -87.53,-122.16zm146.21 -203.92l-484.79 0 0 -129.85 221.23 -119.28 0 -21.15 -221.23 -119.28 0 -127.92 484.79 0 0 79.83 -389.56 0 0 21.16 207.76 112.54 0 90.42 -207.76 112.54 0 21.16 389.56 0 0 79.83z"/>
  <path fill="#666666" fill-rule="nonzero" fill-opacity="0.800000" d="M6357.34 15694.2l-84.64 0c3.84,-64.76 26.45,-114.14 67.81,-148.12 41.35,-33.99 93.45,-50.98 156.3,-50.98 65.41,0 118.15,17.79 158.22,53.39 40.08,35.59 60.12,86.08 60.12,151.49 0,79.51 -49.69,160.63 -149.09,243.35l-169.29 142.36 0 21.16 339.54 0 0 75.03 -462.66 0 0 -95.23 99.07 -80.8c61.57,-49.37 112.54,-92.65 152.94,-129.85 15.39,-13.46 27.74,-25 37.03,-34.62 9.3,-9.62 19.88,-22.29 31.75,-37.99 11.86,-15.71 20.84,-32.23 26.93,-49.54 6.1,-17.31 9.14,-35.27 9.14,-53.86 0,-41.68 -12.18,-73.74 -36.55,-96.19 -24.37,-22.44 -57.4,-33.67 -99.08,-33.67 -39.11,0 -70.69,10.42 -94.74,31.26 -24.04,20.84 -38.31,51.78 -42.8,92.82zm544.41 -111.57c44.89,-58.36 104.84,-87.53 179.87,-87.53 75.04,0 135.15,29.34 180.36,88.01 45.21,58.68 67.8,146.05 67.8,262.11 0,116.07 -22.6,203.28 -67.8,261.64 -45.22,58.35 -105.33,87.53 -180.36,87.53 -75.03,0 -134.98,-29.18 -179.87,-87.53 -44.89,-58.36 -67.33,-145.56 -67.33,-261.64 0,-116.71 22.44,-204.24 67.33,-262.59zm57.71 464.1c26.93,48.41 67.66,72.63 122.16,72.63 54.51,0 95.39,-24.22 122.65,-72.63 27.25,-48.41 40.87,-115.58 40.87,-201.52 0,-86.57 -13.62,-154.06 -40.87,-202.47 -27.26,-48.42 -68.14,-72.63 -122.65,-72.63 -54.5,0 -95.23,24.21 -122.16,72.63 -26.93,48.41 -40.39,115.9 -40.39,202.47 0,85.94 13.46,153.1 40.39,201.52zm543.46 -464.1c44.89,-58.36 104.84,-87.53 179.87,-87.53 75.04,0 135.15,29.34 180.36,88.01 45.21,58.68 67.8,146.05 67.8,262.11 0,116.07 -22.6,203.28 -67.8,261.64 -45.22,58.35 -105.33,87.53 -180.36,87.53 -75.03,0 -134.98,-29.18 -179.87,-87.53 -44.89,-58.36 -67.33,-145.56 -67.33,-261.64 0,-116.71 22.44,-204.24 67.33,-262.59zm57.71 464.1c26.93,48.41 67.66,72.63 122.16,72.63 54.51,0 95.39,-24.22 122.65,-72.63 27.25,-48.41 40.87,-115.58 40.87,-201.52 0,-86.57 -13.62,-154.06 -40.87,-202.47 -27.26,-48.42 -68.14,-72.63 -122.65,-72.63 -54.5,0 -95.23,24.21 -122.16,72.63 -26.93,48.41 -40.39,115.9 -40.39,202.47 0,85.94 13.46,153.1 40.39,201.52zm562.71 135.15l-100.04 0 0 -111.57 100.04 0 0 111.57zm2874.09 -673.31l393.41 0 0 94.26 -168.34 144.28 0 20.2c59.64,1.28 107.9,19.87 144.76,55.79 36.88,35.9 55.31,85.61 55.31,149.09 0,68.61 -22.12,122.8 -66.37,162.56 -44.24,39.76 -101.31,59.64 -171.21,59.64 -67.33,0 -122.47,-18.92 -165.44,-56.75 -42.96,-37.84 -66.37,-85.94 -70.22,-144.28l84.64 0c3.85,37.83 19.72,68.3 47.61,91.37 27.89,23.09 62.36,34.63 103.4,34.63 46.81,0 84.01,-13.15 111.59,-39.44 27.57,-26.3 41.35,-62.2 41.35,-107.73 0,-44.89 -13.14,-79.99 -39.44,-105.33 -26.29,-25.33 -63.8,-37.99 -112.54,-37.99 -23.72,0 -43.28,1.93 -58.68,5.77l0 -89.45 164.48 -142.36 0 -21.16 -294.33 0 0 -73.1zm1968.01 527.1l81.77 0c-9.62,48.74 -32.23,87.38 -67.81,115.91 -35.59,28.54 -80.96,42.81 -136.11,42.81 -73.1,0 -130.66,-23.89 -172.66,-71.67 -42,-47.77 -63,-108.85 -63,-183.24 0,-75.03 20.84,-136.26 62.52,-183.71 41.68,-47.46 99.4,-71.18 173.14,-71.18 55.79,0 101.16,13.95 136.11,41.85 34.94,27.89 56.59,64.92 64.92,111.09l-81.76 0c-17.32,-54.51 -57.08,-81.76 -119.28,-81.76 -51.94,0 -90.58,17.15 -115.91,51.45 -25.32,34.31 -37.99,77.76 -37.99,130.34 0,53.22 12.83,97.47 38.48,132.74 25.65,35.27 64.13,52.9 115.43,52.9 67.98,0 108.7,-29.17 122.16,-87.53zm203.92 146.21l0 -484.79 129.85 0 119.28 221.23 21.15 0 119.28 -221.23 127.92 0 0 484.79 -79.83 0 0 -389.56 -21.16 0 -112.54 207.76 -90.42 0 -112.54 -207.76 -21.16 0 0 389.56 -79.83 0zm-4851.73 -599.25c44.89,-58.36 104.84,-87.53 179.87,-87.53 75.04,0 135.15,29.34 180.36,88.01 45.21,58.68 67.8,146.05 67.8,262.11 0,116.07 -22.6,203.28 -67.8,261.64 -45.22,58.35 -105.33,87.53 -180.36,87.53 -75.03,0 -134.98,-29.18 -179.87,-87.53 -44.89,-58.36 -67.33,-145.56 -67.33,-261.64 0,-116.71 22.44,-204.24 67.33,-262.59zm57.71 464.1c26.93,48.41 67.66,72.63 122.16,72.63 54.51,0 95.39,-24.22 122.65,-72.63 27.25,-48.41 40.87,-115.58 40.87,-201.52 0,-86.57 -13.62,-154.06 -40.87,-202.47 -27.26,-48.42 -68.14,-72.63 -122.65,-72.63 -54.5,0 -95.23,24.21 -122.16,72.63 -26.93,48.41 -40.39,115.9 -40.39,202.47 0,85.94 13.46,153.1 40.39,201.52zm1093.67 135.15l-120.24 -202.96 -34.62 0 -123.12 202.96 -89.46 0 151.01 -248.17 -135.62 -236.62 86.57 0 111.57 192.38 34.62 0 113.5 -192.38 85.61 0 -137.54 233.73 150.05 251.05 -92.34 0zm452.08 0l0 -75.03 159.67 0 0 -509.8 -19.24 0 -141.39 95.23 0 -88.49 140.43 -95.23 104.84 0 0 598.29 147.17 0 0 75.03 -391.49 0zm732.95 -453.04c65.41,0 117.83,21.48 157.26,64.44 39.44,42.96 59.16,96.51 59.16,160.63 0,72.46 -21.32,130.66 -63.96,174.58 -42.64,43.93 -98.27,65.89 -166.89,65.89 -71.17,0 -127.12,-18.6 -167.84,-55.79 -40.72,-37.2 -63,-85.61 -66.85,-145.25l83.68 0c5.13,41.04 20.53,72.3 46.18,93.78 25.64,21.48 59.31,32.23 100.99,32.23 44.89,0 81.12,-14.6 108.69,-43.77 27.58,-29.17 41.36,-68.45 41.36,-117.82 0,-46.81 -13.31,-84.81 -39.92,-113.98 -26.61,-29.18 -62.35,-43.77 -107.24,-43.77 -60.28,0 -104.84,21.16 -133.7,63.48l-84.64 0 29.81 -354.93 384.76 0 0 73.1 -316.46 0 -15.39 194.3 21.16 0c34.62,-31.43 77.9,-47.13 129.85,-47.13zm988.82 453.04l-100.04 0 0 -111.57 100.04 0 0 111.57zm167.36 -599.25c44.89,-58.36 104.84,-87.53 179.87,-87.53 75.04,0 135.15,29.34 180.36,88.01 45.21,58.68 67.8,146.05 67.8,262.11 0,116.07 -22.6,203.28 -67.8,261.64 -45.22,58.35 -105.33,87.53 -180.36,87.53 -75.03,0 -134.98,-29.18 -179.87,-87.53 -44.89,-58.36 -67.33,-145.56 -67.33,-261.64 0,-116.71 22.44,-204.24 67.33,-262.59zm57.71 464.1c26.93,48.41 67.66,72.63 122.16,72.63 54.51,0 95.39,-24.22 122.65,-72.63 27.25,-48.41 40.87,-115.58 40.87,-201.52 0,-86.57 -13.62,-154.06 -40.87,-202.47 -27.26,-48.42 -68.14,-72.63 -122.65,-72.63 -54.5,0 -95.23,24.21 -122.16,72.63 -26.93,48.41 -40.39,115.9 -40.39,202.47 0,85.94 13.46,153.1 40.39,201.52z"/>
 </g>
 <g id="Выносные_x0020_линии">
  <metadata id="CorelCorpID_3Corel-Layer"/>
  <g id="_2238613625904">
   <line fill="none" stroke="gray" stroke-width="11.58" stroke-miterlimit="22.9256" x1="711.69" y1="5744.42" x2="2123.87" y2= "5744.42" />
   <line fill="none" stroke="gray" stroke-width="11.58" stroke-miterlimit="22.9256" x1="708.24" y1="458.72" x2="2123.87" y2= "458.72" />
   <line fill="none" stroke="gray" stroke-width="11.58" stroke-miterlimit="22.9256" x1="1242.38" y1="6270.96" x2="1242.38" y2= "0" />
  </g>
  <g id="_2238613629744">
   <line fill="none" stroke="gray" stroke-width="11.58" stroke-miterlimit="22.9256" x1="17392.15" y1="19755.47" x2="17392.15" y2= "18343.28" />
   <line fill="none" stroke="gray" stroke-width="11.58" stroke-miterlimit="22.9256" x1="2377.83" y1="19758.93" x2="2377.83" y2= "18343.28" />
   <line fill="none" stroke="gray" stroke-width="11.58" stroke-miterlimit="22.9256" x1="17877.83" y1="19224.78" x2="1847.13" y2= "19224.78" />
  </g>
  <g id="_2238613632864">
   <line fill="none" stroke="gray" stroke-width="11.58" stroke-miterlimit="22.9256" x1="711.69" y1="14244.82" x2="2123.87" y2= "14244.82" />
   <line fill="none" stroke="gray" stroke-width="11.58" stroke-miterlimit="22.9256" x1="708.24" y1="8242.48" x2="2123.87" y2= "8242.48" />
   <line fill="none" stroke="gray" stroke-width="11.58" stroke-miterlimit="22.9256" x1="1242.38" y1="14800.56" x2="1242.38" y2= "7783.76" />
  </g>
 </g>
</svg>
