<?xml version="1.0" encoding="UTF-8"?>
<!DOCTYPE svg PUBLIC "-//W3C//DTD SVG 1.1//EN" "http://www.w3.org/Graphics/SVG/1.1/DTD/svg11.dtd">
<!-- Creator: CorelDRAW 2021.5 -->
<svg xmlns="http://www.w3.org/2000/svg" xml:space="preserve" width="170.086mm" height="125.227mm" version="1.1" shape-rendering="geometricPrecision" text-rendering="geometricPrecision" image-rendering="optimizeQuality" fill-rule="evenodd" clip-rule="evenodd"
viewBox="0 0 17007.58 12521.94"
 xmlns:xlink="http://www.w3.org/1999/xlink"
 xmlns:xodm="http://www.corel.com/coreldraw/odm/2003">
 <g id="Тени">
  <metadata id="CorelCorpID_0Corel-Layer"/>
  <g id="_2237747807296">
   <rect fill="#E6E6E6" x="16661.16" y="4218.6" width="346.42" height="41.34"/>
   <g>
    <path fill="black" fill-opacity="0.101961" d="M2937.02 9034.07c44.55,-772.55 291.05,-996.94 553.65,-1010.91 27.96,-1.5 58.28,-2.79 90.43,-3.9 -220.46,-45.55 -406.86,-103.39 -523.17,-160.8 -131.16,-64.71 -171.64,-244.7 -160.34,-313.59l19.56 -389.25c4.09,-81.21 124.02,-169.06 67.03,-160.28l-104.51 16.14 -15.34 103.48 0 3239.48c34.24,-876.94 29.17,-565.52 72.7,-1320.38zm2304.02 -986.07c156.09,9.38 265.39,19.85 294.15,30.22 277.41,99.97 471.59,259.91 515.6,999.23 19.96,335.57 72.97,1277 72.97,1277 0,-1735.17 7.15,-2791.76 9.49,-2805.97l-9.49 -384.12c-1.41,-57.8 -1.66,-112.67 -22.55,-155.37l-143.17 -0.62c52.32,7.4 91.49,70.94 94.05,147.25l13.03 389.25c0.45,13.21 0.94,43.86 -1.21,55.96l-2.14 25.96c-5.17,73.55 0.81,135.67 -131.24,222.4 -129.79,85.24 -385.93,153.74 -689.49,198.82z"/>
    <path fill="black" fill-opacity="0.101961" d="M3351.21 377.42c514.32,61.74 673.09,182.35 1084.63,188.94 438.64,7.02 563.61,-94.46 1245.93,-202.55 -383.68,8.54 -759.07,30.28 -1142.76,38.84l-1187.81 -25.23z"/>
    <polygon fill="black" fill-opacity="0.101961" points="2870.69,2531.2 2892.07,2413.69 2996.88,2400.48 3000.52,3235.59 6014.54,3235.59 6019.97,2400.48 6102.02,2394.62 6142.52,2475.59 6143.66,3235.59 6149.79,3235.59 6149.79,3430.51 6143.95,3430.51 6145.04,4149.09 6008.62,4149.09 6013.29,3430.51 3001.38,3430.51 3004.58,4160.56 2868.17,4160.56 "/>
    <path fill="black" fill-opacity="0.101961" d="M3293.74 2346.88c678.38,-121.33 697.66,-196.44 1196.71,-197.37 438.63,-0.81 480.38,91.86 1131.64,170.15 -383.69,-7.06 -761.5,-8.15 -1145.18,-15.24l-1183.17 42.46z"/>
    <polygon fill="black" fill-opacity="0.101961" points="9323.46,1465.91 10307.93,1465.91 10307.93,1637.53 9323.46,1637.53 "/>
    <g>
     <path fill="none" stroke="black" stroke-width="10.58" stroke-miterlimit="22.9256" d="M7041.91 1602.85l-740.01 0c-16.28,0 -37.65,5.62 -52.44,9.43 -93,20.52 -110.62,141.86 -99.42,365.1 9.65,192.21 -2.7,1632.45 -2.7,1742.72 0,273.52 16.24,392.64 97.94,415.22 19.67,7.76 23.7,11.16 56.62,11.16l740.01 0c31.81,0 34.98,-4.81 54.71,-9.6 81.68,-22.49 97.94,-140.96 97.94,-413.09 0,-109.7 -12.35,-1542.49 -2.7,-1733.71 11.2,-222.08 -13.01,-360.39 -106.02,-380.82 -15.75,-5.1 -25.83,-6.41 -43.93,-6.41z"/>
     <path fill="none" stroke="black" stroke-width="10.58" stroke-miterlimit="22.9256" d="M2928.99 2400.48c1080.05,0 2063.89,0 3143.99,0 41.77,0 70.57,41.68 70.57,92.49l0 647.47c0,50.89 -14.73,92.5 -32.73,92.5l-3208.13 0c-18,0 -32.73,-41.62 -32.73,-92.5l0 -647.47c0,-50.86 23.88,-92.49 59.04,-92.49z"/>
     <rect fill="none" stroke="black" stroke-width="10.58" stroke-miterlimit="22.9256" x="2870.12" y="3235.6" width="3277.28" height="924.96" rx="19.08" ry="46.25"/>
     <rect fill="none" stroke="black" stroke-width="10.58" stroke-miterlimit="22.9256" x="3037.18" y="4159.15" width="924.96" height="138.74"/>
     <rect fill="none" stroke="black" stroke-width="10.58" stroke-miterlimit="22.9256" x="5057.28" y="4164.6" width="924.96" height="138.74"/>
     <path fill="none" stroke="black" stroke-width="10.58" stroke-miterlimit="22.9256" d="M2861.03 1852.29l-3.21 -1127.06c-0.57,-64.97 3.75,-101.33 13.95,-121.01 3.47,-6.68 13.49,-15.11 23.48,-17.33m3223.43 5.69c31.11,16.45 32.45,73.24 29.4,152.74l0.62 1238.98"/>
     <path fill="none" stroke="black" stroke-width="10.58" stroke-miterlimit="22.9256" d="M3058.38 361.33c479.91,0 906.35,27.43 1386.26,27.43 486.4,0 1046.17,-26.69 1532.57,-26.69 88.58,0 135.24,39.86 135.24,161.95 0,210.79 -23.28,608.1 -23.28,818.9 0,295.62 26.98,519.47 26.98,815.1 0,122.09 -25.78,169.28 -114.35,169.28 -512.32,0 -1062.83,-22.94 -1575.13,-22.94 -485.61,0 -985.64,48.95 -1459.27,48.95 -88.59,0 -70.08,-128.68 -70.08,-250.77 0,-255.44 21.75,-478.02 21.75,-733.45 0,-250.98 -21.75,-628.04 -21.75,-879.01 0,-122.12 72.49,-128.74 161.06,-128.74z"/>
     <path fill="none" stroke="black" stroke-width="10.58" stroke-miterlimit="22.9256" d="M2712.17 1650.25l-740 0c-16.29,0 -37.65,5.62 -52.44,9.43 -93.01,20.52 -110.62,141.86 -99.42,365.1 9.65,192.21 -2.7,1632.45 -2.7,1742.72 0,273.52 16.24,392.64 97.94,415.22 19.67,7.76 23.7,11.16 56.62,11.16l740 0c31.82,0 34.99,-4.81 54.72,-9.6 81.68,-22.49 97.94,-140.96 97.94,-413.09 0,-109.7 -12.35,-1542.49 -2.7,-1733.71 11.2,-222.08 -13.01,-360.39 -106.02,-380.82 -15.75,-5.1 -25.83,-6.41 -43.94,-6.41z"/>
    </g>
    <g>
     <path fill="none" stroke="black" stroke-width="10.58" stroke-miterlimit="22.9256" d="M13703.36 2332.81l2.4 0c85.2,0 154.91,69.71 154.91,154.91l0 628.46c0,85.2 -69.71,154.91 -154.91,154.91"/>
     <rect fill="none" stroke="black" stroke-width="10.58" stroke-miterlimit="22.9256" x="13360.14" y="4178.3" width="159.07" height="138.74"/>
     <rect fill="none" stroke="black" stroke-width="10.58" stroke-miterlimit="22.9256" x="9486.9" y="4186.36" width="159.07" height="138.74"/>
     <path fill="none" stroke="black" stroke-width="10.58" stroke-miterlimit="22.9256" d="M10483.03 1637.53l-40.87 -1059.96c-3.56,-92.87 -22.28,-186.18 110.26,-191.67l391.2 -16.27c35.17,-1.46 130.86,-4.41 136.46,140.95l43.42 1126.95"/>
     <path fill="none" stroke="black" stroke-width="10.58" stroke-miterlimit="22.9256" d="M10507.61 392.41c-120.18,9.6 -223.77,158.35 -207.51,285.15"/>
     <path fill="none" stroke="black" stroke-width="10.58" stroke-miterlimit="22.9256" d="M10972.07 369.88c171.83,-5.8 254.8,290.21 260.89,347.95 30.61,290.79 47.02,860.6 49.38,919.7"/>
     <rect fill="none" stroke="black" stroke-width="10.58" stroke-miterlimit="22.9256" transform="matrix(1.80452E-14 -1.89742 0.91551 6.75226E-14 9319.05 4181.16)" width="1340.58" height="4788.93" rx="19.5" ry="19.5"/>
     <path fill="none" fill-rule="nonzero" stroke="black" stroke-width="10.58" stroke-miterlimit="22.9256" d="M9319.05 1680.9c-3.97,-12.36 -1.12,-67.5 -2.72,-89.57 0,-51.31 12.29,-721.35 2.7,-810.72 -9.42,-87.76 24.56,-166.31 109.05,-190.16 11.22,-4.85 26.57,-5.36 39.53,-5.36l14.48 0 725.54 0c50.88,0 92.35,41.62 92.47,92.47l2.32 959.97"/>
    </g>
    <g>
     <path fill="none" stroke="black" stroke-width="10.58" stroke-miterlimit="22.9256" d="M6220.01 10478.92c-77.34,-39.56 -92.79,-241.59 -92.79,-705.67 0,-187.09 11.78,-2630.52 2.56,-2956.62 -10.61,-378.73 6.13,-584.61 94.49,-619.75 87.58,-47.95 789.54,-43.49 867.09,-2.39 89.11,32.26 112.15,266.94 101.5,643.66 -9.19,324.44 2.54,2755.25 2.54,2941.39 0,461.63 -15.44,662.67 -93.43,699.73 -79.61,42.35 -810.82,32.45 -881.96,-0.35z"/>
     <path fill="none" stroke="black" stroke-width="10.58" stroke-miterlimit="22.9256" d="M6160.66 6281.65c-10.91,-121.58 -272.82,-117.89 -496.61,-114.35 -249.38,9.73 -2117.83,-2.75 -2260.9,-2.75 -261.57,0.43 -532.87,-14.76 -548.46,128.62"/>
     <path fill="none" stroke="black" stroke-width="10.58" stroke-miterlimit="22.9256" d="M2787.88 10483.26c77.34,-39.68 92.79,-242.3 92.79,-707.76 0,-187.63 -11.78,-2638.27 -2.56,-2965.33 10.61,-379.85 -6.13,-586.34 -94.49,-621.58 -87.58,-48.09 -789.54,-43.62 -867.08,-2.4 -89.12,32.36 -112.16,267.72 -101.51,645.56 9.19,325.39 -2.54,2763.38 -2.54,2950.06 0,463 15.44,664.64 93.43,701.81 79.61,42.47 810.82,32.53 881.96,-0.36z"/>
     <rect fill="none" stroke="black" stroke-width="10.58" stroke-miterlimit="22.9256" x="2877.39" y="6995.36" width="3246.36" height="3601.22" rx="26.75" ry="75.03"/>
     <path fill="none" stroke="black" stroke-width="10.58" stroke-miterlimit="22.9256" d="M6064.47 7584.49c-5.16,73.54 -0.9,179.45 -132.97,266.19 -234.44,153.98 -880.8,253.32 -1474.85,258.63 -549.57,4.92 -1142.48,-123.37 -1397.75,-249.35 -131.16,-64.72 -171.64,-244.72 -160.33,-313.6"/>
     <path fill="none" stroke="black" stroke-width="10.58" stroke-miterlimit="22.9256" d="M3026.69 6999.65l2926.33 0c57.37,0 101.58,66.76 104.3,147.99l13.04 389.25c2.72,81.25 -47.01,144.28 -104.3,147.99 -528.41,42.1 -962.61,42.46 -1538.67,53.24 -561.93,10.52 -904.13,-11.47 -1420.25,-53.24 -57.31,-3.71 -108.38,-66.79 -104.3,-147.99l19.56 -389.25c4.08,-81.2 46.93,-147.99 104.29,-147.99z"/>
    </g>
    <path fill="#666666" fill-rule="nonzero" fill-opacity="0.800000" d="M9737.04 6456.77l0 15.89c21.68,10.12 39.14,26.02 52.39,47.7 13.25,21.68 19.87,45.52 19.87,71.54 0,43.35 -14.93,78.4 -44.8,105.13 -29.87,26.73 -73.22,40.1 -130.06,40.1l-230.5 0 0 -515.91 224.72 0c52.51,0 93.09,12.4 121.75,37.21 28.66,24.81 42.99,56 42.99,93.57 0,49.62 -18.78,84.53 -56.36,104.77zm-268.07 -177.75l0 161.13 158.24 0c66.97,0 100.44,-27.46 100.44,-82.37 0,-26.98 -9.64,-46.85 -28.91,-59.62 -19.27,-12.76 -43.6,-19.14 -72.98,-19.14l-156.8 0zm0 400.3l161.13 0c33.24,0 60.46,-7.1 81.65,-21.32 21.2,-14.21 31.79,-37.93 31.79,-71.17 0,-31.32 -10.47,-54.08 -31.43,-68.29 -20.96,-14.21 -48.05,-21.32 -81.28,-21.32l-161.86 0 0 182.09zm434.98 -306.37l61.43 0 0 121.39 100.43 0c43.84,0 77.68,10.6 101.52,31.8 23.84,21.19 35.76,50.82 35.76,88.87 0,38.54 -11.92,68.53 -35.76,89.95 -23.85,21.44 -57.69,32.16 -101.52,32.16l-161.86 0 0 -364.18zm61.43 173.42l0 137.29 91.76 0c30.35,0 52.03,-5.78 65.03,-17.35 13.01,-11.56 19.51,-28.66 19.51,-51.3 0,-22.64 -6.5,-39.74 -19.51,-51.31 -13,-11.56 -34.68,-17.34 -65.03,-17.34l-91.76 0zm296.25 -173.42l61.42 0 0 364.18 -61.42 0 0 -364.18zm426.3 254.34l61.43 0c-7.23,36.62 -24.21,65.64 -50.95,87.07 -26.73,21.44 -60.82,32.15 -102.24,32.15 -54.92,0 -98.14,-17.94 -129.7,-53.83 -31.55,-35.89 -47.33,-81.77 -47.33,-137.65 0,-56.36 15.66,-102.36 46.97,-138.01 31.32,-35.64 74.67,-53.47 130.06,-53.47 41.91,0 76,10.48 102.24,31.43 26.26,20.96 42.52,48.78 48.78,83.46l-61.42 0c-13.01,-40.95 -42.88,-61.43 -89.6,-61.43 -39.02,0 -68.04,12.89 -87.06,38.66 -19.03,25.78 -28.55,58.41 -28.55,97.91 0,39.98 9.64,73.22 28.91,99.71 19.27,26.49 48.17,39.74 86.7,39.74 51.07,0 81.65,-21.92 91.76,-65.76zm178.84 -209.54c32.03,-36.13 75.75,-54.2 131.14,-54.2 55.4,0 99.11,18.07 131.14,54.2 32.04,36.13 48.06,81.88 48.06,137.28 0,55.4 -16.02,101.16 -48.06,137.29 -32.03,36.13 -75.75,54.19 -131.14,54.19 -55.4,0 -99.11,-18.06 -131.14,-54.19 -32.04,-36.13 -48.06,-81.89 -48.06,-137.29 0,-55.4 16.02,-101.15 48.06,-137.28zm43.71 235.2c20.24,26.73 49.38,40.1 87.43,40.1 38.06,0 67.2,-13.37 87.43,-40.1 20.23,-26.74 30.35,-59.38 30.35,-97.91 0,-38.54 -10.12,-71.17 -30.35,-97.9 -20.24,-26.74 -49.38,-40.11 -87.43,-40.11 -38.06,0 -67.2,13.37 -87.43,40.11 -20.23,26.74 -30.35,59.37 -30.35,97.9 0,38.54 10.12,71.18 30.35,97.91zm317.93 -226.53l0 -53.48 313.59 0 0 53.48 -125.72 0 0 310.7 -61.42 0 0 -310.7 -126.45 0zm626.46 310.7l0 -38.3 -15.9 0c-25.05,31.8 -62.86,47.69 -113.44,47.69 -39.98,0 -71.77,-11.56 -95.37,-34.68 -23.61,-23.12 -35.41,-51.07 -35.41,-83.81 0,-33.24 11.56,-61.67 34.69,-85.26 23.12,-23.61 58.05,-35.41 104.77,-35.41l118.49 0 0 -14.45c0,-23.13 -7.22,-41.55 -21.67,-55.28 -14.46,-13.73 -36.86,-20.6 -67.21,-20.6 -52.99,0 -81.16,17.59 -84.53,52.75l-61.42 0c2.4,-33.24 16.74,-59.25 42.99,-78.04 26.26,-18.79 60.1,-28.18 101.52,-28.18 46.73,0 83.45,10.84 110.19,32.52 26.73,21.68 40.1,52.75 40.1,93.2l0 247.84 -57.81 0zm-114.16 -44.08c30.35,0 56.6,-10 78.76,-29.99 22.16,-19.99 33.24,-44.44 33.24,-73.34l0 -33.24 -109.1 0c-58.29,0 -87.43,23.12 -87.43,69.37 0,20.71 7.35,37.09 22.04,49.14 14.7,12.04 35.53,18.06 62.51,18.06zm-2096.88 723.36l61.43 0c-7.23,36.62 -24.21,65.64 -50.95,87.07 -26.73,21.44 -60.82,32.15 -102.24,32.15 -54.92,0 -98.14,-17.94 -129.7,-53.83 -31.55,-35.89 -47.33,-81.77 -47.33,-137.65 0,-56.36 15.66,-102.36 46.97,-138.01 31.32,-35.64 74.67,-53.47 130.06,-53.47 41.91,0 76,10.48 102.24,31.43 26.26,20.96 42.52,48.78 48.78,83.46l-61.42 0c-13.01,-40.95 -42.88,-61.43 -89.6,-61.43 -39.02,0 -68.04,12.89 -87.06,38.66 -19.03,25.78 -28.55,58.41 -28.55,97.91 0,39.98 9.64,73.22 28.91,99.71 19.27,26.49 48.17,39.74 86.7,39.74 51.07,0 81.65,-21.92 91.76,-65.76zm239.9 109.83l-86.71 0 0 -364.18 59.98 0 0 281.8 15.9 0 159.68 -281.8 89.6 0 0 364.18 -59.98 0 0 -281.8 -15.9 0 -162.57 281.8zm681.38 -53.47l67.2 0 0 156.79 -59.98 0 0 -103.32 -315.04 0 0 103.32 -59.97 0 0 -156.79 48.41 0c29.87,-63.59 44.8,-133.92 44.8,-211l0 -99.71 274.58 0 0 310.71zm-61.43 0l0 -257.23 -156.07 0 0 46.24c0,82.37 -13.25,152.71 -39.74,211l195.81 0zm523.86 -150.3l0 20.96 -277.46 0c0.97,43.84 11.32,77.92 31.07,102.24 19.76,24.33 48.18,36.49 85.26,36.49 50.1,0 80.93,-18.79 92.49,-56.36l62.14 0c-6.26,32.76 -22.76,59.25 -49.5,79.48 -26.73,20.24 -61.78,30.35 -105.13,30.35 -55.4,0 -98.74,-18.06 -130.06,-54.19 -31.31,-36.13 -46.97,-83.09 -46.97,-140.9 0,-56.85 15.66,-102.36 46.97,-136.56 31.32,-34.21 74.19,-51.31 128.62,-51.31 51.54,0 91.28,16.26 119.22,48.78 27.94,32.51 42.39,72.86 43.35,121.02zm-164.02 -116.33c-31.31,0 -56.36,8.07 -75.15,24.21 -18.79,16.14 -30.35,36.73 -34.68,61.78l210.26 0c-1.92,-24.56 -11.8,-45.04 -29.62,-61.42 -17.83,-16.38 -41.43,-24.57 -70.82,-24.57zm583.84 320.1l-61.43 0 0 -160.41 -201.59 0 0 160.41 -61.43 0 0 -364.18 61.43 0 0 150.3 201.59 0 0 -150.3 61.43 0 0 364.18zm630.07 -364.18l181.36 0 0 364.18 -62.14 0 0 -143.79 -110.55 0c-9.63,0 -17.1,-0.24 -22.4,-0.72l-54.92 144.51 -64.31 0 61.42 -158.24c-37.57,-17.83 -56.36,-49.62 -56.36,-95.38 0,-35.16 10.96,-62.38 32.88,-81.64 21.92,-19.27 53.59,-28.91 95.01,-28.91zm119.22 52.03l-112.72 0c-26.49,0 -45.28,5.06 -56.36,15.18 -11.08,10.11 -16.62,24.81 -16.62,44.08 0,18.78 5.54,33 16.62,42.63 11.08,9.64 29.87,14.45 56.36,14.45l112.72 0 0 -116.33zm-1874.32 1101.26l-75.15 0 0 -83.81 75.15 0 0 83.81zm125.73 -450.16c33.72,-43.83 78.76,-65.75 135.11,-65.75 56.37,0 101.52,22.04 135.48,66.12 33.97,44.07 50.95,109.7 50.95,196.9 0,87.18 -16.98,152.7 -50.95,196.54 -33.96,43.83 -79.12,65.75 -135.48,65.75 -56.36,0 -101.39,-21.92 -135.11,-65.75 -33.73,-43.84 -50.59,-109.35 -50.59,-196.54 0,-87.67 16.86,-153.43 50.59,-197.27zm43.35 348.64c20.24,36.37 50.83,54.56 91.76,54.56 40.95,0 71.66,-18.19 92.13,-54.56 20.47,-36.37 30.71,-86.82 30.71,-151.37 0,-65.04 -10.24,-115.73 -30.71,-152.1 -20.48,-36.37 -51.19,-54.56 -92.13,-54.56 -40.94,0 -71.53,18.19 -91.76,54.56 -20.23,36.37 -30.35,87.06 -30.35,152.1 0,64.55 10.12,115 30.35,151.37zm824.45 -8.31l61.43 0c-7.23,36.62 -24.21,65.64 -50.95,87.07 -26.73,21.44 -60.82,32.15 -102.24,32.15 -54.92,0 -98.14,-17.94 -129.7,-53.83 -31.55,-35.89 -47.33,-81.77 -47.33,-137.65 0,-56.36 15.66,-102.36 46.97,-138.01 31.32,-35.64 74.67,-53.47 130.06,-53.47 41.91,0 76,10.48 102.24,31.43 26.26,20.96 42.52,48.78 48.78,83.46l-61.42 0c-13.01,-40.95 -42.88,-61.43 -89.6,-61.43 -39.02,0 -68.04,12.89 -87.06,38.66 -19.03,25.78 -28.55,58.41 -28.55,97.91 0,39.98 9.64,73.22 28.91,99.71 19.27,26.49 48.17,39.74 86.7,39.74 51.07,0 81.65,-21.92 91.76,-65.76zm153.18 109.83l0 -364.18 97.55 0 89.59 166.19 15.9 0 89.59 -166.19 96.1 0 0 364.18 -59.98 0 0 -292.64 -15.9 0 -84.53 156.08 -67.93 0 -84.53 -156.08 -15.9 0 0 292.64 -59.98 0zm158.24 -1153.29l0 121.39 107.65 0c43.84,0 77.69,10.6 101.52,31.8 23.85,21.19 35.77,50.82 35.77,88.87 0,38.54 -11.92,68.53 -35.77,89.95 -23.84,21.44 -57.69,32.16 -101.52,32.16l-169.08 0 0 -364.18 61.43 0zm0 310.71l98.98 0c30.35,0 52.03,-5.78 65.04,-17.35 13.01,-11.56 19.51,-28.66 19.51,-51.3 0,-22.64 -6.5,-39.74 -19.51,-51.31 -13.01,-11.56 -34.69,-17.34 -65.04,-17.34l-98.98 0 0 137.29zm820.83 53.47l-75.15 0 0 -83.81 75.15 0 0 83.81zm0 -280.35l-75.15 0 0 -83.82 75.15 0 0 83.82zm-2769.59 894.6l69.37 0 0 56.36 -69.37 0 0 118.5 -62.15 0 0 -118.5 -250 0 0 -72.26 223.28 -315.04 88.87 0 0 330.94zm-245.67 0l184.26 0 0 -259.4 -15.9 0 -168.36 243.5 0 15.9zm404.65 -330.94l295.52 0 0 70.82 -126.44 108.38 0 15.18c44.8,0.96 81.04,14.93 108.74,41.91 27.7,26.97 41.55,64.31 41.55,111.99 0,51.55 -16.62,92.24 -49.86,122.11 -33.24,29.87 -76.12,44.8 -128.61,44.8 -50.59,0 -92.01,-14.21 -124.28,-42.63 -32.28,-28.42 -49.86,-64.55 -52.75,-108.38l63.59 0c2.89,28.42 14.81,51.3 35.76,68.65 20.96,17.34 46.85,26.01 77.69,26.01 35.16,0 63.1,-9.88 83.81,-29.63 20.71,-19.75 31.07,-46.73 31.07,-80.93 0,-33.72 -9.88,-60.1 -29.63,-79.12 -19.75,-19.03 -47.93,-28.55 -84.53,-28.55 -17.83,0 -32.52,1.45 -44.08,4.34l0 -67.2 123.55 -106.94 0 -15.9 -221.1 0 0 -54.92z"/>
    <path fill="#666666" fill-rule="nonzero" fill-opacity="0.800000" d="M3121.65 12512.55l0 -56.36 119.95 0 0 -382.97 -14.45 0 -106.22 71.54 0 -66.48 105.49 -71.54 78.77 0 0 449.44 110.55 0 0 56.36 -294.09 0zm364.18 0l0 -56.36 119.95 0 0 -382.97 -14.45 0 -106.22 71.54 0 -66.48 105.49 -71.54 78.77 0 0 449.44 110.55 0 0 56.36 -294.09 0zm423.43 -366.34l-63.59 0c2.89,-48.66 19.87,-85.74 50.94,-111.28 31.07,-25.53 70.22,-38.29 117.42,-38.29 49.13,0 88.75,13.36 118.86,40.1 30.1,26.74 45.16,64.67 45.16,113.8 0,59.74 -37.34,120.67 -112,182.81l-127.16 106.94 0 15.9 255.06 0 0 56.36 -347.56 0 0 -71.54 74.43 -60.7c46.25,-37.09 84.54,-69.61 114.88,-97.54 11.57,-10.12 20.84,-18.79 27.83,-26.01 6.98,-7.23 14.93,-16.74 23.84,-28.55 8.91,-11.8 15.66,-24.2 20.23,-37.21 4.58,-13.01 6.87,-26.5 6.87,-40.47 0,-31.31 -9.15,-55.4 -27.46,-72.26 -18.31,-16.86 -43.12,-25.29 -74.43,-25.29 -29.38,0 -53.11,7.83 -71.18,23.48 -18.06,15.66 -28.78,38.91 -32.15,69.74zm449.43 366.34l-75.15 0 0 -83.81 75.15 0 0 83.81zm125.73 -450.16c33.72,-43.83 78.76,-65.75 135.11,-65.75 56.37,0 101.52,22.04 135.48,66.12 33.97,44.07 50.95,109.7 50.95,196.9 0,87.18 -16.98,152.7 -50.95,196.54 -33.96,43.83 -79.12,65.75 -135.48,65.75 -56.36,0 -101.39,-21.92 -135.11,-65.75 -33.73,-43.84 -50.59,-109.35 -50.59,-196.54 0,-87.67 16.86,-153.43 50.59,-197.27zm43.35 348.64c20.24,36.37 50.83,54.56 91.76,54.56 40.95,0 71.66,-18.19 92.13,-54.56 20.47,-36.37 30.71,-86.82 30.71,-151.37 0,-65.04 -10.24,-115.73 -30.71,-152.1 -20.48,-36.37 -51.19,-54.56 -92.13,-54.56 -40.94,0 -71.53,18.19 -91.76,54.56 -20.23,36.37 -30.35,87.06 -30.35,152.1 0,64.55 10.12,115 30.35,151.37zm824.45 -8.31l61.43 0c-7.23,36.62 -24.21,65.64 -50.95,87.07 -26.73,21.44 -60.82,32.15 -102.24,32.15 -54.92,0 -98.14,-17.94 -129.7,-53.83 -31.55,-35.89 -47.33,-81.77 -47.33,-137.65 0,-56.36 15.66,-102.36 46.97,-138.01 31.32,-35.64 74.67,-53.47 130.06,-53.47 41.91,0 76,10.48 102.24,31.43 26.26,20.96 42.52,48.78 48.78,83.46l-61.42 0c-13.01,-40.95 -42.88,-61.43 -89.6,-61.43 -39.02,0 -68.04,12.89 -87.06,38.66 -19.03,25.78 -28.55,58.41 -28.55,97.91 0,39.98 9.64,73.22 28.91,99.71 19.27,26.49 48.17,39.74 86.7,39.74 51.07,0 81.65,-21.92 91.76,-65.76zm153.18 109.83l0 -364.18 97.55 0 89.59 166.19 15.9 0 89.59 -166.19 96.1 0 0 364.18 -59.98 0 0 -292.64 -15.9 0 -84.53 156.08 -67.93 0 -84.53 -156.08 -15.9 0 0 292.64 -59.98 0z"/>
    <path fill="#666666" fill-rule="nonzero" fill-opacity="0.800000" d="M241.34 3226.84l15.9 0c6.74,-19.75 20.83,-37.82 42.27,-54.2 21.44,-16.38 47.57,-24.57 78.4,-24.57 42.39,0 77.56,16.74 105.49,50.23 27.94,33.48 41.91,77.68 41.91,132.58 0,54.92 -13.97,99.11 -41.91,132.59 -27.94,33.48 -63.11,50.22 -105.49,50.22 -30.35,0 -56.36,-8.19 -78.04,-24.56 -21.68,-16.38 -35.89,-34.45 -42.63,-54.2l-15.9 0c-6.75,15.9 -19.51,30.47 -38.3,43.72 -18.79,13.25 -41.43,19.87 -67.93,19.87 -39.98,0 -72.5,-15.66 -97.54,-46.97 -25.05,-31.31 -37.57,-71.54 -37.57,-120.67 0,-49.13 12.52,-89.35 37.57,-120.66 25.05,-31.32 57.57,-46.97 97.54,-46.97 25.54,0 47.94,6.74 67.21,20.23 19.27,13.49 32.27,27.94 39.02,43.36zm-164.39 28.54c-14.69,19.99 -22.04,45.16 -22.04,75.51 0,30.35 7.35,55.52 22.04,75.52 14.7,19.99 35.05,29.99 61.06,29.99 26.02,0 46.49,-10 61.43,-29.99 14.93,-20 22.4,-45.17 22.4,-75.52 0,-30.35 -7.47,-55.52 -22.4,-75.51 -14.94,-19.99 -35.41,-29.99 -61.43,-29.99 -26.01,0 -46.36,10 -61.06,29.99zm365.63 163.3c17.58,-21.44 26.37,-50.7 26.37,-87.79 0,-37.09 -8.79,-66.36 -26.37,-87.78 -17.59,-21.44 -41.07,-32.16 -70.46,-32.16 -29.87,0 -53.23,10.6 -70.09,31.8 -16.86,21.19 -25.29,50.58 -25.29,88.14 0,37.58 8.43,66.97 25.29,88.15 16.86,21.2 40.22,31.8 70.09,31.8 29.39,0 52.87,-10.72 70.46,-32.16zm-36.5 -1884.8l0 -61.43c36.62,7.23 65.64,24.21 87.07,50.95 21.44,26.73 32.15,60.82 32.15,102.24 0,54.92 -17.94,98.14 -53.83,129.7 -35.89,31.55 -81.77,47.33 -137.65,47.33 -56.36,0 -102.36,-15.66 -138.01,-46.97 -35.64,-31.32 -53.47,-74.67 -53.47,-130.06 0,-41.91 10.48,-76 31.43,-102.24 20.96,-26.26 48.78,-42.52 83.46,-48.78l0 61.42c-40.95,13.01 -61.43,42.88 -61.43,89.6 0,39.02 12.89,68.04 38.66,87.06 25.78,19.03 58.41,28.55 97.91,28.55 39.98,0 73.22,-9.64 99.71,-28.91 26.49,-19.27 39.74,-48.17 39.74,-86.7 0,-51.07 -21.92,-81.65 -65.76,-91.76zm109.83 -153.18l-364.18 0 0 -97.55 166.19 -89.59 0 -15.9 -166.19 -89.59 0 -96.1 364.18 0 0 59.98 -292.64 0 0 15.9 156.08 84.53 0 67.93 -156.08 84.53 0 15.9 292.64 0 0 59.98zm-450.16 1638.77c-43.83,-33.72 -65.75,-78.76 -65.75,-135.11 0,-56.37 22.04,-101.52 66.12,-135.48 44.07,-33.97 109.7,-50.95 196.9,-50.95 87.18,0 152.7,16.98 196.54,50.95 43.83,33.96 65.75,79.12 65.75,135.48 0,56.36 -21.92,101.39 -65.75,135.11 -43.84,33.73 -109.35,50.59 -196.54,50.59 -87.67,0 -153.43,-16.86 -197.27,-50.59zm348.64 -43.35c36.37,-20.24 54.56,-50.83 54.56,-91.76 0,-40.95 -18.19,-71.66 -54.56,-92.13 -36.37,-20.47 -86.82,-30.71 -151.37,-30.71 -65.04,0 -115.73,10.24 -152.1,30.71 -36.37,20.48 -54.56,51.19 -54.56,92.13 0,40.94 18.19,71.53 54.56,91.76 36.37,20.23 87.06,30.35 152.1,30.35 64.55,0 115,-10.12 151.37,-30.35zm101.52 -448.71l0 75.15 -83.81 0 0 -75.15 83.81 0zm-450.16 -125.73c-43.83,-33.72 -65.75,-78.76 -65.75,-135.11 0,-56.37 22.04,-101.52 66.12,-135.48 44.07,-33.97 109.7,-50.95 196.9,-50.95 87.18,0 152.7,16.98 196.54,50.95 43.83,33.96 65.75,79.12 65.75,135.48 0,56.36 -21.92,101.39 -65.75,135.11 -43.84,33.73 -109.35,50.59 -196.54,50.59 -87.67,0 -153.43,-16.86 -197.27,-50.59zm348.64 -43.35c36.37,-20.24 54.56,-50.83 54.56,-91.76 0,-40.95 -18.19,-71.66 -54.56,-92.13 -36.37,-20.47 -86.82,-30.71 -151.37,-30.71 -65.04,0 -115.73,10.24 -152.1,30.71 -36.37,20.48 -54.56,51.19 -54.56,92.13 0,40.94 18.19,71.53 54.56,91.76 36.37,20.23 87.06,30.35 152.1,30.35 64.55,0 115,-10.12 151.37,-30.35z"/>
    <path fill="#666666" fill-rule="nonzero" fill-opacity="0.800000" d="M338.88 9572.39c0,46.25 -15.54,84.78 -46.61,115.61 -31.07,30.83 -70.45,46.25 -118.13,46.25 -49.62,0 -91.04,-15.54 -124.28,-46.61 -33.24,-31.07 -49.86,-72.86 -49.86,-125.36 0,-57.33 19.75,-102.6 59.25,-135.84 39.5,-33.24 102.6,-49.86 189.31,-49.86 81.41,0 147.89,16.25 199.43,48.77 51.55,32.52 77.32,80.33 77.32,143.43 0,41.91 -11.2,76.24 -33.6,102.96 -22.4,26.74 -51.42,43 -87.06,48.78l0 -62.87c42.87,-12.52 64.31,-42.15 64.31,-88.87 0,-39.98 -15.9,-71.3 -47.69,-93.93 -31.8,-22.64 -75.64,-34.93 -131.51,-36.85l0 15.9c13.01,10.59 24.45,26.13 34.33,46.6 9.87,20.48 14.81,44.44 14.81,71.9zm-251.45 -90.31c-20.71,21.19 -31.07,47.69 -31.07,79.48 0,31.8 10.12,57.93 30.35,78.41 20.23,20.47 48.41,30.71 84.54,30.71 36.13,0 63.83,-10.36 83.09,-31.07 19.26,-20.72 28.9,-47.21 28.9,-79.49 0,-31.8 -9.88,-58.05 -29.63,-78.77 -19.75,-20.71 -46.97,-31.07 -81.64,-31.07 -35.65,0 -63.83,10.6 -84.54,31.8zm98.99 -380.8c0,-46.25 15.54,-84.78 46.61,-115.61 31.07,-30.83 70.45,-46.25 118.13,-46.25 49.62,0 91.04,15.54 124.28,46.61 33.24,31.08 49.86,72.87 49.86,125.37 0,57.32 -19.75,102.6 -59.25,135.84 -39.5,33.24 -102.6,49.86 -189.31,49.86 -81.41,0 -147.89,-16.26 -199.43,-48.78 -51.55,-32.52 -77.32,-80.33 -77.32,-143.43 0,-41.91 11.2,-76.23 33.6,-102.96 22.4,-26.74 51.42,-43 87.06,-48.78l0 62.87c-42.87,12.53 -64.31,42.15 -64.31,88.87 0,39.99 15.9,71.3 47.69,93.93 31.8,22.64 75.64,34.93 131.51,36.85l0 -15.89c-13.01,-10.6 -24.45,-26.14 -34.33,-46.61 -9.87,-20.48 -14.81,-44.44 -14.81,-71.9zm251.45 90.32c20.71,-21.2 31.07,-47.7 31.07,-79.49 0,-31.8 -10.12,-57.93 -30.35,-78.4 -20.23,-20.48 -48.41,-30.72 -84.53,-30.72 -36.14,0 -63.84,10.36 -83.09,31.08 -19.27,20.71 -28.91,47.21 -28.91,79.48 0,31.8 9.88,58.05 29.63,78.77 19.75,20.71 46.97,31.07 81.64,31.07 35.65,0 63.83,-10.6 84.54,-31.79zm78.04 -414.03l0 75.15 -83.81 0 0 -75.15 83.81 0zm-450.16 -125.73c-43.83,-33.72 -65.75,-78.76 -65.75,-135.11 0,-56.37 22.04,-101.52 66.12,-135.48 44.07,-33.97 109.7,-50.95 196.9,-50.95 87.18,0 152.7,16.98 196.54,50.95 43.83,33.96 65.75,79.12 65.75,135.48 0,56.36 -21.92,101.39 -65.75,135.11 -43.84,33.73 -109.35,50.59 -196.54,50.59 -87.67,0 -153.43,-16.86 -197.27,-50.59zm348.64 -43.35c36.37,-20.24 54.56,-50.83 54.56,-91.76 0,-40.95 -18.19,-71.66 -54.56,-92.13 -36.37,-20.47 -86.82,-30.71 -151.37,-30.71 -65.04,0 -115.73,10.24 -152.1,30.71 -36.37,20.48 -54.56,51.19 -54.56,92.13 0,40.94 18.19,71.53 54.56,91.76 36.37,20.23 87.06,30.35 152.1,30.35 64.55,0 115,-10.12 151.37,-30.35zm-8.31 -824.45l0 -61.43c36.62,7.23 65.64,24.21 87.07,50.95 21.44,26.73 32.15,60.82 32.15,102.24 0,54.92 -17.94,98.14 -53.83,129.7 -35.89,31.55 -81.77,47.33 -137.65,47.33 -56.36,0 -102.36,-15.66 -138.01,-46.97 -35.64,-31.32 -53.47,-74.67 -53.47,-130.06 0,-41.91 10.48,-76 31.43,-102.24 20.96,-26.26 48.78,-42.52 83.46,-48.78l0 61.42c-40.95,13.01 -61.43,42.88 -61.43,89.6 0,39.02 12.89,68.04 38.66,87.06 25.78,19.03 58.41,28.55 97.91,28.55 39.98,0 73.22,-9.64 99.71,-28.91 26.49,-19.27 39.74,-48.17 39.74,-86.7 0,-51.07 -21.92,-81.65 -65.76,-91.76zm109.83 -153.18l-364.18 0 0 -97.55 166.19 -89.59 0 -15.9 -166.19 -89.59 0 -96.1 364.18 0 0 59.98 -292.64 0 0 15.9 156.08 84.53 0 67.93 -156.08 84.53 0 15.9 292.64 0 0 59.98z"/>
    <g>
     <line fill="none" stroke="gray" stroke-width="10.58" stroke-miterlimit="22.9256" x1="534.62" y1="4315.29" x2="1595.47" y2= "4315.29" />
     <line fill="none" stroke="gray" stroke-width="10.58" stroke-miterlimit="22.9256" x1="532.03" y1="344.6" x2="1595.47" y2= "344.6" />
     <line fill="none" stroke="gray" stroke-width="10.58" stroke-miterlimit="22.9256" x1="933.28" y1="4710.84" x2="933.28" y2= "0" />
    </g>
    <g>
     <line fill="none" stroke="gray" stroke-width="10.58" stroke-miterlimit="22.9256" x1="534.62" y1="10700.94" x2="1595.47" y2= "10700.94" />
     <line fill="none" stroke="gray" stroke-width="10.58" stroke-miterlimit="22.9256" x1="532.03" y1="6191.88" x2="1595.47" y2= "6191.88" />
     <line fill="none" stroke="gray" stroke-width="10.58" stroke-miterlimit="22.9256" x1="933.28" y1="11118.42" x2="933.28" y2= "5847.28" />
    </g>
    <g>
     <line fill="none" stroke="gray" stroke-width="10.58" stroke-miterlimit="22.9256" x1="1768.61" y1="11966.51" x2="1768.61" y2= "10903.07" />
     <line fill="none" stroke="gray" stroke-width="10.58" stroke-miterlimit="22.9256" x1="7645.18" y1="11565.26" x2="1369.95" y2= "11565.26" />
     <line fill="none" stroke="gray" stroke-width="10.58" stroke-miterlimit="22.9256" x1="7232.74" y1="11963.92" x2="7232.74" y2= "10903.07" />
    </g>
   </g>
  </g>
 </g>
</svg>
