<?xml version="1.0" encoding="UTF-8"?>
<!DOCTYPE svg PUBLIC "-//W3C//DTD SVG 1.1//EN" "http://www.w3.org/Graphics/SVG/1.1/DTD/svg11.dtd">
<!-- Creator: CorelDRAW 2021.5 -->
<svg xmlns="http://www.w3.org/2000/svg" xml:space="preserve" width="291.366mm" height="190.32mm" version="1.1" shape-rendering="geometricPrecision" text-rendering="geometricPrecision" image-rendering="optimizeQuality" fill-rule="evenodd" clip-rule="evenodd"
viewBox="0 0 29140.82 19034.78"
 xmlns:xlink="http://www.w3.org/1999/xlink"
 xmlns:xodm="http://www.corel.com/coreldraw/odm/2003">
 <g id="Тени">
  <metadata id="CorelCorpID_0Corel-Layer"/>
  <g id="_2238482389664">
   <path fill="black" fill-opacity="0.101961" d="M3702.03 338.53c754.45,64.14 987.36,189.45 1591.05,196.29 643.44,7.29 826.75,-98.13 1827.67,-210.43 -562.81,8.87 -1113.49,31.46 -1676.32,40.36l-1742.39 -26.21z"/>
   <path fill="black" fill-opacity="0.101961" d="M8376.74 334.95c935.39,75.62 1071.75,200.76 1675.44,207.34 643.44,7.01 975.35,-183.86 1694.72,-196.24 -562.82,8.52 -1113.49,20.64 -1676.32,29.19l-1693.84 -40.3z"/>
   <path fill="black" fill-opacity="0.101961" d="M3614.45 2344.7c810.13,-65.01 1120.31,-159.6 1724.01,-165.26 643.44,-6.03 739.37,95.61 1694.72,176.96 -562.82,-7.34 -1134.37,17.67 -1697.21,10.32l-1721.52 -22.01z"/>
   <path fill="black" fill-opacity="0.101961" d="M8328.17 2368.28c991.07,-144.79 1111.07,-179.98 1714.76,-189.84 643.43,-10.51 846.04,43.45 1703.96,195.82 -562.81,-12.78 -1127.4,-8.53 -1690.24,-21.36l-1728.48 15.38z"/>
   <g>
    <path fill="black" fill-opacity="0.101961" d="M13082.8 338.71c935.4,75.63 1071.76,200.77 1675.45,207.34 643.43,7.02 975.34,-183.85 1694.72,-196.24 -562.82,8.52 -1113.49,20.65 -1676.32,29.2l-1693.85 -40.31z"/>
    <path fill="black" fill-opacity="0.101961" d="M13034.23 2372.04c991.08,-144.78 1111.08,-179.98 1714.77,-189.84 643.43,-10.51 846.04,43.46 1703.96,195.83 -562.81,-12.79 -1127.4,-8.54 -1690.24,-21.37l-1728.49 15.38z"/>
   </g>
   <polygon fill="black" fill-opacity="0.101961" points="12466.9,2644.87 12473.02,2528.88 12407.57,2441.33 12336.68,2419.67 12192.26,3368.16 7820.52,3368.16 7834.54,2421.29 7788,2456.9 7743.78,2519.93 7704.39,2437.18 7660.57,2417.69 7659.19,3368.16 2992.15,3368.16 2959.06,3398.48 2954.74,3570.68 11785.28,3570.68 11419.63,4332.59 12573.41,4329.31 12553.76,4305.61 12550.04,3570.68 17153.79,3570.68 17148.96,4317.65 17290.73,4317.65 17289.6,3570.68 17308.43,3570.68 17308.43,3368.16 17289.3,3368.16 17288.11,2578.63 17248.06,2461.92 17161.16,2436.2 17155.11,3368.16 12529.97,3368.16 12488.81,3348.89 12469.37,3305.62 "/>
   <path fill="black" fill-opacity="0.101961" d="M7717.35 9341.39c-7.79,76.41 -12.38,156.08 -211.63,246.19 -353.69,159.98 -1343.89,178.99 -2240.2,184.48 -829.15,5.08 -1661.9,-48.39 -2047.04,-179.24 -188.93,-64.21 -200.08,-165.88 -219.19,-255.07 -6.23,-17.02 -8.44,-35.48 -7.72,-55.01l14.77 -393.17 1.93 -36.75 1.73 -5.64c12.23,-79.27 74.26,-142.07 155.66,-142.07l2807.5 -0.06c81.82,-3.28 178.9,-3.89 299.68,0l1258.89 0c86.57,0 174.82,70.99 178.85,157.32l0.53 11.42 0.7 4.98c14.64,103.73 12.3,187.5 13.55,297.45l3.64 77.29c0.53,11.47 0.81,48.11 -1.34,58.9l-10.32 28.96zm4733.67 1911.47c-81.43,-1234.47 -1753.52,-1057.14 -2286.41,-1067.48 -561.34,-10.87 -2218.2,-215.25 -2291.76,1202.07 -24.04,463.7 -100.03,964.24 -100.03,964.24 0,0 -71.61,-600.73 -85.16,-923.42 -61.61,-1464.9 -1221.07,-1283.9 -2365.51,-1269.3 -974.22,12.41 -2234.03,-471.09 -2237.54,1150.02 -0.36,166.29 -33.34,515.16 -124.34,1023.28l-12.93 -3588.7 60.9 -46.48 4726.63 4.11 44.86 57.71 31.24 -57.65 142.21 0.13c-78.84,2.47 -95.01,70.07 -107.11,147.55l-1.76 5.96 -1.94 36.69 -28.68 392.6c-1.4,19.44 1.49,38.11 7.77,55.16 19.08,89.18 39.99,179.26 204.73,235.99 384.55,132.46 1251,180.41 2080.15,175.33 896.31,-5.49 1849.03,-3.11 2202.73,-163.07 199.22,-90.1 212.71,-210.92 220.5,-287.34l-0.05 -2.62c2.15,-10.81 3,-22.06 2.47,-33.68l-4.19 -88.37c-1.26,-109.96 -3.83,-204.69 -14.23,-308.96l-0.86 -8.51 -0.38 -7.89c-0.21,-4.66 -0.64,-9.26 -1.21,-13.81 -1.96,-29.62 -4.11,-49.61 -31.72,-79.82 -19.3,-26.17 -46.02,-46.16 -77.25,-56.29l137 2.19 52.12 37.27 58.9 -39.73 92.67 1.21c-37.35,20.17 -53.14,48.56 -65.29,85.16 -6.36,14.34 -10.93,29.74 -13.46,45.86l-1.83 6.49 -1.9 36.46 -31.44 383.19c-1.58,19.42 1.49,38.09 7.7,55.14 18.91,89.18 40.39,213.52 183.92,262.29 381.79,129.71 1213.58,189.38 2034.69,184.29 887.6,-5.49 1823.59,-15.6 2173.85,-175.58 197.31,-90.1 183.99,-189.55 191.69,-265.96l-0.04 -2.58c2.15,-10.83 3,-22.1 2.47,-33.74l-4.15 -88.31c-1.24,-110 -1.56,-204.99 -14.11,-309l-0.77 -6.34 -0.46 -10.09c-3.98,-86.33 -37.4,-159.66 -122.71,-167.68 -149.06,-14 -26.89,-8.89 88.29,-19.3 37.18,-3.36 83.59,45.25 113.87,81.57 5.43,1601.84 -12.74,2995.46 -7.27,4597.33 -261.71,-3333.17 -503.12,-3086.42 -2480.15,-3118.12 -810.88,-13 -1898.22,62.69 -2058.73,1009.97 -68.03,401.34 -97.56,759.91 -152.04,1127.66 -3.34,-427.06 -99.33,-603.61 -133.9,-1127.02z"/>
   <polygon fill="black" fill-opacity="0.101961" points="20454.07,1598.3 21479.32,1598.3 21479.32,1721.42 20454.07,1721.42 "/>
   <polygon fill="black" fill-opacity="0.101961" points="24943.17,3417.39 29021.09,3417.39 29021.09,3540.51 24943.17,3540.51 "/>
   <g>
    <path fill="none" stroke="black" stroke-width="10.58" stroke-miterlimit="22.9256" d="M12667.25 338.52c697.97,0 1369.47,26.32 2067.44,26.32 707.41,0 1526.18,-27.21 2233.58,-27.21 128.84,0 194.93,52.01 194.93,178.86 0,218.99 -36.73,620.67 -36.73,839.66 0,307.13 33.19,546.02 33.19,853.15 0,126.85 -61.76,165.64 -190.59,165.64 -745.1,0 -1516.47,-18.32 -2261.56,-18.32 -618.21,0 -1244.6,9.93 -1862.78,18.45 -42.06,0.57 -134.47,-1.09 -176.55,-1.09 -128.84,0 -172.69,-31.3 -172.69,-158.15 0,-265.38 20.39,-567.12 20.39,-832.51 0,-260.75 -21.02,-624.08 -21.02,-884.82 0,-126.85 43.54,-159.98 172.37,-159.98z"/>
    <path fill="none" stroke="black" stroke-width="10.58" stroke-miterlimit="22.9256" d="M18205.38 1714.65l-768.82 0c-16.91,0 -39.12,5.83 -54.48,9.79 -96.63,21.32 -114.93,147.38 -103.29,379.32 10.03,199.69 -2.8,1696.01 -2.8,1810.57 0,284.17 16.87,407.92 101.75,431.39 20.43,8.06 24.62,11.59 58.82,11.59l768.82 0c33.04,0 36.35,-5 56.84,-9.98 84.86,-23.36 101.76,-146.44 101.76,-429.17 0,-113.98 -12.83,-1602.54 -2.81,-1801.21 11.64,-230.71 -13.51,-374.42 -110.15,-395.64 -16.36,-5.3 -26.83,-6.66 -45.65,-6.66z"/>
    <path fill="none" stroke="black" stroke-width="10.58" stroke-miterlimit="22.9256" d="M2927.53 1797.1l0 -1118.73c-3.4,-90.49 31.58,-127.52 115.47,-141.11m14122.84 11.42c86.24,27.87 122.34,83.65 111.66,150.55l-1.55 1268.56"/>
    <path fill="none" stroke="black" stroke-width="10.58" stroke-miterlimit="22.9256" d="M3272.48 321.82c703.98,0 1329.54,28.49 2033.53,28.49 713.49,0 1534.61,-27.72 2248.12,-27.72 129.94,0 198.39,41.41 198.39,168.25 0,218.99 -34.15,631.78 -34.15,850.77 0,307.13 39.58,539.7 39.58,846.83 0,126.85 -37.81,175.88 -167.74,175.88 -751.53,0 -1559.07,-23.83 -2310.57,-23.83 -623.52,0 -1256.32,11.53 -1879.82,20.05 -42.42,0.57 -218.35,30.8 -260.79,30.8 -129.96,0 -102.78,-133.7 -102.78,-260.55 0,-265.38 31.9,-496.63 31.9,-762.01 0,-260.75 -31.9,-652.48 -31.9,-913.22 0,-126.88 106.32,-133.75 236.25,-133.75z"/>
    <path fill="none" stroke="black" stroke-width="10.58" stroke-miterlimit="22.9256" d="M7961.18 334.76c697.98,0 1369.47,26.31 2067.44,26.31 707.42,0 1526.18,-27.21 2233.58,-27.21 128.84,0 194.93,52.01 194.93,178.86 0,218.99 -36.73,620.67 -36.73,839.66 0,307.14 33.19,546.03 33.19,853.15 0,126.86 -61.76,165.65 -190.59,165.65 -745.1,0 -1516.46,-18.33 -2261.56,-18.33 -618.2,0 -1244.59,9.94 -1862.78,18.45 -42.05,0.58 -134.47,-1.08 -176.54,-1.08 -128.85,0 -172.69,-31.31 -172.69,-158.16 0,-265.38 20.38,-567.12 20.38,-832.5 0,-260.75 -21.02,-624.08 -21.02,-884.83 0,-126.85 43.54,-159.97 172.37,-159.97z"/>
    <path fill="none" stroke="black" stroke-width="10.58" stroke-miterlimit="22.9256" d="M2798.27 1711.29l-768.82 0c-16.91,0 -39.11,5.83 -54.48,9.79 -96.62,21.32 -114.93,147.38 -103.28,379.31 10.02,199.7 -2.81,1696.02 -2.81,1810.58 0,284.17 16.87,407.92 101.75,431.38 20.43,8.07 24.62,11.6 58.82,11.6l768.82 0c33.05,0 36.35,-5 56.84,-9.98 84.87,-23.36 101.76,-146.45 101.76,-429.17 0,-113.98 -12.83,-1602.54 -2.81,-1801.21 11.64,-230.72 -13.51,-374.42 -110.15,-395.64 -16.36,-5.3 -26.83,-6.66 -45.65,-6.66z"/>
    <path fill="none" stroke="black" stroke-width="10.58" stroke-miterlimit="22.9256" d="M3053.86 2416.14c1528.57,0 3057.13,0 4585.72,0 84.92,9.07 81.19,79.05 106.95,116.26 26.24,-34.65 34.13,-109.96 114.15,-116.26 1518.55,2.38 2951.95,4.81 4470.52,7.19 92.63,3.58 121.2,61.4 136.04,109.22 14.71,-44.31 60.19,-99.85 155.77,-108.75l4566.44 2.4c52.75,0 95.88,47.71 95.88,105.68l0 739.63c0,58.1 -43.21,105.72 -95.88,105.68l-14135.58 -10.08c-52.74,-0.04 -95.91,-47.54 -95.91,-105.66l0 -739.65c0,-58.11 43.14,-105.66 95.91,-105.66z"/>
    <rect fill="none" stroke="black" stroke-width="10.58" stroke-miterlimit="22.9256" x="2956.68" y="3377.17" width="14319.57" height="961.16" rx="83.35" ry="48.06"/>
    <rect fill="none" stroke="black" stroke-width="10.58" stroke-miterlimit="22.9256" x="3198.99" y="4338.32" width="961.16" height="144.17"/>
    <rect fill="none" stroke="black" stroke-width="10.58" stroke-miterlimit="22.9256" x="16151.21" y="4338.33" width="961.16" height="144.17"/>
    <line fill="none" stroke="black" stroke-width="10.58" stroke-miterlimit="22.9256" x1="7749.17" y1="3376.9" x2="7746.54" y2= "2531.76" />
    <path fill="none" stroke="black" stroke-width="10.58" stroke-miterlimit="22.9256" d="M12549.05 3377.1c-56.28,0 -81.3,-50.05 -82.12,-92.29l-0.03 -752.27"/>
    <rect fill="none" stroke="black" stroke-width="10.58" stroke-miterlimit="22.9256" x="12676.4" y="4338.33" width="961.16" height="144.17"/>
    <rect fill="none" stroke="black" stroke-width="10.58" stroke-miterlimit="22.9256" x="11413.23" y="4338.33" width="961.16" height="144.17"/>
    <path fill="none" stroke="black" stroke-width="10.58" stroke-miterlimit="22.9256" d="M12607.62 4338.34c-56.29,0 -54.75,-19.75 -55.57,-69.81l-0.04 -891.31"/>
   </g>
   <g>
    <path fill="none" stroke="black" stroke-width="10.58" stroke-miterlimit="22.9256" d="M17374.08 12323.04c-80.34,-41.1 -96.4,-250.99 -96.4,-733.15 0,-194.37 12.24,-2732.93 2.66,-3071.72 -11.02,-393.48 6.37,-607.38 98.17,-643.88 90.99,-49.82 820.28,-45.18 900.84,-2.49 92.59,33.52 116.52,277.34 105.46,668.73 -9.54,337.07 2.64,2862.53 2.64,3055.9 0,479.61 -16.04,688.47 -97.07,726.98 -82.7,43.99 -842.38,33.7 -916.29,-0.37z"/>
    <path fill="none" stroke="black" stroke-width="10.58" stroke-miterlimit="22.9256" d="M2855.63 12292.67c80.35,-41.23 96.41,-251.74 96.41,-735.32 0,-194.94 -12.24,-2740.99 -2.66,-3080.78 11.02,-394.64 -6.37,-609.17 -98.17,-645.78 -90.99,-49.96 -820.29,-45.32 -900.84,-2.5 -92.59,33.62 -116.52,278.16 -105.46,670.7 9.54,338.07 -2.65,2870.98 -2.65,3064.92 0,481.02 16.05,690.51 97.08,729.12 82.7,44.13 842.38,33.8 916.28,-0.36z"/>
    <path fill="none" stroke="black" stroke-width="10.58" stroke-miterlimit="22.9256" d="M7727.67 9312.42c-7.73,76.42 -1.38,185.04 -198.97,275.15 -350.74,159.98 -1330.79,178.75 -2219.57,184.27 -822.19,5.08 -1696.31,-43.76 -2078.22,-174.61 -196.18,-67.22 -219.46,-202.54 -238.96,-293.45"/>
    <path fill="none" stroke="black" stroke-width="10.58" stroke-miterlimit="22.9256" d="M3176.36 8705.06l4378.17 0c85.82,0 151.98,70.96 156.05,157.3l19.5 413.75c4.08,86.36 -70.32,153.35 -156.05,157.31 -790.56,44.74 -1440.19,45.13 -2302.04,56.58 -840.71,11.18 -1352.7,-12.19 -2124.89,-56.58 -85.72,-3.96 -162.15,-71 -156.04,-157.31l29.25 -413.75c6.11,-86.31 70.23,-157.3 156.05,-157.3z"/>
    <rect fill="none" stroke="black" stroke-width="10.58" stroke-miterlimit="22.9256" x="2948.6" y="8698.09" width="4824.21" height="3731.33" rx="39.75" ry="77.74"/>
    <path fill="none" stroke="black" stroke-width="10.58" stroke-miterlimit="22.9256" d="M12520.55 9301.1c-7.66,76.42 -1.39,185.04 -197.61,275.15 -348.38,159.98 -1300.24,168.69 -2182.98,174.2 -816.62,5.09 -1706.31,-33.66 -2085.62,-164.52 -194.86,-67.23 -222.14,-193.96 -241.53,-284.86"/>
    <path fill="none" stroke="black" stroke-width="10.58" stroke-miterlimit="22.9256" d="M8000.17 8693.74l4348.4 0c85.24,0 150.95,70.96 154.98,157.3l19.37 413.75c4.05,86.36 -69.84,153.35 -154.98,157.31 -785.19,44.74 -1430.41,45.13 -2286.39,56.58 -835,11.18 -1343.51,-12.19 -2110.45,-56.58 -85.14,-3.96 -161.05,-71 -154.99,-157.31l29.06 -413.75c6.06,-86.31 69.75,-157.3 154.99,-157.3z"/>
    <path fill="none" stroke="black" stroke-width="10.58" stroke-miterlimit="22.9256" d="M17221.81 9306.21c-7.5,77.29 -1.39,187.14 -192.78,278.27 -339.82,161.81 -1275.31,169.81 -2136.4,175.38 -796.6,5.14 -1657.59,-33.25 -2027.58,-165.58 -190.04,-67.97 -212.1,-201.31 -231.01,-293.25"/>
    <path fill="none" stroke="black" stroke-width="10.58" stroke-miterlimit="22.9256" d="M12812.2 8691.89l4241.85 0c83.15,0 147.25,71.77 151.19,159.1l18.89 418.48c3.95,87.35 -68.13,155.11 -151.18,159.11 -765.95,45.26 -1395.36,45.64 -2230.37,57.23 -814.54,11.3 -1310.58,-12.33 -2058.73,-57.23 -83.06,-4 -157.1,-71.81 -151.19,-159.11l28.35 -418.48c5.91,-87.3 68.03,-159.1 151.19,-159.1z"/>
    <rect fill="none" stroke="black" stroke-width="10.58" stroke-miterlimit="22.9256" x="7782.24" y="8696.83" width="4805.8" height="3739.09" rx="39.6" ry="77.9"/>
    <path fill="none" stroke="black" stroke-width="10.58" stroke-miterlimit="22.9256" d="M2939 8006.05c-25.24,-176.06 577.05,-177.39 1425.17,-165.75 730.32,10 6202.51,-2.8 6621.49,-2.8 1039.27,0 1524.37,-17.86 1603.23,138.99"/>
    <polyline fill="none" stroke="black" stroke-width="10.58" stroke-miterlimit="22.9256" stroke-dasharray="52.907681 52.907681" points="12588.04,16706.16 2945.74,16706.16 2948.61,12225.62 "/>
    <rect fill="none" stroke="black" stroke-width="10.58" stroke-miterlimit="22.9256" x="12591.38" y="8691.87" width="4684.46" height="8020.99" rx="38.6" ry="167.11"/>
    <path fill="none" stroke="black" stroke-width="10.58" stroke-miterlimit="22.9256" d="M12588.94 7990.47c15.64,-125.17 288.19,-152.16 703.36,-140.57 357.48,9.98 3036.26,-2.81 3241.38,-2.81 508.73,0 760.63,11.32 782.92,158.96"/>
    <line fill="none" stroke="black" stroke-width="10.58" stroke-miterlimit="22.9256" x1="12591.39" y1="8789.48" x2="12588.9" y2= "7976.49" />
   </g>
   <g>
    <path fill="none" stroke="black" stroke-width="10.58" stroke-miterlimit="22.9256" d="M21663.88 1693.06l-42.46 -1101.24c-3.7,-96.48 -23.15,-193.43 114.56,-199.14l406.42 -16.9c36.54,-1.5 135.96,-4.57 141.77,146.45l45.12 1170.82"/>
    <path fill="none" stroke="black" stroke-width="10.58" stroke-miterlimit="22.9256" d="M21689.41 399.45c-124.86,9.98 -232.48,164.51 -215.58,296.25"/>
    <path fill="none" stroke="black" stroke-width="10.58" stroke-miterlimit="22.9256" d="M22171.95 376.03c178.52,-6.02 259.2,302.36 271.05,361.5 60.99,304.51 116.62,755.31 110.85,960.58"/>
    <path fill="none" fill-rule="nonzero" stroke="black" stroke-width="10.58" stroke-miterlimit="22.9256" d="M20456.35 1722.31c-4.13,-12.83 -1.17,-70.12 -2.83,-93.05 0,-53.31 5.3,-815.9 5.17,-909.25 -0.17,-107.62 43.78,-136.17 152,-136.17l15.04 0 753.78 0c52.86,0 95.95,43.24 96.07,96.08l2.41 997.34"/>
    <path fill="none" stroke="black" stroke-width="10.58" stroke-miterlimit="22.9256" d="M24945.13 2436.69l2.49 0c88.52,0 160.94,72.42 160.94,160.94l0 652.93c0,88.52 -72.42,160.93 -160.94,160.93"/>
    <polyline fill="none" stroke="black" stroke-width="10.58" stroke-miterlimit="22.9256" points="24853.5,4341.31 29021.08,4345.4 29021.08,3406.35 24943.17,3406.35 "/>
    <path fill="none" stroke="black" stroke-width="10.58" stroke-miterlimit="22.9256" d="M24945.13 2426.59l4029.43 2.7c88.54,0.04 160.96,72.46 160.96,160.98l0 653.03c0,88.52 -72.44,160.98 -160.96,160.98l-4031.4 0"/>
    <rect fill="none" stroke="black" stroke-width="10.58" stroke-miterlimit="22.9256" x="24696.05" y="4351.52" width="165.3" height="144.17"/>
    <rect fill="none" stroke="black" stroke-width="10.58" stroke-miterlimit="22.9256" x="20580.06" y="4343.74" width="165.3" height="144.17"/>
    <rect fill="none" stroke="black" stroke-width="10.58" stroke-miterlimit="22.9256" transform="matrix(1.84707E-14 -1.97127 0.937096 7.0151E-14 20454.6 4341.31)" width="1340.85" height="4789.93" rx="19.5" ry="19.5"/>
    <rect fill="none" stroke="black" stroke-width="10.58" stroke-miterlimit="22.9256" x="28710.38" y="4356.78" width="165.3" height="144.17"/>
   </g>
   <path fill="none" stroke="black" stroke-width="10.58" stroke-miterlimit="22.9256" d="M24945.13 2426.59l2.49 0c88.52,0 160.94,72.41 160.94,160.93l0 652.93c0,88.52 -72.42,160.94 -160.94,160.94"/>
   <path fill="#666666" fill-rule="nonzero" fill-opacity="0.800000" d="M20804.26 8171.23l0 16.51c22.52,10.51 40.67,27.02 54.43,49.55 13.76,22.52 20.64,47.3 20.64,74.32 0,45.05 -15.51,81.45 -46.55,109.23 -31.02,27.77 -76.07,41.67 -135.12,41.67l-239.48 0 0 -536.01 233.47 0c54.55,0 96.71,12.89 126.5,38.67 29.77,25.77 44.67,58.18 44.67,97.21 0,51.55 -19.52,87.83 -58.56,108.86zm-278.51 -184.68l0 167.4 164.4 0c69.57,0 104.35,-28.52 104.35,-85.58 0,-28.02 -10,-48.67 -30.02,-61.93 -20.02,-13.26 -45.3,-19.89 -75.82,-19.89l-162.9 0zm0 415.89l167.4 0c34.54,0 62.81,-7.38 84.83,-22.14 22.02,-14.76 33.03,-39.42 33.03,-73.94 0,-32.53 -10.89,-56.18 -32.65,-70.95 -21.77,-14.76 -49.93,-22.14 -84.46,-22.14l-168.15 0 0 189.18zm451.93 -318.3l63.81 0 0 126.12 104.35 0c45.55,0 80.7,11.01 105.48,33.02 24.77,22.02 37.17,52.81 37.17,92.34 0,40.04 -12.39,71.19 -37.17,93.46 -24.77,22.27 -59.93,33.4 -105.48,33.4l-168.15 0 0 -378.35zm63.81 180.17l0 142.64 95.34 0c31.52,0 54.05,-6.01 67.56,-18.02 13.51,-12.01 20.27,-29.77 20.27,-53.3 0,-23.52 -6.76,-41.29 -20.27,-53.3 -13.51,-12.01 -36.04,-18.02 -67.56,-18.02l-95.34 0zm307.79 -180.17l63.81 0 0 378.35 -63.81 0 0 -378.35zm442.91 264.25l63.81 0c-7.5,38.04 -25.14,68.19 -52.92,90.46 -27.77,22.26 -63.19,33.4 -106.23,33.4 -57.06,0 -101.97,-18.64 -134.76,-55.93 -32.77,-37.29 -49.17,-84.95 -49.17,-143.01 0,-58.56 16.26,-106.36 48.8,-143.39 32.53,-37.04 77.57,-55.55 135.13,-55.55 43.54,0 78.95,10.88 106.23,32.65 27.27,21.77 44.17,50.68 50.67,86.71l-63.81 0c-13.51,-42.55 -44.54,-63.82 -93.08,-63.82 -40.54,0 -70.69,13.39 -90.46,40.17 -19.77,26.77 -29.65,60.68 -29.65,101.72 0,41.54 10.01,76.07 30.03,103.6 20.01,27.52 50.05,41.29 90.08,41.29 53.05,0 84.83,-22.76 95.33,-68.31zm185.81 -217.71c33.27,-37.54 78.69,-56.3 136.25,-56.3 57.56,0 102.97,18.76 136.25,56.3 33.28,37.54 49.93,85.08 49.93,142.64 0,57.55 -16.64,105.1 -49.93,142.63 -33.27,37.54 -78.69,56.31 -136.25,56.31 -57.56,0 -102.97,-18.77 -136.25,-56.31 -33.28,-37.54 -49.93,-85.08 -49.93,-142.63 0,-57.56 16.64,-105.11 49.93,-142.64zm45.42 244.37c21.01,27.77 51.3,41.66 90.83,41.66 39.54,0 69.82,-13.88 90.83,-41.66 21.02,-27.78 31.53,-61.69 31.53,-101.72 0,-40.04 -10.51,-73.95 -31.53,-101.72 -21.01,-27.77 -51.3,-41.67 -90.83,-41.67 -39.54,0 -69.82,13.89 -90.83,41.67 -21.02,27.77 -31.53,61.69 -31.53,101.72 0,40.04 10.51,73.94 31.53,101.72zm330.31 -235.35l0 -55.55 325.81 0 0 55.55 -130.63 0 0 322.81 -63.81 0 0 -322.81 -131.37 0zm650.86 322.81l0 -39.79 -16.51 0c-26.02,33.02 -65.31,49.55 -117.87,49.55 -41.54,0 -74.57,-12.01 -99.08,-36.04 -24.52,-24.02 -36.79,-53.05 -36.79,-87.08 0,-34.54 12.01,-64.06 36.03,-88.58 24.02,-24.52 60.31,-36.79 108.86,-36.79l123.12 0 0 -15.01c0,-24.02 -7.51,-43.17 -22.52,-57.43 -15.01,-14.27 -38.29,-21.4 -69.81,-21.4 -55.06,0 -84.33,18.27 -87.83,54.81l-63.81 0c2.5,-34.54 17.38,-61.56 44.67,-81.08 27.27,-19.51 62.43,-29.27 105.48,-29.27 48.54,0 86.7,11.26 114.48,33.78 27.77,22.51 41.67,54.8 41.67,96.83l0 257.5 -60.06 0zm-118.61 -45.8c31.52,0 58.8,-10.38 81.82,-31.15 23.02,-20.76 34.54,-46.17 34.54,-76.19l0 -34.54 -113.36 0c-60.56,0 -90.83,24.02 -90.83,72.07 0,21.51 7.63,38.54 22.89,51.05 15.26,12.51 36.91,18.76 64.94,18.76zm-2178.57 751.53l63.81 0c-7.5,38.04 -25.14,68.19 -52.92,90.46 -27.77,22.26 -63.19,33.4 -106.23,33.4 -57.06,0 -101.97,-18.64 -134.76,-55.93 -32.77,-37.29 -49.17,-84.95 -49.17,-143.01 0,-58.56 16.26,-106.36 48.8,-143.39 32.53,-37.04 77.57,-55.55 135.13,-55.55 43.54,0 78.95,10.88 106.23,32.65 27.27,21.77 44.17,50.68 50.67,86.71l-63.81 0c-13.51,-42.55 -44.54,-63.82 -93.08,-63.82 -40.54,0 -70.69,13.39 -90.46,40.17 -19.77,26.77 -29.65,60.68 -29.65,101.72 0,41.54 10.01,76.07 30.03,103.6 20.01,27.52 50.05,41.29 90.08,41.29 53.05,0 84.83,-22.76 95.33,-68.31zm249.24 114.11l-90.08 0 0 -378.35 62.31 0 0 292.77 16.51 0 165.9 -292.77 93.09 0 0 378.35 -62.31 0 0 -292.77 -16.51 0 -168.91 292.77zm707.92 -55.55l69.81 0 0 162.9 -62.31 0 0 -107.36 -327.31 0 0 107.36 -62.31 0 0 -162.9 50.3 0c31.03,-66.07 46.55,-139.14 46.55,-219.21l0 -103.6 285.27 0 0 322.81zm-63.81 0l0 -267.26 -162.15 0 0 48.05c0,85.58 -13.76,158.65 -41.29,219.21l203.44 0zm544.26 -156.15l0 21.77 -288.27 0c1,45.54 11.76,80.95 32.28,106.23 20.51,25.27 50.05,37.91 88.58,37.91 52.05,0 84.07,-19.51 96.08,-58.55l64.57 0c-6.51,34.02 -23.65,61.56 -51.43,82.57 -27.77,21.02 -64.19,31.53 -109.23,31.53 -57.56,0 -102.59,-18.77 -135.13,-56.31 -32.53,-37.54 -48.8,-86.33 -48.8,-146.38 0,-59.06 16.26,-106.36 48.8,-141.89 32.53,-35.54 77.07,-53.3 133.63,-53.3 53.55,0 94.83,16.89 123.87,50.68 29.02,33.77 44.04,75.69 45.04,125.74zm-170.4 -120.87c-32.53,0 -58.56,8.39 -78.08,25.15 -19.51,16.76 -31.52,38.16 -36.04,64.19l218.46 0c-2,-25.52 -12.26,-46.8 -30.78,-63.82 -18.51,-17.01 -43.04,-25.52 -73.56,-25.52zm606.57 332.57l-63.81 0 0 -166.65 -209.45 0 0 166.65 -63.81 0 0 -378.35 63.81 0 0 156.14 209.45 0 0 -156.14 63.81 0 0 378.35zm654.63 -378.35l188.43 0 0 378.35 -64.56 0 0 -149.39 -114.87 0c-10,0 -17.76,-0.25 -23.26,-0.75l-57.06 150.14 -66.81 0 63.81 -164.4c-39.04,-18.52 -58.56,-51.55 -58.56,-99.09 0,-36.54 11.38,-64.81 34.15,-84.83 22.77,-20.01 55.68,-30.02 98.72,-30.02zm123.87 54.05l-117.12 0c-27.52,0 -47.05,5.25 -58.55,15.76 -11.51,10.51 -17.27,25.77 -17.27,45.8 0,19.52 5.76,34.28 17.27,44.3 11.5,10 31.02,15.01 58.55,15.01l117.12 0 0 -120.87zm-1947.34 1144.15l-78.07 0 0 -87.08 78.07 0 0 87.08zm130.63 -467.69c35.03,-45.55 81.82,-68.32 140.38,-68.32 58.55,0 105.48,22.89 140.75,68.69 35.29,45.8 52.93,113.99 52.93,204.57 0,90.58 -17.64,158.65 -52.93,204.19 -35.28,45.55 -82.2,68.32 -140.75,68.32 -58.56,0 -105.36,-22.77 -140.38,-68.32 -35.04,-45.54 -52.56,-113.61 -52.56,-204.19 0,-91.08 17.52,-159.4 52.56,-204.94zm45.04 362.21c21.02,37.79 52.8,56.68 95.34,56.68 42.54,0 74.44,-18.89 95.71,-56.68 21.27,-37.79 31.9,-90.21 31.9,-157.27 0,-67.56 -10.63,-120.24 -31.9,-158.02 -21.27,-37.79 -53.18,-56.68 -95.71,-56.68 -42.55,0 -74.32,18.89 -95.34,56.68 -21.02,37.79 -31.52,90.46 -31.52,158.02 0,67.06 10.5,119.49 31.52,157.27zm856.56 -8.63l63.81 0c-7.5,38.04 -25.14,68.19 -52.92,90.46 -27.77,22.26 -63.19,33.4 -106.23,33.4 -57.06,0 -101.97,-18.64 -134.76,-55.93 -32.77,-37.29 -49.17,-84.95 -49.17,-143.01 0,-58.56 16.26,-106.36 48.8,-143.39 32.53,-37.04 77.57,-55.55 135.13,-55.55 43.54,0 78.95,10.88 106.23,32.65 27.27,21.77 44.17,50.68 50.67,86.71l-63.81 0c-13.51,-42.55 -44.54,-63.82 -93.08,-63.82 -40.54,0 -70.69,13.39 -90.46,40.17 -19.77,26.77 -29.65,60.68 -29.65,101.72 0,41.54 10.01,76.07 30.03,103.6 20.01,27.52 50.05,41.29 90.08,41.29 53.05,0 84.83,-22.76 95.33,-68.31zm159.15 114.11l0 -378.35 101.34 0 93.08 172.67 16.52 0 93.08 -172.67 99.84 0 0 378.35 -62.31 0 0 -304.03 -16.51 0 -87.83 162.15 -70.57 0 -87.83 -162.15 -16.51 0 0 304.03 -62.31 0zm164.39 -1198.19l0 126.12 111.86 0c45.55,0 80.7,11.01 105.48,33.02 24.77,22.02 37.16,52.81 37.16,92.34 0,40.04 -12.38,71.19 -37.16,93.46 -24.77,22.27 -59.93,33.4 -105.48,33.4l-175.67 0 0 -378.35 63.81 0zm0 322.81l102.84 0c31.53,0 54.06,-6.01 67.57,-18.02 13.51,-12.01 20.26,-29.77 20.26,-53.3 0,-23.52 -6.75,-41.29 -20.26,-53.3 -13.51,-12.01 -36.04,-18.02 -67.57,-18.02l-102.84 0 0 142.64zm852.81 55.55l-78.07 0 0 -87.08 78.07 0 0 87.08zm0 -291.27l-78.07 0 0 -87.08 78.07 0 0 87.08zm-2877.48 929.43l72.07 0 0 58.56 -72.07 0 0 123.12 -64.56 0 0 -123.12 -259.75 0 0 -75.07 231.97 -327.31 92.33 0 0 343.82zm-255.24 0l191.43 0 0 -269.5 -16.51 0 -174.92 252.99 0 16.51zm420.4 -343.82l307.03 0 0 73.57 -131.37 112.61 0 15.76c46.55,1 84.2,15.51 112.98,43.55 28.78,28.02 43.17,66.81 43.17,116.36 0,53.55 -17.26,95.84 -51.8,126.87 -34.54,31.03 -79.07,46.55 -133.63,46.55 -52.55,0 -95.58,-14.76 -129.12,-44.3 -33.53,-29.52 -51.8,-67.06 -54.8,-112.61l66.06 0c3,29.53 15.39,53.3 37.16,71.32 21.77,18.01 48.68,27.02 80.7,27.02 36.54,0 65.57,-10.26 87.08,-30.77 21.52,-20.52 32.28,-48.55 32.28,-84.08 0,-35.04 -10.26,-62.44 -30.77,-82.2 -20.52,-19.77 -49.8,-29.65 -87.83,-29.65 -18.52,0 -33.78,1.5 -45.8,4.5l0 -69.81 128.37 -111.11 0 -16.51 -229.71 0 0 -57.06z"/>
   <path fill="#666666" fill-rule="nonzero" fill-opacity="0.800000" d="M8630.26 18499.53l307.03 0 0 73.57 -131.37 112.61 0 15.76c46.55,1 84.2,15.51 112.98,43.55 28.78,28.02 43.17,66.81 43.17,116.36 0,53.55 -17.26,95.84 -51.8,126.87 -34.54,31.03 -79.07,46.55 -133.63,46.55 -52.55,0 -95.58,-14.76 -129.12,-44.3 -33.53,-29.52 -51.8,-67.06 -54.8,-112.61l66.06 0c3,29.53 15.39,53.3 37.16,71.32 21.77,18.01 48.68,27.02 80.7,27.02 36.54,0 65.57,-10.26 87.08,-30.77 21.52,-20.52 32.28,-48.55 32.28,-84.08 0,-35.04 -10.26,-62.44 -30.77,-82.2 -20.52,-19.77 -49.8,-29.65 -87.83,-29.65 -18.52,0 -33.78,1.5 -45.8,4.5l0 -69.81 128.37 -111.11 0 -16.51 -229.71 0 0 -57.06zm1065.25 171.91c51.05,0 91.96,16.76 122.74,50.3 30.78,33.52 46.18,75.32 46.18,125.37 0,56.55 -16.64,101.96 -49.93,136.25 -33.28,34.28 -76.7,51.43 -130.25,51.43 -55.55,0 -99.21,-14.51 -131,-43.55 -31.77,-29.02 -49.17,-66.81 -52.18,-113.36l65.32 0c4,32.03 16.01,56.43 36.04,73.2 20.01,16.76 46.29,25.14 78.82,25.14 35.04,0 63.31,-11.38 84.83,-34.15 21.51,-22.77 32.27,-53.43 32.27,-91.96 0,-36.54 -10.38,-66.19 -31.15,-88.96 -20.76,-22.76 -48.67,-34.15 -83.7,-34.15 -47.05,0 -81.82,16.51 -104.35,49.55l-66.07 0 23.27 -277.01 300.28 0 0 57.06 -246.98 0 -12.01 151.64 16.51 0c27.02,-24.52 60.81,-36.79 101.34,-36.79zm-343.83 171.9l72.07 0 0 58.56 -72.07 0 0 123.12 -64.56 0 0 -123.12 -259.75 0 0 -75.07 231.97 -327.31 92.33 0 0 343.82zm-255.24 0l191.43 0 0 -269.5 -16.51 0 -174.92 252.99 0 16.51zm943.65 181.68l-78.07 0 0 -87.08 78.07 0 0 87.08zm130.63 -467.69c35.03,-45.55 81.82,-68.32 140.38,-68.32 58.55,0 105.48,22.89 140.75,68.69 35.29,45.8 52.93,113.99 52.93,204.57 0,90.58 -17.64,158.65 -52.93,204.19 -35.28,45.55 -82.2,68.32 -140.75,68.32 -58.56,0 -105.36,-22.77 -140.38,-68.32 -35.04,-45.54 -52.56,-113.61 -52.56,-204.19 0,-91.08 17.52,-159.4 52.56,-204.94zm45.04 362.21c21.02,37.79 52.8,56.68 95.34,56.68 42.54,0 74.44,-18.89 95.71,-56.68 21.27,-37.79 31.9,-90.21 31.9,-157.27 0,-67.56 -10.63,-120.24 -31.9,-158.02 -21.27,-37.79 -53.18,-56.68 -95.71,-56.68 -42.55,0 -74.32,18.89 -95.34,56.68 -21.02,37.79 -31.52,90.46 -31.52,158.02 0,67.06 10.5,119.49 31.52,157.27zm856.56 -8.63l63.81 0c-7.5,38.04 -25.14,68.19 -52.92,90.46 -27.77,22.26 -63.19,33.4 -106.23,33.4 -57.06,0 -101.97,-18.64 -134.76,-55.93 -32.77,-37.29 -49.17,-84.95 -49.17,-143.01 0,-58.56 16.26,-106.36 48.8,-143.39 32.53,-37.04 77.57,-55.55 135.13,-55.55 43.54,0 78.95,10.88 106.23,32.65 27.27,21.77 44.17,50.68 50.67,86.71l-63.81 0c-13.51,-42.55 -44.54,-63.82 -93.08,-63.82 -40.54,0 -70.69,13.39 -90.46,40.17 -19.77,26.77 -29.65,60.68 -29.65,101.72 0,41.54 10.01,76.07 30.03,103.6 20.01,27.52 50.05,41.29 90.08,41.29 53.05,0 84.83,-22.76 95.33,-68.31zm159.15 114.11l0 -378.35 101.34 0 93.08 172.67 16.52 0 93.08 -172.67 99.84 0 0 378.35 -62.31 0 0 -304.03 -16.51 0 -87.83 162.15 -70.57 0 -87.83 -162.15 -16.51 0 0 304.03 -62.31 0z"/>
   <path fill="#666666" fill-rule="nonzero" fill-opacity="0.800000" d="M250.74 3352.51l16.52 0c7,-20.52 21.64,-39.29 43.92,-56.3 22.26,-17.02 49.42,-25.52 81.45,-25.52 44.04,0 80.57,17.38 109.6,52.17 29.03,34.79 43.55,80.7 43.55,137.76 0,57.05 -14.51,102.96 -43.55,137.75 -29.02,34.79 -65.56,52.18 -109.6,52.18 -31.53,0 -58.56,-8.51 -81.08,-25.52 -22.52,-17.02 -37.29,-35.79 -44.29,-56.31l-16.52 0c-7,16.52 -20.26,31.65 -39.79,45.42 -19.52,13.77 -43.04,20.65 -70.57,20.65 -41.54,0 -75.32,-16.27 -101.34,-48.8 -26.02,-32.53 -39.04,-74.32 -39.04,-125.37 0,-51.05 13.01,-92.84 39.04,-125.37 26.02,-32.53 59.81,-48.8 101.34,-48.8 26.52,0 49.8,7 69.82,21.01 20.02,14.02 33.53,29.03 40.54,45.05zm-170.78 29.65c-15.26,20.77 -22.89,46.92 -22.89,78.45 0,31.52 7.63,57.68 22.89,78.44 15.26,20.77 36.41,31.15 63.44,31.15 27.02,0 48.29,-10.38 63.81,-31.15 15.51,-20.76 23.27,-46.92 23.27,-78.44 0,-31.53 -7.76,-57.68 -23.27,-78.45 -15.52,-20.77 -36.79,-31.15 -63.81,-31.15 -27.03,0 -48.18,10.38 -63.44,31.15zm379.86 169.65c18.27,-22.26 27.4,-52.67 27.4,-91.2 0,-38.54 -9.13,-68.94 -27.4,-91.21 -18.26,-22.27 -42.67,-33.4 -73.19,-33.4 -31.02,0 -55.3,11.01 -72.82,33.02 -17.51,22.02 -26.27,52.56 -26.27,91.59 0,39.04 8.76,69.56 26.27,91.58 17.52,22.02 41.8,33.03 72.82,33.03 30.52,0 54.93,-11.14 73.19,-33.41zm-37.91 -1958.23l0 -63.81c38.04,7.5 68.19,25.14 90.46,52.92 22.26,27.77 33.4,63.19 33.4,106.23 0,57.06 -18.64,101.97 -55.93,134.76 -37.29,32.77 -84.95,49.17 -143.01,49.17 -58.56,0 -106.36,-16.26 -143.39,-48.8 -37.04,-32.53 -55.55,-77.57 -55.55,-135.13 0,-43.54 10.88,-78.95 32.65,-106.23 21.77,-27.27 50.68,-44.17 86.71,-50.67l0 63.81c-42.55,13.51 -63.82,44.54 -63.82,93.08 0,40.54 13.39,70.69 40.17,90.46 26.77,19.77 60.68,29.65 101.72,29.65 41.54,0 76.07,-10.01 103.6,-30.03 27.52,-20.01 41.29,-50.05 41.29,-90.08 0,-53.05 -22.76,-84.83 -68.31,-95.33zm114.11 -159.15l-378.35 0 0 -101.34 172.67 -93.08 0 -16.52 -172.67 -93.08 0 -99.84 378.35 0 0 62.31 -304.03 0 0 16.51 162.15 87.83 0 70.57 -162.15 87.83 0 16.51 304.03 0 0 62.31zm-467.69 1702.62c-45.55,-35.03 -68.32,-81.82 -68.32,-140.38 0,-58.55 22.89,-105.48 68.69,-140.75 45.8,-35.29 113.99,-52.93 204.57,-52.93 90.58,0 158.65,17.64 204.19,52.93 45.55,35.28 68.32,82.2 68.32,140.75 0,58.56 -22.77,105.36 -68.32,140.38 -45.54,35.04 -113.61,52.56 -204.19,52.56 -91.08,0 -159.4,-17.52 -204.94,-52.56zm362.21 -45.04c37.79,-21.02 56.68,-52.8 56.68,-95.34 0,-42.54 -18.89,-74.44 -56.68,-95.71 -37.79,-21.27 -90.21,-31.9 -157.27,-31.9 -67.56,0 -120.24,10.63 -158.02,31.9 -37.79,21.27 -56.68,53.18 -56.68,95.71 0,42.55 18.89,74.32 56.68,95.34 37.79,21.02 90.46,31.52 158.02,31.52 67.06,0 119.49,-10.5 157.27,-31.52zm105.48 -466.2l0 78.07 -87.08 0 0 -78.07 87.08 0zm-467.69 -130.63c-45.55,-35.03 -68.32,-81.82 -68.32,-140.38 0,-58.55 22.89,-105.48 68.69,-140.75 45.8,-35.29 113.99,-52.93 204.57,-52.93 90.58,0 158.65,17.64 204.19,52.93 45.55,35.28 68.32,82.2 68.32,140.75 0,58.56 -22.77,105.36 -68.32,140.38 -45.54,35.04 -113.61,52.56 -204.19,52.56 -91.08,0 -159.4,-17.52 -204.94,-52.56zm362.21 -45.04c37.79,-21.02 56.68,-52.8 56.68,-95.34 0,-42.54 -18.89,-74.44 -56.68,-95.71 -37.79,-21.27 -90.21,-31.9 -157.27,-31.9 -67.56,0 -120.24,10.63 -158.02,31.9 -37.79,21.27 -56.68,53.18 -56.68,95.71 0,42.55 18.89,74.32 56.68,95.34 37.79,21.02 90.46,31.52 158.02,31.52 67.06,0 119.49,-10.5 157.27,-31.52z"/>
   <path fill="#666666" fill-rule="nonzero" fill-opacity="0.800000" d="M536.46 13597.56l-58.56 0 0 -124.62 -397.87 0 0 15.02 74.31 110.36 -69.06 0 -74.32 -109.61 0 -81.83 466.94 0 0 -114.86 58.56 0 0 305.53zm-451.93 -705.66l451.93 227.46 0 69.07 -451.93 -228.21 -16.51 0 0 266.5 -57.06 0 0 -334.82 73.57 0zm268 -234.21c0,48.05 -16.13,88.08 -48.42,120.12 -32.28,32.02 -73.19,48.04 -122.74,48.04 -51.56,0 -94.59,-16.13 -129.13,-48.42 -34.53,-32.28 -51.8,-75.7 -51.8,-130.25 0,-59.56 20.52,-106.6 61.56,-141.13 41.04,-34.54 106.61,-51.8 196.69,-51.8 84.58,0 153.64,16.89 207.19,50.67 53.56,33.78 80.33,83.45 80.33,149.02 0,43.54 -11.64,79.2 -34.92,106.98 -23.26,27.77 -53.42,44.67 -90.45,50.67l0 -65.31c44.54,-13.01 66.81,-43.79 66.81,-92.33 0,-41.55 -16.51,-74.07 -49.55,-97.59 -33.03,-23.52 -78.57,-36.29 -136.63,-38.29l0 16.51c13.51,11.01 25.4,27.15 35.67,48.43 10.25,21.26 15.38,46.17 15.38,74.69zm-261.25 -93.84c-21.51,22.02 -32.27,49.55 -32.27,82.58 0,33.03 10.51,60.18 31.52,81.45 21.02,21.27 50.3,31.9 87.83,31.9 37.54,0 66.32,-10.76 86.33,-32.27 20.02,-21.52 30.03,-49.05 30.03,-82.58 0,-33.03 -10.26,-60.31 -30.78,-81.83 -20.51,-21.51 -48.8,-32.27 -84.83,-32.27 -37.04,0 -66.31,11.01 -87.83,33.02zm445.17 -286.77l0 78.07 -87.08 0 0 -78.07 87.08 0zm-467.69 -130.63c-45.55,-35.03 -68.32,-81.82 -68.32,-140.38 0,-58.55 22.89,-105.48 68.69,-140.75 45.8,-35.29 113.99,-52.93 204.57,-52.93 90.58,0 158.65,17.64 204.19,52.93 45.55,35.28 68.32,82.2 68.32,140.75 0,58.56 -22.77,105.36 -68.32,140.38 -45.54,35.04 -113.61,52.56 -204.19,52.56 -91.08,0 -159.4,-17.52 -204.94,-52.56zm362.21 -45.04c37.79,-21.02 56.68,-52.8 56.68,-95.34 0,-42.54 -18.89,-74.44 -56.68,-95.71 -37.79,-21.27 -90.21,-31.9 -157.27,-31.9 -67.56,0 -120.24,10.63 -158.02,31.9 -37.79,21.27 -56.68,53.18 -56.68,95.71 0,42.55 18.89,74.32 56.68,95.34 37.79,21.02 90.46,31.52 158.02,31.52 67.06,0 119.49,-10.5 157.27,-31.52zm-8.63 -856.56l0 -63.81c38.04,7.5 68.19,25.14 90.46,52.92 22.26,27.77 33.4,63.19 33.4,106.23 0,57.06 -18.64,101.97 -55.93,134.76 -37.29,32.77 -84.95,49.17 -143.01,49.17 -58.56,0 -106.36,-16.26 -143.39,-48.8 -37.04,-32.53 -55.55,-77.57 -55.55,-135.13 0,-43.54 10.88,-78.95 32.65,-106.23 21.77,-27.27 50.68,-44.17 86.71,-50.67l0 63.81c-42.55,13.51 -63.82,44.54 -63.82,93.08 0,40.54 13.39,70.69 40.17,90.46 26.77,19.77 60.68,29.65 101.72,29.65 41.54,0 76.07,-10.01 103.6,-30.03 27.52,-20.01 41.29,-50.05 41.29,-90.08 0,-53.05 -22.76,-84.83 -68.31,-95.33zm114.11 -159.15l-378.35 0 0 -101.34 172.67 -93.08 0 -16.52 -172.67 -93.08 0 -99.84 378.35 0 0 62.31 -304.03 0 0 16.51 162.15 87.83 0 70.57 -162.15 87.83 0 16.51 304.03 0 0 62.31z"/>
   <path fill="#666666" fill-rule="nonzero" fill-opacity="0.800000" d="M4877.16 14347.48l307.03 0 0 73.57 -131.37 112.61 0 15.76c46.55,1 84.2,15.51 112.98,43.55 28.78,28.02 43.17,66.81 43.17,116.36 0,53.55 -17.26,95.84 -51.8,126.87 -34.54,31.03 -79.07,46.55 -133.63,46.55 -52.55,0 -95.58,-14.76 -129.12,-44.3 -33.53,-29.52 -51.8,-67.06 -54.8,-112.61l66.06 0c3,29.53 15.39,53.3 37.16,71.32 21.77,18.01 48.68,27.02 80.7,27.02 36.54,0 65.57,-10.26 87.08,-30.77 21.52,-20.52 32.28,-48.55 32.28,-84.08 0,-35.04 -10.26,-62.44 -30.77,-82.2 -20.52,-19.77 -49.8,-29.65 -87.83,-29.65 -18.52,0 -33.78,1.5 -45.8,4.5l0 -69.81 128.37 -111.11 0 -16.51 -229.71 0 0 -57.06zm461.69 57.81c35.03,-45.55 81.82,-68.32 140.38,-68.32 58.55,0 105.48,22.89 140.75,68.69 35.29,45.8 52.93,113.99 52.93,204.57 0,90.58 -17.64,158.65 -52.93,204.19 -35.28,45.55 -82.2,68.32 -140.75,68.32 -58.56,0 -105.36,-22.77 -140.38,-68.32 -35.04,-45.54 -52.56,-113.61 -52.56,-204.19 0,-91.08 17.52,-159.4 52.56,-204.94zm45.04 362.21c21.02,37.79 52.8,56.68 95.34,56.68 42.54,0 74.44,-18.89 95.71,-56.68 21.27,-37.79 31.9,-90.21 31.9,-157.27 0,-67.56 -10.63,-120.24 -31.9,-158.02 -21.27,-37.79 -53.18,-56.68 -95.71,-56.68 -42.55,0 -74.32,18.89 -95.34,56.68 -21.02,37.79 -31.52,90.46 -31.52,158.02 0,67.06 10.5,119.49 31.52,157.27zm424.16 -362.21c35.03,-45.55 81.82,-68.32 140.38,-68.32 58.55,0 105.48,22.89 140.75,68.69 35.29,45.8 52.93,113.99 52.93,204.57 0,90.58 -17.64,158.65 -52.93,204.19 -35.28,45.55 -82.2,68.32 -140.75,68.32 -58.56,0 -105.36,-22.77 -140.38,-68.32 -35.04,-45.54 -52.56,-113.61 -52.56,-204.19 0,-91.08 17.52,-159.4 52.56,-204.94zm45.04 362.21c21.02,37.79 52.8,56.68 95.34,56.68 42.54,0 74.44,-18.89 95.71,-56.68 21.27,-37.79 31.9,-90.21 31.9,-157.27 0,-67.56 -10.63,-120.24 -31.9,-158.02 -21.27,-37.79 -53.18,-56.68 -95.71,-56.68 -42.55,0 -74.32,18.89 -95.34,56.68 -21.02,37.79 -31.52,90.46 -31.52,158.02 0,67.06 10.5,119.49 31.52,157.27zm439.16 105.48l-78.07 0 0 -87.08 78.07 0 0 87.08zm2243.13 -525.5l307.03 0 0 73.57 -131.37 112.61 0 15.76c46.55,1 84.2,15.51 112.98,43.55 28.78,28.02 43.17,66.81 43.17,116.36 0,53.55 -17.26,95.84 -51.8,126.87 -34.54,31.03 -79.07,46.55 -133.63,46.55 -52.55,0 -95.58,-14.76 -129.12,-44.3 -33.53,-29.52 -51.8,-67.06 -54.8,-112.61l66.06 0c3,29.53 15.39,53.3 37.16,71.32 21.77,18.01 48.68,27.02 80.7,27.02 36.54,0 65.57,-10.26 87.08,-30.77 21.52,-20.52 32.28,-48.55 32.28,-84.08 0,-35.04 -10.26,-62.44 -30.77,-82.2 -20.52,-19.77 -49.8,-29.65 -87.83,-29.65 -18.52,0 -33.78,1.5 -45.8,4.5l0 -69.81 128.37 -111.11 0 -16.51 -229.71 0 0 -57.06zm1535.95 411.39l63.81 0c-7.5,38.04 -25.14,68.19 -52.92,90.46 -27.77,22.26 -63.19,33.4 -106.23,33.4 -57.06,0 -101.97,-18.64 -134.76,-55.93 -32.77,-37.29 -49.17,-84.95 -49.17,-143.01 0,-58.56 16.26,-106.36 48.8,-143.39 32.53,-37.04 77.57,-55.55 135.13,-55.55 43.54,0 78.95,10.88 106.23,32.65 27.27,21.77 44.17,50.68 50.67,86.71l-63.81 0c-13.51,-42.55 -44.54,-63.82 -93.08,-63.82 -40.54,0 -70.69,13.39 -90.46,40.17 -19.77,26.77 -29.65,60.68 -29.65,101.72 0,41.54 10.01,76.07 30.03,103.6 20.01,27.52 50.05,41.29 90.08,41.29 53.05,0 84.83,-22.76 95.33,-68.31zm159.15 114.11l0 -378.35 101.34 0 93.08 172.67 16.52 0 93.08 -172.67 99.84 0 0 378.35 -62.31 0 0 -304.03 -16.51 0 -87.83 162.15 -70.57 0 -87.83 -162.15 -16.51 0 0 304.03 -62.31 0zm-3786.59 -467.69c35.03,-45.55 81.82,-68.32 140.38,-68.32 58.55,0 105.48,22.89 140.75,68.69 35.29,45.8 52.93,113.99 52.93,204.57 0,90.58 -17.64,158.65 -52.93,204.19 -35.28,45.55 -82.2,68.32 -140.75,68.32 -58.56,0 -105.36,-22.77 -140.38,-68.32 -35.04,-45.54 -52.56,-113.61 -52.56,-204.19 0,-91.08 17.52,-159.4 52.56,-204.94zm45.04 362.21c21.02,37.79 52.8,56.68 95.34,56.68 42.54,0 74.44,-18.89 95.71,-56.68 21.27,-37.79 31.9,-90.21 31.9,-157.27 0,-67.56 -10.63,-120.24 -31.9,-158.02 -21.27,-37.79 -53.18,-56.68 -95.71,-56.68 -42.55,0 -74.32,18.89 -95.34,56.68 -21.02,37.79 -31.52,90.46 -31.52,158.02 0,67.06 10.5,119.49 31.52,157.27zm853.56 105.48l-93.83 -158.4 -27.03 0 -96.08 158.4 -69.82 0 117.87 -193.68 -105.86 -184.68 67.57 0 87.08 150.14 27.02 0 88.58 -150.14 66.81 0 -107.35 182.42 117.11 195.94 -72.07 0zm352.84 0l0 -58.56 124.62 0 0 -397.87 -15.02 0 -110.36 74.31 0 -69.06 109.61 -74.32 81.83 0 0 466.94 114.86 0 0 58.56 -305.53 0zm572.03 -353.58c51.05,0 91.96,16.76 122.74,50.3 30.78,33.52 46.18,75.32 46.18,125.37 0,56.55 -16.64,101.96 -49.93,136.25 -33.28,34.28 -76.7,51.43 -130.25,51.43 -55.55,0 -99.21,-14.51 -131,-43.55 -31.77,-29.02 -49.17,-66.81 -52.18,-113.36l65.32 0c4,32.03 16.01,56.43 36.04,73.2 20.01,16.76 46.29,25.14 78.82,25.14 35.04,0 63.31,-11.38 84.83,-34.15 21.51,-22.77 32.27,-53.43 32.27,-91.96 0,-36.54 -10.38,-66.19 -31.15,-88.96 -20.76,-22.76 -48.67,-34.15 -83.7,-34.15 -47.05,0 -81.82,16.51 -104.35,49.55l-66.07 0 23.27 -277.01 300.28 0 0 57.06 -246.98 0 -12.01 151.64 16.51 0c27.02,-24.52 60.81,-36.79 101.34,-36.79zm771.73 353.58l-78.07 0 0 -87.08 78.07 0 0 87.08zm130.63 -467.69c35.03,-45.55 81.82,-68.32 140.38,-68.32 58.55,0 105.48,22.89 140.75,68.69 35.29,45.8 52.93,113.99 52.93,204.57 0,90.58 -17.64,158.65 -52.93,204.19 -35.28,45.55 -82.2,68.32 -140.75,68.32 -58.56,0 -105.36,-22.77 -140.38,-68.32 -35.04,-45.54 -52.56,-113.61 -52.56,-204.19 0,-91.08 17.52,-159.4 52.56,-204.94zm45.04 362.21c21.02,37.79 52.8,56.68 95.34,56.68 42.54,0 74.44,-18.89 95.71,-56.68 21.27,-37.79 31.9,-90.21 31.9,-157.27 0,-67.56 -10.63,-120.24 -31.9,-158.02 -21.27,-37.79 -53.18,-56.68 -95.71,-56.68 -42.55,0 -74.32,18.89 -95.34,56.68 -21.02,37.79 -31.52,90.46 -31.52,158.02 0,67.06 10.5,119.49 31.52,157.27z"/>
   <path fill="#666666" fill-rule="nonzero" fill-opacity="0.800000" d="M21626.65 6365.22c-48.05,0 -88.08,-16.13 -120.12,-48.42 -32.02,-32.28 -48.04,-73.19 -48.04,-122.74 0,-51.56 16.13,-94.59 48.42,-129.13 32.28,-34.53 75.7,-51.8 130.25,-51.8 59.56,0 106.6,20.52 141.13,61.56 34.54,41.04 51.8,106.61 51.8,196.69 0,84.58 -16.89,153.64 -50.67,207.19 -33.78,53.56 -83.45,80.33 -149.02,80.33 -43.54,0 -79.2,-11.64 -106.98,-34.92 -27.77,-23.26 -44.67,-53.42 -50.67,-90.45l65.31 0c13.01,44.54 43.79,66.81 92.33,66.81 41.55,0 74.07,-16.51 97.59,-49.55 23.52,-33.03 36.29,-78.57 38.29,-136.63l-16.51 0c-11.01,13.51 -27.15,25.4 -48.43,35.67 -21.26,10.25 -46.17,15.38 -74.69,15.38zm93.84 -261.25c-22.02,-21.51 -49.55,-32.27 -82.58,-32.27 -33.03,0 -60.18,10.51 -81.45,31.52 -21.27,21.02 -31.9,50.3 -31.9,87.83 0,37.54 10.76,66.32 32.27,86.33 21.52,20.02 49.05,30.03 82.58,30.03 33.03,0 60.31,-10.26 81.83,-30.78 21.51,-20.51 32.27,-48.8 32.27,-84.83 0,-37.04 -11.01,-66.31 -33.02,-87.83zm395.63 102.85c48.04,0 88.08,16.13 120.11,48.42 32.03,32.28 48.05,73.19 48.05,122.74 0,51.55 -16.14,94.59 -48.42,129.13 -32.28,34.53 -75.7,51.8 -130.25,51.8 -59.56,0 -106.61,-20.52 -141.14,-61.56 -34.53,-41.04 -51.8,-106.61 -51.8,-196.69 0,-84.58 16.89,-153.64 50.68,-207.19 33.78,-53.56 83.45,-80.33 149.01,-80.33 43.55,0 79.2,11.64 106.98,34.91 27.78,23.27 44.67,53.43 50.68,90.46l-65.31 0c-13.01,-44.54 -43.8,-66.81 -92.34,-66.81 -41.54,0 -74.07,16.51 -97.59,49.55 -23.51,33.02 -36.28,78.57 -38.29,136.63l16.52 0c11.01,-13.51 27.14,-25.4 48.42,-35.67 21.27,-10.25 46.17,-15.38 74.7,-15.38zm-93.84 261.25c22.02,21.51 49.55,32.27 82.58,32.27 33.02,0 60.18,-10.51 81.45,-31.52 21.26,-21.02 31.9,-50.3 31.9,-87.83 0,-37.54 -10.76,-66.32 -32.28,-86.33 -21.52,-20.02 -49.05,-30.03 -82.57,-30.03 -33.03,0 -60.31,10.26 -81.83,30.78 -21.52,20.51 -32.28,48.8 -32.28,84.82 0,37.04 11.01,66.32 33.03,87.84zm430.16 81.07l-78.07 0 0 -87.08 78.07 0 0 87.08zm130.63 -467.69c35.03,-45.55 81.82,-68.32 140.38,-68.32 58.55,0 105.48,22.89 140.75,68.69 35.29,45.8 52.93,113.99 52.93,204.57 0,90.58 -17.64,158.65 -52.93,204.19 -35.28,45.55 -82.2,68.32 -140.75,68.32 -58.56,0 -105.36,-22.77 -140.38,-68.32 -35.04,-45.54 -52.56,-113.61 -52.56,-204.19 0,-91.08 17.52,-159.4 52.56,-204.94zm45.04 362.21c21.02,37.79 52.8,56.68 95.34,56.68 42.54,0 74.44,-18.89 95.71,-56.68 21.27,-37.79 31.9,-90.21 31.9,-157.27 0,-67.56 -10.63,-120.24 -31.9,-158.02 -21.27,-37.79 -53.18,-56.68 -95.71,-56.68 -42.55,0 -74.32,18.89 -95.34,56.68 -21.02,37.79 -31.52,90.46 -31.52,158.02 0,67.06 10.5,119.49 31.52,157.27zm856.56 -8.63l63.81 0c-7.5,38.04 -25.14,68.19 -52.92,90.46 -27.77,22.26 -63.19,33.4 -106.23,33.4 -57.06,0 -101.97,-18.64 -134.76,-55.93 -32.77,-37.29 -49.17,-84.95 -49.17,-143.01 0,-58.56 16.26,-106.36 48.8,-143.39 32.53,-37.04 77.57,-55.55 135.13,-55.55 43.54,0 78.95,10.88 106.23,32.65 27.27,21.77 44.17,50.68 50.67,86.71l-63.81 0c-13.51,-42.55 -44.54,-63.82 -93.08,-63.82 -40.54,0 -70.69,13.39 -90.46,40.17 -19.77,26.77 -29.65,60.68 -29.65,101.72 0,41.54 10.01,76.07 30.03,103.6 20.01,27.52 50.05,41.29 90.08,41.29 53.05,0 84.83,-22.76 95.33,-68.31zm159.15 114.11l0 -378.35 101.34 0 93.08 172.67 16.52 0 93.08 -172.67 99.84 0 0 378.35 -62.31 0 0 -304.03 -16.51 0 -87.83 162.15 -70.57 0 -87.83 -162.15 -16.51 0 0 304.03 -62.31 0z"/>
   <g>
    <line fill="none" stroke="gray" stroke-width="10.58" stroke-miterlimit="22.9256" x1="555.44" y1="4483.31" x2="1657.6" y2= "4483.31" />
    <line fill="none" stroke="gray" stroke-width="10.58" stroke-miterlimit="22.9256" x1="552.75" y1="358.01" x2="1657.6" y2= "358.01" />
    <line fill="none" stroke="gray" stroke-width="10.58" stroke-miterlimit="22.9256" x1="969.63" y1="4894.25" x2="969.63" y2= "0" />
   </g>
   <g>
    <line fill="none" stroke="gray" stroke-width="10.58" stroke-miterlimit="22.9256" x1="1863" y1="18220.44" x2="1863" y2= "17115.58" />
    <line fill="none" stroke="gray" stroke-width="10.58" stroke-miterlimit="22.9256" x1="18400.21" y1="18217.74" x2="18400.21" y2= "17115.58" />
    <line fill="none" stroke="gray" stroke-width="10.58" stroke-miterlimit="22.9256" x1="18779.27" y1="17803.55" x2="1448.81" y2= "17803.55" />
   </g>
   <g>
    <line fill="none" stroke="gray" stroke-width="10.58" stroke-miterlimit="22.9256" x1="20511.9" y1="6008.54" x2="20511.9" y2= "4903.69" />
    <line fill="none" stroke="gray" stroke-width="10.58" stroke-miterlimit="22.9256" x1="25413.12" y1="5591.66" x2="20093.09" y2= "5591.66" />
    <line fill="none" stroke="gray" stroke-width="10.58" stroke-miterlimit="22.9256" x1="24984.64" y1="6005.85" x2="24984.64" y2= "4903.69" />
   </g>
   <g>
    <line fill="none" stroke="gray" stroke-width="10.58" stroke-miterlimit="22.9256" x1="553.2" y1="7679.58" x2="1658.05" y2= "7679.58" />
    <line fill="none" stroke="gray" stroke-width="10.58" stroke-miterlimit="22.9256" x1="558.15" y1="16526.87" x2="1660.31" y2= "16526.87" />
    <line fill="none" stroke="gray" stroke-width="10.58" stroke-miterlimit="22.9256" x1="972.34" y1="16948.81" x2="970.05" y2= "7331.29" />
   </g>
  </g>
 </g>
</svg>
