<?xml version="1.0" encoding="UTF-8"?>
<!DOCTYPE svg PUBLIC "-//W3C//DTD SVG 1.1//EN" "http://www.w3.org/Graphics/SVG/1.1/DTD/svg11.dtd">
<!-- Creator: CorelDRAW 2021.5 -->
<svg xmlns="http://www.w3.org/2000/svg" xml:space="preserve" width="128.981mm" height="108.413mm" version="1.1" shape-rendering="geometricPrecision" text-rendering="geometricPrecision" image-rendering="optimizeQuality" fill-rule="evenodd" clip-rule="evenodd"
viewBox="0 0 12902.32 10844.87"
 xmlns:xlink="http://www.w3.org/1999/xlink"
 xmlns:xodm="http://www.corel.com/coreldraw/odm/2003">
 <g id="Тени">
  <metadata id="CorelCorpID_0Corel-Layer"/>
  <g id="_2238828406000">
   <polygon fill="black" fill-opacity="0.101961" points="2045.62,1292.46 6132.26,1292.46 6132.26,1394.16 2045.62,1394.16 "/>
   <polygon fill="black" fill-opacity="0.101961" points="8690.63,1287.37 12777.27,1287.37 12777.27,1389.07 8690.63,1389.07 "/>
   <rect fill="none" stroke="black" stroke-width="10.58" stroke-miterlimit="22.9256" x="1920.96" y="4415.87" width="4343.19" height="4343.19" rx="35.79" ry="90.49"/>
   <g>
    <path fill="none" stroke="black" stroke-width="10.58" stroke-miterlimit="22.9256" d="M2035.93 421.06c1339.84,0 2712.32,2.98 4052.13,2.98 117.59,6.77 142.62,47.2 150.19,84.91 8.71,357.14 27.21,552.82 -2.28,684.24 -11.69,52.23 -55.2,96.51 -122.45,96.51l-4077.59 0c-67.28,0 -122.46,-43.42 -122.46,-96.51l0 -675.61c0,-53.08 55.09,-96.52 122.46,-96.52z"/>
    <rect fill="none" stroke="black" stroke-width="10.58" stroke-miterlimit="22.9256" x="2045.62" y="1292.47" width="4086.63" height="965.15" rx="23.79" ry="48.26"/>
    <path fill="none" stroke="black" stroke-width="10.58" stroke-miterlimit="22.9256" d="M6210.77 459.85c-24.56,-22.77 -63.22,-34.21 -113.32,-47.3 -250.04,-65.34 -778.83,-40.19 -1059.34,-40.61 -867.55,-1.3 -1565.44,-1.96 -1695.81,0.44 -588.94,10.82 -1065.94,-2.2 -1286.56,28.41 -27.71,3.83 -82.86,17.94 -111.97,53.41"/>
    <rect fill="none" stroke="black" stroke-width="10.58" stroke-miterlimit="22.9256" x="2141.6" y="2266.11" width="965.15" height="144.77"/>
    <rect fill="none" stroke="black" stroke-width="10.58" stroke-miterlimit="22.9256" x="5085.9" y="2263.98" width="965.15" height="144.77"/>
   </g>
   <g>
    <path fill="none" stroke="black" stroke-width="10.58" stroke-miterlimit="22.9256" d="M8680.94 415.97c1339.84,0 2712.31,2.98 4052.13,2.98 117.59,6.77 142.62,47.2 150.18,84.91 8.72,357.14 27.21,552.82 -2.27,684.24 -11.69,52.23 -55.21,96.52 -122.45,96.52l-4077.59 0c-67.29,0 -122.47,-43.43 -122.47,-96.52l0 -675.6c0,-53.09 55.1,-96.53 122.47,-96.53z"/>
    <rect fill="none" stroke="black" stroke-width="10.58" stroke-miterlimit="22.9256" x="8690.63" y="1287.38" width="4086.63" height="965.15" rx="23.79" ry="48.26"/>
    <path fill="none" stroke="black" stroke-width="10.58" stroke-miterlimit="22.9256" d="M12855.78 454.76c-24.56,-22.77 -63.23,-34.21 -113.33,-47.3 -250.03,-65.34 -778.82,-40.18 -1059.34,-40.61 -867.54,-1.3 -1565.43,-1.96 -1695.8,0.45 -588.95,10.81 -1065.95,-2.2 -1286.57,28.4 -27.71,3.83 -82.86,17.94 -111.97,53.41"/>
    <rect fill="none" stroke="black" stroke-width="10.58" stroke-miterlimit="22.9256" x="8786.61" y="2261.02" width="965.15" height="144.77"/>
    <rect fill="none" stroke="black" stroke-width="10.58" stroke-miterlimit="22.9256" x="11730.91" y="2258.89" width="965.15" height="144.77"/>
   </g>
   <path fill="#666666" fill-rule="nonzero" fill-opacity="0.800000" d="M2925.17 10644.3c-49.75,0 -91.21,-16.72 -124.38,-50.14 -33.16,-33.43 -49.75,-75.79 -49.75,-127.1 0,-53.39 16.71,-97.95 50.14,-133.71 33.43,-35.76 78.39,-53.64 134.87,-53.64 61.68,0 110.4,21.25 146.15,63.74 35.76,42.5 53.65,110.4 53.65,203.68 0,87.59 -17.5,159.1 -52.48,214.56 -34.98,55.46 -86.42,83.18 -154.31,83.18 -45.08,0 -82.02,-12.04 -110.78,-36.14 -28.77,-24.1 -46.26,-55.33 -52.48,-93.68l67.63 0c13.47,46.13 45.34,69.19 95.62,69.19 43.01,0 76.71,-17.11 101.06,-51.31 24.36,-34.21 37.57,-81.37 39.64,-141.49l-17.11 0c-11.39,13.99 -28.11,26.3 -50.14,36.92 -22.03,10.62 -47.82,15.94 -77.36,15.94zm97.17 -270.53c-22.8,-22.29 -51.31,-33.42 -85.51,-33.42 -34.2,0 -62.32,10.88 -84.35,32.64 -22.03,21.77 -33.04,52.09 -33.04,90.96 0,38.87 11.14,68.67 33.43,89.4 22.29,20.73 50.79,31.09 85.51,31.09 34.21,0 62.45,-10.62 84.74,-31.87 22.29,-21.25 33.43,-50.53 33.43,-87.84 0,-38.35 -11.4,-68.67 -34.21,-90.96zm253.43 -23.32c36.28,-47.17 84.74,-70.74 145.37,-70.74 60.64,0 109.23,23.71 145.77,71.13 36.53,47.42 54.8,118.03 54.8,211.83 0,93.81 -18.27,164.29 -54.8,211.45 -36.54,47.17 -85.13,70.74 -145.77,70.74 -60.63,0 -109.09,-23.58 -145.37,-70.74 -36.27,-47.16 -54.42,-117.64 -54.42,-211.45 0,-94.32 18.15,-165.06 54.42,-212.22zm46.65 375.08c21.77,39.13 54.68,58.7 98.72,58.7 44.05,0 77.1,-19.57 99.12,-58.7 22.03,-39.12 33.04,-93.41 33.04,-162.86 0,-69.96 -11.01,-124.51 -33.04,-163.63 -22.03,-39.13 -55.07,-58.69 -99.12,-58.69 -44.04,0 -76.96,19.56 -98.72,58.69 -21.77,39.12 -32.65,93.67 -32.65,163.63 0,69.45 10.88,123.74 32.65,162.86zm482.76 109.23l-80.85 0 0 -90.18 80.85 0 0 90.18zm135.26 -484.31c36.28,-47.17 84.74,-70.74 145.37,-70.74 60.64,0 109.23,23.71 145.77,71.13 36.53,47.42 54.8,118.03 54.8,211.83 0,93.81 -18.27,164.29 -54.8,211.45 -36.54,47.17 -85.13,70.74 -145.77,70.74 -60.63,0 -109.09,-23.58 -145.37,-70.74 -36.27,-47.16 -54.42,-117.64 -54.42,-211.45 0,-94.32 18.15,-165.06 54.42,-212.22zm46.65 375.08c21.77,39.13 54.68,58.7 98.72,58.7 44.05,0 77.1,-19.57 99.12,-58.7 22.03,-39.12 33.04,-93.41 33.04,-162.86 0,-69.96 -11.01,-124.51 -33.04,-163.63 -22.03,-39.13 -55.07,-58.69 -99.12,-58.69 -44.04,0 -76.96,19.56 -98.72,58.69 -21.77,39.12 -32.65,93.67 -32.65,163.63 0,69.45 10.88,123.74 32.65,162.86zm887 -8.93l66.07 0c-7.77,39.38 -26.04,70.61 -54.81,93.67 -28.76,23.07 -65.42,34.59 -110,34.59 -59.08,0 -105.59,-19.31 -139.54,-57.91 -33.95,-38.61 -50.93,-87.98 -50.93,-148.1 0,-60.63 16.85,-110.13 50.54,-148.48 33.68,-38.35 80.33,-57.53 139.93,-57.53 45.08,0 81.76,11.27 110,33.82 28.25,22.55 45.75,52.48 52.48,89.79l-66.08 0c-13.98,-44.05 -46.13,-66.08 -96.39,-66.08 -41.97,0 -73.2,13.86 -93.67,41.59 -20.48,27.73 -30.71,62.84 -30.71,105.33 0,43.01 10.36,78.78 31.09,107.28 20.74,28.51 51.83,42.76 93.29,42.76 54.94,0 87.85,-23.59 98.73,-70.74zm164.79 118.16l0 -391.8 104.95 0 96.39 178.8 17.11 0 96.39 -178.8 103.39 0 0 391.8 -64.52 0 0 -314.84 -17.11 0 -90.95 167.92 -73.07 0 -90.96 -167.92 -17.1 0 0 314.84 -64.53 0z"/>
   <path fill="#666666" fill-rule="nonzero" fill-opacity="0.800000" d="M375.82 1829.87l0 -74.62 60.64 0 0 74.62 127.49 0 0 66.85 -127.49 0 0 268.98 -77.74 0 -338.94 -240.21 0 -95.62 356.04 0zm0 264.32l0 -198.24 -279.08 0 0 17.1 261.99 181.14 17.1 0zm-356.04 -435.33l0 -317.95 76.18 0 116.61 136.04 16.33 0c1.03,-48.2 16.07,-87.2 45.08,-117 29.02,-29.8 69.19,-44.69 120.5,-44.69 55.45,0 99.24,17.88 131.37,53.64 32.13,35.76 48.2,81.88 48.2,138.38 0,54.42 -15.29,98.98 -45.87,133.7 -30.58,34.72 -69.44,53.64 -116.61,56.75l0 -68.4c30.58,-3.11 55.2,-15.95 73.85,-38.48 18.66,-22.55 27.99,-50.41 27.99,-83.57 0,-37.83 -10.62,-67.89 -31.88,-90.18 -21.25,-22.29 -50.27,-33.43 -87.06,-33.43 -36.28,0 -64.66,10.62 -85.13,31.88 -20.47,21.25 -30.71,51.56 -30.71,90.95 0,19.18 1.56,34.98 4.67,47.42l-72.3 0 -115.05 -132.93 -17.11 0 0 237.89 -59.08 0zm544.17 -521.63l0 80.85 -90.18 0 0 -80.85 90.18 0zm-484.31 -135.26c-47.17,-36.28 -70.74,-84.74 -70.74,-145.37 0,-60.64 23.71,-109.23 71.13,-145.77 47.42,-36.53 118.03,-54.8 211.83,-54.8 93.81,0 164.29,18.27 211.45,54.8 47.17,36.54 70.74,85.13 70.74,145.77 0,60.63 -23.58,109.09 -70.74,145.37 -47.16,36.27 -117.64,54.42 -211.45,54.42 -94.32,0 -165.06,-18.15 -212.22,-54.42zm375.08 -46.65c39.13,-21.77 58.7,-54.68 58.7,-98.72 0,-44.05 -19.57,-77.1 -58.7,-99.12 -39.12,-22.03 -93.41,-33.04 -162.86,-33.04 -69.96,0 -124.51,11.01 -163.63,33.04 -39.13,22.03 -58.69,55.07 -58.69,99.12 0,44.04 19.56,76.96 58.69,98.72 39.12,21.77 93.67,32.65 163.63,32.65 69.45,0 123.74,-10.88 162.86,-32.65z"/>
   <path fill="#666666" fill-rule="nonzero" fill-opacity="0.800000" d="M364.59 7772.17c0,49.75 -16.72,91.21 -50.14,124.38 -33.43,33.16 -75.79,49.75 -127.1,49.75 -53.39,0 -97.95,-16.71 -133.71,-50.14 -35.76,-33.43 -53.64,-78.39 -53.64,-134.87 0,-61.68 21.25,-110.4 63.74,-146.15 42.5,-35.76 110.4,-53.65 203.68,-53.65 87.59,0 159.1,17.5 214.56,52.48 55.46,34.98 83.18,86.42 83.18,154.31 0,45.08 -12.04,82.02 -36.14,110.78 -24.1,28.77 -55.33,46.26 -93.68,52.48l0 -67.63c46.13,-13.47 69.19,-45.34 69.19,-95.62 0,-43.01 -17.11,-76.71 -51.31,-101.06 -34.21,-24.36 -81.37,-37.57 -141.49,-39.64l0 17.11c13.99,11.39 26.3,28.11 36.92,50.14 10.62,22.03 15.94,47.82 15.94,77.36zm-270.53 -97.17c-22.29,22.8 -33.42,51.31 -33.42,85.51 0,34.2 10.88,62.32 32.64,84.35 21.77,22.03 52.09,33.04 90.96,33.04 38.87,0 68.67,-11.14 89.4,-33.43 20.73,-22.29 31.09,-50.79 31.09,-85.51 0,-34.21 -10.62,-62.45 -31.87,-84.74 -21.25,-22.29 -50.53,-33.43 -87.84,-33.43 -38.35,0 -68.67,11.4 -90.96,34.21zm-23.32 -253.43c-47.17,-36.28 -70.74,-84.74 -70.74,-145.37 0,-60.64 23.71,-109.23 71.13,-145.77 47.42,-36.53 118.03,-54.8 211.83,-54.8 93.81,0 164.29,18.27 211.45,54.8 47.17,36.54 70.74,85.13 70.74,145.77 0,60.63 -23.58,109.09 -70.74,145.37 -47.16,36.27 -117.64,54.42 -211.45,54.42 -94.32,0 -165.06,-18.15 -212.22,-54.42zm375.08 -46.65c39.13,-21.77 58.7,-54.68 58.7,-98.72 0,-44.05 -19.57,-77.1 -58.7,-99.12 -39.12,-22.03 -93.41,-33.04 -162.86,-33.04 -69.96,0 -124.51,11.01 -163.63,33.04 -39.13,22.03 -58.69,55.07 -58.69,99.12 0,44.04 19.56,76.96 58.69,98.72 39.12,21.77 93.67,32.65 163.63,32.65 69.45,0 123.74,-10.88 162.86,-32.65zm109.23 -482.76l0 80.85 -90.18 0 0 -80.85 90.18 0zm-484.31 -135.26c-47.17,-36.28 -70.74,-84.74 -70.74,-145.37 0,-60.64 23.71,-109.23 71.13,-145.77 47.42,-36.53 118.03,-54.8 211.83,-54.8 93.81,0 164.29,18.27 211.45,54.8 47.17,36.54 70.74,85.13 70.74,145.77 0,60.63 -23.58,109.09 -70.74,145.37 -47.16,36.27 -117.64,54.42 -211.45,54.42 -94.32,0 -165.06,-18.15 -212.22,-54.42zm375.08 -46.65c39.13,-21.77 58.7,-54.68 58.7,-98.72 0,-44.05 -19.57,-77.1 -58.7,-99.12 -39.12,-22.03 -93.41,-33.04 -162.86,-33.04 -69.96,0 -124.51,11.01 -163.63,33.04 -39.13,22.03 -58.69,55.07 -58.69,99.12 0,44.04 19.56,76.96 58.69,98.72 39.12,21.77 93.67,32.65 163.63,32.65 69.45,0 123.74,-10.88 162.86,-32.65zm-8.93 -887l0 -66.07c39.38,7.77 70.61,26.04 93.67,54.81 23.07,28.76 34.59,65.42 34.59,110 0,59.08 -19.31,105.59 -57.91,139.54 -38.61,33.95 -87.98,50.93 -148.1,50.93 -60.63,0 -110.13,-16.85 -148.48,-50.54 -38.35,-33.68 -57.53,-80.33 -57.53,-139.93 0,-45.08 11.27,-81.76 33.82,-110 22.55,-28.25 52.48,-45.75 89.79,-52.48l0 66.08c-44.05,13.98 -66.08,46.13 -66.08,96.39 0,41.97 13.86,73.2 41.59,93.67 27.73,20.48 62.84,30.71 105.33,30.71 43.01,0 78.78,-10.36 107.28,-31.09 28.51,-20.74 42.76,-51.83 42.76,-93.29 0,-54.94 -23.59,-87.85 -70.74,-98.73zm118.16 -164.79l-391.8 0 0 -104.95 178.8 -96.39 0 -17.11 -178.8 -96.39 0 -103.39 391.8 0 0 64.52 -314.84 0 0 17.11 167.92 90.95 0 73.07 -167.92 90.96 0 17.1 314.84 0 0 64.53z"/>
   <g>
    <line fill="none" stroke="gray" stroke-width="10.58" stroke-miterlimit="22.9256" x1="572.39" y1="8756.02" x2="1716.51" y2= "8756.02" />
    <line fill="none" stroke="gray" stroke-width="10.58" stroke-miterlimit="22.9256" x1="572.39" y1="4430.49" x2="1716.51" y2= "4430.49" />
    <line fill="none" stroke="gray" stroke-width="10.58" stroke-miterlimit="22.9256" x1="1004.09" y1="9126.75" x2="1004.09" y2= "4059.75" />
   </g>
   <g>
    <line fill="none" stroke="gray" stroke-width="10.58" stroke-miterlimit="22.9256" x1="575.18" y1="2396.21" x2="1716.51" y2= "2396.21" />
    <line fill="none" stroke="gray" stroke-width="10.58" stroke-miterlimit="22.9256" x1="572.39" y1="394.03" x2="1716.51" y2= "394.03" />
    <line fill="none" stroke="gray" stroke-width="10.58" stroke-miterlimit="22.9256" x1="1004.09" y1="2821.75" x2="1004.09" y2= "0" />
   </g>
   <g>
    <line fill="none" stroke="gray" stroke-width="10.58" stroke-miterlimit="22.9256" x1="1898.26" y1="10247.31" x2="1898.26" y2= "9103.2" />
    <line fill="none" stroke="gray" stroke-width="10.58" stroke-miterlimit="22.9256" x1="6738.84" y1="9815.61" x2="1469.35" y2= "9815.61" />
    <line fill="none" stroke="gray" stroke-width="10.58" stroke-miterlimit="22.9256" x1="6344.53" y1="10244.52" x2="6344.53" y2= "9103.2" />
   </g>
  </g>
 </g>
</svg>
