<?xml version="1.0" encoding="UTF-8"?>
<!DOCTYPE svg PUBLIC "-//W3C//DTD SVG 1.1//EN" "http://www.w3.org/Graphics/SVG/1.1/DTD/svg11.dtd">
<!-- Creator: CorelDRAW 2021.5 -->
<svg xmlns="http://www.w3.org/2000/svg" xml:space="preserve" width="210mm" height="148mm" version="1.1" shape-rendering="geometricPrecision" text-rendering="geometricPrecision" image-rendering="optimizeQuality" fill-rule="evenodd" clip-rule="evenodd"
viewBox="0 0 20985.75 14789.96"
 xmlns:xlink="http://www.w3.org/1999/xlink"
 xmlns:xodm="http://www.corel.com/coreldraw/odm/2003">
 <g id="Тени">
  <metadata id="CorelCorpID_0Corel-Layer"/>
  <rect fill="none" width="20985.75" height="14789.96"/>
  <path fill="black" fill-opacity="0.101961" d="M6011.6 10738.98c41.43,-766.62 253.21,-997.96 497.54,-1011.78 25.98,-1.47 90.6,-6.21 120.53,-7.3 -205.12,-45.19 -365.2,-123.71 -473.37,-180.58 -59.25,-31.14 -96.04,-75.75 -118.13,-128.76 -23.33,-56.05 -21.42,-31.28 -17.49,-122.5l-2.31 -455.84c-0.39,-80.8 58.82,-119.56 44.9,-116.34l-71.02 16.5 -5.97 154.73 6.05 2959.74c31.86,-870.22 -21.2,-358.85 19.27,-1107.88zm2132.64 -983.17c145.23,9.31 258.14,24.35 284.9,34.64 258.09,99.19 438.79,257.93 479.73,991.58 18.59,332.97 67.89,1267.22 67.89,1267.22 -1.29,-1885.5 -0.4,-2605.67 1.6,-2618.55 0.08,-24.96 -35.61,-62.49 -42.75,-19.5l-17.03 23.31c-21.34,46.57 -44.77,61.22 -167.61,147.26 -120.74,84.55 -324.3,129.31 -606.74,174.04z"/>
  <path fill="black" fill-opacity="0.101961" d="M6443.54 1893.46c588.03,73.23 673.75,194.41 1053.26,200.76 404.5,6.8 613.14,-178.02 1065.38,-190.01 -353.81,8.25 -699.99,20 -1053.81,28.28l-1064.83 -39.03z"/>
  <path fill="black" fill-opacity="0.101961" d="M6436.06 3788.38c623.04,-140.18 666.76,-213.96 1046.26,-223.51 404.5,-10.16 533.41,73.2 1072.75,220.74 -353.82,-12.38 -699.88,-50.66 -1053.7,-63.07l-1065.31 65.84z"/>
  <path fill="black" fill-opacity="0.101961" d="M5021.61 5181.97c1684.3,0 3306.37,0 4990.66,0 -7.7,70.26 -36.52,107.09 -36.52,107.09 -1658.53,0 -3223.7,0 -4882.22,0 0,6.94 -65.49,-51.25 -71.92,-107.09z"/>
  <polygon fill="black" fill-opacity="0.101961" points="12265.07,2615.39 14236.68,2615.39 14236.68,2734.59 12392.68,2734.59 12270.95,2820.97 12265.07,2734.59 "/>
  <polygon fill="black" fill-opacity="0.101961" points="6024.14,3952.49 6073.8,3886.9 6144.36,3869.89 6156.17,4741.64 6021.65,4741.64 "/>
  <polygon fill="black" fill-opacity="0.101961" points="9033.31,3962.08 8983.65,3896.49 8913.09,3879.49 8901.29,4751.23 9035.79,4751.23 "/>
 </g>
 <g id="Схема">
  <metadata id="CorelCorpID_1Corel-Layer"/>
  <g id="_2238821521760">
   <path fill="none" stroke="black" stroke-width="10.57" stroke-miterlimit="22.9256" d="M16758.6 3811.82c62.6,20.26 108.23,79.26 108.23,148.36l0 632.24c0,69.1 -45.57,128.09 -108.15,148.34"/>
   <path fill="none" stroke="black" stroke-width="10.57" stroke-miterlimit="22.9256" d="M12323.72 2774.81l0 -607.68c0,-51.19 41.87,-93.05 93.05,-93.05l744.4 0c51.18,0 93.05,41.87 93.05,93.05l0 564.07"/>
   <path fill="none" stroke="black" stroke-width="10.57" stroke-miterlimit="22.9256" d="M12373.93 2092.82c-121.19,8.58 -117.91,160.41 -106.65,388.48 2.51,50.95 3.54,187.72 3.68,364.31"/>
   <path fill="none" stroke="black" stroke-width="10.57" stroke-miterlimit="22.9256" d="M13180.31 2076.07c121.19,8.79 139.92,175.48 128.68,408.75 -1.84,38.22 -2.93,132.25 -3.41,246.37"/>
   <path fill="none" stroke="black" stroke-width="10.57" stroke-miterlimit="22.9256" d="M13422.76 2731.21l-25.61 -664.69c-3.6,-93.43 -22.41,-187.29 110.9,-192.83l393.54 -16.35c35.38,-1.47 131.64,-4.45 137.28,141.8l28.2 732.06"/>
   <path fill="none" stroke="black" stroke-width="10.57" stroke-miterlimit="22.9256" d="M13440.73 1895.31c-120.9,9.67 -144.38,304.96 -128.01,432.52 6.88,53.63 15.92,231.82 23.65,407.45"/>
   <path fill="none" stroke="black" stroke-width="10.57" stroke-miterlimit="22.9256" d="M13901.59 1857.34c121.28,0.01 267.34,164.22 284.29,292.58 18.21,137.82 32.02,379.13 41.44,588.76"/>
   <rect fill="none" stroke="black" stroke-width="10.57" stroke-miterlimit="22.9256" transform="matrix(1.85177E-14 -1.90666 0.939482 6.78516E-14 12258 5285.65)" width="1339.75" height="4785.98" rx="96.77" ry="96.77"/>
   <path fill="none" stroke="black" stroke-width="10.57" stroke-miterlimit="22.9256" d="M16404.07 5285.69l-182.67 0c21.12,21.87 81.41,58.84 76.68,65.17 54.42,158.93 70.36,321.99 110.4,479.75 28.07,0.61 56.14,1.21 84.2,1.81 -6.5,-149.53 -11.22,-281.76 -17.72,-431.3 1.74,-17.37 -9.35,-46.48 -24.13,-66.55l-46.76 -48.88z"/>
   <path fill="none" stroke="black" stroke-width="10.57" stroke-miterlimit="22.9256" d="M12543.29 5286.4l182.66 0c-21.11,21.87 -81.4,58.84 -76.67,65.17 -54.43,158.93 -70.36,321.99 -110.41,479.75 -28.06,0.61 -56.13,1.2 -84.2,1.81 6.5,-149.54 11.23,-281.77 17.72,-431.31 -1.74,-17.37 9.36,-46.48 24.14,-66.54l46.76 -48.88z"/>
   <path fill="none" stroke="black" stroke-width="10.57" stroke-miterlimit="22.9256" d="M12302.7 2923.23l0 2180.58c0,100.02 81.8,181.84 181.82,181.84l4043.23 0c100.01,0 181.83,-81.81 181.83,-181.84l0 -2171.59c0,-90.11 -73.72,-163.83 -163.83,-163.83l-4088.21 0c-85.16,0 -154.83,69.68 -154.83,154.83z"/>
   <path fill="none" stroke="black" stroke-width="10.57" stroke-miterlimit="22.9256" d="M13456.53 2731.21l-27.77 -725.91c-3.15,-93.44 -23.72,-127.02 92.97,-132.21l353.85 -15.75c30.95,-1.37 110.1,-18.12 115.79,110.63l33.81 763.22"/>
  </g>
  <g id="_2238821523680">
   <rect fill="none" stroke="black" stroke-width="10.57" stroke-miterlimit="22.9256" x="5943.88" y="8729.14" width="3080.99" height="3527.93" rx="25.39" ry="73.5"/>
   <path fill="none" stroke="black" stroke-width="10.57" stroke-miterlimit="22.9256" d="M5846.6 7708.85l-773.33 0c-53.17,0 -96.67,41.13 -96.67,91.42l0 4283.53c0,50.28 43.5,91.42 96.67,91.42l561.32 0c53.17,0 93.39,-41.22 96.66,-91.42l212.02 -3246.31 0 -1037.23c0,-50.29 -43.5,-91.42 -96.66,-91.42z"/>
   <path fill="none" stroke="black" stroke-width="10.57" stroke-miterlimit="22.9256" d="M5033.38 7712.16c-83.91,11.86 -121.71,-29.79 -109.84,362.16 10.22,337.5 -8.45,3158.56 -8.45,3352.19 0,94.82 -2.39,399.23 -0.21,474.54 4.17,144.33 1.13,210 19.37,240.06 20.46,33.74 64.14,22.66 103.48,27.65"/>
   <path fill="none" stroke="black" stroke-width="10.57" stroke-miterlimit="22.9256" d="M5935.56 12175.66c-91.68,3.77 -280.4,-2.44 -305.83,-0.46"/>
   <path fill="none" stroke="black" stroke-width="10.57" stroke-miterlimit="22.9256" d="M9024.76 7847.18c-10.19,-121.19 -190.18,-117.91 -460.58,-106.65 -232.83,9.69 -1977.43,-2.72 -2111.01,-2.72 -331.34,0 -495.37,-25.06 -509.9,117.87"/>
   <path fill="none" stroke="black" stroke-width="10.57" stroke-miterlimit="22.9256" d="M5791.54 7708.85c83.29,11.85 110.42,-23.14 105.04,372.77 -1.28,94.32 -8.67,436.63 -1.28,746.31 -74.25,1014.48 -158.12,2453.89 -165.45,2593.54 -4.98,94.79 -27.57,431.53 -34.1,506.78 -24.38,281.13 -34.14,230.55 -110.65,246.97"/>
   <path fill="none" stroke="black" stroke-width="10.57" stroke-miterlimit="22.9256" d="M9138.59 7732.41l763.22 0c52.47,0 95.42,41.13 95.42,91.43l0 4283.52c0,50.29 -42.94,91.42 -95.42,91.42l-553.97 0c-52.47,0 -92.17,-41.22 -95.41,-91.42l-209.24 -3246.31 0 -1037.22c0,-50.3 42.93,-91.43 95.4,-91.43z"/>
   <path fill="none" stroke="black" stroke-width="10.57" stroke-miterlimit="22.9256" d="M9941.18 7735.74c82.81,11.85 120.11,-29.8 108.4,362.15 -10.08,337.5 8.34,3158.56 8.34,3352.19 0,94.82 2.36,399.24 0.2,474.54 -4.11,144.33 -1.11,210 -19.11,240.06 -20.2,33.74 -63.3,22.67 -102.13,27.66"/>
   <path fill="none" stroke="black" stroke-width="10.57" stroke-miterlimit="22.9256" d="M9030.18 12199.23c96.65,3.77 295.64,-2.44 322.46,-0.45"/>
   <path fill="none" stroke="black" stroke-width="10.57" stroke-miterlimit="22.9256" d="M9192.94 7732.41c-82.19,11.85 -108.97,-23.14 -103.67,372.77 1.27,94.32 8.57,436.63 1.27,746.31 73.28,1014.48 156.05,2453.9 163.29,2593.54 4.91,94.79 27.2,431.53 33.65,506.78 24.06,281.13 33.7,230.55 109.21,246.97"/>
   <path fill="none" stroke="black" stroke-width="10.57" stroke-miterlimit="22.9256" d="M8935.62 9411.2c-228.1,529.86 -2751.28,477.69 -2890.51,-5.55"/>
   <path fill="none" stroke="black" stroke-width="10.57" stroke-miterlimit="22.9256" d="M8921.41 8729.14l-2843.19 0.11c-53.31,0 -61.59,68.68 -60.89,152.31l3.35 398.27c0.71,83.66 -18.19,123.44 35.1,127.26 945.45,83.33 1912.97,119.4 2879.84,4.13 53.28,-3.85 36.11,-63.37 36.97,-147.11l3.94 -373.89c0.88,-83.77 -1.88,-161.08 -55.12,-161.08z"/>
   <path fill="none" stroke="black" stroke-width="10.57" stroke-miterlimit="22.9256" d="M8972.71 9364.2c-784.16,107.75 -2186.35,83.71 -2952.69,-11.71"/>
   <path fill="none" stroke="black" stroke-width="10.57" stroke-miterlimit="22.9256" d="M8978.52 9389.17l-10.78 2746.35c-0.14,39.75 -21.4,72.46 -47.43,72.46l-2879.85 0c-26.07,0 -47.38,-32.61 -47.44,-72.46l-7.75 -3222.13 6.98 -181"/>
  </g>
  <g id="_2238821467136">
   <path fill="none" stroke="black" stroke-width="10.57" stroke-miterlimit="22.9256" d="M5905.26 2722.16l-789.69 0c-51.16,0 -93.18,41.89 -93.05,93.04l5.77 2375.43c0.13,51.04 41.88,93.1 93.06,93.06l4795.5 -3.93c51.18,-0.05 92.93,-41.94 93.05,-93.06l5.78 -2375.43c0.12,-51.15 -41.97,-93.04 -93.05,-93.04l-789.69 0c-51.04,0 -92.87,4.36 -93.06,55.44l-6.4 1700.09c10.18,71.64 3.29,183.55 64.7,227.48 111.7,79.91 173.94,92.82 144.18,146.36 -44.01,65.28 -266.57,-53.9 -327.86,-46.23 -2959.55,15.12 169.84,-11.92 -2790.79,3.93 -61.3,-7.67 -283.86,111.5 -327.88,46.23 -29.75,-53.54 32.45,-66.39 144.19,-146.36 61.45,-43.97 54.52,-155.83 64.69,-227.48l-6.39 -1700.09c-0.19,-51.18 -41.94,-55.44 -93.06,-55.44z"/>
   <path fill="none" stroke="black" stroke-width="10.57" stroke-miterlimit="22.9256" d="M5070.47 2733.01c-93.57,20.61 -111.28,142.47 -100.01,366.68 9.7,193.05 -2.72,1639.53 -2.72,1750.28 0,274.71 16.35,394.33 98.52,417.02"/>
   <path fill="none" stroke="black" stroke-width="10.57" stroke-miterlimit="22.9256" d="M6036.28 3921.33c998.91,0 1968.99,0 2967.97,0 16.66,0 30.29,41.88 30.29,93.05l0 651.35c0,51.18 -13.63,93.05 -30.29,93.05l-2967.97 0c-16.66,0 -30.29,-41.87 -30.29,-93.05l0 -27.05 0 -624.3c0,-51.18 13.63,-93.05 30.29,-93.05z"/>
   <path fill="none" stroke="black" stroke-width="10.57" stroke-miterlimit="22.9256" d="M8995.52 3918.57c-16.66,-21.68 -35.63,-39.33 -56.92,-39.38 -931.87,-2.26 -1866.58,3.9 -2797.32,-0.8 -83.71,-0.42 -127.94,-24.83 -131.25,108.63"/>
   <path fill="none" stroke="black" stroke-width="10.57" stroke-miterlimit="22.9256" d="M6007.4 3921.78l0 -1706.59c-0.72,-87.62 6.67,-123.45 24.4,-136.64m2965.21 -1.48c28.68,16.54 40.96,80.1 38.17,160.08l2.08 1933.91"/>
   <path fill="none" stroke="black" stroke-width="10.57" stroke-miterlimit="22.9256" d="M5310.87 5283.67l182.67 0c-21.12,21.86 -81.41,58.84 -76.68,65.17 -54.42,158.93 -70.36,321.99 -110.4,479.75 -28.07,0.6 -56.14,1.2 -84.2,1.81 6.5,-149.54 11.22,-281.77 17.71,-431.31 -1.74,-17.37 9.36,-46.48 24.14,-66.54l46.76 -48.88z"/>
   <path fill="none" stroke="black" stroke-width="10.57" stroke-miterlimit="22.9256" d="M5697.28 2716.15c31.16,36.49 34.14,0 55.9,109.47l250.1 1494.9"/>
   <path fill="none" stroke="black" stroke-width="10.57" stroke-miterlimit="22.9256" d="M9968.67 2726.43c93.57,20.61 111.28,142.47 100.02,366.67 -9.7,193.06 2.72,1639.54 2.72,1750.29 0,274.71 -16.35,394.32 -98.53,417.02"/>
   <path fill="none" stroke="black" stroke-width="10.57" stroke-miterlimit="22.9256" d="M9733.2 5283.67l-182.67 0c21.12,21.86 81.41,58.84 76.68,65.17 54.42,158.93 70.36,321.99 110.4,479.75 28.07,0.6 56.14,1.2 84.2,1.81 -6.5,-149.54 -11.22,-281.77 -17.71,-431.31 1.73,-17.37 -9.36,-46.48 -24.14,-66.54l-46.76 -48.88z"/>
   <path fill="none" stroke="black" stroke-width="10.57" stroke-miterlimit="22.9256" d="M9350.1 2718.87c-31.19,36.47 -34.16,0 -55.92,109.46l-254.28 1507.33"/>
   <path fill="none" stroke="black" stroke-width="10.57" stroke-miterlimit="22.9256" d="M6202.99 1858.09c438.78,0 828.69,27.6 1267.47,27.6 444.71,0 938.28,-27.6 1382.99,-27.6 81,0 147.25,100.49 147.25,223.33 0,212.04 -26.65,552.1 -26.65,764.13 0,297.4 26.65,466.77 26.65,764.16 0,122.83 -66.26,223.32 -147.25,223.32 -468.4,0 -936.8,-74.11 -1405.21,-74.11 -388.64,0 -777.28,64.97 -1165.91,73.25 -26.44,0.56 -52.89,0.86 -79.35,0.86 -81,0 -147.25,-100.49 -147.25,-223.32 0,-256.97 19.89,-480.87 19.89,-737.84 0,-252.48 -19.89,-537.98 -19.89,-790.45 0,-122.84 66.26,-223.33 147.25,-223.33z"/>
   <path fill="none" stroke="black" stroke-width="10.57" stroke-miterlimit="22.9256" d="M6241.05 1891.76c424.53,0 801.77,26.49 1226.3,26.49 430.26,0 907.81,-26.49 1338.07,-26.49 78.36,0 142.46,96.45 142.46,214.35 0,203.52 -25.79,529.93 -25.79,733.45 0,285.45 25.79,448.02 25.79,733.47 0,117.89 -64.11,214.34 -142.46,214.34 -453.19,0 -906.38,-71.13 -1359.57,-71.13 -376,0 -752.03,62.36 -1128.02,70.3 -25.59,0.54 -51.19,0.83 -76.78,0.83 -78.36,0 -142.47,-96.45 -142.47,-214.34 0,-246.65 19.25,-461.57 19.25,-708.22 0,-242.33 -19.25,-516.38 -19.25,-758.7 0,-117.9 64.12,-214.35 142.47,-214.35z"/>
   <path fill="none" stroke="black" stroke-width="10.57" stroke-miterlimit="22.9256" d="M9399.82 2713.23c-31.18,36.47 -34.15,0 -55.91,109.45 -86.09,501.4 -179.04,1000.86 -258.33,1504.22 -17.88,113.58 -65.01,293.43 127.94,397.48 39.38,21.23 85.4,59.86 94.14,97.43 14.97,64.47 -52.15,117.3 -234.01,21"/>
   <path fill="none" stroke="black" stroke-width="10.57" stroke-miterlimit="22.9256" d="M5652 2723.15c31.18,36.47 34.15,0 55.91,109.46 86.09,501.4 194.88,998.63 258.33,1504.21 7,55.83 15.49,121.42 7.76,190.75 -8.35,75.04 -36.84,153.82 -135.71,206.74 -39.42,21.11 -85.42,59.88 -94.14,97.43 -14.95,64.45 86.86,110.05 270.88,-1.36"/>
  </g>
 </g>
 <g id="Шрифт">
  <metadata id="CorelCorpID_2Corel-Layer"/>
  <path fill="#666666" fill-rule="nonzero" fill-opacity="0.800000" d="M12634.67 7984.98l0 16.12c21.98,10.25 39.68,26.37 53.11,48.36 13.44,21.99 20.16,46.16 20.16,72.54 0,43.96 -15.15,79.5 -45.43,106.61 -30.29,27.11 -74.25,40.66 -131.89,40.66l-233.73 0 0 -523.14 227.88 0c53.24,0 94.4,12.57 123.46,37.72 29.06,25.16 43.6,56.79 43.6,94.89 0,50.32 -19.06,85.73 -57.15,106.25zm-271.84 -180.25l0 163.39 160.46 0c67.89,0 101.84,-27.84 101.84,-83.52 0,-27.35 -9.76,-47.51 -29.3,-60.45 -19.55,-12.94 -44.21,-19.42 -74.01,-19.42l-158.99 0zm0 405.91l163.39 0c33.71,0 61.31,-7.21 82.79,-21.62 21.5,-14.41 32.25,-38.46 32.25,-72.17 0,-31.75 -10.63,-54.82 -31.88,-69.23 -21.25,-14.41 -48.73,-21.62 -82.42,-21.62l-164.13 0 0 184.63zm441.08 -310.66l62.28 0 0 123.09 101.85 0c44.45,0 78.77,10.75 102.94,32.25 24.18,21.49 36.28,51.53 36.28,90.12 0,39.07 -12.09,69.48 -36.28,91.22 -24.17,21.74 -58.49,32.61 -102.94,32.61l-164.13 0 0 -369.28zm62.28 175.85l0 139.21 93.06 0c30.78,0 52.75,-5.86 65.95,-17.58 13.19,-11.72 19.79,-29.07 19.79,-52.02 0,-22.95 -6.6,-40.3 -19.79,-52.02 -13.19,-11.72 -35.17,-17.58 -65.95,-17.58l-93.06 0zm300.42 -175.85l62.28 0 0 369.28 -62.28 0 0 -369.28zm432.29 257.9l62.29 0c-7.34,37.12 -24.55,66.55 -51.65,88.29 -27.11,21.75 -61.68,32.61 -103.68,32.61 -55.69,0 -99.53,-18.2 -131.52,-54.58 -32,-36.4 -48,-82.92 -48,-139.59 0,-57.15 15.88,-103.8 47.63,-139.94 31.75,-36.15 75.72,-54.21 131.89,-54.21 42.49,0 77.06,10.62 103.68,31.87 26.61,21.25 43.1,49.46 49.46,84.62l-62.29 0c-13.18,-41.51 -43.47,-62.28 -90.85,-62.28 -39.57,0 -69,13.07 -88.29,39.2 -19.3,26.13 -28.94,59.23 -28.94,99.28 0,40.54 9.76,74.24 29.3,101.11 19.55,26.86 48.85,40.29 87.93,40.29 51.77,0 82.79,-22.22 93.05,-66.67zm181.35 -212.48c32.49,-36.64 76.81,-54.95 132.99,-54.95 56.17,0 100.5,18.32 132.98,54.95 32.49,36.64 48.73,83.03 48.73,139.21 0,56.18 -16.24,102.58 -48.73,139.22 -32.48,36.64 -76.81,54.95 -132.98,54.95 -56.18,0 -100.5,-18.32 -132.99,-54.95 -32.48,-36.64 -48.73,-83.03 -48.73,-139.22 0,-56.17 16.25,-102.57 48.73,-139.21zm44.33 238.49c20.52,27.11 50.07,40.66 88.66,40.66 38.58,0 68.13,-13.55 88.65,-40.66 20.52,-27.11 30.78,-60.2 30.78,-99.28 0,-39.07 -10.26,-72.17 -30.78,-99.28 -20.52,-27.1 -50.07,-40.66 -88.65,-40.66 -38.59,0 -68.14,13.56 -88.66,40.66 -20.52,27.11 -30.77,60.21 -30.77,99.28 0,39.08 10.25,72.17 30.77,99.28zm322.39 -229.7l0 -54.21 317.98 0 0 54.21 -127.48 0 0 315.07 -62.28 0 0 -315.07 -128.22 0zm635.25 315.07l0 -38.83 -16.12 0c-25.4,32.24 -63.75,48.36 -115.03,48.36 -40.54,0 -72.78,-11.72 -96.72,-35.17 -23.93,-23.44 -35.9,-51.77 -35.9,-84.99 0,-33.71 11.72,-62.53 35.17,-86.46 23.44,-23.93 58.86,-35.91 106.25,-35.91l120.16 0 0 -14.65c0,-23.44 -7.33,-42.13 -21.99,-56.05 -14.65,-13.92 -37.36,-20.89 -68.13,-20.89 -53.73,0 -82.31,17.83 -85.73,53.49l-62.28 0c2.44,-33.71 16.98,-60.09 43.6,-79.14 26.62,-19.05 60.93,-28.57 102.94,-28.57 47.38,0 84.62,10.98 111.73,32.97 27.11,21.99 40.67,53.48 40.67,94.52l0 251.32 -58.62 0zm-115.77 -44.7c30.78,0 57.4,-10.13 79.87,-30.4 22.47,-20.28 33.71,-45.06 33.71,-74.37l0 -33.71 -110.63 0c-59.11,0 -88.66,23.44 -88.66,70.34 0,21.01 7.44,37.6 22.34,49.82 14.9,12.21 36.03,18.32 63.38,18.32zm-2126.3 733.5l62.29 0c-7.34,37.12 -24.55,66.55 -51.65,88.29 -27.11,21.75 -61.68,32.61 -103.68,32.61 -55.69,0 -99.53,-18.2 -131.52,-54.58 -32,-36.4 -48,-82.92 -48,-139.59 0,-57.15 15.88,-103.8 47.63,-139.94 31.75,-36.15 75.72,-54.21 131.89,-54.21 42.49,0 77.06,10.62 103.68,31.87 26.61,21.25 43.1,49.46 49.46,84.62l-62.29 0c-13.18,-41.51 -43.47,-62.28 -90.85,-62.28 -39.57,0 -69,13.07 -88.29,39.2 -19.3,26.13 -28.94,59.23 -28.94,99.28 0,40.54 9.76,74.24 29.3,101.11 19.55,26.86 48.85,40.29 87.93,40.29 51.77,0 82.79,-22.22 93.05,-66.67zm243.26 111.37l-87.93 0 0 -369.28 60.82 0 0 285.76 16.12 0 161.93 -285.76 90.85 0 0 369.28 -60.81 0 0 -285.76 -16.12 0 -164.86 285.76zm690.93 -54.22l68.14 0 0 159 -60.82 0 0 -104.78 -319.45 0 0 104.78 -60.82 0 0 -159 49.09 0c30.29,-64.48 45.43,-135.79 45.43,-213.94l0 -101.11 278.43 0 0 315.06zm-62.28 0l0 -260.84 -158.26 0 0 46.9c0,83.52 -13.44,154.84 -40.3,213.94l198.57 0zm531.21 -152.4l0 21.25 -281.36 0c0.98,44.45 11.48,79.01 31.51,103.68 20.03,24.66 48.85,36.99 86.46,36.99 50.8,0 82.06,-19.05 93.79,-57.14l63.01 0c-6.35,33.21 -23.07,60.08 -50.19,80.6 -27.11,20.52 -62.65,30.77 -106.61,30.77 -56.17,0 -100.14,-18.32 -131.89,-54.95 -31.75,-36.64 -47.63,-84.26 -47.63,-142.87 0,-57.64 15.88,-103.8 47.63,-138.49 31.75,-34.68 75.23,-52.01 130.42,-52.01 52.26,0 92.57,16.48 120.9,49.46 28.33,32.97 42.98,73.88 43.96,122.73zm-166.33 -117.97c-31.75,0 -57.15,8.18 -76.2,24.54 -19.05,16.37 -30.77,37.25 -35.17,62.65l213.22 0c-1.96,-24.91 -11.97,-45.67 -30.04,-62.28 -18.08,-16.61 -42.01,-24.91 -71.81,-24.91zm592.03 324.59l-62.28 0 0 -162.66 -204.43 0 0 162.66 -62.28 0 0 -369.28 62.28 0 0 152.4 204.43 0 0 -152.4 62.28 0 0 369.28zm638.91 -369.28l183.92 0 0 369.28 -63.02 0 0 -145.81 -112.1 0c-9.76,0 -17.34,-0.24 -22.71,-0.73l-55.68 146.54 -65.21 0 62.28 -160.46c-38.1,-18.08 -57.15,-50.32 -57.15,-96.71 0,-35.67 11.11,-63.26 33.34,-82.79 22.22,-19.55 54.34,-29.31 96.34,-29.31zm120.9 52.75l-114.3 0c-26.86,0 -45.91,5.13 -57.15,15.38 -11.23,10.26 -16.85,25.16 -16.85,44.7 0,19.05 5.62,33.46 16.85,43.23 11.24,9.76 30.29,14.65 57.15,14.65l114.3 0 0 -117.96zm-1900.62 1116.7l-76.2 0 0 -84.99 76.2 0 0 84.99zm127.49 -456.47c34.2,-44.45 79.87,-66.67 137.02,-66.67 57.15,0 102.94,22.34 137.38,67.03 34.44,44.7 51.65,111.25 51.65,199.66 0,88.41 -17.22,154.84 -51.65,199.29 -34.44,44.45 -80.23,66.67 -137.38,66.67 -57.15,0 -102.82,-22.22 -137.02,-66.67 -34.2,-44.45 -51.29,-110.88 -51.29,-199.29 0,-88.9 17.09,-155.57 51.29,-200.02zm43.96 353.53c20.52,36.87 51.54,55.31 93.06,55.31 41.52,0 72.66,-18.44 93.42,-55.31 20.77,-36.88 31.14,-88.05 31.14,-153.51 0,-65.95 -10.37,-117.35 -31.14,-154.24 -20.76,-36.87 -51.89,-55.32 -93.42,-55.32 -41.52,0 -72.54,18.45 -93.06,55.32 -20.52,36.88 -30.77,88.29 -30.77,154.24 0,65.46 10.25,116.62 30.77,153.51zm836.01 -8.43l62.29 0c-7.34,37.12 -24.55,66.55 -51.65,88.29 -27.11,21.75 -61.68,32.61 -103.68,32.61 -55.69,0 -99.53,-18.2 -131.52,-54.58 -32,-36.4 -48,-82.92 -48,-139.59 0,-57.15 15.88,-103.8 47.63,-139.94 31.75,-36.15 75.72,-54.21 131.89,-54.21 42.49,0 77.06,10.62 103.68,31.87 26.61,21.25 43.1,49.46 49.46,84.62l-62.29 0c-13.18,-41.51 -43.47,-62.28 -90.85,-62.28 -39.57,0 -69,13.07 -88.29,39.2 -19.3,26.13 -28.94,59.23 -28.94,99.28 0,40.54 9.76,74.24 29.3,101.11 19.55,26.86 48.85,40.29 87.93,40.29 51.77,0 82.79,-22.22 93.05,-66.67zm155.33 111.37l0 -369.28 98.91 0 90.86 168.52 16.12 0 90.86 -168.52 97.44 0 0 369.28 -60.81 0 0 -296.75 -16.12 0 -85.73 158.27 -68.87 0 -85.72 -158.27 -16.12 0 0 296.75 -60.82 0zm160.45 -1169.46l0 123.09 109.18 0c44.45,0 78.77,10.75 102.95,32.25 24.17,21.49 36.27,51.53 36.27,90.12 0,39.07 -12.09,69.48 -36.27,91.22 -24.18,21.74 -58.5,32.61 -102.95,32.61l-171.45 0 0 -369.28 62.28 0zm0 315.06l100.38 0c30.78,0 52.75,-5.86 65.95,-17.58 13.19,-11.72 19.79,-29.07 19.79,-52.02 0,-22.95 -6.6,-40.3 -19.79,-52.02 -13.19,-11.72 -35.17,-17.58 -65.95,-17.58l-100.38 0 0 139.21zm832.35 54.22l-76.2 0 0 -84.99 76.2 0 0 84.99zm0 -284.29l-76.2 0 0 -84.99 76.2 0 0 84.99zm-2808.44 907.15l70.33 0 0 57.15 -70.33 0 0 120.16 -63.02 0 0 -120.16 -253.52 0 0 -73.27 226.41 -319.46 90.13 0 0 335.58zm-249.12 0l186.84 0 0 -263.04 -16.13 0 -170.71 246.92 0 16.12zm410.31 -335.58l299.68 0 0 71.8 -128.22 109.91 0 15.39c45.43,0.98 82.18,15.14 110.28,42.5 28.08,27.35 42.13,65.21 42.13,113.56 0,52.26 -16.86,93.55 -50.56,123.83 -33.71,30.29 -77.18,45.43 -130.42,45.43 -51.3,0 -93.3,-14.41 -126.02,-43.23 -32.73,-28.82 -50.56,-65.46 -53.49,-109.91l64.48 0c2.94,28.82 15.03,52.02 36.28,69.61 21.25,17.58 47.5,26.37 78.77,26.37 35.66,0 63.99,-10.01 84.99,-30.04 21.01,-20.03 31.51,-47.38 31.51,-82.06 0,-34.19 -10.01,-60.94 -30.05,-80.23 -20.03,-19.3 -48.6,-28.94 -85.72,-28.94 -18.08,0 -32.97,1.46 -44.7,4.39l0 -68.13 125.29 -108.45 0 -16.12 -224.21 0 0 -55.68z"/>
  <path fill="#666666" fill-rule="nonzero" fill-opacity="0.800000" d="M6203.41 14121.73l0 -57.15 121.63 0 0 -388.34 -14.65 0 -107.71 72.54 0 -67.4 106.97 -72.54 79.87 0 0 455.74 112.1 0 0 57.15 -298.21 0zm369.28 0l0 -57.15 121.63 0 0 -388.34 -14.65 0 -107.71 72.54 0 -67.4 106.97 -72.54 79.87 0 0 455.74 112.1 0 0 57.15 -298.21 0zm671.15 -177.31l70.33 0 0 57.15 -70.33 0 0 120.16 -63.02 0 0 -120.16 -253.52 0 0 -73.27 226.41 -319.46 90.13 0 0 335.58zm-249.12 0l186.84 0 0 -263.04 -16.13 0 -170.71 246.92 0 16.12zm485.05 177.31l-76.2 0 0 -84.99 76.2 0 0 84.99zm127.49 -456.47c34.2,-44.45 79.87,-66.67 137.02,-66.67 57.15,0 102.94,22.34 137.38,67.03 34.44,44.7 51.65,111.25 51.65,199.66 0,88.41 -17.22,154.84 -51.65,199.29 -34.44,44.45 -80.23,66.67 -137.38,66.67 -57.15,0 -102.82,-22.22 -137.02,-66.67 -34.2,-44.45 -51.29,-110.88 -51.29,-199.29 0,-88.9 17.09,-155.57 51.29,-200.02zm43.96 353.53c20.52,36.87 51.54,55.31 93.06,55.31 41.52,0 72.66,-18.44 93.42,-55.31 20.77,-36.88 31.14,-88.05 31.14,-153.51 0,-65.95 -10.37,-117.35 -31.14,-154.24 -20.76,-36.87 -51.89,-55.32 -93.42,-55.32 -41.52,0 -72.54,18.45 -93.06,55.32 -20.52,36.88 -30.77,88.29 -30.77,154.24 0,65.46 10.25,116.62 30.77,153.51zm836.01 -8.43l62.29 0c-7.34,37.12 -24.55,66.55 -51.65,88.29 -27.11,21.75 -61.68,32.61 -103.68,32.61 -55.69,0 -99.53,-18.2 -131.52,-54.58 -32,-36.4 -48,-82.92 -48,-139.59 0,-57.15 15.88,-103.8 47.63,-139.94 31.75,-36.15 75.72,-54.21 131.89,-54.21 42.49,0 77.06,10.62 103.68,31.87 26.61,21.25 43.1,49.46 49.46,84.62l-62.29 0c-13.18,-41.51 -43.47,-62.28 -90.85,-62.28 -39.57,0 -69,13.07 -88.29,39.2 -19.3,26.13 -28.94,59.23 -28.94,99.28 0,40.54 9.76,74.24 29.3,101.11 19.55,26.86 48.85,40.29 87.93,40.29 51.77,0 82.79,-22.22 93.05,-66.67zm155.33 111.37l0 -369.28 98.91 0 90.86 168.52 16.12 0 90.86 -168.52 97.44 0 0 369.28 -60.81 0 0 -296.75 -16.12 0 -85.73 158.27 -68.87 0 -85.72 -158.27 -16.12 0 0 296.75 -60.82 0z"/>
  <path fill="#666666" fill-rule="nonzero" fill-opacity="0.800000" d="M3343.77 4733.3l16.12 0c6.85,-20.03 21.13,-38.34 42.87,-54.95 21.74,-16.61 48.24,-24.91 79.5,-24.91 42.98,0 78.65,16.98 106.98,50.93 28.33,33.95 42.49,78.77 42.49,134.45 0,55.69 -14.16,100.5 -42.49,134.46 -28.33,33.95 -64,50.92 -106.98,50.92 -30.78,0 -57.15,-8.3 -79.14,-24.91 -21.98,-16.6 -36.39,-34.92 -43.23,-54.95l-16.12 0c-6.84,16.13 -19.78,30.9 -38.83,44.33 -19.05,13.44 -42,20.16 -68.87,20.16 -40.54,0 -73.51,-15.88 -98.91,-47.63 -25.4,-31.75 -38.09,-72.54 -38.09,-122.37 0,-49.82 12.69,-90.61 38.09,-122.36 25.4,-31.75 58.37,-47.63 98.91,-47.63 25.89,0 48.61,6.84 68.14,20.52 19.54,13.68 32.73,28.33 39.56,43.96zm-166.69 28.94c-14.9,20.28 -22.34,45.8 -22.34,76.57 0,30.78 7.44,56.3 22.34,76.57 14.9,20.28 35.54,30.41 61.92,30.41 26.37,0 47.14,-10.13 62.28,-30.41 15.14,-20.27 22.71,-45.79 22.71,-76.57 0,-30.77 -7.57,-56.29 -22.71,-76.57 -15.14,-20.27 -35.91,-30.4 -62.28,-30.4 -26.38,0 -47.02,10.13 -61.92,30.4zm370.75 165.6c17.83,-21.74 26.74,-51.42 26.74,-89.03 0,-37.6 -8.91,-67.28 -26.74,-89.02 -17.83,-21.74 -41.64,-32.61 -71.44,-32.61 -30.28,0 -53.97,10.75 -71.07,32.24 -17.1,21.5 -25.64,51.3 -25.64,89.39 0,38.1 8.54,67.9 25.64,89.39 17.1,21.5 40.79,32.25 71.07,32.25 29.8,0 53.61,-10.87 71.44,-32.61zm-37 -1887.82l0 -62.29c37.12,7.34 66.55,24.55 88.29,51.65 21.75,27.11 32.61,61.68 32.61,103.68 0,55.69 -18.2,99.53 -54.58,131.52 -36.4,32 -82.92,48 -139.59,48 -57.15,0 -103.8,-15.88 -139.94,-47.63 -36.15,-31.75 -54.21,-75.72 -54.21,-131.89 0,-42.49 10.62,-77.06 31.87,-103.68 21.25,-26.61 49.46,-43.1 84.62,-49.46l0 62.29c-41.51,13.18 -62.28,43.47 -62.28,90.85 0,39.57 13.07,69 39.2,88.29 26.13,19.3 59.23,28.94 99.28,28.94 40.54,0 74.24,-9.76 101.11,-29.3 26.86,-19.55 40.29,-48.85 40.29,-87.93 0,-51.77 -22.22,-82.79 -66.67,-93.05zm111.37 -155.33l-369.28 0 0 -98.91 168.52 -90.86 0 -16.12 -168.52 -90.86 0 -97.44 369.28 0 0 60.81 -296.75 0 0 16.12 158.27 85.73 0 68.87 -158.27 85.72 0 16.12 296.75 0 0 60.82zm-334.11 1491.06c0,-46.9 15.75,-85.97 47.26,-117.24 31.51,-31.26 71.44,-46.89 119.8,-46.89 50.32,0 92.32,15.75 126.02,47.26 33.71,31.51 50.56,73.88 50.56,127.12 0,58.13 -20.03,104.05 -60.08,137.75 -40.05,33.71 -104.05,50.56 -191.97,50.56 -82.55,0 -149.96,-16.48 -202.22,-49.46 -52.26,-32.97 -78.4,-81.44 -78.4,-145.44 0,-42.49 11.35,-77.3 34.07,-104.41 22.71,-27.11 52.14,-43.59 88.29,-49.46l0 63.75c-43.47,12.7 -65.22,42.74 -65.22,90.12 0,40.54 16.13,72.3 48.37,95.26 32.24,22.95 76.69,35.42 133.35,37.36l0 -16.12c-13.19,-10.74 -24.79,-26.5 -34.81,-47.26 -10.01,-20.76 -15.02,-45.06 -15.02,-72.9zm254.98 91.59c21.01,-21.5 31.51,-48.36 31.51,-80.61 0,-32.24 -10.25,-58.73 -30.77,-79.5 -20.52,-20.76 -49.1,-31.14 -85.73,-31.14 -36.64,0 -64.72,10.5 -84.25,31.51 -19.55,21.01 -29.31,47.87 -29.31,80.6 0,32.24 10.01,58.86 30.04,79.87 20.03,21.01 47.63,31.51 82.79,31.51 36.15,0 64.73,-10.75 85.72,-32.24zm79.14 -419.84l0 76.2 -84.99 0 0 -76.2 84.99 0zm-456.47 -127.49c-44.45,-34.2 -66.67,-79.87 -66.67,-137.02 0,-57.15 22.34,-102.94 67.03,-137.38 44.7,-34.44 111.25,-51.65 199.66,-51.65 88.41,0 154.84,17.22 199.29,51.65 44.45,34.44 66.67,80.23 66.67,137.38 0,57.15 -22.22,102.82 -66.67,137.02 -44.45,34.2 -110.88,51.29 -199.29,51.29 -88.9,0 -155.57,-17.09 -200.02,-51.29zm353.53 -43.96c36.87,-20.52 55.31,-51.54 55.31,-93.06 0,-41.52 -18.44,-72.66 -55.31,-93.42 -36.88,-20.77 -88.05,-31.14 -153.51,-31.14 -65.95,0 -117.35,10.37 -154.24,31.14 -36.87,20.76 -55.32,51.89 -55.32,93.42 0,41.52 18.45,72.54 55.32,93.06 36.88,20.52 88.29,30.77 154.24,30.77 65.46,0 116.62,-10.25 153.51,-30.77z"/>
  <path fill="#666666" fill-rule="nonzero" fill-opacity="0.800000" d="M3622.2 11519.46l-57.15 0 0 -121.63 -388.34 0 0 14.65 72.54 107.71 -67.4 0 -72.54 -106.97 0 -79.87 455.74 0 0 -112.1 57.15 0 0 298.21zm-456.47 -417.64c-44.45,-34.2 -66.67,-79.87 -66.67,-137.02 0,-57.15 22.34,-102.94 67.03,-137.38 44.7,-34.44 111.25,-51.65 199.66,-51.65 88.41,0 154.84,17.22 199.29,51.65 44.45,34.44 66.67,80.23 66.67,137.38 0,57.15 -22.22,102.82 -66.67,137.02 -44.45,34.2 -110.88,51.29 -199.29,51.29 -88.9,0 -155.57,-17.09 -200.02,-51.29zm353.53 -43.96c36.87,-20.52 55.31,-51.54 55.31,-93.06 0,-41.52 -18.44,-72.66 -55.31,-93.42 -36.88,-20.77 -88.05,-31.14 -153.51,-31.14 -65.95,0 -117.35,10.37 -154.24,31.14 -36.87,20.76 -55.32,51.89 -55.32,93.42 0,41.52 18.45,72.54 55.32,93.06 36.88,20.52 88.29,30.77 154.24,30.77 65.46,0 116.62,-10.25 153.51,-30.77zm-409.95 -380.27l0 -299.68 71.8 0 109.91 128.22 15.39 0c0.98,-45.43 15.14,-82.18 42.5,-110.28 27.35,-28.08 65.21,-42.13 113.56,-42.13 52.26,0 93.55,16.86 123.83,50.56 30.29,33.71 45.43,77.18 45.43,130.42 0,51.3 -14.41,93.3 -43.23,126.02 -28.82,32.73 -65.46,50.56 -109.91,53.49l0 -64.48c28.82,-2.94 52.02,-15.03 69.61,-36.28 17.58,-21.25 26.37,-47.5 26.37,-78.77 0,-35.66 -10.01,-63.99 -30.04,-84.99 -20.03,-21.01 -47.38,-31.51 -82.06,-31.51 -34.19,0 -60.94,10.01 -80.23,30.05 -19.3,20.03 -28.94,48.6 -28.94,85.72 0,18.08 1.46,32.97 4.39,44.7l-68.13 0 -108.45 -125.29 -16.12 0 0 224.21 -55.68 0zm512.89 -491.65l0 76.2 -84.99 0 0 -76.2 84.99 0zm-456.47 -127.49c-44.45,-34.2 -66.67,-79.87 -66.67,-137.02 0,-57.15 22.34,-102.94 67.03,-137.38 44.7,-34.44 111.25,-51.65 199.66,-51.65 88.41,0 154.84,17.22 199.29,51.65 44.45,34.44 66.67,80.23 66.67,137.38 0,57.15 -22.22,102.82 -66.67,137.02 -44.45,34.2 -110.88,51.29 -199.29,51.29 -88.9,0 -155.57,-17.09 -200.02,-51.29zm353.53 -43.96c36.87,-20.52 55.31,-51.54 55.31,-93.06 0,-41.52 -18.44,-72.66 -55.31,-93.42 -36.88,-20.77 -88.05,-31.14 -153.51,-31.14 -65.95,0 -117.35,10.37 -154.24,31.14 -36.87,20.76 -55.32,51.89 -55.32,93.42 0,41.52 18.45,72.54 55.32,93.06 36.88,20.52 88.29,30.77 154.24,30.77 65.46,0 116.62,-10.25 153.51,-30.77zm-8.43 -836.01l0 -62.29c37.12,7.34 66.55,24.55 88.29,51.65 21.75,27.11 32.61,61.68 32.61,103.68 0,55.69 -18.2,99.53 -54.58,131.52 -36.4,32 -82.92,48 -139.59,48 -57.15,0 -103.8,-15.88 -139.94,-47.63 -36.15,-31.75 -54.21,-75.72 -54.21,-131.89 0,-42.49 10.62,-77.06 31.87,-103.68 21.25,-26.61 49.46,-43.1 84.62,-49.46l0 62.29c-41.51,13.18 -62.28,43.47 -62.28,90.85 0,39.57 13.07,69 39.2,88.29 26.13,19.3 59.23,28.94 99.28,28.94 40.54,0 74.24,-9.76 101.11,-29.3 26.86,-19.55 40.29,-48.85 40.29,-87.93 0,-51.77 -22.22,-82.79 -66.67,-93.05zm111.37 -155.33l-369.28 0 0 -98.91 168.52 -90.86 0 -16.12 -168.52 -90.86 0 -97.44 369.28 0 0 60.81 -296.75 0 0 16.12 158.27 85.73 0 68.87 -158.27 85.72 0 16.12 296.75 0 0 60.82z"/>
 </g>
 <g id="Выносные_x0020_линии">
  <metadata id="CorelCorpID_3Corel-Layer"/>
  <g id="_2238821479616">
   <line fill="none" stroke="gray" stroke-width="10.57" stroke-miterlimit="22.9256" x1="3641.18" y1="5848.71" x2="4716.9" y2= "5848.71" />
   <line fill="none" stroke="gray" stroke-width="10.57" stroke-miterlimit="22.9256" x1="3638.55" y1="1822.36" x2="4716.9" y2= "1822.36" />
   <line fill="none" stroke="gray" stroke-width="10.57" stroke-miterlimit="22.9256" x1="4045.43" y1="6249.8" x2="4045.43" y2= "1472.93" />
  </g>
  <g id="_2238821477600">
   <line fill="none" stroke="gray" stroke-width="10.57" stroke-miterlimit="22.9256" x1="3641.18" y1="12323.83" x2="4716.9" y2= "12323.83" />
   <line fill="none" stroke="gray" stroke-width="10.57" stroke-miterlimit="22.9256" x1="3638.55" y1="7751.59" x2="4716.9" y2= "7751.59" />
   <line fill="none" stroke="gray" stroke-width="10.57" stroke-miterlimit="22.9256" x1="4045.43" y1="12747.16" x2="4045.43" y2= "7402.15" />
  </g>
  <g id="_2238821484608">
   <line fill="none" stroke="gray" stroke-width="10.57" stroke-miterlimit="22.9256" x1="10065.95" y1="13663.76" x2="10065.95" y2= "12588.04" />
   <line fill="none" stroke="gray" stroke-width="10.57" stroke-miterlimit="22.9256" x1="4972.09" y1="13666.39" x2="4972.09" y2= "12588.04" />
   <line fill="none" stroke="gray" stroke-width="10.57" stroke-miterlimit="22.9256" x1="10537.58" y1="13259.51" x2="4582.8" y2= "13259.51" />
  </g>
 </g>
</svg>
