<?xml version="1.0" encoding="UTF-8"?>
<!DOCTYPE svg PUBLIC "-//W3C//DTD SVG 1.1//EN" "http://www.w3.org/Graphics/SVG/1.1/DTD/svg11.dtd">
<!-- Creator: CorelDRAW 2021.5 -->
<svg xmlns="http://www.w3.org/2000/svg" xml:space="preserve" width="210mm" height="148mm" version="1.1" shape-rendering="geometricPrecision" text-rendering="geometricPrecision" image-rendering="optimizeQuality" fill-rule="evenodd" clip-rule="evenodd"
viewBox="0 0 20985.75 14789.96"
 xmlns:xlink="http://www.w3.org/1999/xlink"
 xmlns:xodm="http://www.corel.com/coreldraw/odm/2003">
 <g id="Тени">
  <metadata id="CorelCorpID_0Corel-Layer"/>
  <rect fill="none" width="20985.75" height="14789.96"/>
  <g id="_2238482374976">
   <path fill="black" fill-opacity="0.101961" d="M5114.82 8716.67c48.55,-593.55 296.64,-772.67 582.9,-783.37 30.46,-1.15 90.18,-4.8 125.23,-5.65 -240.33,-34.99 -437.35,-94.03 -564.13,-138.08 -69.45,-24.12 -108.04,-64.15 -133.94,-105.22 -27.37,-43.42 -33.18,-26.8 -28.58,-97.42l-2.03 -353.04c-0.35,-62.56 97.8,-84.82 81.09,-83.59l-122.11 9.04 -17.7 82.85 0 2488.92c37.32,-673.75 31.82,-434.5 79.25,-1014.45zm2511.72 -757.61c170.16,7.21 289.32,15.25 320.67,23.21 302.41,76.81 514.1,199.69 562.07,767.72 21.77,257.79 79.55,981.12 79.55,981.12 0,0 66.02,-799.73 79.45,-979.18 65.51,-875.05 622.7,-788.74 1468.21,-761.48 90.5,2.91 190.46,-1.09 295.75,-7.87 -26.51,0.39 -52.99,0.71 -79.34,0.87 -599.09,3.78 -1283.34,-84.68 -1553.04,-203.19 -138.96,-61.08 -151.6,-156.79 -139.26,-209.72l-2.74 -325.54c-0.35,-44.46 26.81,-71.13 63.15,-89.85l-100.59 1.66 -28.32 35.8 -36.2 -34.75 -86.03 -2.47c57.01,5.7 84,27.32 83.32,85.95l-3.92 333.41c-0.11,10.1 -4.79,91.5 -7.12,100.81l-40.83 13.46c-25.56,57.28 -44.44,51.67 -188.4,118.31 -141.47,65.5 -355.47,117.08 -686.39,151.72zm3530.58 -6.32c220.93,2.52 427.59,31.1 586.98,119.79 295.37,164.39 305.44,410.91 346.41,886.82 60.09,697.67 58.56,1083.51 58.53,711.28l-0.33 -2482.4 -40.96 -35.49 -76.85 2.38c42.84,5.52 69.84,49.13 69.34,86.66l-4.54 320.32c-0.14,10.18 -0.57,19.97 -2.91,29.27l1.15 0.01c-5.64,56.51 -15.88,133.74 -159.86,200.36 -147.18,68.14 -428.51,126.49 -776.97,161z"/>
   <path fill="black" fill-opacity="0.101961" d="M5592.95 1868.11c687.31,56.7 787.51,150.51 1231.1,155.43 472.79,5.27 716.67,-137.83 1245.25,-147.11 -413.55,6.39 -818.18,15.48 -1231.74,21.9l-1244.61 -30.22z"/>
   <path fill="black" fill-opacity="0.101961" d="M5584.2 3335.23c728.24,-108.54 779.34,-165.66 1222.92,-173.05 472.79,-7.86 623.47,56.68 1253.88,170.91 -413.56,-9.59 -818.05,-39.22 -1231.61,-48.84l-1245.18 50.98z"/>
   <path fill="black" fill-opacity="0.101961" d="M9063.96 1869.41c687.31,56.7 787.52,150.52 1231.1,155.44 472.79,5.26 716.67,-137.84 1245.26,-147.12 -413.56,6.39 -818.18,15.48 -1231.75,21.9l-1244.61 -30.22z"/>
   <path fill="black" fill-opacity="0.101961" d="M9055.21 3336.52c728.23,-108.54 779.34,-165.66 1222.91,-173.04 472.8,-7.87 623.48,56.67 1253.88,170.9 -413.56,-9.58 -818.04,-39.22 -1231.61,-48.83l-1245.17 50.97z"/>
   <path fill="black" fill-opacity="0.101961" d="M4273.27 4414.2c2890.28,0 5780.56,0 8670.84,0 -13.21,54.4 -62.68,82.91 -62.68,82.91 -2846.04,0 -5692.07,0 -8538.12,0 0,5.38 -58.98,-39.68 -70.04,-82.91z"/>
   <polygon fill="black" fill-opacity="0.101961" points="8547.89,3407.51 8622.65,3464.64 8700.45,3409.21 8695.89,4093.33 8550.82,4093.33 "/>
   <polygon fill="black" fill-opacity="0.101961" points="14589.95,2431.87 16116.46,2431.87 16116.46,2524.16 14688.76,2524.16 14594.51,2591.03 14589.95,2524.16 "/>
   <polygon fill="black" fill-opacity="0.101961" points="5097.65,3462.29 5136.09,3411.5 5190.73,3398.34 5199.87,4073.28 5095.72,4073.28 "/>
   <g>
    <path fill="none" stroke="black" stroke-width="10.57" stroke-miterlimit="22.9256" d="M18069.03 3358.19c48.47,15.68 83.79,61.37 83.79,114.86l0 489.51c0,53.5 -35.29,99.17 -83.73,114.85"/>
    <path fill="none" stroke="black" stroke-width="10.57" stroke-miterlimit="22.9256" d="M14635.36 2555.28l0 -470.49c0,-39.62 32.42,-72.04 72.04,-72.04l576.35 0c39.62,0 72.04,32.42 72.04,72.04l0 436.73"/>
    <path fill="none" stroke="black" stroke-width="10.57" stroke-miterlimit="22.9256" d="M14674.24 2027.26c-93.83,6.65 -91.29,124.2 -82.57,300.78 1.95,39.44 2.75,145.34 2.86,282.06"/>
    <path fill="none" stroke="black" stroke-width="10.57" stroke-miterlimit="22.9256" d="M15298.57 2014.29c93.83,6.82 108.34,135.87 99.63,316.48 -1.43,29.6 -2.27,102.39 -2.64,190.76"/>
    <path fill="none" stroke="black" stroke-width="10.57" stroke-miterlimit="22.9256" d="M15486.28 2521.53l-19.84 -514.63c-2.78,-72.33 -17.36,-145.01 85.87,-149.29l304.69 -12.66c27.39,-1.14 101.92,-3.45 106.29,109.8l21.84 566.79"/>
    <path fill="none" stroke="black" stroke-width="10.57" stroke-miterlimit="22.9256" d="M15500.19 1874.35c-93.61,7.48 -111.77,236.12 -99.11,334.87 5.33,41.53 12.33,179.48 18.32,315.47"/>
    <path fill="none" stroke="black" stroke-width="10.57" stroke-miterlimit="22.9256" d="M15857.01 1844.95c93.91,0.01 206.99,127.14 220.11,226.53 14.1,106.71 24.79,293.54 32.09,455.84"/>
    <rect fill="none" stroke="black" stroke-width="10.57" stroke-miterlimit="22.9256" transform="matrix(1.43372E-14 -1.47622 0.727385 5.25335E-14 14584.5 4499.28)" width="1339.75" height="4785.98" rx="96.77" ry="96.77"/>
    <path fill="none" stroke="black" stroke-width="10.57" stroke-miterlimit="22.9256" d="M17794.54 4499.31l-141.42 0c16.35,16.93 63.03,45.56 59.36,50.46 42.14,123.06 54.48,249.3 85.48,371.45 21.73,0.47 43.46,0.93 65.2,1.4 -5.04,-115.77 -8.69,-218.15 -13.72,-333.93 1.35,-13.44 -7.25,-35.99 -18.69,-51.53l-36.21 -37.84z"/>
    <path fill="none" stroke="black" stroke-width="10.57" stroke-miterlimit="22.9256" d="M14805.37 4499.86l141.42 0c-16.35,16.93 -63.04,45.56 -59.37,50.46 -42.14,123.06 -54.47,249.3 -85.47,371.45 -21.73,0.47 -43.46,0.93 -65.2,1.4 5.03,-115.77 8.69,-218.15 13.72,-333.93 -1.35,-13.45 7.25,-35.99 18.69,-51.53l36.21 -37.84z"/>
    <path fill="none" stroke="black" stroke-width="10.57" stroke-miterlimit="22.9256" d="M14619.08 2670.21l0 1688.31c0,77.43 63.34,140.76 140.76,140.76l3130.45 0c77.43,0 140.76,-63.34 140.76,-140.76l0 -1681.35c0,-69.77 -57.07,-126.84 -126.84,-126.84l-3165.26 0c-65.94,0 -119.88,53.95 -119.88,119.88z"/>
    <path fill="none" stroke="black" stroke-width="10.57" stroke-miterlimit="22.9256" d="M15512.44 2521.53l-21.51 -562.03c-2.44,-72.33 -18.37,-98.34 71.98,-102.36l273.96 -12.19c23.96,-1.06 85.23,-14.02 89.65,85.65l26.17 590.93"/>
   </g>
   <g>
    <polyline fill="none" stroke="black" stroke-width="10.57" stroke-miterlimit="22.9256" stroke-dasharray="52.864103 52.864103" points="5035.57,9828.42 5035.3,11747.47 12140.74,11747.47 12149.18,9843.39 "/>
    <rect fill="none" stroke="black" stroke-width="10.57" stroke-miterlimit="22.9256" x="8602.11" y="7160.64" width="3545.83" height="2731.4" rx="29.22" ry="56.91"/>
    <path fill="none" stroke="black" stroke-width="10.57" stroke-miterlimit="22.9256" d="M12070.54 7690.39c-266.82,410.23 -3218.27,369.84 -3381.13,-4.3"/>
    <rect fill="none" stroke="black" stroke-width="10.57" stroke-miterlimit="22.9256" x="5035.51" y="7160.57" width="3566.86" height="2731.47" rx="29.39" ry="56.91"/>
    <path fill="none" stroke="black" stroke-width="10.57" stroke-miterlimit="22.9256" d="M4960.19 6370.61l-598.75 0c-41.16,0 -74.85,31.85 -74.85,70.78l0 3316.48c0,38.93 33.69,70.78 74.85,70.78l434.6 0c41.16,0 72.3,-31.91 74.84,-70.78l164.15 -2513.41 0 -803.06c0,-38.93 -33.68,-70.78 -74.84,-70.78z"/>
    <path fill="none" stroke="black" stroke-width="10.57" stroke-miterlimit="22.9256" d="M4330.56 6373.19c-64.97,9.17 -94.23,-23.07 -85.04,280.39 7.91,261.31 -6.55,2445.49 -6.55,2595.41 0,73.41 -1.84,309.11 -0.16,367.41 3.23,111.74 0.88,162.59 15,185.86 15.84,26.11 49.66,17.55 80.12,21.42"/>
    <path fill="none" stroke="black" stroke-width="10.57" stroke-miterlimit="22.9256" d="M5029.07 9829.01c-70.98,2.92 -217.09,-1.88 -236.79,-0.35"/>
    <path fill="none" stroke="black" stroke-width="10.57" stroke-miterlimit="22.9256" d="M12158.57 6477.72c-23.56,-93.83 -439.65,-91.29 -1064.74,-82.57 -538.24,7.5 -4571.25,-2.11 -4880.05,-2.11 -765.95,0 -1145.16,-19.4 -1178.76,91.27"/>
    <path fill="none" stroke="black" stroke-width="10.57" stroke-miterlimit="22.9256" d="M12037.25 7160.64l-3309.1 1.76c-62.38,0.03 -72.04,53.16 -71.22,117.91l3.91 308.36c0.83,64.78 -21.28,95.58 41.06,98.53 1105.92,64.53 2237.68,92.44 3368.64,3.19 62.34,-2.96 37.2,-36.87 36.16,-101.72l-4.95 -303.32c-1.06,-64.84 -2.16,-124.74 -64.5,-124.71z"/>
    <path fill="none" stroke="black" stroke-width="10.57" stroke-miterlimit="22.9256" d="M4917.56 6370.61c64.49,9.18 85.48,-17.92 81.32,288.61 -1,73.02 -6.73,338.06 -0.99,577.83 -57.49,785.45 -122.43,1899.91 -128.1,2008.02 -3.85,73.39 -21.35,334.11 -26.39,392.37 -18.89,217.66 -26.44,178.51 -85.68,191.21"/>
    <path fill="none" stroke="black" stroke-width="10.57" stroke-miterlimit="22.9256" d="M12233 6392.06l590.92 0c40.62,0 73.87,31.85 73.87,70.78l0 3316.49c0,38.92 -33.25,70.78 -73.87,70.78l-428.92 0c-40.62,0 -71.35,-31.92 -73.86,-70.78l-162 -2513.42 0 -803.06c0,-38.93 33.24,-70.78 73.86,-70.78z"/>
    <path fill="none" stroke="black" stroke-width="10.57" stroke-miterlimit="22.9256" d="M12854.39 6394.64c64.13,9.17 93,-23.07 83.93,280.39 -7.81,261.31 6.46,2445.49 6.46,2595.41 0,73.41 1.83,309.11 0.16,367.41 -3.18,111.74 -0.86,162.59 -14.8,185.86 -15.63,26.11 -49.01,17.55 -79.07,21.42"/>
    <path fill="none" stroke="black" stroke-width="10.57" stroke-miterlimit="22.9256" d="M12149.06 9850.45c74.84,2.92 228.89,-1.88 249.66,-0.35"/>
    <path fill="none" stroke="black" stroke-width="10.57" stroke-miterlimit="22.9256" d="M12275.07 6392.06c-63.64,9.18 -84.36,-17.92 -80.26,288.61 0.98,73.02 6.63,338.06 0.98,577.83 56.73,785.45 120.82,1899.91 126.41,2008.03 3.8,73.39 21.07,334.1 26.05,392.36 18.64,217.66 26.09,178.51 84.56,191.21"/>
    <path fill="none" stroke="black" stroke-width="10.57" stroke-miterlimit="22.9256" d="M12113.92 7653.99c-917.26,83.42 -2557.45,64.82 -3453.87,-9.07"/>
    <path fill="none" stroke="black" stroke-width="10.57" stroke-miterlimit="22.9256" d="M8506.01 7688.65c-266.81,410.24 -3218.26,369.85 -3381.12,-4.3"/>
    <path fill="none" stroke="black" stroke-width="10.57" stroke-miterlimit="22.9256" d="M8489.4 7160.58l-3325.78 0.08c-62.36,0 -72.04,53.17 -71.22,117.92l3.91 308.36c0.84,64.77 -21.28,95.57 41.06,98.53 1105.93,64.53 2237.68,92.45 3368.66,3.2 62.33,-2.98 42.22,-49.07 43.25,-113.9l4.61 -289.48c1.02,-64.86 -2.21,-124.71 -64.49,-124.71z"/>
    <path fill="none" stroke="black" stroke-width="10.57" stroke-miterlimit="22.9256" d="M8549.4 7652.26c-917.26,83.41 -2557.45,64.82 -3453.87,-9.07"/>
    <path fill="none" stroke="black" stroke-width="10.57" stroke-miterlimit="22.9256" d="M8578.23 7171.03l-15.56 2626.9c-0.16,30.8 -25.08,56.1 -55.61,56.1l-3374.84 0c-30.55,0 -55.51,-25.24 -55.6,-56.1l-9.07 -2494.71 8.17 -140.13"/>
    <path fill="none" stroke="black" stroke-width="10.57" stroke-miterlimit="22.9256" d="M12113.26 7651.63l0 2147.64c0,30.78 -25.1,56.1 -55.6,56.1l-3366.83 0c-30.5,0 -55.6,-25.24 -55.6,-56.1l0 -2581.25c0,-30.86 25.02,-56.1 55.6,-56.1"/>
   </g>
   <g>
    <path fill="none" stroke="black" stroke-width="10.57" stroke-miterlimit="22.9256" d="M5005.61 2509.72l-611.41 0c-39.61,0 -72.14,32.44 -72.04,72.04l4.47 1839.14c0.09,39.58 32.42,72.07 72.04,72.05l4214.17 -2.08 4214.16 2.08c39.62,0.02 71.95,-32.47 72.04,-72.05l4.47 -1839.14c0.1,-39.6 -32.43,-72.04 -72.04,-72.04l-611.4 0c-39.57,0 -71.9,3.32 -72.05,42.94l-4.95 1316.27c7.88,55.46 2.5,142.07 50.09,176.12 86.52,61.91 134.68,71.86 111.62,113.31 -34.07,50.54 -206.39,-41.73 -253.84,-35.79 -1117.27,5.71 -2294.14,-7.49 -3435.77,-5.28 -912.81,-1.75 -2481.25,0.14 -3440.43,5.28 -47.45,-5.95 -219.77,86.32 -253.84,35.79 -23.05,-41.45 25.1,-51.41 111.62,-113.31 47.59,-34.05 42.2,-120.66 50.09,-176.12l-4.95 -1316.27c-0.15,-39.62 -32.47,-42.94 -72.04,-42.94z"/>
    <path fill="none" stroke="black" stroke-width="10.57" stroke-miterlimit="22.9256" d="M4359.28 2518.12c-72.45,15.96 -86.16,110.32 -77.44,283.9 7.5,149.47 -2.11,1269.4 -2.11,1355.14 0,212.71 12.66,305.31 76.29,322.88"/>
    <path fill="none" stroke="black" stroke-width="10.57" stroke-miterlimit="22.9256" d="M5154.2 3438.16c1125.41,0 2250.81,0 3376.22,0 48.4,-1.44 61.74,18.89 83.74,41.25 20.36,-24.48 46.64,-44.34 79.06,-41.25l3380.86 0c38.84,0 70.61,32.43 70.61,72.05l0 504.3c0,39.62 -31.77,72.04 -70.61,72.04l-6919.88 0c-38.83,0 -70.6,-32.42 -70.6,-72.04l0 -20.95 0 -483.35c0,-39.62 31.77,-72.05 70.6,-72.05z"/>
    <path fill="none" stroke="black" stroke-width="10.57" stroke-miterlimit="22.9256" d="M8614.16 3479.41c-27.74,-26.83 -64.39,-73.8 -110.5,-73.87 -1087.26,-1.76 -2177.85,3.01 -3263.79,-0.62 -97.67,-0.32 -149.28,-19.23 -153.14,84.1"/>
    <path fill="none" stroke="black" stroke-width="10.57" stroke-miterlimit="22.9256" d="M5084.76 3438.52l0 -1321.31c-1.67,-67.84 15.55,-95.59 56.86,-105.8m6908.54 -1.14c66.82,12.8 95.45,62.01 88.94,123.94l4.85 1497.31"/>
    <line fill="none" stroke="black" stroke-width="10.57" stroke-miterlimit="22.9256" x1="8614.27" y1="4088.6" x2="8614.16" y2= "3479.41" />
    <path fill="none" stroke="black" stroke-width="10.57" stroke-miterlimit="22.9256" d="M8782.79 1842.02c512.87,0 968.6,21.38 1481.46,21.38 519.8,0 1096.72,-21.38 1616.5,-21.38 94.68,0 172.12,77.81 172.12,172.9 0,164.18 -31.16,427.46 -31.16,591.64 0,230.25 31.16,361.38 31.16,591.64 0,95.1 -77.45,172.9 -172.12,172.9 -547.49,0 -1094.98,-57.38 -1642.46,-57.38 -454.25,0 -908.51,50.3 -1362.75,56.71 -30.92,0.43 -61.83,0.67 -92.75,0.67 -94.67,0 -172.11,-77.81 -172.11,-172.9 0,-198.95 23.24,-372.32 23.24,-571.27 0,-195.47 -23.24,-416.53 -23.24,-612 0,-95.1 77.45,-172.9 172.11,-172.9z"/>
    <path fill="none" stroke="black" stroke-width="10.57" stroke-miterlimit="22.9256" d="M4545.4 4492.94l141.42 0c-16.34,16.93 -63.03,45.56 -59.36,50.46 -42.14,123.06 -54.47,249.3 -85.47,371.45 -21.74,0.47 -43.47,0.93 -65.2,1.4 5.03,-115.77 8.69,-218.15 13.71,-333.93 -1.34,-13.44 7.25,-35.99 18.7,-51.53l36.2 -37.84z"/>
    <path fill="none" stroke="black" stroke-width="10.57" stroke-miterlimit="22.9256" d="M4844.58 2505.06c24.12,28.25 26.43,0 43.28,84.75l193.64 1157.41"/>
    <path fill="none" stroke="black" stroke-width="10.57" stroke-miterlimit="22.9256" d="M12862.56 2513.02c72.45,15.95 86.17,110.32 77.45,283.9 -7.51,149.47 2.1,1269.39 2.1,1355.14 0,212.7 -12.66,305.3 -76.29,322.87"/>
    <path fill="none" stroke="black" stroke-width="10.57" stroke-miterlimit="22.9256" d="M12680.25 4492.94l-141.42 0c16.35,16.93 63.03,45.56 59.36,50.46 42.14,123.06 54.48,249.3 85.48,371.45 21.73,0.47 43.46,0.93 65.19,1.4 -5.03,-115.77 -8.68,-218.15 -13.71,-333.93 1.35,-13.44 -7.25,-35.99 -18.69,-51.53l-36.21 -37.84z"/>
    <path fill="none" stroke="black" stroke-width="10.57" stroke-miterlimit="22.9256" d="M12383.63 2507.18c-24.13,28.23 -26.43,0 -43.29,84.74l-196.88 1167.03"/>
    <path fill="none" stroke="black" stroke-width="10.57" stroke-miterlimit="22.9256" d="M8807.37 1868.09c504.13,0 952.1,20.51 1456.23,20.51 510.93,0 1078.03,-20.51 1588.96,-20.51 93.06,0 169.19,74.67 169.19,165.96 0,157.57 -30.63,410.29 -30.63,567.86 0,221.01 30.63,346.87 30.63,567.88 0,91.28 -76.13,165.96 -169.19,165.96 -538.16,0 -1076.33,-55.07 -1614.48,-55.07 -446.52,0 -893.03,48.28 -1339.54,54.43 -30.39,0.41 -60.78,0.64 -91.17,0.64 -93.06,0 -169.19,-74.68 -169.19,-165.96 0,-190.96 22.84,-357.37 22.84,-548.33 0,-187.62 -22.84,-399.8 -22.84,-587.42 0,-91.29 76.13,-165.96 169.19,-165.96z"/>
    <path fill="none" stroke="black" stroke-width="10.57" stroke-miterlimit="22.9256" d="M5311.78 1840.72c512.86,0 968.6,21.37 1481.46,21.37 519.8,0 1096.72,-21.37 1616.5,-21.37 94.67,0 172.11,77.8 172.11,172.9 0,164.17 -31.16,427.46 -31.16,591.63 0,230.26 31.16,361.39 31.16,591.65 0,95.1 -77.45,172.9 -172.11,172.9 -547.49,0 -1094.98,-57.38 -1642.46,-57.38 -454.25,0 -908.51,50.3 -1362.75,56.71 -30.92,0.43 -61.84,0.67 -92.75,0.67 -94.67,0 -172.12,-77.81 -172.12,-172.9 0,-198.95 23.24,-372.32 23.24,-571.27 0,-195.48 -23.24,-416.53 -23.24,-612 0,-95.11 77.46,-172.9 172.12,-172.9z"/>
    <path fill="none" stroke="black" stroke-width="10.57" stroke-miterlimit="22.9256" d="M5336.37 1866.78c504.13,0 952.09,20.52 1456.22,20.52 510.94,0 1078.04,-20.52 1588.96,-20.52 93.06,0 169.19,74.68 169.19,165.97 0,157.57 -30.63,410.29 -30.63,567.86 0,221.01 30.63,346.87 30.63,567.88 0,91.28 -76.13,165.96 -169.19,165.96 -538.15,0 -1076.32,-55.07 -1614.48,-55.07 -446.51,0 -893.03,48.28 -1339.53,54.43 -30.39,0.41 -60.78,0.64 -91.17,0.64 -93.06,0 -169.19,-74.68 -169.19,-165.96 0,-190.96 22.84,-357.37 22.84,-548.33 0,-187.62 -22.84,-399.8 -22.84,-587.42 0,-91.29 76.13,-165.97 169.19,-165.97z"/>
    <path fill="none" stroke="black" stroke-width="10.57" stroke-miterlimit="22.9256" d="M8614.28 3475.49c27.73,-26.83 64.38,-73.79 110.49,-73.86 1087.26,-1.76 2177.85,3.01 3263.79,-0.62 97.67,-0.33 149.29,-19.24 153.14,84.1"/>
    <path fill="none" stroke="black" stroke-width="10.57" stroke-miterlimit="22.9256" d="M12422.13 2502.8c-24.14,28.23 -26.44,0 -43.29,84.74 -66.65,388.21 -138.62,774.9 -200.01,1164.62 -13.85,87.94 -50.33,227.19 99.06,307.75 30.48,16.44 66.12,46.35 72.87,75.44 11.59,49.92 -40.37,90.82 -181.18,16.25"/>
    <path fill="none" stroke="black" stroke-width="10.57" stroke-miterlimit="22.9256" d="M4809.52 2510.49c24.13,28.23 26.43,0 43.29,84.74 66.64,388.21 150.88,773.18 200,1164.62 5.42,43.23 12,94.02 6.02,147.69 -6.47,58.1 -28.53,119.09 -105.07,160.07 -30.52,16.34 -66.14,46.36 -72.88,75.43 -11.58,49.9 67.25,85.21 209.73,-1.05"/>
   </g>
   <path fill="#666666" fill-rule="nonzero" fill-opacity="0.800000" d="M14876.11 6589.22l0 12.48c17.02,7.94 30.73,20.43 41.13,37.44 10.4,17.02 15.6,35.74 15.6,56.16 0,34.04 -11.72,61.55 -35.17,82.53 -23.45,21 -57.49,31.49 -102.12,31.49l-180.96 0 0 -405.04 176.42 0c41.22,0 73.09,9.74 95.6,29.22 22.49,19.48 33.75,43.96 33.75,73.46 0,38.95 -14.75,66.37 -44.25,82.25zm-210.46 -139.55l0 126.5 124.24 0c52.56,0 78.85,-21.56 78.85,-64.68 0,-21.18 -7.55,-36.78 -22.68,-46.8 -15.13,-10.02 -34.23,-15.03 -57.3,-15.03l-123.1 0zm0 314.28l126.5 0c26.09,0 47.46,-5.59 64.11,-16.74 16.64,-11.15 24.95,-29.78 24.95,-55.88 0,-24.57 -8.22,-42.45 -24.67,-53.6 -16.45,-11.15 -37.72,-16.74 -63.82,-16.74l-127.07 0 0 142.96zm341.51 -240.54l48.22 0 0 95.31 78.86 0c34.42,0 60.98,8.32 79.7,24.96 18.73,16.64 28.08,39.9 28.08,69.77 0,30.26 -9.35,53.8 -28.08,70.63 -18.72,16.83 -45.28,25.24 -79.7,25.24l-127.07 0 0 -285.92zm48.22 136.16l0 107.78 72.04 0c23.83,0 40.85,-4.54 51.07,-13.61 10.2,-9.07 15.31,-22.5 15.31,-40.28 0,-17.77 -5.11,-31.2 -15.31,-40.27 -10.21,-9.07 -27.23,-13.61 -51.07,-13.61l-72.04 0zm232.59 -136.16l48.22 0 0 285.92 -48.22 0 0 -285.92zm334.69 199.68l48.23 0c-5.68,28.75 -19.01,51.54 -39.99,68.36 -21,16.83 -47.75,25.24 -80.28,25.24 -43.11,0 -77.06,-14.09 -101.83,-42.26 -24.76,-28.18 -37.15,-64.2 -37.15,-108.07 0,-44.25 12.29,-80.37 36.87,-108.36 24.58,-27.98 58.62,-41.98 102.11,-41.98 32.91,0 59.66,8.23 80.28,24.68 20.61,16.45 33.37,38.29 38.28,65.52l-48.22 0c-10.21,-32.14 -33.66,-48.22 -70.34,-48.22 -30.63,0 -53.42,10.12 -68.35,30.35 -14.94,20.24 -22.41,45.86 -22.41,76.87 0,31.39 7.56,57.49 22.69,78.29 15.13,20.8 37.81,31.2 68.07,31.2 40.09,0 64.11,-17.21 72.04,-51.62zm140.4 -164.51c25.15,-28.36 59.47,-42.55 102.96,-42.55 43.49,0 77.82,14.19 102.97,42.55 25.14,28.36 37.72,64.3 37.72,107.79 0,43.49 -12.58,79.42 -37.72,107.78 -25.15,28.37 -59.48,42.55 -102.97,42.55 -43.49,0 -77.81,-14.18 -102.96,-42.55 -25.15,-28.36 -37.72,-64.29 -37.72,-107.78 0,-43.49 12.57,-79.43 37.72,-107.79zm34.33 184.65c15.88,20.99 38.76,31.48 68.63,31.48 29.88,0 52.76,-10.49 68.64,-31.48 15.89,-21 23.82,-46.62 23.82,-76.87 0,-30.26 -7.93,-55.88 -23.82,-76.87 -15.88,-21 -38.76,-31.49 -68.64,-31.49 -29.87,0 -52.75,10.49 -68.63,31.49 -15.89,20.99 -23.83,46.61 -23.83,76.87 0,30.25 7.94,55.87 23.83,76.87zm249.6 -177.85l0 -41.98 246.2 0 0 41.98 -98.71 0 0 243.93 -48.22 0 0 -243.93 -99.27 0zm491.84 243.93l0 -30.07 -12.48 0c-19.67,24.96 -49.36,37.44 -89.06,37.44 -31.39,0 -56.35,-9.07 -74.88,-27.23 -18.54,-18.15 -27.8,-40.08 -27.8,-65.81 0,-26.09 9.07,-48.41 27.23,-66.93 18.15,-18.54 45.57,-27.8 82.25,-27.8l93.04 0 0 -11.34c0,-18.16 -5.68,-32.62 -17.02,-43.4 -11.35,-10.77 -28.93,-16.17 -52.76,-16.17 -41.59,0 -63.72,13.81 -66.36,41.41l-48.22 0c1.89,-26.09 13.14,-46.52 33.75,-61.27 20.62,-14.75 47.18,-22.12 79.71,-22.12 36.69,0 65.53,8.51 86.51,25.53 20.99,17.02 31.48,41.41 31.48,73.18l0 194.58 -45.38 0zm-89.63 -34.61c23.82,0 44.44,-7.84 61.84,-23.54 17.39,-15.69 26.09,-34.89 26.09,-57.57l0 -26.1 -85.66 0c-45.76,0 -68.64,18.16 -68.64,54.46 0,16.26 5.77,29.12 17.31,38.57 11.53,9.45 27.89,14.18 49.07,14.18zm-1646.27 567.89l48.23 0c-5.68,28.75 -19.01,51.54 -39.99,68.36 -21,16.83 -47.75,25.24 -80.28,25.24 -43.11,0 -77.06,-14.09 -101.83,-42.26 -24.76,-28.18 -37.15,-64.2 -37.15,-108.07 0,-44.25 12.29,-80.37 36.87,-108.36 24.58,-27.98 58.62,-41.98 102.11,-41.98 32.91,0 59.66,8.23 80.28,24.68 20.61,16.45 33.37,38.29 38.28,65.52l-48.22 0c-10.21,-32.14 -33.66,-48.22 -70.34,-48.22 -30.63,0 -53.42,10.12 -68.35,30.35 -14.94,20.24 -22.41,45.86 -22.41,76.87 0,31.39 7.56,57.49 22.69,78.29 15.13,20.8 37.81,31.2 68.07,31.2 40.09,0 64.11,-17.21 72.04,-51.62zm188.34 86.23l-68.07 0 0 -285.92 47.09 0 0 221.25 12.47 0 125.37 -221.25 70.34 0 0 285.92 -47.09 0 0 -221.24 -12.47 0 -127.64 221.24zm534.95 -41.98l52.76 0 0 123.11 -47.09 0 0 -81.12 -247.33 0 0 81.12 -47.09 0 0 -123.11 38 0c23.45,-49.92 35.18,-105.14 35.18,-165.65l0 -78.29 215.56 0 0 243.93zm-48.22 0l0 -201.95 -122.54 0 0 36.31c0,64.68 -10.39,119.89 -31.2,165.65l153.74 0zm411.28 -117.99l0 16.45 -217.83 0c0.75,34.42 8.88,61.17 24.39,80.27 15.5,19.11 37.81,28.65 66.93,28.65 39.33,0 63.54,-14.75 72.61,-44.25l48.79 0c-4.92,25.72 -17.87,46.52 -38.85,62.41 -21,15.88 -48.51,23.82 -82.54,23.82 -43.49,0 -77.53,-14.18 -102.11,-42.55 -24.58,-28.36 -36.87,-65.24 -36.87,-110.61 0,-44.63 12.29,-80.37 36.87,-107.22 24.58,-26.85 58.24,-40.28 100.97,-40.28 40.47,0 71.67,12.77 93.61,38.29 21.94,25.53 33.28,57.2 34.04,95.03zm-128.77 -91.34c-24.58,0 -44.25,6.34 -59,19.01 -14.75,12.67 -23.82,28.84 -27.23,48.5l165.09 0c-1.52,-19.29 -9.27,-35.36 -23.26,-48.22 -13.99,-12.85 -32.53,-19.29 -55.59,-19.29zm458.36 251.31l-48.22 0 0 -125.93 -158.27 0 0 125.93 -48.22 0 0 -285.92 48.22 0 0 118 158.27 0 0 -118 48.22 0 0 285.92zm494.67 -285.92l142.38 0 0 285.92 -48.79 0 0 -112.89 -86.79 0c-7.56,0 -13.42,-0.19 -17.59,-0.56l-43.11 113.45 -50.49 0 48.22 -124.24c-29.5,-13.99 -44.25,-38.95 -44.25,-74.88 0,-27.61 8.6,-48.98 25.81,-64.11 17.21,-15.13 42.07,-22.69 74.6,-22.69zm93.6 40.85l-88.49 0c-20.81,0 -35.56,3.97 -44.25,11.91 -8.69,7.94 -13.05,19.48 -13.05,34.61 0,14.74 4.36,25.9 13.05,33.47 8.69,7.56 23.44,11.34 44.25,11.34l88.49 0 0 -91.33zm-1471.53 864.58l-59 0 0 -65.81 59 0 0 65.81zm98.7 -353.42c26.47,-34.42 61.83,-51.62 106.08,-51.62 44.25,0 79.71,17.31 106.37,51.91 26.66,34.6 39.99,86.13 39.99,154.59 0,68.44 -13.33,119.88 -39.99,154.3 -26.66,34.42 -62.12,51.62 -106.37,51.62 -44.25,0 -79.61,-17.21 -106.08,-51.62 -26.47,-34.42 -39.71,-85.85 -39.71,-154.3 0,-68.83 13.24,-120.46 39.71,-154.87zm34.04 273.71c15.88,28.56 39.9,42.83 72.04,42.83 32.15,0 56.26,-14.27 72.33,-42.83 16.07,-28.55 24.11,-68.16 24.11,-118.84 0,-51.06 -8.04,-90.87 -24.11,-119.42 -16.07,-28.55 -40.18,-42.83 -72.33,-42.83 -32.14,0 -56.16,14.28 -72.04,42.83 -15.89,28.55 -23.82,68.36 -23.82,119.42 0,50.68 7.93,90.29 23.82,118.84zm647.26 -6.53l48.23 0c-5.68,28.75 -19.01,51.54 -39.99,68.36 -21,16.83 -47.75,25.24 -80.28,25.24 -43.11,0 -77.06,-14.09 -101.83,-42.26 -24.76,-28.18 -37.15,-64.2 -37.15,-108.07 0,-44.25 12.29,-80.37 36.87,-108.36 24.58,-27.98 58.62,-41.98 102.11,-41.98 32.91,0 59.66,8.23 80.28,24.68 20.61,16.45 33.37,38.29 38.28,65.52l-48.22 0c-10.21,-32.14 -33.66,-48.22 -70.34,-48.22 -30.63,0 -53.42,10.12 -68.35,30.35 -14.94,20.24 -22.41,45.86 -22.41,76.87 0,31.39 7.56,57.49 22.69,78.29 15.13,20.8 37.81,31.2 68.07,31.2 40.09,0 64.11,-17.21 72.04,-51.62zm120.27 86.23l0 -285.92 76.58 0 70.35 130.48 12.47 0 70.35 -130.48 75.45 0 0 285.92 -47.09 0 0 -229.75 -12.48 0 -66.37 122.54 -53.32 0 -66.37 -122.54 -12.47 0 0 229.75 -47.09 0zm124.25 -905.44l0 95.31 84.52 0c34.42,0 60.99,8.32 79.71,24.96 18.72,16.64 28.08,39.9 28.08,69.77 0,30.26 -9.36,53.8 -28.08,70.63 -18.72,16.83 -45.29,25.24 -79.71,25.24l-132.74 0 0 -285.92 48.22 0zm0 243.93l77.72 0c23.82,0 40.84,-4.54 51.06,-13.61 10.21,-9.07 15.32,-22.5 15.32,-40.28 0,-17.77 -5.11,-31.2 -15.32,-40.27 -10.21,-9.07 -27.23,-13.61 -51.06,-13.61l-77.72 0 0 107.78zm644.44 41.98l-59 0 0 -65.81 59 0 0 65.81zm0 -220.11l-59 0 0 -65.81 59 0 0 65.81zm-2174.4 702.34l54.46 0 0 44.25 -54.46 0 0 93.04 -48.79 0 0 -93.04 -196.28 0 0 -56.72 175.29 -247.34 69.77 0 0 259.81zm-192.88 0l144.66 0 0 -203.65 -12.48 0 -132.18 191.18 0 12.47zm317.68 -259.81l232.01 0 0 55.59 -99.27 85.09 0 11.91c35.18,0.76 63.63,11.73 85.38,32.91 21.75,21.18 32.62,50.49 32.62,87.93 0,40.46 -13.05,72.42 -39.14,95.86 -26.1,23.45 -59.76,35.18 -100.98,35.18 -39.71,0 -72.23,-11.15 -97.57,-33.47 -25.33,-22.31 -39.14,-50.68 -41.41,-85.09l49.93 0c2.27,22.31 11.62,40.27 28.08,53.89 16.45,13.61 36.78,20.42 60.98,20.42 27.61,0 49.55,-7.75 65.81,-23.25 16.26,-15.51 24.39,-36.69 24.39,-63.54 0,-26.47 -7.75,-47.18 -23.25,-62.12 -15.51,-14.94 -37.63,-22.4 -66.37,-22.4 -13.99,0 -25.53,1.13 -34.61,3.4l0 -52.75 97 -83.96 0 -12.48 -173.58 0 0 -43.11z"/>
   <path fill="#666666" fill-rule="nonzero" fill-opacity="0.800000" d="M7460.46 12952.45l-49.92 0c2.27,-38.19 15.6,-67.31 39.99,-87.36 24.39,-20.05 55.12,-30.07 92.18,-30.07 38.58,0 69.68,10.5 93.33,31.49 23.63,20.99 35.45,50.78 35.45,89.35 0,46.89 -29.3,94.74 -87.92,143.52l-99.84 83.95 0 12.48 200.24 0 0 44.25 -272.86 0 0 -56.16 58.43 -47.65c36.32,-29.12 66.37,-54.65 90.2,-76.59 9.08,-7.94 16.36,-14.75 21.85,-20.43 5.49,-5.67 11.72,-13.14 18.72,-22.4 7,-9.26 12.29,-19.01 15.89,-29.21 3.59,-10.21 5.39,-20.81 5.39,-31.77 0,-24.58 -7.19,-43.49 -21.56,-56.73 -14.37,-13.24 -33.85,-19.86 -58.43,-19.86 -23.07,0 -41.7,6.15 -55.88,18.44 -14.18,12.29 -22.59,30.54 -25.24,54.74zm517.36 150.33l54.46 0 0 44.25 -54.46 0 0 93.04 -48.79 0 0 -93.04 -196.28 0 0 -56.72 175.29 -247.34 69.77 0 0 259.81zm-192.88 0l144.66 0 0 -203.65 -12.48 0 -132.18 191.18 0 12.47zm730.09 137.29l-59 0 0 -65.81 59 0 0 65.81zm98.7 -353.42c26.47,-34.42 61.83,-51.62 106.08,-51.62 44.25,0 79.71,17.31 106.37,51.91 26.66,34.6 39.99,86.13 39.99,154.59 0,68.44 -13.33,119.88 -39.99,154.3 -26.66,34.42 -62.12,51.62 -106.37,51.62 -44.25,0 -79.61,-17.21 -106.08,-51.62 -26.47,-34.42 -39.71,-85.85 -39.71,-154.3 0,-68.83 13.24,-120.46 39.71,-154.87zm34.04 273.71c15.88,28.56 39.9,42.83 72.04,42.83 32.15,0 56.26,-14.27 72.33,-42.83 16.07,-28.55 24.11,-68.16 24.11,-118.84 0,-51.06 -8.04,-90.87 -24.11,-119.42 -16.07,-28.55 -40.18,-42.83 -72.33,-42.83 -32.14,0 -56.16,14.28 -72.04,42.83 -15.89,28.55 -23.82,68.36 -23.82,119.42 0,50.68 7.93,90.29 23.82,118.84zm647.26 -6.53l48.23 0c-5.68,28.75 -19.01,51.54 -39.99,68.36 -21,16.83 -47.75,25.24 -80.28,25.24 -43.11,0 -77.06,-14.09 -101.83,-42.26 -24.76,-28.18 -37.15,-64.2 -37.15,-108.07 0,-44.25 12.29,-80.37 36.87,-108.36 24.58,-27.98 58.62,-41.98 102.11,-41.98 32.91,0 59.66,8.23 80.28,24.68 20.61,16.45 33.37,38.29 38.28,65.52l-48.22 0c-10.21,-32.14 -33.66,-48.22 -70.34,-48.22 -30.63,0 -53.42,10.12 -68.35,30.35 -14.94,20.24 -22.41,45.86 -22.41,76.87 0,31.39 7.56,57.49 22.69,78.29 15.13,20.8 37.81,31.2 68.07,31.2 40.09,0 64.11,-17.21 72.04,-51.62zm120.27 86.23l0 -285.92 76.58 0 70.35 130.48 12.47 0 70.35 -130.48 75.45 0 0 285.92 -47.09 0 0 -229.75 -12.48 0 -66.37 122.54 -53.32 0 -66.37 -122.54 -12.47 0 0 229.75 -47.09 0zm-1286.59 -353.42c26.47,-34.42 61.83,-51.62 106.08,-51.62 44.25,0 79.71,17.31 106.37,51.91 26.66,34.6 39.99,86.13 39.99,154.59 0,68.44 -13.33,119.88 -39.99,154.3 -26.66,34.42 -62.12,51.62 -106.37,51.62 -44.25,0 -79.61,-17.21 -106.08,-51.62 -26.47,-34.42 -39.71,-85.85 -39.71,-154.3 0,-68.83 13.24,-120.46 39.71,-154.87zm34.04 273.71c15.88,28.56 39.9,42.83 72.04,42.83 32.15,0 56.26,-14.27 72.33,-42.83 16.07,-28.55 24.11,-68.16 24.11,-118.84 0,-51.06 -8.04,-90.87 -24.11,-119.42 -16.07,-28.55 -40.18,-42.83 -72.33,-42.83 -32.14,0 -56.16,14.28 -72.04,42.83 -15.89,28.55 -23.82,68.36 -23.82,119.42 0,50.68 7.93,90.29 23.82,118.84z"/>
   <path fill="#666666" fill-rule="nonzero" fill-opacity="0.800000" d="M3022.41 4066.81l12.47 0c5.3,-15.51 16.36,-29.69 33.19,-42.55 16.83,-12.86 37.34,-19.29 61.56,-19.29 33.28,0 60.88,13.14 82.81,39.42 21.94,26.29 32.91,60.99 32.91,104.1 0,43.11 -10.97,77.82 -32.91,104.1 -21.94,26.28 -49.54,39.42 -82.81,39.42 -23.83,0 -44.25,-6.43 -61.27,-19.29 -17.02,-12.86 -28.18,-27.04 -33.48,-42.54l-12.47 0c-5.3,12.47 -15.32,23.91 -30.07,34.32 -14.75,10.4 -32.53,15.6 -53.32,15.6 -31.39,0 -56.92,-12.29 -76.59,-36.87 -19.67,-24.58 -29.5,-56.16 -29.5,-94.74 0,-38.57 9.83,-70.15 29.5,-94.74 19.67,-24.58 45.2,-36.87 76.59,-36.87 20.05,0 37.62,5.3 52.75,15.89 15.13,10.58 25.34,21.94 30.64,34.04zm-129.06 22.4c-11.53,15.69 -17.3,35.46 -17.3,59.28 0,23.82 5.77,43.59 17.3,59.28 11.53,15.7 27.51,23.54 47.94,23.54 20.42,0 36.5,-7.84 48.22,-23.54 11.72,-15.69 17.59,-35.46 17.59,-59.28 0,-23.82 -5.87,-43.59 -17.59,-59.28 -11.72,-15.7 -27.8,-23.54 -48.22,-23.54 -20.43,0 -36.41,7.84 -47.94,23.54zm287.05 128.2c13.8,-16.83 20.71,-39.8 20.71,-68.92 0,-29.12 -6.91,-52.09 -20.71,-68.92 -13.8,-16.83 -32.24,-25.24 -55.31,-25.24 -23.44,0 -41.78,8.31 -55.02,24.95 -13.24,16.65 -19.86,39.71 -19.86,69.21 0,29.5 6.62,52.56 19.86,69.21 13.24,16.64 31.58,24.95 55.02,24.95 23.07,0 41.51,-8.41 55.31,-25.24zm-28.65 -1461.6l0 -48.23c28.75,5.68 51.54,19.01 68.36,39.99 16.83,21 25.24,47.75 25.24,80.28 0,43.11 -14.09,77.06 -42.26,101.83 -28.18,24.76 -64.2,37.15 -108.07,37.15 -44.25,0 -80.37,-12.29 -108.36,-36.87 -27.98,-24.58 -41.98,-58.62 -41.98,-102.11 0,-32.91 8.23,-59.66 24.68,-80.28 16.45,-20.61 38.29,-33.37 65.52,-38.28l0 48.22c-32.14,10.21 -48.22,33.66 -48.22,70.34 0,30.63 10.12,53.42 30.35,68.35 20.24,14.94 45.86,22.41 76.87,22.41 31.39,0 57.49,-7.56 78.29,-22.69 20.8,-15.13 31.2,-37.81 31.2,-68.07 0,-40.09 -17.21,-64.11 -51.62,-72.04zm86.23 -120.27l-285.92 0 0 -76.58 130.48 -70.35 0 -12.47 -130.48 -70.35 0 -75.45 285.92 0 0 47.09 -229.75 0 0 12.48 122.54 66.37 0 53.32 -122.54 66.37 0 12.47 229.75 0 0 47.09zm-258.68 1154.42c0,-36.31 12.2,-66.56 36.6,-90.77 24.39,-24.2 55.31,-36.31 92.75,-36.31 38.95,0 71.48,12.2 97.57,36.6 26.09,24.39 39.14,57.2 39.14,98.42 0,45 -15.51,80.56 -46.52,106.65 -31.01,26.09 -80.56,39.14 -148.63,39.14 -63.92,0 -116.1,-12.76 -156.57,-38.29 -40.46,-25.52 -60.7,-63.07 -60.7,-112.6 0,-32.91 8.79,-59.85 26.38,-80.85 17.59,-20.99 40.37,-33.75 68.35,-38.28l0 49.35c-33.66,9.83 -50.49,33.1 -50.49,69.78 0,31.39 12.48,55.97 37.44,73.75 24.96,17.77 59.37,27.41 103.24,28.93l0 -12.48c-10.2,-8.32 -19.19,-20.52 -26.94,-36.6 -7.75,-16.07 -11.63,-34.89 -11.63,-56.44zm197.42 70.91c16.26,-16.64 24.39,-37.44 24.39,-62.41 0,-24.95 -7.94,-45.47 -23.82,-61.55 -15.89,-16.07 -38,-24.1 -66.37,-24.1 -28.36,0 -50.11,8.12 -65.24,24.39 -15.13,16.26 -22.69,37.05 -22.69,62.4 0,24.96 7.75,45.57 23.26,61.84 15.5,16.26 36.87,24.39 64.1,24.39 27.99,0 50.12,-8.32 66.37,-24.96zm61.27 -325.06l0 59 -65.81 0 0 -59 65.81 0zm-353.42 -98.7c-34.42,-26.47 -51.62,-61.83 -51.62,-106.08 0,-44.25 17.31,-79.71 51.91,-106.37 34.6,-26.66 86.13,-39.99 154.59,-39.99 68.44,0 119.88,13.33 154.3,39.99 34.42,26.66 51.62,62.12 51.62,106.37 0,44.25 -17.21,79.61 -51.62,106.08 -34.42,26.47 -85.85,39.71 -154.3,39.71 -68.83,0 -120.46,-13.24 -154.87,-39.71zm273.71 -34.04c28.56,-15.88 42.83,-39.9 42.83,-72.04 0,-32.15 -14.27,-56.26 -42.83,-72.33 -28.55,-16.07 -68.16,-24.11 -118.84,-24.11 -51.06,0 -90.87,8.04 -119.42,24.11 -28.55,16.07 -42.83,40.18 -42.83,72.33 0,32.14 14.28,56.16 42.83,72.04 28.55,15.89 68.36,23.82 119.42,23.82 50.68,0 90.29,-7.93 118.84,-23.82z"/>
   <path fill="#666666" fill-rule="nonzero" fill-opacity="0.800000" d="M3237.97 9320.93l-44.25 0 0 -94.18 -300.66 0 0 11.35 56.16 83.39 -52.19 0 -56.16 -82.82 0 -61.84 352.85 0 0 -86.79 44.25 0 0 230.88zm-353.42 -323.36c-34.42,-26.47 -51.62,-61.83 -51.62,-106.08 0,-44.25 17.31,-79.71 51.91,-106.37 34.6,-26.66 86.13,-39.99 154.59,-39.99 68.44,0 119.88,13.33 154.3,39.99 34.42,26.66 51.62,62.12 51.62,106.37 0,44.25 -17.21,79.61 -51.62,106.08 -34.42,26.47 -85.85,39.71 -154.3,39.71 -68.83,0 -120.46,-13.24 -154.87,-39.71zm273.71 -34.04c28.56,-15.88 42.83,-39.9 42.83,-72.04 0,-32.15 -14.27,-56.26 -42.83,-72.33 -28.55,-16.07 -68.16,-24.11 -118.84,-24.11 -51.06,0 -90.87,8.04 -119.42,24.11 -28.55,16.07 -42.83,40.18 -42.83,72.33 0,32.14 14.28,56.16 42.83,72.04 28.55,15.89 68.36,23.82 119.42,23.82 50.68,0 90.29,-7.93 118.84,-23.82zm-317.39 -294.42l0 -232.01 55.59 0 85.09 99.27 11.91 0c0.76,-35.18 11.73,-63.63 32.91,-85.38 21.18,-21.75 50.49,-32.62 87.93,-32.62 40.46,0 72.42,13.05 95.86,39.14 23.45,26.1 35.18,59.76 35.18,100.98 0,39.71 -11.15,72.23 -33.47,97.57 -22.31,25.33 -50.68,39.14 -85.09,41.41l0 -49.93c22.31,-2.27 40.27,-11.62 53.89,-28.08 13.61,-16.45 20.42,-36.78 20.42,-60.98 0,-27.61 -7.75,-49.55 -23.25,-65.81 -15.51,-16.26 -36.69,-24.39 -63.54,-24.39 -26.47,0 -47.18,7.75 -62.12,23.25 -14.94,15.51 -22.4,37.63 -22.4,66.37 0,13.99 1.13,25.53 3.4,34.61l-52.75 0 -83.96 -97 -12.48 0 0 173.58 -43.11 0zm397.1 -380.64l0 59 -65.81 0 0 -59 65.81 0zm-353.42 -98.7c-34.42,-26.47 -51.62,-61.83 -51.62,-106.08 0,-44.25 17.31,-79.71 51.91,-106.37 34.6,-26.66 86.13,-39.99 154.59,-39.99 68.44,0 119.88,13.33 154.3,39.99 34.42,26.66 51.62,62.12 51.62,106.37 0,44.25 -17.21,79.61 -51.62,106.08 -34.42,26.47 -85.85,39.71 -154.3,39.71 -68.83,0 -120.46,-13.24 -154.87,-39.71zm273.71 -34.04c28.56,-15.88 42.83,-39.9 42.83,-72.04 0,-32.15 -14.27,-56.26 -42.83,-72.33 -28.55,-16.07 -68.16,-24.11 -118.84,-24.11 -51.06,0 -90.87,8.04 -119.42,24.11 -28.55,16.07 -42.83,40.18 -42.83,72.33 0,32.14 14.28,56.16 42.83,72.04 28.55,15.89 68.36,23.82 119.42,23.82 50.68,0 90.29,-7.93 118.84,-23.82zm-6.53 -647.26l0 -48.23c28.75,5.68 51.54,19.01 68.36,39.99 16.83,21 25.24,47.75 25.24,80.28 0,43.11 -14.09,77.06 -42.26,101.83 -28.18,24.76 -64.2,37.15 -108.07,37.15 -44.25,0 -80.37,-12.29 -108.36,-36.87 -27.98,-24.58 -41.98,-58.62 -41.98,-102.11 0,-32.91 8.23,-59.66 24.68,-80.28 16.45,-20.61 38.29,-33.37 65.52,-38.28l0 48.22c-32.14,10.21 -48.22,33.66 -48.22,70.34 0,30.63 10.12,53.42 30.35,68.35 20.24,14.94 45.86,22.41 76.87,22.41 31.39,0 57.49,-7.56 78.29,-22.69 20.8,-15.13 31.2,-37.81 31.2,-68.07 0,-40.09 -17.21,-64.11 -51.62,-72.04zm86.23 -120.27l-285.92 0 0 -76.58 130.48 -70.35 0 -12.47 -130.48 -70.35 0 -75.45 285.92 0 0 47.09 -229.75 0 0 12.48 122.54 66.37 0 53.32 -122.54 66.37 0 12.47 229.75 0 0 47.09z"/>
   <path fill="#666666" fill-rule="nonzero" fill-opacity="0.800000" d="M6535.78 11086.15l0 -44.25 94.18 0 0 -300.66 -11.35 0 -83.39 56.16 0 -52.19 82.82 -56.16 61.84 0 0 352.85 86.79 0 0 44.25 -230.88 0zm403.92 -138.99c-36.31,0 -66.56,-12.19 -90.77,-36.59 -24.2,-24.39 -36.31,-55.31 -36.31,-92.76 0,-38.95 12.19,-71.47 36.59,-97.57 24.39,-26.09 57.2,-39.14 98.43,-39.14 45,0 80.55,15.51 106.65,46.52 26.09,31.02 39.14,80.56 39.14,148.63 0,63.92 -12.77,116.11 -38.29,156.57 -25.53,40.46 -63.07,60.7 -112.6,60.7 -32.91,0 -59.85,-8.79 -80.85,-26.38 -20.99,-17.58 -33.75,-40.37 -38.28,-68.35l49.35 0c9.83,33.66 33.1,50.49 69.78,50.49 31.39,0 55.97,-12.48 73.74,-37.43 17.78,-24.96 27.42,-59.38 28.93,-103.25l-12.47 0c-8.32,10.21 -20.52,19.2 -36.6,26.94 -16.07,7.75 -34.89,11.63 -56.44,11.63zm70.91 -197.42c-16.65,-16.26 -37.44,-24.39 -62.41,-24.39 -24.95,0 -45.48,7.94 -61.55,23.82 -16.07,15.89 -24.11,38.01 -24.11,66.37 0,28.36 8.13,50.12 24.39,65.24 16.27,15.13 37.06,22.69 62.41,22.69 24.96,0 45.57,-7.75 61.83,-23.25 16.27,-15.51 24.39,-36.87 24.39,-64.11 0,-27.99 -8.31,-50.12 -24.95,-66.37zm298.96 77.72c36.31,0 66.56,12.2 90.77,36.6 24.2,24.39 36.31,55.31 36.31,92.75 0,38.95 -12.2,71.48 -36.6,97.57 -24.39,26.09 -57.2,39.14 -98.42,39.14 -45,0 -80.56,-15.51 -106.65,-46.52 -26.09,-31.01 -39.14,-80.56 -39.14,-148.63 0,-63.92 12.76,-116.1 38.29,-156.57 25.52,-40.46 63.07,-60.7 112.6,-60.7 32.91,0 59.85,8.79 80.85,26.38 20.99,17.59 33.75,40.37 38.28,68.35l-49.35 0c-9.83,-33.66 -33.1,-50.49 -69.78,-50.49 -31.39,0 -55.97,12.48 -73.75,37.44 -17.77,24.96 -27.41,59.37 -28.93,103.24l12.48 0c8.32,-10.2 20.52,-19.19 36.6,-26.94 16.07,-7.75 34.89,-11.63 56.44,-11.63zm-70.91 197.42c16.64,16.26 37.44,24.39 62.41,24.39 24.95,0 45.47,-7.94 61.55,-23.82 16.07,-15.89 24.1,-38 24.1,-66.37 0,-28.36 -8.12,-50.11 -24.39,-65.24 -16.26,-15.13 -37.05,-22.69 -62.4,-22.69 -24.96,0 -45.57,7.75 -61.84,23.26 -16.26,15.5 -24.39,36.87 -24.39,64.1 0,27.99 8.32,50.12 24.96,66.37zm316.55 61.27l-59 0 0 -65.81 59 0 0 65.81zm1721.13 -353.42c26.47,-34.42 61.83,-51.62 106.08,-51.62 44.25,0 79.71,17.31 106.37,51.91 26.66,34.6 39.99,86.13 39.99,154.59 0,68.44 -13.33,119.88 -39.99,154.3 -26.66,34.42 -62.12,51.62 -106.37,51.62 -44.25,0 -79.61,-17.21 -106.08,-51.62 -26.47,-34.42 -39.71,-85.85 -39.71,-154.3 0,-68.83 13.24,-120.46 39.71,-154.87zm34.04 273.71c15.88,28.56 39.9,42.83 72.04,42.83 32.15,0 56.26,-14.27 72.33,-42.83 16.07,-28.55 24.11,-68.16 24.11,-118.84 0,-51.06 -8.04,-90.87 -24.11,-119.42 -16.07,-28.55 -40.18,-42.83 -72.33,-42.83 -32.14,0 -56.16,14.28 -72.04,42.83 -15.89,28.55 -23.82,68.36 -23.82,119.42 0,50.68 7.93,90.29 23.82,118.84zm1132.28 -6.53l48.23 0c-5.68,28.75 -19.01,51.54 -39.99,68.36 -21,16.83 -47.75,25.24 -80.28,25.24 -43.11,0 -77.06,-14.09 -101.83,-42.26 -24.76,-28.18 -37.15,-64.2 -37.15,-108.07 0,-44.25 12.29,-80.37 36.87,-108.36 24.58,-27.98 58.62,-41.98 102.11,-41.98 32.91,0 59.66,8.23 80.28,24.68 20.61,16.45 33.37,38.29 38.28,65.52l-48.22 0c-10.21,-32.14 -33.66,-48.22 -70.34,-48.22 -30.63,0 -53.42,10.12 -68.35,30.35 -14.94,20.24 -22.41,45.86 -22.41,76.87 0,31.39 7.56,57.49 22.69,78.29 15.13,20.8 37.81,31.2 68.07,31.2 40.09,0 64.11,-17.21 72.04,-51.62zm120.27 86.23l0 -285.92 76.58 0 70.35 130.48 12.47 0 70.35 -130.48 75.45 0 0 285.92 -47.09 0 0 -229.75 -12.48 0 -66.37 122.54 -53.32 0 -66.37 -122.54 -12.47 0 0 229.75 -47.09 0zm-2893.13 -353.42c26.47,-34.42 61.83,-51.62 106.08,-51.62 44.25,0 79.71,17.31 106.37,51.91 26.66,34.6 39.99,86.13 39.99,154.59 0,68.44 -13.33,119.88 -39.99,154.3 -26.66,34.42 -62.12,51.62 -106.37,51.62 -44.25,0 -79.61,-17.21 -106.08,-51.62 -26.47,-34.42 -39.71,-85.85 -39.71,-154.3 0,-68.83 13.24,-120.46 39.71,-154.87zm34.04 273.71c15.88,28.56 39.9,42.83 72.04,42.83 32.15,0 56.26,-14.27 72.33,-42.83 16.07,-28.55 24.11,-68.16 24.11,-118.84 0,-51.06 -8.04,-90.87 -24.11,-119.42 -16.07,-28.55 -40.18,-42.83 -72.33,-42.83 -32.14,0 -56.16,14.28 -72.04,42.83 -15.89,28.55 -23.82,68.36 -23.82,119.42 0,50.68 7.93,90.29 23.82,118.84zm644.99 79.71l-70.91 -119.7 -20.42 0 -72.61 119.7 -52.76 0 89.07 -146.36 -79.99 -139.56 51.06 0 65.81 113.46 20.42 0 66.94 -113.46 50.49 0 -81.12 137.86 88.5 148.06 -54.46 0zm266.62 0l0 -44.25 94.18 0 0 -300.66 -11.35 0 -83.39 56.16 0 -52.19 82.82 -56.16 61.84 0 0 352.85 86.79 0 0 44.25 -230.88 0zm432.28 -267.19c38.57,0 69.49,12.67 92.76,38 23.25,25.34 34.89,56.92 34.89,94.74 0,42.74 -12.58,77.06 -37.72,102.96 -25.15,25.91 -57.96,38.86 -98.42,38.86 -41.98,0 -74.98,-10.97 -98.99,-32.91 -24.01,-21.94 -37.15,-50.49 -39.43,-85.65l49.36 0c3.03,24.2 12.1,42.64 27.23,55.3 15.13,12.67 34.99,19.01 59.57,19.01 26.47,0 47.84,-8.6 64.1,-25.81 16.27,-17.21 24.39,-40.37 24.39,-69.49 0,-27.6 -7.84,-50.02 -23.54,-67.22 -15.69,-17.21 -36.78,-25.8 -63.25,-25.8 -35.56,0 -61.84,12.47 -78.86,37.43l-49.92 0 17.59 -209.33 226.91 0 0 43.11 -186.63 0 -9.07 114.59 12.48 0c20.42,-18.53 45.95,-27.79 76.58,-27.79zm614.93 267.19l-59 0 0 -65.81 59 0 0 65.81zm98.7 -353.42c26.47,-34.42 61.83,-51.62 106.08,-51.62 44.25,0 79.71,17.31 106.37,51.91 26.66,34.6 39.99,86.13 39.99,154.59 0,68.44 -13.33,119.88 -39.99,154.3 -26.66,34.42 -62.12,51.62 -106.37,51.62 -44.25,0 -79.61,-17.21 -106.08,-51.62 -26.47,-34.42 -39.71,-85.85 -39.71,-154.3 0,-68.83 13.24,-120.46 39.71,-154.87zm34.04 273.71c15.88,28.56 39.9,42.83 72.04,42.83 32.15,0 56.26,-14.27 72.33,-42.83 16.07,-28.55 24.11,-68.16 24.11,-118.84 0,-51.06 -8.04,-90.87 -24.11,-119.42 -16.07,-28.55 -40.18,-42.83 -72.33,-42.83 -32.14,0 -56.16,14.28 -72.04,42.83 -15.89,28.55 -23.82,68.36 -23.82,119.42 0,50.68 7.93,90.29 23.82,118.84z"/>
   <g>
    <line fill="none" stroke="gray" stroke-width="10.57" stroke-miterlimit="22.9256" x1="3252.66" y1="4930.42" x2="4085.53" y2= "4930.42" />
    <line fill="none" stroke="gray" stroke-width="10.57" stroke-miterlimit="22.9256" x1="3250.62" y1="1813.06" x2="4085.53" y2= "1813.06" />
    <line fill="none" stroke="gray" stroke-width="10.57" stroke-miterlimit="22.9256" x1="3565.65" y1="5240.96" x2="3565.65" y2= "1542.51" />
   </g>
   <g>
    <line fill="none" stroke="gray" stroke-width="10.57" stroke-miterlimit="22.9256" x1="3252.66" y1="9943.73" x2="4085.53" y2= "9943.73" />
    <line fill="none" stroke="gray" stroke-width="10.57" stroke-miterlimit="22.9256" x1="3250.62" y1="6403.71" x2="4085.53" y2= "6403.71" />
    <line fill="none" stroke="gray" stroke-width="10.57" stroke-miterlimit="22.9256" x1="3565.65" y1="10271.5" x2="3565.65" y2= "6133.17" />
   </g>
   <g>
    <line fill="none" stroke="gray" stroke-width="10.57" stroke-miterlimit="22.9256" x1="4243.59" y1="12793.78" x2="4243.59" y2= "11958.88" />
    <line fill="none" stroke="gray" stroke-width="10.57" stroke-miterlimit="22.9256" x1="12905.67" y1="12791.75" x2="12905.67" y2= "11958.88" />
    <line fill="none" stroke="gray" stroke-width="10.57" stroke-miterlimit="22.9256" x1="13192.1" y1="12478.76" x2="3931.06" y2= "12478.76" />
   </g>
  </g>
 </g>
</svg>
