<?xml version="1.0" encoding="UTF-8"?>
<!DOCTYPE svg PUBLIC "-//W3C//DTD SVG 1.1//EN" "http://www.w3.org/Graphics/SVG/1.1/DTD/svg11.dtd">
<!-- Creator: CorelDRAW 2021.5 -->
<svg xmlns="http://www.w3.org/2000/svg" xml:space="preserve" width="210mm" height="148mm" version="1.1" shape-rendering="geometricPrecision" text-rendering="geometricPrecision" image-rendering="optimizeQuality" fill-rule="evenodd" clip-rule="evenodd"
viewBox="0 0 20985.75 14789.96"
 xmlns:xlink="http://www.w3.org/1999/xlink"
 xmlns:xodm="http://www.corel.com/coreldraw/odm/2003">
 <g id="Тени">
  <metadata id="CorelCorpID_0Corel-Layer"/>
  <rect fill="none" width="20985.75" height="14789.96"/>
  <path fill="black" fill-opacity="0.101961" d="M3579.36 1864.62c501.36,55.68 574.45,147.81 898.03,152.65 344.87,5.17 522.78,-135.36 908.34,-144.47 -301.67,6.28 -596.81,15.2 -898.49,21.5l-907.88 -29.67z"/>
  <path fill="black" fill-opacity="0.101961" d="M3572.98 3305.39c531.2,-106.58 568.48,-162.68 892.04,-169.93 344.89,-7.72 454.79,55.66 914.64,167.84 -301.67,-9.41 -596.72,-38.51 -898.39,-47.96l-908.29 50.06z"/>
  <path fill="black" fill-opacity="0.101961" d="M6101.69 1865.9c500.14,55.68 573.05,147.81 895.83,152.65 344.04,5.17 521.51,-135.36 906.13,-144.47 -300.93,6.28 -595.37,15.2 -896.3,21.5l-905.67 -29.67z"/>
  <path fill="black" fill-opacity="0.101961" d="M6095.32 3306.66c529.91,-106.58 567.1,-162.68 889.88,-169.93 344.04,-7.73 453.68,55.65 912.41,167.84 -300.94,-9.41 -595.28,-38.51 -896.2,-47.96l-906.08 50.06z"/>
  <path fill="black" fill-opacity="0.101961" d="M2411.25 4365l3325.87 0 17.58 -877.22 3.88 -10.53 0.11 -47.06 27.72 -49.88 39.38 -12.93 0.49 48.53 117.33 -9.42 62.71 958.52 5584.87 0c-13.98,53.42 -66.34,81.41 -66.34,81.41 -3013.14,0 -6026.29,0 -9039.43,0 0,5.28 -62.44,-38.95 -74.16,-81.41zm5835.18 -988.62l53.89 56.11 56.09 -54.44 -3.28 671.83 -104.61 0 -2.1 -673.5z"/>
  <polygon fill="black" fill-opacity="0.101961" points="13252.69,2409.2 14751.78,2409.2 14751.78,2499.83 13349.71,2499.83 13257.16,2565.51 13252.69,2499.83 "/>
  <g id="_2238482358416">
   <path fill="black" fill-opacity="0.101961" d="M8606.66 1860c500.13,55.68 573.04,147.81 895.83,152.65 344.04,5.17 521.5,-135.36 906.13,-144.47 -300.94,6.28 -595.37,15.2 -896.3,21.5l-905.67 -29.67z"/>
   <path fill="black" fill-opacity="0.101961" d="M8600.29 3300.76c529.91,-106.59 567.09,-162.68 889.87,-169.93 344.05,-7.73 453.68,55.65 912.41,167.84 -300.94,-9.41 -595.27,-38.51 -896.2,-47.96l-906.07 50.06z"/>
  </g>
  <path fill="black" fill-opacity="0.101961" d="M3167.29 8626.85c15.3,253.18 -7.42,959.59 -7.42,959.59 0,0 84.34,-781.4 93.77,-957.62 46.05,-859.32 437.68,-774.58 1032,-747.81 63.62,2.86 133.87,-1.07 207.89,-7.73 -18.64,0.39 -37.29,0.7 -55.78,0.86 -421.08,3.64 -928.51,-86.16 -1118.06,-202.51 -97.63,-59.95 -106.56,-153.98 -97.88,-205.95l-1.92 -319.7c-0.26,-43.65 18.84,-69.85 44.39,-88.24l-70.72 1.64 -34.2 3m1843.69 781.61c155.29,2.48 300.57,30.54 412.58,117.64 207.62,161.44 214.68,403.55 243.5,870.89 42.22,685.13 40.27,1064.06 41.13,698.51l4.56 -1944c0,0 7.79,-17.45 -29.09,-0.2 -3.96,55.49 -33.17,59.65 -134.34,125.06 -103.41,66.88 -293.41,98.22 -538.34,132.11z"/>
  <path fill="black" fill-opacity="0.101961" d="M5797.55 8709.08c6.74,278.04 1.74,889.1 1.74,889.1 0,0 81.05,-781.41 90.13,-957.62 44.25,-859.32 420.7,-796.67 991.96,-769.92 61.17,2.86 128.67,-1.06 199.83,-7.72 -17.9,0.39 -35.89,0.7 -53.61,0.85 -404.77,3.62 -890.6,-42.67 -1072.79,-159 -185.26,-118.32 -105.55,-69.11 -145.45,-129.88l-11.8 1134.2zm1762.78 -872.07c149.27,2.48 299.55,49.24 407.2,136.34 199.57,161.42 206.35,403.55 234.06,870.9 40.58,685.12 38.71,1064.05 39.54,698.5l4.39 -1944c0,0 7.48,-17.45 -27.97,-0.2 -17.52,40.35 -41.66,46.07 -138.89,111.46 -99.39,66.85 -282.9,93.12 -518.34,127z"/>
  <path fill="black" fill-opacity="0.101961" d="M8325.66 8709.82c6.78,278.04 1.74,889.1 1.74,889.1 0,0 81.55,-781.41 90.68,-957.62 44.52,-859.32 423.24,-796.66 997.94,-769.91 61.54,2.86 129.44,-1.07 201.03,-7.73 -18.01,0.39 -36.1,0.7 -53.94,0.85 -407.19,3.62 -895.96,-42.66 -1079.25,-159 -186.38,-118.32 -106.19,-69.11 -146.33,-129.88l-11.87 1134.2zm1773.41 -872.06c150.17,2.47 301.36,49.24 409.66,136.34 200.77,161.41 207.6,403.54 235.47,870.89 40.83,685.12 38.94,1064.05 39.78,698.5l4.42 -1944c0,0 7.52,-17.45 -28.14,-0.2 -17.63,40.35 -41.91,46.07 -139.73,111.47 -99.99,66.85 -284.61,93.11 -521.47,127z"/>
  <polygon fill="black" fill-opacity="0.101961" points="16666.68,4045.87 19407.32,4045.87 19407.32,4136.5 16844.06,4136.5 16666.68,4136.5 "/>
 </g>
 <g id="Схема">
  <metadata id="CorelCorpID_1Corel-Layer"/>
  <g id="_2238482356832">
   <path fill="none" stroke="black" stroke-width="10.57" stroke-miterlimit="22.9256" d="M13297.9 2539.46l0 -462.04c0,-38.92 31.84,-70.75 70.74,-70.75l566.01 0c38.91,0 70.74,31.84 70.74,70.75l0 428.88"/>
   <path fill="none" stroke="black" stroke-width="10.57" stroke-miterlimit="22.9256" d="M13336.07 2020.92c-92.14,6.53 -89.65,121.97 -81.09,295.37 1.92,38.74 2.7,142.73 2.81,277"/>
   <path fill="none" stroke="black" stroke-width="10.57" stroke-miterlimit="22.9256" d="M13949.2 2008.18c92.14,6.7 106.39,133.43 97.84,310.8 -1.4,29.06 -2.23,100.55 -2.59,187.32"/>
   <path fill="none" stroke="black" stroke-width="10.57" stroke-miterlimit="22.9256" d="M14133.53 2506.31l-19.48 -505.39c-2.73,-71.03 -17.04,-142.4 84.33,-146.61l299.22 -12.43c26.9,-1.12 100.09,-3.39 104.38,107.82l21.45 556.61"/>
   <path fill="none" stroke="black" stroke-width="10.57" stroke-miterlimit="22.9256" d="M14147.2 1870.75c-91.93,7.36 -109.78,231.87 -97.33,328.86 5.24,40.78 12.1,176.26 17.99,309.8"/>
   <path fill="none" stroke="black" stroke-width="10.57" stroke-miterlimit="22.9256" d="M14497.62 1841.88c92.22,0 203.26,124.86 216.15,222.45 13.85,104.8 24.34,288.27 31.51,447.67"/>
   <rect fill="none" stroke="black" stroke-width="10.57" stroke-miterlimit="22.9256" transform="matrix(1.40797E-14 -1.44971 0.714323 5.15901E-14 13247.9 4448.55)" width="1339.75" height="4785.98" rx="96.77" ry="96.77"/>
   <path fill="none" stroke="black" stroke-width="10.57" stroke-miterlimit="22.9256" d="M16400.34 4448.58l-138.89 0c16.05,16.62 61.9,44.74 58.3,49.55 41.38,120.85 53.49,244.82 83.93,364.78 21.35,0.46 42.69,0.91 64.03,1.37 -4.94,-113.69 -8.53,-214.23 -13.47,-327.94 1.32,-13.2 -7.12,-35.34 -18.35,-50.6l-35.56 -37.16z"/>
   <path fill="none" stroke="black" stroke-width="10.57" stroke-miterlimit="22.9256" d="M13464.85 4449.12l138.89 0c-16.05,16.62 -61.9,44.74 -58.3,49.55 -41.38,120.84 -53.49,244.82 -83.94,364.77 -21.34,0.46 -42.68,0.92 -64.02,1.38 4.94,-113.69 8.53,-214.23 13.47,-327.94 -1.33,-13.2 7.12,-35.34 18.35,-50.6l35.56 -37.16z"/>
   <path fill="none" stroke="black" stroke-width="10.57" stroke-miterlimit="22.9256" d="M13281.91 2652.33l0 1657.98c0,76.03 62.2,138.24 138.24,138.24l3074.24 0c76.04,0 138.24,-62.21 138.24,-138.24l0 -1651.16c0,-68.51 -56.05,-124.57 -124.57,-124.57l-3108.42 0c-64.76,0 -117.73,52.98 -117.73,117.74z"/>
   <path fill="none" stroke="black" stroke-width="10.57" stroke-miterlimit="22.9256" d="M14159.23 2506.31l-21.13 -551.94c-2.39,-71.04 -18.03,-96.58 70.69,-100.52l269.05 -11.97c23.53,-1.05 83.7,-13.78 88.04,84.11l25.7 580.31"/>
   <path fill="none" stroke="black" stroke-width="10.57" stroke-miterlimit="22.9256" d="M16675.26 3325.13l2727.17 0c65.46,0 117.22,4.63 117.41,70.03l1.58 531.72c0.19,65.43 -53.56,118.99 -118.99,118.99l-2727.39 0"/>
   <path fill="none" stroke="black" stroke-width="10.57" stroke-miterlimit="22.9256" d="M19283.04 4445.65l-139.48 0c16.12,16.7 62.16,44.93 58.54,49.76 41.56,121.36 53.72,245.87 84.3,366.33 21.43,0.46 42.86,0.92 64.3,1.38 -4.97,-114.18 -8.57,-215.14 -13.53,-329.33 1.33,-13.27 -7.15,-35.5 -18.44,-50.82l-35.7 -37.32z"/>
   <path fill="none" stroke="black" stroke-width="10.57" stroke-miterlimit="22.9256" d="M19407.32 4045.87c0,132.13 0,245.26 0,377.39 -1.06,13.56 -17.06,19.01 -25.58,19.01l-2874.4 2.52"/>
   <polyline fill="none" stroke="black" stroke-width="10.57" stroke-miterlimit="22.9256" points="19489.54,3337.49 19490.74,3290.33 16666.68,3290.62 "/>
  </g>
  <g id="_2238482364560">
   <g>
    <path fill="none" stroke="black" stroke-width="10.57" stroke-miterlimit="22.9256" d="M8402.05 1833.1c373.2,0 704.82,20.99 1078.02,20.99 378.23,0 798.04,-20.99 1176.27,-20.99 68.88,0 125.24,76.41 125.24,169.8 0,161.22 -22.67,419.77 -22.67,581 0,226.13 22.67,354.9 22.67,581.03 0,93.39 -56.36,169.79 -125.24,169.79 -398.39,0 -796.78,-56.35 -1195.17,-56.35 -330.55,0 -661.09,49.4 -991.64,55.69 -22.49,0.43 -44.99,0.66 -67.48,0.66 -68.88,0 -125.24,-76.41 -125.24,-169.79 0,-195.38 16.92,-365.63 16.92,-561.01 0,-191.97 -16.92,-409.05 -16.92,-601.01 0,-93.4 56.36,-169.8 125.24,-169.8z"/>
    <path fill="none" stroke="black" stroke-width="10.57" stroke-miterlimit="22.9256" d="M8434.08 1870.32c361.92,0 683.54,19.98 1045.45,19.98 366.81,0 773.93,-19.98 1140.75,-19.98 66.8,0 121.46,72.74 121.46,161.66 0,153.51 -21.99,399.68 -21.99,553.17 0,215.29 21.99,337.9 21.99,553.18 0,88.92 -54.65,161.67 -121.46,161.67 -386.36,0 -772.72,-53.65 -1159.06,-53.65 -320.56,0 -641.12,47.03 -961.68,53.02 -21.82,0.41 -43.63,0.63 -65.46,0.63 -66.8,0 -121.46,-72.75 -121.46,-161.67 0,-186.01 16.4,-348.11 16.4,-534.14 0,-182.77 -16.4,-389.46 -16.4,-572.22 0,-88.92 54.65,-161.66 121.46,-161.66z"/>
   </g>
   <path fill="none" stroke="black" stroke-width="10.57" stroke-miterlimit="22.9256" d="M2487.83 2502.96c-71.14,15.67 -84.63,108.34 -76.06,278.79 7.37,146.78 -2.07,1246.6 -2.07,1330.81 0,208.88 -21.18,325.27 50.24,325.12"/>
   <path fill="none" stroke="black" stroke-width="10.57" stroke-miterlimit="22.9256" d="M5799.46 3406.48c811.46,0 1622.91,0 2434.36,0 34.9,-1.42 44.52,18.55 60.38,40.5 14.68,-24.04 33.63,-43.54 57,-40.5l2437.71 0c28,0 50.92,31.85 50.92,70.75l0 495.24c0,38.9 -22.91,70.74 -50.92,70.74l-4989.45 0c-28,0 -50.92,-31.84 -50.92,-70.74l0 -20.57 0 -474.68c0,-38.91 22.91,-70.75 50.92,-70.75z"/>
   <path fill="none" stroke="black" stroke-width="10.57" stroke-miterlimit="22.9256" d="M8294.22 3446.98c-20.01,-26.34 -46.42,-72.47 -79.68,-72.54 -783.96,-1.72 -1570.31,2.96 -2353.32,-0.61 -70.42,-0.31 -107.64,-18.88 -110.42,82.59"/>
   <path fill="none" stroke="black" stroke-width="10.57" stroke-miterlimit="22.9256" d="M3208.18 3406.83l0 -1297.59c-1.56,-57.64 12.16,-85.8 44.83,-98.84m7527.69 6.11c43.74,20.93 62,61.27 56.42,109.44l5.25 1470.42"/>
   <line fill="none" stroke="black" stroke-width="10.57" stroke-miterlimit="22.9256" x1="8294.28" y1="4045.24" x2="8294.2" y2= "3446.98" />
   <path fill="none" stroke="black" stroke-width="10.57" stroke-miterlimit="22.9256" d="M5897.1 1839c373.2,0 704.81,20.99 1078.01,20.99 378.24,0 798.05,-20.99 1176.28,-20.99 68.88,0 125.24,76.41 125.24,169.8 0,161.22 -22.67,419.77 -22.67,581.01 0,226.12 22.67,354.89 22.67,581.02 0,93.39 -56.36,169.79 -125.24,169.79 -398.39,0 -796.78,-56.35 -1195.18,-56.35 -330.54,0 -661.09,49.4 -991.63,55.69 -22.49,0.43 -44.99,0.66 -67.48,0.66 -68.89,0 -125.24,-76.41 -125.24,-169.79 0,-195.38 16.91,-365.63 16.91,-561.01 0,-191.97 -16.91,-409.05 -16.91,-601.01 0,-93.4 56.35,-169.8 125.24,-169.8z"/>
   <path fill="none" stroke="black" stroke-width="10.57" stroke-miterlimit="22.9256" d="M2678.5 4442.32l138.89 0c-16.05,16.62 -61.9,44.73 -58.29,49.55 -41.38,120.84 -53.5,244.82 -83.94,364.77 -21.34,0.46 -42.68,0.92 -64.03,1.38 4.95,-113.7 8.53,-214.24 13.47,-327.94 -1.32,-13.21 7.12,-35.35 18.36,-50.61l35.55 -37.15z"/>
   <path fill="none" stroke="black" stroke-width="10.57" stroke-miterlimit="22.9256" d="M2972.3 2490.14c23.69,27.73 25.97,0 42.51,83.22l139.38 833.11"/>
   <path fill="none" stroke="black" stroke-width="10.57" stroke-miterlimit="22.9256" d="M11556.93 2497.95c71.14,15.67 84.61,108.33 76.05,278.79 -7.37,146.79 2.07,1246.6 2.07,1330.82 0,208.88 -12.43,299.82 -74.92,317.07"/>
   <path fill="none" stroke="black" stroke-width="10.57" stroke-miterlimit="22.9256" d="M11435.89 4445.95l-138.89 0c16.06,16.62 61.9,44.74 58.3,49.55 41.38,120.85 53.5,244.82 83.94,364.77 21.34,0.47 42.68,0.92 64.03,1.38 -4.95,-113.69 -8.54,-214.23 -13.47,-327.94 1.32,-13.2 -7.12,-35.34 -18.36,-50.6l-35.56 -37.16z"/>
   <path fill="none" stroke="black" stroke-width="10.57" stroke-miterlimit="22.9256" d="M11075.55 2485.89c-23.7,27.72 -25.96,0 -42.51,83.22l-193.34 1146.07"/>
   <path fill="none" stroke="black" stroke-width="10.57" stroke-miterlimit="22.9256" d="M11110.93 2485.89c-23.7,27.72 -25.96,0 -42.51,83.22 -65.46,381.23 -136.13,760.99 -196.42,1143.7 -13.6,86.36 -49.43,223.11 97.27,302.22 29.94,16.14 64.94,45.52 71.57,74.08 11.38,49.02 -39.65,89.19 -177.93,15.97"/>
   <path fill="none" stroke="black" stroke-width="10.57" stroke-miterlimit="22.9256" d="M2936.93 2490.14c23.69,27.73 25.97,0 42.52,83.22l143.62 833.11"/>
   <path fill="none" stroke="black" stroke-width="10.57" stroke-miterlimit="22.9256" d="M5929.12 1876.23c361.92,0 683.53,19.98 1045.45,19.98 366.81,0 773.93,-19.98 1140.75,-19.98 66.8,0 121.46,72.74 121.46,161.66 0,153.51 -21.99,399.68 -21.99,553.17 0,215.29 21.99,337.9 21.99,553.18 0,88.92 -54.65,161.67 -121.46,161.67 -386.36,0 -772.72,-53.65 -1159.07,-53.65 -320.55,0 -641.12,47.03 -961.68,53.02 -21.82,0.41 -43.63,0.63 -65.45,0.63 -66.8,0 -121.46,-72.75 -121.46,-161.67 0,-186.01 16.4,-348.11 16.4,-534.14 0,-182.77 -16.4,-389.46 -16.4,-572.22 0,-88.92 54.65,-161.66 121.46,-161.66z"/>
   <path fill="none" stroke="black" stroke-width="10.57" stroke-miterlimit="22.9256" d="M3374.27 1837.72c374.11,0 706.54,20.99 1080.65,20.99 379.16,0 800,-20.99 1179.15,-20.99 69.05,0 125.55,76.41 125.55,169.8 0,161.22 -22.73,419.77 -22.73,581.01 0,226.12 22.73,354.89 22.73,581.02 0,93.39 -56.5,169.79 -125.55,169.79 -399.36,0 -798.73,-56.35 -1198.09,-56.35 -331.35,0 -662.71,49.4 -994.05,55.69 -22.55,0.43 -45.1,0.66 -67.65,0.66 -69.05,0 -125.55,-76.41 -125.55,-169.79 0,-195.38 16.96,-365.63 16.96,-561.01 0,-191.97 -16.96,-409.05 -16.96,-601.01 0,-93.4 56.5,-169.8 125.55,-169.8z"/>
   <path fill="none" stroke="black" stroke-width="10.57" stroke-miterlimit="22.9256" d="M3410.15 1875.25c362.83,0 685.25,19.97 1048.09,19.97 367.73,0 775.88,-19.97 1143.61,-19.97 66.97,0 121.77,72.69 121.77,161.56 0,153.4 -22.05,399.41 -22.05,552.81 0,215.14 22.05,337.67 22.05,552.82 0,88.86 -54.79,161.56 -121.77,161.56 -387.33,0 -774.65,-53.62 -1161.99,-53.62 -321.36,0 -642.73,47.01 -964.1,52.99 -21.88,0.4 -43.74,0.63 -65.62,0.63 -66.97,0 -121.77,-72.7 -121.77,-161.56 0,-185.9 16.44,-347.89 16.44,-533.79 0,-182.66 -16.44,-389.21 -16.44,-571.85 0,-88.87 54.79,-161.56 121.77,-161.56z"/>
   <path fill="none" stroke="black" stroke-width="10.57" stroke-miterlimit="22.9256" d="M8294.29 3443.14c20,-26.35 46.42,-72.47 79.68,-72.54 783.95,-1.73 1570.29,2.96 2353.29,-0.61 70.43,-0.32 107.64,-18.89 110.42,82.59"/>
   <path fill="none" stroke="black" stroke-width="10.57" stroke-miterlimit="22.9256" d="M2444.75 3406.48c1100.33,0 2168.9,0 3269.31,0 18.35,0 33.36,31.85 33.36,70.75l0 495.24c0,38.9 -15.01,70.74 -33.36,70.74l-3269.31 0c-18.35,0 -33.36,-31.84 -33.36,-70.74l0 -20.57 0 -474.68c0,-38.91 15.01,-70.75 33.36,-70.75z"/>
   <path fill="none" stroke="black" stroke-width="10.57" stroke-miterlimit="22.9256" d="M2464.08 3406.48c7.37,-146.79 1.79,-714.55 1.98,-801.46 0.2,-97.71 19.14,-118.91 84.15,-119.86 34.66,-0.49 210.11,-0.06 318.8,-0.05 27.9,0 183.48,0.59 257.59,0.84 22.35,0.07 81.59,6.27 81.59,29.08"/>
   <path fill="none" stroke="black" stroke-width="10.57" stroke-miterlimit="22.9256" d="M2411.4 3439.09c26.18,-26.35 60.78,-72.47 104.31,-72.54 1026.28,-1.73 2055.71,2.96 3080.76,-0.61 92.2,-0.32 140.91,-18.88 144.55,82.59"/>
   <path fill="none" stroke="black" stroke-width="10.57" stroke-miterlimit="22.9256" d="M5476.83 4444.26l-138.88 0c16.05,16.62 61.89,44.74 58.29,49.55 41.38,120.85 53.5,244.82 83.94,364.77 21.34,0.46 42.68,0.92 64.03,1.38 -4.95,-113.69 -8.54,-214.23 -13.47,-327.94 1.32,-13.2 -7.12,-35.34 -18.36,-50.6l-35.56 -37.16z"/>
   <path fill="none" stroke="black" stroke-width="10.57" stroke-miterlimit="22.9256" d="M5914.18 4440.96l138.89 0c-16.05,16.62 -61.9,44.73 -58.29,49.55 -41.39,120.84 -53.5,244.82 -83.94,364.77 -21.35,0.46 -42.68,0.92 -64.03,1.38 4.94,-113.7 8.53,-214.24 13.47,-327.94 -1.32,-13.21 7.12,-35.35 18.36,-50.6l35.55 -37.16z"/>
   <path fill="none" stroke="black" stroke-width="10.57" stroke-miterlimit="22.9256" d="M2459.94 4437.68l4237.78 1.35 4816.13 2.04c39.08,0.01 70.97,-32.02 71.06,-71.05l4.41 -1813.8c0.08,-39.05 -31.99,-71.05 -71.06,-71.05l-602.98 0c-39.02,0 -70.9,3.27 -71.04,42.35l-4.88 1298.12c7.76,54.71 2.46,140.12 49.38,173.7 85.33,61.07 132.84,70.87 110.1,111.75 -33.61,49.84 -203.55,-41.15 -250.34,-35.31 -355.48,5.26 -1300.16,-1.98 -1550.76,-1.98 -70.91,0 -1229.17,3.48 -2500.01,5.96 -67.13,-0.13 -453.87,-0.87 -951.54,-2.04 -0.91,0 0.17,-31.16 -0.86,-21.13 -2.01,19.52 -42.76,21.02 -49.51,21.02 -686.31,-1.42 -1481.09,-2.92 -1548.21,-2.35 -461.61,-0.6 -1527.23,2.52 -1704.46,-0.1 -14.03,-0.21 -33.23,-6.18 -33.14,-23.12"/>
   <path fill="none" stroke="black" stroke-width="10.57" stroke-miterlimit="22.9256" d="M5745.33 4018.71c0.13,110.69 -1.5,249.47 -1.37,360.18 2.18,39.62 -23.71,59.84 -58.05,59.82"/>
  </g>
  <g id="_2238482365952">
   <polyline fill="none" stroke="black" stroke-width="10.57" stroke-miterlimit="22.9256" stroke-dasharray="52.864103 52.864103" points="5752.25,11895.17 10839.09,11895.17 10845.14,9699.24 "/>
   <rect fill="none" stroke="black" stroke-width="10.57" stroke-miterlimit="22.9256" x="8283.61" y="7062.11" width="2557.25" height="2682.35" rx="21.07" ry="55.88"/>
   <path fill="none" stroke="black" stroke-width="10.57" stroke-miterlimit="22.9256" d="M10782.8 7582.34c-192.99,402.87 -2327.86,363.2 -2445.65,-4.22"/>
   <rect fill="none" stroke="black" stroke-width="10.57" stroke-miterlimit="22.9256" x="5755.27" y="7062.04" width="2528.34" height="2682.42" rx="20.83" ry="55.89"/>
   <path fill="none" stroke="black" stroke-width="10.57" stroke-miterlimit="22.9256" d="M3085.83 6286.27l-587.99 0c-40.43,0 -73.51,31.27 -73.51,69.51l0 3256.92c0,38.23 33.08,69.51 73.51,69.51l426.79 0c40.43,0 71.01,-31.34 73.5,-69.51l161.2 -2468.28 0 -788.63c0,-38.24 -33.07,-69.51 -73.5,-69.51z"/>
   <path fill="none" stroke="black" stroke-width="10.57" stroke-miterlimit="22.9256" d="M2467.51 6287.22c-63.8,9.01 -92.54,-22.65 -83.51,275.36 7.77,256.62 -6.43,2401.57 -6.43,2548.79 0,72.1 -1.81,303.56 -0.15,360.81 3.16,109.75 0.85,159.67 14.72,182.53 15.56,25.65 48.77,17.24 78.68,21.03"/>
   <path fill="none" stroke="black" stroke-width="10.57" stroke-miterlimit="22.9256" d="M3159.86 7142.2c0,1125.92 20.94,2206.71 0,2444.24 -3.16,35.96 -0.85,97.88 -30.41,97.87 -66.17,-0.03 -195.27,-3.13 -208.52,-2.1"/>
   <path fill="none" stroke="black" stroke-width="10.57" stroke-miterlimit="22.9256" d="M10866.14 6391.45c-25.49,-92.14 -475.65,-89.65 -1151.91,-81.08 -582.31,7.36 -4945.54,-2.07 -5279.62,-2.07 -828.67,0 -1238.93,-19.06 -1275.27,89.63"/>
   <path fill="none" stroke="black" stroke-width="10.57" stroke-miterlimit="22.9256" d="M10758.71 7062.1l-2393.55 1.73c-45.12,0.03 -52.1,52.2 -51.52,115.79l2.83 302.82c0.6,63.62 -15.39,93.86 29.7,96.76 799.94,63.37 1618.56,90.78 2436.63,3.14 45.09,-2.92 26.9,-36.23 26.14,-99.9l-3.58 -297.88c-0.76,-63.68 -1.56,-122.5 -46.65,-122.47z"/>
   <path fill="none" stroke="black" stroke-width="10.57" stroke-miterlimit="22.9256" d="M3043.97 6286.27c63.33,9.01 83.95,-17.6 79.87,283.43 -0.98,71.71 -6.6,331.98 -0.97,567.44 -56.46,771.36 -120.23,1865.79 -125.8,1971.97 -3.78,72.07 -20.96,328.11 -25.92,385.32 -18.54,213.75 -25.95,175.3 -84.13,187.78"/>
   <path fill="none" stroke="black" stroke-width="10.57" stroke-miterlimit="22.9256" d="M10938.68 6307.34l580.31 0c39.89,0 72.54,31.27 72.54,69.5l0 3256.93c0,38.23 -32.65,69.51 -72.54,69.51l-421.21 0c-39.89,0 -70.07,-31.35 -72.53,-69.51l-159.09 -2468.28 0 -788.64c0,-38.23 32.64,-69.5 72.53,-69.5z"/>
   <path fill="none" stroke="black" stroke-width="10.57" stroke-miterlimit="22.9256" d="M11548.92 6309.86c62.97,9.01 91.33,-22.65 82.41,275.36 -7.66,256.62 6.35,2401.57 6.35,2548.8 0,72.09 1.79,303.55 0.15,360.81 -3.12,109.74 -0.84,159.66 -14.52,182.53 -15.36,25.64 -48.14,17.23 -77.66,21.03"/>
   <path fill="none" stroke="black" stroke-width="10.57" stroke-miterlimit="22.9256" d="M10856.25 9703.62c73.49,2.87 224.79,-1.85 245.17,-0.35"/>
   <path fill="none" stroke="black" stroke-width="10.57" stroke-miterlimit="22.9256" d="M10980 6307.34c-62.51,9 -82.85,-17.6 -78.83,283.43 0.97,71.71 6.52,331.98 0.96,567.44 55.72,771.35 118.66,1865.79 124.16,1971.96 3.73,72.08 20.69,328.11 25.58,385.33 18.3,213.75 25.62,175.3 83.04,187.78"/>
   <path fill="none" stroke="black" stroke-width="10.57" stroke-miterlimit="22.9256" d="M10814.18 7546.61c-663.48,81.92 -1849.86,63.66 -2498.27,-8.91"/>
   <path fill="none" stroke="black" stroke-width="10.57" stroke-miterlimit="22.9256" d="M8233.72 7579.08c-191.32,402.88 -2307.6,363.2 -2424.37,-4.22"/>
   <path fill="none" stroke="black" stroke-width="10.57" stroke-miterlimit="22.9256" d="M8209.85 7058.86l-2372.73 1.73c-44.72,0.03 -51.65,52.2 -51.07,115.79l2.81 302.81c0.59,63.62 -15.26,93.86 29.43,96.76 792.98,63.37 1604.48,90.79 2415.43,3.14 44.69,-2.91 26.66,-36.22 25.91,-99.9l-3.55 -297.87c-0.75,-63.68 -1.54,-122.5 -46.24,-122.47z"/>
   <path fill="none" stroke="black" stroke-width="10.57" stroke-miterlimit="22.9256" d="M8264.82 7543.35c-657.69,81.92 -1833.76,63.66 -2476.53,-8.9"/>
   <path fill="none" stroke="black" stroke-width="10.57" stroke-miterlimit="22.9256" d="M5688.53 7585.45c-193,402.88 -2327.86,363.2 -2445.65,-4.22"/>
   <path fill="none" stroke="black" stroke-width="10.57" stroke-miterlimit="22.9256" d="M5664.44 7065.21l-2393.55 1.74c-45.12,0.02 -52.1,52.2 -51.52,115.78l2.83 302.82c0.59,63.62 -15.39,93.86 29.69,96.76 799.95,63.37 1618.57,90.79 2436.64,3.14 45.09,-2.91 26.9,-36.23 26.14,-99.9l-3.58 -297.87c-0.76,-63.68 -1.56,-122.5 -46.65,-122.48z"/>
   <path fill="none" stroke="black" stroke-width="10.57" stroke-miterlimit="22.9256" d="M5719.91 7549.71c-663.48,81.92 -1849.86,63.66 -2498.27,-8.9"/>
   <path fill="none" stroke="black" stroke-width="10.57" stroke-miterlimit="22.9256" d="M10797.5 7581.31l0 2072.05c0,30.21 -17.86,55.09 -39.51,55.09l-2392.83 0c-21.66,0 -39.5,-24.79 -39.5,-55.09l0 -2085"/>
   <path fill="none" stroke="black" stroke-width="10.57" stroke-miterlimit="22.9256" d="M8246.19 7573.07l0 2072.05c0,30.21 -17.71,55.09 -39.14,55.09l-2370 0c-21.43,0 -39.12,-24.79 -39.12,-55.09l-0.82 -2079.29"/>
   <path fill="none" stroke="black" stroke-width="10.57" stroke-miterlimit="22.9256" d="M5710.64 7573.98l-5.95 4638.18c-0.02,30.18 -23.76,55.1 -52.48,55.1l-3177.85 0c-28.7,0 -52.34,-24.81 -52.46,-55.1 -3.08,-818.32 -6.21,-1636.67 -9.3,-2454.99 2.88,-34.9 15.74,-81.93 58.24,-79.86"/>
   <path fill="none" stroke="black" stroke-width="10.57" stroke-miterlimit="22.9256" d="M5657.68 7058.15c78.93,-6.19 95.12,31.52 95.13,66.89l1.42 5126.34c0.02,35.4 -31.79,64.57 -70.35,64.57l-3236.36 0c-38.57,0 -70.24,-29.04 -70.35,-64.57l-7.96 -2502.18c-0.11,-35.52 31.64,-75.59 70.35,-75.59"/>
  </g>
 </g>
 <g id="Шрифт">
  <metadata id="CorelCorpID_2Corel-Layer"/>
  <path fill="#666666" fill-rule="nonzero" fill-opacity="0.800000" d="M13534.33 6500.95l0 12.25c16.71,7.8 30.18,20.06 40.39,36.78 10.21,16.71 15.32,35.1 15.32,55.15 0,33.43 -11.51,60.44 -34.55,81.05 -23.02,20.62 -56.45,30.92 -100.27,30.92l-177.72 0 0 -397.77 173.26 0c40.48,0 71.77,9.56 93.87,28.69 22.1,19.13 33.15,43.17 33.15,72.14 0,38.25 -14.48,65.19 -43.45,80.79zm-206.69 -137.05l0 124.24 122.01 0c51.62,0 77.44,-21.18 77.44,-63.52 0,-20.8 -7.42,-36.12 -22.28,-45.96 -14.85,-9.84 -33.61,-14.76 -56.26,-14.76l-120.9 0zm0 308.63l124.24 0c25.63,0 46.61,-5.48 62.96,-16.43 16.34,-10.96 24.51,-29.25 24.51,-54.88 0,-24.13 -8.08,-41.68 -24.23,-52.64 -16.16,-10.95 -37.05,-16.43 -62.68,-16.43l-124.8 0 0 140.38zm335.37 -236.21l47.36 0 0 93.6 77.44 0c33.8,0 59.89,8.16 78.27,24.51 18.39,16.34 27.58,39.18 27.58,68.52 0,29.71 -9.19,52.82 -27.58,69.35 -18.38,16.53 -44.47,24.79 -78.27,24.79l-124.8 0 0 -280.78zm47.36 133.71l0 105.85 70.75 0c23.39,0 40.11,-4.46 50.14,-13.37 10.03,-8.91 15.04,-22.1 15.04,-39.55 0,-17.46 -5.01,-30.65 -15.04,-39.56 -10.02,-8.9 -26.74,-13.36 -50.14,-13.36l-70.75 0zm228.41 -133.71l47.35 0 0 280.78 -47.35 0 0 -280.78zm328.69 196.1l47.36 0c-5.57,28.23 -18.67,50.61 -39.27,67.13 -20.62,16.53 -46.89,24.79 -78.84,24.79 -42.33,0 -75.67,-13.84 -99.99,-41.51 -24.33,-27.66 -36.5,-63.04 -36.5,-106.12 0,-43.46 12.07,-78.93 36.22,-106.41 24.14,-27.49 57.56,-41.23 100.27,-41.23 32.32,0 58.59,8.08 78.84,24.23 20.24,16.16 32.78,37.6 37.6,64.35l-47.36 0c-10.02,-31.57 -33.06,-47.35 -69.08,-47.35 -30.08,0 -52.45,9.93 -67.12,29.8 -14.67,19.87 -22.01,45.03 -22.01,75.49 0,30.83 7.42,56.45 22.28,76.88 14.85,20.43 37.13,30.64 66.84,30.64 39.37,0 62.96,-16.9 70.75,-50.7zm137.89 -161.56c24.7,-27.85 58.41,-41.78 101.12,-41.78 42.71,0 76.41,13.93 101.11,41.78 24.69,27.86 37.04,63.14 37.04,105.86 0,42.71 -12.35,77.99 -37.04,105.85 -24.7,27.85 -58.4,41.78 -101.11,41.78 -42.71,0 -76.42,-13.93 -101.12,-41.78 -24.69,-27.86 -37.04,-63.14 -37.04,-105.85 0,-42.72 12.35,-78 37.04,-105.86zm33.71 181.34c15.6,20.62 38.07,30.92 67.41,30.92 29.34,0 51.8,-10.3 67.4,-30.92 15.6,-20.61 23.4,-45.77 23.4,-75.48 0,-29.72 -7.8,-54.88 -23.4,-75.49 -15.6,-20.62 -38.06,-30.92 -67.4,-30.92 -29.34,0 -51.81,10.3 -67.41,30.92 -15.6,20.61 -23.39,45.77 -23.39,75.49 0,29.71 7.79,54.87 23.39,75.48zm245.12 -174.65l0 -41.22 241.79 0 0 41.22 -96.93 0 0 239.56 -47.36 0 0 -239.56 -97.49 0zm483.01 239.56l0 -29.53 -12.25 0c-19.32,24.51 -48.47,36.78 -87.46,36.78 -30.83,0 -55.34,-8.91 -73.54,-26.74 -18.2,-17.83 -27.3,-39.37 -27.3,-64.63 0,-25.62 8.91,-47.54 26.74,-65.74 17.83,-18.2 44.75,-27.3 80.79,-27.3l91.36 0 0 -11.14c0,-17.83 -5.57,-32.03 -16.71,-42.62 -11.14,-10.58 -28.41,-15.87 -51.81,-15.87 -40.85,0 -62.58,13.55 -65.18,40.66l-47.36 0c1.86,-25.62 12.91,-45.68 33.15,-60.17 20.25,-14.48 46.33,-21.73 78.28,-21.73 36.03,0 64.35,8.36 84.95,25.07 20.62,16.71 30.92,40.67 30.92,71.86l0 191.09 -44.57 0zm-88.02 -33.99c23.4,0 43.64,-7.7 60.73,-23.11 17.08,-15.42 25.62,-34.27 25.62,-56.55l0 -25.62 -84.12 0c-44.94,0 -67.4,17.83 -67.4,53.48 0,15.97 5.67,28.6 16.99,37.88 11.33,9.28 27.39,13.92 48.19,13.92zm-1616.72 557.71l47.36 0c-5.57,28.23 -18.67,50.61 -39.27,67.13 -20.62,16.53 -46.89,24.79 -78.84,24.79 -42.33,0 -75.67,-13.84 -99.99,-41.51 -24.33,-27.66 -36.5,-63.04 -36.5,-106.12 0,-43.46 12.07,-78.93 36.22,-106.41 24.14,-27.49 57.56,-41.23 100.27,-41.23 32.32,0 58.59,8.08 78.84,24.23 20.24,16.16 32.78,37.6 37.6,64.35l-47.36 0c-10.02,-31.57 -33.06,-47.35 -69.08,-47.35 -30.08,0 -52.45,9.93 -67.12,29.8 -14.67,19.87 -22.01,45.03 -22.01,75.49 0,30.83 7.42,56.45 22.28,76.88 14.85,20.43 37.13,30.64 66.84,30.64 39.37,0 62.96,-16.9 70.75,-50.7zm184.96 84.68l-66.85 0 0 -280.78 46.24 0 0 217.27 12.26 0 123.12 -217.27 69.08 0 0 280.78 -46.24 0 0 -217.27 -12.26 0 -125.34 217.27zm525.34 -41.22l51.81 0 0 120.89 -46.24 0 0 -79.67 -242.9 0 0 79.67 -46.25 0 0 -120.89 37.33 0c23.02,-49.03 34.54,-103.25 34.54,-162.68l0 -76.88 211.7 0 0 239.56zm-47.35 0l0 -198.34 -120.34 0 0 35.66c0,63.52 -10.21,117.74 -30.64,162.68l150.98 0zm403.9 -115.88l0 16.16 -213.92 0c0.74,33.8 8.72,60.07 23.95,78.83 15.23,18.76 37.14,28.13 65.74,28.13 38.63,0 62.4,-14.48 71.31,-43.45l47.91 0c-4.83,25.25 -17.55,45.68 -38.15,61.28 -20.62,15.6 -47.64,23.4 -81.06,23.4 -42.71,0 -76.13,-13.93 -100.27,-41.78 -24.14,-27.86 -36.22,-64.07 -36.22,-108.64 0,-43.83 12.07,-78.93 36.22,-105.3 24.14,-26.36 57.19,-39.55 99.16,-39.55 39.74,0 70.38,12.54 91.92,37.6 21.55,25.07 32.69,56.18 33.43,93.32zm-126.46 -89.69c-24.13,0 -43.45,6.22 -57.93,18.66 -14.49,12.44 -23.4,28.32 -26.74,47.64l162.11 0c-1.48,-18.95 -9.09,-34.73 -22.83,-47.36 -13.74,-12.63 -31.94,-18.94 -54.6,-18.94zm450.14 246.79l-47.35 0 0 -123.68 -155.43 0 0 123.68 -47.36 0 0 -280.78 47.36 0 0 115.88 155.43 0 0 -115.88 47.35 0 0 280.78zm485.8 -280.78l139.84 0 0 280.78 -47.91 0 0 -110.86 -85.24 0c-7.42,0 -13.18,-0.18 -17.27,-0.56l-42.34 111.42 -49.58 0 47.35 -122.01c-28.97,-13.74 -43.45,-38.25 -43.45,-73.54 0,-27.11 8.44,-48.09 25.34,-62.95 16.9,-14.86 41.32,-22.28 73.26,-22.28zm91.93 40.11l-86.91 0c-20.43,0 -34.92,3.9 -43.45,11.7 -8.54,7.79 -12.82,19.13 -12.82,33.98 0,14.49 4.28,25.44 12.82,32.87 8.53,7.43 23.02,11.14 43.45,11.14l86.91 0 0 -89.69zm-1445.14 849.07l-57.93 0 0 -64.63 57.93 0 0 64.63zm96.94 -347.07c25.99,-33.8 60.72,-50.7 104.17,-50.7 43.46,0 78.28,16.99 104.46,50.98 26.18,33.98 39.27,84.58 39.27,151.81 0,67.22 -13.09,117.74 -39.27,151.54 -26.18,33.8 -61,50.7 -104.46,50.7 -43.45,0 -78.18,-16.9 -104.17,-50.7 -26,-33.8 -39,-84.31 -39,-151.54 0,-67.59 13,-118.29 39,-152.09zm33.42 268.8c15.6,28.04 39.18,42.06 70.75,42.06 31.57,0 55.25,-14.02 71.03,-42.06 15.79,-28.04 23.68,-66.94 23.68,-116.71 0,-50.14 -7.89,-89.23 -23.68,-117.27 -15.78,-28.04 -39.46,-42.06 -71.03,-42.06 -31.57,0 -55.15,14.02 -70.75,42.06 -15.6,28.04 -23.39,67.13 -23.39,117.27 0,49.77 7.79,88.67 23.39,116.71zm635.66 -6.41l47.36 0c-5.57,28.23 -18.67,50.61 -39.27,67.13 -20.62,16.53 -46.89,24.79 -78.84,24.79 -42.33,0 -75.67,-13.84 -99.99,-41.51 -24.33,-27.66 -36.5,-63.04 -36.5,-106.12 0,-43.46 12.07,-78.93 36.22,-106.41 24.14,-27.49 57.56,-41.23 100.27,-41.23 32.32,0 58.59,8.08 78.84,24.23 20.24,16.16 32.78,37.6 37.6,64.35l-47.36 0c-10.02,-31.57 -33.06,-47.35 -69.08,-47.35 -30.08,0 -52.45,9.93 -67.12,29.8 -14.67,19.87 -22.01,45.03 -22.01,75.49 0,30.83 7.42,56.45 22.28,76.88 14.85,20.43 37.13,30.64 66.84,30.64 39.37,0 62.96,-16.9 70.75,-50.7zm118.11 84.68l0 -280.78 75.21 0 69.08 128.13 12.26 0 69.07 -128.13 74.1 0 0 280.78 -46.24 0 0 -225.63 -12.26 0 -65.18 120.34 -52.37 0 -65.18 -120.34 -12.26 0 0 225.63 -46.24 0zm122.01 -889.19l0 93.6 83 0c33.8,0 59.89,8.16 78.28,24.51 18.39,16.34 27.57,39.18 27.57,68.52 0,29.71 -9.18,52.82 -27.57,69.35 -18.39,16.53 -44.48,24.79 -78.28,24.79l-130.36 0 0 -280.78 47.36 0zm0 239.56l76.32 0c23.4,0 40.11,-4.46 50.15,-13.37 10.02,-8.91 15.04,-22.1 15.04,-39.55 0,-17.46 -5.02,-30.65 -15.04,-39.56 -10.03,-8.9 -26.74,-13.36 -50.15,-13.36l-76.32 0 0 105.85zm632.87 41.22l-57.93 0 0 -64.63 57.93 0 0 64.63zm0 -216.15l-57.93 0 0 -64.63 57.93 0 0 64.63zm-2135.39 689.74l53.48 0 0 43.45 -53.48 0 0 91.37 -47.91 0 0 -91.37 -192.76 0 0 -55.7 172.14 -242.91 68.52 0 0 255.16zm-189.41 0l142.06 0 0 -200 -12.26 0 -129.8 187.75 0 12.25zm311.98 -255.16l227.86 0 0 54.6 -97.49 83.56 0 11.7c34.55,0.74 62.49,11.51 83.84,32.31 21.36,20.8 32.04,49.59 32.04,86.35 0,39.74 -12.81,71.12 -38.44,94.15 -25.62,23.03 -58.68,34.55 -99.16,34.55 -38.99,0 -70.94,-10.96 -95.82,-32.87 -24.88,-21.92 -38.43,-49.78 -40.66,-83.57l49.03 0c2.23,21.92 11.41,39.55 27.57,52.92 16.16,13.37 36.12,20.06 59.89,20.06 27.11,0 48.66,-7.61 64.63,-22.83 15.97,-15.23 23.95,-36.03 23.95,-62.4 0,-26 -7.61,-46.33 -22.84,-61 -15.23,-14.68 -36.95,-22.02 -65.18,-22.02 -13.74,0 -25.07,1.12 -33.99,3.35l0 -51.81 95.27 -82.44 0 -12.26 -170.47 0 0 -42.34z"/>
  <path fill="#666666" fill-rule="nonzero" fill-opacity="0.800000" d="M5526.67 13506.64l-49.02 0c2.23,-37.51 15.32,-66.12 39.27,-85.79 23.95,-19.69 54.13,-29.53 90.53,-29.53 37.88,0 68.43,10.3 91.64,30.92 23.21,20.62 34.83,49.86 34.83,87.74 0,46.06 -28.79,93.04 -86.35,140.94l-98.05 82.45 0 12.26 196.66 0 0 43.45 -267.97 0 0 -55.15 57.38 -46.8c35.66,-28.6 65.19,-53.66 88.58,-75.21 8.91,-7.79 16.07,-14.48 21.46,-20.06 5.39,-5.57 11.51,-12.9 18.38,-22.01 6.88,-9.09 12.07,-18.66 15.6,-28.69 3.53,-10.02 5.3,-20.43 5.3,-31.2 0,-24.13 -7.06,-42.71 -21.18,-55.71 -14.11,-12.99 -33.24,-19.5 -57.38,-19.5 -22.65,0 -40.94,6.04 -54.87,18.11 -13.92,12.07 -22.18,29.99 -24.79,53.76zm983.28 282.45l-57.93 0 0 -64.63 57.93 0 0 64.63zm96.94 -347.07c25.99,-33.8 60.72,-50.7 104.17,-50.7 43.46,0 78.28,16.99 104.46,50.98 26.18,33.98 39.27,84.58 39.27,151.81 0,67.22 -13.09,117.74 -39.27,151.54 -26.18,33.8 -61,50.7 -104.46,50.7 -43.45,0 -78.18,-16.9 -104.17,-50.7 -26,-33.8 -39,-84.31 -39,-151.54 0,-67.59 13,-118.29 39,-152.09zm33.42 268.8c15.6,28.04 39.18,42.06 70.75,42.06 31.57,0 55.25,-14.02 71.03,-42.06 15.79,-28.04 23.68,-66.94 23.68,-116.71 0,-50.14 -7.89,-89.23 -23.68,-117.27 -15.78,-28.04 -39.46,-42.06 -71.03,-42.06 -31.57,0 -55.15,14.02 -70.75,42.06 -15.6,28.04 -23.39,67.13 -23.39,117.27 0,49.77 7.79,88.67 23.39,116.71zm635.66 -6.41l47.36 0c-5.57,28.23 -18.67,50.61 -39.27,67.13 -20.62,16.53 -46.89,24.79 -78.84,24.79 -42.33,0 -75.67,-13.84 -99.99,-41.51 -24.33,-27.66 -36.5,-63.04 -36.5,-106.12 0,-43.46 12.07,-78.93 36.22,-106.41 24.14,-27.49 57.56,-41.23 100.27,-41.23 32.32,0 58.59,8.08 78.84,24.23 20.24,16.16 32.78,37.6 37.6,64.35l-47.36 0c-10.02,-31.57 -33.06,-47.35 -69.08,-47.35 -30.08,0 -52.45,9.93 -67.12,29.8 -14.67,19.87 -22.01,45.03 -22.01,75.49 0,30.83 7.42,56.45 22.28,76.88 14.85,20.43 37.13,30.64 66.84,30.64 39.37,0 62.96,-16.9 70.75,-50.7zm118.11 84.68l0 -280.78 75.21 0 69.08 128.13 12.26 0 69.07 -128.13 74.1 0 0 280.78 -46.24 0 0 -225.63 -12.26 0 -65.18 120.34 -52.37 0 -65.18 -120.34 -12.26 0 0 225.63 -46.24 0zm-1445.13 -262.39c37.88,0 68.24,12.44 91.09,37.32 22.84,24.88 34.26,55.89 34.26,93.04 0,41.96 -12.34,75.67 -37.04,101.11 -24.69,25.44 -56.91,38.16 -96.65,38.16 -41.22,0 -73.63,-10.77 -97.21,-32.32 -23.58,-21.54 -36.5,-49.58 -38.72,-84.12l48.47 0c2.98,23.77 11.89,41.88 26.74,54.32 14.86,12.44 34.36,18.66 58.5,18.66 25.99,0 46.98,-8.44 62.95,-25.34 15.98,-16.9 23.96,-39.65 23.96,-68.24 0,-27.11 -7.71,-49.12 -23.12,-66.02 -15.41,-16.9 -36.12,-25.35 -62.12,-25.35 -34.91,0 -60.72,12.25 -77.44,36.77l-49.03 0 17.28 -205.57 222.84 0 0 42.34 -183.29 0 -8.91 112.53 12.25 0c20.06,-18.2 45.13,-27.29 75.21,-27.29zm430.64 -72.98l-168.8 335.37 -51.26 0 169.35 -335.37 0 -12.26 -197.77 0 0 -42.34 248.46 0 0 54.6z"/>
  <path fill="#666666" fill-rule="nonzero" fill-opacity="0.800000" d="M1182.85 4023.85l12.25 0c5.21,-15.23 16.07,-29.15 32.59,-41.78 16.53,-12.63 36.69,-18.94 60.45,-18.94 32.69,0 59.8,12.9 81.33,38.71 21.55,25.81 32.32,59.89 32.32,102.23 0,42.34 -10.77,76.42 -32.32,102.23 -21.54,25.81 -48.65,38.71 -81.33,38.71 -23.39,0 -43.45,-6.32 -60.17,-18.94 -16.71,-12.63 -27.66,-26.56 -32.87,-41.78l-12.25 0c-5.21,12.25 -15.04,23.48 -29.53,33.7 -14.48,10.21 -31.94,15.32 -52.36,15.32 -30.83,0 -55.9,-12.06 -75.21,-36.21 -19.32,-24.14 -28.97,-55.15 -28.97,-93.04 0,-37.88 9.65,-68.89 28.97,-93.04 19.31,-24.14 44.38,-36.22 75.21,-36.22 19.69,0 36.95,5.21 51.8,15.6 14.86,10.4 24.88,21.55 30.09,33.43zm-126.74 22.01c-11.32,15.42 -16.99,34.82 -16.99,58.22 0,23.39 5.67,42.8 16.99,58.22 11.33,15.41 27.02,23.11 47.08,23.11 20.06,0 35.84,-7.7 47.35,-23.11 11.52,-15.42 17.28,-34.83 17.28,-58.22 0,-23.4 -5.76,-42.8 -17.28,-58.22 -11.51,-15.41 -27.29,-23.11 -47.35,-23.11 -20.06,0 -35.75,7.7 -47.08,23.11zm281.9 125.9c13.55,-16.53 20.33,-39.08 20.33,-67.68 0,-28.6 -6.78,-51.17 -20.33,-67.69 -13.56,-16.52 -31.67,-24.78 -54.32,-24.78 -23.02,0 -41.04,8.16 -54.03,24.51 -13,16.34 -19.51,38.99 -19.51,67.96 0,28.97 6.51,51.62 19.51,67.96 12.99,16.34 31.01,24.51 54.03,24.51 22.65,0 40.76,-8.26 54.32,-24.79zm-28.14 -1435.38l0 -47.36c28.23,5.57 50.61,18.67 67.13,39.27 16.53,20.62 24.79,46.89 24.79,78.84 0,42.33 -13.84,75.67 -41.51,99.99 -27.66,24.33 -63.04,36.5 -106.12,36.5 -43.46,0 -78.93,-12.07 -106.41,-36.22 -27.49,-24.14 -41.23,-57.56 -41.23,-100.27 0,-32.32 8.08,-58.59 24.23,-78.84 16.16,-20.24 37.6,-32.78 64.35,-37.6l0 47.36c-31.57,10.02 -47.35,33.06 -47.35,69.08 0,30.08 9.93,52.45 29.8,67.12 19.87,14.67 45.03,22.01 75.49,22.01 30.83,0 56.45,-7.42 76.88,-22.28 20.43,-14.85 30.64,-37.13 30.64,-66.84 0,-39.37 -16.9,-62.96 -50.7,-70.75zm84.68 -118.11l-280.78 0 0 -75.21 128.13 -69.08 0 -12.26 -128.13 -69.07 0 -74.1 280.78 0 0 46.24 -225.63 0 0 12.26 120.34 65.18 0 52.37 -120.34 65.18 0 12.26 225.63 0 0 46.24zm-254.04 1133.71c0,-35.66 11.97,-65.37 35.94,-89.14 23.95,-23.76 54.31,-35.65 91.08,-35.65 38.25,0 70.2,11.97 95.82,35.93 25.63,23.96 38.44,56.18 38.44,96.66 0,44.19 -15.23,79.11 -45.69,104.73 -30.45,25.63 -79.11,38.44 -145.96,38.44 -62.77,0 -114.01,-12.53 -153.76,-37.6 -39.74,-25.07 -59.61,-61.93 -59.61,-110.58 0,-32.31 8.63,-58.78 25.9,-79.39 17.27,-20.62 39.65,-33.15 67.13,-37.6l0 48.47c-33.06,9.65 -49.59,32.5 -49.59,68.52 0,30.83 12.26,54.96 36.78,72.42 24.51,17.46 58.31,26.93 101.39,28.41l0 -12.25c-10.03,-8.17 -18.85,-20.15 -26.46,-35.94 -7.61,-15.78 -11.42,-34.26 -11.42,-55.43zm193.87 69.64c15.97,-16.35 23.95,-36.78 23.95,-61.29 0,-24.51 -7.79,-44.66 -23.39,-60.44 -15.6,-15.79 -37.32,-23.68 -65.19,-23.68 -27.85,0 -49.21,7.98 -64.07,23.96 -14.85,15.97 -22.27,36.4 -22.27,61.28 0,24.51 7.6,44.75 22.83,60.72 15.23,15.98 36.22,23.96 62.96,23.96 27.48,0 49.21,-8.17 65.18,-24.51zm60.17 -319.22l0 57.93 -64.63 0 0 -57.93 64.63 0zm-347.07 -96.94c-33.8,-25.99 -50.7,-60.72 -50.7,-104.17 0,-43.46 16.99,-78.28 50.98,-104.46 33.98,-26.18 84.58,-39.27 151.81,-39.27 67.22,0 117.74,13.09 151.54,39.27 33.8,26.18 50.7,61 50.7,104.46 0,43.45 -16.9,78.18 -50.7,104.17 -33.8,26 -84.31,39 -151.54,39 -67.59,0 -118.29,-13 -152.09,-39zm268.8 -33.42c28.04,-15.6 42.06,-39.18 42.06,-70.75 0,-31.57 -14.02,-55.25 -42.06,-71.03 -28.04,-15.79 -66.94,-23.68 -116.71,-23.68 -50.14,0 -89.23,7.89 -117.27,23.68 -28.04,15.78 -42.06,39.46 -42.06,71.03 0,31.57 14.02,55.15 42.06,70.75 28.04,15.6 67.13,23.39 117.27,23.39 49.77,0 88.67,-7.79 116.71,-23.39z"/>
  <path fill="#666666" fill-rule="nonzero" fill-opacity="0.800000" d="M1394.54 10410.36l-43.45 0 0 -92.48 -295.27 0 0 11.14 55.15 81.89 -51.26 0 -55.15 -81.34 0 -60.72 346.52 0 0 -85.24 43.45 0 0 226.75zm-335.37 -523.67l335.37 168.8 0 51.26 -335.37 -169.35 -12.26 0 0 197.77 -42.34 0 0 -248.46 54.6 0zm123.68 -279.67l12.25 0c5.21,-15.23 16.07,-29.15 32.59,-41.78 16.53,-12.63 36.69,-18.94 60.45,-18.94 32.69,0 59.8,12.9 81.33,38.71 21.55,25.81 32.32,59.89 32.32,102.23 0,42.34 -10.77,76.42 -32.32,102.23 -21.54,25.81 -48.65,38.71 -81.33,38.71 -23.39,0 -43.45,-6.32 -60.17,-18.94 -16.71,-12.63 -27.66,-26.56 -32.87,-41.78l-12.25 0c-5.21,12.25 -15.04,23.48 -29.53,33.7 -14.48,10.21 -31.94,15.32 -52.36,15.32 -30.83,0 -55.9,-12.06 -75.21,-36.21 -19.32,-24.14 -28.97,-55.15 -28.97,-93.04 0,-37.88 9.65,-68.89 28.97,-93.04 19.31,-24.14 44.38,-36.22 75.21,-36.22 19.69,0 36.95,5.21 51.8,15.6 14.86,10.4 24.88,21.55 30.09,33.43zm-126.74 22.01c-11.32,15.42 -16.99,34.82 -16.99,58.22 0,23.39 5.67,42.8 16.99,58.22 11.33,15.41 27.02,23.11 47.08,23.11 20.06,0 35.84,-7.7 47.35,-23.11 11.52,-15.42 17.28,-34.83 17.28,-58.22 0,-23.4 -5.76,-42.8 -17.28,-58.22 -11.51,-15.41 -27.29,-23.11 -47.35,-23.11 -20.06,0 -35.75,7.7 -47.08,23.11zm281.9 125.9c13.55,-16.53 20.33,-39.08 20.33,-67.68 0,-28.6 -6.78,-51.17 -20.33,-67.69 -13.56,-16.52 -31.67,-24.78 -54.32,-24.78 -23.02,0 -41.04,8.16 -54.03,24.51 -13,16.34 -19.51,38.99 -19.51,67.96 0,28.97 6.51,51.62 19.51,67.96 12.99,16.34 31.01,24.51 54.03,24.51 22.65,0 40.76,-8.26 54.32,-24.79zm56.54 -338.99l0 57.93 -64.63 0 0 -57.93 64.63 0zm-347.07 -96.94c-33.8,-25.99 -50.7,-60.72 -50.7,-104.17 0,-43.46 16.99,-78.28 50.98,-104.46 33.98,-26.18 84.58,-39.27 151.81,-39.27 67.22,0 117.74,13.09 151.54,39.27 33.8,26.18 50.7,61 50.7,104.46 0,43.45 -16.9,78.18 -50.7,104.17 -33.8,26 -84.31,39 -151.54,39 -67.59,0 -118.29,-13 -152.09,-39zm268.8 -33.42c28.04,-15.6 42.06,-39.18 42.06,-70.75 0,-31.57 -14.02,-55.25 -42.06,-71.03 -28.04,-15.79 -66.94,-23.68 -116.71,-23.68 -50.14,0 -89.23,7.89 -117.27,23.68 -28.04,15.78 -42.06,39.46 -42.06,71.03 0,31.57 14.02,55.15 42.06,70.75 28.04,15.6 67.13,23.39 117.27,23.39 49.77,0 88.67,-7.79 116.71,-23.39zm-6.41 -635.66l0 -47.36c28.23,5.57 50.61,18.67 67.13,39.27 16.53,20.62 24.79,46.89 24.79,78.84 0,42.33 -13.84,75.67 -41.51,99.99 -27.66,24.33 -63.04,36.5 -106.12,36.5 -43.46,0 -78.93,-12.07 -106.41,-36.22 -27.49,-24.14 -41.23,-57.56 -41.23,-100.27 0,-32.32 8.08,-58.59 24.23,-78.84 16.16,-20.24 37.6,-32.78 64.35,-37.6l0 47.36c-31.57,10.02 -47.35,33.06 -47.35,69.08 0,30.08 9.93,52.45 29.8,67.12 19.87,14.67 45.03,22.01 75.49,22.01 30.83,0 56.45,-7.42 76.88,-22.28 20.43,-14.85 30.64,-37.13 30.64,-66.84 0,-39.37 -16.9,-62.96 -50.7,-70.75zm84.68 -118.11l-280.78 0 0 -75.21 128.13 -69.08 0 -12.26 -128.13 -69.07 0 -74.1 280.78 0 0 46.24 -225.63 0 0 12.26 120.34 65.18 0 52.37 -120.34 65.18 0 12.26 225.63 0 0 46.24z"/>
  <path fill="#666666" fill-rule="nonzero" fill-opacity="0.800000" d="M6221.55 10701.38l-49.02 0c2.23,-37.51 15.32,-66.12 39.27,-85.79 23.95,-19.69 54.13,-29.53 90.53,-29.53 37.88,0 68.43,10.3 91.64,30.92 23.21,20.62 34.83,49.86 34.83,87.74 0,46.06 -28.79,93.04 -86.35,140.94l-98.05 82.45 0 12.26 196.66 0 0 43.45 -267.97 0 0 -55.15 57.38 -46.8c35.66,-28.6 65.19,-53.66 88.58,-75.21 8.91,-7.79 16.07,-14.48 21.46,-20.06 5.39,-5.57 11.51,-12.9 18.38,-22.01 6.88,-9.09 12.07,-18.66 15.6,-28.69 3.53,-10.02 5.3,-20.43 5.3,-31.2 0,-24.13 -7.06,-42.71 -21.18,-55.71 -14.11,-12.99 -33.24,-19.5 -57.38,-19.5 -22.65,0 -40.94,6.04 -54.87,18.11 -13.92,12.07 -22.18,29.99 -24.79,53.76zm278.55 282.45l0 -43.45 92.48 0 0 -295.27 -11.14 0 -81.89 55.15 0 -51.26 81.34 -55.15 60.72 0 0 346.52 85.24 0 0 43.45 -226.75 0zm510.3 -134.82l53.48 0 0 43.45 -53.48 0 0 91.37 -47.91 0 0 -91.37 -192.76 0 0 -55.7 172.14 -242.91 68.52 0 0 255.16zm-189.41 0l142.06 0 0 -200 -12.26 0 -129.8 187.75 0 12.25zm360.99 134.82l-57.93 0 0 -64.63 57.93 0 0 64.63zm1690.26 -347.07c25.99,-33.8 60.72,-50.7 104.17,-50.7 43.46,0 78.28,16.99 104.46,50.98 26.18,33.98 39.27,84.58 39.27,151.81 0,67.22 -13.09,117.74 -39.27,151.54 -26.18,33.8 -61,50.7 -104.46,50.7 -43.45,0 -78.18,-16.9 -104.17,-50.7 -26,-33.8 -39,-84.31 -39,-151.54 0,-67.59 13,-118.29 39,-152.09zm33.42 268.8c15.6,28.04 39.18,42.06 70.75,42.06 31.57,0 55.25,-14.02 71.03,-42.06 15.79,-28.04 23.68,-66.94 23.68,-116.71 0,-50.14 -7.89,-89.23 -23.68,-117.27 -15.78,-28.04 -39.46,-42.06 -71.03,-42.06 -31.57,0 -55.15,14.02 -70.75,42.06 -15.6,28.04 -23.39,67.13 -23.39,117.27 0,49.77 7.79,88.67 23.39,116.71zm1111.98 -6.41l47.36 0c-5.57,28.23 -18.67,50.61 -39.27,67.13 -20.62,16.53 -46.89,24.79 -78.84,24.79 -42.33,0 -75.67,-13.84 -99.99,-41.51 -24.33,-27.66 -36.5,-63.04 -36.5,-106.12 0,-43.46 12.07,-78.93 36.22,-106.41 24.14,-27.49 57.56,-41.23 100.27,-41.23 32.32,0 58.59,8.08 78.84,24.23 20.24,16.16 32.78,37.6 37.6,64.35l-47.36 0c-10.02,-31.57 -33.06,-47.35 -69.08,-47.35 -30.08,0 -52.45,9.93 -67.12,29.8 -14.67,19.87 -22.01,45.03 -22.01,75.49 0,30.83 7.42,56.45 22.28,76.88 14.85,20.43 37.13,30.64 66.84,30.64 39.37,0 62.96,-16.9 70.75,-50.7zm118.11 84.68l0 -280.78 75.21 0 69.08 128.13 12.26 0 69.07 -128.13 74.1 0 0 280.78 -46.24 0 0 -225.63 -12.26 0 -65.18 120.34 -52.37 0 -65.18 -120.34 -12.26 0 0 225.63 -46.24 0zm-2841.23 -347.07c25.99,-33.8 60.72,-50.7 104.17,-50.7 43.46,0 78.28,16.99 104.46,50.98 26.18,33.98 39.27,84.58 39.27,151.81 0,67.22 -13.09,117.74 -39.27,151.54 -26.18,33.8 -61,50.7 -104.46,50.7 -43.45,0 -78.18,-16.9 -104.17,-50.7 -26,-33.8 -39,-84.31 -39,-151.54 0,-67.59 13,-118.29 39,-152.09zm33.42 268.8c15.6,28.04 39.18,42.06 70.75,42.06 31.57,0 55.25,-14.02 71.03,-42.06 15.79,-28.04 23.68,-66.94 23.68,-116.71 0,-50.14 -7.89,-89.23 -23.68,-117.27 -15.78,-28.04 -39.46,-42.06 -71.03,-42.06 -31.57,0 -55.15,14.02 -70.75,42.06 -15.6,28.04 -23.39,67.13 -23.39,117.27 0,49.77 7.79,88.67 23.39,116.71zm633.43 78.28l-69.63 -117.55 -20.06 0 -71.31 117.55 -51.8 0 87.46 -143.73 -78.55 -137.05 50.14 0 64.63 111.42 20.06 0 65.74 -111.42 49.58 0 -79.66 135.38 86.9 145.4 -53.48 0zm261.84 0l0 -43.45 92.48 0 0 -295.27 -11.14 0 -81.89 55.15 0 -51.26 81.34 -55.15 60.72 0 0 346.52 85.24 0 0 43.45 -226.75 0zm424.51 -262.39c37.88,0 68.24,12.44 91.09,37.32 22.84,24.88 34.26,55.89 34.26,93.04 0,41.96 -12.34,75.67 -37.04,101.11 -24.69,25.44 -56.91,38.16 -96.65,38.16 -41.22,0 -73.63,-10.77 -97.21,-32.32 -23.58,-21.54 -36.5,-49.58 -38.72,-84.12l48.47 0c2.98,23.77 11.89,41.88 26.74,54.32 14.86,12.44 34.36,18.66 58.5,18.66 25.99,0 46.98,-8.44 62.95,-25.34 15.98,-16.9 23.96,-39.65 23.96,-68.24 0,-27.11 -7.71,-49.12 -23.12,-66.02 -15.41,-16.9 -36.12,-25.35 -62.12,-25.35 -34.91,0 -60.72,12.25 -77.44,36.77l-49.03 0 17.28 -205.57 222.84 0 0 42.34 -183.29 0 -8.91 112.53 12.25 0c20.06,-18.2 45.13,-27.29 75.21,-27.29zm603.9 262.39l-57.93 0 0 -64.63 57.93 0 0 64.63zm96.94 -347.07c25.99,-33.8 60.72,-50.7 104.17,-50.7 43.46,0 78.28,16.99 104.46,50.98 26.18,33.98 39.27,84.58 39.27,151.81 0,67.22 -13.09,117.74 -39.27,151.54 -26.18,33.8 -61,50.7 -104.46,50.7 -43.45,0 -78.18,-16.9 -104.17,-50.7 -26,-33.8 -39,-84.31 -39,-151.54 0,-67.59 13,-118.29 39,-152.09zm33.42 268.8c15.6,28.04 39.18,42.06 70.75,42.06 31.57,0 55.25,-14.02 71.03,-42.06 15.79,-28.04 23.68,-66.94 23.68,-116.71 0,-50.14 -7.89,-89.23 -23.68,-117.27 -15.78,-28.04 -39.46,-42.06 -71.03,-42.06 -31.57,0 -55.15,14.02 -70.75,42.06 -15.6,28.04 -23.39,67.13 -23.39,117.27 0,49.77 7.79,88.67 23.39,116.71z"/>
 </g>
 <g id="Выносные_x0020_линии">
  <metadata id="CorelCorpID_3Corel-Layer"/>
  <g id="_2238482383424">
   <line fill="none" stroke="gray" stroke-width="10.57" stroke-miterlimit="22.9256" x1="1408.97" y1="4871.94" x2="2226.89" y2= "4871.94" />
   <line fill="none" stroke="gray" stroke-width="10.57" stroke-miterlimit="22.9256" x1="1406.97" y1="1810.55" x2="2226.89" y2= "1810.55" />
   <line fill="none" stroke="gray" stroke-width="10.57" stroke-miterlimit="22.9256" x1="1716.34" y1="5176.89" x2="1716.34" y2= "1544.87" />
  </g>
  <g id="_2238482381360">
   <line fill="none" stroke="gray" stroke-width="10.57" stroke-miterlimit="22.9256" x1="2367.56" y1="13350.82" x2="2367.56" y2= "12530.91" />
   <line fill="none" stroke="gray" stroke-width="10.57" stroke-miterlimit="22.9256" x1="10874.09" y1="13348.83" x2="10874.09" y2= "12530.91" />
   <line fill="none" stroke="gray" stroke-width="10.57" stroke-miterlimit="22.9256" x1="11155.38" y1="13041.45" x2="2060.65" y2= "13041.45" />
  </g>
  <g id="_2238482386544">
   <line fill="none" stroke="gray" stroke-width="10.57" stroke-miterlimit="22.9256" x1="1406.97" y1="6293.79" x2="2226.89" y2= "6293.79" />
   <line fill="none" stroke="gray" stroke-width="10.57" stroke-miterlimit="22.9256" x1="1399.89" y1="12293.03" x2="2217.8" y2= "12293.03" />
   <line fill="none" stroke="gray" stroke-width="10.57" stroke-miterlimit="22.9256" x1="1707.26" y1="12614.9" x2="1707.26" y2= "6028.1" />
  </g>
 </g>
</svg>
