<?xml version="1.0" encoding="UTF-8"?>
<!DOCTYPE svg PUBLIC "-//W3C//DTD SVG 1.1//EN" "http://www.w3.org/Graphics/SVG/1.1/DTD/svg11.dtd">
<!-- Creator: CorelDRAW 2021.5 -->
<svg xmlns="http://www.w3.org/2000/svg" xml:space="preserve" width="297mm" height="210mm" version="1.1" shape-rendering="geometricPrecision" text-rendering="geometricPrecision" image-rendering="optimizeQuality" fill-rule="evenodd" clip-rule="evenodd"
viewBox="0 0 29698.94 20999.25"
 xmlns:xlink="http://www.w3.org/1999/xlink"
 xmlns:xodm="http://www.corel.com/coreldraw/odm/2003">
 <g id="Тени">
  <metadata id="CorelCorpID_0Corel-Layer"/>
  <rect fill="none" width="29698.94" height="20999.25"/>
  <g id="_2238612578128">
   <path fill="black" fill-opacity="0.101961" d="M6602.38 10501.16l5688.23 26.55 74.34 45.68c6.39,146.95 12.77,293.94 19.17,440.89 -59.34,-56.34 -160.37,-173.59 -525.81,-195.65 -1281.63,-77.31 -3915.79,-116.81 -5014.89,17.81 -256.21,31.38 -375.22,81.09 -423.36,177.04l24.55 -365.76 157.78 -146.56z"/>
   <polygon fill="black" fill-opacity="0.101961" points="12480.05,10522.99 18128.06,10520.27 18319.91,10666.76 18319.91,10849.29 12384.09,10849.29 12384.12,10636.91 "/>
   <path fill="black" fill-opacity="0.101961" d="M7938.06 13535.73c61.87,-788.27 404.2,-1017.2 768.85,-1031.46 753.43,-29.42 2680.5,14.13 2839.35,56.17 385.23,102.04 654.91,265.21 716.01,1019.56 27.73,342.39 101.32,1302.94 101.32,1302.94 0,0 84.1,-1062.04 101.2,-1300.35 83.47,-1162.1 778.37,-1032.67 1855.44,-996.44 603.87,20.31 1535.97,-211.48 2062.87,94.18 376.29,218.3 389.11,545.69 441.3,1177.71 76.56,926.51 54.21,1438.93 53.58,944.59l-3.48 -2640.21 -8966.57 -28.17 -69.95 122.06 -0.89 2626.65c47.56,-894.75 40.54,-577 100.97,-1347.21z"/>
   <path fill="black" fill-opacity="0.101961" d="M7739.65 6430l4514.13 0c1.05,-29.74 0.99,-65.88 2.35,-111.73 3.76,-127.19 -1.17,-311.98 0.41,-414.58 0.12,-8.72 -0.18,-16.99 -0.87,-24.91 -30.97,-62.48 -79.44,-103.51 -153.65,-105.49 -507.32,-13.44 -2869.63,-6.35 -4342.26,-5.15 -52.35,0.05 12.81,313.06 -36.76,307.23 -45.64,-5.39 -38.16,-18.87 -88.32,-22.64 -426.94,-32.21 -1037.42,-1.89 -1104.03,0 -30.24,0.84 -167.39,66.01 -167.39,66.01 -11.74,-399.12 183.35,-595.13 1236.3,-645.48 1651.53,-78.99 4377.12,26.62 4739.67,-205.14 3.64,-38.06 3.45,-78.07 -0.13,-119.55l-26.57 -309.12c0,0 78.8,83.86 341.83,125.88 263.03,42.02 687.61,88.47 1285.77,88.47 598.14,0 3531.68,34.78 3531.68,34.78 121.62,6.94 848.24,-135.89 866.8,-204.54 24.25,-89.48 -4.33,561.6 -4.33,561.6l2.61 356.33c0,0 0.82,298.11 0.82,298.11 0,0 -137.17,-65.17 -167.39,-66.01 -66.59,-1.87 -677.08,-32.22 -1104.04,0 -50.15,3.77 -42.68,17.25 -88.31,22.64 -49.58,5.83 15.59,-307.18 -36.77,-307.23 -1472.63,-1.18 -3834.92,-8.29 -4342.26,5.17 -51.67,1.38 -90.84,21.69 -120.34,54.96 -22.42,27.89 -34.94,63.88 -34.18,112.76 1.57,102.6 -3.36,287.39 0.43,414.59 1.1,36.65 1.25,67.1 1.81,93.05l4508.06 0 0 230.41 -4352.96 0c10.83,6.74 22.42,13.8 34.85,21.34 21.55,13.05 -184.43,5.71 -177.97,151.07 12.17,272.78 7.15,532.41 -7.64,701.38 0,0 -159.96,0 -159.96,0l-1.64 -18.68 -39.43 0c-14.8,-168.96 -19.79,-428.59 -7.65,-701.37 6.46,-145.34 -199.52,-138.01 -177.96,-151.07l4.39 -2.67 -4329.1 0 0 -230.41z"/>
   <path fill="black" fill-opacity="0.101961" d="M21117.1 4513.72c-832.27,978.41 -341.4,1519.67 -343.23,1526.53 -4.54,17.01 -146.29,-8.82 -207.03,10.27 -49.17,15.47 -24.17,-144.31 -35.95,-198.32 -28.08,-128.54 1.36,-570 73.03,-678.82 217.77,-330.65 490.66,-626.79 513.18,-659.66z"/>
   <path fill="black" fill-opacity="0.101961" d="M21518.12 5648.25c-83.12,146.46 -335.96,-50.93 -494.61,-178.4 5.96,299.1 221.45,324.56 387.12,286.66 -130.06,32.87 -273.16,55.79 -328.5,85.19 133.8,97.21 266.52,92.49 372.37,18.2 20.72,-14.54 100.09,-140.9 65.21,-28.44 -24.33,78.44 -85.21,199.96 11.1,199.96 63,0 15.76,-203.65 24.28,-288.93 7.82,-78.28 -66.32,-21.73 102.16,-67.3 68.49,-18.53 207.03,-88.48 130.43,-162.34 -180.15,-173.64 56.46,-540.34 21.85,-737.6 -66.78,-380.58 0.61,-13.2 -99.56,174.99 -44.92,84.42 -146.2,617.61 -191.83,698.02z"/>
   <g>
    <polygon fill="none" stroke="gray" stroke-width="10.58" stroke-miterlimit="22.9256" points="6400.08,7515.53 18251.77,7515.53 18251.77,7582.62 17834.81,7636.24 6728.35,7636.24 6400.08,7582.62 "/>
    <line fill="none" stroke="black" stroke-width="10.58" stroke-miterlimit="22.9256" x1="6400.12" y1="7515.53" x2="18251.76" y2= "7515.53" />
    <line fill="none" stroke="black" stroke-width="10.58" stroke-miterlimit="22.9256" x1="6728.35" y1="7636.24" x2="17834.82" y2= "7636.24" />
    <line fill="none" stroke="black" stroke-width="10.58" stroke-miterlimit="22.9256" x1="6400.12" y1="7582.59" x2="6728.35" y2= "7636.24" />
    <polyline fill="none" stroke="black" stroke-width="10.58" stroke-miterlimit="22.9256" points="17834.82,7636.24 18251.76,7582.59 18251.76,7515.53 "/>
    <rect fill="none" stroke="black" stroke-width="10.58" stroke-miterlimit="22.9256" x="7828.34" y="7636.23" width="159.68" height="828.49"/>
    <rect fill="none" stroke="black" stroke-width="10.58" stroke-miterlimit="22.9256" x="16654.98" y="7636.23" width="159.67" height="837.36"/>
    <rect fill="none" stroke="black" stroke-width="10.58" stroke-miterlimit="22.9256" x="6346.89" y="6036.66" width="1392.74" height="1472.59" rx="21.53" ry="22.36"/>
    <rect fill="none" stroke="black" stroke-width="10.58" stroke-miterlimit="22.9256" x="16954.74" y="6034.07" width="1392.74" height="1472.59" rx="21.53" ry="22.36"/>
    <path fill="none" stroke="black" stroke-width="10.58" stroke-miterlimit="22.9256" d="M12441.49 5689.51l4406.15 0c58.92,0 107.1,48.18 107.1,107.1l0 752.75c0,58.92 -48.18,107.1 -107.1,107.1 -1404.71,-96.03 -2873.44,-128.04 -4406.15,0 -58.93,0 -107.1,-48.18 -107.1,-107.1l0 -752.75c0,-58.92 48.17,-107.1 107.1,-107.1z"/>
    <path fill="none" stroke="black" stroke-width="10.58" stroke-miterlimit="22.9256" d="M12330.06 5796.62c0,0 18.07,-550.48 9.04,-648.04 -22.02,-238.11 -44.21,-146.52 -17.01,-197.95 29.96,-56.62 490.51,-270.22 684.68,-269 1472.28,9.33 3225.53,0.54 4683.76,0.65 283.82,0.02 592.21,152.66 658.49,274.62 19.58,36.05 -0.13,97.52 -2.56,138.51 -13.5,227.12 -4.57,827.72 -9.32,1043.24"/>
    <path fill="none" stroke="black" stroke-width="10.58" stroke-miterlimit="22.9256" d="M6371.36 6059.66c22.97,-584.58 0.36,-920.02 6.61,-1457.43 1.68,-146.22 -7.13,-318.36 11.61,-369.62 38.33,-104.85 147.53,29.06 386.5,56.06 451.31,51.02 2962.54,79.26 2962.54,79.26l1799.37 -8.85c0,0 495.46,-8.88 582.38,-53.24 86.94,-44.37 208.64,-177.43 208.64,-26.62 0,150.81 3.44,576.5 3.44,576.5"/>
    <line fill="none" stroke="black" stroke-width="10.58" stroke-miterlimit="22.9256" x1="12334.39" y1="7515.53" x2="12334.39" y2= "6300.22" />
    <path fill="none" stroke="black" stroke-width="10.58" stroke-miterlimit="22.9256" d="M13240.9 5464.98c-407.37,9.24 -740.19,-260.12 -838.05,-395.03"/>
    <path fill="none" stroke="black" stroke-width="10.58" stroke-miterlimit="22.9256" d="M16977.53 5518.99c407.35,9.24 885.07,-43.69 1295.01,-408.68"/>
    <rect fill="none" stroke="black" stroke-width="10.58" stroke-miterlimit="22.9256" x="12253.91" y="7642.4" width="159.68" height="828.49"/>
    <path fill="none" stroke="black" stroke-width="10.58" stroke-miterlimit="22.9256" d="M12334.37 7379.89c0.02,54.98 6.24,135.63 -84.45,135.35 -162.37,-0.51 -3519.45,-0.67 -4336.45,-0.66 -132.48,-0.01 -173.33,-5 -173.82,-127.56"/>
    <path fill="none" stroke="black" stroke-width="10.58" stroke-miterlimit="22.9256" d="M16954.73 7402.87c0,26.55 -3.15,96.16 -106.78,97 -565.22,4.69 -3970.64,-0.72 -4344.62,5.3 -122.13,1.96 -168.45,-2.74 -168.94,-125.28"/>
    <path fill="none" stroke="black" stroke-width="10.58" stroke-miterlimit="22.9256" d="M7852.62 5610.02l4364.63 0c64.44,0 117.14,52.7 117.14,117.14l0 823.25c0,64.44 -52.89,122.05 -117.14,117.14 -1310.16,-100.21 -2893.04,-116.9 -4364.63,0 -64.22,5.1 -117.11,-52.7 -117.11,-117.14l0 -823.25c0,-64.44 52.7,-117.14 117.11,-117.14z"/>
    <path fill="none" stroke="black" stroke-width="10.58" stroke-miterlimit="22.9256" d="M17039.9 5796.69c407.35,9.24 808.81,-81.71 1213.22,-228.1"/>
    <path fill="none" stroke="black" stroke-width="10.58" stroke-miterlimit="22.9256" d="M17010.08 5905.34c403.01,11.82 789.31,62.13 1225.84,-87.76"/>
   </g>
   <g>
    <path fill="none" stroke="black" stroke-width="10.58" stroke-miterlimit="22.9256" d="M25089.51 6640.23c111.65,45.25 190.91,155.05 190.91,282.44l0 279.96c0,167.49 -137.03,304.53 -304.53,304.53"/>
    <rect fill="none" stroke="black" stroke-width="10.58" stroke-miterlimit="22.9256" transform="matrix(1.87696E-14 -1.10079 0.952261 3.91735E-14 20521 7507.15)" width="1340.61" height="4789.06" rx="96.84" ry="96.84"/>
    <line fill="none" stroke="black" stroke-width="10.58" stroke-miterlimit="22.9256" x1="20681.04" y1="7636.48" x2="24898.35" y2= "7636.48" />
    <line fill="none" stroke="black" stroke-width="10.58" stroke-miterlimit="22.9256" x1="20556.42" y1="7582.84" x2="20681.04" y2= "7636.48" />
    <polyline fill="none" stroke="black" stroke-width="10.58" stroke-miterlimit="22.9256" points="24898.35,7636.48 25056.67,7582.84 25056.67,7515.78 "/>
    <rect fill="none" stroke="black" stroke-width="10.58" stroke-miterlimit="22.9256" transform="matrix(0.828731 -0 0.147104 0.899216 24645.9 7640.19)" width="238.11" height="931.22"/>
    <rect fill="none" stroke="black" stroke-width="10.58" stroke-miterlimit="22.9256" transform="matrix(-0.828731 -0 -0.147104 0.899216 20927.3 7642.32)" width="238.11" height="931.22"/>
    <line fill="none" stroke="black" stroke-width="10.58" stroke-miterlimit="22.9256" x1="20893.81" y1="7915.56" x2="24697.43" y2= "7915.38" />
    <path fill="none" stroke="black" stroke-width="10.58" stroke-miterlimit="22.9256" d="M21507.14 5692.46c-109.27,46.98 -220.04,33.89 -374.53,-44.28"/>
    <path fill="none" stroke="black" stroke-width="10.58" stroke-miterlimit="22.9256" d="M21507.14 5692.46c13.66,74.7 -124.56,158.59 -327.51,164.53"/>
    <path fill="none" stroke="black" stroke-width="10.58" stroke-miterlimit="22.9256" d="M21629.63 4357.06l-138.32 -123.35c0,0 -69.94,-126.01 -159.19,-6 -89.26,120 -181.53,251.99 -181.53,251.99 0,0 -506.84,503.99 -591.4,773.98 -84.56,269.99 -39.02,703.46 7.66,796.82"/>
    <path fill="none" stroke="black" stroke-width="10.58" stroke-miterlimit="22.9256" d="M21629.64 4357.06c223.51,169.34 134.16,458.77 79.69,618.19 -95.15,278.44 -202.18,717.2 -202.18,717.2 224.99,51.46 496.74,154.57 679.63,338.96"/>
    <path fill="none" stroke="black" stroke-width="10.58" stroke-miterlimit="22.9256" d="M21771.11 4612.08c91.14,-66.91 645.63,-142.56 630.5,-63.89 -3.15,16.41 -28.37,208.56 -32.06,225.21 -88.18,398.34 -384.68,946.35 -880.66,918.55"/>
    <path fill="none" stroke="black" stroke-width="10.58" stroke-miterlimit="22.9256" d="M21420.86 4320.5c-75.69,564.53 -466.79,918.24 -485.62,1238.33 -12.13,206.37 24.29,358.14 24.29,358.14"/>
    <polygon fill="none" stroke="black" stroke-width="10.58" stroke-miterlimit="22.9256" points="20556.42,7515.77 25056.68,7515.77 25056.68,7582.84 24898.35,7636.48 20681.04,7636.48 20556.42,7582.84 "/>
   </g>
   <g>
    <path fill="none" stroke="black" stroke-width="10.58" stroke-miterlimit="22.9256" d="M16868.42 12164.16l-4446.1 0c-31.85,0 -24.66,26.84 -24.66,58.69l0 2667.32c0,31.89 26.08,57.97 57.98,57.97l4385.82 0c31.89,0 57.97,-26.08 57.97,-57.97l0 -2667.32c0,-31.9 0.8,-58.69 -31.01,-58.69z"/>
    <path fill="none" stroke="black" stroke-width="10.58" stroke-miterlimit="22.9256" d="M7916.16 11536.66c1380.15,-1.57 2760.33,4.44 4140.47,-4.69 84.72,-0.56 156.94,-29.36 212.59,-76.39 14.17,-11.98 37.13,0 55.69,0 40.02,0 72.75,32.75 72.75,72.73l0 3347.08c0,40.02 -32.73,72.73 -72.75,72.73l-4415.06 0c-39.95,0 -72.84,-32.71 -72.75,-72.73l6.31 -3266c0.08,-39.99 32.73,-72.69 72.75,-72.73z"/>
    <path fill="none" stroke="black" stroke-width="10.58" stroke-miterlimit="22.9256" d="M6600.23 10506.59c-59.2,-0.2 -73.76,5.36 -123.34,13.09 -134.23,36.07 -158.73,267.6 -142.58,660.13 13.92,338 -3.9,2870.53 -3.9,3064.45 0,480.97 23.46,690.39 141.36,730.11l0.02 -8.48c22.61,17.62 51,28.12 81.71,28.12l1068 0c29.48,0 56.79,-9.69 78.95,-26.01l0.02 9.11c117.89,-39.52 145.73,-247.85 145.73,-726.36 0,-147 -10.34,-1645.11 -9.11,-2498.49"/>
    <path fill="none" stroke="black" stroke-width="10.58" stroke-miterlimit="22.9256" d="M6554.99 10506.46l5713.46 14.79c63.64,0.15 115.68,52.12 115.68,115.67l0 616.82c0,137.55 -193.97,278.11 -327.49,278.24l-4999.22 5.66c-329.04,0.35 -637.36,-161.94 -637.36,-464.17l0 -131.11c0,-186.47 82.27,-436 134.94,-435.89z"/>
    <path fill="none" stroke="black" stroke-width="10.58" stroke-miterlimit="22.9256" d="M18080.01 10515.4l-5554.35 0c-77.87,0 -141.56,63.7 -141.56,141.55l0 973.05c0,68.12 55.72,123.84 123.84,123.84l5688.13 0c68.12,0 123.84,-55.72 123.84,-123.84l0 -874.72c0,-131.93 -107.95,-239.88 -239.88,-239.88z"/>
    <path fill="none" stroke="black" stroke-width="10.58" stroke-miterlimit="22.9256" d="M7896.86 12164.87l4415.04 0c39.74,0 72.19,-32.47 72.19,-72.19 0,-165.43 0,-330.89 0,-496.32 0,-34.76 0.03,-194.57 0.03,-287.69 -72.6,115.93 -187.49,224.52 -358.68,224.52l-4125.2 0c-34.76,0 -63.14,28.41 -63.14,63.17l0 508.75c0,32.88 26.85,59.76 59.76,59.76z"/>
    <path fill="none" stroke="black" stroke-width="10.58" stroke-miterlimit="22.9256" d="M16861.08 12164.87l-4430.67 0c-25.48,0 -46.31,-20.83 -46.31,-46.31l0 -318.36c0,-22.29 18.22,-40.51 40.51,-40.51l4434.3 0c22.29,0 40.51,18.22 40.51,40.51l0 326.33c0,21.09 -17.25,38.34 -38.34,38.34z"/>
    <path fill="none" stroke="black" stroke-width="10.58" stroke-miterlimit="22.9256" d="M18182.81 10538.56c28.06,0 54.14,8.76 75.7,23.71l0 -7.15c134.23,36.07 159.63,249.44 143.48,641.99 -13.93,338 3.9,2870.54 3.9,3064.46 0,480.97 -23.45,690.38 -141.35,730.11l-0.03 -8.49c-22.61,17.62 -50.99,28.13 -81.7,28.13l-1068 0c-29.49,0 -56.8,-9.69 -78.96,-26.02l-0.02 9.11c-117.89,-39.51 -141.33,-247.85 -141.33,-726.36 0,-146.99 10.34,-1645.1 9.11,-2498.49"/>
    <path fill="none" stroke="black" stroke-width="10.58" stroke-miterlimit="22.9256" d="M6420.05 11013.48c43.63,171.96 116.77,158.05 313.27,190.11"/>
    <path fill="none" stroke="black" stroke-width="10.58" stroke-miterlimit="22.9256" d="M12384.12 11014.28c-73.81,165.99 -135.92,196.51 -391.74,266.43"/>
   </g>
   <path fill="#666666" fill-rule="nonzero" fill-opacity="0.800000" d="M20888.42 10716.53l0 16.71c22.79,10.64 41.16,27.35 55.08,50.14 13.93,22.8 20.9,47.87 20.9,75.22 0,45.59 -15.7,82.43 -47.11,110.54 -31.4,28.11 -76.99,42.17 -136.75,42.17l-242.35 0 0 -542.44 236.27 0c55.21,0 97.88,13.04 128.02,39.13 30.13,26.08 45.2,58.88 45.2,98.38 0,52.17 -19.75,88.89 -59.26,110.17zm-281.86 -186.89l0 169.41 166.38 0c70.4,0 105.61,-28.87 105.61,-86.61 0,-28.36 -10.13,-49.26 -30.39,-62.68 -20.26,-13.42 -45.84,-20.13 -76.74,-20.13l-164.86 0zm0 420.88l169.42 0c34.95,0 63.56,-7.47 85.85,-22.41 22.29,-14.94 33.43,-39.89 33.43,-74.84 0,-32.92 -11.02,-56.85 -33.05,-71.79 -22.03,-14.95 -50.52,-22.42 -85.47,-22.42l-170.18 0 0 191.45zm457.35 -322.12l64.58 0 0 127.63 105.6 0c46.1,0 81.68,11.15 106.75,33.43 25.07,22.29 37.61,53.44 37.61,93.45 0,40.52 -12.54,72.05 -37.61,94.59 -25.07,22.54 -60.65,33.81 -106.75,33.81l-170.17 0 0 -382.9zm64.58 182.33l0 144.34 96.49 0c31.91,0 54.7,-6.08 68.37,-18.24 13.68,-12.15 20.52,-30.13 20.52,-53.94 0,-23.8 -6.84,-41.78 -20.52,-53.94 -13.67,-12.16 -36.46,-18.23 -68.37,-18.23l-96.49 0zm311.49 -182.33l64.57 0 0 382.9 -64.57 0 0 -382.9zm448.22 267.42l64.58 0c-7.59,38.49 -25.45,69.01 -53.56,91.55 -28.11,22.54 -63.94,33.81 -107.5,33.81 -57.74,0 -103.2,-18.87 -136.38,-56.6 -33.17,-37.74 -49.76,-85.98 -49.76,-144.73 0,-59.26 16.46,-107.63 49.38,-145.1 32.92,-37.48 78.51,-56.22 136.76,-56.22 44.06,0 79.9,11.02 107.5,33.05 27.6,22.03 44.7,51.28 51.28,87.75l-64.57 0c-13.68,-43.05 -45.08,-64.58 -94.21,-64.58 -41.03,0 -71.55,13.55 -91.55,40.65 -20.01,27.1 -30.01,61.41 -30.01,102.94 0,42.04 10.13,76.99 30.39,104.85 20.26,27.86 50.65,41.79 91.17,41.79 53.69,0 85.85,-23.05 96.48,-69.14zm188.03 -220.32c33.68,-37.99 79.65,-56.98 137.9,-56.98 58.24,0 104.21,18.99 137.89,56.98 33.68,37.99 50.52,86.11 50.52,144.34 0,58.25 -16.84,106.37 -50.52,144.35 -33.68,37.98 -79.65,56.98 -137.89,56.98 -58.25,0 -104.22,-19 -137.9,-56.98 -33.68,-37.99 -50.52,-86.11 -50.52,-144.35 0,-58.24 16.84,-106.36 50.52,-144.34zm45.97 247.29c21.27,28.11 51.91,42.17 91.93,42.17 40.01,0 70.65,-14.06 91.93,-42.17 21.27,-28.11 31.9,-62.43 31.9,-102.95 0,-40.52 -10.63,-74.83 -31.9,-102.94 -21.28,-28.11 -51.92,-42.17 -91.93,-42.17 -40.02,0 -70.66,14.06 -91.93,42.17 -21.28,28.11 -31.91,62.42 -31.91,102.94 0,40.52 10.63,74.84 31.91,102.95zm334.27 -238.17l0 -56.22 329.72 0 0 56.22 -132.19 0 0 326.68 -64.58 0 0 -326.68 -132.96 0zm658.69 326.68l0 -40.27 -16.72 0c-26.33,33.43 -66.09,50.15 -119.28,50.15 -42.04,0 -75.46,-12.16 -100.28,-36.47 -24.82,-24.31 -37.23,-53.69 -37.23,-88.13 0,-34.95 12.16,-64.83 36.47,-89.65 24.31,-24.82 61.03,-37.23 110.16,-37.23l124.6 0 0 -15.2c0,-24.31 -7.6,-43.68 -22.79,-58.12 -15.2,-14.43 -38.75,-21.65 -70.66,-21.65 -55.71,0 -85.34,18.49 -88.89,55.46l-64.58 0c2.53,-34.95 17.6,-62.3 45.21,-82.05 27.6,-19.75 63.18,-29.63 106.74,-29.63 49.13,0 87.75,11.4 115.86,34.19 28.11,22.79 42.17,55.46 42.17,98.01l0 260.58 -60.78 0zm-120.04 -46.34c31.91,0 59.51,-10.51 82.81,-31.53 23.3,-21.02 34.95,-46.73 34.95,-77.12l0 -34.95 -114.72 0c-61.29,0 -91.93,24.31 -91.93,72.94 0,21.78 7.72,39 23.17,51.66 15.45,12.66 37.35,19 65.72,19zm-2204.71 760.54l64.58 0c-7.59,38.49 -25.45,69.01 -53.56,91.55 -28.11,22.54 -63.94,33.81 -107.5,33.81 -57.74,0 -103.2,-18.87 -136.38,-56.6 -33.17,-37.74 -49.76,-85.98 -49.76,-144.73 0,-59.26 16.46,-107.63 49.38,-145.1 32.92,-37.48 78.51,-56.22 136.76,-56.22 44.06,0 79.9,11.02 107.5,33.05 27.6,22.03 44.7,51.28 51.28,87.75l-64.57 0c-13.68,-43.05 -45.08,-64.58 -94.21,-64.58 -41.03,0 -71.55,13.55 -91.55,40.65 -20.01,27.1 -30.01,61.41 -30.01,102.94 0,42.04 10.13,76.99 30.39,104.85 20.26,27.86 50.65,41.79 91.17,41.79 53.69,0 85.85,-23.05 96.48,-69.14zm252.23 115.48l-91.17 0 0 -382.9 63.06 0 0 296.29 16.71 0 167.9 -296.29 94.21 0 0 382.9 -63.06 0 0 -296.29 -16.72 0 -170.93 296.29zm716.42 -56.22l70.65 0 0 164.85 -63.06 0 0 -108.64 -331.24 0 0 108.64 -63.06 0 0 -164.85 50.91 0c31.4,-66.86 47.1,-140.8 47.1,-221.84l0 -104.84 288.7 0 0 326.68zm-64.58 0l0 -270.46 -164.1 0 0 48.62c0,86.61 -13.93,160.55 -41.78,221.84l205.88 0zm550.8 -158.02l0 22.03 -291.73 0c1.01,46.09 11.9,81.93 32.67,107.51 20.76,25.58 50.65,38.37 89.65,38.37 52.67,0 85.09,-19.76 97.24,-59.27l65.34 0c-6.58,34.45 -23.93,62.3 -52.04,83.58 -28.11,21.27 -64.96,31.91 -110.54,31.91 -58.25,0 -103.84,-19 -136.76,-56.98 -32.92,-37.99 -49.38,-87.38 -49.38,-148.15 0,-59.76 16.46,-107.63 49.38,-143.58 32.92,-35.96 78,-53.94 135.24,-53.94 54.19,0 95.98,17.09 125.36,51.28 29.37,34.19 44.57,76.61 45.58,127.26zm-172.45 -122.32c-32.93,0 -59.26,8.48 -79.02,25.45 -19.75,16.97 -31.91,38.62 -36.46,64.96l221.07 0c-2.02,-25.83 -12.41,-47.36 -31.15,-64.58 -18.74,-17.22 -43.56,-25.83 -74.45,-25.83zm613.86 336.56l-64.58 0 0 -168.65 -211.96 0 0 168.65 -64.58 0 0 -382.9 64.58 0 0 158.01 211.96 0 0 -158.01 64.58 0 0 382.9zm662.48 -382.9l190.69 0 0 382.9 -65.34 0 0 -151.18 -116.24 0c-10.13,0 -17.98,-0.25 -23.56,-0.76l-57.74 151.94 -67.62 0 64.58 -166.38c-39.5,-18.74 -59.26,-52.16 -59.26,-100.28 0,-36.98 11.53,-65.59 34.57,-85.85 23.05,-20.26 56.35,-30.39 99.91,-30.39zm125.36 54.7l-118.52 0c-27.86,0 -47.61,5.32 -59.26,15.95 -11.65,10.64 -17.48,26.09 -17.48,46.35 0,19.75 5.83,34.69 17.48,44.82 11.65,10.13 31.4,15.2 59.26,15.2l118.52 0 0 -122.32zm-1938.06 1157.88l-79.01 0 0 -88.13 79.01 0 0 88.13zm132.2 -473.3c35.45,-46.1 82.81,-69.14 142.06,-69.14 59.26,0 106.75,23.17 142.45,69.52 35.7,46.34 53.56,115.35 53.56,207.02 0,91.67 -17.86,160.55 -53.56,206.64 -35.71,46.09 -83.2,69.14 -142.45,69.14 -59.26,0 -106.62,-23.05 -142.06,-69.14 -35.46,-46.09 -53.18,-114.98 -53.18,-206.64 0,-92.19 17.72,-161.31 53.18,-207.4zm45.58 366.57c21.28,38.24 53.44,57.36 96.49,57.36 43.05,0 75.34,-19.12 96.87,-57.36 21.53,-38.25 32.29,-91.3 32.29,-159.16 0,-68.38 -10.76,-121.69 -32.29,-159.92 -21.53,-38.24 -53.82,-57.36 -96.87,-57.36 -43.05,0 -75.21,19.12 -96.49,57.36 -21.27,38.24 -31.91,91.55 -31.91,159.92 0,67.87 10.64,120.92 31.91,159.16zm866.84 -8.74l64.58 0c-7.59,38.49 -25.45,69.01 -53.56,91.55 -28.11,22.54 -63.94,33.81 -107.5,33.81 -57.74,0 -103.2,-18.87 -136.38,-56.6 -33.17,-37.74 -49.76,-85.98 -49.76,-144.73 0,-59.26 16.46,-107.63 49.38,-145.1 32.92,-37.48 78.51,-56.22 136.76,-56.22 44.06,0 79.9,11.02 107.5,33.05 27.6,22.03 44.7,51.28 51.28,87.75l-64.57 0c-13.68,-43.05 -45.08,-64.58 -94.21,-64.58 -41.03,0 -71.55,13.55 -91.55,40.65 -20.01,27.1 -30.01,61.41 -30.01,102.94 0,42.04 10.13,76.99 30.39,104.85 20.26,27.86 50.65,41.79 91.17,41.79 53.69,0 85.85,-23.05 96.48,-69.14zm161.06 115.48l0 -382.9 102.57 0 94.2 174.73 16.72 0 94.21 -174.73 101.05 0 0 382.9 -63.06 0 0 -307.69 -16.72 0 -88.89 164.1 -71.42 0 -88.89 -164.1 -16.71 0 0 307.69 -63.06 0zm133.73 -1212.58l0 127.63 113.2 0c46.09,0 81.67,11.15 106.75,33.43 25.07,22.29 37.6,53.44 37.6,93.45 0,40.52 -12.53,72.05 -37.6,94.59 -25.08,22.54 -60.66,33.81 -106.75,33.81l-177.77 0 0 -382.9 64.58 0zm0 326.68l104.08 0c31.91,0 54.71,-6.08 68.38,-18.24 13.68,-12.15 20.51,-30.13 20.51,-53.94 0,-23.8 -6.83,-41.78 -20.51,-53.94 -13.67,-12.16 -36.47,-18.23 -68.38,-18.23l-104.08 0 0 144.34zm863.04 56.22l-79.01 0 0 -88.13 79.01 0 0 88.13zm0 -294.77l-79.01 0 0 -88.13 79.01 0 0 88.13zm-2912.03 940.6l72.94 0 0 59.26 -72.94 0 0 124.6 -65.34 0 0 -124.6 -262.86 0 0 -75.97 234.75 -331.25 93.45 0 0 347.96zm-258.3 0l193.72 0 0 -272.74 -16.71 0 -177.01 256.03 0 16.71zm723.25 0l72.94 0 0 59.26 -72.94 0 0 124.6 -65.34 0 0 -124.6 -262.86 0 0 -75.97 234.75 -331.25 93.45 0 0 347.96zm-258.3 0l193.72 0 0 -272.74 -16.71 0 -177.01 256.03 0 16.71z"/>
   <path fill="#666666" fill-rule="nonzero" fill-opacity="0.800000" d="M10884.31 16674.03l-66.85 0c3.04,-51.16 20.89,-90.16 53.56,-117 32.67,-26.85 73.82,-40.27 123.46,-40.27 51.66,0 93.32,14.05 124.98,42.16 31.65,28.12 47.48,68 47.48,119.67 0,62.8 -39.25,126.87 -117.76,192.2l-133.72 112.44 0 16.72 268.19 0 0 59.26 -365.43 0 0 -75.22 78.25 -63.81c48.62,-39 88.89,-73.19 120.8,-102.57 12.16,-10.64 21.91,-19.75 29.25,-27.35 7.35,-7.6 15.7,-17.6 25.07,-30.01 9.37,-12.41 16.46,-25.45 21.28,-39.13 4.81,-13.67 7.21,-27.86 7.21,-42.54 0,-32.93 -9.62,-58.25 -28.87,-75.98 -19.24,-17.73 -45.33,-26.59 -78.25,-26.59 -30.9,0 -55.84,8.23 -74.84,24.69 -18.99,16.46 -30.26,40.9 -33.81,73.32zm582.71 38.74c48.62,0 89.14,16.34 121.56,49.01 32.41,32.67 48.62,74.07 48.62,124.22 0,52.17 -16.33,95.73 -49,130.67 -32.67,34.95 -76.61,52.43 -131.82,52.43 -60.27,0 -107.88,-20.77 -142.82,-62.3 -34.95,-41.54 -52.42,-107.89 -52.42,-199.05 0,-85.6 17.09,-155.48 51.28,-209.68 34.19,-54.19 84.46,-81.29 150.8,-81.29 44.07,0 80.15,11.77 108.26,35.33 28.11,23.55 45.21,54.07 51.29,91.55l-66.1 0c-13.17,-45.08 -44.32,-67.62 -93.45,-67.62 -42.04,0 -74.96,16.71 -98.77,50.14 -23.8,33.43 -36.72,79.52 -38.74,138.28l16.71 0c11.14,-13.68 27.48,-25.71 49,-36.09 21.53,-10.38 46.73,-15.58 75.6,-15.58zm-94.97 264.39c22.29,21.78 50.14,32.67 83.57,32.67 33.43,0 60.91,-10.64 82.44,-31.91 21.52,-21.28 32.28,-50.91 32.28,-88.89 0,-37.99 -10.89,-67.12 -32.66,-87.38 -21.78,-20.26 -49.64,-30.39 -83.58,-30.39 -33.43,0 -61.03,10.39 -82.81,31.15 -21.78,20.77 -32.67,49.39 -32.67,85.86 0,37.48 11.14,67.11 33.43,88.89zm392.78 -391.26c35.45,-46.1 82.81,-69.14 142.06,-69.14 59.26,0 106.75,23.17 142.45,69.52 35.7,46.34 53.56,115.35 53.56,207.02 0,91.67 -17.86,160.55 -53.56,206.64 -35.71,46.09 -83.2,69.14 -142.45,69.14 -59.26,0 -106.62,-23.05 -142.06,-69.14 -35.46,-46.09 -53.18,-114.98 -53.18,-206.64 0,-92.19 17.72,-161.31 53.18,-207.4zm45.58 366.57c21.28,38.24 53.44,57.36 96.49,57.36 43.05,0 75.34,-19.12 96.87,-57.36 21.53,-38.25 32.29,-91.3 32.29,-159.16 0,-68.38 -10.76,-121.69 -32.29,-159.92 -21.53,-38.24 -53.82,-57.36 -96.87,-57.36 -43.05,0 -75.21,19.12 -96.49,57.36 -21.27,38.24 -31.91,91.55 -31.91,159.92 0,67.87 10.64,120.92 31.91,159.16zm471.78 106.74l-79.01 0 0 -88.13 79.01 0 0 88.13zm132.2 -473.3c35.45,-46.1 82.81,-69.14 142.06,-69.14 59.26,0 106.75,23.17 142.45,69.52 35.7,46.34 53.56,115.35 53.56,207.02 0,91.67 -17.86,160.55 -53.56,206.64 -35.71,46.09 -83.2,69.14 -142.45,69.14 -59.26,0 -106.62,-23.05 -142.06,-69.14 -35.46,-46.09 -53.18,-114.98 -53.18,-206.64 0,-92.19 17.72,-161.31 53.18,-207.4zm45.58 366.57c21.28,38.24 53.44,57.36 96.49,57.36 43.05,0 75.34,-19.12 96.87,-57.36 21.53,-38.25 32.29,-91.3 32.29,-159.16 0,-68.38 -10.76,-121.69 -32.29,-159.92 -21.53,-38.24 -53.82,-57.36 -96.87,-57.36 -43.05,0 -75.21,19.12 -96.49,57.36 -21.27,38.24 -31.91,91.55 -31.91,159.92 0,67.87 10.64,120.92 31.91,159.16zm866.84 -8.74l64.58 0c-7.59,38.49 -25.45,69.01 -53.56,91.55 -28.11,22.54 -63.94,33.81 -107.5,33.81 -57.74,0 -103.2,-18.87 -136.38,-56.6 -33.17,-37.74 -49.76,-85.98 -49.76,-144.73 0,-59.26 16.46,-107.63 49.38,-145.1 32.92,-37.48 78.51,-56.22 136.76,-56.22 44.06,0 79.9,11.02 107.5,33.05 27.6,22.03 44.7,51.28 51.28,87.75l-64.57 0c-13.68,-43.05 -45.08,-64.58 -94.21,-64.58 -41.03,0 -71.55,13.55 -91.55,40.65 -20.01,27.1 -30.01,61.41 -30.01,102.94 0,42.04 10.13,76.99 30.39,104.85 20.26,27.86 50.65,41.79 91.17,41.79 53.69,0 85.85,-23.05 96.48,-69.14zm161.06 115.48l0 -382.9 102.57 0 94.2 174.73 16.72 0 94.21 -174.73 101.05 0 0 382.9 -63.06 0 0 -307.69 -16.72 0 -88.89 164.1 -71.42 0 -88.89 -164.1 -16.71 0 0 307.69 -63.06 0z"/>
   <path fill="#666666" fill-rule="nonzero" fill-opacity="0.800000" d="M4672.25 7425.8l16.72 0c7.09,-20.76 21.91,-39.76 44.44,-56.98 22.54,-17.22 50.02,-25.83 82.44,-25.83 44.57,0 81.54,17.6 110.92,52.8 29.38,35.2 44.07,81.68 44.07,139.42 0,57.74 -14.69,104.21 -44.07,139.41 -29.38,35.2 -66.35,52.8 -110.92,52.8 -31.91,0 -59.26,-8.61 -82.06,-25.83 -22.79,-17.22 -37.73,-36.21 -44.82,-56.98l-16.72 0c-7.09,16.71 -20.51,32.04 -40.26,45.97 -19.76,13.92 -43.56,20.89 -71.42,20.89 -42.04,0 -76.23,-16.46 -102.56,-49.39 -26.34,-32.92 -39.51,-75.21 -39.51,-126.87 0,-51.67 13.17,-93.96 39.51,-126.88 26.33,-32.92 60.52,-49.39 102.56,-49.39 26.85,0 50.4,7.1 70.66,21.28 20.26,14.18 33.93,29.37 41.02,45.58zm-172.83 30.01c-15.45,21.02 -23.17,47.49 -23.17,79.4 0,31.91 7.72,58.37 23.17,79.39 15.45,21.02 36.85,31.53 64.2,31.53 27.35,0 48.88,-10.51 64.58,-31.53 15.7,-21.02 23.55,-47.48 23.55,-79.39 0,-31.91 -7.85,-58.38 -23.55,-79.4 -15.7,-21.02 -37.23,-31.53 -64.58,-31.53 -27.35,0 -48.75,10.51 -64.2,31.53zm384.43 171.7c18.48,-22.54 27.73,-53.31 27.73,-92.31 0,-39 -9.25,-69.77 -27.73,-92.31 -18.49,-22.54 -43.18,-33.81 -74.08,-33.81 -31.4,0 -55.97,11.14 -73.7,33.43 -17.72,22.28 -26.59,53.18 -26.59,92.69 0,39.5 8.87,70.4 26.59,92.69 17.73,22.28 42.3,33.42 73.7,33.42 30.9,0 55.59,-11.26 74.08,-33.8zm-106.75 -682.62l0 -72.94 59.26 0 0 72.94 124.6 0 0 65.34 -124.6 0 0 262.86 -75.97 0 -331.25 -234.75 0 -93.45 347.96 0zm0 258.3l0 -193.72 -272.74 0 0 16.71 256.03 177.01 16.71 0zm183.85 -502.93l0 79.01 -88.13 0 0 -79.01 88.13 0zm-473.3 -132.2c-46.1,-35.45 -69.14,-82.81 -69.14,-142.06 0,-59.26 23.17,-106.75 69.52,-142.45 46.34,-35.7 115.35,-53.56 207.02,-53.56 91.67,0 160.55,17.86 206.64,53.56 46.09,35.71 69.14,83.2 69.14,142.45 0,59.26 -23.05,106.62 -69.14,142.06 -46.09,35.46 -114.98,53.18 -206.64,53.18 -92.19,0 -161.31,-17.72 -207.4,-53.18zm366.57 -45.58c38.24,-21.28 57.36,-53.44 57.36,-96.49 0,-43.05 -19.12,-75.34 -57.36,-96.87 -38.25,-21.53 -91.3,-32.29 -159.16,-32.29 -68.38,0 -121.69,10.76 -159.92,32.29 -38.24,21.53 -57.36,53.82 -57.36,96.87 0,43.05 19.12,75.21 57.36,96.49 38.24,21.27 91.55,31.91 159.92,31.91 67.87,0 120.92,-10.64 159.16,-31.91zm-8.74 -866.84l0 -64.58c38.49,7.59 69.01,25.45 91.55,53.56 22.54,28.11 33.81,63.94 33.81,107.5 0,57.74 -18.87,103.2 -56.6,136.38 -37.74,33.17 -85.98,49.76 -144.73,49.76 -59.26,0 -107.63,-16.46 -145.1,-49.38 -37.48,-32.92 -56.22,-78.51 -56.22,-136.76 0,-44.06 11.02,-79.9 33.05,-107.5 22.03,-27.6 51.28,-44.7 87.75,-51.28l0 64.57c-43.05,13.68 -64.58,45.08 -64.58,94.21 0,41.03 13.55,71.55 40.65,91.55 27.1,20.01 61.41,30.01 102.94,30.01 42.04,0 76.99,-10.13 104.85,-30.39 27.86,-20.26 41.79,-50.65 41.79,-91.17 0,-53.69 -23.05,-85.85 -69.14,-96.48zm115.48 -161.06l-382.9 0 0 -102.57 174.73 -94.2 0 -16.72 -174.73 -94.21 0 -101.05 382.9 0 0 63.06 -307.69 0 0 16.72 164.1 88.89 0 71.42 -164.1 88.89 0 16.71 307.69 0 0 63.06z"/>
   <path fill="#666666" fill-rule="nonzero" fill-opacity="0.800000" d="M4774.82 13980.11c0,48.62 -16.33,89.14 -49,121.56 -32.67,32.41 -74.08,48.62 -124.22,48.62 -52.17,0 -95.73,-16.33 -130.68,-49 -34.95,-32.67 -52.42,-76.61 -52.42,-131.82 0,-60.27 20.76,-107.88 62.3,-142.82 41.53,-34.95 107.88,-52.43 199.04,-52.43 85.6,0 155.49,17.1 209.68,51.29 54.2,34.19 81.3,84.46 81.3,150.8 0,44.06 -11.78,80.15 -35.33,108.26 -23.55,28.11 -54.07,45.21 -91.55,51.29l0 -66.1c45.08,-13.17 67.62,-44.32 67.62,-93.45 0,-42.04 -16.72,-74.96 -50.15,-98.77 -33.43,-23.81 -79.52,-36.72 -138.27,-38.75l0 16.72c13.67,11.14 25.7,27.48 36.09,49 10.38,21.53 15.57,46.73 15.57,75.6zm-264.38 -94.97c-21.78,22.28 -32.67,50.14 -32.67,83.57 0,33.43 10.64,60.91 31.91,82.43 21.27,21.53 50.9,32.29 88.89,32.29 37.99,0 67.11,-10.89 87.37,-32.67 20.26,-21.78 30.39,-49.63 30.39,-83.57 0,-33.43 -10.38,-61.03 -31.15,-82.81 -20.77,-21.78 -49.38,-32.67 -85.85,-32.67 -37.48,0 -67.11,11.14 -88.89,33.43zm161.81 -493.82l16.72 0c7.09,-20.76 21.91,-39.76 44.44,-56.98 22.54,-17.22 50.02,-25.83 82.44,-25.83 44.57,0 81.54,17.6 110.92,52.8 29.38,35.2 44.07,81.68 44.07,139.42 0,57.74 -14.69,104.21 -44.07,139.41 -29.38,35.2 -66.35,52.8 -110.92,52.8 -31.91,0 -59.26,-8.61 -82.06,-25.83 -22.79,-17.22 -37.73,-36.21 -44.82,-56.98l-16.72 0c-7.09,16.71 -20.51,32.04 -40.26,45.97 -19.76,13.92 -43.56,20.89 -71.42,20.89 -42.04,0 -76.23,-16.46 -102.56,-49.39 -26.34,-32.92 -39.51,-75.21 -39.51,-126.87 0,-51.67 13.17,-93.96 39.51,-126.88 26.33,-32.92 60.52,-49.39 102.56,-49.39 26.85,0 50.4,7.1 70.66,21.28 20.26,14.18 33.93,29.37 41.02,45.58zm-172.83 30.01c-15.45,21.02 -23.17,47.49 -23.17,79.4 0,31.91 7.72,58.37 23.17,79.39 15.45,21.02 36.85,31.53 64.2,31.53 27.35,0 48.88,-10.51 64.58,-31.53 15.7,-21.02 23.55,-47.48 23.55,-79.39 0,-31.91 -7.85,-58.38 -23.55,-79.4 -15.7,-21.02 -37.23,-31.53 -64.58,-31.53 -27.35,0 -48.75,10.51 -64.2,31.53zm384.43 171.7c18.48,-22.54 27.73,-53.31 27.73,-92.31 0,-39 -9.25,-69.77 -27.73,-92.31 -18.49,-22.54 -43.18,-33.81 -74.08,-33.81 -31.4,0 -55.97,11.14 -73.7,33.43 -17.72,22.28 -26.59,53.18 -26.59,92.69 0,39.5 8.87,70.4 26.59,92.69 17.73,22.28 42.3,33.42 73.7,33.42 30.9,0 55.59,-11.26 74.08,-33.8zm77.11 -462.29l0 79.01 -88.13 0 0 -79.01 88.13 0zm-473.3 -132.2c-46.1,-35.45 -69.14,-82.81 -69.14,-142.06 0,-59.26 23.17,-106.75 69.52,-142.45 46.34,-35.7 115.35,-53.56 207.02,-53.56 91.67,0 160.55,17.86 206.64,53.56 46.09,35.71 69.14,83.2 69.14,142.45 0,59.26 -23.05,106.62 -69.14,142.06 -46.09,35.46 -114.98,53.18 -206.64,53.18 -92.19,0 -161.31,-17.72 -207.4,-53.18zm366.57 -45.58c38.24,-21.28 57.36,-53.44 57.36,-96.49 0,-43.05 -19.12,-75.34 -57.36,-96.87 -38.25,-21.53 -91.3,-32.29 -159.16,-32.29 -68.38,0 -121.69,10.76 -159.92,32.29 -38.24,21.53 -57.36,53.82 -57.36,96.87 0,43.05 19.12,75.21 57.36,96.49 38.24,21.27 91.55,31.91 159.92,31.91 67.87,0 120.92,-10.64 159.16,-31.91zm-8.74 -866.84l0 -64.58c38.49,7.59 69.01,25.45 91.55,53.56 22.54,28.11 33.81,63.94 33.81,107.5 0,57.74 -18.87,103.2 -56.6,136.38 -37.74,33.17 -85.98,49.76 -144.73,49.76 -59.26,0 -107.63,-16.46 -145.1,-49.38 -37.48,-32.92 -56.22,-78.51 -56.22,-136.76 0,-44.06 11.02,-79.9 33.05,-107.5 22.03,-27.6 51.28,-44.7 87.75,-51.28l0 64.57c-43.05,13.68 -64.58,45.08 -64.58,94.21 0,41.03 13.55,71.55 40.65,91.55 27.1,20.01 61.41,30.01 102.94,30.01 42.04,0 76.99,-10.13 104.85,-30.39 27.86,-20.26 41.79,-50.65 41.79,-91.17 0,-53.69 -23.05,-85.85 -69.14,-96.48zm115.48 -161.06l-382.9 0 0 -102.57 174.73 -94.2 0 -16.72 -174.73 -94.21 0 -101.05 382.9 0 0 63.06 -307.69 0 0 16.72 164.1 88.89 0 71.42 -164.1 88.89 0 16.71 307.69 0 0 63.06z"/>
   <g>
    <line fill="none" stroke="gray" stroke-width="10.58" stroke-miterlimit="22.9256" x1="4980.62" y1="8467.29" x2="6096.01" y2= "8467.29" />
    <line fill="none" stroke="gray" stroke-width="10.58" stroke-miterlimit="22.9256" x1="4977.89" y1="4292.48" x2="6096.01" y2= "4292.48" />
    <line fill="none" stroke="gray" stroke-width="10.58" stroke-miterlimit="22.9256" x1="5399.78" y1="8883.16" x2="5399.78" y2= "3930.16" />
   </g>
   <g>
    <line fill="none" stroke="gray" stroke-width="10.58" stroke-miterlimit="22.9256" x1="4980.62" y1="15034.93" x2="6096.01" y2= "15034.93" />
    <line fill="none" stroke="gray" stroke-width="10.58" stroke-miterlimit="22.9256" x1="4977.89" y1="10476.97" x2="6096.01" y2= "10476.97" />
    <line fill="none" stroke="gray" stroke-width="10.58" stroke-miterlimit="22.9256" x1="5399.78" y1="15456.95" x2="5399.78" y2= "10128.63" />
   </g>
   <g>
    <line fill="none" stroke="gray" stroke-width="10.58" stroke-miterlimit="22.9256" x1="6339.1" y1="16434.15" x2="6339.1" y2= "15316.04" />
    <line fill="none" stroke="gray" stroke-width="10.58" stroke-miterlimit="22.9256" x1="18737.2" y1="16012.27" x2="5976.9" y2= "16012.27" />
    <line fill="none" stroke="gray" stroke-width="10.58" stroke-miterlimit="22.9256" x1="18369.81" y1="16431.43" x2="18369.81" y2= "15316.04" />
   </g>
  </g>
 </g>
</svg>
