<?xml version="1.0" encoding="UTF-8"?>
<!DOCTYPE svg PUBLIC "-//W3C//DTD SVG 1.1//EN" "http://www.w3.org/Graphics/SVG/1.1/DTD/svg11.dtd">
<!-- Creator: CorelDRAW 2021.5 -->
<svg xmlns="http://www.w3.org/2000/svg" xml:space="preserve" width="297mm" height="210mm" version="1.1" shape-rendering="geometricPrecision" text-rendering="geometricPrecision" image-rendering="optimizeQuality" fill-rule="evenodd" clip-rule="evenodd"
viewBox="0 0 29698.94 20999.25"
 xmlns:xlink="http://www.w3.org/1999/xlink"
 xmlns:xodm="http://www.corel.com/coreldraw/odm/2003">
 <g id="Тени">
  <metadata id="CorelCorpID_0Corel-Layer"/>
  <path fill="black" fill-opacity="0.101961" d="M7400.11 11896.25c61.66,-909.73 394.9,-1160.17 759.94,-1176.38 38.64,-1.69 136.4,0.62 181.11,-0.68 -311.46,-43.23 -723.41,-4.05 -868.74,-46.83 -87.4,-25.72 -91.96,-96.36 -99.9,-179.15 -9.66,-100.1 -20.98,-470.9 -12.37,-515.32l28.89 -495.36c5.56,-95.76 106.74,-199.78 85.41,-197.9l-155.74 13.87 -22.6 127.02 0 3815.66c47.61,-1032.9 43.7,-456.09 104,-1344.92zm3181.71 -1187.17c217.04,11.05 391.17,49.17 430.98,61.31 385.63,117.56 655.86,306.25 716.88,1176.96 27.7,395.11 98.59,1293.82 98.59,1293.82 0,0 94.1,-1015.75 104.22,-1290.83 50.99,-1384 653.79,-1173.34 1538.47,-1215.83 156.22,-7.48 602.51,-13.32 736.81,-23.69 -33.81,0.6 -331.92,0.41 -365.24,0.65 -764.12,5.57 -1538.65,15.83 -1839.6,-52.79 -79.17,-18.07 -61.51,-140.91 -75.12,-269.48 -20.41,-192.81 -40.3,-424.58 -30.91,-473.27l46.59 -456.78c6.91,-67.85 46.55,-136.24 92.88,-164.92l-167.76 0.39 -36.15 54.88 -46.17 -53.27 -188.21 -6.51c72.78,8.71 86.25,129.29 97.15,218.77l51.53 423.39c1.88,15.52 -0.71,30.62 -3.72,44.88l1.47 0.02c-5.02,60.41 10.74,325.21 -16.08,509.09 -11.62,79.81 5.56,140.53 -51.91,169.1 -114.77,57.1 -637.73,39.37 -1094.69,54.11zm4500.03 8.11c281.77,3.86 570.71,55.73 773.84,191.58 376.65,251.86 386.77,419.78 438.95,1149.24 76.52,1069.45 74.69,1661.08 74.65,1090.42l-0.4 -3805.67 -52.27 -54.4 -129.69 -3.65c35.47,31.8 56.38,140.48 63.13,197.76l51.2 433.45c1.85,15.52 -0.72,30.62 -3.71,44.88l1.44 0.02c-7.16,86.64 38.06,629.46 -71.52,688.07 -134.74,72.09 -701.17,15.39 -1145.63,68.3z"/>
  <path fill="black" fill-opacity="0.101961" d="M7994.34 1755.24c716.68,70.24 937.94,207.46 1511.4,214.96 611.23,7.98 785.35,-107.48 1736.16,-230.44 -534.64,9.71 -1057.74,34.45 -1592.39,44.18l-1655.16 -28.7z"/>
  <path fill="black" fill-opacity="0.101961" d="M12435 1728.01c888.55,82.83 1018.08,219.86 1591.55,227.06 611.23,7.68 926.52,-201.34 1609.86,-214.9 -534.63,9.33 -1057.73,22.62 -1592.38,31.98l-1609.03 -44.14z"/>
  <polygon fill="black" fill-opacity="0.101961" points="7307.38,4205.65 7357.09,4051.59 7427.71,4011.63 7433.45,4913.83 11797.13,4913.83 11808.97,4065.57 11870.95,4117.19 11923.32,4074.8 11932.36,4913.83 16310.12,4913.83 16315.72,4010 16398.25,4038.15 16436.27,4165.94 16438.76,6069.91 16304.13,6069.91 16308.87,5135.6 7434.73,5135.6 7439.52,6059.4 7304.9,6059.4 "/>
  <path fill="black" fill-opacity="0.101961" d="M7911.17 3952.18c769.56,-71.2 1064.21,-174.79 1637.68,-180.98 611.23,-6.61 702.35,104.71 1609.86,193.78 -534.64,-8.04 -1077.57,19.35 -1612.22,11.3l-1635.32 -24.1z"/>
  <path fill="black" fill-opacity="0.101961" d="M12388.86 3954.7c941.46,-158.56 1055.44,-197.09 1628.9,-207.89 611.22,-11.51 803.69,47.58 1618.65,214.44 -534.63,-14.01 -1070.96,-9.35 -1605.61,-23.4l-1641.94 16.85z"/>
  <polygon fill="black" fill-opacity="0.101961" points="21048.93,3124.96 22268.01,3127.45 22301.6,3262.28 21076.15,3259.32 "/>
  <polygon fill="black" fill-opacity="0.101961" points="20526.36,3124.96 20972.57,3127.45 20875.32,3234.27 20726.44,3254.63 20602.53,3214.75 "/>
  <rect fill="none" width="29698.94" height="20999.25"/>
 </g>
 <g id="Схема">
  <metadata id="CorelCorpID_1Corel-Layer"/>
  <g id="_2274319964384">
   <rect fill="none" stroke="#2B2A29" stroke-width="10.58" stroke-miterlimit="22.9256" x="24702.4" y="6051.3" width="176.76" height="154.17"/>
   <rect fill="none" stroke="#2B2A29" stroke-width="10.58" stroke-miterlimit="22.9256" x="20110.84" y="6060.25" width="176.76" height="154.17"/>
   <path fill="none" stroke="#2B2A29" stroke-width="10.58" stroke-miterlimit="22.9256" d="M19914.08 3381.3l0 2653.08c0,11.05 9.04,20.1 20.1,20.1l5168.66 0c11.07,0 20.1,-9.05 20.1,-20.1l0 -2520.93c0,-139.78 -114.34,-254.11 -254.09,-254.11l-4832.8 0c-67.08,0 -121.97,54.88 -121.97,121.97z"/>
   <circle fill="none" stroke="#2B2A29" stroke-width="10.58" stroke-miterlimit="22.9256" cx="20754.65" cy="2999.24" r="256.94"/>
   <path fill="none" stroke="#2B2A29" stroke-width="10.58" stroke-miterlimit="22.9256" d="M25184.74 4100.87c0,0 101.96,18.72 101.96,121.37 0,102.65 6.42,410.12 4.42,461.35 -2,51.23 -8.94,217.51 -105.67,217.51"/>
   <path fill="none" stroke="black" stroke-width="10.58" stroke-miterlimit="22.9256" d="M21281.22 3259.32l-212.01 -1190.28c-19.87,-111.66 -57.12,-221.7 93.1,-247.1l443.34 -74.93c39.85,-6.73 148.49,-23.81 179.6,150.95l241.35 1354.97"/>
   <path fill="none" stroke="black" stroke-width="10.58" stroke-miterlimit="22.9256" d="M21112.32 1836.15c-106.85,22.56 -183.41,148.65 -196.58,274.35 -18.51,176.57 151.95,1116.95 160.42,1148.82"/>
   <path fill="none" stroke="black" stroke-width="10.58" stroke-miterlimit="22.9256" d="M21638.14 1743.3c194.95,-31.29 330.6,317.58 356.76,383.36 139.65,351.58 286.93,1061.61 299.67,1132.69"/>
  </g>
  <g id="_2274319966976">
   <g>
    <polyline fill="none" stroke="#2B2A29" stroke-width="10.58" stroke-miterlimit="22.9256" stroke-dasharray="52.898112 52.898112" points="7289.21,13307.12 7290.87,18686.77 16360.99,18686.77 16363.26,13316.19 "/>
    <path fill="none" stroke="#2B2A29" stroke-width="10.58" stroke-miterlimit="22.9256" d="M7383.19 10549.27c12.32,80.33 34.02,122.89 148.32,133.74 588.75,55.96 3592.28,35.59 4079.93,-2.36 56.5,-6.61 76.11,-27.3 95.68,-79.01 39.67,-97.07 36.65,-542.64 36.65,-690.32 8.99,-85.67 -58.79,-476.81 -80.27,-567.52 -12.28,-41.36 -54.14,-56.25 -89.26,-55.56 -1300.51,-3.99 -2350.02,-1.88 -3674.42,-4.68 -70.3,2.36 -224.16,-7.77 -338.46,0.69 -72,5.34 -113.59,28.61 -127.78,61.22 -74.96,138.43 -60.77,392.61 -73.98,467.07 -6.85,133.31 19.02,588.29 23.57,736.72z"/>
    <path fill="none" stroke="#2B2A29" stroke-width="10.58" stroke-miterlimit="22.9256" d="M7362.21 10070.27c-6.58,-249.62 20.93,-240.49 168.59,-237.49 122.03,-3.29 4002.75,-13.9 4043.13,-3.64 75.78,5.01 188.65,-32.36 169.96,115.69"/>
    <path fill="none" stroke="#2B2A29" stroke-width="10.58" stroke-miterlimit="22.9256" d="M7870.22 9283.52c-0.15,-8.76 -2.57,-65.25 -2.78,-74.01 3.92,-56.38 29.53,-80.56 178.29,-80.56 1034.33,0 1992.54,0 3026.88,0 132.03,0 196.71,-1.12 193.23,91.58l0 66.25"/>
    <path fill="none" stroke="#2B2A29" stroke-width="10.58" stroke-miterlimit="22.9256" d="M11934.14 10543.19c12.33,80.33 34.03,122.88 148.32,133.74 588.76,55.96 3592.29,35.59 4079.94,-2.36 56.5,-6.61 76.11,-27.31 95.67,-79.02 39.68,-97.06 36.66,-542.63 36.66,-690.32 8.99,-85.66 -58.79,-476.8 -80.27,-567.51 -12.28,-41.36 -54.14,-56.25 -89.26,-55.56 -1300.51,-3.99 -2350.03,-1.89 -3674.42,-4.68 -70.31,2.36 -224.16,-7.77 -338.46,0.69 -72,5.34 -113.59,28.61 -127.78,61.22 -74.96,138.43 -60.77,392.6 -73.98,467.07 -6.85,133.31 19.02,588.29 23.56,736.72z"/>
    <path fill="none" stroke="#2B2A29" stroke-width="10.58" stroke-miterlimit="22.9256" d="M11913.17 10064.19c-6.58,-249.62 20.93,-240.49 168.59,-237.5 122.03,-3.29 4002.74,-13.89 4043.13,-3.63 75.78,5.01 188.65,-32.36 169.96,115.69"/>
    <path fill="none" stroke="#2B2A29" stroke-width="10.58" stroke-miterlimit="22.9256" d="M12421.19 9277.44c-0.15,-8.76 -2.57,-65.26 -2.78,-74.01 3.92,-56.38 29.53,-80.56 178.28,-80.56 1034.33,0 1992.55,0 3026.89,0 132.03,0 196.71,-1.12 193.23,91.57l0 66.26"/>
   </g>
   <path fill="none" stroke="black" stroke-width="10.58" stroke-miterlimit="22.9256" d="M16499.61 13266.98c-87.99,-45.01 -105.58,-274.86 -105.58,-802.86 0,-212.85 13.4,-2992.79 2.91,-3363.8 -12.07,-430.89 6.98,-665.14 107.52,-705.1 99.65,-54.56 898.28,-49.48 986.49,-2.73 101.4,36.71 127.61,303.71 115.49,732.31 -10.45,369.12 2.89,3134.71 2.89,3346.48 0,525.21 -17.57,753.94 -106.31,796.1 -90.57,48.17 -922.49,36.91 -1003.41,-0.4z"/>
   <path fill="none" stroke="black" stroke-width="10.58" stroke-miterlimit="22.9256" d="M16437.98 8472.62c-30.31,-138.32 -574.53,-142.96 -1378.22,-130.1 -692.06,11.07 -5877.47,-3.12 -6274.53,-3.12 -984.8,0 -1478.9,-16.8 -1522.13,146.32"/>
   <path fill="none" stroke="black" stroke-width="10.58" stroke-miterlimit="22.9256" d="M7191.17 13252.9c87.99,-45.14 105.58,-275.67 105.58,-805.23 0,-213.47 -13.41,-3001.62 -2.92,-3373.73 12.08,-432.15 -6.97,-667.09 -107.51,-707.18 -99.65,-54.71 -898.28,-49.63 -986.49,-2.73 -101.4,36.81 -127.61,304.6 -115.49,734.46 10.45,370.22 -2.9,3143.97 -2.9,3356.36 0,526.76 17.57,756.16 106.31,798.45 90.57,48.32 922.49,37.02 1003.42,-0.4z"/>
   <rect fill="none" stroke="black" stroke-width="10.58" stroke-miterlimit="22.9256" x="11837.15" y="9284.72" width="4532.13" height="4097.1" rx="37.35" ry="85.36"/>
   <rect fill="none" stroke="black" stroke-width="10.58" stroke-miterlimit="22.9256" x="7296.13" y="9284.62" width="4532.13" height="4097.19" rx="37.35" ry="85.36"/>
  </g>
  <g id="_2274319968800">
   <path fill="none" stroke="black" stroke-width="10.58" stroke-miterlimit="22.9256" d="M17449.27 3180.65l-841.93 0c-18.53,0 -42.83,6.39 -59.66,10.72 -105.82,23.35 -125.86,161.4 -113.12,415.39 10.98,218.68 -3.07,1857.27 -3.07,1982.74 0,311.2 18.48,446.7 111.44,472.41 22.37,8.83 26.96,12.7 64.41,12.7l841.93 0c36.19,0 39.8,-5.48 62.24,-10.93 92.94,-25.59 111.44,-160.37 111.44,-469.98 0,-124.82 -14.05,-1754.93 -3.07,-1972.49 12.74,-252.65 -14.8,-410.03 -120.63,-433.25 -17.92,-5.8 -29.38,-7.3 -49.98,-7.3z"/>
   <path fill="none" stroke="black" stroke-width="10.58" stroke-miterlimit="22.9256" d="M7397.95 4056.89c1454.91,0 2909.82,0 4364.73,0 60.32,-4.5 72.19,36.44 108.28,54.66 34.06,-18.22 60.6,-58.29 102.2,-54.66l4370.76 0c50.19,0 91.27,42.97 91.27,95.44l0 668.04c0,52.5 -41.08,95.44 -91.27,95.44l-8945.97 0c-50.22,0 -91.29,-42.94 -91.29,-95.44l0 -668.04c0,-52.47 41.07,-95.44 91.29,-95.44z"/>
   <rect fill="none" stroke="black" stroke-width="10.58" stroke-miterlimit="22.9256" x="7306.81" y="4915.8" width="9128.53" height="1143.6" rx="53.14" ry="57.18"/>
   <rect fill="none" stroke="black" stroke-width="10.58" stroke-miterlimit="22.9256" x="6224.45" y="6078.85" width="949.58" height="157.85"/>
   <rect fill="none" stroke="black" stroke-width="10.58" stroke-miterlimit="22.9256" x="16550.56" y="6078.01" width="955.22" height="157.85"/>
   <path fill="none" stroke="black" stroke-width="10.58" stroke-miterlimit="22.9256" d="M7298.97 3510.84l0 -289.61c-2.16,-23.42 20.11,-33.01 73.53,-36.53m8948.21 -0.86c86.4,4.42 123.42,21.41 115.01,42.8l1.7 333.22"/>
   <path fill="none" stroke="black" stroke-width="10.58" stroke-miterlimit="22.9256" d="M7586.3 1736.94c668.74,0 1262.97,31.2 1931.71,31.2 677.78,0 1457.78,-30.36 2135.55,-30.36 123.44,0 188.45,45.35 188.45,184.25 0,239.82 -32.44,691.86 -32.44,931.68 0,336.34 37.6,591.02 37.6,927.36 0,138.91 -35.92,192.6 -159.35,192.6 -713.89,0 -1481.01,-26.1 -2194.87,-26.1 -592.31,0 -1193.43,12.63 -1785.71,21.95 -40.29,0.63 -207.41,33.74 -247.73,33.74 -123.45,0 -97.64,-146.41 -97.64,-285.32 0,-290.62 30.31,-543.85 30.31,-834.47 0,-285.54 -30.31,-714.53 -30.31,-1000.06 0,-138.95 101,-146.46 224.42,-146.46z"/>
   <line fill="none" stroke="black" stroke-width="10.58" stroke-miterlimit="22.9256" x1="11871.09" y1="4915.8" x2="11870.95" y2= "4117.18" />
   <path fill="none" stroke="black" stroke-width="10.58" stroke-miterlimit="22.9256" d="M12040.24 1727.8c663.04,0 1300.9,28.83 1963.93,28.83 672,0 1449.77,-29.8 2121.74,-29.8 122.39,0 185.17,56.95 185.17,195.85 0,239.82 -34.89,679.7 -34.89,919.52 0,336.34 31.53,597.94 31.53,934.27 0,138.93 -58.67,181.4 -181.04,181.4 -707.78,0 -1440.53,-20.07 -2148.32,-20.07 -587.25,0 -1182.28,10.88 -1769.51,20.21 -39.95,0.63 -127.74,-1.19 -167.7,-1.19 -122.4,0 -164.03,-34.29 -164.03,-173.19 0,-290.62 19.36,-621.06 19.36,-911.67 0,-285.55 -19.97,-683.43 -19.97,-968.97 0,-138.91 41.36,-175.19 163.73,-175.19z"/>
   <path fill="none" stroke="black" stroke-width="10.58" stroke-miterlimit="22.9256" d="M7128.35 3180.07l-841.93 0c-18.52,0 -42.83,6.39 -59.65,10.72 -105.83,23.35 -125.87,161.4 -113.12,415.39 10.97,218.67 -3.08,1857.27 -3.08,1982.74 0,311.2 18.48,446.7 111.44,472.4 22.37,8.84 26.96,12.71 64.41,12.71l841.93 0c36.19,0 39.8,-5.48 62.25,-10.93 92.93,-25.59 111.44,-160.37 111.44,-469.98 0,-124.82 -14.06,-1754.94 -3.08,-1972.49 12.75,-252.66 -14.8,-410.03 -120.62,-433.25 -17.92,-5.81 -29.39,-7.3 -49.99,-7.3z"/>
  </g>
 </g>
 <g id="Шрифт">
  <metadata id="CorelCorpID_2Corel-Layer"/>
  <path fill="#666666" fill-rule="nonzero" fill-opacity="0.800000" d="M20303.37 8622.56l0 18.08c24.66,11.51 44.53,29.6 59.6,54.26 15.08,24.67 22.61,51.8 22.61,81.39 0,49.33 -16.99,89.2 -50.97,119.62 -33.98,30.42 -83.31,45.63 -147.97,45.63l-262.25 0 0 -586.97 255.67 0c59.74,0 105.92,14.11 138.53,42.34 32.61,28.22 48.92,63.71 48.92,106.46 0,56.45 -21.38,96.19 -64.13,119.21zm-305 -202.23l0 183.32 180.04 0c76.18,0 114.27,-31.24 114.27,-93.72 0,-30.7 -10.96,-53.3 -32.88,-67.83 -21.93,-14.52 -49.6,-21.78 -83.04,-21.78l-178.39 0zm0 455.43l183.33 0c37.81,0 68.78,-8.08 92.9,-24.25 24.11,-16.17 36.17,-43.16 36.17,-80.98 0,-35.63 -11.92,-61.52 -35.76,-77.69 -23.84,-16.17 -54.67,-24.25 -92.49,-24.25l-184.15 0 0 207.16zm494.9 -348.57l69.88 0 0 138.12 114.28 0c49.87,0 88.38,12.06 115.51,36.17 27.13,24.12 40.69,57.82 40.69,101.12 0,43.85 -13.56,77.97 -40.69,102.36 -27.13,24.39 -65.64,36.58 -115.51,36.58l-184.15 0 0 -414.34zm69.88 197.3l0 156.19 104.41 0c34.53,0 59.2,-6.57 73.99,-19.73 14.8,-13.15 22.2,-32.61 22.2,-58.37 0,-25.76 -7.4,-45.21 -22.2,-58.37 -14.79,-13.15 -39.46,-19.73 -73.99,-19.73l-104.41 0zm337.06 -197.3l69.88 0 0 414.34 -69.88 0 0 -414.34zm485.04 289.38l69.88 0c-8.22,41.65 -27.54,74.67 -57.96,99.06 -30.42,24.39 -69.2,36.59 -116.33,36.59 -62.48,0 -111.67,-20.42 -147.56,-61.25 -35.9,-40.83 -53.85,-93.04 -53.85,-156.6 0,-64.13 17.81,-116.47 53.44,-157.02 35.62,-40.56 84.95,-60.84 147.97,-60.84 47.68,0 86.46,11.92 116.33,35.77 29.87,23.84 48.37,55.49 55.49,94.95l-69.88 0c-14.8,-46.59 -48.78,-69.88 -101.94,-69.88 -44.4,0 -77.42,14.66 -99.07,43.98 -21.65,29.33 -32.47,66.46 -32.47,111.4 0,45.49 10.96,83.31 32.88,113.45 21.93,30.15 54.81,45.22 98.66,45.22 58.09,0 92.9,-24.94 104.41,-74.81zm203.46 -238.41c36.45,-41.1 86.18,-61.66 149.2,-61.66 63.03,0 112.77,20.56 149.21,61.66 36.45,41.11 54.67,93.18 54.67,156.2 0,63.02 -18.22,115.09 -54.67,156.19 -36.45,41.1 -86.19,61.66 -149.21,61.66 -63.03,0 -112.76,-20.56 -149.2,-61.66 -36.45,-41.11 -54.67,-93.18 -54.67,-156.19 0,-63.03 18.22,-115.1 54.67,-156.2zm49.74 267.59c23.02,30.42 56.18,45.63 99.47,45.63 43.3,0 76.46,-15.21 99.48,-45.63 23.02,-30.42 34.53,-67.55 34.53,-111.39 0,-43.85 -11.51,-80.98 -34.53,-111.4 -23.02,-30.42 -56.18,-45.63 -99.48,-45.63 -43.29,0 -76.45,15.21 -99.47,45.63 -23.02,30.42 -34.53,67.55 -34.53,111.4 0,43.84 11.51,80.97 34.53,111.39zm361.72 -257.72l0 -60.84 356.79 0 0 60.84 -143.04 0 0 353.5 -69.88 0 0 -353.5 -143.86 0zm712.75 353.5l0 -43.57 -18.08 0c-28.5,36.17 -71.53,54.26 -129.08,54.26 -45.49,0 -81.66,-13.16 -108.51,-39.46 -26.86,-26.31 -40.29,-58.1 -40.29,-95.37 0,-37.82 13.16,-70.15 39.46,-97.01 26.31,-26.86 66.05,-40.28 119.21,-40.28l134.83 0 0 -16.45c0,-26.3 -8.22,-47.27 -24.67,-62.89 -16.44,-15.62 -41.92,-23.43 -76.45,-23.43 -60.29,0 -92.35,20.01 -96.19,60.02l-69.88 0c2.74,-37.82 19.04,-67.42 48.92,-88.79 29.87,-21.38 68.37,-32.07 115.5,-32.07 53.17,0 94.96,12.34 125.38,37 30.41,24.66 45.62,60.01 45.62,106.05l0 281.98 -65.77 0zm-129.89 -50.15c34.53,0 64.4,-11.37 89.61,-34.12 25.21,-22.74 37.82,-50.56 37.82,-83.44l0 -37.82 -124.14 0c-66.32,0 -99.48,26.31 -99.48,78.92 0,23.57 8.36,42.21 25.08,55.91 16.71,13.7 40.42,20.55 71.11,20.55zm-2385.71 822.98l69.88 0c-8.22,41.65 -27.54,74.67 -57.96,99.06 -30.42,24.39 -69.2,36.59 -116.33,36.59 -62.48,0 -111.67,-20.42 -147.56,-61.25 -35.9,-40.83 -53.85,-93.04 -53.85,-156.6 0,-64.13 17.81,-116.47 53.44,-157.02 35.62,-40.56 84.95,-60.84 147.97,-60.84 47.68,0 86.46,11.92 116.33,35.77 29.87,23.84 48.37,55.49 55.49,94.95l-69.88 0c-14.8,-46.59 -48.78,-69.88 -101.94,-69.88 -44.4,0 -77.42,14.66 -99.07,43.98 -21.65,29.33 -32.47,66.46 -32.47,111.4 0,45.49 10.96,83.31 32.88,113.45 21.93,30.15 54.81,45.22 98.66,45.22 58.09,0 92.9,-24.94 104.41,-74.81zm272.93 124.96l-98.66 0 0 -414.34 68.24 0 0 320.62 18.09 0 181.67 -320.62 101.95 0 0 414.34 -68.24 0 0 -320.62 -18.08 0 -184.97 320.62zm775.23 -60.84l76.45 0 0 178.39 -68.23 0 0 -117.56 -358.44 0 0 117.56 -68.23 0 0 -178.39 55.08 0c33.98,-72.34 50.97,-152.35 50.97,-240.05l0 -113.45 312.4 0 0 353.5zm-69.88 0l0 -292.66 -177.57 0 0 52.61c0,93.73 -15.07,173.74 -45.22,240.05l222.79 0zm596.01 -170.99l0 23.84 -315.68 0c1.09,49.88 12.88,88.66 35.35,116.33 22.47,27.68 54.81,41.52 97.01,41.52 57,0 92.07,-21.37 105.23,-64.12l70.7 0c-7.12,37.26 -25.9,67.41 -56.31,90.43 -30.42,23.02 -70.3,34.53 -119.62,34.53 -63.03,0 -112.36,-20.56 -147.97,-61.66 -35.63,-41.11 -53.44,-94.55 -53.44,-160.3 0,-64.68 17.81,-116.47 53.44,-155.38 35.62,-38.91 84.4,-58.37 146.32,-58.37 58.65,0 103.86,18.5 135.65,55.5 31.79,36.99 48.23,82.89 49.33,137.7zm-186.61 -132.36c-35.63,0 -64.13,9.18 -85.5,27.54 -21.38,18.36 -34.53,41.79 -39.46,70.29l239.22 0c-2.19,-27.95 -13.42,-51.24 -33.7,-69.88 -20.28,-18.63 -47.14,-27.95 -80.57,-27.95zm664.26 364.19l-69.88 0 0 -182.5 -229.37 0 0 182.5 -69.88 0 0 -414.34 69.88 0 0 170.99 229.37 0 0 -170.99 69.88 0 0 414.34zm716.86 -414.34l206.34 0 0 414.34 -70.7 0 0 -163.59 -125.79 0c-10.96,0 -19.45,-0.28 -25.48,-0.82l-62.48 164.41 -73.17 0 69.88 -180.03c-42.75,-20.28 -64.13,-56.46 -64.13,-108.52 0,-40.01 12.47,-70.98 37.41,-92.9 24.94,-21.93 60.97,-32.89 108.11,-32.89zm135.65 59.19l-128.25 0c-30.15,0 -51.52,5.76 -64.13,17.27 -12.6,11.51 -18.91,28.22 -18.91,50.15 0,21.37 6.31,37.54 18.91,48.5 12.61,10.96 33.98,16.45 64.13,16.45l128.25 0 0 -132.37zm-2132.5 1252.94l-85.5 0 0 -95.37 85.5 0 0 95.37zm143.05 -512.16c38.36,-49.88 89.61,-74.81 153.72,-74.81 64.13,0 115.51,25.07 154.14,75.22 38.64,50.15 57.96,124.83 57.96,224.02 0,99.2 -19.32,173.73 -57.96,223.6 -38.64,49.88 -90.02,74.82 -154.14,74.82 -64.12,0 -115.37,-24.94 -153.72,-74.82 -38.37,-49.87 -57.55,-124.41 -57.55,-223.6 0,-99.75 19.18,-174.56 57.55,-224.43zm49.32 396.66c23.02,41.38 57.82,62.07 104.41,62.07 46.59,0 81.53,-20.69 104.82,-62.07 23.3,-41.38 34.94,-98.79 34.94,-172.22 0,-73.99 -11.64,-131.68 -34.94,-173.05 -23.29,-41.38 -58.23,-62.07 -104.82,-62.07 -46.59,0 -81.39,20.69 -104.41,62.07 -23.02,41.38 -34.53,99.07 -34.53,173.05 0,73.44 11.51,130.85 34.53,172.22zm938.02 -9.45l69.88 0c-8.22,41.65 -27.54,74.67 -57.96,99.06 -30.42,24.39 -69.2,36.59 -116.33,36.59 -62.48,0 -111.67,-20.42 -147.56,-61.25 -35.9,-40.83 -53.85,-93.04 -53.85,-156.6 0,-64.13 17.81,-116.47 53.44,-157.02 35.62,-40.56 84.95,-60.84 147.97,-60.84 47.68,0 86.46,11.92 116.33,35.77 29.87,23.84 48.37,55.49 55.49,94.95l-69.88 0c-14.8,-46.59 -48.78,-69.88 -101.94,-69.88 -44.4,0 -77.42,14.66 -99.07,43.98 -21.65,29.33 -32.47,66.46 -32.47,111.4 0,45.49 10.96,83.31 32.88,113.45 21.93,30.15 54.81,45.22 98.66,45.22 58.09,0 92.9,-24.94 104.41,-74.81zm174.27 124.96l0 -414.34 110.99 0 101.94 189.08 18.09 0 101.94 -189.08 109.34 0 0 414.34 -68.23 0 0 -332.95 -18.09 0 -96.19 177.57 -77.28 0 -96.18 -177.57 -18.09 0 0 332.95 -68.24 0zm180.02 -1312.12l0 138.12 122.5 0c49.88,0 88.38,12.06 115.51,36.17 27.13,24.12 40.69,57.82 40.69,101.12 0,43.85 -13.56,77.97 -40.69,102.36 -27.13,24.39 -65.63,36.58 -115.51,36.58l-192.37 0 0 -414.34 69.88 0zm0 353.5l112.63 0c34.53,0 59.2,-6.57 74,-19.73 14.79,-13.15 22.19,-32.61 22.19,-58.37 0,-25.76 -7.4,-45.21 -22.19,-58.37 -14.8,-13.15 -39.47,-19.73 -74,-19.73l-112.63 0 0 156.19zm933.9 60.84l-85.5 0 0 -95.37 85.5 0 0 95.37zm0 -318.97l-85.5 0 0 -95.37 85.5 0 0 95.37zm-3151.07 1017.81l78.92 0 0 64.12 -78.92 0 0 134.83 -70.7 0 0 -134.83 -284.45 0 0 -82.21 254.03 -358.43 101.12 0 0 376.52zm-279.51 0l209.63 0 0 -295.13 -18.09 0 -191.54 277.04 0 18.09zm460.37 -376.52l336.23 0 0 80.56 -143.86 123.32 0 17.27c50.98,1.09 92.22,16.99 123.73,47.68 31.52,30.69 47.27,73.17 47.27,127.43 0,58.64 -18.9,104.96 -56.72,138.94 -37.82,33.98 -86.6,50.97 -146.33,50.97 -57.55,0 -104.68,-16.17 -141.39,-48.51 -36.73,-32.33 -56.73,-73.44 -60.02,-123.32l72.35 0c3.29,32.34 16.85,58.37 40.69,78.11 23.84,19.73 53.3,29.59 88.38,29.59 40.01,0 71.8,-11.23 95.37,-33.7 23.56,-22.48 35.35,-53.17 35.35,-92.08 0,-38.37 -11.24,-68.38 -33.71,-90.02 -22.47,-21.65 -54.53,-32.48 -96.19,-32.48 -20.28,0 -36.99,1.65 -50.15,4.93l0 -76.45 140.58 -121.68 0 -18.08 -251.56 0 0 -62.48z"/>
  <path fill="#666666" fill-rule="nonzero" fill-opacity="0.800000" d="M4134.7 4910.38l494.9 249.09 0 75.64 -494.9 -249.92 -18.08 0 0 291.85 -62.48 0 0 -366.66 80.56 0zm-80.56 -108.52l0 -336.23 80.56 0 123.32 143.86 17.27 0c1.09,-50.98 16.99,-92.22 47.68,-123.73 30.69,-31.52 73.17,-47.27 127.43,-47.27 58.64,0 104.96,18.9 138.94,56.72 33.98,37.82 50.97,86.6 50.97,146.33 0,57.55 -16.17,104.68 -48.51,141.39 -32.33,36.73 -73.44,56.73 -123.32,60.02l0 -72.35c32.34,-3.29 58.37,-16.85 78.11,-40.69 19.73,-23.84 29.59,-53.3 29.59,-88.38 0,-40.01 -11.23,-71.8 -33.7,-95.37 -22.48,-23.56 -53.17,-35.35 -92.08,-35.35 -38.37,0 -68.38,11.24 -90.02,33.71 -21.65,22.47 -32.48,54.53 -32.48,96.19 0,20.28 1.65,36.99 4.93,50.15l-76.45 0 -121.68 -140.58 -18.08 0 0 251.56 -62.48 0zm575.46 -551.62l0 85.5 -95.37 0 0 -85.5 95.37 0zm-512.16 -143.05c-49.88,-38.36 -74.81,-89.61 -74.81,-153.72 0,-64.13 25.07,-115.51 75.22,-154.14 50.15,-38.64 124.83,-57.96 224.02,-57.96 99.2,0 173.73,19.32 223.6,57.96 49.88,38.64 74.82,90.02 74.82,154.14 0,64.12 -24.94,115.37 -74.82,153.72 -49.87,38.37 -124.41,57.55 -223.6,57.55 -99.75,0 -174.56,-19.18 -224.43,-57.55zm396.66 -49.32c41.38,-23.02 62.07,-57.82 62.07,-104.41 0,-46.59 -20.69,-81.53 -62.07,-104.82 -41.38,-23.3 -98.79,-34.94 -172.22,-34.94 -73.99,0 -131.68,11.64 -173.05,34.94 -41.38,23.29 -62.07,58.23 -62.07,104.82 0,46.59 20.69,81.39 62.07,104.41 41.38,23.02 99.07,34.53 173.05,34.53 73.44,0 130.85,-11.51 172.22,-34.53zm-9.45 -938.02l0 -69.88c41.65,8.22 74.67,27.54 99.06,57.96 24.39,30.42 36.59,69.2 36.59,116.33 0,62.48 -20.42,111.67 -61.25,147.56 -40.83,35.9 -93.04,53.85 -156.6,53.85 -64.13,0 -116.47,-17.81 -157.02,-53.44 -40.56,-35.62 -60.84,-84.95 -60.84,-147.97 0,-47.68 11.92,-86.46 35.77,-116.33 23.84,-29.87 55.49,-48.37 94.95,-55.49l0 69.88c-46.59,14.8 -69.88,48.78 -69.88,101.94 0,44.4 14.66,77.42 43.98,99.07 29.33,21.65 66.46,32.47 111.4,32.47 45.49,0 83.31,-10.96 113.45,-32.88 30.15,-21.93 45.22,-54.81 45.22,-98.66 0,-58.09 -24.94,-92.9 -74.81,-104.41zm124.96 -174.27l-414.34 0 0 -110.99 189.08 -101.94 0 -18.09 -189.08 -101.94 0 -109.34 414.34 0 0 68.23 -332.95 0 0 18.09 177.57 96.19 0 77.28 -177.57 96.18 0 18.09 332.95 0 0 68.24z"/>
  <path fill="#666666" fill-rule="nonzero" fill-opacity="0.800000" d="M4629.6 12585.29l-64.13 0 0 -136.47 -435.7 0 0 16.45 81.39 120.85 -75.63 0 -81.39 -120.03 0 -89.61 511.33 0 0 -125.79 64.13 0 0 334.59zm-512.16 -468.59c-49.88,-38.36 -74.81,-89.61 -74.81,-153.72 0,-64.13 25.07,-115.51 75.22,-154.14 50.15,-38.64 124.83,-57.96 224.02,-57.96 99.2,0 173.73,19.32 223.6,57.96 49.88,38.64 74.82,90.02 74.82,154.14 0,64.12 -24.94,115.37 -74.82,153.72 -49.87,38.37 -124.41,57.55 -223.6,57.55 -99.75,0 -174.56,-19.18 -224.43,-57.55zm396.66 -49.32c41.38,-23.02 62.07,-57.82 62.07,-104.41 0,-46.59 -20.69,-81.53 -62.07,-104.82 -41.38,-23.3 -98.79,-34.94 -172.22,-34.94 -73.99,0 -131.68,11.64 -173.05,34.94 -41.38,23.29 -62.07,58.23 -62.07,104.82 0,46.59 20.69,81.39 62.07,104.41 41.38,23.02 99.07,34.53 173.05,34.53 73.44,0 130.85,-11.51 172.22,-34.53zm-379.4 -760.43l494.9 249.09 0 75.64 -494.9 -249.92 -18.08 0 0 291.85 -62.48 0 0 -366.66 80.56 0zm494.9 -192.36l0 85.5 -95.37 0 0 -85.5 95.37 0zm-512.16 -143.05c-49.88,-38.36 -74.81,-89.61 -74.81,-153.72 0,-64.13 25.07,-115.51 75.22,-154.14 50.15,-38.64 124.83,-57.96 224.02,-57.96 99.2,0 173.73,19.32 223.6,57.96 49.88,38.64 74.82,90.02 74.82,154.14 0,64.12 -24.94,115.37 -74.82,153.72 -49.87,38.37 -124.41,57.55 -223.6,57.55 -99.75,0 -174.56,-19.18 -224.43,-57.55zm396.66 -49.32c41.38,-23.02 62.07,-57.82 62.07,-104.41 0,-46.59 -20.69,-81.53 -62.07,-104.82 -41.38,-23.3 -98.79,-34.94 -172.22,-34.94 -73.99,0 -131.68,11.64 -173.05,34.94 -41.38,23.29 -62.07,58.23 -62.07,104.82 0,46.59 20.69,81.39 62.07,104.41 41.38,23.02 99.07,34.53 173.05,34.53 73.44,0 130.85,-11.51 172.22,-34.53zm-9.45 -938.02l0 -69.88c41.65,8.22 74.67,27.54 99.06,57.96 24.39,30.42 36.59,69.2 36.59,116.33 0,62.48 -20.42,111.67 -61.25,147.56 -40.83,35.9 -93.04,53.85 -156.6,53.85 -64.13,0 -116.47,-17.81 -157.02,-53.44 -40.56,-35.62 -60.84,-84.95 -60.84,-147.97 0,-47.68 11.92,-86.46 35.77,-116.33 23.84,-29.87 55.49,-48.37 94.95,-55.49l0 69.88c-46.59,14.8 -69.88,48.78 -69.88,101.94 0,44.4 14.66,77.42 43.98,99.07 29.33,21.65 66.46,32.47 111.4,32.47 45.49,0 83.31,-10.96 113.45,-32.88 30.15,-21.93 45.22,-54.81 45.22,-98.66 0,-58.09 -24.94,-92.9 -74.81,-104.41zm124.96 -174.27l-414.34 0 0 -110.99 189.08 -101.94 0 -18.09 -189.08 -101.94 0 -109.34 414.34 0 0 68.23 -332.95 0 0 18.09 177.57 96.19 0 77.28 -177.57 96.18 0 18.09 332.95 0 0 68.24z"/>
  <path fill="#666666" fill-rule="nonzero" fill-opacity="0.800000" d="M8694.05 16285.08l0 -64.13 136.47 0 0 -435.7 -16.45 0 -120.85 81.39 0 -75.63 120.03 -81.39 89.61 0 0 511.33 125.79 0 0 64.13 -334.59 0zm734.94 -312.4l0 18.09c22.47,7.67 43.03,23.71 61.66,48.1 18.64,24.38 27.95,54.12 27.95,89.2 0,48.23 -19.04,88.24 -57.13,120.02 -38.1,31.79 -88.38,47.69 -150.85,47.69 -62.48,0 -112.77,-15.9 -150.85,-47.69 -38.09,-31.78 -57.14,-71.79 -57.14,-120.02 0,-34.53 9.32,-64.13 27.95,-88.79 18.64,-24.67 39.19,-40.84 61.66,-48.51l0 -18.09c-18.09,-7.67 -34.66,-22.19 -49.74,-43.57 -15.07,-21.37 -22.61,-47.13 -22.61,-77.28 0,-45.49 17.82,-82.48 53.44,-110.98 35.63,-28.5 81.39,-42.75 137.3,-42.75 55.9,0 101.67,14.25 137.29,42.75 35.63,28.5 53.44,65.49 53.44,110.98 0,29.05 -7.67,54.54 -23.02,76.46 -15.35,21.92 -31.79,36.72 -49.33,44.39zm-32.47 -187.02c-22.75,-16.71 -51.38,-25.07 -85.91,-25.07 -34.53,0 -63.17,8.36 -85.91,25.07 -22.75,16.72 -34.12,39.87 -34.12,69.47 0,29.6 11.37,52.89 34.12,69.88 22.74,16.99 51.38,25.49 85.91,25.49 34.53,0 63.16,-8.5 85.91,-25.49 22.74,-16.99 34.12,-40.28 34.12,-69.88 0,-29.6 -11.38,-52.75 -34.12,-69.47zm-185.79 415.98c24.39,20.01 57.68,30.01 99.89,30.01 42.2,0 75.49,-10 99.88,-30.01 24.39,-20 36.59,-46.72 36.59,-80.15 0,-33.98 -12.06,-60.56 -36.17,-79.75 -24.12,-19.18 -57.55,-28.77 -100.3,-28.77 -42.75,0 -76.19,9.59 -100.3,28.77 -24.12,19.19 -36.18,45.77 -36.18,79.75 0,33.43 12.2,60.15 36.59,80.15zm454.21 -428.71c38.36,-49.88 89.61,-74.81 153.72,-74.81 64.13,0 115.51,25.07 154.14,75.22 38.64,50.15 57.96,124.83 57.96,224.02 0,99.2 -19.32,173.73 -57.96,223.6 -38.64,49.88 -90.02,74.82 -154.14,74.82 -64.12,0 -115.37,-24.94 -153.72,-74.82 -38.37,-49.87 -57.55,-124.41 -57.55,-223.6 0,-99.75 19.18,-174.56 57.55,-224.43zm49.32 396.66c23.02,41.38 57.82,62.07 104.41,62.07 46.59,0 81.53,-20.69 104.82,-62.07 23.3,-41.38 34.94,-98.79 34.94,-172.22 0,-73.99 -11.64,-131.68 -34.94,-173.05 -23.29,-41.38 -58.23,-62.07 -104.82,-62.07 -46.59,0 -81.39,20.69 -104.41,62.07 -23.02,41.38 -34.53,99.07 -34.53,173.05 0,73.44 11.51,130.85 34.53,172.22zm480.92 115.51l-85.5 0 0 -95.37 85.5 0 0 95.37zm2121.83 -201.41c-52.62,0 -96.47,-17.67 -131.54,-53.03 -35.08,-35.35 -52.62,-80.15 -52.62,-134.41 0,-56.46 17.68,-103.59 53.03,-141.4 35.35,-37.81 82.9,-56.72 142.63,-56.72 65.22,0 116.74,22.47 154.54,67.41 37.82,44.94 56.73,116.74 56.73,215.39 0,92.62 -18.5,168.25 -55.49,226.89 -37,58.65 -91.39,87.97 -163.18,87.97 -47.69,0 -86.74,-12.75 -117.16,-38.23 -30.41,-25.49 -48.91,-58.51 -55.49,-99.07l71.53 0c14.25,48.78 47.95,73.17 101.12,73.17 45.49,0 81.11,-18.08 106.87,-54.26 25.76,-36.17 39.74,-86.05 41.93,-149.61l-18.09 0c-12.05,14.79 -29.73,27.81 -53.02,39.05 -23.3,11.23 -50.56,16.85 -81.8,16.85zm102.76 -286.09c-24.11,-23.56 -54.26,-35.35 -90.43,-35.35 -36.18,0 -65.91,11.51 -89.2,34.53 -23.3,23.02 -34.94,55.08 -34.94,96.19 0,41.1 11.78,72.62 35.35,94.54 23.57,21.93 53.71,32.89 90.43,32.89 36.18,0 66.05,-11.24 89.61,-33.71 23.57,-22.47 35.35,-53.44 35.35,-92.9 0,-40.56 -12.05,-72.62 -36.17,-96.19zm281.16 70.71l-72.35 0c3.29,-55.36 22.61,-97.56 57.96,-126.61 35.35,-29.05 79.88,-43.57 133.6,-43.57 55.9,0 100.98,15.21 135.24,45.62 34.25,30.42 51.38,73.58 51.38,129.49 0,67.96 -42.48,137.29 -127.43,207.98l-144.68 121.68 0 18.08 290.19 0 0 64.13 -395.43 0 0 -81.39 84.68 -69.06c52.62,-42.2 96.19,-79.2 130.72,-110.98 13.15,-11.51 23.7,-21.38 31.65,-29.6 7.95,-8.22 16.99,-19.05 27.13,-32.47 10.14,-13.43 17.81,-27.55 23.02,-42.34 5.21,-14.8 7.81,-30.15 7.81,-46.04 0,-35.63 -10.41,-63.03 -31.24,-82.21 -20.83,-19.19 -49.05,-28.78 -84.68,-28.78 -33.43,0 -60.42,8.91 -80.98,26.72 -20.55,17.81 -32.74,44.26 -36.58,79.34zm1641.72 291.84l69.88 0c-8.22,41.65 -27.54,74.67 -57.96,99.06 -30.42,24.39 -69.2,36.59 -116.33,36.59 -62.48,0 -111.67,-20.42 -147.56,-61.25 -35.9,-40.83 -53.85,-93.04 -53.85,-156.6 0,-64.13 17.81,-116.47 53.44,-157.02 35.62,-40.56 84.95,-60.84 147.97,-60.84 47.68,0 86.46,11.92 116.33,35.77 29.87,23.84 48.37,55.49 55.49,94.95l-69.88 0c-14.8,-46.59 -48.78,-69.88 -101.94,-69.88 -44.4,0 -77.42,14.66 -99.07,43.98 -21.65,29.33 -32.47,66.46 -32.47,111.4 0,45.49 10.96,83.31 32.88,113.45 21.93,30.15 54.81,45.22 98.66,45.22 58.09,0 92.9,-24.94 104.41,-74.81zm174.27 124.96l0 -414.34 110.99 0 101.94 189.08 18.09 0 101.94 -189.08 109.34 0 0 414.34 -68.23 0 0 -332.95 -18.09 0 -96.19 177.57 -77.28 0 -96.18 -177.57 -18.09 0 0 332.95 -68.24 0zm-4155.67 -512.16c38.36,-49.88 89.61,-74.81 153.72,-74.81 64.13,0 115.51,25.07 154.14,75.22 38.64,50.15 57.96,124.83 57.96,224.02 0,99.2 -19.32,173.73 -57.96,223.6 -38.64,49.88 -90.02,74.82 -154.14,74.82 -64.12,0 -115.37,-24.94 -153.72,-74.82 -38.37,-49.87 -57.55,-124.41 -57.55,-223.6 0,-99.75 19.18,-174.56 57.55,-224.43zm49.32 396.66c23.02,41.38 57.82,62.07 104.41,62.07 46.59,0 81.53,-20.69 104.82,-62.07 23.3,-41.38 34.94,-98.79 34.94,-172.22 0,-73.99 -11.64,-131.68 -34.94,-173.05 -23.29,-41.38 -58.23,-62.07 -104.82,-62.07 -46.59,0 -81.39,20.69 -104.41,62.07 -23.02,41.38 -34.53,99.07 -34.53,173.05 0,73.44 11.51,130.85 34.53,172.22zm934.73 115.51l-102.77 -173.46 -29.59 0 -105.23 173.46 -76.46 0 129.07 -212.1 -115.92 -202.23 73.99 0 95.37 164.42 29.6 0 97.01 -164.42 73.16 0 -117.56 199.77 128.25 214.56 -78.92 0zm386.39 0l0 -64.13 136.47 0 0 -435.7 -16.45 0 -120.85 81.39 0 -75.63 120.03 -81.39 89.61 0 0 511.33 125.79 0 0 64.13 -334.59 0zm1480.58 0l-85.5 0 0 -95.37 85.5 0 0 95.37zm143.05 -512.16c38.36,-49.88 89.61,-74.81 153.72,-74.81 64.13,0 115.51,25.07 154.14,75.22 38.64,50.15 57.96,124.83 57.96,224.02 0,99.2 -19.32,173.73 -57.96,223.6 -38.64,49.88 -90.02,74.82 -154.14,74.82 -64.12,0 -115.37,-24.94 -153.72,-74.82 -38.37,-49.87 -57.55,-124.41 -57.55,-223.6 0,-99.75 19.18,-174.56 57.55,-224.43zm49.32 396.66c23.02,41.38 57.82,62.07 104.41,62.07 46.59,0 81.53,-20.69 104.82,-62.07 23.3,-41.38 34.94,-98.79 34.94,-172.22 0,-73.99 -11.64,-131.68 -34.94,-173.05 -23.29,-41.38 -58.23,-62.07 -104.82,-62.07 -46.59,0 -81.39,20.69 -104.41,62.07 -23.02,41.38 -34.53,99.07 -34.53,173.05 0,73.44 11.51,130.85 34.53,172.22z"/>
  <path fill="#666666" fill-rule="nonzero" fill-opacity="0.800000" d="M10235.99 20489.7l-72.35 0c3.29,-55.36 22.61,-97.56 57.96,-126.61 35.35,-29.05 79.88,-43.57 133.6,-43.57 55.9,0 100.98,15.21 135.24,45.62 34.25,30.42 51.38,73.58 51.38,129.49 0,67.96 -42.48,137.29 -127.43,207.98l-144.68 121.68 0 18.08 290.19 0 0 64.13 -395.43 0 0 -81.39 84.68 -69.06c52.62,-42.2 96.19,-79.2 130.72,-110.98 13.15,-11.51 23.7,-21.38 31.65,-29.6 7.95,-8.22 16.99,-19.05 27.13,-32.47 10.14,-13.43 17.81,-27.55 23.02,-42.34 5.21,-14.8 7.81,-30.15 7.81,-46.04 0,-35.63 -10.41,-63.03 -31.24,-82.21 -20.83,-19.19 -49.05,-28.78 -84.68,-28.78 -33.43,0 -60.42,8.91 -80.98,26.72 -20.55,17.81 -32.74,44.26 -36.58,79.34zm478.45 0l-72.35 0c3.29,-55.36 22.61,-97.56 57.96,-126.61 35.35,-29.05 79.88,-43.57 133.6,-43.57 55.9,0 100.98,15.21 135.24,45.62 34.25,30.42 51.38,73.58 51.38,129.49 0,67.96 -42.48,137.29 -127.43,207.98l-144.68 121.68 0 18.08 290.19 0 0 64.13 -395.43 0 0 -81.39 84.68 -69.06c52.62,-42.2 96.19,-79.2 130.72,-110.98 13.15,-11.51 23.7,-21.38 31.65,-29.6 7.95,-8.22 16.99,-19.05 27.13,-32.47 10.14,-13.43 17.81,-27.55 23.02,-42.34 5.21,-14.8 7.81,-30.15 7.81,-46.04 0,-35.63 -10.41,-63.03 -31.24,-82.21 -20.83,-19.19 -49.05,-28.78 -84.68,-28.78 -33.43,0 -60.42,8.91 -80.98,26.72 -20.55,17.81 -32.74,44.26 -36.58,79.34zm478.45 0l-72.35 0c3.29,-55.36 22.61,-97.56 57.96,-126.61 35.35,-29.05 79.88,-43.57 133.6,-43.57 55.9,0 100.98,15.21 135.24,45.62 34.25,30.42 51.38,73.58 51.38,129.49 0,67.96 -42.48,137.29 -127.43,207.98l-144.68 121.68 0 18.08 290.19 0 0 64.13 -395.43 0 0 -81.39 84.68 -69.06c52.62,-42.2 96.19,-79.2 130.72,-110.98 13.15,-11.51 23.7,-21.38 31.65,-29.6 7.95,-8.22 16.99,-19.05 27.13,-32.47 10.14,-13.43 17.81,-27.55 23.02,-42.34 5.21,-14.8 7.81,-30.15 7.81,-46.04 0,-35.63 -10.41,-63.03 -31.24,-82.21 -20.83,-19.19 -49.05,-28.78 -84.68,-28.78 -33.43,0 -60.42,8.91 -80.98,26.72 -20.55,17.81 -32.74,44.26 -36.58,79.34zm511.33 416.8l-85.5 0 0 -95.37 85.5 0 0 95.37zm143.05 -512.16c38.36,-49.88 89.61,-74.81 153.72,-74.81 64.13,0 115.51,25.07 154.14,75.22 38.64,50.15 57.96,124.83 57.96,224.02 0,99.2 -19.32,173.73 -57.96,223.6 -38.64,49.88 -90.02,74.82 -154.14,74.82 -64.12,0 -115.37,-24.94 -153.72,-74.82 -38.37,-49.87 -57.55,-124.41 -57.55,-223.6 0,-99.75 19.18,-174.56 57.55,-224.43zm49.32 396.66c23.02,41.38 57.82,62.07 104.41,62.07 46.59,0 81.53,-20.69 104.82,-62.07 23.3,-41.38 34.94,-98.79 34.94,-172.22 0,-73.99 -11.64,-131.68 -34.94,-173.05 -23.29,-41.38 -58.23,-62.07 -104.82,-62.07 -46.59,0 -81.39,20.69 -104.41,62.07 -23.02,41.38 -34.53,99.07 -34.53,173.05 0,73.44 11.51,130.85 34.53,172.22zm938.02 -9.45l69.88 0c-8.22,41.65 -27.54,74.67 -57.96,99.06 -30.42,24.39 -69.2,36.59 -116.33,36.59 -62.48,0 -111.67,-20.42 -147.56,-61.25 -35.9,-40.83 -53.85,-93.04 -53.85,-156.6 0,-64.13 17.81,-116.47 53.44,-157.02 35.62,-40.56 84.95,-60.84 147.97,-60.84 47.68,0 86.46,11.92 116.33,35.77 29.87,23.84 48.37,55.49 55.49,94.95l-69.88 0c-14.8,-46.59 -48.78,-69.88 -101.94,-69.88 -44.4,0 -77.42,14.66 -99.07,43.98 -21.65,29.33 -32.47,66.46 -32.47,111.4 0,45.49 10.96,83.31 32.88,113.45 21.93,30.15 54.81,45.22 98.66,45.22 58.09,0 92.9,-24.94 104.41,-74.81zm174.27 124.96l0 -414.34 110.99 0 101.94 189.08 18.09 0 101.94 -189.08 109.34 0 0 414.34 -68.23 0 0 -332.95 -18.09 0 -96.19 177.57 -77.28 0 -96.18 -177.57 -18.09 0 0 332.95 -68.24 0z"/>
 </g>
 <g id="Выносные_x0020_линии">
  <metadata id="CorelCorpID_3Corel-Layer"/>
  <g id="_2274319975232">
   <line fill="none" stroke="gray" stroke-width="10.58" stroke-miterlimit="22.9256" x1="4650.88" y1="6235.46" x2="5857.85" y2= "6235.46" />
   <line fill="none" stroke="gray" stroke-width="10.58" stroke-miterlimit="22.9256" x1="4647.93" y1="1717.9" x2="5857.85" y2= "1717.9" />
   <line fill="none" stroke="gray" stroke-width="10.58" stroke-miterlimit="22.9256" x1="5104.46" y1="6685.48" x2="5104.46" y2= "1325.84" />
  </g>
  <g id="_2274319975616">
   <line fill="none" stroke="gray" stroke-width="10.58" stroke-miterlimit="22.9256" x1="4650.88" y1="13500.43" x2="5857.85" y2= "13500.43" />
   <line fill="none" stroke="gray" stroke-width="10.58" stroke-miterlimit="22.9256" x1="4647.93" y1="8370.37" x2="5857.85" y2= "8370.37" />
   <line fill="none" stroke="gray" stroke-width="10.58" stroke-miterlimit="22.9256" x1="5104.46" y1="13975.41" x2="5104.46" y2= "7978.32" />
  </g>
  <g id="_2274319978160">
   <line fill="none" stroke="gray" stroke-width="10.58" stroke-miterlimit="22.9256" x1="17969.66" y1="19849.85" x2="5645.23" y2= "19849.85" />
   <line fill="none" stroke="gray" stroke-width="10.58" stroke-miterlimit="22.9256" x1="17572.11" y1="20303.43" x2="17572.11" y2= "19096.46" />
   <line fill="none" stroke="gray" stroke-width="10.58" stroke-miterlimit="22.9256" x1="6115.03" y1="20306.38" x2="6115.03" y2= "19096.46" />
  </g>
 </g>
</svg>
