<?xml version="1.0" encoding="UTF-8"?>
<!DOCTYPE svg PUBLIC "-//W3C//DTD SVG 1.1//EN" "http://www.w3.org/Graphics/SVG/1.1/DTD/svg11.dtd">
<!-- Creator: CorelDRAW 2021.5 -->
<svg xmlns="http://www.w3.org/2000/svg" xml:space="preserve" width="297mm" height="210mm" version="1.1" shape-rendering="geometricPrecision" text-rendering="geometricPrecision" image-rendering="optimizeQuality" fill-rule="evenodd" clip-rule="evenodd"
viewBox="0 0 29698.94 20999.25"
 xmlns:xlink="http://www.w3.org/1999/xlink"
 xmlns:xodm="http://www.corel.com/coreldraw/odm/2003">
 <g id="Тени">
  <metadata id="CorelCorpID_0Corel-Layer"/>
  <path fill="black" fill-opacity="0.101961" d="M4903.74 12440.05c48.88,-834.84 313.06,-1064.67 602.46,-1079.55 30.63,-1.54 108.13,0.58 143.57,-0.62 -246.91,-39.67 -573.5,-3.71 -688.71,-42.97 -69.28,-23.6 -72.9,-88.43 -79.2,-164.4 -7.65,-91.86 -16.63,-432.14 -9.8,-472.9l22.9 -454.59c4.41,-87.87 84.62,-183.33 67.71,-181.6l-123.47 12.73 -17.92 116.57 0 3501.56c37.75,-947.88 34.64,-418.55 82.45,-1234.21zm2522.35 -1089.44c172.05,10.14 310.1,45.12 341.67,56.26 305.71,107.89 519.94,281.04 568.31,1080.07 21.96,362.58 78.17,1187.32 78.17,1187.32 0,0 74.6,-932.14 82.62,-1184.57 40.42,-1270.08 518.3,-1076.76 1219.65,-1115.75 123.85,-6.86 477.64,-12.22 584.11,-21.74 -26.8,0.56 -263.13,0.38 -289.54,0.6 -605.78,5.11 -1219.79,14.52 -1458.38,-48.44 -62.76,-16.59 -48.76,-129.32 -59.55,-247.3 -16.18,-176.93 -31.95,-389.64 -24.5,-434.31l36.93 -419.19c5.47,-62.26 36.9,-125.03 73.63,-151.34l-133 0.35 -28.66 50.37 -36.6 -48.88 -149.21 -5.98c57.7,7.99 68.38,118.65 77.02,200.76l40.85 388.55c1.5,14.24 -0.56,28.1 -2.94,41.18l1.16 0.02c-3.98,55.44 8.51,298.44 -12.75,467.19 -9.21,73.24 4.41,128.96 -41.15,155.17 -90.99,52.4 -505.57,36.13 -867.83,49.66zm3567.46 7.44c223.37,3.54 452.43,51.14 613.47,175.8 298.6,231.14 306.67,385.3 347.99,1054.64 60.59,981.37 33.88,753.73 59.19,1000.65 67.42,-512.37 143.41,-1811.81 486.5,-2035.19 326.56,-212.65 1009.23,-205.94 1248.83,-206.25 229.22,-0.31 882.06,-20.92 1237.92,217.96 336.24,225.71 512.6,520.05 644.87,2017.77l0 -3478.8 -47.45 -64.01 -85.84 -4.94 78.75 506 -8.41 661 -53.65 102.22 -107.52 18.78 -875.35 23.18 -1566.61 1.66 -776.54 -38.57 -54.01 -53.47 -22.23 -308.36 -10.18 -396.74 36.02 -390.04 60.15 -125.67 -148.15 3.21 -37.41 57.86 -41.44 -49.93 -102.81 -3.34c28.11,29.18 44.7,128.92 50.04,181.47l40.6 397.78c1.46,14.24 -0.58,28.1 -2.95,41.19l1.15 0.02c-5.68,79.5 30.17,577.64 -56.7,631.42 -106.82,66.15 -555.87,14.12 -908.22,62.68z"/>
  <polygon fill="black" fill-opacity="0.101961" points="18867.75,2868.07 20974.86,2868.07 21007.21,2991.78 18931.45,2991.78 18863.56,3050.31 18867.75,2991.78 "/>
  <path fill="black" fill-opacity="0.101961" d="M5396.3 1737.48c561.63,60.77 735.01,179.48 1184.41,185.97 478.99,6.91 615.45,-92.98 1360.54,-199.37 -418.98,8.41 -828.9,29.81 -1247.88,38.23l-1297.07 -24.83z"/>
  <path fill="black" fill-opacity="0.101961" d="M8922.86 1713.92c696.32,71.66 797.82,190.21 1247.23,196.44 478.98,6.64 726.06,-174.18 1261.57,-185.92 -418.98,8.08 -828.9,19.57 -1247.89,27.67l-1260.91 -38.19z"/>
  <path fill="black" fill-opacity="0.101961" d="M5331.11 3638.16c603.07,-61.59 833.98,-151.21 1283.38,-156.57 478.98,-5.71 550.39,90.6 1261.56,167.65 -418.97,-6.95 -844.44,16.74 -1263.42,9.77l-1281.52 -20.85z"/>
  <path fill="black" fill-opacity="0.101961" d="M8886.7 3640.34c737.77,-137.18 827.1,-170.51 1276.49,-179.85 478.98,-9.96 629.81,41.17 1268.45,185.52 -418.97,-12.11 -839.26,-8.08 -1258.24,-20.24l-1286.71 14.57z"/>
  <g id="_2237896210640">
   <path fill="black" fill-opacity="0.101961" d="M12445.8 1720.66c696.32,71.65 797.82,190.2 1247.23,196.43 478.98,6.65 726.06,-174.18 1261.57,-185.92 -418.98,8.08 -828.9,19.57 -1247.89,27.67l-1260.91 -38.18z"/>
   <path fill="black" fill-opacity="0.101961" d="M12409.64 3647.08c737.77,-137.18 827.1,-170.51 1276.49,-179.86 478.98,-9.96 629.81,41.17 1268.45,185.53 -418.97,-12.12 -839.26,-8.09 -1258.24,-20.25l-1286.71 14.58z"/>
  </g>
  <path fill="black" fill-opacity="0.101961" d="M4835.12 3842.8l12.92 -110.39 81.93 -26.09 4.38 787.18 0.4 0c-4.52,-1482.33 -0.4,-796.47 3.23,0l3396.85 0 3.9 -790.86 48.19 19.59 37 34.6 52.37 -40.01 39.46 -10.53 -3.51 787.21 3099.32 0 157.09 -787.21 219.7 -0.4 -39.93 55.86 -5.38 87.29 -5.64 581.61 21.39 43.48 45.26 19.38c1250.24,0 2397.61,0 3642.49,0l0 203.52c-1244.9,0 -2396.53,0 -3641.53,0l4.09 824.09 21.6 23.82 -1268.81 3.3 402.12 -851.21 -6225.11 0c3.6,826.83 5.83,1583.68 -3.37,0l-0.14 0 2.81 847.1 -67.26 0 -38.57 -38.71 1.33 -808.39 -10.88 0 4.75 -173.05 6.44 -5.39 1.12 -675.79z"/>
  <polygon fill="black" fill-opacity="0.101961" points="23639.82,4540.71 27105.81,4540.71 27105.81,4664.44 23639.82,4664.44 "/>
  <rect fill="none" width="29698.94" height="20999.25"/>
 </g>
 <g id="Схема">
  <metadata id="CorelCorpID_1Corel-Layer"/>
  <g id="_2237896211648">
   <rect fill="none" stroke="#2B2A29" stroke-width="10.58" stroke-miterlimit="22.9256" x="23258.13" y="5567.74" width="162.21" height="141.48"/>
   <rect fill="none" stroke="#2B2A29" stroke-width="10.58" stroke-miterlimit="22.9256" x="19044.54" y="5566.12" width="162.21" height="141.48"/>
   <path fill="none" stroke="#2B2A29" stroke-width="10.58" stroke-miterlimit="22.9256" d="M18863.98 3107.7l0 2434.67c0,10.16 8.3,18.45 18.44,18.45l4743.19 0c10.15,0 18.44,-8.29 18.44,-18.45l0 -2313.41c0,-128.27 -104.93,-233.19 -233.18,-233.19l-4434.96 0c-61.57,0 -111.93,50.36 -111.93,111.93z"/>
   <path fill="none" stroke="#2B2A29" stroke-width="10.58" stroke-miterlimit="22.9256" d="M23658 3768.04c0,0 93.57,17.19 93.57,111.38 0,94.2 5.89,376.36 4.05,423.37 -1.84,47.02 -8.2,199.61 -96.97,199.61"/>
   <path fill="none" stroke="black" stroke-width="10.58" stroke-miterlimit="22.9256" d="M20075.81 2995.76l-278.35 -1008.9c-26.1,-94.65 -68.03,-187.93 68.04,-209.45l401.58 -63.51c36.1,-5.71 134.6,-20.19 175.44,127.95l316.87 1148.51"/>
   <path fill="none" stroke="black" stroke-width="10.58" stroke-miterlimit="22.9256" d="M19820.63 1789.46c-96.47,19.12 -157.85,126 -161.09,232.54 -4.55,149.66 218.07,946.76 228.08,973.77"/>
   <path fill="none" stroke="black" stroke-width="10.58" stroke-miterlimit="22.9256" d="M20296.63 1710.73c176.71,-26.51 325.74,269.2 354.36,324.97 152.91,297.98 347.75,899.85 364.45,960.07"/>
   <path fill="none" stroke="black" stroke-width="10.58" stroke-miterlimit="22.9256" d="M18970.75 2106.89c-123.18,11.87 -122.23,223.94 -110.84,539.15 3.32,91.92 4.11,386.21 3.64,741.17"/>
   <path fill="none" stroke="black" stroke-width="10.58" stroke-miterlimit="22.9256" d="M19558.1 2106.89c55.19,5.32 93.77,13.4 120.44,114.92 69.91,265.91 192.42,675.75 192.59,778.93"/>
   <line fill="none" stroke="black" stroke-width="10.58" stroke-miterlimit="22.9256" x1="18970.75" y1="2106.89" x2="19558.1" y2= "2106.89" />
   <polyline fill="none" stroke="black" stroke-width="10.58" stroke-miterlimit="22.9256" points="23537.79,5560.34 27105.8,5564.81 27105.8,4537.16 23627.91,4537.16 "/>
   <path fill="none" stroke="black" stroke-width="10.58" stroke-miterlimit="22.9256" d="M23641.79 3747.13l3471.96 2.18c88.98,0.04 161.75,58.71 161.75,130.09l0 527.68c0,71.38 -72.99,130.09 -161.75,130.09l-3473.93 0"/>
   <rect fill="none" stroke="black" stroke-width="10.58" stroke-miterlimit="22.9256" x="26828.79" y="5572.55" width="166.12" height="144.89"/>
  </g>
  <g id="_2237896224272">
   <path fill="none" stroke="#2B2A29" stroke-width="10.58" stroke-miterlimit="22.9256" d="M4890.33 11203.96c9.78,73.71 26.98,112.76 117.59,122.73 466.74,51.35 2847.84,32.65 3234.43,-2.17 44.79,-6.06 60.34,-25.06 75.85,-72.51 31.45,-89.08 29.06,-497.97 29.06,-633.5 7.12,-78.61 -46.61,-437.55 -63.64,-520.79 -9.73,-37.95 -42.92,-51.62 -70.76,-50.98 -1031,-3.67 -1863.01,-1.74 -2912.96,-4.3 -55.73,2.16 -177.7,-7.13 -268.31,0.63 -57.08,4.9 -90.05,26.26 -101.3,56.18 -59.43,127.03 -48.18,360.29 -58.65,428.62 -5.43,122.34 15.08,539.86 18.68,676.09z"/>
   <path fill="none" stroke="#2B2A29" stroke-width="10.58" stroke-miterlimit="22.9256" d="M4873.7 10764.39c-5.21,-229.08 16.6,-220.7 133.67,-217.95 96.74,-3.02 3173.23,-12.75 3205.25,-3.33 60.07,4.59 149.55,-29.7 134.75,106.16"/>
   <path fill="none" stroke="#2B2A29" stroke-width="10.58" stroke-miterlimit="22.9256" d="M5276.43 10042.39c-0.12,-8.03 -2.04,-59.88 -2.2,-67.92 3.11,-51.73 23.41,-73.93 141.33,-73.93 819.99,0 1579.62,0 2399.61,0 104.67,0 155.94,-1.02 153.18,84.04l0 60.8"/>
   <path fill="none" stroke="#2B2A29" stroke-width="10.58" stroke-miterlimit="22.9256" d="M8498.18 11198.37c9.77,73.72 26.97,112.77 117.59,122.73 466.74,51.36 2847.84,32.66 3234.43,-2.16 44.79,-6.07 60.34,-25.06 75.85,-72.51 31.45,-89.08 29.06,-497.97 29.06,-633.5 7.12,-78.61 -46.61,-437.55 -63.64,-520.79 -9.73,-37.96 -42.92,-51.62 -70.77,-50.99 -1030.99,-3.66 -1863,-1.73 -2912.95,-4.29 -55.73,2.16 -177.7,-7.14 -268.32,0.63 -57.08,4.9 -90.05,26.26 -101.3,56.18 -59.42,127.03 -48.17,360.29 -58.64,428.62 -5.43,122.33 15.07,539.86 18.68,676.08z"/>
   <path fill="none" stroke="#2B2A29" stroke-width="10.58" stroke-miterlimit="22.9256" d="M8481.55 10758.81c-5.21,-229.08 16.59,-220.7 133.66,-217.95 96.74,-3.02 3173.24,-12.75 3205.25,-3.33 60.08,4.59 149.55,-29.7 134.75,106.16"/>
   <path fill="none" stroke="#2B2A29" stroke-width="10.58" stroke-miterlimit="22.9256" d="M8884.28 10036.81c-0.12,-8.04 -2.04,-59.88 -2.2,-67.92 3.11,-51.73 23.4,-73.93 141.33,-73.93 819.98,0 1579.61,0 2399.61,0 104.66,0 155.94,-1.03 153.18,84.04l0 60.8"/>
   <polyline fill="none" stroke="#2B2A29" stroke-width="10.58" stroke-miterlimit="22.9256" stroke-dasharray="52.898112 52.898112" points="4821.33,13729.39 4822.64,18666.19 12009.73,18666.19 12011.53,13737.72 "/>
   <path fill="none" stroke="black" stroke-width="10.58" stroke-miterlimit="22.9256" d="M15737.19 13682.3c-80.75,-41.3 -96.89,-252.23 -96.89,-736.77 0,-195.32 12.3,-2746.43 2.68,-3086.89 -11.08,-395.43 6.4,-610.38 98.66,-647.07 91.45,-50.06 824.34,-45.41 905.29,-2.5 93.05,33.69 117.11,278.7 105.99,672.03 -9.59,338.74 2.65,2876.67 2.65,3071 0,481.98 -16.12,691.89 -97.56,730.57 -83.11,44.21 -846.55,33.87 -920.82,-0.37z"/>
   <path fill="none" stroke="black" stroke-width="10.58" stroke-miterlimit="22.9256" d="M12014.41 9298.25c-23.86,-126.94 -452.07,-131.21 -1084.46,-119.4 -544.55,10.16 -4624.69,-2.86 -4937.12,-2.86 -774.89,0 -1163.67,-15.41 -1197.69,134.29"/>
   <path fill="none" stroke="black" stroke-width="10.58" stroke-miterlimit="22.9256" d="M4729.12 13685.01c80.75,-41.42 96.89,-252.97 96.89,-738.94 0,-195.9 -12.3,-2754.53 -2.67,-3096 11.08,-396.59 -6.4,-612.18 -98.67,-648.98 -91.45,-50.21 -824.33,-45.54 -905.29,-2.51 -93.05,33.79 -117.1,279.53 -105.98,674.02 9.58,339.74 -2.66,2885.16 -2.66,3080.06 0,483.4 16.12,693.93 97.56,732.72 83.11,44.34 846.55,33.97 920.82,-0.37z"/>
   <rect fill="none" stroke="black" stroke-width="10.58" stroke-miterlimit="22.9256" x="8421.28" y="10043.49" width="3592.92" height="3759.83" rx="29.61" ry="78.33"/>
   <rect fill="none" stroke="black" stroke-width="10.58" stroke-miterlimit="22.9256" x="4821.32" y="10043.4" width="3592.92" height="3759.91" rx="29.61" ry="78.33"/>
   <g>
    <path fill="none" stroke="#2B2A29" stroke-width="10.58" stroke-miterlimit="22.9256" d="M12122.72 11198.37c9.77,73.72 26.98,112.77 117.59,122.73 466.74,51.36 2847.84,32.66 3234.43,-2.16 44.79,-6.07 60.34,-25.06 75.85,-72.51 31.45,-89.08 29.06,-497.97 29.06,-633.5 7.12,-78.61 -46.61,-437.55 -63.64,-520.79 -9.73,-37.96 -42.92,-51.62 -70.76,-50.99 -1031,-3.66 -1863.01,-1.73 -2912.96,-4.29 -55.73,2.16 -177.7,-7.14 -268.31,0.63 -57.08,4.9 -90.05,26.26 -101.31,56.18 -59.42,127.03 -48.17,360.29 -58.64,428.62 -5.43,122.33 15.08,539.86 18.68,676.08z"/>
    <path fill="none" stroke="#2B2A29" stroke-width="10.58" stroke-miterlimit="22.9256" d="M12106.09 10758.81c-5.21,-229.08 16.6,-220.7 133.67,-217.95 96.73,-3.02 3173.23,-12.75 3205.25,-3.33 60.07,4.59 149.55,-29.7 134.74,106.16"/>
    <path fill="none" stroke="#2B2A29" stroke-width="10.58" stroke-miterlimit="22.9256" d="M12508.82 10036.81c-0.12,-8.04 -2.04,-59.88 -2.2,-67.92 3.11,-51.73 23.41,-73.93 141.33,-73.93 819.99,0 1579.62,0 2399.61,0 104.67,0 155.94,-1.03 153.18,84.04l0 60.8"/>
   </g>
   <rect fill="none" stroke="black" stroke-width="10.58" stroke-miterlimit="22.9256" x="12012.64" y="10035.69" width="3619.68" height="7566.25" rx="29.83" ry="157.64"/>
   <line fill="none" stroke="black" stroke-width="10.58" stroke-miterlimit="22.9256" x1="12014.41" y1="9298.24" x2="12012.73" y2= "10172.31" />
   <path fill="none" stroke="black" stroke-width="10.58" stroke-miterlimit="22.9256" d="M12014.41 9298.24c23.46,-117.99 192.31,-111.44 487.86,-108.49 276.08,2.76 2407.91,-3.34 2566.25,-3.34 392.7,0 587.1,11.12 604.34,156.41"/>
  </g>
  <g id="_2237896233824">
   <path fill="none" stroke="black" stroke-width="10.58" stroke-miterlimit="22.9256" d="M12136.45 1720.48c519.58,0 1019.45,24.93 1539.04,24.93 526.61,0 1136.11,-25.78 1662.71,-25.78 95.91,0 145.1,49.27 145.1,169.45 0,207.47 -27.34,588.03 -27.34,795.51 0,290.99 24.71,517.31 24.71,808.29 0,120.19 -45.97,156.93 -141.87,156.93 -554.66,0 -1128.87,-17.36 -1683.53,-17.36 -460.2,0 -926.5,9.42 -1386.68,17.48 -31.31,0.55 -100.1,-1.03 -131.43,-1.03 -95.91,0 -128.55,-29.66 -128.55,-149.83 0,-251.43 15.18,-537.31 15.18,-788.73 0,-247.04 -15.65,-591.27 -15.65,-838.3 0,-120.18 32.41,-151.56 128.31,-151.56z"/>
   <path fill="none" stroke="black" stroke-width="10.58" stroke-miterlimit="22.9256" d="M16580.68 2880.8l-772.62 0c-17,0 -39.31,5.86 -54.75,9.84 -97.11,21.42 -115.5,148.1 -103.8,381.19 10.07,200.67 -2.83,1704.39 -2.83,1819.53 0,285.58 16.96,409.93 102.27,433.51 20.53,8.11 24.74,11.66 59.11,11.66l772.62 0c33.21,0 36.53,-5.03 57.12,-10.03 85.29,-23.48 102.27,-147.17 102.27,-431.29 0,-114.54 -12.9,-1610.46 -2.82,-1810.12 11.69,-231.86 -13.58,-376.28 -110.7,-397.6 -16.44,-5.32 -26.97,-6.69 -45.87,-6.69z"/>
   <path fill="none" stroke="black" stroke-width="10.58" stroke-miterlimit="22.9256" d="M4905.6 3706.3c1140.15,0 2280.28,0 3420.44,0 47.27,-4.16 56.58,33.69 84.84,50.53 26.71,-16.84 47.5,-53.91 80.11,-50.53l3355.19 0c22.23,0 111.78,-0.12 134.14,-0.66 -40.97,19.65 -62.19,55.46 -62.19,76.5l-0.43 630.13c0,28.85 19.64,67.22 59.36,88.26 -21.04,0 -115.04,0 -130.88,0l-6940.57 0c-39.32,0 -71.53,-39.71 -71.53,-88.26l0 -617.73c0,-48.53 32.19,-88.24 71.53,-88.24z"/>
   <rect fill="none" stroke="black" stroke-width="10.58" stroke-miterlimit="22.9256" x="4834.19" y="4500.53" width="10812.32" height="1043.43" rx="62.94" ry="52.17"/>
   <rect fill="none" stroke="black" stroke-width="10.58" stroke-miterlimit="22.9256" x="3841.98" y="5583.19" width="871.41" height="144.86"/>
   <rect fill="none" stroke="black" stroke-width="10.58" stroke-miterlimit="22.9256" x="15755.95" y="5539.65" width="876.58" height="144.86"/>
   <path fill="none" stroke="black" stroke-width="10.58" stroke-miterlimit="22.9256" d="M4828.25 3148.28l0 -847.67c-5.09,-163.8 23.83,-213.03 87.12,-227.35m10570.52 -8.06c102.36,18.01 162.26,-3.04 167.44,368.77l-2.5 615.11"/>
   <path fill="none" stroke="black" stroke-width="10.58" stroke-miterlimit="22.9256" d="M5076.54 1721.64c524.04,0 989.71,27 1513.78,27 531.14,0 1142.4,-26.27 1673.53,-26.27 96.74,0 147.69,39.23 147.69,159.41 0,207.47 -25.42,598.56 -25.42,806.04 0,290.98 29.45,511.32 29.45,802.3 0,120.18 -28.15,166.63 -124.89,166.63 -559.44,0 -1160.58,-22.58 -1720,-22.58 -361.32,0 -790.82,-7.12 -1145.73,7.7 -172.28,7.19 -267.85,31.08 -447.78,40.48 -96.55,5.04 -76.52,-126.68 -76.52,-246.85 0,-251.42 23.77,-470.51 23.77,-721.94 0,-247.03 -23.77,-618.18 -23.77,-865.21 0,-120.21 79.15,-126.72 175.88,-126.72z"/>
   <line fill="none" stroke="black" stroke-width="10.58" stroke-miterlimit="22.9256" x1="8411" y1="4500.53" x2="8410.88" y2= "3761.62" />
   <path fill="none" stroke="black" stroke-width="10.58" stroke-miterlimit="22.9256" d="M8613.51 1713.74c519.58,0 1019.45,24.94 1539.04,24.94 526.61,0 1136.11,-25.79 1662.71,-25.79 95.91,0 145.1,49.28 145.1,169.45 0,207.48 -27.34,588.04 -27.34,795.52 0,290.98 24.71,517.31 24.71,808.28 0,120.19 -45.97,156.94 -141.87,156.94 -554.66,0 -1128.87,-17.36 -1683.54,-17.36 -460.19,0 -926.49,9.41 -1386.67,17.48 -31.31,0.54 -100.1,-1.03 -131.43,-1.03 -95.91,0 -128.55,-29.66 -128.55,-149.84 0,-251.42 15.18,-537.3 15.18,-788.73 0,-247.03 -15.65,-591.26 -15.65,-838.29 0,-120.19 32.41,-151.57 128.31,-151.57z"/>
   <path fill="none" stroke="black" stroke-width="10.58" stroke-miterlimit="22.9256" d="M4671.47 2923.04l-772.62 0c-17,0 -39.31,5.86 -54.75,9.83 -97.11,21.43 -115.51,148.11 -103.81,381.2 10.08,200.67 -2.82,1704.38 -2.82,1819.53 0,285.57 16.96,409.93 102.27,433.51 20.53,8.1 24.74,11.65 59.11,11.65l772.62 0c33.21,0 36.52,-5.02 57.12,-10.03 85.28,-23.48 102.26,-147.16 102.26,-431.28 0,-114.55 -12.89,-1610.47 -2.82,-1810.13 11.7,-231.85 -13.58,-376.27 -110.69,-397.59 -16.45,-5.33 -26.97,-6.69 -45.87,-6.69z"/>
   <rect fill="none" stroke="black" stroke-width="10.58" stroke-miterlimit="22.9256" x="11917.7" y="3704.68" width="3734.56" height="794.22" rx="96.2" ry="85.54"/>
   <rect fill="none" stroke="black" stroke-width="10.58" stroke-miterlimit="22.9256" x="14581.05" y="5549.29" width="945.78" height="141.87"/>
   <rect fill="none" stroke="black" stroke-width="10.58" stroke-miterlimit="22.9256" x="12095.88" y="5549.29" width="945.78" height="141.87"/>
   <line fill="none" stroke="black" stroke-width="10.58" stroke-miterlimit="22.9256" x1="11983.44" y1="5533.04" x2="11983.37" y2= "4500.52" />
  </g>
 </g>
 <g id="Шрифт">
  <metadata id="CorelCorpID_2Corel-Layer"/>
  <path fill="#666666" fill-rule="nonzero" fill-opacity="0.800000" d="M19178.45 9371.7l0 16.59c22.63,10.57 40.87,27.16 54.7,49.8 13.83,22.63 20.74,47.53 20.74,74.69 0,45.26 -15.59,81.85 -46.77,109.77 -31.18,27.91 -76.45,41.87 -135.8,41.87l-240.66 0 0 -538.65 234.62 0c54.83,0 97.2,12.95 127.13,38.85 29.92,25.91 44.89,58.47 44.89,97.7 0,51.81 -19.62,88.27 -58.85,109.4zm-279.89 -185.58l0 168.23 165.22 0c69.91,0 104.86,-28.67 104.86,-86.01 0,-28.17 -10.06,-48.91 -30.17,-62.24 -20.12,-13.33 -45.52,-19.99 -76.2,-19.99l-163.71 0zm0 417.94l168.23 0c34.71,0 63.13,-7.41 85.26,-22.25 22.13,-14.84 33.19,-39.61 33.19,-74.31 0,-32.7 -10.94,-56.46 -32.82,-71.3 -21.88,-14.84 -50.17,-22.25 -84.87,-22.25l-168.99 0 0 190.1zm454.15 -319.87l64.13 0 0 126.75 104.87 0c45.77,0 81.1,11.06 106,33.19 24.89,22.13 37.34,53.07 37.34,92.8 0,40.24 -12.45,71.55 -37.34,93.93 -24.9,22.38 -60.23,33.57 -106,33.57l-168.99 0 0 -380.23zm64.13 181.06l0 143.33 95.82 0c31.68,0 54.32,-6.03 67.89,-18.11 13.58,-12.07 20.37,-29.92 20.37,-53.56 0,-23.64 -6.79,-41.49 -20.37,-53.57 -13.57,-12.07 -36.21,-18.1 -67.89,-18.1l-95.82 0zm309.31 -181.06l64.13 0 0 380.23 -64.13 0 0 -380.23zm445.1 265.56l64.13 0c-7.55,38.22 -25.28,68.52 -53.19,90.91 -27.92,22.38 -63.5,33.57 -106.76,33.57 -57.33,0 -102.47,-18.74 -135.42,-56.21 -32.94,-37.47 -49.41,-85.38 -49.41,-143.71 0,-58.85 16.34,-106.88 49.04,-144.09 32.69,-37.22 77.95,-55.83 135.79,-55.83 43.76,0 79.35,10.94 106.76,32.82 27.41,21.88 44.38,50.93 50.92,87.14l-64.13 0c-13.58,-42.75 -44.76,-64.13 -93.55,-64.13 -40.74,0 -71.04,13.46 -90.91,40.37 -19.86,26.9 -29.8,60.98 -29.8,102.22 0,41.75 10.06,76.45 30.18,104.11 20.12,27.67 50.3,41.5 90.53,41.5 53.32,0 85.26,-22.89 95.82,-68.65zm186.72 -218.78c33.44,-37.72 79.09,-56.59 136.93,-56.59 57.84,0 103.48,18.87 136.93,56.59 33.45,37.72 50.17,85.5 50.17,143.33 0,57.84 -16.72,105.62 -50.17,143.33 -33.45,37.73 -79.09,56.59 -136.93,56.59 -57.84,0 -103.49,-18.86 -136.93,-56.59 -33.45,-37.72 -50.17,-85.5 -50.17,-143.33 0,-57.84 16.72,-105.62 50.17,-143.33zm45.64 245.56c21.12,27.91 51.55,41.87 91.29,41.87 39.73,0 70.16,-13.96 91.28,-41.87 21.13,-27.92 31.69,-61.99 31.69,-102.23 0,-40.24 -10.56,-74.31 -31.69,-102.23 -21.12,-27.91 -51.55,-41.87 -91.28,-41.87 -39.74,0 -70.17,13.96 -91.29,41.87 -21.12,27.92 -31.69,61.99 -31.69,102.23 0,40.24 10.57,74.31 31.69,102.23zm331.94 -236.51l0 -55.83 327.42 0 0 55.83 -131.27 0 0 324.4 -64.13 0 0 -324.4 -132.03 0zm654.08 324.4l0 -39.99 -16.6 0c-26.15,33.2 -65.63,49.8 -118.45,49.8 -41.74,0 -74.94,-12.07 -99.58,-36.22 -24.65,-24.14 -36.97,-53.31 -36.97,-87.51 0,-34.7 12.07,-64.38 36.21,-89.02 24.15,-24.65 60.61,-36.97 109.4,-36.97l123.73 0 0 -15.09c0,-24.14 -7.55,-43.38 -22.64,-57.72 -15.09,-14.33 -38.47,-21.5 -70.16,-21.5 -55.33,0 -84.75,18.36 -88.27,55.08l-64.13 0c2.52,-34.71 17.48,-61.87 44.89,-81.48 27.41,-19.62 62.75,-29.43 106,-29.43 48.79,0 87.14,11.32 115.05,33.95 27.92,22.64 41.87,55.08 41.87,97.33l0 258.76 -60.35 0zm-119.2 -46.02c31.68,0 59.1,-10.44 82.23,-31.31 23.14,-20.87 34.71,-46.4 34.71,-76.58l0 -34.7 -113.92 0c-60.86,0 -91.29,24.14 -91.29,72.43 0,21.62 7.67,38.72 23.01,51.3 15.34,12.57 37.09,18.86 65.26,18.86zm-2189.3 755.23l64.13 0c-7.55,38.22 -25.28,68.52 -53.19,90.91 -27.92,22.38 -63.5,33.57 -106.76,33.57 -57.33,0 -102.47,-18.74 -135.42,-56.21 -32.94,-37.47 -49.41,-85.38 -49.41,-143.71 0,-58.85 16.34,-106.88 49.04,-144.09 32.69,-37.22 77.95,-55.83 135.79,-55.83 43.76,0 79.35,10.94 106.76,32.82 27.41,21.88 44.38,50.93 50.92,87.14l-64.13 0c-13.58,-42.75 -44.76,-64.13 -93.55,-64.13 -40.74,0 -71.04,13.46 -90.91,40.37 -19.86,26.9 -29.8,60.98 -29.8,102.22 0,41.75 10.06,76.45 30.18,104.11 20.12,27.67 50.3,41.5 90.53,41.5 53.32,0 85.26,-22.89 95.82,-68.65zm250.47 114.67l-90.54 0 0 -380.23 62.62 0 0 294.22 16.6 0 166.72 -294.22 93.55 0 0 380.23 -62.62 0 0 -294.22 -16.59 0 -169.74 294.22zm711.41 -55.83l70.16 0 0 163.7 -62.62 0 0 -107.88 -328.92 0 0 107.88 -62.62 0 0 -163.7 50.55 0c31.18,-66.39 46.77,-139.82 46.77,-220.29l0 -104.11 286.68 0 0 324.4zm-64.13 0l0 -268.57 -162.95 0 0 48.28c0,86.01 -13.83,159.43 -41.49,220.29l204.44 0zm546.94 -156.91l0 21.88 -289.69 0c1.01,45.77 11.82,81.35 32.44,106.75 20.62,25.4 50.3,38.1 89.02,38.1 52.31,0 84.5,-19.62 96.57,-58.85l64.88 0c-6.53,34.2 -23.76,61.87 -51.67,82.99 -27.92,21.13 -64.51,31.69 -109.78,31.69 -57.84,0 -103.1,-18.86 -135.79,-56.59 -32.7,-37.72 -49.04,-86.76 -49.04,-147.1 0,-59.35 16.34,-106.88 49.04,-142.58 32.69,-35.71 77.45,-53.57 134.29,-53.57 53.81,0 95.31,16.98 124.48,50.93 29.17,33.95 44.26,76.07 45.26,126.37zm-171.24 -121.47c-32.7,0 -58.85,8.43 -78.47,25.28 -19.61,16.85 -31.68,38.35 -36.21,64.5l219.53 0c-2.01,-25.65 -12.32,-47.03 -30.93,-64.13 -18.61,-17.1 -43.25,-25.65 -73.93,-25.65zm609.57 334.21l-64.13 0 0 -167.48 -210.48 0 0 167.48 -64.13 0 0 -380.23 64.13 0 0 156.92 210.48 0 0 -156.92 64.13 0 0 380.23zm657.85 -380.23l189.35 0 0 380.23 -64.88 0 0 -150.12 -115.43 0c-10.06,0 -17.85,-0.26 -23.39,-0.76l-57.33 150.88 -67.15 0 64.13 -165.21c-39.23,-18.61 -58.85,-51.81 -58.85,-99.59 0,-36.71 11.44,-65.13 34.33,-85.25 22.88,-20.12 55.95,-30.18 99.21,-30.18zm124.48 54.32l-117.69 0c-27.67,0 -47.28,5.28 -58.85,15.85 -11.57,10.56 -17.35,25.9 -17.35,46.02 0,19.61 5.78,34.45 17.35,44.51 11.57,10.06 31.18,15.09 58.85,15.09l117.69 0 0 -121.47zm-1956.95 1149.79l-78.46 0 0 -87.52 78.46 0 0 87.52zm131.27 -470c35.21,-45.77 82.24,-68.65 141.08,-68.65 58.84,0 105.99,23.01 141.44,69.03 35.46,46.02 53.19,114.55 53.19,205.58 0,91.03 -17.73,159.42 -53.19,205.19 -35.46,45.77 -82.61,68.66 -141.44,68.66 -58.85,0 -105.88,-22.89 -141.08,-68.66 -35.2,-45.77 -52.81,-114.17 -52.81,-205.19 0,-91.54 17.61,-160.19 52.81,-205.96zm45.27 364.01c21.13,37.97 53.06,56.96 95.82,56.96 42.75,0 74.81,-18.99 96.19,-56.96 21.37,-37.97 32.06,-90.66 32.06,-158.04 0,-67.9 -10.69,-120.84 -32.06,-158.8 -21.38,-37.98 -53.44,-56.96 -96.19,-56.96 -42.76,0 -74.69,18.98 -95.82,56.96 -21.12,37.97 -31.69,90.91 -31.69,158.8 0,67.39 10.57,120.08 31.69,158.04zm860.78 -8.67l64.13 0c-7.55,38.22 -25.28,68.52 -53.19,90.91 -27.92,22.38 -63.5,33.57 -106.76,33.57 -57.33,0 -102.47,-18.74 -135.42,-56.21 -32.94,-37.47 -49.41,-85.38 -49.41,-143.71 0,-58.85 16.34,-106.88 49.04,-144.09 32.69,-37.22 77.95,-55.83 135.79,-55.83 43.76,0 79.35,10.94 106.76,32.82 27.41,21.88 44.38,50.93 50.92,87.14l-64.13 0c-13.58,-42.75 -44.76,-64.13 -93.55,-64.13 -40.74,0 -71.04,13.46 -90.91,40.37 -19.86,26.9 -29.8,60.98 -29.8,102.22 0,41.75 10.06,76.45 30.18,104.11 20.12,27.67 50.3,41.5 90.53,41.5 53.32,0 85.26,-22.89 95.82,-68.65zm159.93 114.67l0 -380.23 101.85 0 93.55 173.51 16.6 0 93.55 -173.51 100.34 0 0 380.23 -62.62 0 0 -305.54 -16.59 0 -88.27 162.95 -70.92 0 -88.27 -162.95 -16.6 0 0 305.54 -62.62 0zm165.22 -1204.11l0 126.75 112.41 0c45.77,0 81.11,11.06 106,33.19 24.9,22.13 37.35,53.07 37.35,92.8 0,40.24 -12.45,71.55 -37.35,93.93 -24.89,22.38 -60.23,33.57 -106,33.57l-176.53 0 0 -380.23 64.13 0zm0 324.4l103.36 0c31.69,0 54.32,-6.03 67.9,-18.11 13.58,-12.07 20.37,-29.92 20.37,-53.56 0,-23.64 -6.79,-41.49 -20.37,-53.57 -13.58,-12.07 -36.21,-18.1 -67.9,-18.1l-103.36 0 0 143.33zm857.01 55.83l-78.46 0 0 -87.52 78.46 0 0 87.52zm0 -292.71l-78.46 0 0 -87.52 78.46 0 0 87.52zm-2891.67 934.03l72.43 0 0 58.84 -72.43 0 0 123.73 -64.88 0 0 -123.73 -261.03 0 0 -75.44 233.12 -328.93 92.79 0 0 345.53zm-256.5 0l192.37 0 0 -270.84 -16.59 0 -175.78 254.24 0 16.6zm422.47 -345.53l308.56 0 0 73.94 -132.03 113.16 0 15.85c46.77,1 84.62,15.59 113.54,43.75 28.92,28.17 43.38,67.15 43.38,116.94 0,53.82 -17.35,96.32 -52.05,127.5 -34.71,31.19 -79.47,46.78 -134.29,46.78 -52.81,0 -96.07,-14.84 -129.77,-44.51 -33.7,-29.68 -52.05,-67.4 -55.07,-113.17l66.39 0c3.02,29.67 15.47,53.57 37.34,71.67 21.88,18.11 48.92,27.16 81.11,27.16 36.71,0 65.88,-10.31 87.51,-30.93 21.63,-20.62 32.44,-48.79 32.44,-84.5 0,-35.21 -10.31,-62.74 -30.93,-82.61 -20.62,-19.87 -50.04,-29.8 -88.27,-29.8 -18.61,0 -33.95,1.51 -46.02,4.53l0 -70.17 129.01 -111.65 0 -16.6 -230.85 0 0 -57.34z"/>
  <path fill="#666666" fill-rule="nonzero" fill-opacity="0.800000" d="M8763.64 20326.09l-66.39 0c3.01,-50.8 20.74,-89.53 53.18,-116.18 32.44,-26.66 73.31,-39.99 122.6,-39.99 51.3,0 92.67,13.96 124.11,41.87 31.43,27.92 47.15,67.52 47.15,118.83 0,62.36 -38.98,125.99 -116.94,190.86l-132.78 111.66 0 16.59 266.31 0 0 58.85 -362.88 0 0 -74.69 77.71 -63.37c48.28,-38.73 88.27,-72.68 119.95,-101.85 12.07,-10.56 21.76,-19.62 29.05,-27.16 7.29,-7.55 15.59,-17.48 24.9,-29.8 9.3,-12.32 16.34,-25.28 21.12,-38.86 4.78,-13.58 7.17,-27.66 7.17,-42.24 0,-32.7 -9.56,-57.84 -28.67,-75.45 -19.11,-17.6 -45.02,-26.4 -77.71,-26.4 -30.68,0 -55.45,8.17 -74.31,24.52 -18.86,16.34 -30.05,40.61 -33.57,72.8zm671.42 95.81l0 16.6c20.62,7.04 39.49,21.75 56.59,44.14 17.1,22.38 25.65,49.66 25.65,81.85 0,44.26 -17.48,80.98 -52.44,110.15 -34.95,29.17 -81.1,43.76 -138.44,43.76 -57.33,0 -103.48,-14.59 -138.44,-43.76 -34.95,-29.17 -52.43,-65.89 -52.43,-110.15 0,-31.68 8.55,-58.84 25.65,-81.48 17.1,-22.63 35.96,-37.47 56.58,-44.51l0 -16.6c-16.59,-7.04 -31.81,-20.37 -45.64,-39.98 -13.83,-19.62 -20.75,-43.26 -20.75,-70.92 0,-41.75 16.35,-75.7 49.04,-101.85 32.7,-26.15 74.69,-39.23 125.99,-39.23 51.31,0 93.3,13.08 126,39.23 32.69,26.15 49.03,60.1 49.03,101.85 0,26.66 -7.04,50.04 -21.12,70.16 -14.08,20.12 -29.17,33.7 -45.27,40.74zm-29.8 -171.62c-20.87,-15.34 -47.15,-23.01 -78.84,-23.01 -31.68,0 -57.96,7.67 -78.83,23.01 -20.88,15.34 -31.31,36.59 -31.31,63.75 0,27.16 10.43,48.53 31.31,64.13 20.87,15.59 47.15,23.38 78.83,23.38 31.69,0 57.97,-7.79 78.84,-23.38 20.88,-15.6 31.31,-36.97 31.31,-64.13 0,-27.16 -10.43,-48.41 -31.31,-63.75zm-170.49 381.73c22.38,18.36 52.94,27.54 91.66,27.54 38.73,0 69.29,-9.18 91.67,-27.54 22.38,-18.35 33.57,-42.87 33.57,-73.55 0,-31.19 -11.06,-55.58 -33.19,-73.18 -22.13,-17.61 -52.81,-26.41 -92.05,-26.41 -39.23,0 -69.91,8.8 -92.04,26.41 -22.13,17.6 -33.19,41.99 -33.19,73.18 0,30.68 11.19,55.2 33.57,73.55zm428.88 -305.91l-66.39 0c3.01,-50.8 20.74,-89.53 53.18,-116.18 32.44,-26.66 73.31,-39.99 122.6,-39.99 51.3,0 92.67,13.96 124.11,41.87 31.43,27.92 47.15,67.52 47.15,118.83 0,62.36 -38.98,125.99 -116.94,190.86l-132.78 111.66 0 16.59 266.31 0 0 58.85 -362.88 0 0 -74.69 77.71 -63.37c48.28,-38.73 88.27,-72.68 119.95,-101.85 12.07,-10.56 21.76,-19.62 29.05,-27.16 7.29,-7.55 15.59,-17.48 24.9,-29.8 9.3,-12.32 16.34,-25.28 21.12,-38.86 4.78,-13.58 7.17,-27.66 7.17,-42.24 0,-32.7 -9.56,-57.84 -28.67,-75.45 -19.11,-17.6 -45.02,-26.4 -77.71,-26.4 -30.68,0 -55.45,8.17 -74.31,24.52 -18.86,16.34 -30.05,40.61 -33.57,72.8zm469.23 382.49l-78.46 0 0 -87.52 78.46 0 0 87.52zm131.27 -470c35.21,-45.77 82.24,-68.65 141.08,-68.65 58.84,0 105.99,23.01 141.44,69.03 35.46,46.02 53.19,114.55 53.19,205.58 0,91.03 -17.73,159.42 -53.19,205.19 -35.46,45.77 -82.61,68.66 -141.44,68.66 -58.85,0 -105.88,-22.89 -141.08,-68.66 -35.2,-45.77 -52.81,-114.17 -52.81,-205.19 0,-91.54 17.61,-160.19 52.81,-205.96zm45.27 364.01c21.13,37.97 53.06,56.96 95.82,56.96 42.75,0 74.81,-18.99 96.19,-56.96 21.37,-37.97 32.06,-90.66 32.06,-158.04 0,-67.9 -10.69,-120.84 -32.06,-158.8 -21.38,-37.98 -53.44,-56.96 -96.19,-56.96 -42.76,0 -74.69,18.98 -95.82,56.96 -21.12,37.97 -31.69,90.91 -31.69,158.8 0,67.39 10.57,120.08 31.69,158.04zm860.78 -8.67l64.13 0c-7.55,38.22 -25.28,68.52 -53.19,90.91 -27.92,22.38 -63.5,33.57 -106.76,33.57 -57.33,0 -102.47,-18.74 -135.42,-56.21 -32.94,-37.47 -49.41,-85.38 -49.41,-143.71 0,-58.85 16.34,-106.88 49.04,-144.09 32.69,-37.22 77.95,-55.83 135.79,-55.83 43.76,0 79.35,10.94 106.76,32.82 27.41,21.88 44.38,50.93 50.92,87.14l-64.13 0c-13.58,-42.75 -44.76,-64.13 -93.55,-64.13 -40.74,0 -71.04,13.46 -90.91,40.37 -19.86,26.9 -29.8,60.98 -29.8,102.22 0,41.75 10.06,76.45 30.18,104.11 20.12,27.67 50.3,41.5 90.53,41.5 53.32,0 85.26,-22.89 95.82,-68.65zm159.93 114.67l0 -380.23 101.85 0 93.55 173.51 16.6 0 93.55 -173.51 100.34 0 0 380.23 -62.62 0 0 -305.54 -16.59 0 -88.27 162.95 -70.92 0 -88.27 -162.95 -16.6 0 0 305.54 -62.62 0z"/>
  <path fill="#666666" fill-rule="nonzero" fill-opacity="0.800000" d="M2091.74 4630.39l16.6 0c7.04,-20.62 21.75,-39.49 44.14,-56.59 22.38,-17.1 49.66,-25.65 81.85,-25.65 44.26,0 80.98,17.48 110.15,52.44 29.17,34.95 43.76,81.1 43.76,138.44 0,57.33 -14.59,103.48 -43.76,138.44 -29.17,34.95 -65.89,52.43 -110.15,52.43 -31.68,0 -58.84,-8.55 -81.48,-25.65 -22.63,-17.1 -37.47,-35.96 -44.51,-56.58l-16.6 0c-7.04,16.59 -20.37,31.81 -39.98,45.64 -19.62,13.83 -43.26,20.75 -70.92,20.75 -41.75,0 -75.7,-16.35 -101.85,-49.04 -26.15,-32.7 -39.23,-74.69 -39.23,-125.99 0,-51.31 13.08,-93.3 39.23,-126 26.15,-32.69 60.1,-49.03 101.85,-49.03 26.66,0 50.04,7.04 70.16,21.12 20.12,14.08 33.7,29.17 40.74,45.27zm-171.62 29.8c-15.34,20.87 -23.01,47.15 -23.01,78.84 0,31.68 7.67,57.96 23.01,78.83 15.34,20.88 36.59,31.31 63.75,31.31 27.16,0 48.53,-10.43 64.13,-31.31 15.59,-20.87 23.38,-47.15 23.38,-78.83 0,-31.69 -7.79,-57.97 -23.38,-78.84 -15.6,-20.88 -36.97,-31.31 -64.13,-31.31 -27.16,0 -48.41,10.43 -63.75,31.31zm381.73 170.49c18.36,-22.38 27.54,-52.94 27.54,-91.66 0,-38.73 -9.18,-69.29 -27.54,-91.67 -18.35,-22.38 -42.87,-33.57 -73.55,-33.57 -31.19,0 -55.58,11.06 -73.18,33.19 -17.61,22.13 -26.41,52.81 -26.41,92.05 0,39.23 8.8,69.91 26.41,92.04 17.6,22.13 41.99,33.19 73.18,33.19 30.68,0 55.2,-11.19 73.55,-33.57zm76.58 -367.02l-58.85 0 0 -125.24 -399.84 0 0 15.09 74.69 110.9 -69.41 0 -74.69 -110.15 0 -82.23 469.24 0 0 -115.43 58.85 0 0 307.05zm0 -472.26l0 78.46 -87.52 0 0 -78.46 87.52 0zm-470 -131.27c-45.77,-35.21 -68.65,-82.24 -68.65,-141.08 0,-58.84 23.01,-105.99 69.03,-141.44 46.02,-35.46 114.55,-53.19 205.58,-53.19 91.03,0 159.42,17.73 205.19,53.19 45.77,35.46 68.66,82.61 68.66,141.44 0,58.85 -22.89,105.88 -68.66,141.08 -45.77,35.2 -114.17,52.81 -205.19,52.81 -91.54,0 -160.19,-17.61 -205.96,-52.81zm364.01 -45.27c37.97,-21.13 56.96,-53.06 56.96,-95.82 0,-42.75 -18.99,-74.81 -56.96,-96.19 -37.97,-21.37 -90.66,-32.06 -158.04,-32.06 -67.9,0 -120.84,10.69 -158.8,32.06 -37.98,21.38 -56.96,53.44 -56.96,96.19 0,42.76 18.98,74.69 56.96,95.82 37.97,21.12 90.91,31.69 158.8,31.69 67.39,0 120.08,-10.57 158.04,-31.69zm-8.67 -860.78l0 -64.13c38.22,7.55 68.52,25.28 90.91,53.19 22.38,27.92 33.57,63.5 33.57,106.76 0,57.33 -18.74,102.47 -56.21,135.42 -37.47,32.94 -85.38,49.41 -143.71,49.41 -58.85,0 -106.88,-16.34 -144.09,-49.04 -37.22,-32.69 -55.83,-77.95 -55.83,-135.79 0,-43.76 10.94,-79.35 32.82,-106.76 21.88,-27.41 50.93,-44.38 87.14,-50.92l0 64.13c-42.75,13.58 -64.13,44.76 -64.13,93.55 0,40.74 13.46,71.04 40.37,90.91 26.9,19.86 60.98,29.8 102.22,29.8 41.75,0 76.45,-10.06 104.11,-30.18 27.67,-20.12 41.5,-50.3 41.5,-90.53 0,-53.32 -22.89,-85.26 -68.65,-95.82zm114.67 -159.93l-380.23 0 0 -101.85 173.51 -93.55 0 -16.6 -173.51 -93.55 0 -100.34 380.23 0 0 62.62 -305.54 0 0 16.59 162.95 88.27 0 70.92 -162.95 88.27 0 16.6 305.54 0 0 62.62z"/>
  <path fill="#666666" fill-rule="nonzero" fill-opacity="0.800000" d="M2378.42 14927.7l-58.85 0 0 -125.24 -399.84 0 0 15.09 74.69 110.9 -69.41 0 -74.69 -110.15 0 -82.23 469.24 0 0 -115.43 58.85 0 0 307.05zm-286.68 -674.45l16.6 0c7.04,-20.62 21.75,-39.49 44.14,-56.59 22.38,-17.1 49.66,-25.65 81.85,-25.65 44.26,0 80.98,17.48 110.15,52.44 29.17,34.95 43.76,81.1 43.76,138.44 0,57.33 -14.59,103.48 -43.76,138.44 -29.17,34.95 -65.89,52.43 -110.15,52.43 -31.68,0 -58.84,-8.55 -81.48,-25.65 -22.63,-17.1 -37.47,-35.96 -44.51,-56.58l-16.6 0c-7.04,16.59 -20.37,31.81 -39.98,45.64 -19.62,13.83 -43.26,20.75 -70.92,20.75 -41.75,0 -75.7,-16.35 -101.85,-49.04 -26.15,-32.7 -39.23,-74.69 -39.23,-125.99 0,-51.31 13.08,-93.3 39.23,-126 26.15,-32.69 60.1,-49.03 101.85,-49.03 26.66,0 50.04,7.04 70.16,21.12 20.12,14.08 33.7,29.17 40.74,45.27zm-171.62 29.8c-15.34,20.87 -23.01,47.15 -23.01,78.84 0,31.68 7.67,57.96 23.01,78.83 15.34,20.88 36.59,31.31 63.75,31.31 27.16,0 48.53,-10.43 64.13,-31.31 15.59,-20.87 23.38,-47.15 23.38,-78.83 0,-31.69 -7.79,-57.97 -23.38,-78.84 -15.6,-20.88 -36.97,-31.31 -64.13,-31.31 -27.16,0 -48.41,10.43 -63.75,31.31zm381.73 170.49c18.36,-22.38 27.54,-52.94 27.54,-91.66 0,-38.73 -9.18,-69.29 -27.54,-91.67 -18.35,-22.38 -42.87,-33.57 -73.55,-33.57 -31.19,0 -55.58,11.06 -73.18,33.19 -17.61,22.13 -26.41,52.81 -26.41,92.05 0,39.23 8.8,69.91 26.41,92.04 17.6,22.13 41.99,33.19 73.18,33.19 30.68,0 55.2,-11.19 73.55,-33.57zm-278.75 -561.66c0,-51.3 16.85,-92.42 50.55,-123.35 33.69,-30.93 75.69,-46.4 125.99,-46.4 56.83,0 102.48,16.73 136.93,50.17 34.45,33.45 51.68,77.08 51.68,130.9 0,55.83 -14.59,99.71 -43.76,131.65 -29.17,31.94 -67.14,49.41 -113.92,52.43l0 -65.63c32.19,-4.03 56.71,-16.1 73.56,-36.22 16.85,-20.12 25.27,-46.52 25.27,-79.21 0,-35.21 -11.44,-63.63 -34.33,-85.25 -22.88,-21.63 -53.69,-32.45 -92.41,-32.45 -36.72,0 -66.52,10.44 -89.41,31.31 -22.88,20.88 -34.32,48.92 -34.32,84.12 0,47.28 16.6,82.24 49.79,104.87l0 66.39 -278.38 -23.39 0 -301.76 57.34 0 0 248.2 152.39 12.07 0 -16.6c-24.65,-27.16 -36.97,-61.11 -36.97,-101.85zm355.33 -346.27l0 78.46 -87.52 0 0 -78.46 87.52 0zm-470 -131.27c-45.77,-35.21 -68.65,-82.24 -68.65,-141.08 0,-58.84 23.01,-105.99 69.03,-141.44 46.02,-35.46 114.55,-53.19 205.58,-53.19 91.03,0 159.42,17.73 205.19,53.19 45.77,35.46 68.66,82.61 68.66,141.44 0,58.85 -22.89,105.88 -68.66,141.08 -45.77,35.2 -114.17,52.81 -205.19,52.81 -91.54,0 -160.19,-17.61 -205.96,-52.81zm364.01 -45.27c37.97,-21.13 56.96,-53.06 56.96,-95.82 0,-42.75 -18.99,-74.81 -56.96,-96.19 -37.97,-21.37 -90.66,-32.06 -158.04,-32.06 -67.9,0 -120.84,10.69 -158.8,32.06 -37.98,21.38 -56.96,53.44 -56.96,96.19 0,42.76 18.98,74.69 56.96,95.82 37.97,21.12 90.91,31.69 158.8,31.69 67.39,0 120.08,-10.57 158.04,-31.69zm-8.67 -860.78l0 -64.13c38.22,7.55 68.52,25.28 90.91,53.19 22.38,27.92 33.57,63.5 33.57,106.76 0,57.33 -18.74,102.47 -56.21,135.42 -37.47,32.94 -85.38,49.41 -143.71,49.41 -58.85,0 -106.88,-16.34 -144.09,-49.04 -37.22,-32.69 -55.83,-77.95 -55.83,-135.79 0,-43.76 10.94,-79.35 32.82,-106.76 21.88,-27.41 50.93,-44.38 87.14,-50.92l0 64.13c-42.75,13.58 -64.13,44.76 -64.13,93.55 0,40.74 13.46,71.04 40.37,90.91 26.9,19.86 60.98,29.8 102.22,29.8 41.75,0 76.45,-10.06 104.11,-30.18 27.67,-20.12 41.5,-50.3 41.5,-90.53 0,-53.32 -22.89,-85.26 -68.65,-95.82zm114.67 -159.93l-380.23 0 0 -101.85 173.51 -93.55 0 -16.6 -173.51 -93.55 0 -100.34 380.23 0 0 62.62 -305.54 0 0 16.59 162.95 88.27 0 70.92 -162.95 88.27 0 16.6 305.54 0 0 62.62z"/>
  <path fill="#666666" fill-rule="nonzero" fill-opacity="0.800000" d="M5552.01 16458.14l0 -58.85 125.24 0 0 -399.84 -15.09 0 -110.9 74.69 0 -69.41 110.15 -74.69 82.23 0 0 469.24 115.43 0 0 58.85 -307.05 0zm581.66 -344.01c48.28,0 88.52,16.22 120.71,48.66 32.19,32.44 48.28,73.55 48.28,123.35 0,51.8 -16.22,95.06 -48.66,129.76 -32.44,34.71 -76.07,52.06 -130.89,52.06 -59.86,0 -107.14,-20.62 -141.83,-61.87 -34.7,-41.24 -52.06,-107.13 -52.06,-197.65 0,-85 16.98,-154.4 50.93,-208.22 33.95,-53.81 83.87,-80.72 149.75,-80.72 43.75,0 79.59,11.69 107.5,35.08 27.92,23.39 44.89,53.69 50.93,90.91l-65.64 0c-13.08,-44.76 -44.01,-67.14 -92.79,-67.14 -41.75,0 -74.44,16.59 -98.08,49.79 -23.64,33.19 -36.47,78.96 -38.48,137.31l16.6 0c11.06,-13.58 27.28,-25.53 48.66,-35.84 21.38,-10.31 46.4,-15.46 75.07,-15.46zm-94.31 262.53c22.13,21.63 49.8,32.44 82.99,32.44 33.2,0 60.48,-10.56 81.86,-31.69 21.37,-21.12 32.06,-50.54 32.06,-88.26 0,-37.73 -10.81,-66.65 -32.44,-86.77 -21.63,-20.11 -49.29,-30.17 -82.99,-30.17 -33.19,0 -60.6,10.31 -82.23,30.93 -21.63,20.62 -32.44,49.04 -32.44,85.25 0,37.22 11.06,66.64 33.19,88.27zm390.03 -388.53c35.21,-45.77 82.24,-68.65 141.08,-68.65 58.84,0 105.99,23.01 141.44,69.03 35.46,46.02 53.19,114.55 53.19,205.58 0,91.03 -17.73,159.42 -53.19,205.19 -35.46,45.77 -82.61,68.66 -141.44,68.66 -58.85,0 -105.88,-22.89 -141.08,-68.66 -35.2,-45.77 -52.81,-114.17 -52.81,-205.19 0,-91.54 17.61,-160.19 52.81,-205.96zm45.27 364.01c21.13,37.97 53.06,56.96 95.82,56.96 42.75,0 74.81,-18.99 96.19,-56.96 21.37,-37.97 32.06,-90.66 32.06,-158.04 0,-67.9 -10.69,-120.84 -32.06,-158.8 -21.38,-37.98 -53.44,-56.96 -96.19,-56.96 -42.76,0 -74.69,18.98 -95.82,56.96 -21.12,37.97 -31.69,90.91 -31.69,158.8 0,67.39 10.57,120.08 31.69,158.04zm441.33 106l-78.46 0 0 -87.52 78.46 0 0 87.52zm1947.14 -184.83c-48.29,0 -88.53,-16.22 -120.71,-48.66 -32.19,-32.44 -48.29,-73.56 -48.29,-123.35 0,-51.8 16.22,-95.06 48.66,-129.76 32.44,-34.71 76.07,-52.06 130.9,-52.06 59.85,0 107.13,20.62 141.82,61.86 34.71,41.25 52.06,107.13 52.06,197.66 0,85 -16.98,154.4 -50.93,208.21 -33.95,53.82 -83.86,80.73 -149.74,80.73 -43.76,0 -79.6,-11.7 -107.51,-35.08 -27.91,-23.39 -44.89,-53.69 -50.92,-90.91l65.63 0c13.08,44.76 44.01,67.14 92.8,67.14 41.74,0 74.44,-16.6 98.07,-49.79 23.64,-33.2 36.47,-78.97 38.48,-137.31l-16.6 0c-11.06,13.58 -27.28,25.53 -48.66,35.84 -21.37,10.31 -46.4,15.46 -75.06,15.46zm94.3 -262.53c-22.13,-21.63 -49.79,-32.44 -82.99,-32.44 -33.19,0 -60.48,10.56 -81.85,31.68 -21.38,21.13 -32.07,50.55 -32.07,88.27 0,37.72 10.82,66.64 32.44,86.76 21.63,20.12 49.29,30.18 82.99,30.18 33.2,0 60.61,-10.31 82.23,-30.93 21.63,-20.62 32.45,-49.04 32.45,-85.25 0,-37.22 -11.07,-66.65 -33.2,-88.27zm258.01 64.88l-66.39 0c3.01,-50.8 20.74,-89.53 53.18,-116.18 32.44,-26.66 73.31,-39.99 122.6,-39.99 51.3,0 92.67,13.96 124.11,41.87 31.43,27.92 47.15,67.52 47.15,118.83 0,62.36 -38.98,125.99 -116.94,190.86l-132.78 111.66 0 16.59 266.31 0 0 58.85 -362.88 0 0 -74.69 77.71 -63.37c48.28,-38.73 88.27,-72.68 119.95,-101.85 12.07,-10.56 21.76,-19.62 29.05,-27.16 7.29,-7.55 15.59,-17.48 24.9,-29.8 9.3,-12.32 16.34,-25.28 21.12,-38.86 4.78,-13.58 7.17,-27.66 7.17,-42.24 0,-32.7 -9.56,-57.84 -28.67,-75.45 -19.11,-17.6 -45.02,-26.4 -77.71,-26.4 -30.68,0 -55.45,8.17 -74.31,24.52 -18.86,16.34 -30.05,40.61 -33.57,72.8zm1506.55 267.82l64.13 0c-7.55,38.22 -25.28,68.52 -53.19,90.91 -27.92,22.38 -63.5,33.57 -106.76,33.57 -57.33,0 -102.47,-18.74 -135.42,-56.21 -32.94,-37.47 -49.41,-85.38 -49.41,-143.71 0,-58.85 16.34,-106.88 49.04,-144.09 32.69,-37.22 77.95,-55.83 135.79,-55.83 43.76,0 79.35,10.94 106.76,32.82 27.41,21.88 44.38,50.93 50.92,87.14l-64.13 0c-13.58,-42.75 -44.76,-64.13 -93.55,-64.13 -40.74,0 -71.04,13.46 -90.91,40.37 -19.86,26.9 -29.8,60.98 -29.8,102.22 0,41.75 10.06,76.45 30.18,104.11 20.12,27.67 50.3,41.5 90.53,41.5 53.32,0 85.26,-22.89 95.82,-68.65zm159.93 114.67l0 -380.23 101.85 0 93.55 173.51 16.6 0 93.55 -173.51 100.34 0 0 380.23 -62.62 0 0 -305.54 -16.59 0 -88.27 162.95 -70.92 0 -88.27 -162.95 -16.6 0 0 305.54 -62.62 0zm-3813.53 -470c35.21,-45.77 82.24,-68.65 141.08,-68.65 58.84,0 105.99,23.01 141.44,69.03 35.46,46.02 53.19,114.55 53.19,205.58 0,91.03 -17.73,159.42 -53.19,205.19 -35.46,45.77 -82.61,68.66 -141.44,68.66 -58.85,0 -105.88,-22.89 -141.08,-68.66 -35.2,-45.77 -52.81,-114.17 -52.81,-205.19 0,-91.54 17.61,-160.19 52.81,-205.96zm45.27 364.01c21.13,37.97 53.06,56.96 95.82,56.96 42.75,0 74.81,-18.99 96.19,-56.96 21.37,-37.97 32.06,-90.66 32.06,-158.04 0,-67.9 -10.69,-120.84 -32.06,-158.8 -21.38,-37.98 -53.44,-56.96 -96.19,-56.96 -42.76,0 -74.69,18.98 -95.82,56.96 -21.12,37.97 -31.69,90.91 -31.69,158.8 0,67.39 10.57,120.08 31.69,158.04zm857.76 106l-94.3 -159.18 -27.16 0 -96.57 159.18 -70.17 0 118.45 -194.64 -106.37 -185.58 67.89 0 87.52 150.88 27.16 0 89.02 -150.88 67.15 0 -107.89 183.32 117.7 196.9 -72.43 0zm354.57 0l0 -58.85 125.24 0 0 -399.84 -15.09 0 -110.9 74.69 0 -69.41 110.15 -74.69 82.23 0 0 469.24 115.43 0 0 58.85 -307.05 0zm1358.69 0l-78.46 0 0 -87.52 78.46 0 0 87.52zm131.27 -470c35.21,-45.77 82.24,-68.65 141.08,-68.65 58.84,0 105.99,23.01 141.44,69.03 35.46,46.02 53.19,114.55 53.19,205.58 0,91.03 -17.73,159.42 -53.19,205.19 -35.46,45.77 -82.61,68.66 -141.44,68.66 -58.85,0 -105.88,-22.89 -141.08,-68.66 -35.2,-45.77 -52.81,-114.17 -52.81,-205.19 0,-91.54 17.61,-160.19 52.81,-205.96zm45.27 364.01c21.13,37.97 53.06,56.96 95.82,56.96 42.75,0 74.81,-18.99 96.19,-56.96 21.37,-37.97 32.06,-90.66 32.06,-158.04 0,-67.9 -10.69,-120.84 -32.06,-158.8 -21.38,-37.98 -53.44,-56.96 -96.19,-56.96 -42.76,0 -74.69,18.98 -95.82,56.96 -21.12,37.97 -31.69,90.91 -31.69,158.8 0,67.39 10.57,120.08 31.69,158.04z"/>
  <path fill="#666666" fill-rule="nonzero" fill-opacity="0.800000" d="M19778.26 7839.63l0 -58.85 125.24 0 0 -399.84 -15.09 0 -110.9 74.69 0 -69.41 110.15 -74.69 82.23 0 0 469.24 115.43 0 0 58.85 -307.05 0zm430.01 -470c35.21,-45.77 82.24,-68.65 141.08,-68.65 58.84,0 105.99,23.01 141.44,69.03 35.46,46.02 53.19,114.55 53.19,205.58 0,91.03 -17.73,159.42 -53.19,205.19 -35.46,45.77 -82.61,68.66 -141.44,68.66 -58.85,0 -105.88,-22.89 -141.08,-68.66 -35.2,-45.77 -52.81,-114.17 -52.81,-205.19 0,-91.54 17.61,-160.19 52.81,-205.96zm45.27 364.01c21.13,37.97 53.06,56.96 95.82,56.96 42.75,0 74.81,-18.99 96.19,-56.96 21.37,-37.97 32.06,-90.66 32.06,-158.04 0,-67.9 -10.69,-120.84 -32.06,-158.8 -21.38,-37.98 -53.44,-56.96 -96.19,-56.96 -42.76,0 -74.69,18.98 -95.82,56.96 -21.12,37.97 -31.69,90.91 -31.69,158.8 0,67.39 10.57,120.08 31.69,158.04zm697.84 -348.16l-228.59 454.15 -69.41 0 229.34 -454.15 0 -16.6 -267.81 0 0 -57.34 336.47 0 0 73.94zm176.52 454.15l-78.46 0 0 -87.52 78.46 0 0 87.52zm131.27 -470c35.21,-45.77 82.24,-68.65 141.08,-68.65 58.84,0 105.99,23.01 141.44,69.03 35.46,46.02 53.19,114.55 53.19,205.58 0,91.03 -17.73,159.42 -53.19,205.19 -35.46,45.77 -82.61,68.66 -141.44,68.66 -58.85,0 -105.88,-22.89 -141.08,-68.66 -35.2,-45.77 -52.81,-114.17 -52.81,-205.19 0,-91.54 17.61,-160.19 52.81,-205.96zm45.27 364.01c21.13,37.97 53.06,56.96 95.82,56.96 42.75,0 74.81,-18.99 96.19,-56.96 21.37,-37.97 32.06,-90.66 32.06,-158.04 0,-67.9 -10.69,-120.84 -32.06,-158.8 -21.38,-37.98 -53.44,-56.96 -96.19,-56.96 -42.76,0 -74.69,18.98 -95.82,56.96 -21.12,37.97 -31.69,90.91 -31.69,158.8 0,67.39 10.57,120.08 31.69,158.04zm860.78 -8.67l64.13 0c-7.55,38.22 -25.28,68.52 -53.19,90.91 -27.92,22.38 -63.5,33.57 -106.76,33.57 -57.33,0 -102.47,-18.74 -135.42,-56.21 -32.94,-37.47 -49.41,-85.38 -49.41,-143.71 0,-58.85 16.34,-106.88 49.04,-144.09 32.69,-37.22 77.95,-55.83 135.79,-55.83 43.76,0 79.35,10.94 106.76,32.82 27.41,21.88 44.38,50.93 50.92,87.14l-64.13 0c-13.58,-42.75 -44.76,-64.13 -93.55,-64.13 -40.74,0 -71.04,13.46 -90.91,40.37 -19.86,26.9 -29.8,60.98 -29.8,102.22 0,41.75 10.06,76.45 30.18,104.11 20.12,27.67 50.3,41.5 90.53,41.5 53.32,0 85.26,-22.89 95.82,-68.65zm159.93 114.67l0 -380.23 101.85 0 93.55 173.51 16.6 0 93.55 -173.51 100.34 0 0 380.23 -62.62 0 0 -305.54 -16.59 0 -88.27 162.95 -70.92 0 -88.27 -162.95 -16.6 0 0 305.54 -62.62 0z"/>
 </g>
 <g id="Выносные_x0020_линии">
  <metadata id="CorelCorpID_3Corel-Layer"/>
  <g id="_2237896179968">
   <line fill="none" stroke="gray" stroke-width="10.58" stroke-miterlimit="22.9256" x1="18867.12" y1="7296.35" x2="18867.12" y2= "6186.04" />
   <line fill="none" stroke="gray" stroke-width="10.58" stroke-miterlimit="22.9256" x1="24087.54" y1="6877.41" x2="18421.03" y2= "6877.41" />
   <line fill="none" stroke="gray" stroke-width="10.58" stroke-miterlimit="22.9256" x1="23631.16" y1="7293.65" x2="23631.16" y2= "6186.04" />
  </g>
  <g id="_2237896192880">
   <line fill="none" stroke="gray" stroke-width="10.58" stroke-miterlimit="22.9256" x1="2397.95" y1="5733.52" x2="3505.55" y2= "5733.52" />
   <line fill="none" stroke="gray" stroke-width="10.58" stroke-miterlimit="22.9256" x1="2395.24" y1="1587.83" x2="3505.55" y2= "1587.83" />
   <line fill="none" stroke="gray" stroke-width="10.58" stroke-miterlimit="22.9256" x1="2805.4" y1="6182.52" x2="2809.7" y2= "1135.68" />
  </g>
  <g id="_2237896195280">
   <line fill="none" stroke="gray" stroke-width="10.58" stroke-miterlimit="22.9256" x1="2395.24" y1="9204.43" x2="3505.55" y2= "9204.43" />
   <line fill="none" stroke="gray" stroke-width="10.58" stroke-miterlimit="22.9256" x1="2397.95" y1="17590.42" x2="3505.55" y2= "17590.42" />
   <line fill="none" stroke="gray" stroke-width="10.58" stroke-miterlimit="22.9256" x1="2815.33" y1="18047.36" x2="2810.68" y2= "8758.36" />
  </g>
  <g id="_2237896196384">
   <line fill="none" stroke="gray" stroke-width="10.58" stroke-miterlimit="22.9256" x1="3717.47" y1="20157.86" x2="3717.47" y2= "19047.55" />
   <line fill="none" stroke="gray" stroke-width="10.58" stroke-miterlimit="22.9256" x1="17181.25" y1="19739.75" x2="3252.04" y2= "19738.95" />
   <line fill="none" stroke="gray" stroke-width="10.58" stroke-miterlimit="22.9256" x1="16733.46" y1="20155.15" x2="16733.46" y2= "19047.55" />
  </g>
 </g>
</svg>
