<?xml version="1.0" encoding="UTF-8"?>
<!DOCTYPE svg PUBLIC "-//W3C//DTD SVG 1.1//EN" "http://www.w3.org/Graphics/SVG/1.1/DTD/svg11.dtd">
<!-- Creator: CorelDRAW 2021.5 -->
<svg xmlns="http://www.w3.org/2000/svg" xml:space="preserve" width="297mm" height="210mm" version="1.1" shape-rendering="geometricPrecision" text-rendering="geometricPrecision" image-rendering="optimizeQuality" fill-rule="evenodd" clip-rule="evenodd"
viewBox="0 0 29698.94 20999.25"
 xmlns:xlink="http://www.w3.org/1999/xlink"
 xmlns:xodm="http://www.corel.com/coreldraw/odm/2003">
 <g id="Тени">
  <metadata id="CorelCorpID_0Corel-Layer"/>
  <g id="_2274241111632">
   <path fill="black" fill-opacity="0.101961" d="M8964.87 11224c45.55,-850.59 291.71,-1084.76 561.36,-1099.92 28.54,-1.58 100.75,0.59 133.79,-0.63 -230.07,-40.42 -534.37,-3.79 -641.72,-43.78 -64.56,-24.05 -67.93,-90.1 -73.8,-167.51 -7.13,-93.59 -15.49,-440.29 -9.13,-481.82l21.33 -463.16c4.11,-89.54 78.86,-186.8 63.09,-185.04l-115.04 12.97 -16.7 118.77 0 3567.63c35.17,-965.77 32.28,-426.44 76.82,-1257.5zm2350.25 -1110c160.32,10.33 288.95,45.97 318.36,57.32 284.86,109.93 484.46,286.34 529.54,1100.46 20.46,369.42 72.83,1209.72 72.83,1209.72 0,0 69.51,-949.73 76.98,-1206.93 37.67,-1294.04 482.94,-1097.07 1136.43,-1136.79 115.4,-7 445.05,-12.46 544.26,-22.16 -24.97,0.57 -245.17,0.39 -269.79,0.61 -564.44,5.21 -1136.56,14.8 -1358.87,-49.35 -58.48,-16.9 -45.43,-131.77 -55.48,-251.97 -15.08,-180.27 -29.77,-396.99 -22.83,-442.5l34.41 -427.09c5.1,-63.44 34.38,-127.39 68.61,-154.2l-123.93 0.36 -26.7 51.32 -34.11 -49.81 -139.03 -6.09c53.76,8.14 63.71,120.89 71.76,204.55l38.06 395.88c1.4,14.51 -0.52,28.63 -2.74,41.96l1.08 0.02c-3.7,56.49 7.93,304.08 -11.87,476 -8.59,74.63 4.1,131.4 -38.35,158.1 -84.78,53.4 -471.07,36.82 -808.62,50.6zm3324.05 7.58c208.14,3.61 421.56,52.11 571.62,179.12 278.22,235.5 285.69,392.5 324.24,1074.54 56.53,999.94 55.18,1553.11 55.15,1019.54l-0.3 -3558.29 -38.61 -50.87 -95.8 -3.41c26.2,29.73 41.65,131.36 46.63,184.9l37.83 405.29c1.36,14.51 -0.54,28.63 -2.75,41.96l1.07 0.02c-5.29,81.01 28.11,588.54 -52.83,643.34 -99.53,67.4 -517.94,14.39 -846.25,63.86z"/>
   <path fill="black" fill-opacity="0.101961" d="M9406.33 1742.17c524.74,65.68 686.75,193.98 1106.63,200.98 447.53,7.47 575.03,-100.48 1271.2,-215.45 -391.47,9.08 -774.47,32.21 -1165.94,41.31l-1211.9 -26.84z"/>
   <path fill="black" fill-opacity="0.101961" d="M12657.75 1716.72c650.59,77.44 745.43,205.56 1165.33,212.29 447.53,7.18 678.39,-188.25 1178.73,-200.93 -391.46,8.73 -774.47,21.15 -1165.94,29.9l-1178.12 -41.26z"/>
   <polygon fill="black" fill-opacity="0.101961" points="8903.34,4033.31 8915.37,3920.83 8991.64,3894.25 8995.65,4695.45 12193.21,4695.45 12199.36,3902.33 12244.75,3950.59 12283.1,3910.96 12292.25,4695.45 15495.09,4695.45 15491.91,3894.25 15557.25,3911.24 15587.44,3996.18 15589.23,5726.45 15544.93,5776.39 15490.71,5776.39 15494.17,4902.8 8996.6,4902.8 8999.29,5766.73 8936.67,5766.73 8900.76,5727.3 "/>
   <path fill="black" fill-opacity="0.101961" d="M9345.43 3796.3c563.47,-66.57 779.21,-163.42 1199.1,-169.21 447.54,-6.18 514.26,97.9 1178.74,181.18 -391.47,-7.51 -789,18.09 -1180.47,10.56l-1197.37 -22.53z"/>
   <path fill="black" fill-opacity="0.101961" d="M12623.97 3798.66c689.33,-148.25 772.78,-184.28 1192.67,-194.38 447.53,-10.76 588.46,44.49 1185.17,200.5 -391.46,-13.09 -784.15,-8.74 -1175.62,-21.88l-1202.22 15.76z"/>
   <polygon fill="black" fill-opacity="0.101961" points="19923.16,3001.06 21063,3003.39 21094.41,3129.47 19948.61,3126.7 "/>
   <polygon fill="black" fill-opacity="0.101961" points="19434.56,3001.06 19851.76,3003.39 19760.83,3103.28 19621.63,3122.32 19505.78,3085.02 "/>
   <g>
    <rect fill="none" stroke="#2B2A29" stroke-width="10.58" stroke-miterlimit="22.9256" x="23339.15" y="5737.19" width="165.27" height="144.14"/>
    <rect fill="none" stroke="#2B2A29" stroke-width="10.58" stroke-miterlimit="22.9256" x="19046.05" y="5745.56" width="165.27" height="144.14"/>
    <path fill="none" stroke="#2B2A29" stroke-width="10.58" stroke-miterlimit="22.9256" d="M18862.08 3240.74l0 2480.62c0,10.36 8.45,18.8 18.8,18.8l4832.7 0c10.33,0 18.78,-8.44 18.78,-18.8l0 -2357.07c0,-130.69 -106.9,-237.59 -237.58,-237.59l-4518.66 0c-62.73,0 -114.04,51.31 -114.04,114.04z"/>
    <circle fill="none" stroke="#2B2A29" stroke-width="10.58" stroke-miterlimit="22.9256" cx="19648.01" cy="2883.52" r="240.24"/>
    <path fill="none" stroke="#2B2A29" stroke-width="10.58" stroke-miterlimit="22.9256" d="M23746.56 3913.55c0,0 95.33,17.51 95.33,113.48 0,95.97 6.01,383.46 4.13,431.36 -1.87,47.9 -8.36,203.37 -98.8,203.37"/>
    <path fill="none" stroke="black" stroke-width="10.58" stroke-miterlimit="22.9256" d="M20140.35 3126.7l-198.22 -1027.94c-18.59,-96.43 -53.41,-191.47 87.04,-213.4l414.54 -64.71c37.25,-5.82 138.84,-20.57 167.92,130.37l225.66 1170.18"/>
    <path fill="none" stroke="black" stroke-width="10.58" stroke-miterlimit="22.9256" d="M19982.43 1897.62c-99.9,19.48 -171.49,128.39 -183.81,236.93 -17.3,152.49 142.08,964.63 150,992.14"/>
    <path fill="none" stroke="black" stroke-width="10.58" stroke-miterlimit="22.9256" d="M20474.07 1817.43c182.27,-27.02 309.11,274.27 333.56,331.1 130.58,303.6 272.62,910.61 284.54,971.97"/>
   </g>
   <g>
    <g>
     <path fill="none" stroke="#2B2A29" stroke-width="10.58" stroke-miterlimit="22.9256" d="M8952.38 9964.58c9.1,75.1 25.13,114.9 109.56,125.05 434.89,52.32 2653.53,33.27 3013.75,-2.21 41.73,-6.18 56.22,-25.53 70.67,-73.88 29.3,-90.75 27.07,-507.36 27.07,-645.45 6.64,-80.09 -43.43,-445.81 -59.29,-530.62 -9.07,-38.67 -39.99,-52.59 -65.94,-51.95 -960.66,-3.73 -1735.89,-1.76 -2714.19,-4.38 -51.93,2.21 -165.58,-7.26 -250.01,0.65 -53.18,4.99 -83.9,26.75 -94.39,57.24 -55.37,129.43 -44.88,367.08 -54.64,436.71 -5.06,124.64 14.05,550.04 17.41,688.84z"/>
     <path fill="none" stroke="#2B2A29" stroke-width="10.58" stroke-miterlimit="22.9256" d="M8936.88 9516.72c-4.86,-233.4 15.46,-224.86 124.54,-222.06 90.14,-3.08 2956.72,-13 2986.55,-3.4 55.97,4.68 139.35,-30.26 125.55,108.17"/>
     <path fill="none" stroke="#2B2A29" stroke-width="10.58" stroke-miterlimit="22.9256" d="M9312.14 8781.11c-0.11,-8.19 -1.9,-61.02 -2.05,-69.2 2.9,-52.72 21.81,-75.33 131.7,-75.33 764.03,0 1471.84,0 2235.88,0 97.52,0 145.3,-1.05 142.73,85.63l0 61.94"/>
     <path fill="none" stroke="#2B2A29" stroke-width="10.58" stroke-miterlimit="22.9256" d="M12314.05 9958.89c9.11,75.11 25.14,114.9 109.57,125.05 434.89,52.32 2653.53,33.27 3013.74,-2.21 41.73,-6.18 56.22,-25.53 70.67,-73.88 29.31,-90.75 27.08,-507.36 27.08,-645.45 6.64,-80.09 -43.43,-445.8 -59.3,-530.62 -9.06,-38.67 -39.99,-52.59 -65.93,-51.94 -960.66,-3.74 -1735.9,-1.77 -2714.19,-4.38 -51.93,2.2 -165.58,-7.27 -250.01,0.64 -53.19,4.99 -83.91,26.75 -94.39,57.24 -55.37,129.43 -44.89,367.09 -54.64,436.71 -5.06,124.64 14.04,550.05 17.4,688.84z"/>
     <path fill="none" stroke="#2B2A29" stroke-width="10.58" stroke-miterlimit="22.9256" d="M12298.56 9511.03c-4.86,-233.4 15.46,-224.86 124.54,-222.06 90.14,-3.08 2956.71,-12.99 2986.54,-3.4 55.98,4.69 139.36,-30.25 125.56,108.17"/>
     <path fill="none" stroke="#2B2A29" stroke-width="10.58" stroke-miterlimit="22.9256" d="M12673.82 8775.42c-0.11,-8.19 -1.9,-61.01 -2.05,-69.2 2.89,-52.71 21.8,-75.33 131.7,-75.33 764.03,0 1471.83,0 2235.87,0 97.53,0 145.31,-1.04 142.74,85.63l0 61.95"/>
    </g>
    <polyline fill="none" stroke="#2B2A29" stroke-width="10.58" stroke-miterlimit="22.9256" stroke-dasharray="52.898112 52.898112" points="8888.08,12537.67 8889.31,17567.63 15586.01,17567.63 15587.69,12546.16 "/>
    <path fill="none" stroke="black" stroke-width="10.58" stroke-miterlimit="22.9256" d="M15676.29 12489.69c-82.28,-42.08 -98.72,-256.99 -98.72,-750.66 0,-199.02 12.53,-2798.26 2.72,-3145.16 -11.29,-402.88 6.52,-621.9 100.53,-659.27 93.17,-51.01 839.89,-46.27 922.38,-2.55 94.8,34.32 119.31,283.96 107.98,684.71 -9.77,345.13 2.7,2930.96 2.7,3128.96 0,491.07 -16.42,704.93 -99.4,744.35 -84.68,45.04 -862.52,34.51 -938.19,-0.38z"/>
    <path fill="none" stroke="black" stroke-width="10.58" stroke-miterlimit="22.9256" d="M15612.15 8022.91c-22.29,-129.34 -422.58,-133.68 -1013.73,-121.65 -509.03,10.35 -4323.11,-2.92 -4615.16,-2.92 -724.35,0 -1087.78,-15.7 -1119.58,136.83"/>
    <path fill="none" stroke="black" stroke-width="10.58" stroke-miterlimit="22.9256" d="M8796.42 12492.46c82.27,-42.21 98.72,-257.75 98.72,-752.89 0,-199.59 -12.53,-2806.51 -2.72,-3154.43 11.29,-404.07 -6.52,-623.73 -100.53,-661.22 -93.17,-51.16 -839.89,-46.4 -922.38,-2.56 -94.8,34.43 -119.31,284.81 -107.98,686.74 9.77,346.15 -2.7,2939.6 -2.7,3138.19 0,492.52 16.42,707.01 99.39,746.55 84.69,45.17 862.53,34.61 938.2,-0.38z"/>
    <rect fill="none" stroke="black" stroke-width="10.58" stroke-miterlimit="22.9256" x="12242.41" y="8782.22" width="3347.77" height="3830.78" rx="27.59" ry="79.81"/>
    <rect fill="none" stroke="black" stroke-width="10.58" stroke-miterlimit="22.9256" x="8888.08" y="8782.13" width="3347.77" height="3830.87" rx="27.59" ry="79.81"/>
   </g>
   <g>
    <path fill="none" stroke="black" stroke-width="10.58" stroke-miterlimit="22.9256" d="M16535.69 3074.93l-787.2 0c-17.32,0 -40.05,5.97 -55.78,10.02 -98.94,21.84 -117.68,150.91 -105.76,388.39 10.26,204.46 -2.88,1736.55 -2.88,1853.86 0,290.96 17.28,417.67 104.2,441.69 20.91,8.26 25.21,11.88 60.22,11.88l787.2 0c33.84,0 37.22,-5.13 58.2,-10.22 86.9,-23.93 104.2,-149.95 104.2,-439.43 0,-116.71 -13.14,-1640.86 -2.88,-1844.27 11.92,-236.23 -13.84,-383.38 -112.78,-405.1 -16.76,-5.43 -27.48,-6.82 -46.74,-6.82z"/>
    <path fill="none" stroke="black" stroke-width="10.58" stroke-miterlimit="22.9256" d="M8969.65 3894.21c1065.27,0 2130.55,0 3195.83,0 44.17,-4.24 52.86,34.33 79.28,51.5 24.94,-17.17 44.38,-54.92 74.84,-51.5l3200.25 0c36.75,0 66.83,40.48 66.83,89.92l0 629.39c0,49.46 -30.08,89.92 -66.83,89.92l-6550.19 0c-36.77,0 -66.84,-40.46 -66.84,-89.92l0 -629.39c0,-49.44 30.07,-89.92 66.84,-89.92z"/>
    <rect fill="none" stroke="black" stroke-width="10.58" stroke-miterlimit="22.9256" x="8902.92" y="4703.44" width="6683.86" height="1063.12" rx="38.91" ry="53.16"/>
    <rect fill="none" stroke="black" stroke-width="10.58" stroke-miterlimit="22.9256" x="7892.53" y="5806.53" width="887.85" height="147.59"/>
    <rect fill="none" stroke="black" stroke-width="10.58" stroke-miterlimit="22.9256" x="15695.4" y="5783.96" width="893.13" height="147.59"/>
    <path fill="none" stroke="black" stroke-width="10.58" stroke-miterlimit="22.9256" d="M8897.17 3325.67l0 -194.72c-3.14,-37.63 14.73,-48.94 53.84,-52.23m6532.12 -1.85c63.25,4.14 100.27,-0.7 103.48,84.71l-1.55 141.3"/>
    <path fill="none" stroke="black" stroke-width="10.58" stroke-miterlimit="22.9256" d="M9107.56 1725.06c489.63,0 924.73,29.18 1414.38,29.18 496.26,0 1067.38,-28.39 1563.63,-28.39 90.39,0 138,42.4 138,172.27 0,224.23 -23.75,646.89 -23.75,871.12 0,314.47 27.52,552.6 27.52,867.08 0,129.88 -26.3,180.07 -116.69,180.07 -522.7,0 -1084.37,-24.4 -1607.05,-24.4 -337.6,0 -738.9,-7.69 -1070.5,8.32 -160.97,7.78 -250.26,33.6 -418.38,43.75 -90.22,5.45 -71.5,-136.9 -71.5,-266.77 0,-271.73 22.21,-508.5 22.21,-780.23 0,-266.98 -22.21,-668.09 -22.21,-935.06 0,-129.91 73.95,-136.95 164.33,-136.95z"/>
    <line fill="none" stroke="black" stroke-width="10.58" stroke-miterlimit="22.9256" x1="12244.85" y1="4703.43" x2="12244.75" y2= "3950.59" />
    <path fill="none" stroke="black" stroke-width="10.58" stroke-miterlimit="22.9256" d="M12368.71 1716.52c485.47,0 952.52,26.95 1437.98,26.95 492.03,0 1061.51,-27.87 1553.53,-27.87 89.61,0 135.58,53.26 135.58,183.13 0,224.23 -25.54,635.51 -25.54,859.74 0,314.48 23.08,559.08 23.08,873.55 0,129.89 -42.95,169.6 -132.56,169.6 -518.24,0 -1054.75,-18.76 -1572.99,-18.76 -429.97,0 -865.65,10.17 -1295.62,18.89 -29.25,0.59 -93.53,-1.11 -122.79,-1.11 -89.62,0 -120.11,-32.06 -120.11,-161.93 0,-271.73 14.18,-580.69 14.18,-852.41 0,-266.98 -14.63,-639.01 -14.63,-905.98 0,-129.88 30.29,-163.8 119.89,-163.8z"/>
    <path fill="none" stroke="black" stroke-width="10.58" stroke-miterlimit="22.9256" d="M8737.68 3096.17l-787.2 0c-17.32,0 -40.05,5.97 -55.78,10.03 -98.94,21.83 -117.68,150.9 -105.76,388.38 10.26,204.46 -2.88,1736.56 -2.88,1853.86 0,290.97 17.28,417.67 104.2,441.69 20.91,8.26 25.21,11.88 60.22,11.88l787.2 0c33.84,0 37.22,-5.12 58.2,-10.22 86.9,-23.92 104.2,-149.94 104.2,-439.43 0,-116.7 -13.14,-1640.85 -2.88,-1844.27 11.92,-236.23 -13.84,-383.37 -112.78,-405.1 -16.76,-5.42 -27.48,-6.82 -46.74,-6.82z"/>
   </g>
   <path fill="#666666" fill-rule="nonzero" fill-opacity="0.800000" d="M19226.06 8163.11l0 16.91c23.06,10.76 41.64,27.68 55.73,50.74 14.09,23.06 21.14,48.42 21.14,76.1 0,46.12 -15.89,83.4 -47.66,111.84 -31.77,28.44 -77.89,42.66 -138.36,42.66l-245.2 0 0 -548.82 239.05 0c55.86,0 99.03,13.2 129.52,39.59 30.49,26.39 45.74,59.57 45.74,99.54 0,52.79 -19.99,89.94 -59.96,111.46zm-285.17 -189.08l0 171.4 168.33 0c71.23,0 106.85,-29.21 106.85,-87.63 0,-28.69 -10.25,-49.83 -30.75,-63.41 -20.5,-13.58 -46.38,-20.37 -77.64,-20.37l-166.79 0zm0 425.83l171.41 0c35.36,0 64.31,-7.56 86.86,-22.68 22.55,-15.12 33.82,-40.36 33.82,-75.72 0,-33.3 -11.15,-57.52 -33.44,-72.64 -22.29,-15.11 -51.12,-22.67 -86.47,-22.67l-172.18 0 0 193.7zm462.72 -325.91l65.34 0 0 129.13 106.85 0c46.63,0 82.63,11.28 108,33.83 25.36,22.54 38.05,54.06 38.05,94.54 0,41 -12.69,72.9 -38.05,95.7 -25.37,22.81 -61.37,34.21 -108,34.21l-172.18 0 0 -387.4zm65.34 184.47l0 146.04 97.62 0c32.29,0 55.35,-6.15 69.18,-18.45 13.84,-12.3 20.76,-30.49 20.76,-54.58 0,-24.08 -6.92,-42.27 -20.76,-54.57 -13.83,-12.3 -36.89,-18.45 -69.18,-18.45l-97.62 0zm315.15 -184.47l65.34 0 0 387.4 -65.34 0 0 -387.4zm453.5 270.56l65.34 0c-7.69,38.95 -25.75,69.82 -54.19,92.63 -28.44,22.8 -64.7,34.2 -108.77,34.2 -58.42,0 -104.41,-19.09 -137.98,-57.26 -33.56,-38.18 -50.35,-86.99 -50.35,-146.43 0,-59.95 16.66,-108.89 49.97,-146.81 33.31,-37.92 79.43,-56.88 138.36,-56.88 44.58,0 80.84,11.15 108.77,33.44 27.93,22.29 45.22,51.89 51.88,88.78l-65.33 0c-13.84,-43.56 -45.61,-65.34 -95.32,-65.34 -41.51,0 -72.38,13.71 -92.63,41.13 -20.24,27.42 -30.36,62.13 -30.36,104.16 0,42.53 10.25,77.89 30.75,106.07 20.5,28.19 51.24,42.28 92.24,42.28 54.32,0 86.86,-23.32 97.62,-69.95zm190.24 -222.91c34.08,-38.43 80.58,-57.65 139.52,-57.65 58.93,0 105.43,19.22 139.51,57.65 34.08,38.44 51.12,87.12 51.12,146.04 0,58.93 -17.04,107.62 -51.12,146.04 -34.08,38.44 -80.58,57.65 -139.51,57.65 -58.94,0 -105.44,-19.21 -139.52,-57.65 -34.08,-38.43 -51.12,-87.12 -51.12,-146.04 0,-58.93 17.04,-107.61 51.12,-146.04zm46.51 250.2c21.52,28.44 52.52,42.66 93.01,42.66 40.48,0 71.48,-14.22 93.01,-42.66 21.52,-28.44 32.28,-63.16 32.28,-104.16 0,-40.99 -10.76,-75.71 -32.28,-104.15 -21.53,-28.44 -52.53,-42.67 -93.01,-42.67 -40.49,0 -71.49,14.23 -93.01,42.67 -21.53,28.44 -32.29,63.16 -32.29,104.15 0,41 10.76,75.72 32.29,104.16zm338.2 -240.97l0 -56.88 333.6 0 0 56.88 -133.75 0 0 330.52 -65.34 0 0 -330.52 -134.52 0zm666.43 330.52l0 -40.74 -16.91 0c-26.65,33.82 -66.88,50.73 -120.69,50.73 -42.53,0 -76.35,-12.3 -101.46,-36.89 -25.11,-24.6 -37.67,-54.32 -37.67,-89.17 0,-35.36 12.3,-65.59 36.9,-90.7 24.6,-25.12 61.75,-37.67 111.46,-37.67l126.06 0 0 -15.37c0,-24.6 -7.68,-44.2 -23.06,-58.81 -15.37,-14.6 -39.2,-21.91 -71.49,-21.91 -56.37,0 -86.34,18.71 -89.93,56.12l-65.34 0c2.56,-35.36 17.81,-63.03 45.74,-83.02 27.93,-19.98 63.93,-29.98 108,-29.98 49.7,0 88.78,11.53 117.22,34.59 28.44,23.06 42.66,56.12 42.66,99.16l0 263.65 -61.49 0zm-121.45 -46.89c32.28,0 60.21,-10.63 83.78,-31.9 23.58,-21.27 35.36,-47.27 35.36,-78.02l0 -35.36 -116.07 0c-62.01,0 -93.01,24.6 -93.01,73.79 0,22.04 7.82,39.46 23.45,52.27 15.63,12.81 37.79,19.22 66.49,19.22zm-2230.63 769.48l65.34 0c-7.69,38.95 -25.75,69.82 -54.19,92.63 -28.44,22.8 -64.7,34.2 -108.77,34.2 -58.42,0 -104.41,-19.09 -137.98,-57.26 -33.56,-38.18 -50.35,-86.99 -50.35,-146.43 0,-59.95 16.66,-108.89 49.97,-146.81 33.31,-37.92 79.43,-56.88 138.36,-56.88 44.58,0 80.84,11.15 108.77,33.44 27.93,22.29 45.22,51.89 51.88,88.78l-65.33 0c-13.84,-43.56 -45.61,-65.34 -95.32,-65.34 -41.51,0 -72.38,13.71 -92.63,41.13 -20.24,27.42 -30.36,62.13 -30.36,104.16 0,42.53 10.25,77.89 30.75,106.07 20.5,28.19 51.24,42.28 92.24,42.28 54.32,0 86.86,-23.32 97.62,-69.95zm255.19 116.84l-92.24 0 0 -387.4 63.8 0 0 299.77 16.91 0 169.87 -299.77 95.32 0 0 387.4 -63.8 0 0 -299.78 -16.91 0 -172.95 299.78zm724.84 -56.88l71.49 0 0 166.79 -63.8 0 0 -109.92 -335.14 0 0 109.92 -63.8 0 0 -166.79 51.5 0c31.77,-67.65 47.66,-142.45 47.66,-224.45l0 -106.07 292.09 0 0 330.52zm-65.34 0l0 -273.64 -166.02 0 0 49.19c0,87.63 -14.1,162.44 -42.28,224.45l208.3 0zm557.27 -159.88l0 22.29 -295.16 0c1.03,46.64 12.04,82.89 33.06,108.77 21.01,25.88 51.24,38.82 90.7,38.82 53.29,0 86.09,-19.99 98.39,-59.96l66.11 0c-6.67,34.85 -24.22,63.04 -52.66,84.56 -28.44,21.52 -65.72,32.28 -111.84,32.28 -58.93,0 -105.05,-19.21 -138.36,-57.65 -33.31,-38.43 -49.97,-88.4 -49.97,-149.88 0,-60.47 16.66,-108.9 49.97,-145.27 33.31,-36.39 78.91,-54.58 136.82,-54.58 54.83,0 97.11,17.3 126.83,51.89 29.73,34.59 45.1,77.51 46.12,128.75zm-174.48 -123.76c-33.3,0 -59.95,8.59 -79.94,25.76 -19.98,17.16 -32.28,39.07 -36.89,65.72l223.67 0c-2.05,-26.14 -12.55,-47.92 -31.51,-65.34 -18.97,-17.42 -44.08,-26.14 -75.34,-26.14zm621.08 340.52l-65.34 0 0 -170.64 -214.45 0 0 170.64 -65.34 0 0 -387.4 65.34 0 0 159.87 214.45 0 0 -159.87 65.34 0 0 387.4zm670.27 -387.4l192.93 0 0 387.4 -66.11 0 0 -152.96 -117.61 0c-10.25,0 -18.19,-0.25 -23.83,-0.77l-58.42 153.73 -68.41 0 65.34 -168.33c-39.97,-18.96 -59.96,-52.78 -59.96,-101.47 0,-37.41 11.66,-66.36 34.98,-86.86 23.31,-20.5 57.01,-30.74 101.08,-30.74zm126.83 55.34l-119.92 0c-28.18,0 -48.17,5.38 -59.95,16.14 -11.79,10.76 -17.68,26.39 -17.68,46.89 0,19.99 5.89,35.11 17.68,45.35 11.78,10.25 31.77,15.38 59.95,15.38l119.92 0 0 -123.76zm-1993.89 1171.49l-79.94 0 0 -89.17 79.94 0 0 89.17zm133.75 -478.87c35.88,-46.63 83.79,-69.95 143.74,-69.95 59.96,0 108,23.45 144.12,70.34 36.12,46.89 54.19,116.71 54.19,209.45 0,92.76 -18.07,162.44 -54.19,209.07 -36.13,46.64 -84.17,69.95 -144.12,69.95 -59.96,0 -107.87,-23.31 -143.74,-69.95 -35.87,-46.63 -53.8,-116.32 -53.8,-209.07 0,-93.26 17.93,-163.2 53.8,-209.84zm46.13 370.88c21.52,38.69 54.06,58.04 97.62,58.04 43.56,0 76.23,-19.35 98,-58.04 21.78,-38.69 32.67,-92.37 32.67,-161.03 0,-69.18 -10.89,-123.11 -32.67,-161.8 -21.77,-38.69 -54.44,-58.03 -98,-58.03 -43.56,0 -76.1,19.34 -97.62,58.03 -21.53,38.7 -32.29,92.63 -32.29,161.8 0,68.67 10.76,122.35 32.29,161.03zm877.02 -8.84l65.34 0c-7.69,38.95 -25.75,69.82 -54.19,92.63 -28.44,22.8 -64.7,34.2 -108.77,34.2 -58.42,0 -104.41,-19.09 -137.98,-57.26 -33.56,-38.18 -50.35,-86.99 -50.35,-146.43 0,-59.95 16.66,-108.89 49.97,-146.81 33.31,-37.92 79.43,-56.88 138.36,-56.88 44.58,0 80.84,11.15 108.77,33.44 27.93,22.29 45.22,51.89 51.88,88.78l-65.33 0c-13.84,-43.56 -45.61,-65.34 -95.32,-65.34 -41.51,0 -72.38,13.71 -92.63,41.13 -20.24,27.42 -30.36,62.13 -30.36,104.16 0,42.53 10.25,77.89 30.75,106.07 20.5,28.19 51.24,42.28 92.24,42.28 54.32,0 86.86,-23.32 97.62,-69.95zm162.95 116.84l0 -387.4 103.77 0 95.32 176.78 16.91 0 95.32 -176.78 102.23 0 0 387.4 -63.8 0 0 -311.31 -16.91 0 -89.94 166.03 -72.25 0 -89.94 -166.03 -16.91 0 0 311.31 -63.8 0zm168.34 -1226.83l0 129.13 114.53 0c46.64,0 82.64,11.28 108,33.83 25.37,22.54 38.05,54.06 38.05,94.54 0,41 -12.68,72.9 -38.05,95.7 -25.36,22.81 -61.36,34.21 -108,34.21l-179.86 0 0 -387.4 65.34 0zm0 330.52l105.31 0c32.28,0 55.34,-6.15 69.18,-18.45 13.84,-12.3 20.75,-30.49 20.75,-54.58 0,-24.08 -6.91,-42.27 -20.75,-54.57 -13.84,-12.3 -36.9,-18.45 -69.18,-18.45l-105.31 0 0 146.04zm873.19 56.88l-79.94 0 0 -89.17 79.94 0 0 89.17zm0 -298.24l-79.94 0 0 -89.16 79.94 0 0 89.16zm-2946.24 951.66l73.79 0 0 59.96 -73.79 0 0 126.06 -66.11 0 0 -126.06 -265.95 0 0 -76.87 237.51 -335.14 94.55 0 0 352.05zm-261.34 0l196 0 0 -275.95 -16.91 0 -179.09 259.04 0 16.91zm430.44 -352.05l314.38 0 0 75.33 -134.52 115.31 0 16.14c47.65,1.02 86.22,15.88 115.68,44.58 29.47,28.7 44.2,68.41 44.2,119.15 0,54.83 -17.68,98.13 -53.04,129.9 -35.36,31.78 -80.96,47.66 -136.82,47.66 -53.81,0 -97.88,-15.11 -132.21,-45.35 -34.34,-30.23 -53.04,-68.67 -56.12,-115.3l67.65 0c3.07,30.23 15.75,54.58 38.05,73.02 22.29,18.45 49.83,27.68 82.63,27.68 37.41,0 67.13,-10.51 89.17,-31.52 22.03,-21.01 33.05,-49.71 33.05,-86.09 0,-35.87 -10.51,-63.93 -31.52,-84.17 -21.01,-20.24 -50.99,-30.37 -89.93,-30.37 -18.96,0 -34.59,1.54 -46.89,4.62l0 -71.49 131.44 -113.77 0 -16.91 -235.2 0 0 -58.42z"/>
   <path fill="#666666" fill-rule="nonzero" fill-opacity="0.800000" d="M10643.39 19648.57l0 -59.96 127.6 0 0 -407.39 -15.37 0 -113 76.1 0 -70.72 112.23 -76.1 83.79 0 0 478.1 117.6 0 0 59.96 -312.84 0zm687.18 -292.09l0 16.91c21.01,7.18 40.22,22.17 57.65,44.97 17.42,22.8 26.13,50.61 26.13,83.4 0,45.1 -17.8,82.51 -53.42,112.23 -35.62,29.72 -82.63,44.58 -141.04,44.58 -58.42,0 -105.44,-14.86 -141.05,-44.58 -35.61,-29.72 -53.42,-67.13 -53.42,-112.23 0,-32.28 8.71,-59.95 26.14,-83.02 17.42,-23.06 36.64,-38.17 57.65,-45.35l0 -16.91c-16.91,-7.17 -32.42,-20.75 -46.51,-40.74 -14.09,-19.98 -21.14,-44.07 -21.14,-72.25 0,-42.54 16.66,-77.13 49.97,-103.78 33.31,-26.64 76.1,-39.97 128.37,-39.97 52.27,0 95.06,13.33 128.37,39.97 33.31,26.65 49.96,61.24 49.96,103.78 0,27.16 -7.17,50.98 -21.52,71.48 -14.35,20.5 -29.72,34.34 -46.12,41.51zm-30.37 -174.86c-21.26,-15.63 -48.04,-23.45 -80.32,-23.45 -32.29,0 -59.06,7.82 -80.33,23.45 -21.27,15.63 -31.9,37.28 -31.9,64.95 0,27.67 10.63,49.45 31.9,65.34 21.27,15.88 48.04,23.83 80.33,23.83 32.28,0 59.06,-7.95 80.32,-23.83 21.27,-15.89 31.9,-37.67 31.9,-65.34 0,-27.67 -10.63,-49.32 -31.9,-64.95zm-173.71 388.94c22.81,18.7 53.94,28.06 93.4,28.06 39.46,0 70.59,-9.36 93.39,-28.06 22.81,-18.71 34.21,-43.69 34.21,-74.95 0,-31.77 -11.28,-56.62 -33.82,-74.56 -22.55,-17.94 -53.81,-26.9 -93.78,-26.9 -39.97,0 -71.23,8.96 -93.78,26.9 -22.55,17.94 -33.82,42.79 -33.82,74.56 0,31.26 11.4,56.24 34.2,74.95zm436.97 -311.69l-67.64 0c3.07,-51.76 21.14,-91.22 54.19,-118.38 33.06,-27.16 74.69,-40.74 124.91,-40.74 52.27,0 94.42,14.22 126.45,42.66 32.03,28.45 48.04,68.8 48.04,121.07 0,63.55 -39.71,128.37 -119.14,194.47l-135.29 113.76 0 16.91 271.33 0 0 59.96 -369.72 0 0 -76.1 79.17 -64.57c49.2,-39.46 89.94,-74.05 122.22,-103.77 12.3,-10.76 22.17,-19.99 29.6,-27.67 7.43,-7.69 15.88,-17.81 25.36,-30.37 9.48,-12.55 16.66,-25.75 21.53,-39.58 4.86,-13.84 7.3,-28.19 7.3,-43.05 0,-33.31 -9.74,-58.93 -29.21,-76.87 -19.47,-17.93 -45.87,-26.9 -79.17,-26.9 -31.26,0 -56.5,8.33 -75.72,24.98 -19.22,16.66 -30.62,41.38 -34.21,74.18zm478.1 389.71l-79.94 0 0 -89.17 79.94 0 0 89.17zm133.75 -478.87c35.88,-46.63 83.79,-69.95 143.74,-69.95 59.96,0 108,23.45 144.12,70.34 36.12,46.89 54.19,116.71 54.19,209.45 0,92.76 -18.07,162.44 -54.19,209.07 -36.13,46.64 -84.17,69.95 -144.12,69.95 -59.96,0 -107.87,-23.31 -143.74,-69.95 -35.87,-46.63 -53.8,-116.32 -53.8,-209.07 0,-93.26 17.93,-163.2 53.8,-209.84zm46.13 370.88c21.52,38.69 54.06,58.04 97.62,58.04 43.56,0 76.23,-19.35 98,-58.04 21.78,-38.69 32.67,-92.37 32.67,-161.03 0,-69.18 -10.89,-123.11 -32.67,-161.8 -21.77,-38.69 -54.44,-58.03 -98,-58.03 -43.56,0 -76.1,19.34 -97.62,58.03 -21.53,38.7 -32.29,92.63 -32.29,161.8 0,68.67 10.76,122.35 32.29,161.03zm877.02 -8.84l65.34 0c-7.69,38.95 -25.75,69.82 -54.19,92.63 -28.44,22.8 -64.7,34.2 -108.77,34.2 -58.42,0 -104.41,-19.09 -137.98,-57.26 -33.56,-38.18 -50.35,-86.99 -50.35,-146.43 0,-59.95 16.66,-108.89 49.97,-146.81 33.31,-37.92 79.43,-56.88 138.36,-56.88 44.58,0 80.84,11.15 108.77,33.44 27.93,22.29 45.22,51.89 51.88,88.78l-65.33 0c-13.84,-43.56 -45.61,-65.34 -95.32,-65.34 -41.51,0 -72.38,13.71 -92.63,41.13 -20.24,27.42 -30.36,62.13 -30.36,104.16 0,42.53 10.25,77.89 30.75,106.07 20.5,28.19 51.24,42.28 92.24,42.28 54.32,0 86.86,-23.32 97.62,-69.95zm162.95 116.84l0 -387.4 103.77 0 95.32 176.78 16.91 0 95.32 -176.78 102.23 0 0 387.4 -63.8 0 0 -311.31 -16.91 0 -89.94 166.03 -72.25 0 -89.94 -166.03 -16.91 0 0 311.31 -63.8 0z"/>
   <path fill="#666666" fill-rule="nonzero" fill-opacity="0.800000" d="M5938.63 4692.22l462.73 232.9 0 70.72 -462.73 -233.67 -16.91 0 0 272.87 -58.42 0 0 -342.82 75.33 0zm-75.33 -101.47l0 -314.38 75.33 0 115.31 134.52 16.14 0c1.02,-47.65 15.88,-86.22 44.58,-115.68 28.7,-29.47 68.41,-44.2 119.15,-44.2 54.83,0 98.13,17.68 129.9,53.04 31.78,35.36 47.66,80.96 47.66,136.82 0,53.81 -15.11,97.88 -45.35,132.21 -30.23,34.34 -68.67,53.04 -115.3,56.12l0 -67.65c30.23,-3.07 54.58,-15.75 73.02,-38.05 18.45,-22.29 27.68,-49.83 27.68,-82.63 0,-37.41 -10.51,-67.13 -31.52,-89.17 -21.01,-22.03 -49.71,-33.05 -86.09,-33.05 -35.87,0 -63.93,10.51 -84.17,31.52 -20.24,21.01 -30.37,50.99 -30.37,89.93 0,18.96 1.54,34.59 4.62,46.89l-71.49 0 -113.77 -131.44 -16.91 0 0 235.2 -58.42 0zm538.06 -515.76l0 79.94 -89.17 0 0 -79.94 89.17 0zm-478.87 -133.75c-46.63,-35.88 -69.95,-83.79 -69.95,-143.74 0,-59.96 23.45,-108 70.34,-144.12 46.89,-36.12 116.71,-54.19 209.45,-54.19 92.76,0 162.44,18.07 209.07,54.19 46.64,36.13 69.95,84.17 69.95,144.12 0,59.96 -23.31,107.87 -69.95,143.74 -46.63,35.87 -116.32,53.8 -209.07,53.8 -93.26,0 -163.2,-17.93 -209.84,-53.8zm370.88 -46.13c38.69,-21.52 58.04,-54.06 58.04,-97.62 0,-43.56 -19.35,-76.23 -58.04,-98 -38.69,-21.78 -92.37,-32.67 -161.03,-32.67 -69.18,0 -123.11,10.89 -161.8,32.67 -38.69,21.77 -58.03,54.44 -58.03,98 0,43.56 19.34,76.1 58.03,97.62 38.7,21.53 92.63,32.29 161.8,32.29 68.67,0 122.35,-10.76 161.03,-32.29zm-8.84 -877.02l0 -65.34c38.95,7.69 69.82,25.75 92.63,54.19 22.8,28.44 34.2,64.7 34.2,108.77 0,58.42 -19.09,104.41 -57.26,137.98 -38.18,33.56 -86.99,50.35 -146.43,50.35 -59.95,0 -108.89,-16.66 -146.81,-49.97 -37.92,-33.31 -56.88,-79.43 -56.88,-138.36 0,-44.58 11.15,-80.84 33.44,-108.77 22.29,-27.93 51.89,-45.22 88.78,-51.88l0 65.33c-43.56,13.84 -65.34,45.61 -65.34,95.32 0,41.51 13.71,72.38 41.13,92.63 27.42,20.24 62.13,30.36 104.16,30.36 42.53,0 77.89,-10.25 106.07,-30.75 28.19,-20.5 42.28,-51.24 42.28,-92.24 0,-54.32 -23.32,-86.86 -69.95,-97.62zm116.84 -162.95l-387.4 0 0 -103.77 176.78 -95.32 0 -16.91 -176.78 -95.32 0 -102.23 387.4 0 0 63.8 -311.31 0 0 16.91 166.03 89.94 0 72.25 -166.03 89.94 0 16.91 311.31 0 0 63.8z"/>
   <path fill="#666666" fill-rule="nonzero" fill-opacity="0.800000" d="M6401.36 11868.26l-59.96 0 0 -127.6 -407.39 0 0 15.37 76.1 113 -70.72 0 -76.1 -112.23 0 -83.79 478.1 0 0 -117.6 59.96 0 0 312.84zm-478.87 -438.12c-46.63,-35.88 -69.95,-83.79 -69.95,-143.74 0,-59.96 23.45,-108 70.34,-144.12 46.89,-36.12 116.71,-54.19 209.45,-54.19 92.76,0 162.44,18.07 209.07,54.19 46.64,36.13 69.95,84.17 69.95,144.12 0,59.96 -23.31,107.87 -69.95,143.74 -46.63,35.87 -116.32,53.8 -209.07,53.8 -93.26,0 -163.2,-17.93 -209.84,-53.8zm370.88 -46.13c38.69,-21.52 58.04,-54.06 58.04,-97.62 0,-43.56 -19.35,-76.23 -58.04,-98 -38.69,-21.78 -92.37,-32.67 -161.03,-32.67 -69.18,0 -123.11,10.89 -161.8,32.67 -38.69,21.77 -58.03,54.44 -58.03,98 0,43.56 19.34,76.1 58.03,97.62 38.7,21.53 92.63,32.29 161.8,32.29 68.67,0 122.35,-10.76 161.03,-32.29zm-354.74 -711l462.73 232.9 0 70.72 -462.73 -233.67 -16.91 0 0 272.87 -58.42 0 0 -342.82 75.33 0zm462.73 -179.86l0 79.94 -89.17 0 0 -79.94 89.17 0zm-478.87 -133.75c-46.63,-35.88 -69.95,-83.79 -69.95,-143.74 0,-59.96 23.45,-108 70.34,-144.12 46.89,-36.12 116.71,-54.19 209.45,-54.19 92.76,0 162.44,18.07 209.07,54.19 46.64,36.13 69.95,84.17 69.95,144.12 0,59.96 -23.31,107.87 -69.95,143.74 -46.63,35.87 -116.32,53.8 -209.07,53.8 -93.26,0 -163.2,-17.93 -209.84,-53.8zm370.88 -46.13c38.69,-21.52 58.04,-54.06 58.04,-97.62 0,-43.56 -19.35,-76.23 -58.04,-98 -38.69,-21.78 -92.37,-32.67 -161.03,-32.67 -69.18,0 -123.11,10.89 -161.8,32.67 -38.69,21.77 -58.03,54.44 -58.03,98 0,43.56 19.34,76.1 58.03,97.62 38.7,21.53 92.63,32.29 161.8,32.29 68.67,0 122.35,-10.76 161.03,-32.29zm-8.84 -877.02l0 -65.34c38.95,7.69 69.82,25.75 92.63,54.19 22.8,28.44 34.2,64.7 34.2,108.77 0,58.42 -19.09,104.41 -57.26,137.98 -38.18,33.56 -86.99,50.35 -146.43,50.35 -59.95,0 -108.89,-16.66 -146.81,-49.97 -37.92,-33.31 -56.88,-79.43 -56.88,-138.36 0,-44.58 11.15,-80.84 33.44,-108.77 22.29,-27.93 51.89,-45.22 88.78,-51.88l0 65.33c-43.56,13.84 -65.34,45.61 -65.34,95.32 0,41.51 13.71,72.38 41.13,92.63 27.42,20.24 62.13,30.36 104.16,30.36 42.53,0 77.89,-10.25 106.07,-30.75 28.19,-20.5 42.28,-51.24 42.28,-92.24 0,-54.32 -23.32,-86.86 -69.95,-97.62zm116.84 -162.95l-387.4 0 0 -103.77 176.78 -95.32 0 -16.91 -176.78 -95.32 0 -102.23 387.4 0 0 63.8 -311.31 0 0 16.91 166.03 89.94 0 72.25 -166.03 89.94 0 16.91 311.31 0 0 63.8z"/>
   <path fill="#666666" fill-rule="nonzero" fill-opacity="0.800000" d="M9329.8 15317.92l0 -59.96 127.6 0 0 -407.39 -15.37 0 -113 76.1 0 -70.72 112.23 -76.1 83.79 0 0 478.1 117.6 0 0 59.96 -312.84 0zm704.08 -186.01l73.79 0 0 59.96 -73.79 0 0 126.06 -66.11 0 0 -126.06 -265.95 0 0 -76.87 237.51 -335.14 94.55 0 0 352.05zm-261.34 0l196 0 0 -275.95 -16.91 0 -179.09 259.04 0 16.91zm465.79 -292.86c35.88,-46.63 83.79,-69.95 143.74,-69.95 59.96,0 108,23.45 144.12,70.34 36.12,46.89 54.19,116.71 54.19,209.45 0,92.76 -18.07,162.44 -54.19,209.07 -36.13,46.64 -84.17,69.95 -144.12,69.95 -59.96,0 -107.87,-23.31 -143.74,-69.95 -35.87,-46.63 -53.8,-116.32 -53.8,-209.07 0,-93.26 17.93,-163.2 53.8,-209.84zm46.13 370.88c21.52,38.69 54.06,58.04 97.62,58.04 43.56,0 76.23,-19.35 98,-58.04 21.78,-38.69 32.67,-92.37 32.67,-161.03 0,-69.18 -10.89,-123.11 -32.67,-161.8 -21.77,-38.69 -54.44,-58.03 -98,-58.03 -43.56,0 -76.1,19.34 -97.62,58.03 -21.53,38.7 -32.29,92.63 -32.29,161.8 0,68.67 10.76,122.35 32.29,161.03zm449.65 108l-79.94 0 0 -89.17 79.94 0 0 89.17zm1983.88 -188.32c-49.2,0 -90.19,-16.52 -122.99,-49.58 -32.8,-33.05 -49.2,-74.94 -49.2,-125.68 0,-52.78 16.53,-96.85 49.58,-132.21 33.06,-35.36 77.51,-53.04 133.37,-53.04 60.98,0 109.15,21.01 144.5,63.03 35.36,42.03 53.04,109.16 53.04,201.39 0,86.6 -17.3,157.31 -51.89,212.14 -34.59,54.84 -85.45,82.25 -152.57,82.25 -44.58,0 -81.09,-11.91 -109.54,-35.74 -28.44,-23.83 -45.73,-54.71 -51.88,-92.63l66.87 0c13.33,45.61 44.84,68.42 94.55,68.42 42.53,0 75.84,-16.92 99.93,-50.74 24.08,-33.82 37.15,-80.45 39.2,-139.9l-16.91 0c-11.27,13.84 -27.8,26.01 -49.58,36.52 -21.78,10.5 -47.27,15.75 -76.48,15.75zm96.08 -267.49c-22.55,-22.03 -50.73,-33.05 -84.55,-33.05 -33.82,0 -61.62,10.76 -83.4,32.28 -21.78,21.53 -32.67,51.51 -32.67,89.94 0,38.43 11.01,67.9 33.05,88.4 22.04,20.5 50.22,30.75 84.56,30.75 33.82,0 61.75,-10.51 83.78,-31.52 22.04,-21.01 33.05,-49.97 33.05,-86.86 0,-37.92 -11.27,-67.9 -33.82,-89.94zm262.88 66.11l-67.64 0c3.07,-51.76 21.14,-91.22 54.19,-118.38 33.06,-27.16 74.69,-40.74 124.91,-40.74 52.27,0 94.42,14.22 126.45,42.66 32.03,28.45 48.04,68.8 48.04,121.07 0,63.55 -39.71,128.37 -119.14,194.47l-135.29 113.76 0 16.91 271.33 0 0 59.96 -369.72 0 0 -76.1 79.17 -64.57c49.2,-39.46 89.94,-74.05 122.22,-103.77 12.3,-10.76 22.17,-19.99 29.6,-27.67 7.43,-7.69 15.88,-17.81 25.36,-30.37 9.48,-12.55 16.66,-25.75 21.53,-39.58 4.86,-13.84 7.3,-28.19 7.3,-43.05 0,-33.31 -9.74,-58.93 -29.21,-76.87 -19.47,-17.93 -45.87,-26.9 -79.17,-26.9 -31.26,0 -56.5,8.33 -75.72,24.98 -19.22,16.66 -30.62,41.38 -34.21,74.18zm1535 272.87l65.34 0c-7.69,38.95 -25.75,69.82 -54.19,92.63 -28.44,22.8 -64.7,34.2 -108.77,34.2 -58.42,0 -104.41,-19.09 -137.98,-57.26 -33.56,-38.18 -50.35,-86.99 -50.35,-146.43 0,-59.95 16.66,-108.89 49.97,-146.81 33.31,-37.92 79.43,-56.88 138.36,-56.88 44.58,0 80.84,11.15 108.77,33.44 27.93,22.29 45.22,51.89 51.88,88.78l-65.33 0c-13.84,-43.56 -45.61,-65.34 -95.32,-65.34 -41.51,0 -72.38,13.71 -92.63,41.13 -20.24,27.42 -30.36,62.13 -30.36,104.16 0,42.53 10.25,77.89 30.75,106.07 20.5,28.19 51.24,42.28 92.24,42.28 54.32,0 86.86,-23.32 97.62,-69.95zm162.95 116.84l0 -387.4 103.77 0 95.32 176.78 16.91 0 95.32 -176.78 102.23 0 0 387.4 -63.8 0 0 -311.31 -16.91 0 -89.94 166.03 -72.25 0 -89.94 -166.03 -16.91 0 0 311.31 -63.8 0zm-3885.52 -478.87c35.88,-46.63 83.79,-69.95 143.74,-69.95 59.96,0 108,23.45 144.12,70.34 36.12,46.89 54.19,116.71 54.19,209.45 0,92.76 -18.07,162.44 -54.19,209.07 -36.13,46.64 -84.17,69.95 -144.12,69.95 -59.96,0 -107.87,-23.31 -143.74,-69.95 -35.87,-46.63 -53.8,-116.32 -53.8,-209.07 0,-93.26 17.93,-163.2 53.8,-209.84zm46.13 370.88c21.52,38.69 54.06,58.04 97.62,58.04 43.56,0 76.23,-19.35 98,-58.04 21.78,-38.69 32.67,-92.37 32.67,-161.03 0,-69.18 -10.89,-123.11 -32.67,-161.8 -21.77,-38.69 -54.44,-58.03 -98,-58.03 -43.56,0 -76.1,19.34 -97.62,58.03 -21.53,38.7 -32.29,92.63 -32.29,161.8 0,68.67 10.76,122.35 32.29,161.03zm873.95 108l-96.09 -162.18 -27.67 0 -98.39 162.18 -71.49 0 120.68 -198.31 -108.38 -189.08 69.18 0 89.17 153.72 27.67 0 90.7 -153.72 68.42 0 -109.92 186.77 119.91 200.62 -73.79 0zm361.26 0l0 -59.96 127.6 0 0 -407.39 -15.37 0 -113 76.1 0 -70.72 112.23 -76.1 83.79 0 0 478.1 117.6 0 0 59.96 -312.84 0zm1384.34 0l-79.94 0 0 -89.17 79.94 0 0 89.17zm133.75 -478.87c35.88,-46.63 83.79,-69.95 143.74,-69.95 59.96,0 108,23.45 144.12,70.34 36.12,46.89 54.19,116.71 54.19,209.45 0,92.76 -18.07,162.44 -54.19,209.07 -36.13,46.64 -84.17,69.95 -144.12,69.95 -59.96,0 -107.87,-23.31 -143.74,-69.95 -35.87,-46.63 -53.8,-116.32 -53.8,-209.07 0,-93.26 17.93,-163.2 53.8,-209.84zm46.13 370.88c21.52,38.69 54.06,58.04 97.62,58.04 43.56,0 76.23,-19.35 98,-58.04 21.78,-38.69 32.67,-92.37 32.67,-161.03 0,-69.18 -10.89,-123.11 -32.67,-161.8 -21.77,-38.69 -54.44,-58.03 -98,-58.03 -43.56,0 -76.1,19.34 -97.62,58.03 -21.53,38.7 -32.29,92.63 -32.29,161.8 0,68.67 10.76,122.35 32.29,161.03z"/>
   <g>
    <line fill="none" stroke="gray" stroke-width="10.58" stroke-miterlimit="22.9256" x1="6421.26" y1="5931.17" x2="7549.77" y2= "5931.17" />
    <line fill="none" stroke="gray" stroke-width="10.58" stroke-miterlimit="22.9256" x1="6418.5" y1="1707.26" x2="7549.77" y2= "1707.26" />
    <line fill="none" stroke="gray" stroke-width="10.58" stroke-miterlimit="22.9256" x1="6845.35" y1="6351.93" x2="6845.35" y2= "1340.69" />
   </g>
   <g>
    <line fill="none" stroke="gray" stroke-width="10.58" stroke-miterlimit="22.9256" x1="6421.26" y1="12723.91" x2="7549.77" y2= "12723.91" />
    <line fill="none" stroke="gray" stroke-width="10.58" stroke-miterlimit="22.9256" x1="6418.5" y1="7927.31" x2="7549.77" y2= "7927.31" />
    <line fill="none" stroke="gray" stroke-width="10.58" stroke-miterlimit="22.9256" x1="6845.35" y1="13168.01" x2="6845.35" y2= "7560.74" />
   </g>
   <g>
    <line fill="none" stroke="gray" stroke-width="10.58" stroke-miterlimit="22.9256" x1="7754.82" y1="19087.46" x2="7754.82" y2= "17956.19" />
    <line fill="none" stroke="gray" stroke-width="10.58" stroke-miterlimit="22.9256" x1="16986.85" y1="18660.6" x2="7330.73" y2= "18660.6" />
    <line fill="none" stroke="gray" stroke-width="10.58" stroke-miterlimit="22.9256" x1="16615.15" y1="19084.7" x2="16615.15" y2= "17956.19" />
   </g>
  </g>
  <rect fill="none" width="29698.94" height="20999.25"/>
 </g>
</svg>
