<?xml version="1.0" encoding="UTF-8"?>
<!DOCTYPE svg PUBLIC "-//W3C//DTD SVG 1.1//EN" "http://www.w3.org/Graphics/SVG/1.1/DTD/svg11.dtd">
<!-- Creator: CorelDRAW 2021.5 -->
<svg xmlns="http://www.w3.org/2000/svg" xml:space="preserve" width="297mm" height="210mm" version="1.1" shape-rendering="geometricPrecision" text-rendering="geometricPrecision" image-rendering="optimizeQuality" fill-rule="evenodd" clip-rule="evenodd"
viewBox="0 0 29698.94 20999.25"
 xmlns:xlink="http://www.w3.org/1999/xlink"
 xmlns:xodm="http://www.corel.com/coreldraw/odm/2003">
 <g id="Тени">
  <metadata id="CorelCorpID_0Corel-Layer"/>
  <g id="_2274493525632">
   <path fill="black" fill-opacity="0.101961" d="M4539.1 12019.84c54.8,-838.81 350.97,-1069.73 675.42,-1084.68 34.34,-1.56 121.22,0.58 160.96,-0.62 -276.82,-39.87 -642.95,-3.74 -772.11,-43.18 -77.67,-23.72 -81.72,-88.85 -88.79,-165.19 -8.58,-92.3 -18.64,-434.19 -10.99,-475.15l25.68 -456.75c4.94,-88.29 94.87,-184.21 75.91,-182.47l-138.43 12.79 -20.08 117.12 0 3518.24c42.31,-952.4 38.83,-420.54 92.43,-1240.1zm2827.79 -1094.62c192.9,10.18 347.66,45.33 383.05,56.52 342.74,108.41 582.91,282.38 637.14,1085.22 24.62,364.31 87.63,1192.98 87.63,1192.98 0,0 83.64,-936.58 92.63,-1190.22 45.31,-1276.12 581.06,-1081.88 1367.33,-1121.06 138.85,-6.89 535.49,-12.28 654.86,-21.84 -30.05,0.55 -295,0.38 -324.61,0.6 -679.13,5.14 -1367.5,14.59 -1634.98,-48.68 -70.36,-16.66 -54.66,-129.93 -66.76,-248.47 -18.14,-177.78 -35.82,-391.49 -27.47,-436.38l41.4 -421.18c6.14,-62.55 41.37,-125.62 82.55,-152.06l-149.1 0.36 -32.13 50.61 -41.03 -49.12 -167.28 -6.01c64.69,8.03 76.66,119.22 86.35,201.72l45.8 390.4c1.67,14.3 -0.63,28.23 -3.3,41.38l1.3 0.02c-4.46,55.7 9.54,299.86 -14.29,469.41 -10.33,73.59 4.94,129.58 -46.14,155.91 -102.01,52.65 -566.79,36.3 -972.93,49.9zm3999.48 7.47c250.43,3.56 507.22,51.39 687.76,176.64 334.76,232.24 343.81,387.14 390.14,1059.66 67.91,986.05 37.98,757.33 66.34,1005.43 75.59,-514.82 160.79,-1820.45 545.43,-2044.9 366.1,-213.66 1131.44,-206.92 1400.05,-207.23 256.98,-0.31 988.87,-21.02 1387.82,219 376.97,226.79 574.68,522.53 722.95,2027.39l0 -3495.38 -53.2 -64.31 -96.22 -4.96 88.29 508.4 -9.44 664.15 -60.14 102.71 -120.55 18.87 -981.34 23.29 -1756.33 1.67 -870.58 -38.76 -60.55 -53.72 -24.92 -309.83 -11.42 -398.63 40.39 -391.9 67.44 -126.26 -166.1 3.22 -41.94 58.13 -46.46 -50.16 -115.26 -3.36c31.52,29.32 50.11,129.53 56.11,182.34l45.5 399.67c1.65,14.31 -0.64,28.23 -3.3,41.38l1.29 0.02c-6.37,79.89 33.82,580.4 -63.57,634.43 -119.76,66.47 -623.18,14.2 -1018.19,62.98z"/>
   <polygon fill="black" fill-opacity="0.101961" points="19803.23,2402.27 21920.38,2402.27 21952.89,2526.58 19867.24,2526.58 19799.02,2585.39 19803.23,2526.58 "/>
   <path fill="black" fill-opacity="0.101961" d="M5087.29 1266.29c628.86,61.06 822.99,180.34 1326.19,186.85 536.33,6.94 689.12,-93.42 1523.41,-200.31 -469.12,8.45 -928.13,29.95 -1397.26,38.41l-1452.34 -24.95z"/>
   <path fill="black" fill-opacity="0.101961" d="M9036.02 1242.63c779.67,72 893.33,191.11 1396.53,197.37 536.32,6.68 812.98,-175.01 1412.6,-186.8 -469.13,8.11 -928.14,19.66 -1397.27,27.8l-1411.86 -38.37z"/>
   <path fill="black" fill-opacity="0.101961" d="M5014.3 3176.04c675.26,-61.89 933.81,-151.93 1437.01,-157.32 536.32,-5.74 616.28,91.03 1412.59,168.45 -469.12,-6.99 -945.54,16.82 -1414.67,9.82l-1434.93 -20.95z"/>
   <path fill="black" fill-opacity="0.101961" d="M8995.53 3178.23c826.09,-137.83 926.12,-171.33 1429.31,-180.71 536.32,-10.01 705.2,41.36 1420.3,186.4 -469.12,-12.17 -939.73,-8.12 -1408.87,-20.33l-1440.74 14.64z"/>
   <g>
    <path fill="black" fill-opacity="0.101961" d="M12980.68 1249.4c779.67,71.99 893.34,191.11 1396.54,197.37 536.32,6.67 812.97,-175.01 1412.59,-186.81 -469.12,8.12 -928.13,19.66 -1397.26,27.8l-1411.87 -38.36z"/>
    <path fill="black" fill-opacity="0.101961" d="M12940.2 3185c826.09,-137.84 926.11,-171.33 1429.3,-180.72 536.32,-10 705.2,41.37 1420.3,186.41 -469.11,-12.17 -939.73,-8.12 -1408.86,-20.34l-1440.74 14.65z"/>
   </g>
   <path fill="black" fill-opacity="0.101961" d="M4458.93 3381.65l14.46 -110.92 91.74 -26.22 4.9 790.94 0.45 0c-5.06,-1489.39 -0.45,-800.26 3.61,0l3803.49 0 4.37 -794.63 53.96 19.68 41.42 34.77 58.65 -40.2 44.18 -10.58 -3.93 790.96 3470.34 0 175.9 -790.96 245.99 -0.4 -44.7 56.12 -6.03 87.71 -6.31 584.38 23.95 43.69 50.68 19.47c1399.9,0 2684.63,0 4078.53,0l0 204.49c-1393.92,0 -2683.43,0 -4077.46,0l4.59 828.02 24.18 23.93 -1420.7 3.31 450.24 -855.26 -6970.32 0c4.04,830.77 6.53,1591.23 -3.77,0l-0.16 0 3.15 851.14 -75.31 0 -43.19 -38.9 1.5 -812.24 -12.19 0 5.32 -173.87 7.21 -5.42 1.26 -679.01z"/>
   <polygon fill="black" fill-opacity="0.101961" points="24598.03,4082.88 28080.55,4082.88 28080.55,4207.21 24598.03,4207.21 "/>
   <g>
    <rect fill="none" stroke="#2B2A29" stroke-width="10.58" stroke-miterlimit="22.9256" x="24214.53" y="5114.81" width="162.98" height="142.15"/>
    <rect fill="none" stroke="#2B2A29" stroke-width="10.58" stroke-miterlimit="22.9256" x="19980.87" y="5113.18" width="162.98" height="142.15"/>
    <path fill="none" stroke="#2B2A29" stroke-width="10.58" stroke-miterlimit="22.9256" d="M19799.44 2643.05l0 2446.27c0,10.21 8.34,18.53 18.54,18.53l4765.77 0c10.2,0 18.54,-8.32 18.54,-18.53l0 -2324.44c0,-128.88 -105.44,-234.3 -234.3,-234.3l-4456.08 0c-61.87,0 -112.47,50.6 -112.47,112.47z"/>
    <path fill="none" stroke="#2B2A29" stroke-width="10.58" stroke-miterlimit="22.9256" d="M24616.3 3306.53c0,0 94.01,17.26 94.01,111.91 0,94.64 5.92,378.15 4.08,425.38 -1.85,47.24 -8.25,200.56 -97.44,200.56"/>
    <path fill="none" stroke="black" stroke-width="10.58" stroke-miterlimit="22.9256" d="M21017.05 2530.58l-279.67 -1013.72c-26.23,-95.09 -68.35,-188.81 68.36,-210.44l403.5 -63.81c36.26,-5.74 135.23,-20.29 176.27,128.56l318.38 1153.98"/>
    <path fill="none" stroke="black" stroke-width="10.58" stroke-miterlimit="22.9256" d="M20760.65 1318.51c-96.92,19.21 -158.6,126.61 -161.85,233.65 -4.58,150.38 219.11,951.27 229.17,978.41"/>
    <path fill="none" stroke="black" stroke-width="10.58" stroke-miterlimit="22.9256" d="M21238.92 1239.43c177.55,-26.65 327.29,270.47 356.04,326.52 153.65,299.4 349.41,904.12 366.19,964.63"/>
    <path fill="none" stroke="black" stroke-width="10.58" stroke-miterlimit="22.9256" d="M19906.73 1637.47c-123.77,11.93 -122.82,225 -111.36,541.72 3.32,92.36 4.12,388.04 3.65,744.7"/>
    <path fill="none" stroke="black" stroke-width="10.58" stroke-miterlimit="22.9256" d="M20496.87 1637.47c55.46,5.35 94.23,13.47 121.03,115.47 70.23,267.17 193.33,678.97 193.5,782.64"/>
    <line fill="none" stroke="black" stroke-width="10.58" stroke-miterlimit="22.9256" x1="19906.73" y1="1637.47" x2="20496.87" y2= "1637.47" />
    <polyline fill="none" stroke="black" stroke-width="10.58" stroke-miterlimit="22.9256" points="24495.53,5107.37 28080.54,5111.87 28080.54,4079.3 24586.07,4079.3 "/>
    <path fill="none" stroke="black" stroke-width="10.58" stroke-miterlimit="22.9256" d="M24600.01 3285.51l3488.5 2.2c89.41,0.03 162.52,58.98 162.52,130.7l0 530.2c0,71.72 -73.34,130.7 -162.52,130.7l-3490.47 0"/>
    <rect fill="none" stroke="black" stroke-width="10.58" stroke-miterlimit="22.9256" x="27802.2" y="5119.64" width="166.91" height="145.58"/>
   </g>
   <g>
    <path fill="none" stroke="#2B2A29" stroke-width="10.58" stroke-miterlimit="22.9256" d="M4524.06 10777.88c10.95,74.06 30.24,113.3 131.83,123.31 523.26,51.6 3192.7,32.81 3626.11,-2.18 50.21,-6.09 67.65,-25.17 85.03,-72.85 35.26,-89.5 32.58,-500.34 32.58,-636.52 7.99,-78.98 -52.25,-439.63 -71.34,-523.27 -10.91,-38.14 -48.12,-51.86 -79.34,-51.23 -1155.85,-3.68 -2088.62,-1.74 -3265.69,-4.32 -62.48,2.18 -199.22,-7.16 -300.81,0.64 -63.99,4.92 -100.96,26.38 -113.57,56.45 -66.62,127.63 -54.01,362 -65.74,430.66 -6.09,122.92 16.89,542.43 20.94,679.31z"/>
    <path fill="none" stroke="#2B2A29" stroke-width="10.58" stroke-miterlimit="22.9256" d="M4505.41 10336.2c-5.84,-230.16 18.61,-221.74 149.84,-218.98 108.46,-3.04 3557.5,-12.81 3593.39,-3.35 67.35,4.62 167.66,-29.84 151.06,106.67"/>
    <path fill="none" stroke="#2B2A29" stroke-width="10.58" stroke-miterlimit="22.9256" d="M4956.91 9610.78c-0.13,-8.08 -2.28,-60.17 -2.46,-68.25 3.48,-51.98 26.24,-74.28 158.45,-74.28 919.28,0 1770.9,0 2690.19,0 117.34,0 174.82,-1.03 171.73,84.44l0 61.09"/>
    <path fill="none" stroke="#2B2A29" stroke-width="10.58" stroke-miterlimit="22.9256" d="M8568.8 10772.27c10.95,74.06 30.24,113.3 131.83,123.31 523.26,51.6 3192.7,32.82 3626.11,-2.17 50.21,-6.1 67.64,-25.18 85.03,-72.86 35.26,-89.5 32.58,-500.34 32.58,-636.51 7.99,-78.99 -52.26,-439.64 -71.35,-523.28 -10.9,-38.13 -48.11,-51.86 -79.33,-51.23 -1155.85,-3.68 -2088.62,-1.74 -3265.69,-4.32 -62.49,2.18 -199.22,-7.16 -300.81,0.64 -63.99,4.92 -100.96,26.38 -113.57,56.45 -66.62,127.64 -54.01,362 -65.75,430.66 -6.08,122.92 16.9,542.43 20.95,679.31z"/>
    <path fill="none" stroke="#2B2A29" stroke-width="10.58" stroke-miterlimit="22.9256" d="M8550.15 10330.6c-5.84,-230.17 18.61,-221.75 149.84,-218.99 108.46,-3.03 3557.5,-12.81 3593.39,-3.35 67.35,4.62 167.66,-29.84 151.06,106.67"/>
    <path fill="none" stroke="#2B2A29" stroke-width="10.58" stroke-miterlimit="22.9256" d="M9001.66 9605.17c-0.13,-8.07 -2.28,-60.17 -2.47,-68.24 3.49,-51.99 26.25,-74.28 158.46,-74.28 919.28,0 1770.9,0 2690.18,0 117.35,0 174.83,-1.04 171.74,84.44l0 61.08"/>
    <polyline fill="none" stroke="#2B2A29" stroke-width="10.58" stroke-miterlimit="22.9256" stroke-dasharray="52.898112 52.898112" points="4446.7,13315.33 4448.17,18275.66 12505.59,18275.66 12507.61,13323.7 "/>
    <path fill="none" stroke="black" stroke-width="10.58" stroke-miterlimit="22.9256" d="M16657.77 13268.03c-81.14,-41.5 -97.36,-253.44 -97.36,-740.28 0,-196.25 12.37,-2759.51 2.69,-3101.6 -11.13,-397.31 6.43,-613.29 99.14,-650.15 91.88,-50.3 828.26,-45.63 909.6,-2.52 93.5,33.85 117.66,280.04 106.49,675.24 -9.64,340.35 2.67,2890.37 2.67,3085.63 0,484.27 -16.2,695.18 -98.02,734.05 -83.52,44.42 -850.59,34.03 -925.21,-0.37z"/>
    <path fill="none" stroke="black" stroke-width="10.58" stroke-miterlimit="22.9256" d="M12510.83 8863.08c-26.74,-127.55 -506.81,-131.83 -1215.78,-119.96 -610.5,10.2 -5184.73,-2.88 -5534.99,-2.88 -868.73,0 -1304.59,-15.49 -1342.72,134.93"/>
    <path fill="none" stroke="black" stroke-width="10.58" stroke-miterlimit="22.9256" d="M4351 13270.75c81.14,-41.62 97.35,-254.18 97.35,-742.46 0,-196.83 -12.36,-2767.65 -2.68,-3110.75 11.13,-398.48 -6.43,-615.1 -99.14,-652.07 -91.88,-50.45 -828.26,-45.76 -909.6,-2.52 -93.5,33.95 -117.66,280.86 -106.49,677.22 9.63,341.36 -2.67,2898.91 -2.67,3094.74 0,485.71 16.2,697.23 98.02,736.21 83.52,44.56 850.59,34.14 925.21,-0.37z"/>
    <rect fill="none" stroke="black" stroke-width="10.58" stroke-miterlimit="22.9256" x="8482.59" y="9611.88" width="4028.01" height="3777.74" rx="33.19" ry="78.71"/>
    <rect fill="none" stroke="black" stroke-width="10.58" stroke-miterlimit="22.9256" x="4446.69" y="9611.79" width="4028.01" height="3777.83" rx="33.19" ry="78.71"/>
    <g>
     <path fill="none" stroke="#2B2A29" stroke-width="10.58" stroke-miterlimit="22.9256" d="M12632.26 10772.27c10.96,74.06 30.24,113.3 131.83,123.31 523.26,51.6 3192.71,32.82 3626.12,-2.17 50.21,-6.1 67.64,-25.18 85.03,-72.86 35.26,-89.5 32.58,-500.34 32.58,-636.51 7.98,-78.99 -52.26,-439.64 -71.35,-523.28 -10.91,-38.13 -48.11,-51.86 -79.33,-51.23 -1155.85,-3.68 -2088.62,-1.74 -3265.7,-4.32 -62.48,2.18 -199.22,-7.16 -300.81,0.64 -63.99,4.92 -100.95,26.38 -113.56,56.45 -66.63,127.64 -54.01,362 -65.75,430.66 -6.09,122.92 16.9,542.43 20.94,679.31z"/>
     <path fill="none" stroke="#2B2A29" stroke-width="10.58" stroke-miterlimit="22.9256" d="M12613.62 10330.6c-5.84,-230.17 18.6,-221.75 149.84,-218.99 108.45,-3.03 3557.49,-12.81 3593.39,-3.35 67.35,4.62 167.66,-29.84 151.05,106.67"/>
     <path fill="none" stroke="#2B2A29" stroke-width="10.58" stroke-miterlimit="22.9256" d="M13065.12 9605.17c-0.13,-8.07 -2.29,-60.17 -2.47,-68.24 3.49,-51.99 26.24,-74.28 158.45,-74.28 919.29,0 1770.91,0 2690.19,0 117.34,0 174.83,-1.04 171.74,84.44l0 61.08"/>
    </g>
    <rect fill="none" stroke="black" stroke-width="10.58" stroke-miterlimit="22.9256" x="12508.85" y="9604.04" width="4058.01" height="7602.29" rx="33.44" ry="158.39"/>
    <line fill="none" stroke="black" stroke-width="10.58" stroke-miterlimit="22.9256" x1="12510.83" y1="8863.07" x2="12508.95" y2= "9741.31" />
    <path fill="none" stroke="black" stroke-width="10.58" stroke-miterlimit="22.9256" d="M12510.84 8863.07c26.29,-118.55 215.6,-111.97 546.94,-109.01 309.51,2.78 2699.5,-3.35 2877.01,-3.35 440.24,0 658.2,11.17 677.53,157.15"/>
   </g>
   <g>
    <path fill="none" stroke="black" stroke-width="10.58" stroke-miterlimit="22.9256" d="M12634.3 1249.21c581.79,0 1141.49,25.06 1723.28,25.06 589.65,0 1272.1,-25.91 1861.75,-25.91 107.39,0 162.47,49.51 162.47,170.26 0,208.46 -30.61,590.84 -30.61,799.3 0,292.37 27.67,519.78 27.67,812.14 0,120.76 -51.48,157.68 -158.86,157.68 -621.06,0 -1264.01,-17.44 -1885.07,-17.44 -515.29,0 -1037.4,9.46 -1552.67,17.56 -35.06,0.55 -112.09,-1.03 -147.15,-1.03 -107.4,0 -143.93,-29.81 -143.93,-150.55 0,-252.62 16.99,-539.86 16.99,-792.49 0,-248.21 -17.52,-594.08 -17.52,-842.29 0,-120.75 36.29,-152.29 143.66,-152.29z"/>
    <path fill="none" stroke="black" stroke-width="10.58" stroke-miterlimit="22.9256" d="M17505.27 2415.06l-776.3 0c-17.08,0 -39.49,5.88 -55.01,9.88 -97.57,21.53 -116.05,148.81 -104.3,383.01 10.12,201.63 -2.83,1712.51 -2.83,1828.19 0,286.93 17.04,411.89 102.75,435.58 20.63,8.14 24.86,11.71 59.39,11.71l776.3 0c33.37,0 36.7,-5.05 57.4,-10.08 85.69,-23.59 102.75,-147.87 102.75,-433.34 0,-115.09 -12.96,-1618.14 -2.84,-1818.75 11.76,-232.96 -13.64,-378.07 -111.22,-399.49 -16.52,-5.35 -27.09,-6.72 -46.09,-6.72z"/>
    <path fill="none" stroke="black" stroke-width="10.58" stroke-miterlimit="22.9256" d="M4537.85 3244.49c1276.63,0 2553.26,0 3829.9,0 52.93,-4.18 63.35,33.85 95,50.77 29.9,-16.92 53.18,-54.16 89.69,-50.77l3756.85 0c24.89,0 125.16,-0.12 150.19,-0.66 -45.88,19.74 -69.64,55.72 -69.64,76.86l-0.47 633.14c0,28.98 21.99,67.53 66.46,88.68 -23.56,0 -128.81,0 -146.54,0l-7771.43 0c-44.03,0 -80.09,-39.9 -80.09,-88.68l0 -620.68c0,-48.76 36.04,-88.66 80.09,-88.66z"/>
    <rect fill="none" stroke="black" stroke-width="10.58" stroke-miterlimit="22.9256" x="4457.89" y="4042.51" width="12106.67" height="1048.4" rx="70.47" ry="52.42"/>
    <rect fill="none" stroke="black" stroke-width="10.58" stroke-miterlimit="22.9256" x="3459.64" y="5130.32" width="875.56" height="145.55"/>
    <rect fill="none" stroke="black" stroke-width="10.58" stroke-miterlimit="22.9256" x="16676.61" y="5086.58" width="880.76" height="145.55"/>
    <path fill="none" stroke="black" stroke-width="10.58" stroke-miterlimit="22.9256" d="M4451.23 2683.81l0 -851.7c-5.69,-164.59 26.68,-214.06 97.55,-228.44m11835.93 -8.1c114.61,18.1 181.69,-3.05 187.49,370.53l-2.8 618.04"/>
    <path fill="none" stroke="black" stroke-width="10.58" stroke-miterlimit="22.9256" d="M4729.24 1250.39c586.78,0 1108.2,27.12 1695,27.12 594.72,0 1279.15,-26.39 1873.86,-26.39 108.32,0 165.37,39.42 165.37,160.16 0,208.47 -28.46,601.42 -28.46,809.88 0,292.38 32.97,513.76 32.97,806.13 0,120.76 -31.51,167.42 -139.83,167.42 -626.41,0 -1299.51,-22.69 -1925.9,-22.69 -404.58,0 -885.5,-7.15 -1282.88,7.74 -192.91,7.23 -299.92,31.23 -501.39,40.67 -108.11,5.07 -85.68,-127.27 -85.68,-248.02 0,-252.62 26.61,-472.75 26.61,-725.38 0,-248.21 -26.61,-621.12 -26.61,-869.33 0,-120.78 88.62,-127.32 196.93,-127.32z"/>
    <line fill="none" stroke="black" stroke-width="10.58" stroke-miterlimit="22.9256" x1="8462.87" y1="4042.51" x2="8462.75" y2= "3300.08" />
    <path fill="none" stroke="black" stroke-width="10.58" stroke-miterlimit="22.9256" d="M8689.63 1242.45c581.79,0 1141.5,25.05 1723.28,25.05 589.65,0 1272.11,-25.9 1861.75,-25.9 107.39,0 162.48,49.51 162.48,170.25 0,208.47 -30.62,590.84 -30.62,799.31 0,292.37 27.67,519.77 27.67,812.13 0,120.77 -51.48,157.69 -158.85,157.69 -621.07,0 -1264.02,-17.45 -1885.08,-17.45 -515.29,0 -1037.4,9.46 -1552.67,17.57 -35.06,0.55 -112.09,-1.04 -147.15,-1.04 -107.4,0 -143.93,-29.8 -143.93,-150.55 0,-252.62 16.99,-539.86 16.99,-792.48 0,-248.22 -17.52,-594.09 -17.52,-842.29 0,-120.76 36.29,-152.29 143.66,-152.29z"/>
    <path fill="none" stroke="black" stroke-width="10.58" stroke-miterlimit="22.9256" d="M4293.08 2457.49l-776.3 0c-17.08,0 -39.49,5.89 -55,9.89 -97.58,21.53 -116.06,148.81 -104.31,383.01 10.13,201.63 -2.83,1712.51 -2.83,1828.19 0,286.93 17.04,411.88 102.75,435.57 20.63,8.15 24.86,11.72 59.39,11.72l776.3 0c33.37,0 36.7,-5.05 57.4,-10.08 85.69,-23.6 102.75,-147.87 102.75,-433.35 0,-115.08 -12.96,-1618.13 -2.83,-1818.74 11.75,-232.96 -13.65,-378.07 -111.22,-399.49 -16.53,-5.35 -27.1,-6.73 -46.1,-6.73z"/>
    <rect fill="none" stroke="black" stroke-width="10.58" stroke-miterlimit="22.9256" x="12389.37" y="3242.86" width="4181.63" height="798" rx="107.71" ry="85.95"/>
    <rect fill="none" stroke="black" stroke-width="10.58" stroke-miterlimit="22.9256" x="15371.54" y="5096.26" width="1059" height="142.54"/>
    <rect fill="none" stroke="black" stroke-width="10.58" stroke-miterlimit="22.9256" x="12588.88" y="5096.26" width="1059" height="142.54"/>
    <line fill="none" stroke="black" stroke-width="10.58" stroke-miterlimit="22.9256" x1="12462.98" y1="5079.94" x2="12462.91" y2= "4042.5" />
   </g>
   <path fill="#666666" fill-rule="nonzero" fill-opacity="0.800000" d="M20115.41 8936.87l0 16.68c22.74,10.61 41.06,27.29 54.96,50.03 13.9,22.74 20.85,47.76 20.85,75.05 0,45.48 -15.67,82.24 -47,110.29 -31.33,28.05 -76.82,42.07 -136.45,42.07l-241.8 0 0 -541.21 235.74 0c55.08,0 97.66,13.01 127.73,39.04 30.06,26.02 45.1,58.74 45.1,98.16 0,52.05 -19.71,88.69 -59.13,109.91zm-281.22 -186.46l0 169.03 166 0c70.25,0 105.37,-28.81 105.37,-86.42 0,-28.3 -10.11,-49.14 -30.32,-62.53 -20.22,-13.4 -45.74,-20.09 -76.56,-20.09l-164.49 0zm0 419.94l169.03 0c34.87,0 63.43,-7.46 85.66,-22.36 22.24,-14.91 33.35,-39.8 33.35,-74.67 0,-32.85 -10.99,-56.73 -32.97,-71.63 -21.98,-14.91 -50.41,-22.37 -85.28,-22.37l-169.79 0 0 191.02zm456.32 -321.4l64.43 0 0 127.35 105.37 0c45.98,0 81.49,11.12 106.5,33.36 25.02,22.23 37.52,53.31 37.52,93.23 0,40.43 -12.5,71.89 -37.52,94.38 -25.01,22.49 -60.52,33.73 -106.5,33.73l-169.79 0 0 -382.04zm64.43 181.92l0 144.02 96.27 0c31.84,0 54.58,-6.07 68.22,-18.2 13.65,-12.13 20.47,-30.07 20.47,-53.82 0,-23.75 -6.82,-41.69 -20.47,-53.82 -13.64,-12.13 -36.38,-18.19 -68.22,-18.19l-96.27 0zm310.78 -181.92l64.44 0 0 382.04 -64.44 0 0 -382.04zm447.22 266.82l64.43 0c-7.58,38.41 -25.39,68.85 -53.44,91.34 -28.05,22.49 -63.8,33.73 -107.26,33.73 -57.61,0 -102.97,-18.82 -136.07,-56.47 -33.1,-37.65 -49.65,-85.78 -49.65,-144.39 0,-59.13 16.42,-107.39 49.27,-144.78 32.85,-37.39 78.33,-56.09 136.45,-56.09 43.96,0 79.72,10.99 107.26,32.97 27.54,21.99 44.6,51.17 51.17,87.56l-64.44 0c-13.64,-42.96 -44.97,-64.44 -93.99,-64.44 -40.94,0 -71.38,13.52 -91.35,40.56 -19.96,27.03 -29.94,61.27 -29.94,102.71 0,41.94 10.11,76.81 30.32,104.61 20.22,27.79 50.54,41.69 90.97,41.69 53.56,0 85.65,-22.99 96.27,-68.98zm187.6 -219.82c33.6,-37.9 79.47,-56.85 137.58,-56.85 58.12,0 103.98,18.95 137.58,56.85 33.61,37.9 50.41,85.91 50.41,144.02 0,58.11 -16.8,106.12 -50.41,144.01 -33.6,37.9 -79.46,56.85 -137.58,56.85 -58.11,0 -103.98,-18.95 -137.58,-56.85 -33.61,-37.9 -50.41,-85.91 -50.41,-144.01 0,-58.12 16.8,-106.13 50.41,-144.02zm45.86 246.73c21.22,28.05 51.8,42.07 91.72,42.07 39.92,0 70.5,-14.02 91.72,-42.07 21.23,-28.05 31.84,-62.29 31.84,-102.71 0,-40.43 -10.61,-74.67 -31.84,-102.72 -21.22,-28.04 -51.8,-42.07 -91.72,-42.07 -39.92,0 -70.5,14.03 -91.72,42.07 -21.23,28.05 -31.84,62.29 -31.84,102.72 0,40.42 10.61,74.66 31.84,102.71zm333.52 -237.63l0 -56.1 328.98 0 0 56.1 -131.9 0 0 325.94 -64.43 0 0 -325.94 -132.66 0zm657.2 325.94l0 -40.18 -16.68 0c-26.28,33.36 -65.95,50.03 -119.01,50.03 -41.95,0 -75.3,-12.12 -100.06,-36.38 -24.76,-24.26 -37.14,-53.57 -37.14,-87.93 0,-34.87 12.12,-64.69 36.38,-89.45 24.26,-24.76 60.9,-37.14 109.92,-37.14l124.31 0 0 -15.16c0,-24.26 -7.58,-43.59 -22.74,-57.99 -15.16,-14.41 -38.66,-21.61 -70.5,-21.61 -55.58,0 -85.15,18.45 -88.69,55.34l-64.43 0c2.53,-34.87 17.56,-62.16 45.11,-81.87 27.54,-19.71 63.04,-29.56 106.5,-29.56 49.02,0 87.55,11.37 115.6,34.11 28.04,22.74 42.07,55.34 42.07,97.79l0 259.99 -60.64 0zm-119.77 -46.24c31.83,0 59.38,-10.49 82.62,-31.46 23.25,-20.97 34.87,-46.62 34.87,-76.94l0 -34.87 -114.46 0c-61.15,0 -91.72,24.26 -91.72,72.77 0,21.73 7.7,38.92 23.12,51.55 15.41,12.63 37.27,18.95 65.57,18.95zm-2199.72 758.82l64.43 0c-7.58,38.41 -25.39,68.85 -53.44,91.34 -28.05,22.49 -63.8,33.73 -107.26,33.73 -57.61,0 -102.97,-18.82 -136.07,-56.47 -33.1,-37.65 -49.65,-85.78 -49.65,-144.39 0,-59.13 16.42,-107.39 49.27,-144.78 32.85,-37.39 78.33,-56.09 136.45,-56.09 43.96,0 79.72,10.99 107.26,32.97 27.54,21.99 44.6,51.17 51.17,87.56l-64.44 0c-13.64,-42.96 -44.97,-64.44 -93.99,-64.44 -40.94,0 -71.38,13.52 -91.35,40.56 -19.96,27.03 -29.94,61.27 -29.94,102.71 0,41.94 10.11,76.81 30.32,104.61 20.22,27.79 50.54,41.69 90.97,41.69 53.56,0 85.65,-22.99 96.27,-68.98zm251.65 115.22l-90.96 0 0 -382.04 62.91 0 0 295.62 16.68 0 167.52 -295.62 93.99 0 0 382.04 -62.91 0 0 -295.62 -16.68 0 -170.55 295.62zm714.79 -56.09l70.5 0 0 164.48 -62.92 0 0 -108.4 -330.49 0 0 108.4 -62.91 0 0 -164.48 50.78 0c31.34,-66.71 47,-140.48 47,-221.34l0 -104.61 288.04 0 0 325.95zm-64.43 0l0 -269.85 -163.72 0 0 48.51c0,86.42 -13.9,160.19 -41.69,221.34l205.41 0zm549.56 -157.66l0 21.98 -291.08 0c1.01,45.99 11.88,81.74 32.6,107.26 20.72,25.52 50.53,38.28 89.45,38.28 52.55,0 84.9,-19.71 97.02,-59.13l65.2 0c-6.57,34.37 -23.88,62.16 -51.93,83.39 -28.05,21.22 -64.81,31.83 -110.29,31.83 -58.12,0 -103.6,-18.95 -136.45,-56.85 -32.85,-37.9 -49.27,-87.17 -49.27,-147.8 0,-59.64 16.42,-107.39 49.27,-143.26 32.85,-35.88 77.83,-53.82 134.93,-53.82 54.07,0 95.77,17.05 125.08,51.17 29.31,34.11 44.47,76.43 45.48,126.97zm-172.07 -122.05c-32.84,0 -59.12,8.47 -78.83,25.4 -19.71,16.93 -31.84,38.53 -36.39,64.81l220.58 0c-2.02,-25.77 -12.38,-47.25 -31.08,-64.43 -18.7,-17.19 -43.46,-25.78 -74.29,-25.78zm612.47 335.8l-64.43 0 0 -168.27 -211.48 0 0 168.27 -64.43 0 0 -382.04 64.43 0 0 157.66 211.48 0 0 -157.66 64.43 0 0 382.04zm660.99 -382.04l190.25 0 0 382.04 -65.19 0 0 -150.84 -115.98 0c-10.1,0 -17.94,-0.25 -23.5,-0.76l-57.61 151.6 -67.46 0 64.43 -166c-39.42,-18.7 -59.12,-52.05 -59.12,-100.06 0,-36.89 11.49,-65.44 34.49,-85.66 22.99,-20.21 56.22,-30.32 99.68,-30.32zm125.07 54.58l-118.25 0c-27.79,0 -47.5,5.31 -59.13,15.92 -11.62,10.61 -17.43,26.03 -17.43,46.24 0,19.71 5.81,34.62 17.43,44.72 11.63,10.11 31.34,15.16 59.13,15.16l118.25 0 0 -122.04zm-1966.27 1155.26l-78.83 0 0 -87.93 78.83 0 0 87.93zm131.9 -472.23c35.38,-45.99 82.63,-68.98 141.75,-68.98 59.12,0 106.5,23.12 142.12,69.36 35.62,46.24 53.44,115.09 53.44,206.55 0,91.47 -17.82,160.19 -53.44,206.17 -35.63,45.99 -83.01,68.98 -142.12,68.98 -59.13,0 -106.38,-22.99 -141.75,-68.98 -35.37,-45.98 -53.06,-114.71 -53.06,-206.17 0,-91.97 17.69,-160.95 53.06,-206.93zm45.49 365.74c21.22,38.15 53.31,57.23 96.27,57.23 42.95,0 75.17,-19.08 96.64,-57.23 21.48,-38.16 32.22,-91.09 32.22,-158.8 0,-68.22 -10.74,-121.41 -32.22,-159.56 -21.47,-38.15 -53.69,-57.23 -96.64,-57.23 -42.96,0 -75.05,19.08 -96.27,57.23 -21.23,38.16 -31.84,91.35 -31.84,159.56 0,67.72 10.61,120.65 31.84,158.8zm864.88 -8.72l64.43 0c-7.58,38.41 -25.39,68.85 -53.44,91.34 -28.05,22.49 -63.8,33.73 -107.26,33.73 -57.61,0 -102.97,-18.82 -136.07,-56.47 -33.1,-37.65 -49.65,-85.78 -49.65,-144.39 0,-59.13 16.42,-107.39 49.27,-144.78 32.85,-37.39 78.33,-56.09 136.45,-56.09 43.96,0 79.72,10.99 107.26,32.97 27.54,21.99 44.6,51.17 51.17,87.56l-64.44 0c-13.64,-42.96 -44.97,-64.44 -93.99,-64.44 -40.94,0 -71.38,13.52 -91.35,40.56 -19.96,27.03 -29.94,61.27 -29.94,102.71 0,41.94 10.11,76.81 30.32,104.61 20.22,27.79 50.54,41.69 90.97,41.69 53.56,0 85.65,-22.99 96.27,-68.98zm160.69 115.22l0 -382.04 102.33 0 94 174.34 16.67 0 94 -174.34 100.82 0 0 382.04 -62.92 0 0 -306.99 -16.67 0 -88.69 163.72 -71.26 0 -88.69 -163.72 -16.68 0 0 306.99 -62.91 0zm166 -1209.84l0 127.35 112.95 0c45.98,0 81.49,11.12 106.5,33.36 25.02,22.23 37.52,53.31 37.52,93.23 0,40.43 -12.5,71.89 -37.52,94.38 -25.01,22.49 -60.52,33.73 -106.5,33.73l-177.37 0 0 -382.04 64.43 0zm0 325.95l103.85 0c31.84,0 54.58,-6.07 68.22,-18.2 13.65,-12.13 20.47,-30.07 20.47,-53.82 0,-23.75 -6.82,-41.69 -20.47,-53.82 -13.64,-12.13 -36.38,-18.19 -68.22,-18.19l-103.85 0 0 144.02zm861.09 56.09l-78.83 0 0 -87.93 78.83 0 0 87.93zm0 -294.11l-78.83 0 0 -87.93 78.83 0 0 87.93zm-2905.43 938.48l72.77 0 0 59.12 -72.77 0 0 124.32 -65.19 0 0 -124.32 -262.27 0 0 -75.8 234.22 -330.49 93.24 0 0 347.17zm-257.72 0l193.29 0 0 -272.13 -16.68 0 -176.61 255.45 0 16.68zm424.47 -347.17l310.03 0 0 74.29 -132.66 113.7 0 15.92c47,1.01 85.03,15.67 114.09,43.96 29.05,28.3 43.58,67.47 43.58,117.5 0,54.07 -17.43,96.77 -52.3,128.11 -34.87,31.33 -79.85,46.99 -134.93,46.99 -53.06,0 -96.52,-14.9 -130.38,-44.72 -33.86,-29.82 -52.31,-67.72 -55.34,-113.7l66.71 0c3.03,29.81 15.54,53.82 37.52,72.01 21.98,18.19 49.15,27.29 81.49,27.29 36.89,0 66.2,-10.36 87.93,-31.08 21.73,-20.72 32.6,-49.02 32.6,-84.9 0,-35.38 -10.36,-63.04 -31.08,-83 -20.72,-19.97 -50.28,-29.95 -88.69,-29.95 -18.7,0 -34.11,1.52 -46.24,4.55l0 -70.5 129.62 -112.18 0 -16.68 -231.95 0 0 -57.61z"/>
   <path fill="#666666" fill-rule="nonzero" fill-opacity="0.800000" d="M9023.84 19797.17l310.03 0 0 74.29 -132.66 113.7 0 15.92c47,1.01 85.03,15.67 114.09,43.96 29.05,28.3 43.58,67.47 43.58,117.5 0,54.07 -17.43,96.77 -52.3,128.11 -34.87,31.33 -79.85,46.99 -134.93,46.99 -53.06,0 -96.52,-14.9 -130.38,-44.72 -33.86,-29.82 -52.31,-67.72 -55.34,-113.7l66.71 0c3.03,29.81 15.54,53.82 37.52,72.01 21.98,18.19 49.15,27.29 81.49,27.29 36.89,0 66.2,-10.36 87.93,-31.08 21.73,-20.72 32.6,-49.02 32.6,-84.9 0,-35.38 -10.36,-63.04 -31.08,-83 -20.72,-19.97 -50.28,-29.95 -88.69,-29.95 -18.7,0 -34.11,1.52 -46.24,4.55l0 -70.5 129.62 -112.18 0 -16.68 -231.95 0 0 -57.61zm416.15 530.6l0 -59.13 125.84 0 0 -401.74 -15.16 0 -111.43 75.04 0 -69.74 110.67 -75.04 82.62 0 0 471.47 115.98 0 0 59.13 -308.51 0zm444.19 -384.31l-66.7 0c3.03,-51.04 20.84,-89.95 53.44,-116.74 32.59,-26.78 73.65,-40.17 123.18,-40.17 51.54,0 93.11,14.02 124.69,42.07 31.59,28.04 47.38,67.84 47.38,119.39 0,62.66 -39.17,126.59 -117.5,191.77l-133.41 112.19 0 16.67 267.58 0 0 59.13 -364.61 0 0 -75.04 78.08 -63.68c48.51,-38.91 88.69,-73.02 120.53,-102.33 12.13,-10.62 21.85,-19.71 29.18,-27.29 7.33,-7.58 15.67,-17.56 25.02,-29.94 9.35,-12.39 16.42,-25.4 21.22,-39.04 4.8,-13.65 7.2,-27.8 7.2,-42.45 0,-32.85 -9.6,-58.12 -28.8,-75.81 -19.21,-17.68 -45.23,-26.53 -78.08,-26.53 -30.83,0 -55.71,8.21 -74.67,24.64 -18.95,16.42 -30.19,40.81 -33.73,73.15zm471.47 384.31l-78.83 0 0 -87.93 78.83 0 0 87.93zm131.9 -472.23c35.38,-45.99 82.63,-68.98 141.75,-68.98 59.12,0 106.5,23.12 142.12,69.36 35.62,46.24 53.44,115.09 53.44,206.55 0,91.47 -17.82,160.19 -53.44,206.17 -35.63,45.99 -83.01,68.98 -142.12,68.98 -59.13,0 -106.38,-22.99 -141.75,-68.98 -35.37,-45.98 -53.06,-114.71 -53.06,-206.17 0,-91.97 17.69,-160.95 53.06,-206.93zm45.49 365.74c21.22,38.15 53.31,57.23 96.27,57.23 42.95,0 75.17,-19.08 96.64,-57.23 21.48,-38.16 32.22,-91.09 32.22,-158.8 0,-68.22 -10.74,-121.41 -32.22,-159.56 -21.47,-38.15 -53.69,-57.23 -96.64,-57.23 -42.96,0 -75.05,19.08 -96.27,57.23 -21.23,38.16 -31.84,91.35 -31.84,159.56 0,67.72 10.61,120.65 31.84,158.8zm864.88 -8.72l64.43 0c-7.58,38.41 -25.39,68.85 -53.44,91.34 -28.05,22.49 -63.8,33.73 -107.26,33.73 -57.61,0 -102.97,-18.82 -136.07,-56.47 -33.1,-37.65 -49.65,-85.78 -49.65,-144.39 0,-59.13 16.42,-107.39 49.27,-144.78 32.85,-37.39 78.33,-56.09 136.45,-56.09 43.96,0 79.72,10.99 107.26,32.97 27.54,21.99 44.6,51.17 51.17,87.56l-64.44 0c-13.64,-42.96 -44.97,-64.44 -93.99,-64.44 -40.94,0 -71.38,13.52 -91.35,40.56 -19.96,27.03 -29.94,61.27 -29.94,102.71 0,41.94 10.11,76.81 30.32,104.61 20.22,27.79 50.54,41.69 90.97,41.69 53.56,0 85.65,-22.99 96.27,-68.98zm160.69 115.22l0 -382.04 102.33 0 94 174.34 16.67 0 94 -174.34 100.82 0 0 382.04 -62.92 0 0 -306.99 -16.67 0 -88.69 163.72 -71.26 0 -88.69 -163.72 -16.68 0 0 306.99 -62.91 0z"/>
   <path fill="#666666" fill-rule="nonzero" fill-opacity="0.800000" d="M1701.07 4172.99l16.68 0c7.07,-20.71 21.85,-39.67 44.34,-56.85 22.49,-17.18 49.9,-25.77 82.25,-25.77 44.47,0 81.36,17.56 110.67,52.68 29.31,35.12 43.96,81.49 43.96,139.1 0,57.61 -14.65,103.98 -43.96,139.1 -29.31,35.12 -66.2,52.68 -110.67,52.68 -31.84,0 -59.13,-8.59 -81.87,-25.77 -22.74,-17.18 -37.65,-36.13 -44.72,-56.85l-16.68 0c-7.08,16.67 -20.47,31.96 -40.18,45.86 -19.71,13.9 -43.46,20.84 -71.25,20.84 -41.95,0 -76.06,-16.42 -102.34,-49.27 -26.27,-32.85 -39.41,-75.04 -39.41,-126.59 0,-51.55 13.14,-93.74 39.41,-126.59 26.28,-32.85 60.39,-49.27 102.34,-49.27 26.78,0 50.28,7.07 70.49,21.22 20.22,14.15 33.86,29.31 40.94,45.48zm-172.44 29.95c-15.42,20.97 -23.12,47.37 -23.12,79.21 0,31.84 7.7,58.24 23.12,79.21 15.41,20.98 36.76,31.46 64.05,31.46 27.29,0 48.77,-10.48 64.43,-31.46 15.67,-20.97 23.5,-47.37 23.5,-79.21 0,-31.84 -7.83,-58.24 -23.5,-79.21 -15.66,-20.98 -37.14,-31.46 -64.43,-31.46 -27.29,0 -48.64,10.48 -64.05,31.46zm383.55 171.3c18.45,-22.49 27.67,-53.19 27.67,-92.1 0,-38.91 -9.22,-69.61 -27.67,-92.1 -18.45,-22.49 -43.08,-33.73 -73.91,-33.73 -31.33,0 -55.84,11.12 -73.53,33.35 -17.68,22.24 -26.53,53.06 -26.53,92.48 0,39.42 8.85,70.24 26.53,92.48 17.69,22.24 42.2,33.35 73.53,33.35 30.83,0 55.46,-11.24 73.91,-33.73zm76.94 -368.77l-59.13 0 0 -125.84 -401.74 0 0 15.16 75.04 111.43 -69.74 0 -75.04 -110.67 0 -82.62 471.47 0 0 -115.98 59.13 0 0 308.51zm0 -474.51l0 78.83 -87.93 0 0 -78.83 87.93 0zm-472.23 -131.9c-45.99,-35.38 -68.98,-82.63 -68.98,-141.75 0,-59.12 23.12,-106.5 69.36,-142.12 46.24,-35.62 115.09,-53.44 206.55,-53.44 91.47,0 160.19,17.82 206.17,53.44 45.99,35.63 68.98,83.01 68.98,142.12 0,59.13 -22.99,106.38 -68.98,141.75 -45.98,35.37 -114.71,53.06 -206.17,53.06 -91.97,0 -160.95,-17.69 -206.93,-53.06zm365.74 -45.49c38.15,-21.22 57.23,-53.31 57.23,-96.27 0,-42.95 -19.08,-75.17 -57.23,-96.64 -38.16,-21.48 -91.09,-32.22 -158.8,-32.22 -68.22,0 -121.41,10.74 -159.56,32.22 -38.15,21.47 -57.23,53.69 -57.23,96.64 0,42.96 19.08,75.05 57.23,96.27 38.16,21.23 91.35,31.84 159.56,31.84 67.72,0 120.65,-10.61 158.8,-31.84zm-8.72 -864.88l0 -64.43c38.41,7.58 68.85,25.39 91.34,53.44 22.49,28.05 33.73,63.8 33.73,107.26 0,57.61 -18.82,102.97 -56.47,136.07 -37.65,33.1 -85.78,49.65 -144.39,49.65 -59.13,0 -107.39,-16.42 -144.78,-49.27 -37.39,-32.85 -56.09,-78.33 -56.09,-136.45 0,-43.96 10.99,-79.72 32.97,-107.26 21.99,-27.54 51.17,-44.6 87.56,-51.17l0 64.44c-42.96,13.64 -64.44,44.97 -64.44,93.99 0,40.94 13.52,71.38 40.56,91.35 27.03,19.96 61.27,29.94 102.71,29.94 41.94,0 76.81,-10.11 104.61,-30.32 27.79,-20.22 41.69,-50.54 41.69,-90.97 0,-53.56 -22.99,-85.65 -68.98,-96.27zm115.22 -160.69l-382.04 0 0 -102.33 174.34 -94 0 -16.67 -174.34 -94 0 -100.82 382.04 0 0 62.92 -306.99 0 0 16.67 163.72 88.69 0 71.26 -163.72 88.69 0 16.68 306.99 0 0 62.91z"/>
   <path fill="#666666" fill-rule="nonzero" fill-opacity="0.800000" d="M1989.11 14519.35l-59.13 0 0 -125.84 -401.74 0 0 15.16 75.04 111.43 -69.74 0 -75.04 -110.67 0 -82.62 471.47 0 0 -115.98 59.13 0 0 308.51zm-288.04 -677.67l16.68 0c7.07,-20.71 21.85,-39.67 44.34,-56.85 22.49,-17.18 49.9,-25.77 82.25,-25.77 44.47,0 81.36,17.56 110.67,52.68 29.31,35.12 43.96,81.49 43.96,139.1 0,57.61 -14.65,103.98 -43.96,139.1 -29.31,35.12 -66.2,52.68 -110.67,52.68 -31.84,0 -59.13,-8.59 -81.87,-25.77 -22.74,-17.18 -37.65,-36.13 -44.72,-56.85l-16.68 0c-7.08,16.67 -20.47,31.96 -40.18,45.86 -19.71,13.9 -43.46,20.84 -71.25,20.84 -41.95,0 -76.06,-16.42 -102.34,-49.27 -26.27,-32.85 -39.41,-75.04 -39.41,-126.59 0,-51.55 13.14,-93.74 39.41,-126.59 26.28,-32.85 60.39,-49.27 102.34,-49.27 26.78,0 50.28,7.07 70.49,21.22 20.22,14.15 33.86,29.31 40.94,45.48zm-172.44 29.95c-15.42,20.97 -23.12,47.37 -23.12,79.21 0,31.84 7.7,58.24 23.12,79.21 15.41,20.98 36.76,31.46 64.05,31.46 27.29,0 48.77,-10.48 64.43,-31.46 15.67,-20.97 23.5,-47.37 23.5,-79.21 0,-31.84 -7.83,-58.24 -23.5,-79.21 -15.66,-20.98 -37.14,-31.46 -64.43,-31.46 -27.29,0 -48.64,10.48 -64.05,31.46zm383.55 171.3c18.45,-22.49 27.67,-53.19 27.67,-92.1 0,-38.91 -9.22,-69.61 -27.67,-92.1 -18.45,-22.49 -43.08,-33.73 -73.91,-33.73 -31.33,0 -55.84,11.12 -73.53,33.35 -17.68,22.24 -26.53,53.06 -26.53,92.48 0,39.42 8.85,70.24 26.53,92.48 17.69,22.24 42.2,33.35 73.53,33.35 30.83,0 55.46,-11.24 73.91,-33.73zm-280.08 -564.34c0,-51.54 16.93,-92.85 50.79,-123.93 33.85,-31.08 76.05,-46.62 126.59,-46.62 57.1,0 102.96,16.8 137.58,50.41 34.62,33.6 51.92,77.44 51.92,131.51 0,56.1 -14.65,100.19 -43.96,132.28 -29.31,32.09 -67.47,49.65 -114.46,52.68l0 -65.94c32.34,-4.05 56.97,-16.18 73.9,-36.39 16.93,-20.21 25.4,-46.74 25.4,-79.59 0,-35.38 -11.5,-63.93 -34.49,-85.66 -23,-21.73 -53.95,-32.6 -92.86,-32.6 -36.89,0 -66.83,10.49 -89.83,31.46 -22.99,20.97 -34.49,49.15 -34.49,84.52 0,47.51 16.68,82.63 50.03,105.37l0 66.71 -279.7 -23.5 0 -303.21 57.61 0 0 249.39 153.11 12.13 0 -16.68c-24.76,-27.29 -37.14,-61.4 -37.14,-102.34zm357.02 -347.92l0 78.83 -87.93 0 0 -78.83 87.93 0zm-472.23 -131.9c-45.99,-35.38 -68.98,-82.63 -68.98,-141.75 0,-59.12 23.12,-106.5 69.36,-142.12 46.24,-35.62 115.09,-53.44 206.55,-53.44 91.47,0 160.19,17.82 206.17,53.44 45.99,35.63 68.98,83.01 68.98,142.12 0,59.13 -22.99,106.38 -68.98,141.75 -45.98,35.37 -114.71,53.06 -206.17,53.06 -91.97,0 -160.95,-17.69 -206.93,-53.06zm365.74 -45.49c38.15,-21.22 57.23,-53.31 57.23,-96.27 0,-42.95 -19.08,-75.17 -57.23,-96.64 -38.16,-21.48 -91.09,-32.22 -158.8,-32.22 -68.22,0 -121.41,10.74 -159.56,32.22 -38.15,21.47 -57.23,53.69 -57.23,96.64 0,42.96 19.08,75.05 57.23,96.27 38.16,21.23 91.35,31.84 159.56,31.84 67.72,0 120.65,-10.61 158.8,-31.84zm-8.72 -864.88l0 -64.43c38.41,7.58 68.85,25.39 91.34,53.44 22.49,28.05 33.73,63.8 33.73,107.26 0,57.61 -18.82,102.97 -56.47,136.07 -37.65,33.1 -85.78,49.65 -144.39,49.65 -59.13,0 -107.39,-16.42 -144.78,-49.27 -37.39,-32.85 -56.09,-78.33 -56.09,-136.45 0,-43.96 10.99,-79.72 32.97,-107.26 21.99,-27.54 51.17,-44.6 87.56,-51.17l0 64.44c-42.96,13.64 -64.44,44.97 -64.44,93.99 0,40.94 13.52,71.38 40.56,91.35 27.03,19.96 61.27,29.94 102.71,29.94 41.94,0 76.81,-10.11 104.61,-30.32 27.79,-20.22 41.69,-50.54 41.69,-90.97 0,-53.56 -22.99,-85.65 -68.98,-96.27zm115.22 -160.69l-382.04 0 0 -102.33 174.34 -94 0 -16.67 -174.34 -94 0 -100.82 382.04 0 0 62.92 -306.99 0 0 16.67 163.72 88.69 0 71.26 -163.72 88.69 0 16.68 306.99 0 0 62.91z"/>
   <path fill="#666666" fill-rule="nonzero" fill-opacity="0.800000" d="M5543.09 16057.09l0 -59.13 125.84 0 0 -401.74 -15.16 0 -111.43 75.04 0 -69.74 110.67 -75.04 82.62 0 0 471.47 115.98 0 0 59.13 -308.51 0zm677.67 -288.04l0 16.68c20.71,7.07 39.67,21.85 56.85,44.34 17.18,22.49 25.77,49.9 25.77,82.25 0,44.47 -17.56,81.36 -52.68,110.67 -35.12,29.31 -81.49,43.96 -139.1,43.96 -57.61,0 -103.98,-14.65 -139.1,-43.96 -35.12,-29.31 -52.68,-66.2 -52.68,-110.67 0,-31.84 8.59,-59.13 25.77,-81.87 17.18,-22.74 36.13,-37.65 56.85,-44.72l0 -16.68c-16.67,-7.08 -31.96,-20.47 -45.86,-40.18 -13.9,-19.71 -20.84,-43.46 -20.84,-71.25 0,-41.95 16.42,-76.06 49.27,-102.34 32.85,-26.27 75.04,-39.41 126.59,-39.41 51.55,0 93.74,13.14 126.59,39.41 32.85,26.28 49.27,60.39 49.27,102.34 0,26.78 -7.07,50.28 -21.22,70.49 -14.15,20.22 -29.31,33.86 -45.48,40.94zm-29.95 -172.44c-20.97,-15.42 -47.37,-23.12 -79.21,-23.12 -31.84,0 -58.24,7.7 -79.21,23.12 -20.98,15.41 -31.46,36.76 -31.46,64.05 0,27.29 10.48,48.77 31.46,64.43 20.97,15.67 47.37,23.5 79.21,23.5 31.84,0 58.24,-7.83 79.21,-23.5 20.98,-15.66 31.46,-37.14 31.46,-64.43 0,-27.29 -10.48,-48.64 -31.46,-64.05zm-171.3 383.55c22.49,18.45 53.19,27.67 92.1,27.67 38.91,0 69.61,-9.22 92.1,-27.67 22.49,-18.45 33.73,-43.08 33.73,-73.91 0,-31.33 -11.12,-55.84 -33.35,-73.53 -22.24,-17.68 -53.06,-26.53 -92.48,-26.53 -39.42,0 -70.24,8.85 -92.48,26.53 -22.24,17.69 -33.35,42.2 -33.35,73.53 0,30.83 11.24,55.46 33.73,73.91zm418.8 -395.3c35.38,-45.99 82.63,-68.98 141.75,-68.98 59.12,0 106.5,23.12 142.12,69.36 35.62,46.24 53.44,115.09 53.44,206.55 0,91.47 -17.82,160.19 -53.44,206.17 -35.63,45.99 -83.01,68.98 -142.12,68.98 -59.13,0 -106.38,-22.99 -141.75,-68.98 -35.37,-45.98 -53.06,-114.71 -53.06,-206.17 0,-91.97 17.69,-160.95 53.06,-206.93zm45.49 365.74c21.22,38.15 53.31,57.23 96.27,57.23 42.95,0 75.17,-19.08 96.64,-57.23 21.48,-38.16 32.22,-91.09 32.22,-158.8 0,-68.22 -10.74,-121.41 -32.22,-159.56 -21.47,-38.15 -53.69,-57.23 -96.64,-57.23 -42.96,0 -75.05,19.08 -96.27,57.23 -21.23,38.16 -31.84,91.35 -31.84,159.56 0,67.72 10.61,120.65 31.84,158.8zm443.42 106.5l-78.83 0 0 -87.93 78.83 0 0 87.93zm1956.4 -185.71c-48.51,0 -88.94,-16.29 -121.28,-48.89 -32.34,-32.6 -48.51,-73.91 -48.51,-123.94 0,-52.05 16.29,-95.51 48.89,-130.38 32.59,-34.87 76.43,-52.3 131.52,-52.3 60.13,0 107.64,20.72 142.5,62.16 34.87,41.43 52.3,107.64 52.3,198.59 0,85.4 -17.06,155.13 -51.17,209.21 -34.11,54.07 -84.26,81.1 -150.46,81.1 -43.96,0 -79.97,-11.75 -108.02,-35.24 -28.04,-23.5 -45.1,-53.95 -51.16,-91.35l65.95 0c13.14,44.98 44.21,67.47 93.23,67.47 41.95,0 74.8,-16.68 98.55,-50.03 23.75,-33.36 36.64,-79.34 38.66,-137.96l-16.68 0c-11.12,13.64 -27.41,25.64 -48.89,36 -21.48,10.36 -46.62,15.54 -75.43,15.54zm94.76 -263.78c-22.24,-21.73 -50.03,-32.6 -83.39,-32.6 -33.35,0 -60.76,10.62 -82.24,31.84 -21.48,21.23 -32.22,50.79 -32.22,88.69 0,37.9 10.87,66.96 32.6,87.17 21.73,20.22 49.52,30.32 83.38,30.32 33.35,0 60.9,-10.36 82.63,-31.07 21.73,-20.72 32.59,-49.28 32.59,-85.66 0,-37.4 -11.12,-66.96 -33.35,-88.69zm259.23 65.19l-66.7 0c3.03,-51.04 20.84,-89.95 53.44,-116.74 32.59,-26.78 73.65,-40.17 123.18,-40.17 51.54,0 93.11,14.02 124.69,42.07 31.59,28.04 47.38,67.84 47.38,119.39 0,62.66 -39.17,126.59 -117.5,191.77l-133.41 112.19 0 16.67 267.58 0 0 59.13 -364.61 0 0 -75.04 78.08 -63.68c48.51,-38.91 88.69,-73.02 120.53,-102.33 12.13,-10.62 21.85,-19.71 29.18,-27.29 7.33,-7.58 15.67,-17.56 25.02,-29.94 9.35,-12.39 16.42,-25.4 21.22,-39.04 4.8,-13.65 7.2,-27.8 7.2,-42.45 0,-32.85 -9.6,-58.12 -28.8,-75.81 -19.21,-17.68 -45.23,-26.53 -78.08,-26.53 -30.83,0 -55.71,8.21 -74.67,24.64 -18.95,16.42 -30.19,40.81 -33.73,73.15zm1513.74 269.09l64.43 0c-7.58,38.41 -25.39,68.85 -53.44,91.34 -28.05,22.49 -63.8,33.73 -107.26,33.73 -57.61,0 -102.97,-18.82 -136.07,-56.47 -33.1,-37.65 -49.65,-85.78 -49.65,-144.39 0,-59.13 16.42,-107.39 49.27,-144.78 32.85,-37.39 78.33,-56.09 136.45,-56.09 43.96,0 79.72,10.99 107.26,32.97 27.54,21.99 44.6,51.17 51.17,87.56l-64.44 0c-13.64,-42.96 -44.97,-64.44 -93.99,-64.44 -40.94,0 -71.38,13.52 -91.35,40.56 -19.96,27.03 -29.94,61.27 -29.94,102.71 0,41.94 10.11,76.81 30.32,104.61 20.22,27.79 50.54,41.69 90.97,41.69 53.56,0 85.65,-22.99 96.27,-68.98zm160.69 115.22l0 -382.04 102.33 0 94 174.34 16.67 0 94 -174.34 100.82 0 0 382.04 -62.92 0 0 -306.99 -16.67 0 -88.69 163.72 -71.26 0 -88.69 -163.72 -16.68 0 0 306.99 -62.91 0zm-3831.7 -472.23c35.38,-45.99 82.63,-68.98 141.75,-68.98 59.12,0 106.5,23.12 142.12,69.36 35.62,46.24 53.44,115.09 53.44,206.55 0,91.47 -17.82,160.19 -53.44,206.17 -35.63,45.99 -83.01,68.98 -142.12,68.98 -59.13,0 -106.38,-22.99 -141.75,-68.98 -35.37,-45.98 -53.06,-114.71 -53.06,-206.17 0,-91.97 17.69,-160.95 53.06,-206.93zm45.49 365.74c21.22,38.15 53.31,57.23 96.27,57.23 42.95,0 75.17,-19.08 96.64,-57.23 21.48,-38.16 32.22,-91.09 32.22,-158.8 0,-68.22 -10.74,-121.41 -32.22,-159.56 -21.47,-38.15 -53.69,-57.23 -96.64,-57.23 -42.96,0 -75.05,19.08 -96.27,57.23 -21.23,38.16 -31.84,91.35 -31.84,159.56 0,67.72 10.61,120.65 31.84,158.8zm861.84 106.5l-94.75 -159.93 -27.29 0 -97.03 159.93 -70.49 0 119.01 -195.56 -106.88 -186.47 68.22 0 87.93 151.6 27.29 0 89.45 -151.6 67.46 0 -108.4 184.19 118.26 197.84 -72.78 0zm356.26 0l0 -59.13 125.84 0 0 -401.74 -15.16 0 -111.43 75.04 0 -69.74 110.67 -75.04 82.62 0 0 471.47 115.98 0 0 59.13 -308.51 0zm1365.16 0l-78.83 0 0 -87.93 78.83 0 0 87.93zm131.9 -472.23c35.38,-45.99 82.63,-68.98 141.75,-68.98 59.12,0 106.5,23.12 142.12,69.36 35.62,46.24 53.44,115.09 53.44,206.55 0,91.47 -17.82,160.19 -53.44,206.17 -35.63,45.99 -83.01,68.98 -142.12,68.98 -59.13,0 -106.38,-22.99 -141.75,-68.98 -35.37,-45.98 -53.06,-114.71 -53.06,-206.17 0,-91.97 17.69,-160.95 53.06,-206.93zm45.49 365.74c21.22,38.15 53.31,57.23 96.27,57.23 42.95,0 75.17,-19.08 96.64,-57.23 21.48,-38.16 32.22,-91.09 32.22,-158.8 0,-68.22 -10.74,-121.41 -32.22,-159.56 -21.47,-38.15 -53.69,-57.23 -96.64,-57.23 -42.96,0 -75.05,19.08 -96.27,57.23 -21.23,38.16 -31.84,91.35 -31.84,159.56 0,67.72 10.61,120.65 31.84,158.8z"/>
   <path fill="#666666" fill-rule="nonzero" fill-opacity="0.800000" d="M20718.09 7397.52l0 -59.13 125.84 0 0 -401.74 -15.16 0 -111.43 75.04 0 -69.74 110.67 -75.04 82.62 0 0 471.47 115.98 0 0 59.13 -308.51 0zm432.06 -472.23c35.38,-45.99 82.63,-68.98 141.75,-68.98 59.12,0 106.5,23.12 142.12,69.36 35.62,46.24 53.44,115.09 53.44,206.55 0,91.47 -17.82,160.19 -53.44,206.17 -35.63,45.99 -83.01,68.98 -142.12,68.98 -59.13,0 -106.38,-22.99 -141.75,-68.98 -35.37,-45.98 -53.06,-114.71 -53.06,-206.17 0,-91.97 17.69,-160.95 53.06,-206.93zm45.49 365.74c21.22,38.15 53.31,57.23 96.27,57.23 42.95,0 75.17,-19.08 96.64,-57.23 21.48,-38.16 32.22,-91.09 32.22,-158.8 0,-68.22 -10.74,-121.41 -32.22,-159.56 -21.47,-38.15 -53.69,-57.23 -96.64,-57.23 -42.96,0 -75.05,19.08 -96.27,57.23 -21.23,38.16 -31.84,91.35 -31.84,159.56 0,67.72 10.61,120.65 31.84,158.8zm701.14 -349.82l-229.67 456.31 -69.74 0 230.43 -456.31 0 -16.68 -269.09 0 0 -57.61 338.07 0 0 74.29zm177.37 456.31l-78.83 0 0 -87.93 78.83 0 0 87.93zm131.9 -472.23c35.38,-45.99 82.63,-68.98 141.75,-68.98 59.12,0 106.5,23.12 142.12,69.36 35.62,46.24 53.44,115.09 53.44,206.55 0,91.47 -17.82,160.19 -53.44,206.17 -35.63,45.99 -83.01,68.98 -142.12,68.98 -59.13,0 -106.38,-22.99 -141.75,-68.98 -35.37,-45.98 -53.06,-114.71 -53.06,-206.17 0,-91.97 17.69,-160.95 53.06,-206.93zm45.49 365.74c21.22,38.15 53.31,57.23 96.27,57.23 42.95,0 75.17,-19.08 96.64,-57.23 21.48,-38.16 32.22,-91.09 32.22,-158.8 0,-68.22 -10.74,-121.41 -32.22,-159.56 -21.47,-38.15 -53.69,-57.23 -96.64,-57.23 -42.96,0 -75.05,19.08 -96.27,57.23 -21.23,38.16 -31.84,91.35 -31.84,159.56 0,67.72 10.61,120.65 31.84,158.8zm864.88 -8.72l64.43 0c-7.58,38.41 -25.39,68.85 -53.44,91.34 -28.05,22.49 -63.8,33.73 -107.26,33.73 -57.61,0 -102.97,-18.82 -136.07,-56.47 -33.1,-37.65 -49.65,-85.78 -49.65,-144.39 0,-59.13 16.42,-107.39 49.27,-144.78 32.85,-37.39 78.33,-56.09 136.45,-56.09 43.96,0 79.72,10.99 107.26,32.97 27.54,21.99 44.6,51.17 51.17,87.56l-64.44 0c-13.64,-42.96 -44.97,-64.44 -93.99,-64.44 -40.94,0 -71.38,13.52 -91.35,40.56 -19.96,27.03 -29.94,61.27 -29.94,102.71 0,41.94 10.11,76.81 30.32,104.61 20.22,27.79 50.54,41.69 90.97,41.69 53.56,0 85.65,-22.99 96.27,-68.98zm160.69 115.22l0 -382.04 102.33 0 94 174.34 16.67 0 94 -174.34 100.82 0 0 382.04 -62.92 0 0 -306.99 -16.67 0 -88.69 163.72 -71.26 0 -88.69 -163.72 -16.68 0 0 306.99 -62.91 0z"/>
   <g>
    <line fill="none" stroke="gray" stroke-width="10.58" stroke-miterlimit="22.9256" x1="19802.6" y1="6851.66" x2="19802.6" y2= "5736.05" />
    <line fill="none" stroke="gray" stroke-width="10.58" stroke-miterlimit="22.9256" x1="25047.9" y1="6430.71" x2="19354.39" y2= "6430.71" />
    <line fill="none" stroke="gray" stroke-width="10.58" stroke-miterlimit="22.9256" x1="24589.33" y1="6848.94" x2="24589.33" y2= "5736.05" />
   </g>
   <g>
    <line fill="none" stroke="gray" stroke-width="10.58" stroke-miterlimit="22.9256" x1="2008.73" y1="5281.37" x2="3121.62" y2= "5281.37" />
    <line fill="none" stroke="gray" stroke-width="10.58" stroke-miterlimit="22.9256" x1="2006.01" y1="1115.94" x2="3121.62" y2= "1115.94" />
    <line fill="none" stroke="gray" stroke-width="10.58" stroke-miterlimit="22.9256" x1="2418.12" y1="5732.52" x2="2422.44" y2= "661.64" />
   </g>
   <g>
    <line fill="none" stroke="gray" stroke-width="10.58" stroke-miterlimit="22.9256" x1="2006.01" y1="8768.83" x2="3121.62" y2= "8768.83" />
    <line fill="none" stroke="gray" stroke-width="10.58" stroke-miterlimit="22.9256" x1="2008.73" y1="17194.77" x2="3121.62" y2= "17194.77" />
    <line fill="none" stroke="gray" stroke-width="10.58" stroke-miterlimit="22.9256" x1="2428.1" y1="17653.87" x2="2423.43" y2= "8320.62" />
   </g>
   <g>
    <line fill="none" stroke="gray" stroke-width="10.58" stroke-miterlimit="22.9256" x1="3344.41" y1="19774.43" x2="3344.41" y2= "18658.82" />
    <line fill="none" stroke="gray" stroke-width="10.58" stroke-miterlimit="22.9256" x1="18075.6" y1="19354.32" x2="2876.78" y2= "19353.52" />
    <line fill="none" stroke="gray" stroke-width="10.58" stroke-miterlimit="22.9256" x1="17625.69" y1="19771.71" x2="17625.69" y2= "18658.82" />
   </g>
  </g>
  <rect fill="none" width="29698.94" height="20999.25"/>
 </g>
</svg>
