<?xml version="1.0" encoding="UTF-8"?>
<!DOCTYPE svg PUBLIC "-//W3C//DTD SVG 1.1//EN" "http://www.w3.org/Graphics/SVG/1.1/DTD/svg11.dtd">
<!-- Creator: CorelDRAW 2021.5 -->
<svg xmlns="http://www.w3.org/2000/svg" xml:space="preserve" width="297mm" height="210mm" version="1.1" shape-rendering="geometricPrecision" text-rendering="geometricPrecision" image-rendering="optimizeQuality" fill-rule="evenodd" clip-rule="evenodd"
viewBox="0 0 29698.94 20999.25"
 xmlns:xlink="http://www.w3.org/1999/xlink"
 xmlns:xodm="http://www.corel.com/coreldraw/odm/2003">
 <g id="Тени">
  <metadata id="CorelCorpID_0Corel-Layer"/>
  <rect fill="none" width="29698.94" height="20999.25"/>
  <g id="_2238817430448">
   <path fill="black" fill-opacity="0.101961" d="M10430.74 11023.34c48.5,-841 316.84,-1085.26 602.7,-1100.47 30.44,-1.63 63.44,-3.03 98.45,-4.24 -239.98,-49.59 -442.9,-112.56 -569.52,-175.05 -142.77,-70.44 -186.84,-266.38 -174.53,-341.37l21.29 -423.73c4.45,-88.41 135.01,-184.04 72.96,-174.47l-113.77 17.57 -16.71 112.65 0 3526.49c37.28,-954.64 31.76,-615.63 79.14,-1437.37zm2508.15 -1073.42c169.92,10.21 288.91,21.6 320.22,32.89 301.98,108.83 513.37,282.95 561.27,1087.76 21.73,365.3 79.44,1390.14 79.44,1390.14 0,-1888.9 7.78,-3039.1 10.32,-3054.58l-10.32 -418.14c-1.54,-62.92 -1.81,-122.66 -24.55,-169.14l-155.85 -0.67c56.95,8.05 99.6,77.22 102.38,160.29l14.19 423.73c0.49,14.38 1.03,47.74 -1.32,60.92l-2.32 28.25c-5.63,80.07 0.88,147.69 -142.87,242.1 -141.29,92.8 -420.12,167.36 -750.57,216.44z"/>
   <path fill="black" fill-opacity="0.101961" d="M10881.63 1711.95c559.88,63.71 732.72,188.15 1180.73,194.95 477.5,7.24 613.54,-97.47 1356.32,-208.99 -417.68,8.81 -826.33,31.25 -1244.01,40.08l-1293.04 -26.04z"/>
   <polygon fill="black" fill-opacity="0.101961" points="10358.54,3944.34 10381.82,3816.41 10495.91,3802.03 10499.88,4711.13 13780.93,4711.13 13786.84,3802.03 13876.15,3795.65 13920.23,3883.8 13921.48,4711.13 13928.15,4711.13 13928.15,4923.31 13921.79,4923.31 13922.98,5705.57 13774.48,5705.57 13779.57,4923.31 10500.82,4923.31 10504.3,5718.05 10355.79,5718.05 "/>
   <path fill="black" fill-opacity="0.101961" d="M10819.06 3744.05c738.47,-125.2 759.46,-202.69 1302.73,-203.64 477.49,-0.84 522.93,94.79 1231.9,175.55 -417.68,-7.29 -828.96,-8.41 -1246.64,-15.72l-1287.99 43.81z"/>
   <polygon fill="black" fill-opacity="0.101961" points="17363.52,2904 19560.5,2904 19594.23,3032.98 17429.94,3032.98 17359.15,3094.01 17363.52,3032.98 "/>
   <g>
    <rect fill="none" stroke="#2B2A29" stroke-width="10.58" stroke-miterlimit="22.9256" x="21946.34" y="5702.98" width="169.12" height="147.51"/>
    <rect fill="none" stroke="#2B2A29" stroke-width="10.58" stroke-miterlimit="22.9256" x="17553.05" y="5701.29" width="169.12" height="147.51"/>
    <path fill="none" stroke="#2B2A29" stroke-width="10.58" stroke-miterlimit="22.9256" d="M17364.78 3138.01l0 2538.52c0,10.57 8.65,19.23 19.24,19.23l4945.47 0c10.58,0 19.23,-8.66 19.23,-19.23l0 -2412.08c0,-133.74 -109.4,-243.13 -243.12,-243.13l-4624.11 0c-64.19,0 -116.71,52.51 -116.71,116.7z"/>
    <path fill="none" stroke="#2B2A29" stroke-width="10.58" stroke-miterlimit="22.9256" d="M22363.27 3826.51c0,0 97.55,17.92 97.55,116.13 0,98.22 6.15,392.41 4.23,441.42 -1.92,49.03 -8.56,208.13 -101.11,208.13"/>
    <path fill="none" stroke="black" stroke-width="10.58" stroke-miterlimit="22.9256" d="M18628.3 3021.3l-290.21 -1051.94c-27.22,-98.68 -70.93,-195.93 70.94,-218.37l418.71 -66.22c37.63,-5.96 140.32,-21.05 182.92,133.41l330.38 1197.49"/>
    <path fill="none" stroke="black" stroke-width="10.58" stroke-miterlimit="22.9256" d="M18362.23 1763.54c-100.58,19.94 -164.58,131.38 -167.96,242.46 -4.74,156.06 227.38,987.13 237.81,1015.3"/>
    <path fill="none" stroke="black" stroke-width="10.58" stroke-miterlimit="22.9256" d="M18858.54 1681.47c184.24,-27.65 339.63,280.67 369.47,338.83 159.44,310.69 362.58,938.22 379.99,1001"/>
    <path fill="none" stroke="black" stroke-width="10.58" stroke-miterlimit="22.9256" d="M17476.12 2094.53c-128.44,12.37 -127.45,233.49 -115.57,562.15 3.46,95.83 4.28,402.67 3.79,772.77"/>
    <path fill="none" stroke="black" stroke-width="10.58" stroke-miterlimit="22.9256" d="M18088.5 2094.53c57.55,5.55 97.78,13.97 125.59,119.82 72.89,277.25 200.62,704.56 200.8,812.15"/>
    <line fill="none" stroke="black" stroke-width="10.58" stroke-miterlimit="22.9256" x1="17476.12" y1="2094.53" x2="18088.5" y2= "2094.53" />
   </g>
   <g>
    <path fill="none" stroke="black" stroke-width="10.58" stroke-miterlimit="22.9256" d="M14899.31 2933.74l-805.58 0c-17.72,0 -40.98,6.11 -57.08,10.26 -101.25,22.34 -120.43,154.43 -108.23,397.45 10.5,209.24 -2.95,1777.09 -2.95,1897.13 0,297.76 17.69,427.41 106.63,452 21.41,8.45 25.8,12.16 61.63,12.16l805.58 0c34.62,0 38.08,-5.24 59.55,-10.46 88.93,-24.49 106.63,-153.45 106.63,-449.69 0,-119.43 -13.44,-1679.15 -2.94,-1887.31 12.2,-241.75 -14.16,-392.33 -115.42,-414.56 -17.14,-5.55 -28.11,-6.98 -47.82,-6.98z"/>
    <path fill="none" stroke="black" stroke-width="10.58" stroke-miterlimit="22.9256" d="M10422 3802.03c1175.75,0 2246.75,0 3422.54,0 45.47,0 76.82,45.37 76.82,100.69l0 704.83c0,55.4 -16.04,100.71 -35.63,100.71l-3492.36 0c-19.6,0 -35.63,-45.31 -35.63,-100.71l0 -704.83c0,-55.36 25.99,-100.69 64.26,-100.69z"/>
    <rect fill="none" stroke="black" stroke-width="10.58" stroke-miterlimit="22.9256" x="10357.91" y="4711.14" width="3567.63" height="1006.91" rx="20.77" ry="50.35"/>
    <rect fill="none" stroke="black" stroke-width="10.58" stroke-miterlimit="22.9256" x="9308.6" y="5706.77" width="915.08" height="151.04"/>
    <rect fill="none" stroke="black" stroke-width="10.58" stroke-miterlimit="22.9256" x="14034.94" y="5700.15" width="914.86" height="151.04"/>
    <path fill="none" stroke="black" stroke-width="10.58" stroke-miterlimit="22.9256" d="M10348.03 3229.79l-3.5 -1017.57c-0.62,-58.66 4.08,-91.49 15.18,-109.26 3.79,-6.03 14.69,-13.65 25.57,-15.65m3509 5.14c33.87,14.85 35.33,66.12 32.01,137.91l0.68 1118.62"/>
    <path fill="none" stroke="black" stroke-width="10.58" stroke-miterlimit="22.9256" d="M10562.85 1695.36c522.43,0 986.66,28.3 1509.1,28.3 529.49,0 1138.85,-27.54 1668.34,-27.54 96.43,0 147.22,41.13 147.22,167.1 0,217.49 -25.35,627.44 -25.35,844.93 0,305.03 29.37,536 29.37,841.02 0,125.98 -28.06,174.67 -124.48,174.67 -557.72,0 -1157,-23.67 -1714.69,-23.67 -528.63,0 -1072.97,50.51 -1588.56,50.51 -96.44,0 -76.28,-132.79 -76.28,-258.76 0,-263.56 23.68,-493.22 23.68,-756.78 0,-258.96 -23.68,-648.01 -23.68,-906.96 0,-126.01 78.9,-132.83 175.32,-132.83z"/>
    <path fill="none" stroke="black" stroke-width="10.58" stroke-miterlimit="22.9256" d="M10189.24 2931l-805.57 0c-17.73,0 -40.99,6.11 -57.09,10.26 -101.25,22.34 -120.43,154.42 -108.23,397.45 10.5,209.23 -2.94,1777.08 -2.94,1897.13 0,297.75 17.68,427.41 106.63,452 21.4,8.45 25.79,12.15 61.63,12.15l805.57 0c34.63,0 38.08,-5.24 59.56,-10.46 88.92,-24.48 106.63,-153.44 106.63,-449.68 0,-119.43 -13.45,-1679.15 -2.95,-1887.32 12.2,-241.74 -14.16,-392.32 -115.41,-414.55 -17.15,-5.55 -28.12,-6.98 -47.83,-6.98z"/>
   </g>
   <g>
    <path fill="none" stroke="black" stroke-width="10.58" stroke-miterlimit="22.9256" d="M14004.59 12596.2c-84.19,-43.06 -101.02,-262.99 -101.02,-768.19 0,-203.65 12.83,-2863.57 2.79,-3218.56 -11.56,-412.29 6.67,-636.41 102.87,-674.66 95.35,-52.2 859.49,-47.35 943.9,-2.61 97.02,35.12 122.1,290.59 110.51,700.68 -10,353.19 2.77,2999.36 2.77,3201.99 0,502.54 -16.81,721.38 -101.72,761.73 -86.66,46.09 -882.66,35.31 -960.1,-0.39z"/>
    <path fill="none" stroke="black" stroke-width="10.58" stroke-miterlimit="22.9256" d="M13939.99 8027.06c-11.88,-132.36 -297,-128.34 -540.61,-124.49 -271.48,10.59 -2305.47,-2.99 -2461.21,-2.99 -284.75,0.47 -580.08,-16.06 -597.05,140.02"/>
    <path fill="none" stroke="black" stroke-width="10.58" stroke-miterlimit="22.9256" d="M10268.39 12600.93c84.19,-43.2 101.02,-263.77 101.02,-770.46 0,-204.26 -12.83,-2872.02 -2.79,-3228.05 11.55,-413.5 -6.67,-638.29 -102.88,-676.65 -95.34,-52.35 -859.49,-47.49 -943.9,-2.62 -97.02,35.23 -122.09,291.45 -110.5,702.75 10,354.23 -2.77,3008.21 -2.77,3211.44 0,504.02 16.81,723.51 101.72,763.97 86.66,46.23 882.66,35.42 960.1,-0.38z"/>
    <rect fill="none" stroke="black" stroke-width="10.58" stroke-miterlimit="22.9256" x="10365.83" y="8804" width="3533.98" height="3920.28" rx="29.12" ry="81.68"/>
    <path fill="none" stroke="black" stroke-width="10.58" stroke-miterlimit="22.9256" d="M13835.27 9445.33c-5.62,80.06 -0.98,195.34 -144.74,289.77 -255.2,167.63 -958.84,275.77 -1605.52,281.55 -598.25,5.36 -1243.7,-134.3 -1521.59,-271.44 -142.78,-70.45 -186.84,-266.4 -174.53,-341.39"/>
    <path fill="none" stroke="black" stroke-width="10.58" stroke-miterlimit="22.9256" d="M10528.36 8808.67l3185.6 0c62.45,0 110.58,72.68 113.54,161.1l14.2 423.73c2.96,88.45 -51.17,157.06 -113.55,161.1 -575.22,45.83 -1047.9,46.22 -1674.99,57.95 -611.71,11.45 -984.23,-12.48 -1546.08,-57.95 -62.38,-4.04 -117.99,-72.71 -113.55,-161.1l21.29 -423.73c4.45,-88.4 51.1,-161.1 113.55,-161.1z"/>
    <polyline fill="none" stroke="black" stroke-width="10.58" stroke-miterlimit="22.9256" stroke-dasharray="52.898112 52.898112" points="10364.89,12679.66 10362.77,17782.69 13897.45,17782.69 13899.81,12652.05 "/>
   </g>
   <path fill="#666666" fill-rule="nonzero" fill-opacity="0.800000" d="M17833.22 8217.7l0 17.3c23.6,11.01 42.61,28.32 57.03,51.92 14.42,23.6 21.63,49.55 21.63,77.87 0,47.2 -16.26,85.35 -48.77,114.45 -32.51,29.11 -79.71,43.66 -141.58,43.66l-250.92 0 0 -561.62 244.63 0c57.16,0 101.34,13.5 132.54,40.51 31.2,27.01 46.8,60.96 46.8,101.87 0,54.01 -20.45,92.03 -61.35,114.06zm-291.82 -193.5l0 175.4 172.25 0c72.9,0 109.34,-29.89 109.34,-89.67 0,-29.37 -10.49,-51 -31.46,-64.9 -20.98,-13.89 -47.46,-20.84 -79.45,-20.84l-170.68 0zm0 435.76l175.4 0c36.18,0 65.81,-7.73 88.89,-23.2 23.07,-15.47 34.61,-41.3 34.61,-77.48 0,-34.09 -11.41,-58.87 -34.22,-74.34 -22.81,-15.47 -52.31,-23.2 -88.49,-23.2l-176.19 0 0 198.21zm473.51 -333.51l66.86 0 0 132.15 109.34 0c47.72,0 84.56,11.54 110.52,34.61 25.96,23.07 38.94,55.32 38.94,96.75 0,41.96 -12.98,74.6 -38.94,97.94 -25.96,23.33 -62.8,35 -110.52,35l-176.19 0 0 -396.44zm66.86 188.77l0 149.45 99.9 0c33.04,0 56.64,-6.29 70.8,-18.88 14.16,-12.58 21.24,-31.2 21.24,-55.85 0,-24.64 -7.08,-43.26 -21.24,-55.85 -14.16,-12.58 -37.76,-18.88 -70.8,-18.88l-99.9 0zm322.5 -188.77l66.87 0 0 396.44 -66.87 0 0 -396.44zm464.09 276.88l66.86 0c-7.87,39.85 -26.35,71.45 -55.46,94.78 -29.1,23.34 -66.2,35.01 -111.3,35.01 -59.79,0 -106.85,-19.54 -141.19,-58.61 -34.35,-39.06 -51.52,-89.01 -51.52,-149.84 0,-61.35 17.04,-111.43 51.13,-150.23 34.08,-38.8 81.28,-58.21 141.58,-58.21 45.62,0 82.72,11.41 111.3,34.22 28.58,22.81 46.28,53.1 53.1,90.85l-66.86 0c-14.16,-44.57 -46.68,-66.86 -97.54,-66.86 -42.48,0 -74.08,14.03 -94.79,42.09 -20.71,28.05 -31.07,63.58 -31.07,106.58 0,43.53 10.49,79.71 31.46,108.55 20.98,28.85 52.44,43.27 94.4,43.27 55.58,0 88.88,-23.86 99.9,-71.58zm194.68 -228.11c34.87,-39.33 82.46,-59 142.76,-59 60.3,0 107.89,19.67 142.76,59 34.87,39.33 52.31,89.15 52.31,149.44 0,60.31 -17.44,110.13 -52.31,149.45 -34.88,39.33 -82.47,59 -142.76,59 -60.31,0 -107.9,-19.67 -142.76,-59 -34.88,-39.33 -52.31,-89.15 -52.31,-149.45 0,-60.3 17.43,-110.12 52.31,-149.44zm47.59 256.03c22.02,29.1 53.75,43.66 95.18,43.66 41.42,0 73.15,-14.56 95.18,-43.66 22.02,-29.1 33.03,-64.63 33.03,-106.59 0,-41.95 -11.01,-77.48 -33.03,-106.58 -22.03,-29.11 -53.76,-43.66 -95.18,-43.66 -41.43,0 -73.16,14.55 -95.18,43.66 -22.03,29.1 -33.04,64.63 -33.04,106.58 0,41.96 11.01,77.49 33.04,106.59zm346.1 -246.59l0 -58.21 341.38 0 0 58.21 -136.87 0 0 338.23 -66.86 0 0 -338.23 -137.66 0zm681.97 338.23l0 -41.69 -17.3 0c-27.27,34.61 -68.44,51.92 -123.5,51.92 -43.53,0 -78.14,-12.59 -103.83,-37.76 -25.7,-25.17 -38.55,-55.59 -38.55,-91.25 0,-36.18 12.59,-67.12 37.76,-92.82 25.17,-25.69 63.19,-38.54 114.06,-38.54l129 0 0 -15.73c0,-25.18 -7.86,-45.23 -23.59,-60.18 -15.74,-14.95 -40.12,-22.42 -73.16,-22.42 -57.68,0 -88.36,19.14 -92.03,57.42l-66.86 0c2.62,-36.18 18.22,-64.5 46.8,-84.95 28.58,-20.45 65.42,-30.68 110.52,-30.68 50.87,0 90.85,11.8 119.96,35.4 29.1,23.6 43.65,57.42 43.65,101.47l0 269.8 -62.93 0zm-124.28 -47.98c33.04,0 61.62,-10.88 85.74,-32.65 24.12,-21.76 36.18,-48.37 36.18,-79.84l0 -36.18 -118.77 0c-63.46,0 -95.18,25.17 -95.18,75.51 0,22.55 7.99,40.38 23.99,53.49 15.99,13.11 38.67,19.67 68.04,19.67zm-2282.67 787.44l66.86 0c-7.87,39.85 -26.35,71.45 -55.46,94.78 -29.1,23.34 -66.2,35.01 -111.3,35.01 -59.79,0 -106.85,-19.54 -141.19,-58.61 -34.35,-39.06 -51.52,-89.01 -51.52,-149.84 0,-61.35 17.04,-111.43 51.13,-150.23 34.08,-38.8 81.28,-58.21 141.58,-58.21 45.62,0 82.72,11.41 111.3,34.22 28.58,22.81 46.28,53.1 53.1,90.85l-66.86 0c-14.16,-44.57 -46.68,-66.86 -97.54,-66.86 -42.48,0 -74.08,14.03 -94.79,42.09 -20.71,28.05 -31.07,63.58 -31.07,106.58 0,43.53 10.49,79.71 31.46,108.55 20.98,28.85 52.44,43.27 94.4,43.27 55.58,0 88.88,-23.86 99.9,-71.58zm261.15 119.56l-94.4 0 0 -396.44 65.29 0 0 306.77 17.31 0 173.83 -306.77 97.54 0 0 396.44 -65.29 0 0 -306.77 -17.31 0 -176.97 306.77zm741.74 -58.21l73.15 0 0 170.69 -65.28 0 0 -112.49 -342.96 0 0 112.49 -65.28 0 0 -170.69 52.7 0c32.51,-69.22 48.77,-145.77 48.77,-229.68l0 -108.55 298.9 0 0 338.23zm-66.86 0l0 -280.02 -169.9 0 0 50.34c0,89.67 -14.42,166.23 -43.26,229.68l213.16 0zm570.27 -163.6l0 22.81 -302.05 0c1.05,47.72 12.33,84.82 33.83,111.3 21.5,26.49 52.44,39.73 92.82,39.73 54.53,0 88.1,-20.46 100.68,-61.36l67.65 0c-6.82,35.66 -24.78,64.5 -53.88,86.53 -29.11,22.02 -67.26,33.04 -114.45,33.04 -60.31,0 -107.51,-19.67 -141.58,-59 -34.09,-39.33 -51.13,-90.46 -51.13,-153.38 0,-61.88 17.04,-111.44 51.13,-148.66 34.08,-37.23 80.76,-55.85 140.01,-55.85 56.11,0 99.38,17.7 129.79,53.1 30.42,35.4 46.15,79.32 47.2,131.76zm-178.55 -126.65c-34.09,0 -61.36,8.79 -81.81,26.35 -20.45,17.57 -33.03,39.99 -37.75,67.26l228.89 0c-2.1,-26.75 -12.85,-49.03 -32.25,-66.86 -19.41,-17.83 -45.1,-26.75 -77.09,-26.75zm635.56 348.46l-66.86 0 0 -174.62 -219.46 0 0 174.62 -66.86 0 0 -396.44 66.86 0 0 163.6 219.46 0 0 -163.6 66.86 0 0 396.44zm685.9 -396.44l197.43 0 0 396.44 -67.65 0 0 -156.53 -120.35 0c-10.49,0 -18.62,-0.26 -24.39,-0.78l-59.78 157.31 -70.01 0 66.87 -172.26c-40.91,-19.4 -61.36,-54.01 -61.36,-103.83 0,-38.28 11.93,-67.91 35.79,-88.89 23.86,-20.97 58.34,-31.46 103.44,-31.46zm129.79 56.63l-122.71 0c-28.84,0 -49.3,5.51 -61.36,16.52 -12.06,11.02 -18.09,27.01 -18.09,47.99 0,20.45 6.03,35.92 18.09,46.41 12.06,10.48 32.52,15.73 61.36,15.73l122.71 0 0 -126.65zm-2040.39 1198.83l-81.81 0 0 -91.25 81.81 0 0 91.25zm136.87 -490.04c36.7,-47.72 85.74,-71.58 147.08,-71.58 61.36,0 110.52,23.99 147.48,71.98 36.97,47.98 55.46,119.43 55.46,214.34 0,94.91 -18.49,166.22 -55.46,213.94 -36.97,47.73 -86.13,71.59 -147.48,71.59 -61.35,0 -110.39,-23.86 -147.08,-71.59 -36.71,-47.72 -55.07,-119.04 -55.07,-213.94 0,-95.45 18.36,-167.02 55.07,-214.74zm47.19 379.53c22.03,39.59 55.33,59.39 99.9,59.39 44.58,0 78.01,-19.8 100.3,-59.39 22.28,-39.59 33.43,-94.52 33.43,-164.78 0,-70.8 -11.15,-125.99 -33.43,-165.57 -22.29,-39.6 -55.72,-59.39 -100.3,-59.39 -44.57,0 -77.87,19.79 -99.9,59.39 -22.02,39.59 -33.03,94.78 -33.03,165.57 0,70.27 11.01,125.2 33.03,164.78zm897.5 -9.04l66.86 0c-7.87,39.85 -26.35,71.45 -55.46,94.78 -29.1,23.34 -66.2,35.01 -111.3,35.01 -59.79,0 -106.85,-19.54 -141.19,-58.61 -34.35,-39.06 -51.52,-89.01 -51.52,-149.84 0,-61.35 17.04,-111.43 51.13,-150.23 34.08,-38.8 81.28,-58.21 141.58,-58.21 45.62,0 82.72,11.41 111.3,34.22 28.58,22.81 46.28,53.1 53.1,90.85l-66.86 0c-14.16,-44.57 -46.68,-66.86 -97.54,-66.86 -42.48,0 -74.08,14.03 -94.79,42.09 -20.71,28.05 -31.07,63.58 -31.07,106.58 0,43.53 10.49,79.71 31.46,108.55 20.98,28.85 52.44,43.27 94.4,43.27 55.58,0 88.88,-23.86 99.9,-71.58zm166.75 119.56l0 -396.44 106.19 0 97.54 180.91 17.31 0 97.54 -180.91 104.62 0 0 396.44 -65.29 0 0 -318.57 -17.31 0 -92.03 169.9 -73.94 0 -92.03 -169.9 -17.31 0 0 318.57 -65.29 0zm172.25 -1255.46l0 132.15 117.21 0c47.72,0 84.56,11.54 110.52,34.61 25.96,23.07 38.93,55.32 38.93,96.75 0,41.96 -12.97,74.6 -38.93,97.94 -25.96,23.33 -62.8,35 -110.52,35l-184.06 0 0 -396.44 66.86 0zm0 338.23l107.77 0c33.04,0 56.64,-6.29 70.79,-18.88 14.16,-12.58 21.24,-31.2 21.24,-55.85 0,-24.64 -7.08,-43.26 -21.24,-55.85 -14.15,-12.58 -37.75,-18.88 -70.79,-18.88l-107.77 0 0 149.45zm893.56 58.21l-81.81 0 0 -91.25 81.81 0 0 91.25zm0 -305.19l-81.81 0 0 -91.25 81.81 0 0 91.25zm-3014.97 973.86l75.52 0 0 61.36 -75.52 0 0 129 -67.65 0 0 -129 -272.15 0 0 -78.67 243.05 -342.95 96.75 0 0 360.26zm-267.43 0l200.57 0 0 -282.38 -17.3 0 -183.27 265.07 0 17.31zm440.48 -360.26l321.72 0 0 77.09 -137.66 117.99 0 16.52c48.77,1.05 88.23,16.26 118.38,45.62 30.16,29.37 45.23,70.01 45.23,121.93 0,56.11 -18.09,100.42 -54.27,132.94 -36.19,32.51 -82.86,48.77 -140.02,48.77 -55.06,0 -100.16,-15.47 -135.3,-46.41 -35.13,-30.94 -54.27,-70.27 -57.42,-118l69.22 0c3.15,30.94 16.13,55.85 38.94,74.73 22.81,18.88 51,28.32 84.56,28.32 38.28,0 68.7,-10.75 91.25,-32.25 22.55,-21.5 33.82,-50.87 33.82,-88.1 0,-36.71 -10.75,-65.42 -32.25,-86.13 -21.5,-20.72 -52.18,-31.08 -92.03,-31.08 -19.41,0 -35.4,1.58 -47.99,4.72l0 -73.15 134.51 -116.42 0 -17.3 -240.69 0 0 -59.79z"/>
   <path fill="#666666" fill-rule="nonzero" fill-opacity="0.800000" d="M10637.84 19800.16l0 -61.36 130.58 0 0 -416.89 -15.73 0 -115.64 77.88 0 -72.37 114.85 -77.88 85.74 0 0 489.25 120.35 0 0 61.36 -320.14 0zm396.44 0l0 -61.36 130.58 0 0 -416.89 -15.73 0 -115.64 77.88 0 -72.37 114.85 -77.88 85.74 0 0 489.25 120.35 0 0 61.36 -320.14 0zm599.38 -370.48c53.48,0 96.36,17.56 128.61,52.7 32.25,35.13 48.37,78.92 48.37,131.36 0,59.26 -17.43,106.85 -52.31,142.76 -34.87,35.93 -80.36,53.89 -136.47,53.89 -58.21,0 -103.97,-15.21 -137.27,-45.63 -33.3,-30.41 -51.52,-70.01 -54.67,-118.78l68.44 0c4.19,33.57 16.78,59.13 37.76,76.7 20.97,17.57 48.5,26.35 82.59,26.35 36.71,0 66.34,-11.93 88.89,-35.79 22.55,-23.86 33.82,-55.98 33.82,-96.36 0,-38.28 -10.88,-69.35 -32.64,-93.21 -21.77,-23.86 -51,-35.79 -87.71,-35.79 -49.29,0 -85.74,17.3 -109.34,51.91l-69.22 0 24.38 -290.25 314.64 0 0 59.79 -258.79 0 -12.58 158.88 17.3 0c28.32,-25.7 63.72,-38.54 106.2,-38.54zm361.04 370.48l-81.81 0 0 -91.25 81.81 0 0 91.25zm136.87 -490.04c36.7,-47.72 85.74,-71.58 147.08,-71.58 61.36,0 110.52,23.99 147.48,71.98 36.97,47.98 55.46,119.43 55.46,214.34 0,94.91 -18.49,166.22 -55.46,213.94 -36.97,47.73 -86.13,71.59 -147.48,71.59 -61.35,0 -110.39,-23.86 -147.08,-71.59 -36.71,-47.72 -55.07,-119.04 -55.07,-213.94 0,-95.45 18.36,-167.02 55.07,-214.74zm47.19 379.53c22.03,39.59 55.33,59.39 99.9,59.39 44.58,0 78.01,-19.8 100.3,-59.39 22.28,-39.59 33.43,-94.52 33.43,-164.78 0,-70.8 -11.15,-125.99 -33.43,-165.57 -22.29,-39.6 -55.72,-59.39 -100.3,-59.39 -44.57,0 -77.87,19.79 -99.9,59.39 -22.02,39.59 -33.03,94.78 -33.03,165.57 0,70.27 11.01,125.2 33.03,164.78zm897.5 -9.04l66.86 0c-7.87,39.85 -26.35,71.45 -55.46,94.78 -29.1,23.34 -66.2,35.01 -111.3,35.01 -59.79,0 -106.85,-19.54 -141.19,-58.61 -34.35,-39.06 -51.52,-89.01 -51.52,-149.84 0,-61.35 17.04,-111.43 51.13,-150.23 34.08,-38.8 81.28,-58.21 141.58,-58.21 45.62,0 82.72,11.41 111.3,34.22 28.58,22.81 46.28,53.1 53.1,90.85l-66.86 0c-14.16,-44.57 -46.68,-66.86 -97.54,-66.86 -42.48,0 -74.08,14.03 -94.79,42.09 -20.71,28.05 -31.07,63.58 -31.07,106.58 0,43.53 10.49,79.71 31.46,108.55 20.98,28.85 52.44,43.27 94.4,43.27 55.58,0 88.88,-23.86 99.9,-71.58zm166.75 119.56l0 -396.44 106.19 0 97.54 180.91 17.31 0 97.54 -180.91 104.62 0 0 396.44 -65.29 0 0 -318.57 -17.31 0 -92.03 169.9 -73.94 0 -92.03 -169.9 -17.31 0 0 318.57 -65.29 0z"/>
   <path fill="#666666" fill-rule="nonzero" fill-opacity="0.800000" d="M7496.23 4654.02l17.3 0c7.35,-21.5 22.68,-41.16 46.02,-58.99 23.34,-17.83 51.79,-26.75 85.35,-26.75 46.15,0 84.43,18.22 114.84,54.67 30.42,36.45 45.63,84.56 45.63,144.33 0,59.79 -15.21,107.9 -45.63,144.34 -30.41,36.44 -68.69,54.67 -114.84,54.67 -33.04,0 -61.36,-8.92 -84.96,-26.75 -23.59,-17.83 -39.06,-37.49 -46.41,-58.99l-17.3 0c-7.34,17.3 -21.24,33.16 -41.69,47.59 -20.45,14.42 -45.1,21.63 -73.94,21.63 -43.53,0 -78.93,-17.05 -106.2,-51.13 -27.26,-34.09 -40.9,-77.88 -40.9,-131.37 0,-53.49 13.64,-97.27 40.9,-131.36 27.27,-34.09 62.67,-51.13 106.2,-51.13 27.79,0 52.17,7.34 73.15,22.03 20.98,14.68 35.14,30.41 42.48,47.19zm-178.95 31.07c-15.99,21.77 -23.99,49.17 -23.99,82.2 0,33.04 8,60.44 23.99,82.2 16,21.77 38.16,32.65 66.47,32.65 28.32,0 50.61,-10.88 66.86,-32.65 16.26,-21.76 24.39,-49.16 24.39,-82.2 0,-33.03 -8.13,-60.43 -24.39,-82.2 -16.25,-21.76 -38.54,-32.64 -66.86,-32.64 -28.31,0 -50.47,10.88 -66.47,32.64zm398.02 177.77c19.14,-23.34 28.71,-55.2 28.71,-95.58 0,-40.38 -9.57,-72.23 -28.71,-95.57 -19.14,-23.34 -44.71,-35 -76.7,-35 -32.51,0 -57.94,11.53 -76.3,34.61 -18.35,23.07 -27.53,55.06 -27.53,95.96 0,40.91 9.18,72.9 27.53,95.97 18.36,23.07 43.79,34.61 76.3,34.61 31.99,0 57.56,-11.67 76.7,-35zm-39.72 -1956.63l0 -66.86c39.85,7.87 71.45,26.35 94.78,55.46 23.34,29.1 35.01,66.2 35.01,111.3 0,59.79 -19.54,106.85 -58.61,141.19 -39.06,34.35 -89.01,51.52 -149.84,51.52 -61.35,0 -111.43,-17.04 -150.23,-51.13 -38.8,-34.08 -58.21,-81.28 -58.21,-141.58 0,-45.62 11.41,-82.72 34.22,-111.3 22.81,-28.58 53.1,-46.28 90.85,-53.1l0 66.86c-44.57,14.16 -66.86,46.68 -66.86,97.54 0,42.48 14.03,74.08 42.09,94.79 28.05,20.71 63.58,31.07 106.58,31.07 43.53,0 79.71,-10.49 108.55,-31.46 28.85,-20.98 43.27,-52.44 43.27,-94.4 0,-55.58 -23.86,-88.88 -71.58,-99.9zm119.56 -166.75l-396.44 0 0 -106.19 180.91 -97.54 0 -17.31 -180.91 -97.54 0 -104.62 396.44 0 0 65.29 -318.57 0 0 17.31 169.9 92.03 0 73.94 -169.9 92.03 0 17.31 318.57 0 0 65.29zm0 1740.71l-61.36 0 0 -130.58 -416.89 0 0 15.73 77.88 115.64 -72.37 0 -77.88 -114.85 0 -85.74 489.25 0 0 -120.35 61.36 0 0 320.14zm0 -492.4l0 81.81 -91.25 0 0 -81.81 91.25 0zm-490.04 -136.87c-47.72,-36.7 -71.58,-85.74 -71.58,-147.08 0,-61.36 23.99,-110.52 71.98,-147.48 47.98,-36.97 119.43,-55.46 214.34,-55.46 94.91,0 166.22,18.49 213.94,55.46 47.73,36.97 71.59,86.13 71.59,147.48 0,61.35 -23.86,110.39 -71.59,147.08 -47.72,36.71 -119.04,55.07 -213.94,55.07 -95.45,0 -167.02,-18.36 -214.74,-55.07zm379.53 -47.19c39.59,-22.03 59.39,-55.33 59.39,-99.9 0,-44.58 -19.8,-78.01 -59.39,-100.3 -39.59,-22.28 -94.52,-33.43 -164.78,-33.43 -70.8,0 -125.99,11.15 -165.57,33.43 -39.6,22.29 -59.39,55.72 -59.39,100.3 0,44.57 19.79,77.87 59.39,99.9 39.59,22.02 94.78,33.03 165.57,33.03 70.27,0 125.2,-11.01 164.78,-33.03z"/>
   <path fill="#666666" fill-rule="nonzero" fill-opacity="0.800000" d="M7795.13 11783.76l-61.36 0 0 -130.58 -416.89 0 0 15.73 77.88 115.64 -72.37 0 -77.88 -114.85 0 -85.74 489.25 0 0 -120.35 61.36 0 0 320.14zm-490.04 -448.35c-47.72,-36.7 -71.58,-85.74 -71.58,-147.08 0,-61.36 23.99,-110.52 71.98,-147.48 47.98,-36.97 119.43,-55.46 214.34,-55.46 94.91,0 166.22,18.49 213.94,55.46 47.73,36.97 71.59,86.13 71.59,147.48 0,61.35 -23.86,110.39 -71.59,147.08 -47.72,36.71 -119.04,55.07 -213.94,55.07 -95.45,0 -167.02,-18.36 -214.74,-55.07zm379.53 -47.19c39.59,-22.03 59.39,-55.33 59.39,-99.9 0,-44.58 -19.8,-78.01 -59.39,-100.3 -39.59,-22.28 -94.52,-33.43 -164.78,-33.43 -70.8,0 -125.99,11.15 -165.57,33.43 -39.6,22.29 -59.39,55.72 -59.39,100.3 0,44.57 19.79,77.87 59.39,99.9 39.59,22.02 94.78,33.03 165.57,33.03 70.27,0 125.2,-11.01 164.78,-33.03zm-363.01 -727.59l473.52 238.33 0 72.37 -473.52 -239.12 -17.3 0 0 279.24 -59.79 0 0 -350.82 77.09 0zm473.52 -184.06l0 81.81 -91.25 0 0 -81.81 91.25 0zm-490.04 -136.87c-47.72,-36.7 -71.58,-85.74 -71.58,-147.08 0,-61.36 23.99,-110.52 71.98,-147.48 47.98,-36.97 119.43,-55.46 214.34,-55.46 94.91,0 166.22,18.49 213.94,55.46 47.73,36.97 71.59,86.13 71.59,147.48 0,61.35 -23.86,110.39 -71.59,147.08 -47.72,36.71 -119.04,55.07 -213.94,55.07 -95.45,0 -167.02,-18.36 -214.74,-55.07zm379.53 -47.19c39.59,-22.03 59.39,-55.33 59.39,-99.9 0,-44.58 -19.8,-78.01 -59.39,-100.3 -39.59,-22.28 -94.52,-33.43 -164.78,-33.43 -70.8,0 -125.99,11.15 -165.57,33.43 -39.6,22.29 -59.39,55.72 -59.39,100.3 0,44.57 19.79,77.87 59.39,99.9 39.59,22.02 94.78,33.03 165.57,33.03 70.27,0 125.2,-11.01 164.78,-33.03zm-9.04 -897.5l0 -66.86c39.85,7.87 71.45,26.35 94.78,55.46 23.34,29.1 35.01,66.2 35.01,111.3 0,59.79 -19.54,106.85 -58.61,141.19 -39.06,34.35 -89.01,51.52 -149.84,51.52 -61.35,0 -111.43,-17.04 -150.23,-51.13 -38.8,-34.08 -58.21,-81.28 -58.21,-141.58 0,-45.62 11.41,-82.72 34.22,-111.3 22.81,-28.58 53.1,-46.28 90.85,-53.1l0 66.86c-44.57,14.16 -66.86,46.68 -66.86,97.54 0,42.48 14.03,74.08 42.09,94.79 28.05,20.71 63.58,31.07 106.58,31.07 43.53,0 79.71,-10.49 108.55,-31.46 28.85,-20.98 43.27,-52.44 43.27,-94.4 0,-55.58 -23.86,-88.88 -71.58,-99.9zm119.56 -166.75l-396.44 0 0 -106.19 180.91 -97.54 0 -17.31 -180.91 -97.54 0 -104.62 396.44 0 0 65.29 -318.57 0 0 17.31 169.9 92.03 0 73.94 -169.9 92.03 0 17.31 318.57 0 0 65.29z"/>
   <path fill="#666666" fill-rule="nonzero" fill-opacity="0.800000" d="M11403.2 14713.4l-238.33 473.52 -72.37 0 239.12 -473.52 0 -17.3 -279.24 0 0 -59.79 350.82 0 0 77.09zm119.57 -16.52c36.7,-47.72 85.74,-71.58 147.08,-71.58 61.36,0 110.52,23.99 147.48,71.98 36.97,47.98 55.46,119.43 55.46,214.34 0,94.91 -18.49,166.22 -55.46,213.94 -36.97,47.73 -86.13,71.59 -147.48,71.59 -61.35,0 -110.39,-23.86 -147.08,-71.59 -36.71,-47.72 -55.07,-119.04 -55.07,-213.94 0,-95.45 18.36,-167.02 55.07,-214.74zm47.19 379.53c22.03,39.59 55.33,59.39 99.9,59.39 44.58,0 78.01,-19.8 100.3,-59.39 22.28,-39.59 33.43,-94.52 33.43,-164.78 0,-70.8 -11.15,-125.99 -33.43,-165.57 -22.29,-39.6 -55.72,-59.39 -100.3,-59.39 -44.57,0 -77.87,19.79 -99.9,59.39 -22.02,39.59 -33.03,94.78 -33.03,165.57 0,70.27 11.01,125.2 33.03,164.78zm460.15 110.52l-81.81 0 0 -91.25 81.81 0 0 91.25zm-1458.72 733.85l0 -61.36 130.58 0 0 -416.89 -15.73 0 -115.64 77.88 0 -72.37 114.85 -77.88 85.74 0 0 489.25 120.35 0 0 61.36 -320.14 0zm560.04 -192.71c-50.34,0 -92.29,-16.91 -125.85,-50.74 -33.56,-33.82 -50.35,-76.69 -50.35,-128.61 0,-54.01 16.92,-99.11 50.74,-135.29 33.82,-36.19 79.32,-54.28 136.48,-54.28 62.4,0 111.7,21.5 147.87,64.5 36.18,43 54.28,111.7 54.28,206.08 0,88.63 -17.7,160.99 -53.1,217.1 -35.4,56.11 -87.44,84.17 -156.13,84.17 -45.63,0 -82.99,-12.2 -112.09,-36.58 -29.11,-24.39 -46.81,-55.98 -53.1,-94.79l68.43 0c13.64,46.67 45.89,70.01 96.76,70.01 43.52,0 77.61,-17.31 102.26,-51.92 24.64,-34.61 38.02,-82.33 40.11,-143.15l-17.3 0c-11.54,14.16 -28.45,26.61 -50.74,37.37 -22.28,10.75 -48.37,16.12 -78.27,16.12zm98.33 -273.73c-23.07,-22.55 -51.92,-33.82 -86.53,-33.82 -34.61,0 -63.06,11.01 -85.34,33.03 -22.29,22.03 -33.43,52.71 -33.43,92.04 0,39.33 11.27,69.48 33.82,90.46 22.55,20.97 51.39,31.46 86.53,31.46 34.61,0 63.19,-10.75 85.74,-32.25 22.55,-21.5 33.82,-51.13 33.82,-88.89 0,-38.8 -11.53,-69.48 -34.61,-92.03zm269.01 67.65l-69.22 0c3.15,-52.97 21.63,-93.35 55.46,-121.14 33.82,-27.79 76.43,-41.69 127.82,-41.69 53.49,0 96.62,14.55 129.4,43.66 32.77,29.1 49.16,70.4 49.16,123.89 0,65.02 -40.64,131.36 -121.92,199l-138.45 116.42 0 17.3 277.67 0 0 61.36 -378.35 0 0 -77.87 81.02 -66.08c50.34,-40.38 92.03,-75.78 125.07,-106.19 12.58,-11.01 22.68,-20.45 30.28,-28.32 7.61,-7.87 16.26,-18.22 25.96,-31.07 9.7,-12.85 17.04,-26.35 22.03,-40.51 4.98,-14.16 7.47,-28.84 7.47,-44.05 0,-34.09 -9.96,-60.31 -29.89,-78.66 -19.93,-18.36 -46.94,-27.53 -81.02,-27.53 -31.99,0 -57.82,8.52 -77.48,25.56 -19.67,17.04 -31.34,42.35 -35.01,75.91zm1570.81 279.24l66.86 0c-7.87,39.85 -26.35,71.45 -55.46,94.78 -29.1,23.34 -66.2,35.01 -111.3,35.01 -59.79,0 -106.85,-19.54 -141.19,-58.61 -34.35,-39.06 -51.52,-89.01 -51.52,-149.84 0,-61.35 17.04,-111.43 51.13,-150.23 34.08,-38.8 81.28,-58.21 141.58,-58.21 45.62,0 82.72,11.41 111.3,34.22 28.58,22.81 46.28,53.1 53.1,90.85l-66.86 0c-14.16,-44.57 -46.68,-66.86 -97.54,-66.86 -42.48,0 -74.08,14.03 -94.79,42.09 -20.71,28.05 -31.07,63.58 -31.07,106.58 0,43.53 10.49,79.71 31.46,108.55 20.98,28.85 52.44,43.27 94.4,43.27 55.58,0 88.88,-23.86 99.9,-71.58zm166.75 119.56l0 -396.44 106.19 0 97.54 180.91 17.31 0 97.54 -180.91 104.62 0 0 396.44 -65.29 0 0 -318.57 -17.31 0 -92.03 169.9 -73.94 0 -92.03 -169.9 -17.31 0 0 318.57 -65.29 0zm-1047.33 -1223.9c36.7,-47.72 85.74,-71.58 147.08,-71.58 61.36,0 110.52,23.99 147.48,71.98 36.97,47.98 55.46,119.43 55.46,214.34 0,94.91 -18.49,166.22 -55.46,213.94 -36.97,47.73 -86.13,71.59 -147.48,71.59 -61.35,0 -110.39,-23.86 -147.08,-71.59 -36.71,-47.72 -55.07,-119.04 -55.07,-213.94 0,-95.45 18.36,-167.02 55.07,-214.74zm47.19 379.53c22.03,39.59 55.33,59.39 99.9,59.39 44.58,0 78.01,-19.8 100.3,-59.39 22.28,-39.59 33.43,-94.52 33.43,-164.78 0,-70.8 -11.15,-125.99 -33.43,-165.57 -22.29,-39.6 -55.72,-59.39 -100.3,-59.39 -44.57,0 -77.87,19.79 -99.9,59.39 -22.02,39.59 -33.03,94.78 -33.03,165.57 0,70.27 11.01,125.2 33.03,164.78zm894.35 110.52l-98.33 -165.96 -28.31 0 -100.69 165.96 -73.16 0 123.5 -202.94 -110.91 -193.49 70.8 0 91.24 157.31 28.32 0 92.82 -157.31 70.01 0 -112.49 191.13 122.71 205.3 -75.51 0zm-1142.51 733.85l-81.81 0 0 -91.25 81.81 0 0 91.25zm136.87 -490.04c36.7,-47.72 85.74,-71.58 147.08,-71.58 61.36,0 110.52,23.99 147.48,71.98 36.97,47.98 55.46,119.43 55.46,214.34 0,94.91 -18.49,166.22 -55.46,213.94 -36.97,47.73 -86.13,71.59 -147.48,71.59 -61.35,0 -110.39,-23.86 -147.08,-71.59 -36.71,-47.72 -55.07,-119.04 -55.07,-213.94 0,-95.45 18.36,-167.02 55.07,-214.74zm47.19 379.53c22.03,39.59 55.33,59.39 99.9,59.39 44.58,0 78.01,-19.8 100.3,-59.39 22.28,-39.59 33.43,-94.52 33.43,-164.78 0,-70.8 -11.15,-125.99 -33.43,-165.57 -22.29,-39.6 -55.72,-59.39 -100.3,-59.39 -44.57,0 -77.87,19.79 -99.9,59.39 -22.02,39.59 -33.03,94.78 -33.03,165.57 0,70.27 11.01,125.2 33.03,164.78z"/>
   <g>
    <line fill="none" stroke="gray" stroke-width="10.58" stroke-miterlimit="22.9256" x1="7815.5" y1="5886.5" x2="8970.34" y2= "5886.5" />
    <line fill="none" stroke="gray" stroke-width="10.58" stroke-miterlimit="22.9256" x1="7812.67" y1="1564" x2="8970.34" y2= "1564" />
    <line fill="none" stroke="gray" stroke-width="10.58" stroke-miterlimit="22.9256" x1="8249.49" y1="6317.08" x2="8249.49" y2= "1188.88" />
   </g>
   <g>
    <line fill="none" stroke="gray" stroke-width="10.58" stroke-miterlimit="22.9256" x1="7815.5" y1="12837.88" x2="8970.34" y2= "12837.88" />
    <line fill="none" stroke="gray" stroke-width="10.58" stroke-miterlimit="22.9256" x1="7812.67" y1="7929.34" x2="8970.34" y2= "7929.34" />
    <line fill="none" stroke="gray" stroke-width="10.58" stroke-miterlimit="22.9256" x1="8249.49" y1="13292.36" x2="8249.49" y2= "7554.21" />
   </g>
   <g>
    <line fill="none" stroke="gray" stroke-width="10.58" stroke-miterlimit="22.9256" x1="9164.93" y1="19205.75" x2="9164.93" y2= "18048.09" />
    <line fill="none" stroke="gray" stroke-width="10.58" stroke-miterlimit="22.9256" x1="15562.13" y1="18768.94" x2="8730.94" y2= "18768.94" />
    <line fill="none" stroke="gray" stroke-width="10.58" stroke-miterlimit="22.9256" x1="15113.17" y1="19202.93" x2="15113.17" y2= "18048.09" />
   </g>
  </g>
 </g>
</svg>
