<?xml version="1.0" encoding="UTF-8"?>
<!DOCTYPE svg PUBLIC "-//W3C//DTD SVG 1.1//EN" "http://www.w3.org/Graphics/SVG/1.1/DTD/svg11.dtd">
<!-- Creator: CorelDRAW 2021.5 -->
<svg xmlns="http://www.w3.org/2000/svg" xml:space="preserve" width="297mm" height="210mm" version="1.1" shape-rendering="geometricPrecision" text-rendering="geometricPrecision" image-rendering="optimizeQuality" fill-rule="evenodd" clip-rule="evenodd"
viewBox="0 0 29698.94 20999.25"
 xmlns:xlink="http://www.w3.org/1999/xlink"
 xmlns:xodm="http://www.corel.com/coreldraw/odm/2003">
 <g id="Тени">
  <metadata id="CorelCorpID_0Corel-Layer"/>
  <g id="_2274493547184">
   <path fill="black" fill-opacity="0.101961" d="M8443.19 11255.55c52.37,-852.41 335.4,-1087.08 645.45,-1102.27 32.82,-1.58 115.84,0.59 153.82,-0.63 -264.53,-40.51 -614.43,-3.8 -737.85,-43.88 -74.23,-24.1 -78.1,-90.29 -84.85,-167.86 -8.2,-93.8 -17.81,-441.24 -10.5,-482.86l24.53 -464.15c4.73,-89.73 90.67,-187.19 72.54,-185.43l-132.28 13 -19.19 119.02 0 3575.26c40.44,-967.83 37.11,-427.35 88.33,-1260.19zm2702.32 -1112.37c184.34,10.35 332.23,46.07 366.06,57.44 327.52,110.16 557.04,286.95 608.86,1102.81 23.53,370.21 83.75,1212.31 83.75,1212.31 0,0 79.92,-951.76 88.51,-1209.51 43.31,-1296.81 555.29,-1099.42 1306.67,-1139.23 132.69,-7 511.72,-12.48 625.79,-22.2 -28.7,0.57 -281.9,0.39 -310.2,0.61 -649,5.23 -1306.82,14.83 -1562.43,-49.46 -67.24,-16.93 -52.24,-132.04 -63.8,-252.5 -17.34,-180.66 -34.23,-397.84 -26.25,-443.45l39.56 -428.01c5.87,-63.57 39.54,-127.66 78.89,-154.52l-142.48 0.36 -30.71 51.43 -39.21 -49.92 -159.85 -6.1c61.82,8.16 73.25,121.15 82.51,204.98l43.77 396.73c1.6,14.54 -0.6,28.69 -3.16,42.05l1.25 0.02c-4.27,56.61 9.12,304.73 -13.66,477.02 -9.87,74.78 4.72,131.68 -44.09,158.44 -97.48,53.51 -541.64,36.89 -929.76,50.71zm3822.02 7.59c239.31,3.62 484.72,52.22 657.25,179.51 319.9,236 328.49,393.34 372.82,1076.83 64.99,1002.08 63.44,1556.43 63.4,1021.72l-0.34 -3565.9 -44.39 -50.98 -110.15 -3.41c30.12,29.79 47.89,131.64 53.62,185.29l43.49 406.16c1.56,14.54 -0.62,28.69 -3.16,42.05l1.23 0.02c-6.09,81.18 32.32,589.8 -60.74,644.71 -114.45,67.55 -595.54,14.43 -973.03,64z"/>
   <path fill="black" fill-opacity="0.101961" d="M8948.85 1753.44c606.47,65.82 793.69,194.39 1278.96,201.41 517.22,7.49 664.57,-100.7 1469.15,-215.92 -452.41,9.11 -895.07,32.28 -1347.49,41.41l-1400.62 -26.9z"/>
   <path fill="black" fill-opacity="0.101961" d="M12706.58 1727.93c751.9,77.6 861.51,206 1346.79,212.75 517.22,7.2 784.02,-188.65 1362.28,-201.36 -452.41,8.75 -895.07,21.19 -1347.49,29.97l-1361.58 -41.36z"/>
   <polygon fill="black" fill-opacity="0.101961" points="8367.54,4049.47 8388.82,3931.1 8469.61,3910.12 8483.38,4713.06 12170.81,4718.87 12176.81,3918.22 12229.27,3966.58 12273.58,3926.87 12285.26,4718.87 15971.32,4713.08 15971.24,3910.12 16068.16,3938.18 16092.5,4012.27 16094.54,5757.04 16018,5796.28 15980.7,5796.28 15984.68,4920.82 8475.32,4920.82 8479.36,5786.44 8386.37,5786.44 8365.48,5756.45 "/>
   <path fill="black" fill-opacity="0.101961" d="M8878.46 3811.96c651.22,-66.71 900.55,-163.77 1385.83,-169.57 517.22,-6.19 594.33,98.11 1362.28,181.57 -452.42,-7.53 -911.86,18.13 -1364.28,10.58l-1383.83 -22.58z"/>
   <path fill="black" fill-opacity="0.101961" d="M12667.54 3814.32c796.66,-148.56 893.12,-184.67 1378.39,-194.79 517.22,-10.78 680.09,44.59 1369.71,200.93 -452.4,-13.12 -906.26,-8.76 -1358.68,-21.92l-1389.42 15.78z"/>
   <polygon fill="black" fill-opacity="0.101961" points="20414.39,3015.02 21556.66,3017.36 21588.14,3143.7 20439.89,3140.93 "/>
   <polygon fill="black" fill-opacity="0.101961" points="19924.74,3015.02 20342.84,3017.36 20251.72,3117.46 20112.21,3136.54 19996.12,3099.16 "/>
   <g>
    <path fill="none" stroke="black" stroke-width="10.58" stroke-miterlimit="22.9256" d="M17041.51 3089.05l-788.89 0c-17.36,0 -40.13,5.98 -55.9,10.04 -99.15,21.88 -117.93,151.23 -105.99,389.22 10.29,204.9 -2.88,1740.27 -2.88,1857.82 0,291.59 17.31,418.57 104.42,442.64 20.96,8.28 25.26,11.9 60.35,11.9l788.89 0c33.91,0 37.29,-5.13 58.32,-10.24 87.08,-23.97 104.42,-150.26 104.42,-440.37 0,-116.95 -13.17,-1644.36 -2.88,-1848.21 11.94,-236.74 -13.87,-384.2 -113.03,-405.97 -16.79,-5.43 -27.53,-6.83 -46.83,-6.83z"/>
    <path fill="none" stroke="black" stroke-width="10.58" stroke-miterlimit="22.9256" d="M8444.17 3910.08c1231.17,0 2462.32,0 3693.49,0 51.04,-4.24 61.09,34.32 91.62,51.47 28.82,-17.15 51.29,-54.89 86.49,-51.47l3698.58 0c42.47,0 77.24,40.46 77.24,89.87l0 629.06c0,49.43 -34.77,89.87 -77.24,89.87l-7570.17 0c-42.49,0 -77.25,-40.44 -77.25,-89.87l0 -629.06c0,-49.41 34.76,-89.87 77.25,-89.87z"/>
    <rect fill="none" stroke="black" stroke-width="10.58" stroke-miterlimit="22.9256" x="8367.06" y="4718.88" width="7724.65" height="1067.56" rx="44.96" ry="53.38"/>
    <rect fill="none" stroke="black" stroke-width="10.58" stroke-miterlimit="22.9256" x="7353.61" y="5826.49" width="889.75" height="147.91"/>
    <rect fill="none" stroke="black" stroke-width="10.58" stroke-miterlimit="22.9256" x="16199.42" y="5803.87" width="895.04" height="147.91"/>
    <path fill="none" stroke="black" stroke-width="10.58" stroke-miterlimit="22.9256" d="M8361.22 3353.21l-0.81 -199.86c-1.83,-21.96 17.04,-57.21 62.23,-60.5m7541.98 -8.3c101.77,-4.22 115.03,2.31 123.43,65.38l0.77 167.71"/>
    <path fill="none" stroke="black" stroke-width="10.58" stroke-miterlimit="22.9256" d="M8603.57 1736.29c565.88,0 1068.72,29.24 1634.62,29.24 573.53,0 1233.59,-28.45 1807.14,-28.45 104.44,0 159.45,42.49 159.45,172.64 0,224.71 -27.44,648.27 -27.44,872.98 0,315.15 31.81,553.78 31.81,868.94 0,130.16 -30.39,180.46 -134.84,180.46 -604.11,0 -1253.25,-24.46 -1857.34,-24.46 -501.2,0 -832.08,-3.43 -1357.1,16.49 -109.11,4.12 -329.5,35.7 -363.6,35.7 -104.47,0 -82.63,-137.2 -82.63,-267.35 0,-272.31 25.66,-509.59 25.66,-781.89 0,-267.56 -25.66,-669.52 -25.66,-937.06 0,-130.2 85.47,-137.25 189.92,-137.25z"/>
    <line fill="none" stroke="black" stroke-width="10.58" stroke-miterlimit="22.9256" x1="12229.39" y1="4718.88" x2="12229.26" y2= "3966.58" />
    <path fill="none" stroke="black" stroke-width="10.58" stroke-miterlimit="22.9256" d="M12372.53 1727.73c561.07,0 1100.84,27.01 1661.9,27.01 568.65,0 1226.81,-27.92 1795.45,-27.92 103.56,0 156.68,53.36 156.68,183.52 0,224.7 -29.52,636.87 -29.52,861.57 0,315.15 26.68,560.27 26.68,875.42 0,130.17 -49.64,169.97 -153.19,169.97 -598.94,0 -1219,-18.81 -1817.94,-18.81 -496.94,0 -1000.45,10.2 -1497.38,18.93 -33.81,0.6 -108.09,-1.11 -141.91,-1.11 -103.57,0 -138.81,-32.13 -138.81,-162.28 0,-272.3 16.39,-581.92 16.39,-854.23 0,-267.55 -16.9,-640.37 -16.9,-907.91 0,-130.17 35,-164.16 138.55,-164.16z"/>
    <path fill="none" stroke="black" stroke-width="10.58" stroke-miterlimit="22.9256" d="M8200.56 3110.34l-788.88 0c-17.36,0 -40.13,5.98 -55.9,10.04 -99.16,21.88 -117.94,151.23 -105.99,389.22 10.28,204.9 -2.88,1740.27 -2.88,1857.82 0,291.59 17.31,418.57 104.42,442.64 20.96,8.28 25.26,11.9 60.35,11.9l788.88 0c33.91,0 37.3,-5.13 58.33,-10.24 87.08,-23.97 104.42,-150.26 104.42,-440.37 0,-116.95 -13.17,-1644.36 -2.89,-1848.21 11.95,-236.74 -13.86,-384.2 -113.02,-405.97 -16.79,-5.43 -27.53,-6.83 -46.84,-6.83z"/>
   </g>
   <g>
    <rect fill="none" stroke="#2B2A29" stroke-width="10.58" stroke-miterlimit="22.9256" x="23837.68" y="5757.01" width="165.62" height="144.45"/>
    <rect fill="none" stroke="#2B2A29" stroke-width="10.58" stroke-miterlimit="22.9256" x="19535.4" y="5765.39" width="165.62" height="144.45"/>
    <path fill="none" stroke="#2B2A29" stroke-width="10.58" stroke-miterlimit="22.9256" d="M19351.04 3255.22l0 2485.92c0,10.38 8.47,18.84 18.83,18.84l4843.03 0c10.35,0 18.83,-8.46 18.83,-18.84l0 -2362.11c0,-130.97 -107.14,-238.1 -238.09,-238.1l-4528.33 0c-62.86,0 -114.27,51.42 -114.27,114.29z"/>
    <circle fill="none" stroke="#2B2A29" stroke-width="10.58" stroke-miterlimit="22.9256" cx="20138.65" cy="2897.23" r="240.76"/>
    <path fill="none" stroke="#2B2A29" stroke-width="10.58" stroke-miterlimit="22.9256" d="M24289.64 3929.46c0,0 95.53,17.55 95.53,113.73 0,96.17 6.02,384.27 4.14,432.27 -1.88,48.01 -8.38,203.82 -99.01,203.82"/>
    <path fill="none" stroke="black" stroke-width="10.58" stroke-miterlimit="22.9256" d="M20632.04 3140.93l-198.65 -1105.44c-18.62,-103.7 -53.52,-205.9 87.23,-229.49l415.42 -69.58c37.34,-6.26 139.14,-22.12 168.28,140.18l226.15 1258.41"/>
    <path fill="none" stroke="black" stroke-width="10.58" stroke-miterlimit="22.9256" d="M20473.78 1819.2c-100.11,20.95 -171.86,138.06 -184.2,254.79 -17.34,163.99 142.39,1037.34 150.32,1066.94"/>
    <path fill="none" stroke="black" stroke-width="10.58" stroke-miterlimit="22.9256" d="M20966.47 1732.95c182.67,-29.06 309.78,294.93 334.28,356.05 130.86,326.5 280.84,985.94 292.79,1051.95"/>
   </g>
   <g>
    <path fill="none" stroke="black" stroke-width="10.58" stroke-miterlimit="22.9256" d="M16180.26 12523.95c-82.45,-42.17 -98.93,-257.54 -98.93,-752.27 0,-199.44 12.56,-2804.25 2.73,-3151.88 -11.31,-403.75 6.54,-623.23 100.75,-660.69 93.37,-51.11 841.68,-46.36 924.34,-2.55 95.01,34.39 119.57,284.57 108.22,686.17 -9.79,345.87 2.71,2937.23 2.71,3135.65 0,492.13 -16.46,706.44 -99.61,745.95 -84.87,45.14 -864.37,34.58 -940.21,-0.38z"/>
    <path fill="none" stroke="black" stroke-width="10.58" stroke-miterlimit="22.9256" d="M16110.39 8047.61c-25.72,-129.61 -487.4,-133.97 -1169.23,-121.91 -587.11,10.38 -4986.17,-2.92 -5323.02,-2.92 -835.46,0 -1254.63,-15.73 -1291.3,137.12"/>
    <path fill="none" stroke="black" stroke-width="10.58" stroke-miterlimit="22.9256" d="M8259.43 12526.72c82.45,-42.29 98.93,-258.3 98.93,-754.49 0,-200.03 -12.56,-2812.52 -2.73,-3161.18 11.31,-404.94 -6.53,-625.07 -100.74,-662.64 -93.37,-51.27 -841.69,-46.5 -924.35,-2.56 -95.01,34.5 -119.57,285.41 -108.22,688.2 9.8,346.89 -2.71,2945.89 -2.71,3144.9 0,493.58 16.47,708.53 99.62,748.15 84.86,45.28 864.37,34.69 940.2,-0.38z"/>
    <rect fill="none" stroke="black" stroke-width="10.58" stroke-miterlimit="22.9256" x="12211.72" y="8808.55" width="3849.29" height="3838.97" rx="31.72" ry="79.98"/>
    <rect fill="none" stroke="black" stroke-width="10.58" stroke-miterlimit="22.9256" x="8354.88" y="8808.46" width="3849.29" height="3839.06" rx="31.72" ry="79.98"/>
    <g>
     <polyline fill="none" stroke="#2B2A29" stroke-width="10.58" stroke-miterlimit="22.9256" stroke-dasharray="52.898112 52.898112" points="8351.29,12572.03 8352.69,17612.75 16057.13,17612.75 16059.06,12580.54 "/>
     <path fill="none" stroke="#2B2A29" stroke-width="10.58" stroke-miterlimit="22.9256" d="M8428.82 9993.44c10.47,75.26 28.9,115.14 125.98,125.31 500.04,52.43 3051.04,33.35 3465.23,-2.21 47.98,-6.19 64.64,-25.59 81.25,-74.04 33.7,-90.95 31.14,-508.45 31.14,-646.83 7.63,-80.26 -49.94,-446.76 -68.18,-531.76 -10.43,-38.75 -45.98,-52.7 -75.81,-52.05 -1104.57,-3.75 -1995.95,-1.77 -3120.81,-4.39 -59.71,2.21 -190.38,-7.28 -287.46,0.64 -61.15,5.01 -96.48,26.82 -108.53,57.37 -63.66,129.7 -51.61,367.87 -62.83,437.64 -5.81,124.91 16.15,551.22 20.02,690.32z"/>
     <path fill="none" stroke="#2B2A29" stroke-width="10.58" stroke-miterlimit="22.9256" d="M8411 9544.62c-5.58,-233.9 17.78,-225.35 143.19,-222.54 103.64,-3.08 3399.66,-13.02 3433.96,-3.4 64.36,4.69 160.22,-30.32 144.35,108.39"/>
     <path fill="none" stroke="#2B2A29" stroke-width="10.58" stroke-miterlimit="22.9256" d="M8842.47 8807.43c-0.13,-8.2 -2.19,-61.14 -2.36,-69.35 3.33,-52.82 25.07,-75.48 151.42,-75.48 878.49,0 1692.33,0 2570.83,0 112.14,0 167.07,-1.05 164.12,85.81l0 62.07"/>
     <path fill="none" stroke="#2B2A29" stroke-width="10.58" stroke-miterlimit="22.9256" d="M12294.09 9987.74c10.48,75.26 28.91,115.14 125.99,125.31 500.04,52.43 3051.04,33.35 3465.23,-2.21 47.98,-6.19 64.64,-25.59 81.25,-74.04 33.7,-90.95 31.14,-508.45 31.14,-646.83 7.63,-80.26 -49.94,-446.76 -68.18,-531.75 -10.43,-38.76 -45.98,-52.71 -75.81,-52.06 -1104.57,-3.75 -1995.95,-1.77 -3120.81,-4.39 -59.71,2.21 -190.38,-7.28 -287.46,0.64 -61.15,5.01 -96.48,26.82 -108.53,57.37 -63.66,129.7 -51.61,367.87 -62.83,437.64 -5.81,124.91 16.15,551.22 20.01,690.32z"/>
     <path fill="none" stroke="#2B2A29" stroke-width="10.58" stroke-miterlimit="22.9256" d="M12276.28 9538.92c-5.59,-233.9 17.78,-225.34 143.19,-222.54 103.64,-3.08 3399.66,-13.02 3433.96,-3.4 64.36,4.69 160.22,-30.32 144.35,108.39"/>
     <path fill="none" stroke="#2B2A29" stroke-width="10.58" stroke-miterlimit="22.9256" d="M12707.76 8801.73c-0.13,-8.2 -2.19,-61.14 -2.36,-69.35 3.33,-52.82 25.07,-75.48 151.42,-75.48 878.49,0 1692.33,0 2570.83,0 112.13,0 167.07,-1.05 164.12,85.81l0 62.08"/>
    </g>
   </g>
   <path fill="#666666" fill-rule="nonzero" fill-opacity="0.800000" d="M19715.8 8188.12l0 16.94c23.11,10.79 41.72,27.73 55.84,50.84 14.13,23.11 21.19,48.53 21.19,76.27 0,46.21 -15.92,83.58 -47.76,112.08 -31.84,28.5 -78.06,42.75 -138.66,42.75l-245.72 0 0 -549.99 239.56 0c55.98,0 99.24,13.23 129.8,39.67 30.55,26.45 45.83,59.7 45.83,99.76 0,52.89 -20.03,90.13 -60.08,111.7zm-285.78 -189.49l0 171.77 168.69 0c71.38,0 107.07,-29.27 107.07,-87.82 0,-28.76 -10.27,-49.94 -30.81,-63.55 -20.54,-13.61 -46.48,-20.41 -77.8,-20.41l-167.15 0zm0 426.73l171.77 0c35.43,0 64.45,-7.57 87.05,-22.72 22.59,-15.15 33.89,-40.44 33.89,-75.88 0,-33.38 -11.17,-57.64 -33.51,-72.79 -22.34,-15.15 -51.23,-22.73 -86.66,-22.73l-172.54 0 0 194.11zm463.71 -326.6l65.47 0 0 129.41 107.08 0c46.73,0 82.81,11.3 108.23,33.9 25.42,22.59 38.13,54.18 38.13,94.75 0,41.08 -12.71,73.05 -38.13,95.9 -25.42,22.85 -61.5,34.28 -108.23,34.28l-172.54 0 0 -388.23zm65.47 184.87l0 146.35 97.83 0c32.36,0 55.47,-6.17 69.33,-18.49 13.87,-12.33 20.8,-30.56 20.8,-54.69 0,-24.14 -6.93,-42.37 -20.8,-54.7 -13.86,-12.32 -36.97,-18.48 -69.33,-18.48l-97.83 0zm315.82 -184.87l65.48 0 0 388.23 -65.48 0 0 -388.23zm454.48 271.14l65.47 0c-7.7,39.03 -25.8,69.97 -54.31,92.82 -28.5,22.86 -64.83,34.28 -109,34.28 -58.54,0 -104.63,-19.13 -138.27,-57.38 -33.64,-38.26 -50.45,-87.18 -50.45,-146.74 0,-60.09 16.69,-109.13 50.07,-147.12 33.38,-38 79.6,-57.01 138.65,-57.01 44.68,0 81.02,11.17 109,33.51 27.99,22.34 45.33,52 52,88.98l-65.48 0c-13.86,-43.66 -45.7,-65.48 -95.52,-65.48 -41.59,0 -72.53,13.74 -92.82,41.21 -20.28,27.48 -30.43,62.27 -30.43,104.38 0,42.62 10.27,78.06 30.82,106.3 20.54,28.25 51.35,42.37 92.43,42.37 54.44,0 87.05,-23.37 97.84,-70.1zm190.64 -223.38c34.15,-38.52 80.76,-57.78 139.82,-57.78 59.05,0 105.66,19.26 139.81,57.78 34.15,38.51 51.23,87.3 51.23,146.35 0,59.06 -17.08,107.84 -51.23,146.35 -34.15,38.52 -80.76,57.77 -139.81,57.77 -59.06,0 -105.67,-19.25 -139.82,-57.77 -34.15,-38.52 -51.22,-87.3 -51.22,-146.35 0,-59.06 17.07,-107.85 51.22,-146.35zm46.61 250.73c21.57,28.5 52.64,42.75 93.21,42.75 40.57,0 71.64,-14.25 93.2,-42.75 21.57,-28.5 32.36,-63.3 32.36,-104.38 0,-41.08 -10.79,-75.88 -32.36,-104.38 -21.56,-28.5 -52.63,-42.75 -93.2,-42.75 -40.57,0 -71.64,14.25 -93.21,42.75 -21.57,28.5 -32.36,63.3 -32.36,104.38 0,41.08 10.79,75.88 32.36,104.38zm338.93 -241.49l0 -57 334.31 0 0 57 -134.04 0 0 331.23 -65.47 0 0 -331.23 -134.81 0zm667.85 331.23l0 -40.83 -16.95 0c-26.7,33.9 -67.02,50.84 -120.94,50.84 -42.62,0 -76.52,-12.32 -101.68,-36.97 -25.16,-24.65 -37.75,-54.44 -37.75,-89.36 0,-35.43 12.33,-65.73 36.98,-90.9 24.65,-25.16 61.88,-37.74 111.7,-37.74l126.33 0 0 -15.41c0,-24.65 -7.71,-44.29 -23.11,-58.93 -15.41,-14.63 -39.29,-21.95 -71.64,-21.95 -56.49,0 -86.53,18.74 -90.13,56.23l-65.48 0c2.57,-35.43 17.85,-63.16 45.84,-83.19 27.99,-20.03 64.06,-30.05 108.23,-30.05 49.81,0 88.97,11.56 117.47,34.67 28.5,23.11 42.75,56.23 42.75,99.37l0 264.21 -61.62 0zm-121.71 -46.99c32.35,0 60.34,-10.66 83.96,-31.97 23.63,-21.31 35.44,-47.37 35.44,-78.19l0 -35.43 -116.32 0c-62.14,0 -93.21,24.65 -93.21,73.95 0,22.08 7.83,39.54 23.5,52.38 15.66,12.84 37.87,19.26 66.63,19.26zm-2235.39 771.12l65.47 0c-7.7,39.03 -25.8,69.97 -54.31,92.82 -28.5,22.86 -64.83,34.28 -109,34.28 -58.54,0 -104.63,-19.13 -138.27,-57.38 -33.64,-38.26 -50.45,-87.18 -50.45,-146.74 0,-60.09 16.69,-109.13 50.07,-147.12 33.38,-38 79.6,-57.01 138.65,-57.01 44.68,0 81.02,11.17 109,33.51 27.99,22.34 45.33,52 52,88.98l-65.48 0c-13.86,-43.66 -45.7,-65.48 -95.52,-65.48 -41.59,0 -72.53,13.74 -92.82,41.21 -20.28,27.48 -30.43,62.27 -30.43,104.38 0,42.62 10.27,78.06 30.82,106.3 20.54,28.25 51.35,42.37 92.43,42.37 54.44,0 87.05,-23.37 97.84,-70.1zm255.73 117.09l-92.43 0 0 -388.23 63.93 0 0 300.41 16.95 0 170.23 -300.41 95.52 0 0 388.23 -63.94 0 0 -300.41 -16.94 0 -173.32 300.41zm726.39 -57l71.64 0 0 167.15 -63.94 0 0 -110.16 -335.85 0 0 110.16 -63.93 0 0 -167.15 51.61 0c31.84,-67.79 47.76,-142.76 47.76,-224.93l0 -106.3 292.71 0 0 331.23zm-65.48 0l0 -274.23 -166.38 0 0 49.3c0,87.82 -14.12,162.79 -42.36,224.93l208.74 0zm558.47 -160.22l0 22.34 -295.8 0c1.03,46.73 12.07,83.07 33.13,109 21.05,25.93 51.35,38.9 90.89,38.9 53.41,0 86.28,-20.03 98.61,-60.08l66.24 0c-6.67,34.92 -24.26,63.16 -52.76,84.73 -28.51,21.57 -65.87,32.35 -112.09,32.35 -59.05,0 -105.27,-19.25 -138.65,-57.77 -33.38,-38.52 -50.07,-88.59 -50.07,-150.2 0,-60.6 16.69,-109.13 50.07,-145.58 33.38,-36.46 79.08,-54.7 137.11,-54.7 54.95,0 97.32,17.34 127.11,52 29.78,34.67 45.19,77.68 46.22,129.03zm-174.86 -124.02c-33.38,0 -60.08,8.6 -80.11,25.8 -20.03,17.21 -32.35,39.16 -36.98,65.87l224.16 0c-2.06,-26.19 -12.58,-48.02 -31.59,-65.48 -19,-17.46 -44.16,-26.19 -75.49,-26.19zm622.4 341.24l-65.48 0 0 -171 -214.91 0 0 171 -65.47 0 0 -388.23 65.47 0 0 160.22 214.91 0 0 -160.22 65.48 0 0 388.23zm671.7 -388.23l193.34 0 0 388.23 -66.25 0 0 -153.28 -117.86 0c-10.27,0 -18.23,-0.26 -23.88,-0.77l-58.54 154.05 -68.56 0 65.48 -168.69c-40.06,-19 -60.09,-52.9 -60.09,-101.68 0,-37.49 11.68,-66.51 35.05,-87.05 23.37,-20.54 57.13,-30.81 101.3,-30.81zm127.1 55.46l-120.17 0c-28.24,0 -48.27,5.39 -60.08,16.18 -11.82,10.78 -17.72,26.45 -17.72,46.99 0,20.03 5.9,35.18 17.72,45.45 11.81,10.27 31.84,15.4 60.08,15.4l120.17 0 0 -124.02zm-1998.14 1173.99l-80.12 0 0 -89.36 80.12 0 0 89.36zm134.03 -479.89c35.95,-46.73 83.96,-70.1 144.04,-70.1 60.08,0 108.23,23.5 144.42,70.49 36.21,46.99 54.31,116.96 54.31,209.9 0,92.95 -18.1,162.78 -54.31,209.52 -36.2,46.73 -84.35,70.09 -144.42,70.09 -60.09,0 -108.1,-23.36 -144.04,-70.09 -35.95,-46.74 -53.92,-116.58 -53.92,-209.52 0,-93.47 17.97,-163.56 53.92,-210.29zm46.22 371.67c21.57,38.77 54.18,58.16 97.83,58.16 43.65,0 76.39,-19.39 98.22,-58.16 21.82,-38.77 32.73,-92.57 32.73,-161.37 0,-69.33 -10.91,-123.38 -32.73,-162.14 -21.83,-38.78 -54.57,-58.16 -98.22,-58.16 -43.65,0 -76.26,19.38 -97.83,58.16 -21.57,38.77 -32.35,92.82 -32.35,162.14 0,68.81 10.78,122.61 32.35,161.37zm878.91 -8.86l65.47 0c-7.7,39.03 -25.8,69.97 -54.31,92.82 -28.5,22.86 -64.83,34.28 -109,34.28 -58.54,0 -104.63,-19.13 -138.27,-57.38 -33.64,-38.26 -50.45,-87.18 -50.45,-146.74 0,-60.09 16.69,-109.13 50.07,-147.12 33.38,-38 79.6,-57.01 138.65,-57.01 44.68,0 81.02,11.17 109,33.51 27.99,22.34 45.33,52 52,88.98l-65.48 0c-13.86,-43.66 -45.7,-65.48 -95.52,-65.48 -41.59,0 -72.53,13.74 -92.82,41.21 -20.28,27.48 -30.43,62.27 -30.43,104.38 0,42.62 10.27,78.06 30.82,106.3 20.54,28.25 51.35,42.37 92.43,42.37 54.44,0 87.05,-23.37 97.84,-70.1zm163.3 117.09l0 -388.23 103.99 0 95.52 177.16 16.95 0 95.52 -177.16 102.45 0 0 388.23 -63.94 0 0 -311.97 -16.95 0 -90.12 166.38 -72.41 0 -90.13 -166.38 -16.95 0 0 311.97 -63.93 0zm168.69 -1229.45l0 129.41 114.78 0c46.73,0 82.81,11.3 108.23,33.9 25.42,22.59 38.13,54.18 38.13,94.75 0,41.08 -12.71,73.05 -38.13,95.9 -25.42,22.85 -61.5,34.28 -108.23,34.28l-180.24 0 0 -388.23 65.47 0zm0 331.23l105.54 0c32.35,0 55.46,-6.17 69.33,-18.49 13.86,-12.33 20.79,-30.56 20.79,-54.69 0,-24.14 -6.93,-42.37 -20.79,-54.7 -13.87,-12.32 -36.98,-18.48 -69.33,-18.48l-105.54 0 0 146.35zm875.05 57l-80.12 0 0 -89.36 80.12 0 0 89.36zm0 -298.87l-80.12 0 0 -89.36 80.12 0 0 89.36zm-2952.53 953.68l73.95 0 0 60.09 -73.95 0 0 126.33 -66.25 0 0 -126.33 -266.52 0 0 -77.03 238.02 -335.85 94.75 0 0 352.79zm-261.9 0l196.42 0 0 -276.53 -16.94 0 -179.48 259.59 0 16.94zm431.37 -352.79l315.05 0 0 75.49 -134.81 115.55 0 16.17c47.76,1.03 86.4,15.92 115.93,44.68 29.53,28.76 44.3,68.56 44.3,119.4 0,54.95 -17.72,98.34 -53.16,130.18 -35.43,31.84 -81.14,47.76 -137.11,47.76 -53.92,0 -98.09,-15.15 -132.5,-45.44 -34.4,-30.3 -53.15,-68.82 -56.23,-115.55l67.79 0c3.08,30.3 15.79,54.69 38.13,73.18 22.34,18.49 49.94,27.73 82.81,27.73 37.49,0 67.27,-10.53 89.35,-31.58 22.09,-21.06 33.13,-49.82 33.13,-86.28 0,-35.95 -10.53,-64.06 -31.58,-84.35 -21.06,-20.28 -51.1,-30.43 -90.13,-30.43 -19,0 -34.67,1.54 -46.99,4.62l0 -71.64 131.72 -114 0 -16.95 -235.7 0 0 -58.54z"/>
   <path fill="#666666" fill-rule="nonzero" fill-opacity="0.800000" d="M10675.73 19307.6l-67.79 0c3.08,-51.87 21.18,-91.41 54.3,-118.63 33.13,-27.22 74.85,-40.83 125.18,-40.83 52.38,0 94.62,14.25 126.72,42.75 32.1,28.51 48.14,68.95 48.14,121.33 0,63.68 -39.8,128.64 -119.4,194.88l-135.57 114.01 0 16.95 271.91 0 0 60.08 -370.51 0 0 -76.26 79.34 -64.71c49.3,-39.54 90.13,-74.21 122.48,-103.99 12.33,-10.79 22.21,-20.03 29.66,-27.73 7.44,-7.71 15.92,-17.85 25.42,-30.43 9.5,-12.58 16.69,-25.81 21.57,-39.67 4.88,-13.87 7.32,-28.25 7.32,-43.14 0,-33.38 -9.76,-59.06 -29.28,-77.03 -19.51,-17.98 -45.96,-26.96 -79.34,-26.96 -31.33,0 -56.62,8.34 -75.88,25.03 -19.25,16.69 -30.68,41.47 -34.27,74.34zm435.98 -89.36c35.95,-46.73 83.96,-70.1 144.04,-70.1 60.08,0 108.23,23.5 144.42,70.49 36.21,46.99 54.31,116.96 54.31,209.9 0,92.95 -18.1,162.78 -54.31,209.52 -36.2,46.73 -84.35,70.09 -144.42,70.09 -60.09,0 -108.1,-23.36 -144.04,-70.09 -35.95,-46.74 -53.92,-116.58 -53.92,-209.52 0,-93.47 17.97,-163.56 53.92,-210.29zm46.22 371.67c21.57,38.77 54.18,58.16 97.83,58.16 43.65,0 76.39,-19.39 98.22,-58.16 21.82,-38.77 32.73,-92.57 32.73,-161.37 0,-69.33 -10.91,-123.38 -32.73,-162.14 -21.83,-38.78 -54.57,-58.16 -98.22,-58.16 -43.65,0 -76.26,19.38 -97.83,58.16 -21.57,38.77 -32.35,92.82 -32.35,162.14 0,68.81 10.78,122.61 32.35,161.37zm447.54 -282.31l-67.79 0c3.08,-51.87 21.18,-91.41 54.3,-118.63 33.13,-27.22 74.85,-40.83 125.18,-40.83 52.38,0 94.62,14.25 126.72,42.75 32.1,28.51 48.14,68.95 48.14,121.33 0,63.68 -39.8,128.64 -119.4,194.88l-135.57 114.01 0 16.95 271.91 0 0 60.08 -370.51 0 0 -76.26 79.34 -64.71c49.3,-39.54 90.13,-74.21 122.48,-103.99 12.33,-10.79 22.21,-20.03 29.66,-27.73 7.44,-7.71 15.92,-17.85 25.42,-30.43 9.5,-12.58 16.69,-25.81 21.57,-39.67 4.88,-13.87 7.32,-28.25 7.32,-43.14 0,-33.38 -9.76,-59.06 -29.28,-77.03 -19.51,-17.98 -45.96,-26.96 -79.34,-26.96 -31.33,0 -56.62,8.34 -75.88,25.03 -19.25,16.69 -30.68,41.47 -34.27,74.34zm479.12 390.54l-80.12 0 0 -89.36 80.12 0 0 89.36zm134.03 -479.89c35.95,-46.73 83.96,-70.1 144.04,-70.1 60.08,0 108.23,23.5 144.42,70.49 36.21,46.99 54.31,116.96 54.31,209.9 0,92.95 -18.1,162.78 -54.31,209.52 -36.2,46.73 -84.35,70.09 -144.42,70.09 -60.09,0 -108.1,-23.36 -144.04,-70.09 -35.95,-46.74 -53.92,-116.58 -53.92,-209.52 0,-93.47 17.97,-163.56 53.92,-210.29zm46.22 371.67c21.57,38.77 54.18,58.16 97.83,58.16 43.65,0 76.39,-19.39 98.22,-58.16 21.82,-38.77 32.73,-92.57 32.73,-161.37 0,-69.33 -10.91,-123.38 -32.73,-162.14 -21.83,-38.78 -54.57,-58.16 -98.22,-58.16 -43.65,0 -76.26,19.38 -97.83,58.16 -21.57,38.77 -32.35,92.82 -32.35,162.14 0,68.81 10.78,122.61 32.35,161.37zm878.91 -8.86l65.47 0c-7.7,39.03 -25.8,69.97 -54.31,92.82 -28.5,22.86 -64.83,34.28 -109,34.28 -58.54,0 -104.63,-19.13 -138.27,-57.38 -33.64,-38.26 -50.45,-87.18 -50.45,-146.74 0,-60.09 16.69,-109.13 50.07,-147.12 33.38,-38 79.6,-57.01 138.65,-57.01 44.68,0 81.02,11.17 109,33.51 27.99,22.34 45.33,52 52,88.98l-65.48 0c-13.86,-43.66 -45.7,-65.48 -95.52,-65.48 -41.59,0 -72.53,13.74 -92.82,41.21 -20.28,27.48 -30.43,62.27 -30.43,104.38 0,42.62 10.27,78.06 30.82,106.3 20.54,28.25 51.35,42.37 92.43,42.37 54.44,0 87.05,-23.37 97.84,-70.1zm163.3 117.09l0 -388.23 103.99 0 95.52 177.16 16.95 0 95.52 -177.16 102.45 0 0 388.23 -63.94 0 0 -311.97 -16.95 0 -90.12 166.38 -72.41 0 -90.13 -166.38 -16.95 0 0 311.97 -63.93 0z"/>
   <path fill="#666666" fill-rule="nonzero" fill-opacity="0.800000" d="M5395.53 4709.8l463.71 233.4 0 70.87 -463.71 -234.17 -16.95 0 0 273.45 -58.54 0 0 -343.55 75.49 0zm-75.49 -101.69l0 -315.05 75.49 0 115.55 134.81 16.17 0c1.03,-47.76 15.92,-86.4 44.68,-115.93 28.76,-29.53 68.56,-44.3 119.4,-44.3 54.95,0 98.34,17.72 130.18,53.16 31.84,35.43 47.76,81.14 47.76,137.11 0,53.92 -15.15,98.09 -45.44,132.5 -30.3,34.4 -68.82,53.15 -115.55,56.23l0 -67.79c30.3,-3.08 54.69,-15.79 73.18,-38.13 18.49,-22.34 27.73,-49.94 27.73,-82.81 0,-37.49 -10.53,-67.27 -31.58,-89.35 -21.06,-22.09 -49.82,-33.13 -86.28,-33.13 -35.95,0 -64.06,10.53 -84.35,31.58 -20.28,21.06 -30.43,51.1 -30.43,90.13 0,19 1.54,34.67 4.62,46.99l-71.64 0 -114 -131.72 -16.95 0 0 235.7 -58.54 0zm539.2 -516.86l0 80.12 -89.36 0 0 -80.12 89.36 0zm-479.89 -134.03c-46.73,-35.95 -70.1,-83.96 -70.1,-144.04 0,-60.08 23.5,-108.23 70.49,-144.42 46.99,-36.21 116.96,-54.31 209.9,-54.31 92.95,0 162.78,18.1 209.52,54.31 46.73,36.2 70.09,84.35 70.09,144.42 0,60.09 -23.36,108.1 -70.09,144.04 -46.74,35.95 -116.58,53.92 -209.52,53.92 -93.47,0 -163.56,-17.97 -210.29,-53.92zm371.67 -46.22c38.77,-21.57 58.16,-54.18 58.16,-97.83 0,-43.65 -19.39,-76.39 -58.16,-98.22 -38.77,-21.82 -92.57,-32.73 -161.37,-32.73 -69.33,0 -123.38,10.91 -162.14,32.73 -38.78,21.83 -58.16,54.57 -58.16,98.22 0,43.65 19.38,76.26 58.16,97.83 38.77,21.57 92.82,32.35 162.14,32.35 68.81,0 122.61,-10.78 161.37,-32.35zm-8.86 -878.91l0 -65.47c39.03,7.7 69.97,25.8 92.82,54.31 22.86,28.5 34.28,64.83 34.28,109 0,58.54 -19.13,104.63 -57.38,138.27 -38.26,33.64 -87.18,50.45 -146.74,50.45 -60.09,0 -109.13,-16.69 -147.12,-50.07 -38,-33.38 -57.01,-79.6 -57.01,-138.65 0,-44.68 11.17,-81.02 33.51,-109 22.34,-27.99 52,-45.33 88.98,-52l0 65.48c-43.66,13.86 -65.48,45.7 -65.48,95.52 0,41.59 13.74,72.53 41.21,92.82 27.48,20.28 62.27,30.43 104.38,30.43 42.62,0 78.06,-10.27 106.3,-30.82 28.25,-20.54 42.37,-51.35 42.37,-92.43 0,-54.44 -23.37,-87.05 -70.1,-97.84zm117.09 -163.3l-388.23 0 0 -103.99 177.16 -95.52 0 -16.95 -177.16 -95.52 0 -102.45 388.23 0 0 63.94 -311.97 0 0 16.95 166.38 90.12 0 72.41 -166.38 90.13 0 16.95 311.97 0 0 63.93z"/>
   <path fill="#666666" fill-rule="nonzero" fill-opacity="0.800000" d="M5859.24 11901.18l-60.08 0 0 -127.87 -408.26 0 0 15.4 76.26 113.24 -70.87 0 -76.26 -112.47 0 -83.96 479.12 0 0 -117.86 60.08 0 0 313.51zm-479.89 -439.06c-46.73,-35.95 -70.1,-83.96 -70.1,-144.04 0,-60.08 23.5,-108.23 70.49,-144.42 46.99,-36.21 116.96,-54.31 209.9,-54.31 92.95,0 162.78,18.1 209.52,54.31 46.73,36.2 70.09,84.35 70.09,144.42 0,60.09 -23.36,108.1 -70.09,144.04 -46.74,35.95 -116.58,53.92 -209.52,53.92 -93.47,0 -163.56,-17.97 -210.29,-53.92zm371.67 -46.22c38.77,-21.57 58.16,-54.18 58.16,-97.83 0,-43.65 -19.39,-76.39 -58.16,-98.22 -38.77,-21.82 -92.57,-32.73 -161.37,-32.73 -69.33,0 -123.38,10.91 -162.14,32.73 -38.78,21.83 -58.16,54.57 -58.16,98.22 0,43.65 19.38,76.26 58.16,97.83 38.77,21.57 92.82,32.35 162.14,32.35 68.81,0 122.61,-10.78 161.37,-32.35zm-355.49 -712.52l463.71 233.4 0 70.87 -463.71 -234.17 -16.95 0 0 273.45 -58.54 0 0 -343.55 75.49 0zm463.71 -180.25l0 80.12 -89.36 0 0 -80.12 89.36 0zm-479.89 -134.03c-46.73,-35.95 -70.1,-83.96 -70.1,-144.04 0,-60.08 23.5,-108.23 70.49,-144.42 46.99,-36.21 116.96,-54.31 209.9,-54.31 92.95,0 162.78,18.1 209.52,54.31 46.73,36.2 70.09,84.35 70.09,144.42 0,60.09 -23.36,108.1 -70.09,144.04 -46.74,35.95 -116.58,53.92 -209.52,53.92 -93.47,0 -163.56,-17.97 -210.29,-53.92zm371.67 -46.22c38.77,-21.57 58.16,-54.18 58.16,-97.83 0,-43.65 -19.39,-76.39 -58.16,-98.22 -38.77,-21.82 -92.57,-32.73 -161.37,-32.73 -69.33,0 -123.38,10.91 -162.14,32.73 -38.78,21.83 -58.16,54.57 -58.16,98.22 0,43.65 19.38,76.26 58.16,97.83 38.77,21.57 92.82,32.35 162.14,32.35 68.81,0 122.61,-10.78 161.37,-32.35zm-8.86 -878.91l0 -65.47c39.03,7.7 69.97,25.8 92.82,54.31 22.86,28.5 34.28,64.83 34.28,109 0,58.54 -19.13,104.63 -57.38,138.27 -38.26,33.64 -87.18,50.45 -146.74,50.45 -60.09,0 -109.13,-16.69 -147.12,-50.07 -38,-33.38 -57.01,-79.6 -57.01,-138.65 0,-44.68 11.17,-81.02 33.51,-109 22.34,-27.99 52,-45.33 88.98,-52l0 65.48c-43.66,13.86 -65.48,45.7 -65.48,95.52 0,41.59 13.74,72.53 41.21,92.82 27.48,20.28 62.27,30.43 104.38,30.43 42.62,0 78.06,-10.27 106.3,-30.82 28.25,-20.54 42.37,-51.35 42.37,-92.43 0,-54.44 -23.37,-87.05 -70.1,-97.84zm117.09 -163.3l-388.23 0 0 -103.99 177.16 -95.52 0 -16.95 -177.16 -95.52 0 -102.45 388.23 0 0 63.94 -311.97 0 0 16.95 166.38 90.12 0 72.41 -166.38 90.13 0 16.95 311.97 0 0 63.93z"/>
   <path fill="#666666" fill-rule="nonzero" fill-opacity="0.800000" d="M9277.27 15358.22l0 -60.08 127.87 0 0 -408.26 -15.4 0 -113.24 76.26 0 -70.87 112.47 -76.26 83.96 0 0 479.12 117.86 0 0 60.08 -313.51 0zm593.89 -351.26c49.3,0 90.39,16.57 123.26,49.69 32.86,33.12 49.3,75.11 49.3,125.95 0,52.89 -16.57,97.06 -49.69,132.49 -33.12,35.44 -77.67,53.15 -133.65,53.15 -61.11,0 -109.39,-21.05 -144.81,-63.16 -35.44,-42.11 -53.15,-109.39 -53.15,-201.82 0,-86.79 17.33,-157.64 51.99,-212.59 34.67,-54.95 85.64,-82.43 152.9,-82.43 44.68,0 81.27,11.94 109.77,35.82 28.51,23.88 45.84,54.82 52,92.82l-67.02 0c-13.35,-45.7 -44.93,-68.55 -94.75,-68.55 -42.62,0 -76,16.94 -100.14,50.84 -24.14,33.89 -37.23,80.62 -39.29,140.19l16.95 0c11.3,-13.87 27.86,-26.07 49.69,-36.59 21.82,-10.53 47.37,-15.8 76.64,-15.8zm-96.29 268.07c22.6,22.08 50.85,33.12 84.74,33.12 33.89,0 61.75,-10.79 83.58,-32.35 21.82,-21.57 32.74,-51.62 32.74,-90.13 0,-38.52 -11.04,-68.05 -33.13,-88.59 -22.08,-20.54 -50.32,-30.81 -84.73,-30.81 -33.9,0 -61.88,10.53 -83.97,31.58 -22.08,21.06 -33.12,50.07 -33.12,87.05 0,38 11.3,68.04 33.89,90.13zm398.25 -396.71c35.95,-46.73 83.96,-70.1 144.04,-70.1 60.08,0 108.23,23.5 144.42,70.49 36.21,46.99 54.31,116.96 54.31,209.9 0,92.95 -18.1,162.78 -54.31,209.52 -36.2,46.73 -84.35,70.09 -144.42,70.09 -60.09,0 -108.1,-23.36 -144.04,-70.09 -35.95,-46.74 -53.92,-116.58 -53.92,-209.52 0,-93.47 17.97,-163.56 53.92,-210.29zm46.22 371.67c21.57,38.77 54.18,58.16 97.83,58.16 43.65,0 76.39,-19.39 98.22,-58.16 21.82,-38.77 32.73,-92.57 32.73,-161.37 0,-69.33 -10.91,-123.38 -32.73,-162.14 -21.83,-38.78 -54.57,-58.16 -98.22,-58.16 -43.65,0 -76.26,19.38 -97.83,58.16 -21.57,38.77 -32.35,92.82 -32.35,162.14 0,68.81 10.78,122.61 32.35,161.37zm450.62 108.23l-80.12 0 0 -89.36 80.12 0 0 89.36zm1988.13 -188.72c-49.31,0 -90.39,-16.56 -123.26,-49.68 -32.86,-33.13 -49.3,-75.11 -49.3,-125.95 0,-52.9 16.57,-97.06 49.69,-132.5 33.12,-35.43 77.67,-53.15 133.65,-53.15 61.11,0 109.39,21.06 144.81,63.17 35.43,42.11 53.15,109.38 53.15,201.81 0,86.79 -17.33,157.65 -51.99,212.6 -34.67,54.95 -85.64,82.42 -152.9,82.42 -44.68,0 -81.27,-11.94 -109.77,-35.82 -28.51,-23.88 -45.84,-54.82 -52,-92.82l67.02 0c13.35,45.71 44.93,68.56 94.75,68.56 42.62,0 76,-16.95 100.14,-50.84 24.14,-33.9 37.23,-80.63 39.28,-140.19l-16.94 0c-11.3,13.87 -27.86,26.06 -49.69,36.59 -21.82,10.53 -47.37,15.79 -76.64,15.79zm96.29 -268.06c-22.6,-22.08 -50.85,-33.12 -84.74,-33.12 -33.89,0 -61.75,10.78 -83.58,32.35 -21.83,21.57 -32.74,51.61 -32.74,90.13 0,38.51 11.04,68.04 33.13,88.58 22.08,20.55 50.32,30.82 84.73,30.82 33.89,0 61.88,-10.53 83.97,-31.59 22.08,-21.05 33.12,-50.07 33.12,-87.04 0,-38 -11.3,-68.05 -33.89,-90.13zm263.44 66.25l-67.79 0c3.08,-51.87 21.18,-91.41 54.3,-118.63 33.13,-27.22 74.85,-40.83 125.18,-40.83 52.38,0 94.62,14.25 126.72,42.75 32.1,28.51 48.14,68.95 48.14,121.33 0,63.68 -39.8,128.64 -119.4,194.88l-135.57 114.01 0 16.95 271.91 0 0 60.08 -370.51 0 0 -76.26 79.34 -64.71c49.3,-39.54 90.13,-74.21 122.48,-103.99 12.33,-10.79 22.21,-20.03 29.66,-27.73 7.44,-7.71 15.92,-17.85 25.42,-30.43 9.5,-12.58 16.69,-25.81 21.57,-39.67 4.88,-13.87 7.32,-28.25 7.32,-43.14 0,-33.38 -9.76,-59.06 -29.28,-77.03 -19.51,-17.98 -45.96,-26.96 -79.34,-26.96 -31.33,0 -56.62,8.34 -75.88,25.03 -19.25,16.69 -30.68,41.47 -34.27,74.34zm1538.28 273.45l65.47 0c-7.7,39.03 -25.8,69.97 -54.31,92.82 -28.5,22.86 -64.83,34.28 -109,34.28 -58.54,0 -104.63,-19.13 -138.27,-57.38 -33.64,-38.26 -50.45,-87.18 -50.45,-146.74 0,-60.09 16.69,-109.13 50.07,-147.12 33.38,-38 79.6,-57.01 138.65,-57.01 44.68,0 81.02,11.17 109,33.51 27.99,22.34 45.33,52 52,88.98l-65.48 0c-13.86,-43.66 -45.7,-65.48 -95.52,-65.48 -41.59,0 -72.53,13.74 -92.82,41.21 -20.28,27.48 -30.43,62.27 -30.43,104.38 0,42.62 10.27,78.06 30.82,106.3 20.54,28.25 51.35,42.37 92.43,42.37 54.44,0 87.05,-23.37 97.84,-70.1zm163.3 117.09l0 -388.23 103.99 0 95.52 177.16 16.95 0 95.52 -177.16 102.45 0 0 388.23 -63.94 0 0 -311.97 -16.95 0 -90.12 166.38 -72.41 0 -90.13 -166.38 -16.95 0 0 311.97 -63.93 0zm-3893.84 -479.89c35.95,-46.73 83.96,-70.1 144.04,-70.1 60.08,0 108.23,23.5 144.42,70.49 36.21,46.99 54.31,116.96 54.31,209.9 0,92.95 -18.1,162.78 -54.31,209.52 -36.2,46.73 -84.35,70.09 -144.42,70.09 -60.09,0 -108.1,-23.36 -144.04,-70.09 -35.95,-46.74 -53.92,-116.58 -53.92,-209.52 0,-93.47 17.97,-163.56 53.92,-210.29zm46.22 371.67c21.57,38.77 54.18,58.16 97.83,58.16 43.65,0 76.39,-19.39 98.22,-58.16 21.82,-38.77 32.73,-92.57 32.73,-161.37 0,-69.33 -10.91,-123.38 -32.73,-162.14 -21.83,-38.78 -54.57,-58.16 -98.22,-58.16 -43.65,0 -76.26,19.38 -97.83,58.16 -21.57,38.77 -32.35,92.82 -32.35,162.14 0,68.81 10.78,122.61 32.35,161.37zm875.82 108.23l-96.29 -162.53 -27.73 0 -98.6 162.53 -71.64 0 120.94 -198.73 -108.61 -189.49 69.33 0 89.35 154.05 27.73 0 90.9 -154.05 68.56 0 -110.16 187.18 120.17 201.04 -73.95 0zm362.05 0l0 -60.08 127.87 0 0 -408.26 -15.4 0 -113.24 76.26 0 -70.87 112.47 -76.26 83.96 0 0 479.12 117.86 0 0 60.08 -313.51 0zm1387.3 0l-80.12 0 0 -89.36 80.12 0 0 89.36zm134.03 -479.89c35.95,-46.73 83.96,-70.1 144.04,-70.1 60.08,0 108.23,23.5 144.42,70.49 36.21,46.99 54.31,116.96 54.31,209.9 0,92.95 -18.1,162.78 -54.31,209.52 -36.2,46.73 -84.35,70.09 -144.42,70.09 -60.09,0 -108.1,-23.36 -144.04,-70.09 -35.95,-46.74 -53.92,-116.58 -53.92,-209.52 0,-93.47 17.97,-163.56 53.92,-210.29zm46.22 371.67c21.57,38.77 54.18,58.16 97.83,58.16 43.65,0 76.39,-19.39 98.22,-58.16 21.82,-38.77 32.73,-92.57 32.73,-161.37 0,-69.33 -10.91,-123.38 -32.73,-162.14 -21.83,-38.78 -54.57,-58.16 -98.22,-58.16 -43.65,0 -76.26,19.38 -97.83,58.16 -21.57,38.77 -32.35,92.82 -32.35,162.14 0,68.81 10.78,122.61 32.35,161.37z"/>
   <g>
    <line fill="none" stroke="gray" stroke-width="10.58" stroke-miterlimit="22.9256" x1="5879.18" y1="5951.4" x2="7010.11" y2= "5951.4" />
    <line fill="none" stroke="gray" stroke-width="10.58" stroke-miterlimit="22.9256" x1="5876.42" y1="1718.45" x2="7010.11" y2= "1718.45" />
    <line fill="none" stroke="gray" stroke-width="10.58" stroke-miterlimit="22.9256" x1="6304.19" y1="6373.06" x2="6304.19" y2= "1351.1" />
   </g>
   <g>
    <line fill="none" stroke="gray" stroke-width="10.58" stroke-miterlimit="22.9256" x1="5879.18" y1="12758.66" x2="7010.11" y2= "12758.66" />
    <line fill="none" stroke="gray" stroke-width="10.58" stroke-miterlimit="22.9256" x1="5876.42" y1="7951.81" x2="7010.11" y2= "7951.81" />
    <line fill="none" stroke="gray" stroke-width="10.58" stroke-miterlimit="22.9256" x1="6304.19" y1="13203.72" x2="6304.19" y2= "7584.45" />
   </g>
   <g>
    <line fill="none" stroke="gray" stroke-width="10.58" stroke-miterlimit="22.9256" x1="7233.96" y1="19135.83" x2="7233.96" y2= "18002.14" />
    <line fill="none" stroke="gray" stroke-width="10.58" stroke-miterlimit="22.9256" x1="17533.83" y1="18708.06" x2="6795.6" y2= "18708.06" />
    <line fill="none" stroke="gray" stroke-width="10.58" stroke-miterlimit="22.9256" x1="17161.33" y1="19133.06" x2="17161.33" y2= "18002.14" />
   </g>
  </g>
  <rect fill="none" width="29698.94" height="20999.25"/>
 </g>
</svg>
