<?xml version="1.0" encoding="UTF-8"?>
<!DOCTYPE svg PUBLIC "-//W3C//DTD SVG 1.1//EN" "http://www.w3.org/Graphics/SVG/1.1/DTD/svg11.dtd">
<!-- Creator: CorelDRAW 2021.5 -->
<svg xmlns="http://www.w3.org/2000/svg" xml:space="preserve" width="297mm" height="210mm" version="1.1" shape-rendering="geometricPrecision" text-rendering="geometricPrecision" image-rendering="optimizeQuality" fill-rule="evenodd" clip-rule="evenodd"
viewBox="0 0 29698.94 20999.25"
 xmlns:xlink="http://www.w3.org/1999/xlink"
 xmlns:xodm="http://www.corel.com/coreldraw/odm/2003">
 <g id="Тени">
  <metadata id="CorelCorpID_0Corel-Layer"/>
  <g id="_2237896210640">
   <path fill="black" fill-opacity="0.101961" d="M5953.31 11960.43c43.16,-806.03 276.42,-1027.93 531.95,-1042.29 27.04,-1.5 95.47,0.55 126.77,-0.6 -218.01,-38.31 -506.37,-3.59 -608.1,-41.49 -61.17,-22.79 -64.36,-85.38 -69.93,-158.73 -6.75,-88.69 -14.68,-417.24 -8.65,-456.58l20.22 -438.9c3.89,-84.84 74.72,-177.01 59.78,-175.34l-109.01 12.29 -15.83 112.55 0 3380.74c33.33,-915.18 30.59,-404.11 72.8,-1191.63zm2227.12 -1051.85c151.92,9.79 273.81,43.57 301.69,54.32 269.92,104.17 459.08,271.34 501.79,1042.8 19.39,350.07 69.02,1146.36 69.02,1146.36 0,0 65.86,-899.98 72.95,-1143.71 35.68,-1226.25 457.63,-1039.59 1076.88,-1077.24 109.36,-6.62 421.74,-11.8 515.75,-20.99 -23.66,0.54 -232.33,0.37 -255.65,0.58 -534.87,4.94 -1077.02,14.02 -1287.68,-46.77 -55.42,-16.01 -43.05,-124.86 -52.58,-238.77 -14.29,-170.83 -28.21,-376.19 -21.64,-419.33l32.62 -404.72c4.83,-60.12 32.58,-120.72 65.01,-146.12l-117.44 0.34 -25.3 48.63 -32.32 -47.2 -131.75 -5.77c50.95,7.72 60.37,114.55 68,193.83l36.07 375.14c1.32,13.75 -0.49,27.13 -2.6,39.76l1.03 0.03c-3.51,53.52 7.52,288.14 -11.26,451.06 -8.13,70.71 3.9,124.52 -36.33,149.82 -80.34,50.59 -446.39,34.88 -766.26,47.94zm3149.92 7.19c197.23,3.42 399.49,49.37 541.67,169.73 263.65,223.16 270.77,372.01 307.26,1018.25 53.49,947.52 29.91,727.72 52.25,966.13 59.53,-494.69 126.64,-1749.29 429.56,-1964.97 288.34,-205.31 891.11,-198.83 1102.66,-199.13 202.39,-0.3 778.82,-20.2 1093.02,210.44 296.89,217.92 452.6,502.11 569.39,1948.15l0 -3358.76 -41.9 -61.8 -75.79 -4.77 69.54 488.54 -7.43 638.19 -47.37 98.69 -94.94 18.13 -772.89 22.38 -1383.25 1.6 -685.65 -37.23 -47.69 -51.63 -19.63 -297.72 -8.99 -383.05 31.81 -376.58 53.11 -121.33 -130.83 3.1 -33.03 55.86 -36.59 -48.21 -90.78 -3.23c24.83,28.18 39.47,124.48 44.19,175.22l35.84 384.05c1.3,13.75 -0.5,27.13 -2.59,39.76l1.01 0.03c-5.02,76.76 26.64,557.71 -50.06,609.63 -94.33,63.87 -490.81,13.64 -801.92,60.52z"/>
   <polygon fill="black" fill-opacity="0.101961" points="18577.28,2718.74 20611.68,2718.74 20642.92,2838.18 18638.78,2838.18 18573.23,2894.7 18577.28,2838.18 "/>
   <path fill="black" fill-opacity="0.101961" d="M6392.28 1627.15c497.26,58.68 650.77,173.29 1048.66,179.55 424.09,6.67 544.91,-89.77 1204.61,-192.48 -370.96,8.12 -733.9,28.78 -1104.86,36.91l-1148.41 -23.98z"/>
   <path fill="black" fill-opacity="0.101961" d="M9514.66 1604.41c616.52,69.18 706.38,183.64 1104.28,189.66 424.09,6.41 642.85,-168.18 1116.99,-179.51 -370.96,7.8 -733.9,18.89 -1104.86,26.72l-1116.41 -36.87z"/>
   <path fill="black" fill-opacity="0.101961" d="M6334.56 3462.26c533.95,-59.47 738.39,-145.99 1136.29,-151.17 424.09,-5.51 487.32,87.47 1116.98,161.87 -370.95,-6.71 -747.66,16.16 -1118.62,9.43l-1134.65 -20.13z"/>
   <path fill="black" fill-opacity="0.101961" d="M9482.65 3464.37c653.22,-132.45 732.3,-164.63 1130.2,-173.65 424.08,-9.62 557.62,39.75 1123.07,179.12 -370.95,-11.7 -743.07,-7.81 -1114.03,-19.54l-1139.24 14.07z"/>
   <g>
    <path fill="black" fill-opacity="0.101961" d="M12633.83 1610.91c616.52,69.18 706.38,183.64 1104.28,189.66 424.09,6.41 642.85,-168.17 1116.99,-179.51 -370.96,7.8 -733.9,18.9 -1104.86,26.72l-1116.41 -36.87z"/>
    <path fill="black" fill-opacity="0.101961" d="M12601.82 3470.87c653.22,-132.45 732.3,-164.63 1130.19,-173.65 424.09,-9.61 557.63,39.75 1123.08,179.12 -370.95,-11.7 -743.07,-7.81 -1114.03,-19.54l-1139.24 14.07z"/>
   </g>
   <path fill="black" fill-opacity="0.101961" d="M5894.99 3659.84l11.4 -106.59 72.29 -25.19 3.86 760.02 0.35 0c-3.98,-1431.18 -0.35,-768.98 2.85,0l2997.02 0 3.45 -763.57 42.51 18.91 32.65 33.41 46.21 -38.63 34.81 -10.16 -3.1 760.04 2734.51 0 138.61 -760.04 193.83 -0.39 -35.22 53.93 -4.75 84.29 -4.98 561.54 18.87 41.97 39.94 18.71c1103.07,0 2115.4,0 3213.75,0l0 196.5c-1098.36,0 -2114.45,0 -3212.91,0l3.62 795.66 19.05 23 -1119.46 3.18 354.78 -821.84 -5492.37 0c3.18,798.3 5.14,1529.05 -2.98,0l-0.12 0 2.48 817.87 -59.34 0 -34.03 -37.37 1.17 -780.5 -9.6 0 4.2 -167.07 5.67 -5.21 0.99 -652.47z"/>
   <polygon fill="black" fill-opacity="0.101961" points="23184.68,4333.67 26531.08,4333.67 26531.08,4453.13 23184.68,4453.13 "/>
   <g>
    <rect fill="none" stroke="#2B2A29" stroke-width="10.58" stroke-miterlimit="22.9256" x="22816.17" y="5325.26" width="156.61" height="136.59"/>
    <rect fill="none" stroke="#2B2A29" stroke-width="10.58" stroke-miterlimit="22.9256" x="18747.97" y="5323.69" width="156.61" height="136.59"/>
    <path fill="none" stroke="#2B2A29" stroke-width="10.58" stroke-miterlimit="22.9256" d="M18573.64 2950.09l0 2350.68c0,9.79 8.01,17.81 17.81,17.81l4579.52 0c9.8,0 17.81,-8.02 17.81,-17.81l0 -2233.61c0,-123.83 -101.31,-225.13 -225.13,-225.13l-4281.94 0c-59.44,0 -108.07,48.63 -108.07,108.07z"/>
    <path fill="none" stroke="#2B2A29" stroke-width="10.58" stroke-miterlimit="22.9256" d="M23202.24 3587.65c0,0 90.33,16.59 90.33,107.54 0,90.94 5.69,363.37 3.92,408.76 -1.78,45.4 -7.92,192.73 -93.63,192.73"/>
    <path fill="none" stroke="black" stroke-width="10.58" stroke-miterlimit="22.9256" d="M19743.66 2842.03l-268.74 -974.11c-25.2,-91.38 -65.68,-181.43 65.69,-202.21l387.72 -61.32c34.85,-5.51 129.95,-19.49 169.39,123.54l305.93 1108.87"/>
    <path fill="none" stroke="black" stroke-width="10.58" stroke-miterlimit="22.9256" d="M19497.27 1677.34c-93.13,18.46 -152.4,121.65 -155.53,224.51 -4.39,144.51 210.55,914.09 220.22,940.17"/>
    <path fill="none" stroke="black" stroke-width="10.58" stroke-miterlimit="22.9256" d="M19956.85 1601.33c170.61,-25.6 314.51,259.91 342.14,313.76 147.63,287.7 335.74,868.79 351.86,926.93"/>
    <path fill="none" stroke="black" stroke-width="10.58" stroke-miterlimit="22.9256" d="M18676.73 1983.83c-118.94,11.46 -118.02,216.21 -107.02,520.55 3.2,88.74 3.96,372.87 3.51,715.59"/>
    <path fill="none" stroke="black" stroke-width="10.58" stroke-miterlimit="22.9256" d="M19243.8 1983.83c53.29,5.13 90.54,12.94 116.29,110.95 67.5,256.73 185.78,652.44 185.94,752.05"/>
    <line fill="none" stroke="black" stroke-width="10.58" stroke-miterlimit="22.9256" x1="18676.72" y1="1983.83" x2="19243.8" y2= "1983.83" />
    <polyline fill="none" stroke="black" stroke-width="10.58" stroke-miterlimit="22.9256" points="23086.19,5318.11 26531.08,5322.43 26531.08,4330.23 23173.19,4330.23 "/>
    <path fill="none" stroke="black" stroke-width="10.58" stroke-miterlimit="22.9256" d="M23186.59 3567.46l3352.15 2.11c85.91,0.03 156.17,56.68 156.17,125.59l0 509.48c0,68.91 -70.47,125.59 -156.17,125.59l-3354.05 0"/>
    <rect fill="none" stroke="black" stroke-width="10.58" stroke-miterlimit="22.9256" x="26263.62" y="5329.9" width="160.39" height="139.89"/>
   </g>
   <g>
    <path fill="none" stroke="#2B2A29" stroke-width="10.58" stroke-miterlimit="22.9256" d="M5941.47 10767c8.63,71.17 23.81,108.88 103.82,118.5 412.12,49.58 2514.52,31.53 2855.87,-2.09 39.54,-5.86 53.27,-24.2 66.97,-70.01 27.77,-86 25.66,-480.79 25.66,-611.64 6.29,-75.9 -41.16,-422.45 -56.19,-502.82 -8.59,-36.65 -37.9,-49.84 -62.48,-49.23 -910.33,-3.54 -1644.96,-1.67 -2572.01,-4.15 -49.21,2.09 -156.9,-6.88 -236.91,0.61 -50.4,4.73 -79.51,25.36 -89.45,54.25 -52.47,122.64 -42.53,347.85 -51.78,413.84 -4.79,118.11 13.31,521.22 16.5,652.75z"/>
    <path fill="none" stroke="#2B2A29" stroke-width="10.58" stroke-miterlimit="22.9256" d="M5926.78 10342.59c-4.6,-221.17 14.65,-213.08 118.02,-210.43 85.42,-2.91 2801.83,-12.31 2830.09,-3.22 53.05,4.44 132.06,-28.67 118.98,102.5"/>
    <path fill="none" stroke="#2B2A29" stroke-width="10.58" stroke-miterlimit="22.9256" d="M6282.38 9645.52c-0.1,-7.76 -1.8,-57.82 -1.94,-65.58 2.74,-49.95 20.67,-71.38 124.8,-71.38 724,0 1394.73,0 2118.74,0 92.42,0 137.7,-0.99 135.27,81.14l0 58.7"/>
    <path fill="none" stroke="#2B2A29" stroke-width="10.58" stroke-miterlimit="22.9256" d="M9127.03 10761.61c8.63,71.17 23.82,108.88 103.83,118.5 412.11,49.58 2514.51,31.53 2855.86,-2.09 39.55,-5.86 53.28,-24.2 66.97,-70.01 27.77,-86 25.66,-480.79 25.66,-611.64 6.29,-75.9 -41.15,-422.45 -56.19,-502.82 -8.59,-36.65 -37.89,-49.84 -62.48,-49.23 -910.33,-3.54 -1644.96,-1.67 -2572.01,-4.15 -49.21,2.09 -156.9,-6.88 -236.91,0.61 -50.4,4.73 -79.51,25.36 -89.44,54.25 -52.47,122.64 -42.54,347.85 -51.78,413.84 -4.8,118.11 13.31,521.23 16.49,652.75z"/>
    <path fill="none" stroke="#2B2A29" stroke-width="10.58" stroke-miterlimit="22.9256" d="M9112.35 10337.2c-4.61,-221.17 14.65,-213.08 118.02,-210.42 85.41,-2.92 2801.82,-12.32 2830.09,-3.22 53.04,4.43 132.05,-28.67 118.97,102.5"/>
    <path fill="none" stroke="#2B2A29" stroke-width="10.58" stroke-miterlimit="22.9256" d="M9467.95 9640.13c-0.11,-7.76 -1.8,-57.82 -1.95,-65.58 2.75,-49.95 20.67,-71.37 124.8,-71.37 724.01,0 1394.73,0 2118.75,0 92.41,0 137.7,-1 135.26,81.13l0 58.71"/>
    <polyline fill="none" stroke="#2B2A29" stroke-width="10.58" stroke-miterlimit="22.9256" stroke-dasharray="52.898112 52.898112" points="5880.54,13205.29 5881.7,17971.75 12227.58,17971.75 12229.17,13213.33 "/>
    <path fill="none" stroke="black" stroke-width="10.58" stroke-miterlimit="22.9256" d="M15534.09 13159.83c-77.96,-39.88 -93.54,-243.53 -93.54,-711.35 0,-188.58 11.87,-2651.67 2.58,-2980.38 -10.7,-381.78 6.18,-589.32 95.26,-624.74 88.29,-48.33 795.89,-43.84 874.05,-2.41 89.84,32.52 113.06,269.09 102.33,648.84 -9.26,327.05 2.56,2777.41 2.56,2965.04 0,465.34 -15.56,668.01 -94.19,705.35 -80.25,42.69 -817.34,32.71 -889.05,-0.35z"/>
    <path fill="none" stroke="black" stroke-width="10.58" stroke-miterlimit="22.9256" d="M12231.71 8927.04c-21.06,-122.56 -399.17,-126.68 -957.53,-115.27 -480.81,9.8 -4083.4,-2.77 -4359.26,-2.77 -684.2,0 -1027.47,-14.88 -1057.5,129.66"/>
    <path fill="none" stroke="black" stroke-width="10.58" stroke-miterlimit="22.9256" d="M5793.67 13162.45c77.97,-40 93.55,-244.25 93.55,-713.44 0,-189.15 -11.88,-2659.5 -2.58,-2989.18 10.7,-382.91 -6.18,-591.06 -95.26,-626.58 -88.29,-48.48 -795.89,-43.97 -874.06,-2.43 -89.84,32.62 -113.06,269.89 -102.32,650.76 9.26,328.02 -2.57,2785.61 -2.57,2973.79 0,466.72 15.57,669.98 94.2,707.43 80.24,42.82 817.33,32.8 889.04,-0.35z"/>
    <rect fill="none" stroke="black" stroke-width="10.58" stroke-miterlimit="22.9256" x="9059.14" y="9646.57" width="3172.39" height="3630.1" rx="26.14" ry="75.63"/>
    <rect fill="none" stroke="black" stroke-width="10.58" stroke-miterlimit="22.9256" x="5880.53" y="9646.49" width="3172.39" height="3630.18" rx="26.14" ry="75.63"/>
    <g>
     <path fill="none" stroke="#2B2A29" stroke-width="10.58" stroke-miterlimit="22.9256" d="M12327.35 10761.61c8.63,71.17 23.81,108.88 103.82,118.5 412.12,49.58 2514.52,31.53 2855.87,-2.09 39.54,-5.86 53.27,-24.2 66.97,-70.01 27.77,-86 25.66,-480.79 25.66,-611.64 6.29,-75.9 -41.16,-422.45 -56.19,-502.82 -8.6,-36.65 -37.9,-49.84 -62.48,-49.23 -910.33,-3.54 -1644.96,-1.67 -2572.01,-4.15 -49.21,2.09 -156.9,-6.88 -236.91,0.61 -50.4,4.73 -79.51,25.36 -89.45,54.25 -52.47,122.64 -42.53,347.85 -51.78,413.84 -4.79,118.11 13.31,521.23 16.5,652.75z"/>
     <path fill="none" stroke="#2B2A29" stroke-width="10.58" stroke-miterlimit="22.9256" d="M12312.66 10337.2c-4.6,-221.17 14.65,-213.08 118.02,-210.42 85.42,-2.92 2801.83,-12.32 2830.09,-3.22 53.05,4.43 132.06,-28.67 118.98,102.5"/>
     <path fill="none" stroke="#2B2A29" stroke-width="10.58" stroke-miterlimit="22.9256" d="M12668.26 9640.13c-0.1,-7.76 -1.8,-57.82 -1.94,-65.58 2.74,-49.95 20.66,-71.37 124.8,-71.37 724,0 1394.73,0 2118.74,0 92.42,0 137.7,-1 135.27,81.13l0 58.71"/>
    </g>
    <rect fill="none" stroke="black" stroke-width="10.58" stroke-miterlimit="22.9256" x="12230.15" y="9639.04" width="3196.01" height="7305.18" rx="26.34" ry="152.2"/>
    <line fill="none" stroke="black" stroke-width="10.58" stroke-miterlimit="22.9256" x1="12231.71" y1="8927.03" x2="12230.22" y2= "9770.94" />
    <path fill="none" stroke="black" stroke-width="10.58" stroke-miterlimit="22.9256" d="M12231.71 8927.04c20.71,-113.92 169.8,-107.6 430.76,-104.75 243.76,2.66 2126.08,-3.23 2265.88,-3.23 346.73,0 518.39,10.74 533.61,151.01"/>
   </g>
   <g>
    <path fill="none" stroke="black" stroke-width="10.58" stroke-miterlimit="22.9256" d="M12359.94 1610.74c460.03,0 902.61,24.07 1362.64,24.07 466.26,0 1005.9,-24.89 1472.15,-24.89 84.92,0 128.48,47.57 128.48,163.6 0,200.32 -24.2,567.74 -24.2,768.06 0,280.95 21.88,499.46 21.88,780.4 0,116.04 -40.71,151.52 -125.62,151.52 -491.09,0 -999.5,-16.76 -1490.59,-16.76 -407.46,0 -820.31,9.09 -1227.76,16.87 -27.72,0.53 -88.63,-0.99 -116.36,-0.99 -84.92,0 -113.82,-28.64 -113.82,-144.66 0,-242.75 13.44,-518.77 13.44,-761.52 0,-238.51 -13.86,-570.86 -13.86,-809.37 0,-116.03 28.7,-146.33 113.61,-146.33z"/>
    <path fill="none" stroke="black" stroke-width="10.58" stroke-miterlimit="22.9256" d="M16369.12 2731.02l-745.96 0c-16.41,0 -37.95,5.66 -52.85,9.5 -93.77,20.69 -111.52,143 -100.23,368.04 9.73,193.75 -2.72,1645.58 -2.72,1756.74 0,275.73 16.37,395.79 98.73,418.57 19.83,7.82 23.89,11.25 57.07,11.25l745.96 0c32.07,0 35.27,-4.85 55.15,-9.68 82.35,-22.67 98.74,-142.09 98.74,-416.42 0,-110.59 -12.45,-1554.89 -2.72,-1747.66 11.29,-223.85 -13.11,-363.29 -106.88,-383.88 -15.88,-5.14 -26.03,-6.46 -44.29,-6.46z"/>
    <path fill="none" stroke="black" stroke-width="10.58" stroke-miterlimit="22.9256" d="M5957.83 3528.04c1009.47,0 2018.94,0 3028.42,0 41.85,-4.02 50.09,32.52 75.11,48.79 23.65,-16.27 42.06,-52.05 70.93,-48.79l2970.65 0c19.68,0 98.97,-0.12 118.77,-0.64 -36.28,18.98 -55.07,53.54 -55.07,73.86l-0.37 608.39c0,27.86 17.38,64.89 52.55,85.22 -18.63,0 -101.86,0 -115.88,0l-6145.11 0c-34.82,0 -63.33,-38.35 -63.33,-85.22l0 -596.41c0,-46.86 28.5,-85.2 63.33,-85.2z"/>
    <rect fill="none" stroke="black" stroke-width="10.58" stroke-miterlimit="22.9256" x="5894.6" y="4294.87" width="9573.11" height="1007.43" rx="55.72" ry="50.37"/>
    <rect fill="none" stroke="black" stroke-width="10.58" stroke-miterlimit="22.9256" x="4937.14" y="5340.17" width="841.34" height="139.86"/>
    <rect fill="none" stroke="black" stroke-width="10.58" stroke-miterlimit="22.9256" x="15572.85" y="5298.14" width="846.34" height="139.86"/>
    <path fill="none" stroke="black" stroke-width="10.58" stroke-miterlimit="22.9256" d="M5889.33 2989.27l0 -818.41c-4.5,-158.16 21.1,-205.69 77.15,-219.51m9359.03 -7.79c90.62,17.4 143.66,-2.93 148.25,356.05l-2.22 593.88"/>
    <path fill="none" stroke="black" stroke-width="10.58" stroke-miterlimit="22.9256" d="M6109.17 1611.86c463.98,0 876.29,26.07 1340.28,26.07 470.26,0 1011.46,-25.36 1481.73,-25.36 85.65,0 130.76,37.88 130.76,153.9 0,200.32 -22.5,577.91 -22.5,778.23 0,280.94 26.07,493.67 26.07,774.62 0,116.03 -24.92,160.87 -110.57,160.87 -495.32,0 -1027.56,-21.8 -1522.87,-21.8 -319.91,0 -700.19,-6.87 -1014.41,7.44 -152.54,6.94 -237.16,30.01 -396.47,39.08 -85.49,4.87 -67.75,-122.3 -67.75,-238.33 0,-242.75 21.04,-454.27 21.04,-697.03 0,-238.52 -21.04,-596.85 -21.04,-835.36 0,-116.06 70.08,-122.35 155.72,-122.35z"/>
    <line fill="none" stroke="black" stroke-width="10.58" stroke-miterlimit="22.9256" x1="9061.47" y1="4294.87" x2="9061.36" y2= "3581.45" />
    <path fill="none" stroke="black" stroke-width="10.58" stroke-miterlimit="22.9256" d="M9240.77 1604.23c460.03,0 902.61,24.08 1362.64,24.08 466.26,0 1005.9,-24.89 1472.15,-24.89 84.92,0 128.48,47.57 128.48,163.6 0,200.32 -24.2,567.74 -24.2,768.06 0,280.95 21.88,499.46 21.88,780.4 0,116.04 -40.71,151.52 -125.62,151.52 -491.09,0 -999.5,-16.76 -1490.59,-16.76 -407.46,0 -820.31,9.08 -1227.76,16.87 -27.72,0.53 -88.63,-0.99 -116.36,-0.99 -84.92,0 -113.82,-28.64 -113.82,-144.67 0,-242.75 13.44,-518.76 13.44,-761.51 0,-238.51 -13.86,-570.87 -13.86,-809.37 0,-116.04 28.7,-146.34 113.61,-146.34z"/>
    <path fill="none" stroke="black" stroke-width="10.58" stroke-miterlimit="22.9256" d="M5738.02 2771.8l-745.96 0c-16.42,0 -37.95,5.66 -52.86,9.5 -93.76,20.69 -111.52,143 -100.22,368.04 9.72,193.75 -2.73,1645.58 -2.73,1756.74 0,275.73 16.37,395.79 98.74,418.57 19.82,7.82 23.89,11.25 57.07,11.25l745.96 0c32.06,0 35.27,-4.85 55.15,-9.68 82.34,-22.67 98.74,-142.09 98.74,-416.42 0,-110.59 -12.45,-1554.89 -2.73,-1747.66 11.3,-223.86 -13.11,-363.29 -106.87,-383.88 -15.88,-5.14 -26.04,-6.46 -44.29,-6.46z"/>
    <rect fill="none" stroke="black" stroke-width="10.58" stroke-miterlimit="22.9256" x="12166.26" y="3526.48" width="3306.54" height="766.82" rx="85.17" ry="82.59"/>
    <rect fill="none" stroke="black" stroke-width="10.58" stroke-miterlimit="22.9256" x="14479.78" y="5307.44" width="913.15" height="136.97"/>
    <rect fill="none" stroke="black" stroke-width="10.58" stroke-miterlimit="22.9256" x="12328.13" y="5307.44" width="913.15" height="136.97"/>
    <line fill="none" stroke="black" stroke-width="10.58" stroke-miterlimit="22.9256" x1="12224.46" y1="5291.75" x2="12224.4" y2= "4294.86" />
   </g>
   <path fill="#666666" fill-rule="nonzero" fill-opacity="0.800000" d="M18877.26 8997.96l0 16.03c21.85,10.19 39.45,26.22 52.81,48.07 13.35,21.85 20.03,45.89 20.03,72.11 0,43.71 -15.06,79.03 -45.16,105.98 -30.11,26.95 -73.82,40.43 -131.12,40.43l-232.35 0 0 -520.06 226.53 0c52.93,0 93.84,12.51 122.73,37.51 28.9,25.01 43.34,56.46 43.34,94.33 0,50.02 -18.94,85.23 -56.81,105.62zm-270.23 -179.18l0 162.43 159.51 0c67.5,0 101.25,-27.68 101.25,-83.04 0,-27.19 -9.71,-47.22 -29.14,-60.09 -19.42,-12.87 -43.95,-19.31 -73.57,-19.31l-158.05 0zm0 403.53l162.42 0c33.51,0 60.95,-7.16 82.31,-21.49 21.37,-14.33 32.05,-38.24 32.05,-71.75 0,-31.56 -10.56,-54.51 -31.68,-68.83 -21.13,-14.33 -48.44,-21.49 -81.95,-21.49l-163.15 0 0 183.55zm438.48 -308.83l61.91 0 0 122.37 101.25 0c44.19,0 78.3,10.68 102.34,32.05 24.04,21.36 36.06,51.23 36.06,89.59 0,38.85 -12.02,69.08 -36.06,90.69 -24.04,21.61 -58.15,32.41 -102.34,32.41l-163.15 0 0 -367.1zm61.91 174.8l0 138.4 92.51 0c30.59,0 52.44,-5.83 65.56,-17.48 13.11,-11.66 19.66,-28.9 19.66,-51.72 0,-22.82 -6.55,-40.06 -19.66,-51.72 -13.12,-11.65 -34.97,-17.48 -65.56,-17.48l-92.51 0zm298.64 -174.8l61.91 0 0 367.1 -61.91 0 0 -367.1zm429.73 256.38l61.92 0c-7.29,36.91 -24.4,66.17 -51.35,87.78 -26.96,21.6 -61.31,32.41 -103.07,32.41 -55.36,0 -98.94,-18.09 -130.75,-54.27 -31.81,-36.17 -47.71,-82.43 -47.71,-138.76 0,-56.81 15.78,-103.19 47.34,-139.12 31.57,-35.94 75.27,-53.9 131.12,-53.9 42.24,0 76.6,10.56 103.07,31.68 26.46,21.13 42.85,49.17 49.16,84.13l-61.91 0c-13.11,-41.27 -43.22,-61.91 -90.32,-61.91 -39.34,0 -68.59,12.99 -87.78,38.97 -19.18,25.98 -28.77,58.88 -28.77,98.7 0,40.3 9.71,73.81 29.14,100.52 19.42,26.7 48.56,40.06 87.41,40.06 51.47,0 82.31,-22.1 92.5,-66.29zm180.28 -211.22c32.29,-36.42 76.36,-54.63 132.2,-54.63 55.85,0 99.91,18.21 132.21,54.63 32.29,36.42 48.43,82.55 48.43,138.39 0,55.85 -16.14,101.98 -48.43,138.4 -32.3,36.42 -76.36,54.63 -132.21,54.63 -55.84,0 -99.91,-18.21 -132.2,-54.63 -32.3,-36.42 -48.44,-82.55 -48.44,-138.4 0,-55.84 16.14,-101.97 48.44,-138.39zm44.07 237.08c20.39,26.95 49.77,40.43 88.13,40.43 38.36,0 67.74,-13.48 88.14,-40.43 20.39,-26.95 30.59,-59.85 30.59,-98.7 0,-38.84 -10.2,-71.74 -30.59,-98.7 -20.4,-26.95 -49.78,-40.42 -88.14,-40.42 -38.36,0 -67.74,13.47 -88.13,40.42 -20.4,26.96 -30.6,59.86 -30.6,98.7 0,38.85 10.2,71.75 30.6,98.7zm320.48 -228.34l0 -53.9 316.12 0 0 53.9 -126.74 0 0 313.2 -61.92 0 0 -313.2 -127.47 0zm631.51 313.2l0 -38.61 -16.03 0c-25.25,32.05 -63.37,48.08 -114.36,48.08 -40.3,0 -72.35,-11.66 -96.15,-34.96 -23.79,-23.31 -35.69,-51.48 -35.69,-84.5 0,-33.5 11.66,-62.16 34.96,-85.95 23.31,-23.79 58.52,-35.69 105.62,-35.69l119.46 0 0 -14.57c0,-23.31 -7.28,-41.88 -21.85,-55.72 -14.57,-13.84 -37.15,-20.76 -67.74,-20.76 -53.42,0 -81.83,17.72 -85.23,53.17l-61.91 0c2.43,-33.5 16.87,-59.73 43.34,-78.67 26.47,-18.93 60.58,-28.4 102.34,-28.4 47.1,0 84.13,10.92 111.08,32.78 26.95,21.85 40.43,53.17 40.43,93.96l0 249.83 -58.27 0zm-115.09 -44.43c30.59,0 57.06,-10.08 79.39,-30.23 22.34,-20.15 33.51,-44.8 33.51,-73.93l0 -33.51 -109.99 0c-58.76,0 -88.13,23.31 -88.13,69.93 0,20.88 7.4,37.39 22.21,49.53 14.81,12.14 35.81,18.21 63.01,18.21zm-2113.75 729.16l61.92 0c-7.29,36.91 -24.4,66.17 -51.35,87.78 -26.96,21.6 -61.31,32.41 -103.07,32.41 -55.36,0 -98.94,-18.09 -130.75,-54.27 -31.81,-36.17 -47.71,-82.43 -47.71,-138.76 0,-56.81 15.78,-103.19 47.34,-139.12 31.57,-35.94 75.27,-53.9 131.12,-53.9 42.24,0 76.6,10.56 103.07,31.68 26.46,21.13 42.85,49.17 49.16,84.13l-61.91 0c-13.11,-41.27 -43.22,-61.91 -90.32,-61.91 -39.34,0 -68.59,12.99 -87.78,38.97 -19.18,25.98 -28.77,58.88 -28.77,98.7 0,40.3 9.71,73.81 29.14,100.52 19.42,26.7 48.56,40.06 87.41,40.06 51.47,0 82.31,-22.1 92.5,-66.29zm241.83 110.72l-87.41 0 0 -367.1 60.46 0 0 284.06 16.02 0 160.97 -284.06 90.32 0 0 367.1 -60.46 0 0 -284.07 -16.02 0 -163.88 284.07zm686.86 -53.9l67.74 0 0 158.05 -60.46 0 0 -104.16 -317.57 0 0 104.16 -60.46 0 0 -158.05 48.81 0c30.1,-64.1 45.16,-135 45.16,-212.68l0 -100.52 276.78 0 0 313.2zm-61.91 0l0 -259.3 -157.33 0 0 46.62c0,83.03 -13.35,153.92 -40.06,212.68l197.39 0zm528.07 -151.5l0 21.12 -279.7 0c0.98,44.19 11.42,78.55 31.33,103.07 19.9,24.53 48.56,36.79 85.95,36.79 50.5,0 81.58,-18.94 93.23,-56.82l62.64 0c-6.31,33.02 -22.94,59.73 -49.89,80.13 -26.95,20.39 -62.28,30.59 -105.98,30.59 -55.85,0 -99.55,-18.21 -131.12,-54.63 -31.56,-36.42 -47.34,-83.77 -47.34,-142.03 0,-57.3 15.78,-103.19 47.34,-137.67 31.57,-34.47 74.79,-51.71 129.66,-51.71 51.96,0 92.02,16.39 120.19,49.16 28.16,32.78 42.73,73.45 43.7,122.01zm-165.34 -117.27c-31.56,0 -56.81,8.13 -75.75,24.4 -18.94,16.27 -30.59,37.03 -34.96,62.28l211.95 0c-1.94,-24.77 -11.9,-45.41 -29.86,-61.92 -17.97,-16.51 -41.77,-24.76 -71.39,-24.76zm588.53 322.67l-61.91 0 0 -161.69 -203.22 0 0 161.69 -61.91 0 0 -367.1 61.91 0 0 151.49 203.22 0 0 -151.49 61.91 0 0 367.1zm635.15 -367.1l182.82 0 0 367.1 -62.65 0 0 -144.94 -111.44 0c-9.71,0 -17.24,-0.24 -22.58,-0.73l-55.36 145.67 -64.83 0 61.92 -159.51c-37.88,-17.97 -56.82,-50.02 -56.82,-96.15 0,-35.45 11.05,-62.88 33.14,-82.31 22.1,-19.42 54.03,-29.13 95.79,-29.13zm120.18 52.44l-113.63 0c-26.7,0 -45.64,5.1 -56.81,15.3 -11.17,10.2 -16.75,25.01 -16.75,44.43 0,18.94 5.58,33.26 16.75,42.98 11.17,9.71 30.11,14.56 56.81,14.56l113.63 0 0 -117.27zm-1889.41 1110.11l-75.75 0 0 -84.49 75.75 0 0 84.49zm126.74 -453.77c33.99,-44.19 79.4,-66.29 136.21,-66.29 56.82,0 102.34,22.22 136.58,66.65 34.23,44.43 51.35,110.6 51.35,198.48 0,87.89 -17.12,153.93 -51.35,198.11 -34.24,44.19 -79.76,66.29 -136.58,66.29 -56.81,0 -102.22,-22.1 -136.21,-66.29 -33.99,-44.18 -50.99,-110.23 -50.99,-198.11 0,-88.38 17,-154.65 50.99,-198.84zm43.7 351.44c20.4,36.66 51.23,54.99 92.51,54.99 41.28,0 72.23,-18.33 92.87,-54.99 20.64,-36.66 30.96,-87.53 30.96,-152.59 0,-65.56 -10.32,-116.67 -30.96,-153.32 -20.64,-36.66 -51.59,-54.99 -92.87,-54.99 -41.28,0 -72.11,18.33 -92.51,54.99 -20.39,36.66 -30.59,87.77 -30.59,153.32 0,65.07 10.2,115.94 30.59,152.59zm831.08 -8.38l61.92 0c-7.29,36.91 -24.4,66.17 -51.35,87.78 -26.96,21.6 -61.31,32.41 -103.07,32.41 -55.36,0 -98.94,-18.09 -130.75,-54.27 -31.81,-36.17 -47.71,-82.43 -47.71,-138.76 0,-56.81 15.78,-103.19 47.34,-139.12 31.57,-35.94 75.27,-53.9 131.12,-53.9 42.24,0 76.6,10.56 103.07,31.68 26.46,21.13 42.85,49.17 49.16,84.13l-61.91 0c-13.11,-41.27 -43.22,-61.91 -90.32,-61.91 -39.34,0 -68.59,12.99 -87.78,38.97 -19.18,25.98 -28.77,58.88 -28.77,98.7 0,40.3 9.71,73.81 29.14,100.52 19.42,26.7 48.56,40.06 87.41,40.06 51.47,0 82.31,-22.1 92.5,-66.29zm154.42 110.72l0 -367.1 98.33 0 90.32 167.52 16.03 0 90.32 -167.52 96.88 0 0 367.1 -60.46 0 0 -294.99 -16.02 0 -85.23 157.32 -68.47 0 -85.22 -157.32 -16.02 0 0 294.99 -60.46 0zm159.51 -1162.55l0 122.37 108.53 0c44.19,0 78.31,10.68 102.34,32.05 24.04,21.36 36.06,51.23 36.06,89.59 0,38.85 -12.02,69.08 -36.06,90.69 -24.03,21.61 -58.15,32.41 -102.34,32.41l-170.43 0 0 -367.1 61.91 0zm0 313.2l99.79 0c30.6,0 52.45,-5.83 65.56,-17.48 13.11,-11.66 19.67,-28.9 19.67,-51.72 0,-22.82 -6.56,-40.06 -19.67,-51.72 -13.11,-11.65 -34.96,-17.48 -65.56,-17.48l-99.79 0 0 138.4zm827.44 53.9l-75.75 0 0 -84.49 75.75 0 0 84.49zm0 -282.61l-75.75 0 0 -84.49 75.75 0 0 84.49zm-2791.87 901.8l69.92 0 0 56.81 -69.92 0 0 119.46 -62.65 0 0 -119.46 -252.01 0 0 -72.84 225.06 -317.57 89.6 0 0 333.6zm-247.65 0l185.73 0 0 -261.49 -16.02 0 -169.71 245.46 0 16.03zm407.89 -333.6l297.91 0 0 71.38 -127.47 109.26 0 15.3c45.16,0.97 81.7,15.05 109.62,42.25 27.93,27.19 41.89,64.82 41.89,112.9 0,51.96 -16.76,92.99 -50.26,123.1 -33.51,30.11 -76.73,45.16 -129.66,45.16 -50.99,0 -92.75,-14.33 -125.28,-42.98 -32.54,-28.65 -50.26,-65.07 -53.18,-109.26l64.1 0c2.92,28.65 14.94,51.72 36.06,69.2 21.12,17.48 47.22,26.22 78.3,26.22 35.45,0 63.62,-9.95 84.5,-29.86 20.88,-19.91 31.32,-47.1 31.32,-81.58 0,-33.99 -9.96,-60.58 -29.87,-79.76 -19.91,-19.18 -48.31,-28.77 -85.22,-28.77 -17.97,0 -32.78,1.45 -44.43,4.37l0 -67.74 124.55 -107.81 0 -16.02 -222.88 0 0 -55.36z"/>
   <path fill="#666666" fill-rule="nonzero" fill-opacity="0.800000" d="M9255.39 19574.38l-64.09 0c2.91,-49.04 20.03,-86.44 51.35,-112.17 31.32,-25.74 70.77,-38.61 118.36,-38.61 49.53,0 89.47,13.48 119.82,40.43 30.35,26.95 45.53,65.19 45.53,114.72 0,60.22 -37.63,121.64 -112.9,184.28l-128.2 107.8 0 16.02 257.11 0 0 56.82 -350.35 0 0 -72.11 75.03 -61.19c46.62,-37.39 85.22,-70.17 115.81,-98.33 11.66,-10.2 21.01,-18.94 28.05,-26.22 7.04,-7.29 15.05,-16.88 24.04,-28.78 8.98,-11.89 15.78,-24.4 20.39,-37.51 4.61,-13.11 6.92,-26.71 6.92,-40.79 0,-31.56 -9.23,-55.84 -27.68,-72.84 -18.45,-16.99 -43.46,-25.49 -75.02,-25.49 -29.63,0 -53.54,7.89 -71.75,23.67 -18.21,15.78 -29.02,39.21 -32.42,70.29zm552.11 26.22c49.53,0 89.23,16.27 119.1,48.81 29.86,32.53 44.79,73.08 44.79,121.64 0,54.87 -16.14,98.94 -48.44,132.2 -32.29,33.27 -74.41,49.9 -126.37,49.9 -53.9,0 -96.27,-14.08 -127.11,-42.25 -30.83,-28.16 -47.71,-64.83 -50.62,-109.99l63.37 0c3.88,31.08 15.54,54.75 34.96,71.02 19.43,16.27 44.92,24.4 76.48,24.4 34,0 61.43,-11.04 82.31,-33.14 20.88,-22.09 31.32,-51.84 31.32,-89.23 0,-35.45 -10.07,-64.22 -30.22,-86.31 -20.16,-22.1 -47.23,-33.14 -81.22,-33.14 -45.65,0 -79.4,16.02 -101.25,48.07l-64.1 0 22.58 -268.77 291.35 0 0 55.36 -239.63 0 -11.66 147.13 16.03 0c26.22,-23.8 59,-35.7 98.33,-35.7zm305.19 -26.22l-64.09 0c2.91,-49.04 20.03,-86.44 51.35,-112.17 31.32,-25.74 70.77,-38.61 118.36,-38.61 49.53,0 89.47,13.48 119.82,40.43 30.35,26.95 45.53,65.19 45.53,114.72 0,60.22 -37.63,121.64 -112.9,184.28l-128.2 107.8 0 16.02 257.11 0 0 56.82 -350.35 0 0 -72.11 75.03 -61.19c46.62,-37.39 85.22,-70.17 115.81,-98.33 11.66,-10.2 21.01,-18.94 28.05,-26.22 7.04,-7.29 15.05,-16.88 24.04,-28.78 8.98,-11.89 15.78,-24.4 20.39,-37.51 4.61,-13.11 6.92,-26.71 6.92,-40.79 0,-31.56 -9.23,-55.84 -27.68,-72.84 -18.45,-16.99 -43.46,-25.49 -75.02,-25.49 -29.63,0 -53.54,7.89 -71.75,23.67 -18.21,15.78 -29.02,39.21 -32.42,70.29zm453.05 369.29l-75.75 0 0 -84.49 75.75 0 0 84.49zm126.74 -453.77c33.99,-44.19 79.4,-66.29 136.21,-66.29 56.82,0 102.34,22.22 136.58,66.65 34.23,44.43 51.35,110.6 51.35,198.48 0,87.89 -17.12,153.93 -51.35,198.11 -34.24,44.19 -79.76,66.29 -136.58,66.29 -56.81,0 -102.22,-22.1 -136.21,-66.29 -33.99,-44.18 -50.99,-110.23 -50.99,-198.11 0,-88.38 17,-154.65 50.99,-198.84zm43.7 351.44c20.4,36.66 51.23,54.99 92.51,54.99 41.28,0 72.23,-18.33 92.87,-54.99 20.64,-36.66 30.96,-87.53 30.96,-152.59 0,-65.56 -10.32,-116.67 -30.96,-153.32 -20.64,-36.66 -51.59,-54.99 -92.87,-54.99 -41.28,0 -72.11,18.33 -92.51,54.99 -20.39,36.66 -30.59,87.77 -30.59,153.32 0,65.07 10.2,115.94 30.59,152.59zm831.08 -8.38l61.92 0c-7.29,36.91 -24.4,66.17 -51.35,87.78 -26.96,21.6 -61.31,32.41 -103.07,32.41 -55.36,0 -98.94,-18.09 -130.75,-54.27 -31.81,-36.17 -47.71,-82.43 -47.71,-138.76 0,-56.81 15.78,-103.19 47.34,-139.12 31.57,-35.94 75.27,-53.9 131.12,-53.9 42.24,0 76.6,10.56 103.07,31.68 26.46,21.13 42.85,49.17 49.16,84.13l-61.91 0c-13.11,-41.27 -43.22,-61.91 -90.32,-61.91 -39.34,0 -68.59,12.99 -87.78,38.97 -19.18,25.98 -28.77,58.88 -28.77,98.7 0,40.3 9.71,73.81 29.14,100.52 19.42,26.7 48.56,40.06 87.41,40.06 51.47,0 82.31,-22.1 92.5,-66.29zm154.42 110.72l0 -367.1 98.33 0 90.32 167.52 16.03 0 90.32 -167.52 96.88 0 0 367.1 -60.46 0 0 -294.99 -16.02 0 -85.23 157.32 -68.47 0 -85.22 -157.32 -16.02 0 0 294.99 -60.46 0z"/>
   <path fill="#666666" fill-rule="nonzero" fill-opacity="0.800000" d="M3247.3 4420.25l16.02 0c6.8,-19.91 21,-38.12 42.61,-54.63 21.61,-16.51 47.96,-24.77 79.04,-24.77 42.73,0 78.18,16.88 106.34,50.63 28.17,33.75 42.25,78.3 42.25,133.66 0,55.36 -14.08,99.91 -42.25,133.66 -28.16,33.75 -63.61,50.62 -106.34,50.62 -30.6,0 -56.82,-8.25 -78.67,-24.76 -21.85,-16.51 -36.18,-34.72 -42.98,-54.63l-16.02 0c-6.8,16.02 -19.67,30.71 -38.61,44.07 -18.94,13.35 -41.76,20.03 -68.47,20.03 -40.3,0 -73.08,-15.79 -98.33,-47.35 -25.25,-31.56 -37.88,-72.11 -37.88,-121.64 0,-49.53 12.63,-90.08 37.88,-121.64 25.25,-31.57 58.03,-47.35 98.33,-47.35 25.74,0 48.32,6.8 67.74,20.39 19.43,13.6 32.54,28.17 39.34,43.71zm-165.7 28.77c-14.81,20.15 -22.22,45.53 -22.22,76.12 0,30.59 7.41,55.96 22.22,76.12 14.81,20.15 35.32,30.22 61.55,30.22 26.22,0 46.86,-10.07 61.91,-30.22 15.05,-20.16 22.58,-45.53 22.58,-76.12 0,-30.59 -7.53,-55.97 -22.58,-76.12 -15.05,-20.15 -35.69,-30.23 -61.91,-30.23 -26.23,0 -46.74,10.08 -61.55,30.23zm368.56 164.61c17.72,-21.61 26.58,-51.11 26.58,-88.5 0,-37.39 -8.86,-66.89 -26.58,-88.5 -17.73,-21.61 -41.4,-32.42 -71.02,-32.42 -30.11,0 -53.66,10.69 -70.66,32.05 -16.99,21.37 -25.49,50.99 -25.49,88.87 0,37.87 8.5,67.5 25.49,88.86 17,21.37 40.55,32.05 70.66,32.05 29.62,0 53.29,-10.8 71.02,-32.41zm73.93 -354.36l-56.82 0 0 -120.91 -386.04 0 0 14.57 72.11 107.07 -67.01 0 -72.11 -106.34 0 -79.4 453.04 0 0 -111.44 56.82 0 0 296.44zm0 -455.95l0 75.75 -84.49 0 0 -75.75 84.49 0zm-453.77 -126.74c-44.19,-33.99 -66.29,-79.4 -66.29,-136.21 0,-56.82 22.22,-102.34 66.65,-136.58 44.43,-34.23 110.6,-51.35 198.48,-51.35 87.89,0 153.93,17.12 198.11,51.35 44.19,34.24 66.29,79.76 66.29,136.58 0,56.81 -22.1,102.22 -66.29,136.21 -44.18,33.99 -110.23,50.99 -198.11,50.99 -88.38,0 -154.65,-17 -198.84,-50.99zm351.44 -43.7c36.66,-20.4 54.99,-51.23 54.99,-92.51 0,-41.28 -18.33,-72.23 -54.99,-92.87 -36.66,-20.64 -87.53,-30.96 -152.59,-30.96 -65.56,0 -116.67,10.32 -153.32,30.96 -36.66,20.64 -54.99,51.59 -54.99,92.87 0,41.28 18.33,72.11 54.99,92.51 36.66,20.39 87.77,30.59 153.32,30.59 65.07,0 115.94,-10.2 152.59,-30.59zm-8.38 -831.08l0 -61.92c36.91,7.29 66.17,24.4 87.78,51.35 21.6,26.96 32.41,61.31 32.41,103.07 0,55.36 -18.09,98.94 -54.27,130.75 -36.17,31.81 -82.43,47.71 -138.76,47.71 -56.81,0 -103.19,-15.78 -139.12,-47.34 -35.94,-31.57 -53.9,-75.27 -53.9,-131.12 0,-42.24 10.56,-76.6 31.68,-103.07 21.13,-26.46 49.17,-42.85 84.13,-49.16l0 61.91c-41.27,13.11 -61.91,43.22 -61.91,90.32 0,39.34 12.99,68.59 38.97,87.78 25.98,19.18 58.88,28.77 98.7,28.77 40.3,0 73.81,-9.71 100.52,-29.14 26.7,-19.42 40.06,-48.56 40.06,-87.41 0,-51.47 -22.1,-82.31 -66.29,-92.5zm110.72 -154.42l-367.1 0 0 -98.33 167.52 -90.32 0 -16.03 -167.52 -90.32 0 -96.88 367.1 0 0 60.46 -294.99 0 0 16.02 157.32 85.23 0 68.47 -157.32 85.22 0 16.02 294.99 0 0 60.46z"/>
   <path fill="#666666" fill-rule="nonzero" fill-opacity="0.800000" d="M3524.08 14362.24l-56.82 0 0 -120.91 -386.04 0 0 14.57 72.11 107.07 -67.01 0 -72.11 -106.34 0 -79.4 453.04 0 0 -111.44 56.82 0 0 296.44zm-276.78 -651.16l16.02 0c6.8,-19.91 21,-38.12 42.61,-54.63 21.61,-16.51 47.96,-24.77 79.04,-24.77 42.73,0 78.18,16.88 106.34,50.63 28.17,33.75 42.25,78.3 42.25,133.66 0,55.36 -14.08,99.91 -42.25,133.66 -28.16,33.75 -63.61,50.62 -106.34,50.62 -30.6,0 -56.82,-8.25 -78.67,-24.76 -21.85,-16.51 -36.18,-34.72 -42.98,-54.63l-16.02 0c-6.8,16.02 -19.67,30.71 -38.61,44.07 -18.94,13.35 -41.76,20.03 -68.47,20.03 -40.3,0 -73.08,-15.79 -98.33,-47.35 -25.25,-31.56 -37.88,-72.11 -37.88,-121.64 0,-49.53 12.63,-90.08 37.88,-121.64 25.25,-31.57 58.03,-47.35 98.33,-47.35 25.74,0 48.32,6.8 67.74,20.39 19.43,13.6 32.54,28.17 39.34,43.71zm-165.7 28.77c-14.81,20.15 -22.22,45.53 -22.22,76.12 0,30.59 7.41,55.96 22.22,76.12 14.81,20.15 35.32,30.22 61.55,30.22 26.22,0 46.86,-10.07 61.91,-30.22 15.05,-20.16 22.58,-45.53 22.58,-76.12 0,-30.59 -7.53,-55.97 -22.58,-76.12 -15.05,-20.15 -35.69,-30.23 -61.91,-30.23 -26.23,0 -46.74,10.08 -61.55,30.23zm368.56 164.61c17.72,-21.61 26.58,-51.11 26.58,-88.5 0,-37.39 -8.86,-66.89 -26.58,-88.5 -17.73,-21.61 -41.4,-32.42 -71.02,-32.42 -30.11,0 -53.66,10.69 -70.66,32.05 -16.99,21.37 -25.49,50.99 -25.49,88.87 0,37.87 8.5,67.5 25.49,88.86 17,21.37 40.55,32.05 70.66,32.05 29.62,0 53.29,-10.8 71.02,-32.41zm-269.14 -542.27c0,-49.53 16.27,-89.23 48.81,-119.1 32.53,-29.86 73.08,-44.79 121.64,-44.79 54.87,0 98.94,16.14 132.2,48.44 33.27,32.29 49.9,74.41 49.9,126.37 0,53.9 -14.08,96.27 -42.25,127.11 -28.16,30.83 -64.83,47.71 -109.99,50.62l0 -63.37c31.08,-3.88 54.75,-15.54 71.02,-34.96 16.27,-19.43 24.4,-44.92 24.4,-76.48 0,-34 -11.04,-61.43 -33.14,-82.31 -22.09,-20.88 -51.84,-31.32 -89.23,-31.32 -35.45,0 -64.22,10.07 -86.31,30.22 -22.1,20.16 -33.14,47.23 -33.14,81.22 0,45.65 16.02,79.4 48.07,101.25l0 64.1 -268.77 -22.58 0 -291.35 55.36 0 0 239.63 147.13 11.66 0 -16.03c-23.8,-26.22 -35.7,-59 -35.7,-98.33zm343.07 -334.33l0 75.75 -84.49 0 0 -75.75 84.49 0zm-453.77 -126.74c-44.19,-33.99 -66.29,-79.4 -66.29,-136.21 0,-56.82 22.22,-102.34 66.65,-136.58 44.43,-34.23 110.6,-51.35 198.48,-51.35 87.89,0 153.93,17.12 198.11,51.35 44.19,34.24 66.29,79.76 66.29,136.58 0,56.81 -22.1,102.22 -66.29,136.21 -44.18,33.99 -110.23,50.99 -198.11,50.99 -88.38,0 -154.65,-17 -198.84,-50.99zm351.44 -43.7c36.66,-20.4 54.99,-51.23 54.99,-92.51 0,-41.28 -18.33,-72.23 -54.99,-92.87 -36.66,-20.64 -87.53,-30.96 -152.59,-30.96 -65.56,0 -116.67,10.32 -153.32,30.96 -36.66,20.64 -54.99,51.59 -54.99,92.87 0,41.28 18.33,72.11 54.99,92.51 36.66,20.39 87.77,30.59 153.32,30.59 65.07,0 115.94,-10.2 152.59,-30.59zm-8.38 -831.08l0 -61.92c36.91,7.29 66.17,24.4 87.78,51.35 21.6,26.96 32.41,61.31 32.41,103.07 0,55.36 -18.09,98.94 -54.27,130.75 -36.17,31.81 -82.43,47.71 -138.76,47.71 -56.81,0 -103.19,-15.78 -139.12,-47.34 -35.94,-31.57 -53.9,-75.27 -53.9,-131.12 0,-42.24 10.56,-76.6 31.68,-103.07 21.13,-26.46 49.17,-42.85 84.13,-49.16l0 61.91c-41.27,13.11 -61.91,43.22 -61.91,90.32 0,39.34 12.99,68.59 38.97,87.78 25.98,19.18 58.88,28.77 98.7,28.77 40.3,0 73.81,-9.71 100.52,-29.14 26.7,-19.42 40.06,-48.56 40.06,-87.41 0,-51.47 -22.1,-82.31 -66.29,-92.5zm110.72 -154.42l-367.1 0 0 -98.33 167.52 -90.32 0 -16.03 -167.52 -90.32 0 -96.88 367.1 0 0 60.46 -294.99 0 0 16.02 157.32 85.23 0 68.47 -157.32 85.22 0 16.02 294.99 0 0 60.46z"/>
   <path fill="#666666" fill-rule="nonzero" fill-opacity="0.800000" d="M6299.13 15839.88l0 -56.82 120.91 0 0 -386.04 -14.57 0 -107.07 72.11 0 -67.01 106.34 -72.11 79.4 0 0 453.04 111.44 0 0 56.82 -296.44 0zm667.19 -176.26l69.92 0 0 56.81 -69.92 0 0 119.46 -62.65 0 0 -119.46 -252.01 0 0 -72.84 225.06 -317.57 89.6 0 0 333.6zm-247.65 0l185.73 0 0 -261.49 -16.02 0 -169.71 245.46 0 16.03zm441.39 -277.51c33.99,-44.19 79.4,-66.29 136.21,-66.29 56.82,0 102.34,22.22 136.58,66.65 34.23,44.43 51.35,110.6 51.35,198.48 0,87.89 -17.12,153.93 -51.35,198.11 -34.24,44.19 -79.76,66.29 -136.58,66.29 -56.81,0 -102.22,-22.1 -136.21,-66.29 -33.99,-44.18 -50.99,-110.23 -50.99,-198.11 0,-88.38 17,-154.65 50.99,-198.84zm43.7 351.44c20.4,36.66 51.23,54.99 92.51,54.99 41.28,0 72.23,-18.33 92.87,-54.99 20.64,-36.66 30.96,-87.53 30.96,-152.59 0,-65.56 -10.32,-116.67 -30.96,-153.32 -20.64,-36.66 -51.59,-54.99 -92.87,-54.99 -41.28,0 -72.11,18.33 -92.51,54.99 -20.39,36.66 -30.59,87.77 -30.59,153.32 0,65.07 10.2,115.94 30.59,152.59zm426.1 102.34l-75.75 0 0 -84.49 75.75 0 0 84.49zm1879.94 -178.45c-46.61,0 -85.46,-15.66 -116.54,-46.98 -31.08,-31.32 -46.62,-71.02 -46.62,-119.09 0,-50.02 15.66,-91.78 46.98,-125.29 31.32,-33.5 73.45,-50.26 126.38,-50.26 57.79,0 103.43,19.91 136.94,59.73 33.51,39.82 50.26,103.43 50.26,190.83 0,82.07 -16.39,149.07 -49.17,201.03 -32.78,51.96 -80.97,77.94 -144.58,77.94 -42.24,0 -76.84,-11.29 -103.79,-33.87 -26.95,-22.58 -43.34,-51.84 -49.17,-87.77l63.37 0c12.63,43.21 42.49,64.82 89.59,64.82 40.31,0 71.87,-16.02 94.7,-48.07 22.82,-32.05 35.2,-76.24 37.15,-132.57l-16.03 0c-10.68,13.11 -26.34,24.64 -46.98,34.6 -20.64,9.95 -44.8,14.93 -72.48,14.93zm91.05 -253.47c-21.36,-20.88 -48.07,-31.32 -80.12,-31.32 -32.05,0 -58.39,10.2 -79.03,30.59 -20.64,20.4 -30.96,48.8 -30.96,85.22 0,36.42 10.44,64.35 31.32,83.77 20.88,19.42 47.59,29.14 80.13,29.14 32.05,0 58.51,-9.96 79.39,-29.87 20.88,-19.91 31.32,-47.35 31.32,-82.31 0,-35.93 -10.68,-64.34 -32.05,-85.22zm249.1 62.64l-64.09 0c2.91,-49.04 20.03,-86.44 51.35,-112.17 31.32,-25.74 70.77,-38.61 118.36,-38.61 49.53,0 89.47,13.48 119.82,40.43 30.35,26.95 45.53,65.19 45.53,114.72 0,60.22 -37.63,121.64 -112.9,184.28l-128.2 107.8 0 16.02 257.11 0 0 56.82 -350.35 0 0 -72.11 75.03 -61.19c46.62,-37.39 85.22,-70.17 115.81,-98.33 11.66,-10.2 21.01,-18.94 28.05,-26.22 7.04,-7.29 15.05,-16.88 24.04,-28.78 8.98,-11.89 15.78,-24.4 20.39,-37.51 4.61,-13.11 6.92,-26.71 6.92,-40.79 0,-31.56 -9.23,-55.84 -27.68,-72.84 -18.45,-16.99 -43.46,-25.49 -75.02,-25.49 -29.63,0 -53.54,7.89 -71.75,23.67 -18.21,15.78 -29.02,39.21 -32.42,70.29zm1454.57 258.57l61.92 0c-7.29,36.91 -24.4,66.17 -51.35,87.78 -26.96,21.6 -61.31,32.41 -103.07,32.41 -55.36,0 -98.94,-18.09 -130.75,-54.27 -31.81,-36.17 -47.71,-82.43 -47.71,-138.76 0,-56.81 15.78,-103.19 47.34,-139.12 31.57,-35.94 75.27,-53.9 131.12,-53.9 42.24,0 76.6,10.56 103.07,31.68 26.46,21.13 42.85,49.17 49.16,84.13l-61.91 0c-13.11,-41.27 -43.22,-61.91 -90.32,-61.91 -39.34,0 -68.59,12.99 -87.78,38.97 -19.18,25.98 -28.77,58.88 -28.77,98.7 0,40.3 9.71,73.81 29.14,100.52 19.42,26.7 48.56,40.06 87.41,40.06 51.47,0 82.31,-22.1 92.5,-66.29zm154.42 110.72l0 -367.1 98.33 0 90.32 167.52 16.03 0 90.32 -167.52 96.88 0 0 367.1 -60.46 0 0 -294.99 -16.02 0 -85.23 157.32 -68.47 0 -85.22 -157.32 -16.02 0 0 294.99 -60.46 0zm-3681.95 -453.77c33.99,-44.19 79.4,-66.29 136.21,-66.29 56.82,0 102.34,22.22 136.58,66.65 34.23,44.43 51.35,110.6 51.35,198.48 0,87.89 -17.12,153.93 -51.35,198.11 -34.24,44.19 -79.76,66.29 -136.58,66.29 -56.81,0 -102.22,-22.1 -136.21,-66.29 -33.99,-44.18 -50.99,-110.23 -50.99,-198.11 0,-88.38 17,-154.65 50.99,-198.84zm43.7 351.44c20.4,36.66 51.23,54.99 92.51,54.99 41.28,0 72.23,-18.33 92.87,-54.99 20.64,-36.66 30.96,-87.53 30.96,-152.59 0,-65.56 -10.32,-116.67 -30.96,-153.32 -20.64,-36.66 -51.59,-54.99 -92.87,-54.99 -41.28,0 -72.11,18.33 -92.51,54.99 -20.39,36.66 -30.59,87.77 -30.59,153.32 0,65.07 10.2,115.94 30.59,152.59zm828.17 102.34l-91.05 -153.68 -26.22 0 -93.24 153.68 -67.74 0 114.36 -187.92 -102.7 -179.17 65.55 0 84.5 145.67 26.22 0 85.95 -145.67 64.83 0 -104.16 176.99 113.63 190.1 -69.93 0zm342.35 0l0 -56.82 120.91 0 0 -386.04 -14.57 0 -107.07 72.11 0 -67.01 106.34 -72.11 79.4 0 0 453.04 111.44 0 0 56.82 -296.44 0zm1311.79 0l-75.75 0 0 -84.49 75.75 0 0 84.49zm126.74 -453.77c33.99,-44.19 79.4,-66.29 136.21,-66.29 56.82,0 102.34,22.22 136.58,66.65 34.23,44.43 51.35,110.6 51.35,198.48 0,87.89 -17.12,153.93 -51.35,198.11 -34.24,44.19 -79.76,66.29 -136.58,66.29 -56.81,0 -102.22,-22.1 -136.21,-66.29 -33.99,-44.18 -50.99,-110.23 -50.99,-198.11 0,-88.38 17,-154.65 50.99,-198.84zm43.7 351.44c20.4,36.66 51.23,54.99 92.51,54.99 41.28,0 72.23,-18.33 92.87,-54.99 20.64,-36.66 30.96,-87.53 30.96,-152.59 0,-65.56 -10.32,-116.67 -30.96,-153.32 -20.64,-36.66 -51.59,-54.99 -92.87,-54.99 -41.28,0 -72.11,18.33 -92.51,54.99 -20.39,36.66 -30.59,87.77 -30.59,153.32 0,65.07 10.2,115.94 30.59,152.59z"/>
   <path fill="#666666" fill-rule="nonzero" fill-opacity="0.800000" d="M19456.39 7518.76l0 -56.82 120.91 0 0 -386.04 -14.57 0 -107.07 72.11 0 -67.01 106.34 -72.11 79.4 0 0 453.04 111.44 0 0 56.82 -296.44 0zm415.17 -453.77c33.99,-44.19 79.4,-66.29 136.21,-66.29 56.82,0 102.34,22.22 136.58,66.65 34.23,44.43 51.35,110.6 51.35,198.48 0,87.89 -17.12,153.93 -51.35,198.11 -34.24,44.19 -79.76,66.29 -136.58,66.29 -56.81,0 -102.22,-22.1 -136.21,-66.29 -33.99,-44.18 -50.99,-110.23 -50.99,-198.11 0,-88.38 17,-154.65 50.99,-198.84zm43.7 351.44c20.4,36.66 51.23,54.99 92.51,54.99 41.28,0 72.23,-18.33 92.87,-54.99 20.64,-36.66 30.96,-87.53 30.96,-152.59 0,-65.56 -10.32,-116.67 -30.96,-153.32 -20.64,-36.66 -51.59,-54.99 -92.87,-54.99 -41.28,0 -72.11,18.33 -92.51,54.99 -20.39,36.66 -30.59,87.77 -30.59,153.32 0,65.07 10.2,115.94 30.59,152.59zm673.76 -336.15l-220.7 438.48 -67.01 0 221.42 -438.48 0 -16.02 -258.57 0 0 -55.36 324.86 0 0 71.38zm170.43 438.48l-75.75 0 0 -84.49 75.75 0 0 84.49zm126.74 -453.77c33.99,-44.19 79.4,-66.29 136.21,-66.29 56.82,0 102.34,22.22 136.58,66.65 34.23,44.43 51.35,110.6 51.35,198.48 0,87.89 -17.12,153.93 -51.35,198.11 -34.24,44.19 -79.76,66.29 -136.58,66.29 -56.81,0 -102.22,-22.1 -136.21,-66.29 -33.99,-44.18 -50.99,-110.23 -50.99,-198.11 0,-88.38 17,-154.65 50.99,-198.84zm43.7 351.44c20.4,36.66 51.23,54.99 92.51,54.99 41.28,0 72.23,-18.33 92.87,-54.99 20.64,-36.66 30.96,-87.53 30.96,-152.59 0,-65.56 -10.32,-116.67 -30.96,-153.32 -20.64,-36.66 -51.59,-54.99 -92.87,-54.99 -41.28,0 -72.11,18.33 -92.51,54.99 -20.39,36.66 -30.59,87.77 -30.59,153.32 0,65.07 10.2,115.94 30.59,152.59zm831.08 -8.38l61.92 0c-7.29,36.91 -24.4,66.17 -51.35,87.78 -26.96,21.6 -61.31,32.41 -103.07,32.41 -55.36,0 -98.94,-18.09 -130.75,-54.27 -31.81,-36.17 -47.71,-82.43 -47.71,-138.76 0,-56.81 15.78,-103.19 47.34,-139.12 31.57,-35.94 75.27,-53.9 131.12,-53.9 42.24,0 76.6,10.56 103.07,31.68 26.46,21.13 42.85,49.17 49.16,84.13l-61.91 0c-13.11,-41.27 -43.22,-61.91 -90.32,-61.91 -39.34,0 -68.59,12.99 -87.78,38.97 -19.18,25.98 -28.77,58.88 -28.77,98.7 0,40.3 9.71,73.81 29.14,100.52 19.42,26.7 48.56,40.06 87.41,40.06 51.47,0 82.31,-22.1 92.5,-66.29zm154.42 110.72l0 -367.1 98.33 0 90.32 167.52 16.03 0 90.32 -167.52 96.88 0 0 367.1 -60.46 0 0 -294.99 -16.02 0 -85.23 157.32 -68.47 0 -85.22 -157.32 -16.02 0 0 294.99 -60.46 0z"/>
   <g>
    <line fill="none" stroke="gray" stroke-width="10.58" stroke-miterlimit="22.9256" x1="18576.67" y1="6994.22" x2="18576.67" y2= "5922.22" />
    <line fill="none" stroke="gray" stroke-width="10.58" stroke-miterlimit="22.9256" x1="23616.96" y1="6589.73" x2="18145.97" y2= "6589.73" />
    <line fill="none" stroke="gray" stroke-width="10.58" stroke-miterlimit="22.9256" x1="23176.32" y1="6991.61" x2="23176.32" y2= "5922.22" />
   </g>
   <g>
    <line fill="none" stroke="gray" stroke-width="10.58" stroke-miterlimit="22.9256" x1="3542.94" y1="5485.31" x2="4612.34" y2= "5485.31" />
    <line fill="none" stroke="gray" stroke-width="10.58" stroke-miterlimit="22.9256" x1="3540.33" y1="1482.68" x2="4612.34" y2= "1482.68" />
    <line fill="none" stroke="gray" stroke-width="10.58" stroke-miterlimit="22.9256" x1="3936.33" y1="5918.82" x2="3940.48" y2= "1046.12" />
   </g>
   <g>
    <line fill="none" stroke="gray" stroke-width="10.58" stroke-miterlimit="22.9256" x1="16959.45" y1="19008.26" x2="4378.15" y2= "19007.49" />
    <line fill="none" stroke="gray" stroke-width="10.58" stroke-miterlimit="22.9256" x1="16527.12" y1="19409.34" x2="16527.12" y2= "18339.95" />
    <line fill="none" stroke="gray" stroke-width="10.58" stroke-miterlimit="22.9256" x1="4827.42" y1="19411.95" x2="4827.42" y2= "18339.95" />
   </g>
   <g>
    <line fill="none" stroke="gray" stroke-width="10.58" stroke-miterlimit="22.9256" x1="3540.33" y1="8836.46" x2="4612.34" y2= "8836.46" />
    <line fill="none" stroke="gray" stroke-width="10.58" stroke-miterlimit="22.9256" x1="3542.94" y1="16933.11" x2="4612.34" y2= "16933.11" />
    <line fill="none" stroke="gray" stroke-width="10.58" stroke-miterlimit="22.9256" x1="3945.92" y1="17374.26" x2="3941.44" y2= "8405.78" />
   </g>
  </g>
  <rect fill="none" width="29698.94" height="20999.25"/>
 </g>
</svg>
