<?xml version="1.0" encoding="UTF-8"?>
<!DOCTYPE svg PUBLIC "-//W3C//DTD SVG 1.1//EN" "http://www.w3.org/Graphics/SVG/1.1/DTD/svg11.dtd">
<!-- Creator: CorelDRAW 2021.5 -->
<svg xmlns="http://www.w3.org/2000/svg" xml:space="preserve" width="297mm" height="210mm" version="1.1" shape-rendering="geometricPrecision" text-rendering="geometricPrecision" image-rendering="optimizeQuality" fill-rule="evenodd" clip-rule="evenodd"
viewBox="0 0 29698.94 20999.25"
 xmlns:xlink="http://www.w3.org/1999/xlink"
 xmlns:xodm="http://www.corel.com/coreldraw/odm/2003">
 <g id="Тени">
  <metadata id="CorelCorpID_0Corel-Layer"/>
  <rect fill="none" width="29698.94" height="20999.25"/>
  <path fill="black" fill-opacity="0.101961" d="M12291.74 7178.63c97.71,3.07 680.73,-12.64 1008.55,-38.24 512.26,-40.01 826.26,-160.55 886.59,-600.04 -1.56,183.36 8.39,465.73 0,544.18 -8.13,76.18 6.03,223.01 -84.78,223.01 -271.12,0 -264.8,7.33 -302.87,7.33 -108.35,0 -232.25,-2.61 -343.38,-0.67 -123.82,2.18 -971.59,0 -1125.05,0 -46.93,0 -82.42,0 -108.78,0 -213.91,0 310.89,0 80.28,0 -10.35,-50.47 -11.89,-84.64 -10.57,-135.58z"/>
  <path fill="black" fill-opacity="0.101961" d="M12236.64 7182.57c-78.68,5.37 -1011.16,-4.58 -1089.5,-16.74 -372.42,-57.88 -714.17,-302.51 -758.27,-623.81 1.56,183.36 -8.39,465.73 0,544.18 8.13,76.18 -6.03,223.01 84.77,223.01 271.13,0 264.8,7.33 302.87,7.33 108.35,0 232.3,-2.52 343.39,-0.67 36.64,0.6 1053.19,-1.67 1117.08,-1.67 6.68,-30.14 -3.56,-45.99 -0.33,-131.64z"/>
  <path fill="black" fill-opacity="0.101961" d="M25390.98 7157.79c0.02,0 1379.48,89.54 1457.46,-633.52 -1.22,183.37 6.59,465.73 0,544.19 -6.38,76.18 4.74,223.01 -66.59,223.01 -212.97,0 -208.01,7.32 -237.91,7.32 -85.13,0 -182.53,-2.6 -269.74,-0.66 -253.58,5.61 -644.57,-2.74 -847.82,-2.74 -32.69,-44.53 -36.45,-86.67 -35.4,-137.61z"/>
  <path fill="black" fill-opacity="0.101961" d="M25358.61 7139.82c-71.31,6.76 -958.46,21.06 -1024.47,0.73 -235.04,-72.42 -421.74,-304.29 -451.69,-607.92 1.12,183.37 -6.03,465.73 0,544.18 5.84,76.19 -4.34,223.02 60.92,223.02 194.83,0 190.29,7.32 217.65,7.32 77.87,0 166.91,-2.58 246.76,-0.67 26.38,0.63 888.59,-20.03 934.5,-20.03 12.05,-36.09 14.02,-61 16.34,-146.63z"/>
  <g id="_2238314086688">
   <path fill="black" fill-opacity="0.101961" d="M6710.91 7163.89c97.71,3.08 680.74,-12.64 1008.56,-38.24 512.25,-40.01 826.25,-160.55 886.58,-600.04 -1.55,183.36 8.4,465.73 0,544.18 -8.12,76.18 6.04,223.02 -84.77,223.02 -271.12,0 -264.8,7.32 -302.87,7.32 -108.35,0 -232.25,-2.61 -343.39,-0.67 -123.82,2.18 -971.58,0 -1125.05,0 -46.93,0 -82.41,0 -108.77,0 -213.91,0 310.88,0 80.28,0 -10.35,-50.47 -11.89,-84.64 -10.58,-135.58z"/>
   <path fill="black" fill-opacity="0.101961" d="M6655.81 7167.83c-78.67,5.37 -1011.15,-4.58 -1089.5,-16.74 -372.41,-57.88 -714.16,-302.51 -758.26,-623.81 1.55,183.36 -8.4,465.73 0,544.18 8.12,76.18 -6.04,223.01 84.77,223.01 271.12,0 264.8,7.33 302.87,7.33 108.35,0 232.3,-2.52 343.39,-0.67 36.64,0.6 1053.18,-1.67 1117.08,-1.67 6.68,-30.14 -3.56,-45.99 -0.34,-131.64z"/>
  </g>
  <g id="_2238314088416">
   <path fill="none" stroke="black" stroke-width="10.58" stroke-miterlimit="22.9256" d="M8418.19 5991.79c-900.9,-99.05 -2390.32,-111.65 -3449.29,20.77 -66.36,8.28 -157.07,21.06 -157.07,98.11l0 1091.35c0,55.41 55.14,101.18 122.04,101.18l1721.44 0m61.73 -3.72l1766.99 3.72c66.86,0.11 122.04,-45.53 122.04,-101.18l0 -1091.35c0,-87.76 -121.35,-111.56 -187.86,-118.88"/>
   <line fill="none" stroke="black" stroke-width="10.58" stroke-miterlimit="22.9256" x1="8152.04" y1="6059.14" x2="5265.85" y2= "6064.72" />
   <path fill="none" stroke="black" stroke-width="10.58" stroke-miterlimit="22.9256" d="M8610.37 6995.35c87.71,22.89 112.36,205.52 126.21,283.32 13.68,76.9 25.41,164.21 28.67,220.91 3.26,56.69 14.34,230.67 14.34,230.67l-110.13 0c-16.83,-98.33 -8.64,-166.22 -61.16,-250.79 -54.01,-86.99 -138.3,-100.21 -215.79,-145.4 -15.63,-9.11 -14.06,-29.19 -14.06,-29.19"/>
   <path fill="none" stroke="black" stroke-width="10.58" stroke-miterlimit="22.9256" d="M4809.81 7003.99c-87.71,22.89 -112.36,205.52 -126.21,283.32 -13.68,76.9 -25.41,164.21 -28.68,220.9 -3.25,56.7 -14.33,230.68 -14.33,230.68l110.13 0c16.83,-98.33 8.64,-166.22 61.15,-250.79 54.02,-86.99 138.31,-100.21 215.8,-145.4 15.62,-9.12 14.06,-29.19 14.06,-29.19"/>
   <rect fill="white" stroke="black" stroke-width="10.58" stroke-miterlimit="22.9256" transform="matrix(1.33673 -0.0212363 0.00219602 0.860401 6670.96 6995.95)" width="37.22" height="871.58"/>
  </g>
  <g id="_2238314098016">
   <path fill="black" fill-opacity="0.101961" d="M20667.5 7167.14c0.01,0 1379.48,89.54 1457.45,-633.52 -1.22,183.37 6.6,465.73 0,544.19 -6.38,76.18 4.74,223.01 -66.59,223.01 -212.97,0 -208.01,7.32 -237.91,7.32 -85.13,0 -182.53,-2.6 -269.74,-0.66 -253.57,5.61 -644.57,-2.74 -847.82,-2.74 -32.68,-44.53 -36.44,-86.67 -35.39,-137.61z"/>
   <path fill="black" fill-opacity="0.101961" d="M20635.12 7149.16c-71.3,6.76 -958.46,21.06 -1024.47,0.73 -235.04,-72.42 -421.74,-304.29 -451.69,-607.92 1.12,183.37 -6.03,465.73 0,544.18 5.84,76.19 -4.33,223.02 60.92,223.02 194.83,0 190.29,7.32 217.65,7.32 77.88,0 166.91,-2.58 246.76,-0.67 26.38,0.63 888.59,-20.03 934.51,-20.03 12.04,-36.09 14.01,-61 16.33,-146.63z"/>
  </g>
  <g id="_2238314103584">
   <path fill="none" stroke="black" stroke-width="10.58" stroke-miterlimit="22.9256" d="M21975.41 6002.85c-703.69,-99.04 -1867.1,-111.64 -2694.27,20.77 -51.82,8.29 -122.68,21.07 -122.68,98.11l0 1091.35c0,55.57 42.95,101.25 95.32,101.18l1359.15 -1.84m54.56 -4.9l1359.34 6.74c52.38,0.25 95.33,-45.52 95.33,-101.18l0 -1091.35c0,-87.75 -94.79,-111.55 -146.74,-118.88"/>
   <line fill="none" stroke="black" stroke-width="10.58" stroke-miterlimit="22.9256" x1="21767.51" y1="6070.2" x2="19513.09" y2= "6075.79" />
   <path fill="none" stroke="black" stroke-width="10.58" stroke-miterlimit="22.9256" d="M22126.46 7006.42c87.71,22.89 112.37,205.51 126.21,283.31 13.69,76.9 25.42,164.21 28.68,220.91 3.25,56.7 14.33,230.68 14.33,230.68l-110.13 0c-16.83,-98.33 -8.64,-166.23 -61.15,-250.8 -54.02,-86.98 -138.31,-100.2 -215.8,-145.4 -15.62,-9.11 -14.06,-29.19 -14.06,-29.19"/>
   <rect fill="white" stroke="black" stroke-width="10.58" stroke-miterlimit="22.9256" x="20617.73" y="7023.77" width="49.75" height="718.72"/>
   <path fill="none" stroke="black" stroke-width="10.58" stroke-miterlimit="22.9256" d="M19154.85 7002.65c-87.7,22.9 -112.36,205.52 -126.21,283.32 -13.68,76.9 -25.41,164.21 -28.67,220.91 -3.26,56.69 -14.34,230.68 -14.34,230.68l110.13 0c16.83,-98.34 8.65,-166.23 61.16,-250.8 54.01,-86.98 138.31,-100.21 215.79,-145.4 15.63,-9.11 14.06,-29.19 14.06,-29.19"/>
  </g>
 </g>
 <g id="Схемы">
  <metadata id="CorelCorpID_1Corel-Layer"/>
  <path fill="none" stroke="black" stroke-width="10.58" stroke-miterlimit="22.9256" d="M26698.9 5993.5c-703.7,-99.04 -1867.1,-111.64 -2694.27,20.77 -51.82,8.29 -122.69,21.06 -122.69,98.11l0 1091.35c0,55.57 42.96,101.25 95.33,101.18l1359.15 -1.84m54.56 -4.9l1359.34 6.74c52.37,0.25 95.33,-45.52 95.33,-101.18l0 -1091.35c0,-87.75 -94.79,-111.55 -146.74,-118.88"/>
  <line fill="none" stroke="black" stroke-width="10.58" stroke-miterlimit="22.9256" x1="26491" y1="6060.85" x2="24236.57" y2= "6066.44" />
  <path fill="none" stroke="black" stroke-width="10.58" stroke-miterlimit="22.9256" d="M26849.95 6997.07c87.71,22.89 112.36,205.51 126.21,283.31 13.68,76.9 25.41,164.21 28.68,220.91 3.25,56.7 14.33,230.68 14.33,230.68l-110.13 0c-16.83,-98.33 -8.64,-166.23 -61.16,-250.8 -54.01,-86.98 -138.3,-100.2 -215.79,-145.4 -15.63,-9.11 -14.06,-29.19 -14.06,-29.19"/>
  <ellipse fill="none" stroke="black" stroke-width="10.58" stroke-miterlimit="22.9256" transform="matrix(0.0197779 0.859195 -1.02076 0.023497 20525.8 11326)" rx="1711.47" ry="1440.58"/>
  <ellipse fill="none" stroke="black" stroke-width="10.58" stroke-miterlimit="22.9256" transform="matrix(0.0255092 1.10817 -1.31656 0.030306 6545.2 11598.2)" rx="1711.47" ry="1440.58"/>
  <rect fill="white" stroke="black" stroke-width="10.58" stroke-miterlimit="22.9256" transform="matrix(1.33668 -0.0195804 -0.00271303 -0.185208 6498.05 9697.22)" width="37.22" height="871.58"/>
  <path fill="none" stroke="black" stroke-width="10.58" stroke-miterlimit="22.9256" d="M13999.02 6006.53c-900.91,-99.05 -2390.33,-111.65 -3449.29,20.77 -66.37,8.28 -157.08,21.06 -157.08,98.11l0 1091.34c0,55.42 55.15,101.19 122.05,101.19l1721.43 0m61.74 -3.72l1766.99 3.72c66.85,0.11 122.04,-45.53 122.04,-101.19l0 -1091.34c0,-87.76 -121.35,-111.56 -187.86,-118.88"/>
  <line fill="none" stroke="black" stroke-width="10.58" stroke-miterlimit="22.9256" x1="13732.86" y1="6073.88" x2="10846.67" y2= "6079.46" />
  <path fill="none" stroke="black" stroke-width="10.58" stroke-miterlimit="22.9256" d="M14191.19 7010.09c87.71,22.89 112.37,205.52 126.21,283.32 13.69,76.9 25.41,164.21 28.68,220.9 3.25,56.7 14.33,230.68 14.33,230.68l-110.13 0c-16.83,-98.33 -8.64,-166.22 -61.15,-250.79 -54.02,-86.99 -138.31,-100.21 -215.8,-145.4 -15.62,-9.12 -14.06,-29.19 -14.06,-29.19"/>
  <path fill="none" stroke="black" stroke-width="10.58" stroke-miterlimit="22.9256" d="M10390.63 7018.73c-87.71,22.89 -112.36,205.52 -126.21,283.32 -13.68,76.9 -25.41,164.21 -28.67,220.9 -3.26,56.7 -14.34,230.68 -14.34,230.68l110.13 0c16.83,-98.33 8.64,-166.23 61.16,-250.8 54.01,-86.98 138.31,-100.2 215.79,-145.39 15.63,-9.12 14.06,-29.2 14.06,-29.2"/>
  <rect fill="white" stroke="black" stroke-width="10.58" stroke-miterlimit="22.9256" transform="matrix(1.33673 -0.0212363 0.00219602 0.860401 12251.8 7010.68)" width="37.22" height="871.58"/>
  <rect fill="white" stroke="black" stroke-width="10.58" stroke-miterlimit="22.9256" transform="matrix(1.33668 -0.0195804 -0.00271303 -0.185208 6495.35 13660.7)" width="37.22" height="871.58"/>
  <rect fill="white" stroke="black" stroke-width="10.58" stroke-miterlimit="22.9256" transform="matrix(-3.55912E-14 -1.33682 -0.185228 4.89978E-15 4646.33 11592.4)" width="37.22" height="871.58"/>
  <rect fill="white" stroke="black" stroke-width="10.58" stroke-miterlimit="22.9256" transform="matrix(-3.55912E-14 -1.33682 -0.185228 4.89978E-15 8609.37 11653.1)" width="37.22" height="871.58"/>
  <rect fill="white" stroke="black" stroke-width="10.58" stroke-miterlimit="22.9256" transform="matrix(1.03974 -0.0152307 -0.00211034 -0.144065 20506.8 9842.23)" width="37.22" height="871.58"/>
  <rect fill="white" stroke="black" stroke-width="10.58" stroke-miterlimit="22.9256" transform="matrix(1.03974 -0.0152307 -0.00211034 -0.144065 20504.7 12925.3)" width="37.22" height="871.58"/>
  <rect fill="white" stroke="black" stroke-width="10.58" stroke-miterlimit="22.9256" transform="matrix(-2.76847E-14 -1.03985 -0.14408 3.81131E-15 19066.4 11316.4)" width="37.22" height="871.58"/>
  <rect fill="white" stroke="black" stroke-width="10.58" stroke-miterlimit="22.9256" transform="matrix(-2.76847E-14 -1.03985 -0.14408 3.81131E-15 22138 11363.6)" width="37.22" height="871.58"/>
  <rect fill="white" stroke="black" stroke-width="10.58" stroke-miterlimit="22.9256" x="25341.22" y="7014.42" width="49.75" height="718.72"/>
  <path fill="none" stroke="black" stroke-width="10.58" stroke-miterlimit="22.9256" d="M23878.34 6993.3c-87.71,22.9 -112.36,205.52 -126.21,283.32 -13.68,76.9 -25.41,164.21 -28.67,220.91 -3.26,56.69 -14.34,230.68 -14.34,230.68l110.13 0c16.83,-98.34 8.64,-166.23 61.16,-250.8 54.01,-86.98 138.31,-100.21 215.79,-145.4 15.63,-9.11 14.06,-29.19 14.06,-29.19"/>
 </g>
 <g id="Выносные">
  <metadata id="CorelCorpID_2Corel-Layer"/>
  <line fill="none" stroke="gray" stroke-width="10.58" stroke-miterlimit="22.9256" x1="4628.55" y1="14932.38" x2="4628.55" y2= "13776.56" />
  <line fill="none" stroke="gray" stroke-width="10.58" stroke-miterlimit="22.9256" x1="8413.62" y1="14936.93" x2="8413.62" y2= "13783.93" />
  <line fill="none" stroke="gray" stroke-width="10.58" stroke-miterlimit="22.9256" x1="8810.16" y1="14503.63" x2="4202.62" y2= "14503.63" />
  <line fill="none" stroke="gray" stroke-width="10.58" stroke-miterlimit="22.9256" x1="3181.79" y1="13472.1" x2="4334.79" y2= "13472.1" />
  <line fill="none" stroke="gray" stroke-width="10.58" stroke-miterlimit="22.9256" x1="3187.01" y1="9706.35" x2="4342.83" y2= "9706.35" />
  <line fill="none" stroke="gray" stroke-width="10.58" stroke-miterlimit="22.9256" x1="3610.63" y1="13912.17" x2="3610.63" y2= "9335.42" />
  <line fill="none" stroke="gray" stroke-width="10.58" stroke-miterlimit="22.9256" x1="3187.22" y1="7722.69" x2="4340.23" y2= "7722.69" />
  <line fill="none" stroke="gray" stroke-width="10.58" stroke-miterlimit="22.9256" x1="3184.41" y1="5955.32" x2="4340.23" y2= "5955.32" />
  <line fill="none" stroke="gray" stroke-width="10.58" stroke-miterlimit="22.9256" x1="3620.51" y1="8160.79" x2="3620.51" y2= "5561.6" />
  <g id="_2238314072576">
   <line fill="none" stroke="gray" stroke-width="10.58" stroke-miterlimit="22.9256" x1="17511.84" y1="7721.69" x2="18664.85" y2= "7721.69" />
   <line fill="none" stroke="gray" stroke-width="10.58" stroke-miterlimit="22.9256" x1="17509.04" y1="5954.32" x2="18664.85" y2= "5954.32" />
   <line fill="none" stroke="gray" stroke-width="10.58" stroke-miterlimit="22.9256" x1="17945.14" y1="8159.79" x2="17945.14" y2= "5560.6" />
  </g>
  <g id="_2238482353856">
   <line fill="none" stroke="gray" stroke-width="10.58" stroke-miterlimit="22.9256" x1="17504.59" y1="9680.39" x2="18660.39" y2= "9680.39" />
   <line fill="none" stroke="gray" stroke-width="10.58" stroke-miterlimit="22.9256" x1="17928.2" y1="13092.71" x2="17928.2" y2= "9309.46" />
   <line fill="none" stroke="gray" stroke-width="10.58" stroke-miterlimit="22.9256" x1="17499.37" y1="12739.68" x2="18652.36" y2= "12739.68" />
  </g>
  <g id="_2238482370032">
   <line fill="none" stroke="gray" stroke-width="10.58" stroke-miterlimit="22.9256" x1="18965.42" y1="14119.41" x2="18965.42" y2= "12963.59" />
   <line fill="none" stroke="gray" stroke-width="10.58" stroke-miterlimit="22.9256" x1="21902.73" y1="14123.96" x2="21902.73" y2= "12970.96" />
   <line fill="none" stroke="gray" stroke-width="10.58" stroke-miterlimit="22.9256" x1="22299.26" y1="13690.66" x2="18542.19" y2= "13690.66" />
  </g>
 </g>
 <g id="Текст">
  <metadata id="CorelCorpID_3Corel-Layer"/>
  <path fill="#666666" fill-rule="nonzero" fill-opacity="0.800000" d="M19438.27 14250.49l-237.95 472.77 -72.25 0 238.74 -472.77 0 -17.27 -278.8 0 0 -59.69 350.26 0 0 76.96zm139.8 -16.49c36.65,-47.64 85.6,-71.47 146.85,-71.47 61.26,0 110.35,23.96 147.25,71.86 36.91,47.91 55.37,119.25 55.37,214 0,94.77 -18.46,165.97 -55.37,213.61 -36.91,47.65 -86,71.47 -147.25,71.47 -61.26,0 -110.21,-23.82 -146.85,-71.47 -36.65,-47.64 -54.98,-118.85 -54.98,-213.61 0,-95.29 18.33,-166.74 54.98,-214.39zm47.12 378.93c21.99,39.53 55.24,59.29 99.74,59.29 44.51,0 77.88,-19.76 100.14,-59.29 22.25,-39.53 33.37,-94.38 33.37,-164.53 0,-70.68 -11.12,-125.78 -33.37,-165.3 -22.26,-39.53 -55.63,-59.3 -100.14,-59.3 -44.5,0 -77.75,19.77 -99.74,59.3 -21.99,39.53 -32.98,94.63 -32.98,165.3 0,70.16 10.99,125.01 32.98,164.53zm459.42 110.34l-81.68 0 0 -91.1 81.68 0 0 91.1zm136.65 -489.26c36.65,-47.64 85.6,-71.47 146.85,-71.47 61.26,0 110.35,23.96 147.25,71.86 36.91,47.91 55.37,119.25 55.37,214 0,94.77 -18.46,165.97 -55.37,213.61 -36.91,47.65 -86,71.47 -147.25,71.47 -61.26,0 -110.21,-23.82 -146.85,-71.47 -36.65,-47.64 -54.98,-118.85 -54.98,-213.61 0,-95.29 18.33,-166.74 54.98,-214.39zm47.12 378.93c21.99,39.53 55.24,59.29 99.74,59.29 44.51,0 77.88,-19.76 100.14,-59.29 22.25,-39.53 33.37,-94.38 33.37,-164.53 0,-70.68 -11.12,-125.78 -33.37,-165.3 -22.26,-39.53 -55.63,-59.3 -100.14,-59.3 -44.5,0 -77.75,19.77 -99.74,59.3 -21.99,39.53 -32.98,94.63 -32.98,165.3 0,70.16 10.99,125.01 32.98,164.53zm896.07 -9.03l66.75 0c-7.85,39.79 -26.31,71.33 -55.36,94.63 -29.06,23.3 -66.11,34.95 -111.13,34.95 -59.69,0 -106.68,-19.5 -140.97,-58.51 -34.29,-39.01 -51.44,-88.88 -51.44,-149.6 0,-61.26 17.02,-111.26 51.05,-149.99 34.03,-38.75 81.16,-58.12 141.36,-58.12 45.55,0 82.59,11.39 111.13,34.16 28.53,22.78 46.2,53.01 53.01,90.71l-66.76 0c-14.14,-44.5 -46.6,-66.75 -97.38,-66.75 -42.41,0 -73.96,14 -94.64,42.01 -20.68,28.01 -31.02,63.49 -31.02,106.42 0,43.46 10.47,79.58 31.41,108.38 20.95,28.79 52.36,43.19 94.25,43.19 55.5,0 88.74,-23.82 99.74,-71.46zm166.48 119.37l0 -395.81 106.02 0 97.39 180.62 17.28 0 97.38 -180.62 104.45 0 0 395.81 -65.18 0 0 -318.06 -17.28 0 -91.89 169.63 -73.82 0 -91.89 -169.63 -17.28 0 0 318.06 -65.18 0z"/>
  <path fill="#666666" fill-rule="nonzero" fill-opacity="0.800000" d="M17301.46 7257.96l0 -75.4 61.26 0 0 75.4 128.8 0 0 67.54 -128.8 0 0 271.72 -78.54 0 -342.4 -242.67 0 -96.59 359.68 0zm0 267.01l0 -200.26 -281.93 0 0 17.28 264.65 182.98 17.28 0zm190.05 -424.08l-61.26 0 0 -130.37 -416.23 0 0 15.71 77.75 115.45 -72.25 0 -77.75 -114.66 0 -85.61 488.47 0 0 -120.16 61.26 0 0 319.63zm0 -491.61l0 81.68 -91.1 0 0 -81.68 91.1 0zm-489.26 -136.65c-47.64,-36.65 -71.47,-85.6 -71.47,-146.85 0,-61.26 23.96,-110.35 71.86,-147.25 47.91,-36.91 119.25,-55.37 214,-55.37 94.77,0 165.97,18.46 213.61,55.37 47.65,36.91 71.47,86 71.47,147.25 0,61.26 -23.82,110.21 -71.47,146.85 -47.64,36.65 -118.85,54.98 -213.61,54.98 -95.29,0 -166.74,-18.33 -214.39,-54.98zm378.93 -47.12c39.53,-21.99 59.29,-55.24 59.29,-99.74 0,-44.51 -19.76,-77.88 -59.29,-100.14 -39.53,-22.25 -94.38,-33.37 -164.53,-33.37 -70.68,0 -125.78,11.12 -165.3,33.37 -39.53,22.26 -59.3,55.63 -59.3,100.14 0,44.5 19.77,77.75 59.3,99.74 39.53,21.99 94.63,32.98 165.3,32.98 70.16,0 125.01,-10.99 164.53,-32.98z"/>
  <path fill="#666666" fill-rule="nonzero" fill-opacity="0.800000" d="M16974.13 12187.47l472.77 237.95 0 72.25 -472.77 -238.74 -17.27 0 0 278.8 -59.69 0 0 -350.26 76.96 0zm-16.49 -119.38c-47.64,-36.65 -71.47,-85.6 -71.47,-146.85 0,-61.26 23.96,-110.35 71.86,-147.25 47.91,-36.91 119.25,-55.37 214,-55.37 94.77,0 165.97,18.46 213.61,55.37 47.65,36.91 71.47,86 71.47,147.25 0,61.26 -23.82,110.21 -71.47,146.85 -47.64,36.65 -118.85,54.98 -213.61,54.98 -95.29,0 -166.74,-18.33 -214.39,-54.98zm378.93 -47.12c39.53,-21.99 59.29,-55.24 59.29,-99.74 0,-44.51 -19.76,-77.88 -59.29,-100.14 -39.53,-22.25 -94.38,-33.37 -164.53,-33.37 -70.68,0 -125.78,11.12 -165.3,33.37 -39.53,22.26 -59.3,55.63 -59.3,100.14 0,44.5 19.77,77.75 59.3,99.74 39.53,21.99 94.63,32.98 165.3,32.98 70.16,0 125.01,-10.99 164.53,-32.98zm110.34 -487.69l0 81.68 -91.1 0 0 -81.68 91.1 0zm-489.26 -136.65c-47.64,-36.65 -71.47,-85.6 -71.47,-146.85 0,-61.26 23.96,-110.35 71.86,-147.25 47.91,-36.91 119.25,-55.37 214,-55.37 94.77,0 165.97,18.46 213.61,55.37 47.65,36.91 71.47,86 71.47,147.25 0,61.26 -23.82,110.21 -71.47,146.85 -47.64,36.65 -118.85,54.98 -213.61,54.98 -95.29,0 -166.74,-18.33 -214.39,-54.98zm378.93 -47.12c39.53,-21.99 59.29,-55.24 59.29,-99.74 0,-44.51 -19.76,-77.88 -59.29,-100.14 -39.53,-22.25 -94.38,-33.37 -164.53,-33.37 -70.68,0 -125.78,11.12 -165.3,33.37 -39.53,22.26 -59.3,55.63 -59.3,100.14 0,44.5 19.77,77.75 59.3,99.74 39.53,21.99 94.63,32.98 165.3,32.98 70.16,0 125.01,-10.99 164.53,-32.98zm-9.03 -896.07l0 -66.75c39.79,7.85 71.33,26.31 94.63,55.36 23.3,29.06 34.95,66.11 34.95,111.13 0,59.69 -19.5,106.68 -58.51,140.97 -39.01,34.29 -88.88,51.44 -149.6,51.44 -61.26,0 -111.26,-17.02 -149.99,-51.05 -38.75,-34.03 -58.12,-81.16 -58.12,-141.36 0,-45.55 11.39,-82.59 34.16,-111.13 22.78,-28.53 53.01,-46.2 90.71,-53.01l0 66.76c-44.5,14.14 -66.75,46.6 -66.75,97.38 0,42.41 14,73.96 42.01,94.64 28.01,20.68 63.49,31.02 106.42,31.02 43.46,0 79.58,-10.47 108.38,-31.41 28.79,-20.95 43.19,-52.36 43.19,-94.25 0,-55.5 -23.82,-88.74 -71.46,-99.74zm119.37 -166.48l-395.81 0 0 -106.02 180.62 -97.39 0 -17.28 -180.62 -97.38 0 -104.45 395.81 0 0 65.18 -318.06 0 0 17.28 169.63 91.89 0 73.82 -169.63 91.89 0 17.28 318.06 0 0 65.18z"/>
  <path fill="#666666" fill-rule="nonzero" fill-opacity="0.800000" d="M5395.15 15198.18c-50.26,0 -92.15,-16.89 -125.66,-50.66 -33.51,-33.77 -50.26,-76.57 -50.26,-128.41 0,-53.92 16.89,-98.95 50.66,-135.08 33.77,-36.12 79.19,-54.19 136.26,-54.19 62.3,0 111.52,21.47 147.63,64.4 36.13,42.94 54.19,111.52 54.19,205.76 0,88.48 -17.67,160.72 -53.01,216.75 -35.34,56.02 -87.3,84.03 -155.88,84.03 -45.55,0 -82.86,-12.17 -111.92,-36.52 -29.05,-24.35 -46.72,-55.89 -53.01,-94.64l68.33 0c13.61,46.6 45.81,69.9 96.6,69.9 43.45,0 77.49,-17.28 102.09,-51.83 24.61,-34.56 37.96,-82.2 40.06,-142.93l-17.28 0c-11.52,14.14 -28.4,26.57 -50.66,37.31 -22.25,10.73 -48.3,16.1 -78.14,16.1zm98.17 -273.3c-23.04,-22.51 -51.83,-33.77 -86.39,-33.77 -34.55,0 -62.96,11 -85.21,32.99 -22.25,21.99 -33.38,52.62 -33.38,91.88 0,39.27 11.26,69.38 33.77,90.32 22.52,20.94 51.31,31.41 86.39,31.41 34.56,0 63.09,-10.73 85.61,-32.2 22.51,-21.46 33.77,-51.04 33.77,-88.74 0,-38.75 -11.52,-69.37 -34.56,-91.89zm256.02 -23.56c36.65,-47.64 85.6,-71.47 146.85,-71.47 61.26,0 110.35,23.96 147.25,71.86 36.91,47.91 55.37,119.25 55.37,214 0,94.77 -18.46,165.97 -55.37,213.61 -36.91,47.65 -86,71.47 -147.25,71.47 -61.26,0 -110.21,-23.82 -146.85,-71.47 -36.65,-47.64 -54.98,-118.85 -54.98,-213.61 0,-95.29 18.33,-166.74 54.98,-214.39zm47.12 378.93c21.99,39.53 55.24,59.29 99.74,59.29 44.51,0 77.88,-19.76 100.14,-59.29 22.25,-39.53 33.37,-94.38 33.37,-164.53 0,-70.68 -11.12,-125.78 -33.37,-165.3 -22.26,-39.53 -55.63,-59.3 -100.14,-59.3 -44.5,0 -77.75,19.77 -99.74,59.3 -21.99,39.53 -32.98,94.63 -32.98,165.3 0,70.16 10.99,125.01 32.98,164.53zm459.42 110.34l-81.68 0 0 -91.1 81.68 0 0 91.1zm136.65 -489.26c36.65,-47.64 85.6,-71.47 146.85,-71.47 61.26,0 110.35,23.96 147.25,71.86 36.91,47.91 55.37,119.25 55.37,214 0,94.77 -18.46,165.97 -55.37,213.61 -36.91,47.65 -86,71.47 -147.25,71.47 -61.26,0 -110.21,-23.82 -146.85,-71.47 -36.65,-47.64 -54.98,-118.85 -54.98,-213.61 0,-95.29 18.33,-166.74 54.98,-214.39zm47.12 378.93c21.99,39.53 55.24,59.29 99.74,59.29 44.51,0 77.88,-19.76 100.14,-59.29 22.25,-39.53 33.37,-94.38 33.37,-164.53 0,-70.68 -11.12,-125.78 -33.37,-165.3 -22.26,-39.53 -55.63,-59.3 -100.14,-59.3 -44.5,0 -77.75,19.77 -99.74,59.3 -21.99,39.53 -32.98,94.63 -32.98,165.3 0,70.16 10.99,125.01 32.98,164.53zm896.07 -9.03l66.75 0c-7.85,39.79 -26.31,71.33 -55.36,94.63 -29.06,23.3 -66.11,34.95 -111.13,34.95 -59.69,0 -106.68,-19.5 -140.97,-58.51 -34.29,-39.01 -51.44,-88.88 -51.44,-149.6 0,-61.26 17.02,-111.26 51.05,-149.99 34.03,-38.75 81.16,-58.12 141.36,-58.12 45.55,0 82.59,11.39 111.13,34.16 28.53,22.78 46.2,53.01 53.01,90.71l-66.76 0c-14.14,-44.5 -46.6,-66.75 -97.38,-66.75 -42.41,0 -73.96,14 -94.64,42.01 -20.68,28.01 -31.02,63.49 -31.02,106.42 0,43.46 10.47,79.58 31.41,108.38 20.95,28.79 52.36,43.19 94.25,43.19 55.5,0 88.74,-23.82 99.74,-71.46zm166.48 119.37l0 -395.81 106.02 0 97.39 180.62 17.28 0 97.38 -180.62 104.45 0 0 395.81 -65.18 0 0 -318.06 -17.28 0 -91.89 169.63 -73.82 0 -91.89 -169.63 -17.28 0 0 318.06 -65.18 0z"/>
  <path fill="#666666" fill-rule="nonzero" fill-opacity="0.800000" d="M2983.89 7258.96l0 -75.4 61.26 0 0 75.4 128.8 0 0 67.54 -128.8 0 0 271.72 -78.54 0 -342.4 -242.67 0 -96.59 359.68 0zm0 267.01l0 -200.26 -281.93 0 0 17.28 264.65 182.98 17.28 0zm190.05 -424.08l-61.26 0 0 -130.37 -416.23 0 0 15.71 77.75 115.45 -72.25 0 -77.75 -114.66 0 -85.61 488.47 0 0 -120.16 61.26 0 0 319.63zm0 -491.61l0 81.68 -91.1 0 0 -81.68 91.1 0zm-489.26 -136.65c-47.64,-36.65 -71.47,-85.6 -71.47,-146.85 0,-61.26 23.96,-110.35 71.86,-147.25 47.91,-36.91 119.25,-55.37 214,-55.37 94.77,0 165.97,18.46 213.61,55.37 47.65,36.91 71.47,86 71.47,147.25 0,61.26 -23.82,110.21 -71.47,146.85 -47.64,36.65 -118.85,54.98 -213.61,54.98 -95.29,0 -166.74,-18.33 -214.39,-54.98zm378.93 -47.12c39.53,-21.99 59.29,-55.24 59.29,-99.74 0,-44.51 -19.76,-77.88 -59.29,-100.14 -39.53,-22.25 -94.38,-33.37 -164.53,-33.37 -70.68,0 -125.78,11.12 -165.3,33.37 -39.53,22.26 -59.3,55.63 -59.3,100.14 0,44.5 19.77,77.75 59.3,99.74 39.53,21.99 94.63,32.98 165.3,32.98 70.16,0 125.01,-10.99 164.53,-32.98z"/>
  <path fill="#666666" fill-rule="nonzero" fill-opacity="0.800000" d="M2981.54 12814.74c0,50.26 -16.89,92.15 -50.66,125.66 -33.77,33.51 -76.57,50.26 -128.41,50.26 -53.92,0 -98.95,-16.89 -135.08,-50.66 -36.12,-33.77 -54.19,-79.19 -54.19,-136.26 0,-62.3 21.47,-111.52 64.4,-147.63 42.94,-36.13 111.52,-54.19 205.76,-54.19 88.48,0 160.72,17.67 216.75,53.01 56.02,35.34 84.03,87.3 84.03,155.88 0,45.55 -12.17,82.86 -36.52,111.92 -24.35,29.05 -55.89,46.72 -94.64,53.01l0 -68.33c46.6,-13.61 69.9,-45.81 69.9,-96.6 0,-43.45 -17.28,-77.49 -51.83,-102.09 -34.56,-24.61 -82.2,-37.96 -142.93,-40.06l0 17.28c14.14,11.52 26.57,28.4 37.31,50.66 10.73,22.25 16.1,48.3 16.1,78.14zm-273.3 -98.17c-22.51,23.04 -33.77,51.83 -33.77,86.39 0,34.55 11,62.96 32.99,85.21 21.99,22.25 52.62,33.38 91.88,33.38 39.27,0 69.38,-11.26 90.32,-33.77 20.94,-22.52 31.41,-51.31 31.41,-86.39 0,-34.56 -10.73,-63.09 -32.2,-85.61 -21.46,-22.51 -51.04,-33.77 -88.74,-33.77 -38.75,0 -69.37,11.52 -91.89,34.56zm-23.56 -256.02c-47.64,-36.65 -71.47,-85.6 -71.47,-146.85 0,-61.26 23.96,-110.35 71.86,-147.25 47.91,-36.91 119.25,-55.37 214,-55.37 94.77,0 165.97,18.46 213.61,55.37 47.65,36.91 71.47,86 71.47,147.25 0,61.26 -23.82,110.21 -71.47,146.85 -47.64,36.65 -118.85,54.98 -213.61,54.98 -95.29,0 -166.74,-18.33 -214.39,-54.98zm378.93 -47.12c39.53,-21.99 59.29,-55.24 59.29,-99.74 0,-44.51 -19.76,-77.88 -59.29,-100.14 -39.53,-22.25 -94.38,-33.37 -164.53,-33.37 -70.68,0 -125.78,11.12 -165.3,33.37 -39.53,22.26 -59.3,55.63 -59.3,100.14 0,44.5 19.77,77.75 59.3,99.74 39.53,21.99 94.63,32.98 165.3,32.98 70.16,0 125.01,-10.99 164.53,-32.98zm110.34 -487.69l0 81.68 -91.1 0 0 -81.68 91.1 0zm-489.26 -136.65c-47.64,-36.65 -71.47,-85.6 -71.47,-146.85 0,-61.26 23.96,-110.35 71.86,-147.25 47.91,-36.91 119.25,-55.37 214,-55.37 94.77,0 165.97,18.46 213.61,55.37 47.65,36.91 71.47,86 71.47,147.25 0,61.26 -23.82,110.21 -71.47,146.85 -47.64,36.65 -118.85,54.98 -213.61,54.98 -95.29,0 -166.74,-18.33 -214.39,-54.98zm378.93 -47.12c39.53,-21.99 59.29,-55.24 59.29,-99.74 0,-44.51 -19.76,-77.88 -59.29,-100.14 -39.53,-22.25 -94.38,-33.37 -164.53,-33.37 -70.68,0 -125.78,11.12 -165.3,33.37 -39.53,22.26 -59.3,55.63 -59.3,100.14 0,44.5 19.77,77.75 59.3,99.74 39.53,21.99 94.63,32.98 165.3,32.98 70.16,0 125.01,-10.99 164.53,-32.98zm-9.03 -896.07l0 -66.75c39.79,7.85 71.33,26.31 94.63,55.36 23.3,29.06 34.95,66.11 34.95,111.13 0,59.69 -19.5,106.68 -58.51,140.97 -39.01,34.29 -88.88,51.44 -149.6,51.44 -61.26,0 -111.26,-17.02 -149.99,-51.05 -38.75,-34.03 -58.12,-81.16 -58.12,-141.36 0,-45.55 11.39,-82.59 34.16,-111.13 22.78,-28.53 53.01,-46.2 90.71,-53.01l0 66.76c-44.5,14.14 -66.75,46.6 -66.75,97.38 0,42.41 14,73.96 42.01,94.64 28.01,20.68 63.49,31.02 106.42,31.02 43.46,0 79.58,-10.47 108.38,-31.41 28.79,-20.95 43.19,-52.36 43.19,-94.25 0,-55.5 -23.82,-88.74 -71.46,-99.74zm119.37 -166.48l-395.81 0 0 -106.02 180.62 -97.39 0 -17.28 -180.62 -97.38 0 -104.45 395.81 0 0 65.18 -318.06 0 0 17.28 169.63 91.89 0 73.82 -169.63 91.89 0 17.28 318.06 0 0 65.18z"/>
 </g>
</svg>
