<?xml version="1.0" encoding="UTF-8"?>
<!DOCTYPE svg PUBLIC "-//W3C//DTD SVG 1.1//EN" "http://www.w3.org/Graphics/SVG/1.1/DTD/svg11.dtd">
<!-- Creator: CorelDRAW 2021.5 -->
<svg xmlns="http://www.w3.org/2000/svg" xml:space="preserve" width="500mm" height="300mm" version="1.1" shape-rendering="geometricPrecision" text-rendering="geometricPrecision" image-rendering="optimizeQuality" fill-rule="evenodd" clip-rule="evenodd"
viewBox="0 0 49995.86 29997.52"
 xmlns:xlink="http://www.w3.org/1999/xlink"
 xmlns:xodm="http://www.corel.com/coreldraw/odm/2003">
 <g id="Тени">
  <metadata id="CorelCorpID_0Corel-Layer"/>
  <rect fill="none" width="49995.86" height="29997.52"/>
  <polygon fill="black" fill-opacity="0.101961" points="17737.81,9214 19659.55,9214 19659.55,9335.18 17887.16,9335.18 17737.91,9415.83 17737.81,9335.18 "/>
  <polygon fill="black" fill-opacity="0.101961" points="15199.97,10522.35 15161.75,10466.55 15078.81,10454.27 15062.98,11307.68 15154.07,11298.66 15207.31,11259.39 "/>
  <path fill="black" fill-opacity="0.101961" d="M6546.7 8404.49c812.62,62.48 1063.48,184.54 1713.72,191.21 693.04,7.1 890.48,-95.6 1968.56,-204.98 -606.21,8.64 -1199.33,30.65 -1805.55,39.31l-1876.72 -25.54z"/>
  <path fill="black" fill-opacity="0.101961" d="M11052.13 8413.85c788.19,62.48 1031.51,184.54 1662.19,191.21 672.21,7.1 863.72,-95.59 1909.38,-204.98 -587.98,8.65 -1163.27,30.65 -1751.27,39.31l-1820.3 -25.54z"/>
  <polygon fill="black" fill-opacity="0.101961" points="5943.88,10509.55 5971.39,10469.4 6065.3,10461.61 6076.28,11307.68 5988.18,11307.68 5933.36,11242.17 "/>
  <path fill="black" fill-opacity="0.101961" d="M6546.7 10390.82c812.62,-62.48 1063.48,-184.54 1713.72,-191.2 693.04,-7.11 890.48,95.59 1968.56,204.97 -606.21,-8.64 -1199.33,-30.64 -1805.55,-39.31l-1876.72 25.54z"/>
  <path fill="black" fill-opacity="0.101961" d="M11052.13 10381.46c788.19,-62.48 1031.51,-184.54 1662.19,-191.21 672.21,-7.1 863.72,95.6 1909.38,204.98 -587.98,-8.64 -1163.27,-30.65 -1751.27,-39.31l-1820.3 25.54z"/>
  <line fill="none" stroke="black" stroke-width="10.58" stroke-miterlimit="22.9256" x1="10570.32" y1="10461.61" x2="10570.32" y2= "11307.68" />
  <polygon fill="black" fill-opacity="0.101961" points="42643.24,9297.36 44564.98,9297.36 44564.98,9418.53 42792.59,9418.53 42643.34,9499.18 42643.24,9418.53 "/>
  <g id="_2274319128704">
   <polygon fill="black" fill-opacity="0.101961" points="39706.62,10605.82 39670.07,10550.03 39590.71,10537.75 39575.57,11391.18 39662.71,11382.16 39713.64,11342.88 "/>
   <path fill="black" fill-opacity="0.101961" d="M30327.79 11755.08c3289.75,0 6579.5,0 9869.24,0 -15.04,70.69 -71.34,107.74 -71.34,107.74 -3239.39,0 -6478.78,0 -9718.18,0 0,6.98 -67.13,-51.57 -79.72,-107.74z"/>
   <path fill="black" fill-opacity="0.101961" d="M31428.78 8487.93c777.36,62.48 1017.34,184.55 1639.35,191.21 662.99,7.11 851.85,-95.59 1883.15,-204.98 -579.9,8.64 -1147.3,30.65 -1727.22,39.31l-1795.29 -25.54z"/>
   <path fill="black" fill-opacity="0.101961" d="M35738.74 8497.3c753.99,62.47 986.76,184.54 1590.08,191.2 643.05,7.11 826.24,-95.59 1826.54,-204.98 -562.47,8.65 -1112.81,30.65 -1675.29,39.31l-1741.33 -25.53z"/>
   <polygon fill="black" fill-opacity="0.101961" points="30852.1,10593.02 30878.42,10552.88 30968.25,10545.09 30978.75,11391.17 30894.48,11391.17 30842.05,11325.66 "/>
   <path fill="black" fill-opacity="0.101961" d="M31428.78 10474.29c777.36,-62.48 1017.34,-184.54 1639.35,-191.21 662.99,-7.1 851.85,95.6 1883.15,204.98 -579.9,-8.64 -1147.3,-30.65 -1727.22,-39.31l-1795.29 25.54z"/>
   <path fill="black" fill-opacity="0.101961" d="M35738.74 10464.93c753.99,-62.48 986.76,-184.54 1590.08,-191.21 643.05,-7.1 826.24,95.59 1826.54,204.98 -562.47,-8.64 -1112.81,-30.65 -1675.29,-39.31l-1741.33 25.54z"/>
  </g>
  <path fill="none" stroke="black" stroke-width="10.58" stroke-miterlimit="22.9256" d="M30537.39 11871l179.81 0c-20.78,21.52 -80.13,57.92 -75.47,64.14 -53.58,156.46 -69.26,316.96 -108.67,472.27 -27.63,0.59 -55.27,1.18 -82.89,1.78 6.4,-147.21 11.05,-277.37 17.44,-424.57 -1.71,-17.1 9.21,-45.76 23.77,-65.5l46.03 -48.12z"/>
  <path fill="none" stroke="black" stroke-width="10.58" stroke-miterlimit="22.9256" d="M39980.37 11871l-179.81 0c20.78,21.52 80.13,57.92 75.47,64.14 53.58,156.46 69.26,316.96 108.67,472.27 27.63,0.59 55.27,1.18 82.89,1.78 -6.4,-147.21 -11.05,-277.37 -17.44,-424.57 1.71,-17.1 -9.21,-45.76 -23.77,-65.5l-46.03 -48.12z"/>
  <path fill="none" stroke="black" stroke-width="10.58" stroke-miterlimit="22.9256" d="M30791 9479.46l-378.19 0c-14.44,0 -27.4,6.54 -36.09,16.83l0 -7.98c-47.54,19.29 -56.54,133.35 -50.81,343.18 4.92,180.68 -1.39,1534.41 -1.39,1638.07 0,257.1 8.32,369.04 50.07,390.28l0 -9.04c8.61,11.82 22.55,19.53 38.22,19.53l378.19 0c26.01,0 47.28,-21.26 47.28,-47.27l0 -2296.34c0,-26 -21.27,-47.27 -47.28,-47.27z"/>
  <path fill="none" stroke="black" stroke-width="10.58" stroke-miterlimit="22.9256" d="M30926.72 10545.1c2909.59,0 5758.21,0 8667.62,0 48.64,0 88.44,42.31 88.44,94l0 658.07c0,51.71 -39.81,94.01 -88.44,94.01l-8667.62 0c-48.65,0 -88.44,-42.31 -88.44,-94.01l0 -658.07c0,-51.71 39.8,-94 88.44,-94z"/>
  <path fill="none" stroke="black" stroke-width="10.58" stroke-miterlimit="22.9256" d="M30838.28 10545.56l0 -1716.86c2.73,-35.86 -3.34,-145.35 47.65,-134.88 0,0 28.07,0.05 97.5,0.07m8563.04 4.39c19.27,3.85 73.47,-0.08 86.1,8.39 42.18,28.31 50.41,80.44 44.15,142.36l6.07 1945.55"/>
  <path fill="none" stroke="black" stroke-width="10.58" stroke-miterlimit="22.9256" d="M31147.36 10473.74c635.67,0 1238.3,-28.72 1873.92,-28.72 644.24,0 1458.9,29.59 2103.14,29.59 117.34,0 113.74,-86.09 113.74,-209.67 0,-213.32 -38.65,-572.24 -38.65,-785.56 0,-299.18 38.65,-611.25 38.65,-910.45 0,-123.55 -146.87,-82.92 -264.2,-82.92 -678.58,0 -1293.56,17.89 -1972.12,17.89 -563.01,0 -1138.8,-8.73 -1701.76,-17.05 -38.3,-0.55 -155.64,-0.88 -193.96,-0.88 -117.33,0 -123.99,21.18 -123.99,144.76 0,258.51 18.49,563.69 18.49,822.2 0,253.99 -28.8,660.69 -28.8,914.67 0,123.58 58.21,106.15 175.54,106.15z"/>
  <path fill="none" stroke="black" stroke-width="10.58" stroke-miterlimit="22.9256" d="M40108.25 9416.83l-378.2 0c-26.01,0 -47.28,21.27 -47.28,47.27l0 2358.67c0,26.01 21.27,47.27 47.28,47.27l378.2 0c40.36,0 34.63,-4.7 41.95,-9.28 41.78,-21.67 50.08,-135.94 50.08,-398.38 0,-105.8 -6.32,-1487.68 -1.39,-1672.09 5.72,-214.19 -6.65,-347.59 -54.19,-367.28 -7.75,-1.05 -4.88,-6.18 -36.45,-6.18z"/>
  <rect fill="none" stroke="black" stroke-width="10.58" stroke-miterlimit="22.9256" x="30838.27" y="11391.17" width="8844.51" height="468.05"/>
  <path fill="none" stroke="black" stroke-width="10.58" stroke-miterlimit="22.9256" d="M35477.38 10475.77c634.01,0 1235.07,-28.72 1869.05,-28.72 642.56,0 1455.09,29.58 2097.65,29.58 117.04,0 113.44,-86.09 113.44,-209.66 0,-213.33 -38.55,-572.24 -38.55,-785.57 0,-299.18 38.55,-611.25 38.55,-910.45 0,-123.54 -146.48,-82.91 -263.51,-82.91 -676.81,0 -1290.18,17.89 -1966.97,17.89 -561.55,0 -1135.84,-8.74 -1697.32,-17.06 -38.2,-0.55 -155.24,-0.88 -193.46,-0.88 -117.02,0 -123.66,21.19 -123.66,144.76 0,258.51 18.44,563.69 18.44,822.21 0,253.99 -28.73,660.69 -28.73,914.67 0,123.57 58.05,106.15 175.08,106.15z"/>
  <line fill="none" stroke="black" stroke-width="10.58" stroke-miterlimit="22.9256" x1="35314.58" y1="8694.07" x2="35233.11" y2= "8694.07" />
  <line fill="none" stroke="black" stroke-width="10.58" stroke-miterlimit="22.9256" x1="35329.56" y1="10446.26" x2="35201.92" y2= "10446.26" />
  <line fill="none" stroke="black" stroke-width="10.58" stroke-miterlimit="22.9256" x1="35260.52" y1="10545.09" x2="35260.52" y2= "11391.17" />
  <line fill="none" stroke="black" stroke-width="10.58" stroke-miterlimit="22.9256" x1="35314.58" y1="8694.07" x2="35233.11" y2= "8694.07" />
  <line fill="none" stroke="black" stroke-width="10.58" stroke-miterlimit="22.9256" x1="35329.56" y1="10446.26" x2="35201.92" y2= "10446.26" />
  <line fill="none" stroke="black" stroke-width="10.58" stroke-miterlimit="22.9256" x1="35260.52" y1="10545.09" x2="35260.52" y2= "11391.17" />
 </g>
 <g id="Схемы">
  <metadata id="CorelCorpID_1Corel-Layer"/>
  <rect fill="none" stroke="black" stroke-width="10.58" stroke-miterlimit="22.9256" x="5943.33" y="15298.27" width="9248.66" height="3464.12" rx="76.21" ry="72.17"/>
  <path fill="none" stroke="black" stroke-width="10.58" stroke-miterlimit="22.9256" d="M5895.07 14271.84l-386.19 0c-28.89,0 -32.96,14.05 -44.35,25.99 -48.47,50.89 -61.12,250.62 -54.94,644.94 5.34,339.52 -1.49,2883.61 -1.49,3078.41 0,483.17 8.98,693.55 54.12,733.46 10.14,5.99 -3.08,10.37 46.66,10.37l386.19 0c26.56,0 48.27,-21.72 48.27,-48.28l0 -4396.61c0,-26.56 -21.71,-48.28 -48.27,-48.28z"/>
  <path fill="none" stroke="black" stroke-width="10.58" stroke-miterlimit="22.9256" d="M15617.45 14278.51l-378.19 0c-26,0 -47.27,21.26 -47.27,47.27l0 4398.62c0,25.99 21.27,47.27 47.27,47.27l368.56 0c49.57,0 45.33,-11.9 60.74,-40.28 37.05,-98.38 41.9,-346.6 41.9,-706.37 0,-193.79 -11.78,-2724.74 -2.58,-3062.52 7.79,-286.72 -3.6,-534.03 -44.33,-639.11 -17.58,-33.8 -28.21,-44.88 -46.11,-44.88z"/>
  <path fill="none" stroke="black" stroke-width="10.58" stroke-miterlimit="22.9256" d="M15191.96 14411.02c-30.59,-121.91 -570.8,-118.62 -1382.37,-107.29 -698.81,9.75 -5934.96,-2.73 -6335.89,-2.73 -994.45,0 -1486.79,-25.21 -1530.4,118.58"/>
  <path fill="none" stroke="black" stroke-width="10.58" stroke-miterlimit="22.9256" d="M6176.74 15297.12l4195.65 0c82.25,0 145.65,73.41 149.55,162.73l18.69 428c3.91,89.33 -67.38,158.64 -149.54,162.73 -757.61,46.28 -1380.17,46.68 -2206.09,58.53 -805.66,11.57 -1296.3,-12.61 -2036.3,-58.53 -82.16,-4.09 -155.4,-73.44 -149.55,-162.73l28.04 -428c5.85,-89.28 67.29,-162.73 149.55,-162.73z"/>
  <polyline fill="none" stroke="black" stroke-width="10.58" stroke-miterlimit="22.9256" stroke-dasharray="52.895620 52.895620" points="5941.99,18593.21 5936.22,21321.32 15183.61,21321.32 15190.71,18286.97 "/>
  <path fill="none" stroke="black" stroke-width="10.58" stroke-miterlimit="22.9256" d="M10764.94 15302.29l4203.72 0c82.4,0 145.92,73.41 149.83,162.73l18.73 427.99c3.92,89.34 -67.51,158.64 -149.83,162.73 -759.07,46.29 -1382.82,46.69 -2210.33,58.54 -807.21,11.56 -1298.8,-12.61 -2040.22,-58.54 -82.31,-4.09 -155.7,-73.43 -149.83,-162.73l28.09 -427.99c5.87,-89.28 67.42,-162.73 149.84,-162.73z"/>
  <path fill="none" stroke="black" stroke-width="10.58" stroke-miterlimit="22.9256" d="M5886.09 9396l-378.19 0c-14.43,0 -27.4,6.54 -36.09,16.83l0 -7.98c-47.54,19.28 -56.53,133.35 -50.81,343.17 4.93,180.68 -1.39,1534.39 -1.39,1638.04 0,257.1 8.32,369.03 50.08,390.27l0 -9.03c8.6,11.81 22.55,19.52 38.21,19.52l378.19 0c26.01,0 47.27,-21.26 47.27,-47.27l0 -2296.29c0,-26.01 -21.26,-47.27 -47.27,-47.27z"/>
  <path fill="none" stroke="black" stroke-width="10.58" stroke-miterlimit="22.9256" d="M6026.08 10461.62c3050.87,0 6037.82,0 9088.49,0 51.01,0 92.74,42.31 92.74,94l0 658.06c0,51.7 -41.74,94 -92.74,94l-9088.49 0c-51.01,0 -92.74,-42.31 -92.74,-94l0 -658.06c0,-51.71 41.74,-94 92.74,-94z"/>
  <path fill="none" stroke="black" stroke-width="10.58" stroke-miterlimit="22.9256" d="M5933.53 10462.07l0 -1716.81c2.86,-35.87 -3.5,-145.35 49.97,-134.88 0,0 29.42,0.04 102.22,0.06m8978.64 4.39c20.21,3.85 77.03,-0.07 90.28,8.39 44.23,28.32 52.86,80.44 46.29,142.36l6.37 1945.52"/>
  <path fill="none" stroke="black" stroke-width="10.58" stroke-miterlimit="22.9256" d="M6258.59 10390.27c666.52,0 1298.4,-28.72 1964.9,-28.72 675.5,0 1529.71,29.59 2205.23,29.59 123.03,0 119.25,-86.09 119.25,-209.66 0,-213.32 -40.53,-572.23 -40.53,-785.55 0,-299.18 40.53,-611.24 40.53,-910.43 0,-123.54 -153.99,-82.92 -277.02,-82.92 -711.52,0 -1356.35,17.89 -2067.85,17.89 -590.35,0 -1194.08,-8.73 -1784.36,-17.05 -40.16,-0.56 -163.2,-0.88 -203.38,-0.88 -123.03,0 -130.01,21.18 -130.01,144.75 0,258.51 19.39,563.69 19.39,822.19 0,253.99 -30.2,660.68 -30.2,914.66 0,123.57 61.02,106.14 184.05,106.14z"/>
  <path fill="none" stroke="black" stroke-width="10.58" stroke-miterlimit="22.9256" d="M15632.77 9333.38l-378.19 0c-26.01,0 -47.27,21.27 -47.27,47.27l0 2358.62c0,26.01 21.26,47.28 47.27,47.28l378.19 0c40.36,0 34.64,-4.71 41.96,-9.29 41.77,-21.67 50.07,-135.94 50.07,-398.37 0,-105.8 -6.32,-1487.65 -1.39,-1672.06 5.72,-214.18 -6.65,-347.58 -54.18,-367.27 -7.75,-1.05 -4.89,-6.18 -36.46,-6.18z"/>
  <rect fill="none" stroke="black" stroke-width="10.58" stroke-miterlimit="22.9256" x="5933.36" y="11307.68" width="9273.94" height="468.04"/>
  <path fill="none" stroke="black" stroke-width="10.58" stroke-miterlimit="22.9256" d="M10795.39 10392.3c663.7,0 1292.89,-28.72 1956.56,-28.72 672.63,0 1523.21,29.58 2195.86,29.58 122.52,0 118.75,-86.09 118.75,-209.66 0,-213.32 -40.35,-572.23 -40.35,-785.55 0,-299.17 40.35,-611.24 40.35,-910.43 0,-123.54 -153.34,-82.91 -275.84,-82.91 -708.5,0 -1350.6,17.89 -2059.07,17.89 -587.84,0 -1189.01,-8.74 -1776.79,-17.06 -39.99,-0.55 -162.5,-0.88 -202.51,-0.88 -122.51,0 -129.46,21.19 -129.46,144.76 0,258.51 19.3,563.68 19.3,822.19 0,253.98 -30.07,660.67 -30.07,914.65 0,123.57 60.77,106.15 183.27,106.15z"/>
  <path fill="none" stroke="black" stroke-width="10.58" stroke-miterlimit="22.9256" d="M18727.33 9339.58c1,-21.67 -0.38,-625.33 -3.07,-641.14 -19.41,-112.95 -123.14,-88.48 -157.61,-88.32 -182.21,0.84 -675.36,1.84 -704.61,2.19 -105.79,1.27 -137.79,204.94 -127.85,406.9 2.86,58.39 3.83,229.06 3.72,443.32"/>
  <path fill="none" stroke="black" stroke-width="10.58" stroke-miterlimit="22.9256" d="M18847.68 9336.3l-28.42 -737.62c-3.62,-93.99 -22.55,-188.42 111.57,-193.99l395.9 -16.45c35.59,-1.47 132.44,-4.46 138.11,142.66l31.03 805.41"/>
  <path fill="none" stroke="black" stroke-width="10.58" stroke-miterlimit="22.9256" d="M18863.12 8426.44c-121.63,9.73 -145.25,306.78 -128.78,435.1 7.71,60.17 18.14,276.07 26.43,470.54"/>
  <path fill="none" stroke="black" stroke-width="10.58" stroke-miterlimit="22.9256" d="M19326.75 8388.24c121.99,0.02 268.93,165.22 285.98,294.35 18.02,136.34 34.92,445.32 44.4,653.72"/>
  <rect fill="none" stroke="black" stroke-width="10.58" stroke-miterlimit="22.9256" transform="matrix(1.86176E-14 -1.82536 0.944552 6.49583E-14 17724.9 11786.5)" width="1340.55" height="4788.83" rx="96.83" ry="96.83"/>
  <line fill="none" stroke="black" stroke-width="10.58" stroke-miterlimit="22.9256" x1="10624.38" y1="8610.64" x2="10542.93" y2= "8610.64" />
  <line fill="none" stroke="black" stroke-width="10.58" stroke-miterlimit="22.9256" x1="10639.37" y1="10362.78" x2="10511.73" y2= "10362.78" />
  <line fill="none" stroke="black" stroke-width="10.58" stroke-miterlimit="22.9256" x1="10570.32" y1="15298.25" x2="10570.32" y2= "18762.38" />
  <line fill="none" stroke="black" stroke-width="10.58" stroke-miterlimit="22.9256" x1="10570.32" y1="10461.61" x2="10570.32" y2= "11307.68" />
  <g id="_2274319153808">
   <line fill="none" stroke="black" stroke-width="10.58" stroke-miterlimit="22.9256" x1="10624.38" y1="8610.64" x2="10542.93" y2= "8610.64" />
   <line fill="none" stroke="black" stroke-width="10.58" stroke-miterlimit="22.9256" x1="10639.37" y1="10362.78" x2="10511.73" y2= "10362.78" />
  </g>
  <path fill="black" fill-opacity="0.101961" d="M5395.78 11671.58c3438.95,0 6877.89,0 10316.84,0 -15.72,70.69 -74.57,107.73 -74.57,107.73 -3386.31,0 -6772.61,0 -10158.92,0 0,6.99 -70.18,-51.56 -83.34,-107.73z"/>
  <g id="_2274319153856">
   <path fill="none" stroke="black" stroke-width="10.58" stroke-miterlimit="22.9256" d="M21864.09 11795.6l-179.81 0c20.78,21.52 80.13,57.92 75.47,64.14 53.58,156.45 69.25,316.96 108.67,472.25 27.63,0.6 55.27,1.19 82.88,1.79 -6.39,-147.2 -11.05,-277.37 -17.44,-424.56 1.72,-17.1 -9.21,-45.76 -23.76,-65.5l-46.03 -48.12z"/>
   <path fill="none" stroke="black" stroke-width="10.58" stroke-miterlimit="22.9256" d="M18063.65 11796.29l179.81 0c-20.79,21.53 -80.13,57.93 -75.47,64.15 -53.58,156.45 -69.26,316.95 -108.68,472.25 -27.62,0.6 -55.26,1.19 -82.88,1.78 6.4,-147.2 11.05,-277.36 17.44,-424.56 -1.71,-17.1 9.21,-45.75 23.76,-65.5l46.04 -48.12z"/>
   <path fill="none" stroke="black" stroke-width="10.58" stroke-miterlimit="22.9256" d="M5632.48 11787.49l179.81 0c-20.78,21.52 -80.13,57.93 -75.47,64.14 -53.58,156.45 -69.25,316.96 -108.67,472.26 -27.63,0.59 -55.26,1.18 -82.88,1.78 6.39,-147.2 11.05,-277.37 17.44,-424.56 -1.71,-17.1 9.21,-45.75 23.76,-65.5l46.03 -48.12z"/>
   <path fill="none" stroke="black" stroke-width="10.58" stroke-miterlimit="22.9256" d="M15504.9 11787.49l-179.81 0c20.78,21.52 80.13,57.93 75.46,64.14 53.59,156.45 69.26,316.96 108.68,472.26 27.63,0.59 55.26,1.18 82.88,1.78 -6.39,-147.2 -11.05,-277.37 -17.44,-424.56 1.71,-17.1 -9.21,-45.75 -23.76,-65.5l-46.03 -48.12z"/>
  </g>
  <path fill="none" stroke="black" stroke-width="10.58" stroke-miterlimit="22.9256" d="M46769.52 11878.96l-179.81 0c20.78,21.52 80.13,57.92 75.47,64.14 53.58,156.45 69.26,316.96 108.67,472.26 27.63,0.59 55.27,1.18 82.88,1.78 -6.39,-147.2 -11.05,-277.37 -17.44,-424.56 1.72,-17.1 -9.21,-45.76 -23.76,-65.5l-46.03 -48.12z"/>
  <path fill="none" stroke="black" stroke-width="10.58" stroke-miterlimit="22.9256" d="M42969.08 11879.65l179.81 0c-20.79,21.53 -80.13,57.93 -75.47,64.15 -53.58,156.45 -69.26,316.95 -108.67,472.25 -27.63,0.6 -55.27,1.19 -82.89,1.78 6.4,-147.2 11.05,-277.36 17.44,-424.55 -1.71,-17.1 9.21,-45.76 23.77,-65.51l46.03 -48.12z"/>
  <rect fill="none" stroke="black" stroke-width="10.58" stroke-miterlimit="22.9256" x="30848.76" y="15381.62" width="8819.32" height="3464.12" rx="72.67" ry="72.17"/>
  <path fill="none" stroke="black" stroke-width="10.58" stroke-miterlimit="22.9256" d="M30800.5 14355.19l-386.19 0c-28.89,0 -32.96,14.05 -44.35,25.99 -48.47,50.89 -61.12,250.62 -54.94,644.94 5.34,339.53 -1.49,2883.61 -1.49,3078.41 0,483.17 8.98,693.55 54.12,733.46 10.15,5.99 -3.08,10.37 46.66,10.37l386.19 0c26.56,0 48.27,-21.72 48.27,-48.28l0 -4396.61c0,-26.56 -21.71,-48.28 -48.27,-48.28z"/>
  <path fill="none" stroke="black" stroke-width="10.58" stroke-miterlimit="22.9256" d="M40093.54 14361.86l-378.19 0c-26.01,0 -47.28,21.26 -47.28,47.27l0 4398.62c0,25.99 21.27,47.27 47.28,47.27l368.56 0c49.56,0 45.33,-11.9 60.73,-40.28 37.05,-98.37 41.9,-346.6 41.9,-706.37 0,-193.79 -11.78,-2724.74 -2.58,-3062.52 7.79,-286.72 -3.6,-534.02 -44.33,-639.11 -17.58,-33.8 -28.21,-44.88 -46.1,-44.88z"/>
  <path fill="none" stroke="black" stroke-width="10.58" stroke-miterlimit="22.9256" d="M39668.08 14494.37c-29.18,-121.91 -544.31,-118.62 -1318.2,-107.29 -666.37,9.75 -5659.46,-2.73 -6041.77,-2.73 -948.29,0 -1417.77,-25.21 -1459.37,118.58"/>
  <path fill="none" stroke="black" stroke-width="10.58" stroke-miterlimit="22.9256" d="M31074.87 15380.48l4023.61 0c78.88,0 139.68,73.41 143.42,162.73l17.93 428c3.74,89.33 -64.62,158.64 -143.42,162.73 -726.54,46.29 -1323.56,46.68 -2115.61,58.53 -772.63,11.57 -1243.16,-12.61 -1952.81,-58.53 -78.78,-4.09 -149.03,-73.44 -143.41,-162.73l26.89 -428c5.61,-89.28 64.53,-162.73 143.41,-162.73z"/>
  <polyline fill="none" stroke="black" stroke-width="10.58" stroke-miterlimit="22.9256" stroke-dasharray="52.895620 52.895620" points="30847.14,18676.56 30841.65,21404.68 39647.78,21404.68 39654.53,18370.32 "/>
  <path fill="none" stroke="black" stroke-width="10.58" stroke-miterlimit="22.9256" d="M35474.92 15385.65l4031.35 0c79.03,0 139.94,73.41 143.69,162.73l17.96 427.99c3.76,89.34 -64.74,158.65 -143.69,162.73 -727.94,46.29 -1326.1,46.69 -2119.68,58.54 -774.12,11.56 -1245.54,-12.61 -1956.56,-58.54 -78.94,-4.08 -149.31,-73.43 -143.69,-162.73l26.94 -427.99c5.62,-89.28 64.66,-162.73 143.69,-162.73z"/>
  <path fill="none" stroke="black" stroke-width="10.58" stroke-miterlimit="22.9256" d="M43632.76 9422.93c1,-21.67 -0.38,-625.33 -3.07,-641.14 -19.41,-112.95 -123.14,-88.48 -157.61,-88.32 -182.21,0.84 -675.36,1.85 -704.61,2.19 -105.79,1.27 -137.79,204.94 -127.85,406.9 2.86,58.39 3.83,229.06 3.72,443.32"/>
  <path fill="none" stroke="black" stroke-width="10.58" stroke-miterlimit="22.9256" d="M43753.11 9419.65l-28.42 -737.62c-3.62,-93.99 -22.55,-188.42 111.57,-193.99l395.9 -16.45c35.59,-1.47 132.44,-4.46 138.11,142.66l31.03 805.41"/>
  <path fill="none" stroke="black" stroke-width="10.58" stroke-miterlimit="22.9256" d="M43768.55 8509.8c-121.63,9.73 -145.24,306.78 -128.78,435.1 7.71,60.17 18.14,276.08 26.43,470.54"/>
  <path fill="none" stroke="black" stroke-width="10.58" stroke-miterlimit="22.9256" d="M44232.18 8471.59c121.99,0.02 268.93,165.22 285.98,294.35 18.02,136.35 34.92,445.33 44.4,653.73"/>
  <rect fill="none" stroke="black" stroke-width="10.58" stroke-miterlimit="22.9256" transform="matrix(1.86176E-14 -1.82536 0.944552 6.49583E-14 42630.3 11869.9)" width="1340.55" height="4788.83" rx="96.83" ry="96.83"/>
  <line fill="none" stroke="black" stroke-width="10.58" stroke-miterlimit="22.9256" x1="35291.75" y1="15381.61" x2="35291.75" y2= "18845.73" />
 </g>
 <g id="Выносные">
  <metadata id="CorelCorpID_2Corel-Layer"/>
  <g id="_2274319163456">
   <g>
    <line fill="none" stroke="gray" stroke-width="10.58" stroke-miterlimit="22.9256" x1="4112.74" y1="12374.04" x2="5171.65" y2= "12374.04" />
    <line fill="none" stroke="gray" stroke-width="10.58" stroke-miterlimit="22.9256" x1="4110.15" y1="8410.62" x2="5171.65" y2= "8410.62" />
    <line fill="none" stroke="gray" stroke-width="10.58" stroke-miterlimit="22.9256" x1="4510.68" y1="12768.86" x2="4510.68" y2= "8066.65" />
   </g>
   <g>
    <line fill="none" stroke="gray" stroke-width="10.58" stroke-miterlimit="22.9256" x1="4112.74" y1="18788.75" x2="5171.65" y2= "18788.75" />
    <line fill="none" stroke="gray" stroke-width="10.58" stroke-miterlimit="22.9256" x1="4110.15" y1="14287.97" x2="5171.65" y2= "14287.97" />
    <line fill="none" stroke="gray" stroke-width="10.58" stroke-miterlimit="22.9256" x1="4510.68" y1="19205.47" x2="4510.68" y2= "13944.01" />
   </g>
   <g>
    <line fill="none" stroke="gray" stroke-width="10.58" stroke-miterlimit="22.9256" x1="5407.75" y1="22717.84" x2="5407.75" y2= "21656.34" />
    <line fill="none" stroke="gray" stroke-width="10.58" stroke-miterlimit="22.9256" x1="16074.03" y1="22317.31" x2="5063.15" y2= "22317.31" />
    <line fill="none" stroke="gray" stroke-width="10.58" stroke-miterlimit="22.9256" x1="15725.25" y1="22715.25" x2="15725.25" y2= "21656.34" />
   </g>
  </g>
  <line fill="none" stroke="gray" stroke-width="10.58" stroke-miterlimit="22.9256" x1="29018.17" y1="12457.39" x2="30077.08" y2= "12457.39" />
  <line fill="none" stroke="gray" stroke-width="10.58" stroke-miterlimit="22.9256" x1="29015.58" y1="8493.98" x2="30077.08" y2= "8493.98" />
  <line fill="none" stroke="gray" stroke-width="10.58" stroke-miterlimit="22.9256" x1="29416.1" y1="12852.22" x2="29416.1" y2= "8150.02" />
  <line fill="none" stroke="gray" stroke-width="10.58" stroke-miterlimit="22.9256" x1="29018.17" y1="18872.11" x2="30077.08" y2= "18872.11" />
  <line fill="none" stroke="gray" stroke-width="10.58" stroke-miterlimit="22.9256" x1="29015.58" y1="14371.32" x2="30077.08" y2= "14371.32" />
  <line fill="none" stroke="gray" stroke-width="10.58" stroke-miterlimit="22.9256" x1="29416.1" y1="19288.82" x2="29416.1" y2= "14027.36" />
  <line fill="none" stroke="gray" stroke-width="10.58" stroke-miterlimit="22.9256" x1="30298.41" y1="22801.19" x2="30298.41" y2= "21739.7" />
  <line fill="none" stroke="gray" stroke-width="10.58" stroke-miterlimit="22.9256" x1="40507.64" y1="22400.68" x2="29968.58" y2= "22400.68" />
  <line fill="none" stroke="gray" stroke-width="10.58" stroke-miterlimit="22.9256" x1="40173.79" y1="22798.6" x2="40173.79" y2= "21739.7" />
 </g>
 <g id="Текст">
  <metadata id="CorelCorpID_3Corel-Layer"/>
  <g id="_2274319168784">
   <path fill="#666666" fill-rule="nonzero" fill-opacity="0.800000" d="M18070.12 14509.22l0 15.87c21.64,10.1 39.07,25.97 52.3,47.61 13.22,21.64 19.83,45.44 19.83,71.4 0,43.28 -14.9,78.25 -44.72,104.94 -29.81,26.69 -73.08,40.03 -129.82,40.03l-230.08 0 0 -514.98 224.31 0c52.41,0 92.92,12.39 121.53,37.15 28.61,24.77 42.92,55.9 42.92,93.4 0,49.53 -18.76,84.39 -56.27,104.58zm-267.58 -177.43l0 160.84 157.95 0c66.84,0 100.26,-27.41 100.26,-82.22 0,-26.93 -9.62,-46.76 -28.86,-59.51 -19.23,-12.74 -43.52,-19.11 -72.84,-19.11l-156.51 0zm0 399.58l160.84 0c33.18,0 60.35,-7.1 81.5,-21.28 21.16,-14.19 31.73,-37.87 31.73,-71.04 0,-31.26 -10.45,-53.98 -31.37,-68.16 -20.92,-14.18 -47.97,-21.27 -81.14,-21.27l-161.56 0 0 181.75zm434.19 -305.81l61.3 0 0 121.17 100.25 0c43.76,0 77.53,10.58 101.33,31.74 23.81,21.16 35.71,50.73 35.71,88.71 0,38.47 -11.9,68.39 -35.71,89.79 -23.8,21.4 -57.58,32.1 -101.33,32.1l-161.56 0 0 -363.51zm61.3 173.1l0 137.04 91.6 0c30.29,0 51.93,-5.77 64.9,-17.31 12.99,-11.54 19.48,-28.61 19.48,-51.21 0,-22.6 -6.49,-39.67 -19.48,-51.21 -12.98,-11.55 -34.62,-17.32 -64.9,-17.32l-91.6 0zm295.72 -173.1l61.3 0 0 363.51 -61.3 0 0 -363.51zm425.52 253.88l61.31 0c-7.22,36.55 -24.17,65.51 -50.86,86.91 -26.69,21.4 -60.7,32.1 -102.05,32.1 -54.82,0 -97.97,-17.92 -129.47,-53.74 -31.49,-35.83 -47.24,-81.62 -47.24,-137.4 0,-56.26 15.63,-102.18 46.88,-137.76 31.26,-35.58 74.53,-53.38 129.83,-53.38 41.83,0 75.85,10.46 102.05,31.38 26.21,20.92 42.44,48.69 48.69,83.3l-61.3 0c-12.98,-40.87 -42.8,-61.3 -89.43,-61.3 -38.95,0 -67.92,12.86 -86.91,38.59 -18.99,25.73 -28.49,58.31 -28.49,97.73 0,39.91 9.62,73.08 28.85,99.53 19.24,26.45 48.09,39.67 86.55,39.67 50.97,0 81.5,-21.88 91.59,-65.63zm178.51 -209.16c31.98,-36.06 75.61,-54.1 130.91,-54.1 55.3,0 98.93,18.04 130.91,54.1 31.98,36.07 47.97,81.74 47.97,137.04 0,55.3 -15.99,100.97 -47.97,137.04 -31.98,36.06 -75.61,54.1 -130.91,54.1 -55.3,0 -98.93,-18.04 -130.91,-54.1 -31.97,-36.07 -47.96,-81.74 -47.96,-137.04 0,-55.3 15.99,-100.97 47.96,-137.04zm43.64 234.77c20.2,26.69 49.29,40.03 87.27,40.03 37.99,0 67.07,-13.34 87.27,-40.03 20.2,-26.69 30.3,-59.27 30.3,-97.73 0,-38.47 -10.1,-71.04 -30.3,-97.73 -20.2,-26.69 -49.29,-40.03 -87.27,-40.03 -37.99,0 -67.07,13.34 -87.27,40.03 -20.19,26.69 -30.29,59.27 -30.29,97.73 0,38.47 10.1,71.04 30.29,97.73zm317.35 -226.11l0 -53.38 313.02 0 0 53.38 -125.5 0 0 310.13 -61.3 0 0 -310.13 -126.22 0zm625.33 310.13l0 -38.23 -15.87 0c-25.01,31.74 -62.74,47.61 -113.24,47.61 -39.91,0 -71.64,-11.54 -95.2,-34.63 -23.56,-23.08 -35.34,-50.97 -35.34,-83.66 0,-33.18 11.54,-61.54 34.62,-85.1 23.08,-23.57 57.94,-35.35 104.58,-35.35l118.28 0 0 -14.42c0,-23.08 -7.21,-41.48 -21.64,-55.18 -14.42,-13.71 -36.78,-20.56 -67.07,-20.56 -52.89,0 -81.01,17.55 -84.38,52.66l-61.3 0c2.4,-33.18 16.71,-59.15 42.92,-77.9 26.2,-18.75 59.99,-28.13 101.33,-28.13 46.64,0 83.3,10.82 109.99,32.46 26.69,21.64 40.03,52.66 40.03,93.04l0 247.39 -57.7 0zm-113.96 -44c30.3,0 56.5,-9.98 78.61,-29.93 22.12,-19.96 33.18,-44.36 33.18,-73.21l0 -33.18 -108.9 0c-58.19,0 -87.27,23.08 -87.27,69.24 0,20.68 7.33,37.03 22,49.05 14.66,12.02 35.46,18.03 62.38,18.03zm-2093.07 722.03l61.31 0c-7.22,36.55 -24.17,65.51 -50.86,86.91 -26.69,21.4 -60.7,32.1 -102.05,32.1 -54.82,0 -97.97,-17.92 -129.47,-53.74 -31.49,-35.83 -47.24,-81.62 -47.24,-137.4 0,-56.26 15.63,-102.18 46.88,-137.76 31.26,-35.58 74.53,-53.38 129.83,-53.38 41.83,0 75.85,10.46 102.05,31.38 26.21,20.92 42.44,48.69 48.69,83.3l-61.3 0c-12.98,-40.87 -42.8,-61.3 -89.43,-61.3 -38.95,0 -67.92,12.86 -86.91,38.59 -18.99,25.73 -28.49,58.31 -28.49,97.73 0,39.91 9.62,73.08 28.85,99.53 19.24,26.45 48.09,39.67 86.55,39.67 50.97,0 81.5,-21.88 91.59,-65.63zm239.45 109.63l-86.54 0 0 -363.51 59.87 0 0 281.29 15.86 0 159.4 -281.29 89.44 0 0 363.51 -59.87 0 0 -281.29 -15.87 0 -162.29 281.29zm680.14 -53.38l67.07 0 0 156.52 -59.87 0 0 -103.14 -314.46 0 0 103.14 -59.87 0 0 -156.52 48.33 0c29.81,-63.46 44.72,-133.67 44.72,-210.6l0 -99.53 274.08 0 0 310.13zm-61.31 0l0 -256.76 -155.79 0 0 46.16c0,82.22 -13.22,152.43 -39.67,210.6l195.45 0zm522.91 -150.02l0 20.92 -276.96 0c0.96,43.76 11.3,77.77 31.01,102.05 19.72,24.29 48.09,36.43 85.11,36.43 50.01,0 80.77,-18.75 92.32,-56.26l62.02 0c-6.25,32.7 -22.72,59.15 -49.41,79.33 -26.69,20.2 -61.66,30.3 -104.94,30.3 -55.3,0 -98.57,-18.04 -129.83,-54.1 -31.25,-36.07 -46.88,-82.94 -46.88,-140.65 0,-56.74 15.63,-102.17 46.88,-136.31 31.26,-34.15 74.05,-51.22 128.39,-51.22 51.45,0 91.11,16.23 119,48.69 27.89,32.46 42.32,72.72 43.28,120.81zm-163.73 -116.12c-31.25,0 -56.26,8.05 -75,24.16 -18.76,16.11 -30.3,36.67 -34.63,61.67l209.88 0c-1.92,-24.53 -11.78,-44.97 -29.57,-61.31 -17.79,-16.35 -41.35,-24.52 -70.68,-24.52zm582.78 319.51l-61.31 0 0 -160.12 -201.22 0 0 160.12 -61.3 0 0 -363.51 61.3 0 0 150.02 201.22 0 0 -150.02 61.31 0 0 363.51zm628.92 -363.51l181.04 0 0 363.51 -62.02 0 0 -143.53 -110.35 0c-9.62,0 -17.07,-0.24 -22.36,-0.72l-54.82 144.25 -64.19 0 61.3 -157.96c-37.51,-17.79 -56.26,-49.53 -56.26,-95.2 0,-35.1 10.94,-62.26 32.82,-81.5 21.88,-19.23 53.5,-28.85 94.84,-28.85zm119.01 51.93l-112.52 0c-26.45,0 -45.2,5.05 -56.26,15.15 -11.06,10.1 -16.59,24.77 -16.59,44 0,18.76 5.53,32.94 16.59,42.56 11.06,9.62 29.81,14.42 56.26,14.42l112.52 0 0 -116.12zm-1839.9 1099.25l-75.01 0 0 -83.66 75.01 0 0 83.66zm125.49 -449.34c33.66,-43.76 78.62,-65.63 134.88,-65.63 56.26,0 101.33,22 135.23,65.99 33.91,44 50.86,109.51 50.86,196.54 0,87.03 -16.95,152.43 -50.86,196.18 -33.9,43.76 -78.97,65.63 -135.23,65.63 -56.26,0 -101.22,-21.88 -134.88,-65.63 -33.66,-43.76 -50.49,-109.15 -50.49,-196.18 0,-87.51 16.83,-153.15 50.49,-196.9zm43.28 348.01c20.2,36.3 50.73,54.45 91.6,54.45 40.87,0 71.52,-18.15 91.96,-54.45 20.43,-36.31 30.65,-86.67 30.65,-151.11 0,-64.91 -10.22,-115.52 -30.65,-151.82 -20.44,-36.31 -51.1,-54.46 -91.96,-54.46 -40.88,0 -71.4,18.15 -91.6,54.46 -20.19,36.3 -30.29,86.9 -30.29,151.82 0,64.43 10.1,114.8 30.29,151.11zm822.94 -8.3l61.31 0c-7.22,36.55 -24.17,65.51 -50.86,86.91 -26.69,21.4 -60.7,32.1 -102.05,32.1 -54.82,0 -97.97,-17.92 -129.47,-53.74 -31.49,-35.83 -47.24,-81.62 -47.24,-137.4 0,-56.26 15.63,-102.18 46.88,-137.76 31.26,-35.58 74.53,-53.38 129.83,-53.38 41.83,0 75.85,10.46 102.05,31.38 26.21,20.92 42.44,48.69 48.69,83.3l-61.3 0c-12.98,-40.87 -42.8,-61.3 -89.43,-61.3 -38.95,0 -67.92,12.86 -86.91,38.59 -18.99,25.73 -28.49,58.31 -28.49,97.73 0,39.91 9.62,73.08 28.85,99.53 19.24,26.45 48.09,39.67 86.55,39.67 50.97,0 81.5,-21.88 91.59,-65.63zm152.91 109.63l0 -363.51 97.36 0 89.44 165.89 15.87 0 89.43 -165.89 95.92 0 0 363.51 -59.87 0 0 -292.11 -15.87 0 -84.38 155.79 -67.79 0 -84.39 -155.79 -15.86 0 0 292.11 -59.87 0zm126.94 -1151.17l0 121.17 107.46 0c43.76,0 77.53,10.58 101.34,31.74 23.8,21.16 35.7,50.73 35.7,88.71 0,38.47 -11.9,68.39 -35.7,89.79 -23.81,21.4 -57.59,32.1 -101.34,32.1l-168.77 0 0 -363.51 61.3 0zm0 310.13l98.81 0c30.29,0 51.93,-5.77 64.91,-17.31 12.98,-11.54 19.47,-28.61 19.47,-51.21 0,-22.6 -6.49,-39.67 -19.47,-51.21 -12.99,-11.55 -34.63,-17.32 -64.91,-17.32l-98.81 0 0 137.04zm819.34 53.38l-75.01 0 0 -83.66 75.01 0 0 83.66zm0 -279.85l-75.01 0 0 -83.66 75.01 0 0 83.66zm-2764.54 892.97l69.23 0 0 56.27 -69.23 0 0 118.28 -62.03 0 0 -118.28 -249.55 0 0 -72.13 222.87 -314.46 88.71 0 0 330.33zm-245.23 0l183.92 0 0 -258.93 -15.87 0 -168.06 243.06 0 15.87zm686.63 0l69.23 0 0 56.27 -69.23 0 0 118.28 -62.03 0 0 -118.28 -249.55 0 0 -72.13 222.87 -314.46 88.71 0 0 330.33zm-245.23 0l183.92 0 0 -258.93 -15.87 0 -168.06 243.06 0 15.87z"/>
   <path fill="#666666" fill-rule="nonzero" fill-opacity="0.800000" d="M9185.92 22945.58l-63.46 0c2.88,-48.57 19.84,-85.59 50.85,-111.08 31.02,-25.48 70.08,-38.23 117.2,-38.23 49.05,0 88.6,13.35 118.65,40.04 30.05,26.69 45.08,64.54 45.08,113.59 0,59.63 -37.27,120.45 -111.79,182.48l-126.94 106.74 0 15.87 254.6 0 0 56.26 -346.92 0 0 -71.4 74.29 -60.58c46.16,-37.03 84.38,-69.48 114.67,-97.37 11.54,-10.09 20.8,-18.75 27.77,-25.96 6.98,-7.22 14.91,-16.71 23.81,-28.5 8.89,-11.78 15.63,-24.16 20.19,-37.14 4.57,-12.99 6.86,-26.45 6.86,-40.4 0,-31.25 -9.14,-55.3 -27.41,-72.12 -18.28,-16.83 -43.04,-25.24 -74.29,-25.24 -29.33,0 -53.01,7.81 -71.04,23.44 -18.03,15.63 -28.73,38.83 -32.1,69.6zm419.77 0l-63.46 0c2.88,-48.57 19.84,-85.59 50.85,-111.08 31.02,-25.48 70.08,-38.23 117.2,-38.23 49.05,0 88.6,13.35 118.65,40.04 30.05,26.69 45.08,64.54 45.08,113.59 0,59.63 -37.27,120.45 -111.79,182.48l-126.94 106.74 0 15.87 254.6 0 0 56.26 -346.92 0 0 -71.4 74.29 -60.58c46.16,-37.03 84.38,-69.48 114.67,-97.37 11.54,-10.09 20.8,-18.75 27.77,-25.96 6.98,-7.22 14.91,-16.71 23.81,-28.5 8.89,-11.78 15.63,-24.16 20.19,-37.14 4.57,-12.99 6.86,-26.45 6.86,-40.4 0,-31.25 -9.14,-55.3 -27.41,-72.12 -18.28,-16.83 -43.04,-25.24 -74.29,-25.24 -29.33,0 -53.01,7.81 -71.04,23.44 -18.03,15.63 -28.73,38.83 -32.1,69.6zm553.2 36.78c46.16,0 84.62,15.51 115.4,46.53 30.77,31.01 46.16,70.31 46.16,117.92 0,49.53 -15.51,90.88 -46.52,124.06 -31.02,33.18 -72.73,49.77 -125.14,49.77 -57.23,0 -102.42,-19.72 -135.6,-59.15 -33.18,-39.43 -49.77,-102.42 -49.77,-188.96 0,-81.26 16.23,-147.62 48.69,-199.07 32.46,-51.45 80.18,-77.17 143.17,-77.17 41.84,0 76.09,11.18 102.78,33.55 26.69,22.36 42.92,51.33 48.69,86.9l-62.75 0c-12.5,-42.79 -42.07,-64.18 -88.71,-64.18 -39.91,0 -71.16,15.87 -93.76,47.6 -22.6,31.74 -34.86,75.49 -36.79,131.27l15.87 0c10.58,-12.98 26.09,-24.4 46.53,-34.26 20.43,-9.86 44.36,-14.79 71.76,-14.79zm-90.16 251c21.16,20.68 47.61,31.01 79.34,31.01 31.74,0 57.82,-10.09 78.25,-30.29 20.44,-20.2 30.66,-48.33 30.66,-84.38 0,-36.07 -10.34,-63.71 -31.02,-82.94 -20.68,-19.24 -47.13,-28.86 -79.34,-28.86 -31.73,0 -57.94,9.86 -78.61,29.58 -20.68,19.71 -31.01,46.88 -31.01,81.5 0,35.58 10.57,63.7 31.73,84.38zm413.29 77.89l-75.01 0 0 -83.66 75.01 0 0 83.66zm125.49 -449.34c33.66,-43.76 78.62,-65.63 134.88,-65.63 56.26,0 101.33,22 135.23,65.99 33.91,44 50.86,109.51 50.86,196.54 0,87.03 -16.95,152.43 -50.86,196.18 -33.9,43.76 -78.97,65.63 -135.23,65.63 -56.26,0 -101.22,-21.88 -134.88,-65.63 -33.66,-43.76 -50.49,-109.15 -50.49,-196.18 0,-87.51 16.83,-153.15 50.49,-196.9zm43.28 348.01c20.2,36.3 50.73,54.45 91.6,54.45 40.87,0 71.52,-18.15 91.96,-54.45 20.43,-36.31 30.65,-86.67 30.65,-151.11 0,-64.91 -10.22,-115.52 -30.65,-151.82 -20.44,-36.31 -51.1,-54.46 -91.96,-54.46 -40.88,0 -71.4,18.15 -91.6,54.46 -20.19,36.3 -30.29,86.9 -30.29,151.82 0,64.43 10.1,114.8 30.29,151.11zm822.94 -8.3l61.31 0c-7.22,36.55 -24.17,65.51 -50.86,86.91 -26.69,21.4 -60.7,32.1 -102.05,32.1 -54.82,0 -97.97,-17.92 -129.47,-53.74 -31.49,-35.83 -47.24,-81.62 -47.24,-137.4 0,-56.26 15.63,-102.18 46.88,-137.76 31.26,-35.58 74.53,-53.38 129.83,-53.38 41.83,0 75.85,10.46 102.05,31.38 26.21,20.92 42.44,48.69 48.69,83.3l-61.3 0c-12.98,-40.87 -42.8,-61.3 -89.43,-61.3 -38.95,0 -67.92,12.86 -86.91,38.59 -18.99,25.73 -28.49,58.31 -28.49,97.73 0,39.91 9.62,73.08 28.85,99.53 19.24,26.45 48.09,39.67 86.55,39.67 50.97,0 81.5,-21.88 91.59,-65.63zm152.91 109.63l0 -363.51 97.36 0 89.44 165.89 15.87 0 89.43 -165.89 95.92 0 0 363.51 -59.87 0 0 -292.11 -15.87 0 -84.38 155.79 -67.79 0 -84.39 -155.79 -15.86 0 0 292.11 -59.87 0z"/>
   <path fill="#666666" fill-rule="nonzero" fill-opacity="0.800000" d="M3917.36 11453.26c0,46.16 -15.51,84.62 -46.53,115.4 -31.01,30.78 -70.31,46.16 -117.92,46.16 -49.53,0 -90.87,-15.5 -124.05,-46.52 -33.19,-31.02 -49.78,-72.72 -49.78,-125.14 0,-57.22 19.72,-102.41 59.15,-135.59 39.43,-33.18 102.42,-49.77 188.97,-49.77 81.25,0 147.61,16.22 199.06,48.68 51.45,32.46 77.17,80.18 77.17,143.17 0,41.84 -11.18,76.09 -33.54,102.78 -22.36,26.69 -51.34,42.92 -86.91,48.69l0 -62.75c42.8,-12.5 64.18,-42.07 64.18,-88.71 0,-39.91 -15.86,-71.16 -47.6,-93.76 -31.74,-22.6 -75.49,-34.86 -131.27,-36.78l0 15.87c12.98,10.57 24.4,26.08 34.26,46.52 9.86,20.44 14.79,44.36 14.79,71.76zm-251 -90.15c-20.67,21.15 -31.01,47.6 -31.01,79.33 0,31.74 10.1,57.83 30.29,78.25 20.2,20.44 48.33,30.66 84.39,30.66 36.06,0 63.7,-10.34 82.94,-31.02 19.23,-20.68 28.85,-47.12 28.85,-79.33 0,-31.74 -9.86,-57.95 -29.58,-78.61 -19.71,-20.68 -46.88,-31.02 -81.49,-31.02 -35.59,0 -63.71,10.58 -84.39,31.74zm-21.64 -235.13c-43.76,-33.66 -65.63,-78.62 -65.63,-134.88 0,-56.26 22,-101.33 65.99,-135.23 44,-33.91 109.51,-50.86 196.54,-50.86 87.03,0 152.43,16.95 196.18,50.86 43.76,33.9 65.63,78.97 65.63,135.23 0,56.26 -21.88,101.22 -65.63,134.88 -43.76,33.66 -109.15,50.49 -196.18,50.49 -87.51,0 -153.15,-16.83 -196.9,-50.49zm348.01 -43.28c36.3,-20.2 54.45,-50.73 54.45,-91.6 0,-40.87 -18.15,-71.52 -54.45,-91.96 -36.31,-20.43 -86.67,-30.65 -151.11,-30.65 -64.91,0 -115.52,10.22 -151.82,30.65 -36.31,20.44 -54.46,51.1 -54.46,91.96 0,40.88 18.15,71.4 54.46,91.6 36.3,20.19 86.9,30.29 151.82,30.29 64.43,0 114.8,-10.1 151.11,-30.29zm101.33 -447.9l0 75.01 -83.66 0 0 -75.01 83.66 0zm-449.34 -125.49c-43.76,-33.66 -65.63,-78.62 -65.63,-134.88 0,-56.26 22,-101.33 65.99,-135.23 44,-33.91 109.51,-50.86 196.54,-50.86 87.03,0 152.43,16.95 196.18,50.86 43.76,33.9 65.63,78.97 65.63,135.23 0,56.26 -21.88,101.22 -65.63,134.88 -43.76,33.66 -109.15,50.49 -196.18,50.49 -87.51,0 -153.15,-16.83 -196.9,-50.49zm348.01 -43.28c36.3,-20.2 54.45,-50.73 54.45,-91.6 0,-40.87 -18.15,-71.52 -54.45,-91.96 -36.31,-20.43 -86.67,-30.65 -151.11,-30.65 -64.91,0 -115.52,10.22 -151.82,30.65 -36.31,20.44 -54.46,51.1 -54.46,91.96 0,40.88 18.15,71.4 54.46,91.6 36.3,20.19 86.9,30.29 151.82,30.29 64.43,0 114.8,-10.1 151.11,-30.29zm-8.3 -822.94l0 -61.31c36.55,7.22 65.51,24.17 86.91,50.86 21.4,26.69 32.1,60.7 32.1,102.05 0,54.82 -17.92,97.97 -53.74,129.47 -35.83,31.49 -81.62,47.24 -137.4,47.24 -56.26,0 -102.18,-15.63 -137.76,-46.88 -35.58,-31.26 -53.38,-74.53 -53.38,-129.83 0,-41.83 10.46,-75.85 31.38,-102.05 20.92,-26.21 48.69,-42.44 83.3,-48.69l0 61.3c-40.87,12.98 -61.3,42.8 -61.3,89.43 0,38.95 12.86,67.92 38.59,86.91 25.73,18.99 58.31,28.49 97.73,28.49 39.91,0 73.08,-9.62 99.53,-28.85 26.45,-19.24 39.67,-48.09 39.67,-86.55 0,-50.97 -21.88,-81.5 -65.63,-91.59zm109.63 -152.91l-363.51 0 0 -97.36 165.89 -89.44 0 -15.87 -165.89 -89.43 0 -95.92 363.51 0 0 59.87 -292.11 0 0 15.87 155.79 84.38 0 67.79 -155.79 84.39 0 15.86 292.11 0 0 59.87z"/>
   <path fill="#666666" fill-rule="nonzero" fill-opacity="0.800000" d="M3917.36 17658.42c0,46.16 -15.51,84.62 -46.53,115.4 -31.01,30.78 -70.31,46.16 -117.92,46.16 -49.53,0 -90.87,-15.5 -124.05,-46.52 -33.19,-31.02 -49.78,-72.72 -49.78,-125.14 0,-57.22 19.72,-102.41 59.15,-135.59 39.43,-33.18 102.42,-49.77 188.97,-49.77 81.25,0 147.61,16.22 199.06,48.68 51.45,32.46 77.17,80.18 77.17,143.17 0,41.84 -11.18,76.09 -33.54,102.78 -22.36,26.69 -51.34,42.92 -86.91,48.69l0 -62.75c42.8,-12.5 64.18,-42.07 64.18,-88.71 0,-39.91 -15.86,-71.16 -47.6,-93.76 -31.74,-22.6 -75.49,-34.86 -131.27,-36.78l0 15.87c12.98,10.57 24.4,26.08 34.26,46.52 9.86,20.44 14.79,44.36 14.79,71.76zm-251 -90.15c-20.67,21.15 -31.01,47.6 -31.01,79.33 0,31.74 10.1,57.83 30.29,78.25 20.2,20.44 48.33,30.66 84.39,30.66 36.06,0 63.7,-10.34 82.94,-31.02 19.23,-20.68 28.85,-47.12 28.85,-79.33 0,-31.74 -9.86,-57.95 -29.58,-78.61 -19.71,-20.68 -46.88,-31.02 -81.49,-31.02 -35.59,0 -63.71,10.58 -84.39,31.74zm62.03 -246.67l0 63.46c-48.57,-2.88 -85.59,-19.84 -111.08,-50.85 -25.48,-31.02 -38.23,-70.08 -38.23,-117.2 0,-49.05 13.35,-88.6 40.04,-118.65 26.69,-30.05 64.54,-45.08 113.59,-45.08 59.63,0 120.45,37.27 182.48,111.79l106.74 126.94 15.87 0 0 -254.6 56.26 0 0 346.92 -71.4 0 -60.58 -74.29c-37.03,-46.16 -69.48,-84.38 -97.37,-114.67 -10.09,-11.54 -18.75,-20.8 -25.96,-27.77 -7.22,-6.98 -16.71,-14.91 -28.5,-23.81 -11.78,-8.89 -24.16,-15.63 -37.14,-20.19 -12.99,-4.57 -26.45,-6.86 -40.4,-6.86 -31.25,0 -55.3,9.14 -72.12,27.41 -16.83,18.28 -25.24,43.04 -25.24,74.29 0,29.33 7.81,53.01 23.44,71.04 15.63,18.03 38.83,28.73 69.6,32.1zm365.67 -448.62l0 75.01 -83.66 0 0 -75.01 83.66 0zm-449.34 -125.49c-43.76,-33.66 -65.63,-78.62 -65.63,-134.88 0,-56.26 22,-101.33 65.99,-135.23 44,-33.91 109.51,-50.86 196.54,-50.86 87.03,0 152.43,16.95 196.18,50.86 43.76,33.9 65.63,78.97 65.63,135.23 0,56.26 -21.88,101.22 -65.63,134.88 -43.76,33.66 -109.15,50.49 -196.18,50.49 -87.51,0 -153.15,-16.83 -196.9,-50.49zm348.01 -43.28c36.3,-20.2 54.45,-50.73 54.45,-91.6 0,-40.87 -18.15,-71.52 -54.45,-91.96 -36.31,-20.43 -86.67,-30.65 -151.11,-30.65 -64.91,0 -115.52,10.22 -151.82,30.65 -36.31,20.44 -54.46,51.1 -54.46,91.96 0,40.88 18.15,71.4 54.46,91.6 36.3,20.19 86.9,30.29 151.82,30.29 64.43,0 114.8,-10.1 151.11,-30.29zm-8.3 -822.94l0 -61.31c36.55,7.22 65.51,24.17 86.91,50.86 21.4,26.69 32.1,60.7 32.1,102.05 0,54.82 -17.92,97.97 -53.74,129.47 -35.83,31.49 -81.62,47.24 -137.4,47.24 -56.26,0 -102.18,-15.63 -137.76,-46.88 -35.58,-31.26 -53.38,-74.53 -53.38,-129.83 0,-41.83 10.46,-75.85 31.38,-102.05 20.92,-26.21 48.69,-42.44 83.3,-48.69l0 61.3c-40.87,12.98 -61.3,42.8 -61.3,89.43 0,38.95 12.86,67.92 38.59,86.91 25.73,18.99 58.31,28.49 97.73,28.49 39.91,0 73.08,-9.62 99.53,-28.85 26.45,-19.24 39.67,-48.09 39.67,-86.55 0,-50.97 -21.88,-81.5 -65.63,-91.59zm109.63 -152.91l-363.51 0 0 -97.36 165.89 -89.44 0 -15.87 -165.89 -89.43 0 -95.92 363.51 0 0 59.87 -292.11 0 0 15.87 155.79 84.38 0 67.79 -155.79 84.39 0 15.86 292.11 0 0 59.87z"/>
   <path fill="#666666" fill-rule="nonzero" fill-opacity="0.800000" d="M7802.82 20180.1l0 -56.26 119.72 0 0 -382.27 -14.42 0 -106.02 71.4 0 -66.35 105.3 -71.4 78.61 0 0 448.62 110.35 0 0 56.26 -293.55 0zm513.53 -176.71c-46.16,0 -84.62,-15.51 -115.4,-46.53 -30.78,-31.01 -46.16,-70.31 -46.16,-117.92 0,-49.53 15.5,-90.87 46.52,-124.05 31.02,-33.19 72.72,-49.78 125.14,-49.78 57.22,0 102.41,19.72 135.59,59.15 33.18,39.43 49.77,102.42 49.77,188.97 0,81.25 -16.22,147.61 -48.68,199.06 -32.46,51.45 -80.18,77.17 -143.17,77.17 -41.84,0 -76.09,-11.18 -102.78,-33.54 -26.69,-22.36 -42.92,-51.34 -48.69,-86.91l62.75 0c12.5,42.8 42.07,64.18 88.71,64.18 39.91,0 71.16,-15.86 93.76,-47.6 22.6,-31.74 34.86,-75.49 36.78,-131.27l-15.87 0c-10.57,12.98 -26.08,24.4 -46.52,34.26 -20.44,9.86 -44.36,14.79 -71.76,14.79zm90.15 -251c-21.15,-20.67 -47.6,-31.01 -79.33,-31.01 -31.74,0 -57.83,10.1 -78.25,30.29 -20.44,20.2 -30.66,48.33 -30.66,84.39 0,36.06 10.34,63.7 31.02,82.94 20.68,19.23 47.12,28.85 79.33,28.85 31.74,0 57.95,-9.86 78.61,-29.58 20.68,-19.71 31.02,-46.88 31.02,-81.49 0,-35.59 -10.58,-63.71 -31.74,-84.39zm373.62 87.99c49.04,0 88.35,16.11 117.92,48.33 29.57,32.22 44.36,72.36 44.36,120.45 0,54.34 -15.99,97.97 -47.97,130.91 -31.98,32.94 -73.68,49.41 -125.13,49.41 -53.38,0 -95.33,-13.95 -125.86,-41.84 -30.54,-27.89 -47.25,-64.19 -50.13,-108.91l62.74 0c3.85,30.78 15.39,54.22 34.62,70.32 19.24,16.11 44.48,24.16 75.73,24.16 33.66,0 60.82,-10.94 81.5,-32.81 20.68,-21.88 31.01,-51.34 31.01,-88.36 0,-35.1 -9.97,-63.58 -29.93,-85.46 -19.96,-21.88 -46.76,-32.82 -80.42,-32.82 -45.2,0 -78.61,15.87 -100.25,47.61l-63.46 0 22.36 -266.15 288.5 0 0 54.82 -237.29 0 -11.54 145.7 15.87 0c25.97,-23.57 58.42,-35.35 97.37,-35.35zm320.23 339.71l-75.01 0 0 -83.66 75.01 0 0 83.66zm1725.94 -504.88l295 0 0 70.68 -126.22 108.19 0 15.15c44.72,0.96 80.9,14.9 108.55,41.83 27.65,26.93 41.47,64.19 41.47,111.79 0,51.46 -16.59,92.08 -49.77,121.9 -33.18,29.81 -75.97,44.72 -128.38,44.72 -50.49,0 -91.84,-14.19 -124.06,-42.56 -32.21,-28.37 -49.77,-64.43 -52.65,-108.19l63.46 0c2.89,28.37 14.79,51.22 35.71,68.52 20.92,17.31 46.76,25.96 77.53,25.96 35.1,0 62.98,-9.85 83.66,-29.57 20.68,-19.71 31.02,-46.64 31.02,-80.78 0,-33.66 -9.86,-59.98 -29.58,-78.97 -19.71,-18.99 -47.84,-28.49 -84.38,-28.49 -17.79,0 -32.46,1.44 -44,4.33l0 -67.07 123.33 -106.75 0 -15.87 -220.7 0 0 -54.82zm677.26 230.8l0 15.87c19.71,6.73 37.75,20.8 54.1,42.2 16.35,21.4 24.52,47.48 24.52,78.25 0,42.32 -16.71,77.41 -50.13,105.3 -33.42,27.89 -77.53,41.84 -132.35,41.84 -54.82,0 -98.93,-13.95 -132.35,-41.84 -33.42,-27.89 -50.13,-62.98 -50.13,-105.3 0,-30.3 8.17,-56.26 24.52,-77.89 16.35,-21.64 34.39,-35.83 54.1,-42.56l0 -15.87c-15.87,-6.73 -30.41,-19.47 -43.64,-38.23 -13.22,-18.75 -19.83,-41.35 -19.83,-67.79 0,-39.91 15.62,-72.36 46.88,-97.37 31.26,-25 71.4,-37.51 120.45,-37.51 49.05,0 89.19,12.51 120.45,37.51 31.26,25.01 46.88,57.47 46.88,97.37 0,25.49 -6.73,47.85 -20.19,67.07 -13.47,19.24 -27.89,32.22 -43.28,38.95zm-28.49 -164.09c-19.96,-14.66 -45.09,-22 -75.37,-22 -30.3,0 -55.42,7.34 -75.37,22 -19.95,14.67 -29.93,34.99 -29.93,60.94 0,25.97 9.98,46.41 29.93,61.31 19.96,14.9 45.08,22.36 75.37,22.36 30.29,0 55.42,-7.46 75.37,-22.36 19.95,-14.91 29.93,-35.35 29.93,-61.31 0,-25.96 -9.98,-46.28 -29.93,-60.94zm-163.01 364.96c21.4,17.55 50.61,26.32 87.63,26.32 37.03,0 66.23,-8.77 87.63,-26.32 21.4,-17.55 32.1,-41 32.1,-70.32 0,-29.81 -10.58,-53.14 -31.74,-69.96 -21.16,-16.83 -50.49,-25.24 -87.99,-25.24 -37.51,0 -66.83,8.41 -87.99,25.24 -21.16,16.83 -31.74,40.16 -31.74,69.96 0,29.33 10.7,52.78 32.1,70.32zm1430.59 -36.43l61.31 0c-7.22,36.55 -24.17,65.51 -50.86,86.91 -26.69,21.4 -60.7,32.1 -102.05,32.1 -54.82,0 -97.97,-17.92 -129.47,-53.74 -31.49,-35.83 -47.24,-81.62 -47.24,-137.4 0,-56.26 15.63,-102.18 46.88,-137.76 31.26,-35.58 74.53,-53.38 129.83,-53.38 41.83,0 75.85,10.46 102.05,31.38 26.21,20.92 42.44,48.69 48.69,83.3l-61.3 0c-12.98,-40.87 -42.8,-61.3 -89.43,-61.3 -38.95,0 -67.92,12.86 -86.91,38.59 -18.99,25.73 -28.49,58.31 -28.49,97.73 0,39.91 9.62,73.08 28.85,99.53 19.24,26.45 48.09,39.67 86.55,39.67 50.97,0 81.5,-21.88 91.59,-65.63zm152.91 109.63l0 -363.51 97.36 0 89.44 165.89 15.87 0 89.43 -165.89 95.92 0 0 363.51 -59.87 0 0 -292.11 -15.87 0 -84.38 155.79 -67.79 0 -84.39 -155.79 -15.86 0 0 292.11 -59.87 0zm-3649.52 -449.34c33.66,-43.76 78.62,-65.63 134.88,-65.63 56.26,0 101.33,22 135.23,65.99 33.91,44 50.86,109.51 50.86,196.54 0,87.03 -16.95,152.43 -50.86,196.18 -33.9,43.76 -78.97,65.63 -135.23,65.63 -56.26,0 -101.22,-21.88 -134.88,-65.63 -33.66,-43.76 -50.49,-109.15 -50.49,-196.18 0,-87.51 16.83,-153.15 50.49,-196.9zm43.28 348.01c20.2,36.3 50.73,54.45 91.6,54.45 40.87,0 71.52,-18.15 91.96,-54.45 20.43,-36.31 30.65,-86.67 30.65,-151.11 0,-64.91 -10.22,-115.52 -30.65,-151.82 -20.44,-36.31 -51.1,-54.46 -91.96,-54.46 -40.88,0 -71.4,18.15 -91.6,54.46 -20.19,36.3 -30.29,86.9 -30.29,151.82 0,64.43 10.1,114.8 30.29,151.11zm820.06 101.33l-90.15 -152.19 -25.97 0 -92.32 152.19 -67.07 0 113.23 -186.08 -101.69 -177.43 64.91 0 83.66 144.25 25.97 0 85.1 -144.25 64.19 0 -103.14 175.27 112.51 188.24 -69.23 0zm338.98 0l0 -56.26 119.72 0 0 -382.27 -14.42 0 -106.02 71.4 0 -66.35 105.3 -71.4 78.61 0 0 448.62 110.35 0 0 56.26 -293.55 0zm1302.58 0l-75.01 0 0 -83.66 75.01 0 0 83.66zm125.49 -449.34c33.66,-43.76 78.62,-65.63 134.88,-65.63 56.26,0 101.33,22 135.23,65.99 33.91,44 50.86,109.51 50.86,196.54 0,87.03 -16.95,152.43 -50.86,196.18 -33.9,43.76 -78.97,65.63 -135.23,65.63 -56.26,0 -101.22,-21.88 -134.88,-65.63 -33.66,-43.76 -50.49,-109.15 -50.49,-196.18 0,-87.51 16.83,-153.15 50.49,-196.9zm43.28 348.01c20.2,36.3 50.73,54.45 91.6,54.45 40.87,0 71.52,-18.15 91.96,-54.45 20.43,-36.31 30.65,-86.67 30.65,-151.11 0,-64.91 -10.22,-115.52 -30.65,-151.82 -20.44,-36.31 -51.1,-54.46 -91.96,-54.46 -40.88,0 -71.4,18.15 -91.6,54.46 -20.19,36.3 -30.29,86.9 -30.29,151.82 0,64.43 10.1,114.8 30.29,151.11z"/>
  </g>
  <path fill="#666666" fill-rule="nonzero" fill-opacity="0.800000" d="M42975.55 14592.57l0 15.87c21.64,10.1 39.07,25.97 52.3,47.61 13.22,21.64 19.83,45.44 19.83,71.4 0,43.28 -14.9,78.25 -44.72,104.94 -29.81,26.69 -73.08,40.03 -129.82,40.03l-230.08 0 0 -514.98 224.31 0c52.41,0 92.92,12.39 121.53,37.15 28.61,24.77 42.92,55.9 42.92,93.4 0,49.53 -18.76,84.39 -56.27,104.58zm-267.58 -177.43l0 160.84 157.95 0c66.84,0 100.26,-27.41 100.26,-82.22 0,-26.93 -9.62,-46.76 -28.86,-59.51 -19.23,-12.74 -43.52,-19.11 -72.84,-19.11l-156.51 0zm0 399.58l160.84 0c33.18,0 60.35,-7.1 81.5,-21.28 21.16,-14.19 31.73,-37.87 31.73,-71.04 0,-31.26 -10.45,-53.98 -31.37,-68.16 -20.92,-14.18 -47.97,-21.27 -81.14,-21.27l-161.56 0 0 181.75zm434.19 -305.81l61.3 0 0 121.17 100.25 0c43.76,0 77.53,10.58 101.33,31.74 23.81,21.16 35.71,50.73 35.71,88.71 0,38.47 -11.9,68.39 -35.71,89.79 -23.8,21.4 -57.58,32.1 -101.33,32.1l-161.56 0 0 -363.51zm61.3 173.1l0 137.04 91.6 0c30.29,0 51.93,-5.77 64.9,-17.31 12.99,-11.54 19.48,-28.61 19.48,-51.21 0,-22.6 -6.49,-39.67 -19.48,-51.21 -12.98,-11.55 -34.62,-17.32 -64.9,-17.32l-91.6 0zm295.72 -173.1l61.3 0 0 363.51 -61.3 0 0 -363.51zm425.52 253.88l61.31 0c-7.22,36.55 -24.17,65.51 -50.86,86.91 -26.69,21.4 -60.7,32.1 -102.05,32.1 -54.82,0 -97.97,-17.92 -129.47,-53.74 -31.49,-35.83 -47.24,-81.62 -47.24,-137.4 0,-56.26 15.63,-102.18 46.88,-137.76 31.26,-35.58 74.53,-53.38 129.83,-53.38 41.83,0 75.85,10.46 102.05,31.38 26.21,20.92 42.44,48.69 48.69,83.3l-61.3 0c-12.98,-40.87 -42.8,-61.3 -89.43,-61.3 -38.95,0 -67.92,12.86 -86.91,38.59 -18.99,25.73 -28.49,58.31 -28.49,97.73 0,39.91 9.62,73.08 28.85,99.53 19.24,26.45 48.09,39.67 86.55,39.67 50.97,0 81.5,-21.88 91.59,-65.63zm178.51 -209.16c31.98,-36.06 75.61,-54.1 130.91,-54.1 55.3,0 98.93,18.04 130.91,54.1 31.98,36.07 47.97,81.74 47.97,137.04 0,55.3 -15.99,100.97 -47.97,137.04 -31.98,36.06 -75.61,54.1 -130.91,54.1 -55.3,0 -98.93,-18.04 -130.91,-54.1 -31.97,-36.07 -47.96,-81.74 -47.96,-137.04 0,-55.3 15.99,-100.97 47.96,-137.04zm43.64 234.77c20.2,26.69 49.29,40.03 87.27,40.03 37.99,0 67.07,-13.34 87.27,-40.03 20.2,-26.69 30.3,-59.27 30.3,-97.73 0,-38.47 -10.1,-71.04 -30.3,-97.73 -20.2,-26.69 -49.29,-40.03 -87.27,-40.03 -37.99,0 -67.07,13.34 -87.27,40.03 -20.19,26.69 -30.29,59.27 -30.29,97.73 0,38.47 10.1,71.04 30.29,97.73zm317.35 -226.11l0 -53.38 313.02 0 0 53.38 -125.5 0 0 310.13 -61.3 0 0 -310.13 -126.22 0zm625.33 310.13l0 -38.23 -15.87 0c-25.01,31.74 -62.74,47.61 -113.24,47.61 -39.91,0 -71.64,-11.54 -95.2,-34.63 -23.56,-23.08 -35.34,-50.97 -35.34,-83.66 0,-33.18 11.54,-61.54 34.62,-85.1 23.08,-23.57 57.94,-35.35 104.58,-35.35l118.28 0 0 -14.42c0,-23.08 -7.21,-41.48 -21.64,-55.18 -14.42,-13.71 -36.78,-20.56 -67.07,-20.56 -52.89,0 -81.01,17.55 -84.38,52.66l-61.3 0c2.4,-33.18 16.71,-59.15 42.92,-77.9 26.2,-18.75 59.99,-28.13 101.33,-28.13 46.64,0 83.3,10.82 109.99,32.46 26.69,21.64 40.03,52.66 40.03,93.04l0 247.39 -57.7 0zm-113.96 -44c30.3,0 56.5,-9.98 78.61,-29.93 22.12,-19.96 33.18,-44.36 33.18,-73.21l0 -33.18 -108.9 0c-58.19,0 -87.27,23.08 -87.27,69.24 0,20.68 7.33,37.03 22,49.05 14.66,12.02 35.46,18.03 62.38,18.03zm-2093.07 722.03l61.31 0c-7.22,36.55 -24.17,65.51 -50.86,86.91 -26.69,21.4 -60.7,32.1 -102.05,32.1 -54.82,0 -97.97,-17.92 -129.47,-53.74 -31.49,-35.83 -47.24,-81.62 -47.24,-137.4 0,-56.26 15.63,-102.18 46.88,-137.76 31.26,-35.58 74.53,-53.38 129.83,-53.38 41.83,0 75.85,10.46 102.05,31.38 26.21,20.92 42.44,48.69 48.69,83.3l-61.3 0c-12.98,-40.87 -42.8,-61.3 -89.43,-61.3 -38.95,0 -67.92,12.86 -86.91,38.59 -18.99,25.73 -28.49,58.31 -28.49,97.73 0,39.91 9.62,73.08 28.85,99.53 19.24,26.45 48.09,39.67 86.55,39.67 50.97,0 81.5,-21.88 91.59,-65.63zm239.45 109.63l-86.54 0 0 -363.51 59.87 0 0 281.29 15.86 0 159.4 -281.29 89.44 0 0 363.51 -59.87 0 0 -281.29 -15.87 0 -162.29 281.29zm680.14 -53.38l67.07 0 0 156.52 -59.87 0 0 -103.14 -314.46 0 0 103.14 -59.87 0 0 -156.52 48.33 0c29.81,-63.46 44.72,-133.67 44.72,-210.6l0 -99.53 274.08 0 0 310.13zm-61.31 0l0 -256.76 -155.79 0 0 46.16c0,82.22 -13.22,152.43 -39.67,210.6l195.45 0zm522.91 -150.02l0 20.92 -276.96 0c0.96,43.76 11.3,77.77 31.01,102.05 19.72,24.29 48.09,36.43 85.11,36.43 50.01,0 80.77,-18.75 92.32,-56.26l62.02 0c-6.25,32.7 -22.72,59.15 -49.41,79.33 -26.69,20.2 -61.66,30.3 -104.94,30.3 -55.3,0 -98.57,-18.04 -129.83,-54.1 -31.25,-36.07 -46.88,-82.94 -46.88,-140.65 0,-56.74 15.63,-102.17 46.88,-136.31 31.26,-34.15 74.05,-51.22 128.39,-51.22 51.45,0 91.11,16.23 119,48.69 27.89,32.46 42.32,72.72 43.28,120.81zm-163.73 -116.12c-31.25,0 -56.26,8.05 -75,24.16 -18.76,16.11 -30.3,36.67 -34.63,61.67l209.88 0c-1.92,-24.53 -11.78,-44.97 -29.57,-61.31 -17.79,-16.35 -41.35,-24.52 -70.68,-24.52zm582.78 319.51l-61.31 0 0 -160.12 -201.22 0 0 160.12 -61.3 0 0 -363.51 61.3 0 0 150.02 201.22 0 0 -150.02 61.31 0 0 363.51zm628.92 -363.51l181.04 0 0 363.51 -62.02 0 0 -143.53 -110.35 0c-9.62,0 -17.07,-0.24 -22.36,-0.72l-54.82 144.25 -64.19 0 61.3 -157.96c-37.51,-17.79 -56.26,-49.53 -56.26,-95.2 0,-35.1 10.94,-62.26 32.82,-81.5 21.88,-19.23 53.5,-28.85 94.84,-28.85zm119.01 51.93l-112.52 0c-26.45,0 -45.2,5.05 -56.26,15.15 -11.06,10.1 -16.59,24.77 -16.59,44 0,18.76 5.53,32.94 16.59,42.56 11.06,9.62 29.81,14.42 56.26,14.42l112.52 0 0 -116.12zm-1839.9 1099.25l-75.01 0 0 -83.66 75.01 0 0 83.66zm125.49 -449.34c33.66,-43.76 78.62,-65.63 134.88,-65.63 56.26,0 101.33,22 135.23,65.99 33.91,44 50.86,109.51 50.86,196.54 0,87.03 -16.95,152.43 -50.86,196.18 -33.9,43.76 -78.97,65.63 -135.23,65.63 -56.26,0 -101.22,-21.88 -134.88,-65.63 -33.66,-43.76 -50.49,-109.15 -50.49,-196.18 0,-87.51 16.83,-153.15 50.49,-196.9zm43.28 348.01c20.2,36.3 50.73,54.45 91.6,54.45 40.87,0 71.52,-18.15 91.96,-54.45 20.43,-36.31 30.65,-86.67 30.65,-151.11 0,-64.91 -10.22,-115.52 -30.65,-151.82 -20.44,-36.31 -51.1,-54.46 -91.96,-54.46 -40.88,0 -71.4,18.15 -91.6,54.46 -20.19,36.3 -30.29,86.9 -30.29,151.82 0,64.43 10.1,114.8 30.29,151.11zm822.94 -8.3l61.31 0c-7.22,36.55 -24.17,65.51 -50.86,86.91 -26.69,21.4 -60.7,32.1 -102.05,32.1 -54.82,0 -97.97,-17.92 -129.47,-53.74 -31.49,-35.83 -47.24,-81.62 -47.24,-137.4 0,-56.26 15.63,-102.18 46.88,-137.76 31.26,-35.58 74.53,-53.38 129.83,-53.38 41.83,0 75.85,10.46 102.05,31.38 26.21,20.92 42.44,48.69 48.69,83.3l-61.3 0c-12.98,-40.87 -42.8,-61.3 -89.43,-61.3 -38.95,0 -67.92,12.86 -86.91,38.59 -18.99,25.73 -28.49,58.31 -28.49,97.73 0,39.91 9.62,73.08 28.85,99.53 19.24,26.45 48.09,39.67 86.55,39.67 50.97,0 81.5,-21.88 91.59,-65.63zm152.91 109.63l0 -363.51 97.36 0 89.44 165.89 15.87 0 89.43 -165.89 95.92 0 0 363.51 -59.87 0 0 -292.11 -15.87 0 -84.38 155.79 -67.79 0 -84.39 -155.79 -15.86 0 0 292.11 -59.87 0zm126.94 -1151.17l0 121.17 107.46 0c43.76,0 77.53,10.58 101.34,31.74 23.8,21.16 35.7,50.73 35.7,88.71 0,38.47 -11.9,68.39 -35.7,89.79 -23.81,21.4 -57.59,32.1 -101.34,32.1l-168.77 0 0 -363.51 61.3 0zm0 310.13l98.81 0c30.29,0 51.93,-5.77 64.91,-17.31 12.98,-11.54 19.47,-28.61 19.47,-51.21 0,-22.6 -6.49,-39.67 -19.47,-51.21 -12.99,-11.55 -34.63,-17.32 -64.91,-17.32l-98.81 0 0 137.04zm819.34 53.38l-75.01 0 0 -83.66 75.01 0 0 83.66zm0 -279.85l-75.01 0 0 -83.66 75.01 0 0 83.66zm-2764.54 892.97l69.23 0 0 56.27 -69.23 0 0 118.28 -62.03 0 0 -118.28 -249.55 0 0 -72.13 222.87 -314.46 88.71 0 0 330.33zm-245.23 0l183.92 0 0 -258.93 -15.87 0 -168.06 243.06 0 15.87zm686.63 0l69.23 0 0 56.27 -69.23 0 0 118.28 -62.03 0 0 -118.28 -249.55 0 0 -72.13 222.87 -314.46 88.71 0 0 330.33zm-245.23 0l183.92 0 0 -258.93 -15.87 0 -168.06 243.06 0 15.87z"/>
  <path fill="#666666" fill-rule="nonzero" fill-opacity="0.800000" d="M34091.35 23028.93l-63.46 0c2.88,-48.57 19.84,-85.59 50.85,-111.08 31.02,-25.48 70.08,-38.23 117.2,-38.23 49.05,0 88.6,13.35 118.65,40.04 30.05,26.69 45.08,64.54 45.08,113.59 0,59.63 -37.27,120.45 -111.79,182.48l-126.94 106.74 0 15.87 254.6 0 0 56.26 -346.92 0 0 -71.4 74.29 -60.58c46.16,-37.03 84.38,-69.48 114.67,-97.37 11.54,-10.09 20.8,-18.75 27.77,-25.96 6.98,-7.22 14.91,-16.71 23.81,-28.5 8.89,-11.78 15.63,-24.16 20.19,-37.14 4.57,-12.99 6.86,-26.45 6.86,-40.4 0,-31.25 -9.14,-55.3 -27.41,-72.12 -18.28,-16.83 -43.04,-25.24 -74.29,-25.24 -29.33,0 -53.01,7.81 -71.04,23.44 -18.03,15.63 -28.73,38.83 -32.1,69.6zm360.63 365.67l0 -56.26 119.72 0 0 -382.27 -14.42 0 -106.02 71.4 0 -66.35 105.3 -71.4 78.61 0 0 448.62 110.35 0 0 56.26 -293.55 0zm556.08 -328.89c46.16,0 84.62,15.51 115.4,46.53 30.77,31.01 46.16,70.31 46.16,117.92 0,49.53 -15.51,90.88 -46.52,124.06 -31.02,33.18 -72.73,49.77 -125.14,49.77 -57.23,0 -102.42,-19.72 -135.6,-59.15 -33.18,-39.43 -49.77,-102.42 -49.77,-188.96 0,-81.26 16.23,-147.62 48.69,-199.07 32.46,-51.45 80.18,-77.17 143.17,-77.17 41.84,0 76.09,11.18 102.78,33.55 26.69,22.36 42.92,51.33 48.69,86.9l-62.75 0c-12.5,-42.79 -42.07,-64.18 -88.71,-64.18 -39.91,0 -71.16,15.87 -93.76,47.6 -22.6,31.74 -34.86,75.49 -36.79,131.27l15.87 0c10.58,-12.98 26.09,-24.4 46.53,-34.26 20.43,-9.86 44.36,-14.79 71.76,-14.79zm-90.16 251c21.16,20.68 47.61,31.01 79.34,31.01 31.74,0 57.82,-10.09 78.25,-30.29 20.44,-20.2 30.66,-48.33 30.66,-84.38 0,-36.07 -10.34,-63.71 -31.02,-82.94 -20.68,-19.24 -47.13,-28.86 -79.34,-28.86 -31.73,0 -57.94,9.86 -78.61,29.58 -20.68,19.71 -31.01,46.88 -31.01,81.5 0,35.58 10.57,63.7 31.73,84.38zm413.29 77.89l-75.01 0 0 -83.66 75.01 0 0 83.66zm125.49 -449.34c33.66,-43.76 78.62,-65.63 134.88,-65.63 56.26,0 101.33,22 135.23,65.99 33.91,44 50.86,109.51 50.86,196.54 0,87.03 -16.95,152.43 -50.86,196.18 -33.9,43.76 -78.97,65.63 -135.23,65.63 -56.26,0 -101.22,-21.88 -134.88,-65.63 -33.66,-43.76 -50.49,-109.15 -50.49,-196.18 0,-87.51 16.83,-153.15 50.49,-196.9zm43.28 348.01c20.2,36.3 50.73,54.45 91.6,54.45 40.87,0 71.52,-18.15 91.96,-54.45 20.43,-36.31 30.65,-86.67 30.65,-151.11 0,-64.91 -10.22,-115.52 -30.65,-151.82 -20.44,-36.31 -51.1,-54.46 -91.96,-54.46 -40.88,0 -71.4,18.15 -91.6,54.46 -20.19,36.3 -30.29,86.9 -30.29,151.82 0,64.43 10.1,114.8 30.29,151.11zm822.94 -8.3l61.31 0c-7.22,36.55 -24.17,65.51 -50.86,86.91 -26.69,21.4 -60.7,32.1 -102.05,32.1 -54.82,0 -97.97,-17.92 -129.47,-53.74 -31.49,-35.83 -47.24,-81.62 -47.24,-137.4 0,-56.26 15.63,-102.18 46.88,-137.76 31.26,-35.58 74.53,-53.38 129.83,-53.38 41.83,0 75.85,10.46 102.05,31.38 26.21,20.92 42.44,48.69 48.69,83.3l-61.3 0c-12.98,-40.87 -42.8,-61.3 -89.43,-61.3 -38.95,0 -67.92,12.86 -86.91,38.59 -18.99,25.73 -28.49,58.31 -28.49,97.73 0,39.91 9.62,73.08 28.85,99.53 19.24,26.45 48.09,39.67 86.55,39.67 50.97,0 81.5,-21.88 91.59,-65.63zm152.91 109.63l0 -363.51 97.36 0 89.44 165.89 15.87 0 89.43 -165.89 95.92 0 0 363.51 -59.87 0 0 -292.11 -15.87 0 -84.38 155.79 -67.79 0 -84.39 -155.79 -15.86 0 0 292.11 -59.87 0z"/>
  <path fill="#666666" fill-rule="nonzero" fill-opacity="0.800000" d="M28822.78 11536.61c0,46.16 -15.51,84.62 -46.53,115.4 -31.01,30.78 -70.31,46.16 -117.92,46.16 -49.53,0 -90.87,-15.5 -124.05,-46.52 -33.19,-31.02 -49.78,-72.72 -49.78,-125.14 0,-57.22 19.72,-102.41 59.15,-135.59 39.43,-33.18 102.42,-49.77 188.97,-49.77 81.25,0 147.61,16.22 199.06,48.68 51.45,32.46 77.17,80.18 77.17,143.17 0,41.84 -11.18,76.09 -33.54,102.78 -22.36,26.69 -51.34,42.92 -86.91,48.69l0 -62.75c42.8,-12.5 64.18,-42.07 64.18,-88.71 0,-39.91 -15.86,-71.16 -47.6,-93.76 -31.74,-22.6 -75.49,-34.86 -131.27,-36.78l0 15.87c12.98,10.57 24.4,26.08 34.26,46.52 9.86,20.44 14.79,44.36 14.79,71.76zm-251 -90.15c-20.67,21.15 -31.01,47.6 -31.01,79.33 0,31.74 10.1,57.83 30.29,78.25 20.2,20.44 48.33,30.66 84.39,30.66 36.06,0 63.7,-10.34 82.94,-31.02 19.23,-20.68 28.85,-47.12 28.85,-79.33 0,-31.74 -9.86,-57.95 -29.58,-78.61 -19.71,-20.68 -46.88,-31.02 -81.49,-31.02 -35.59,0 -63.71,10.58 -84.39,31.74zm-21.64 -235.13c-43.76,-33.66 -65.63,-78.62 -65.63,-134.88 0,-56.26 22,-101.33 65.99,-135.23 44,-33.91 109.51,-50.86 196.54,-50.86 87.03,0 152.43,16.95 196.18,50.86 43.76,33.9 65.63,78.97 65.63,135.23 0,56.26 -21.88,101.22 -65.63,134.88 -43.76,33.66 -109.15,50.49 -196.18,50.49 -87.51,0 -153.15,-16.83 -196.9,-50.49zm348.01 -43.28c36.3,-20.2 54.45,-50.73 54.45,-91.6 0,-40.87 -18.15,-71.52 -54.45,-91.96 -36.31,-20.43 -86.67,-30.65 -151.11,-30.65 -64.91,0 -115.52,10.22 -151.82,30.65 -36.31,20.44 -54.46,51.1 -54.46,91.96 0,40.88 18.15,71.4 54.46,91.6 36.3,20.19 86.9,30.29 151.82,30.29 64.43,0 114.8,-10.1 151.11,-30.29zm101.33 -447.9l0 75.01 -83.66 0 0 -75.01 83.66 0zm-449.34 -125.49c-43.76,-33.66 -65.63,-78.62 -65.63,-134.88 0,-56.26 22,-101.33 65.99,-135.23 44,-33.91 109.51,-50.86 196.54,-50.86 87.03,0 152.43,16.95 196.18,50.86 43.76,33.9 65.63,78.97 65.63,135.23 0,56.26 -21.88,101.22 -65.63,134.88 -43.76,33.66 -109.15,50.49 -196.18,50.49 -87.51,0 -153.15,-16.83 -196.9,-50.49zm348.01 -43.28c36.3,-20.2 54.45,-50.73 54.45,-91.6 0,-40.87 -18.15,-71.52 -54.45,-91.96 -36.31,-20.43 -86.67,-30.65 -151.11,-30.65 -64.91,0 -115.52,10.22 -151.82,30.65 -36.31,20.44 -54.46,51.1 -54.46,91.96 0,40.88 18.15,71.4 54.46,91.6 36.3,20.19 86.9,30.29 151.82,30.29 64.43,0 114.8,-10.1 151.11,-30.29zm-8.3 -822.94l0 -61.31c36.55,7.22 65.51,24.17 86.91,50.86 21.4,26.69 32.1,60.7 32.1,102.05 0,54.82 -17.92,97.97 -53.74,129.47 -35.83,31.49 -81.62,47.24 -137.4,47.24 -56.26,0 -102.18,-15.63 -137.76,-46.88 -35.58,-31.26 -53.38,-74.53 -53.38,-129.83 0,-41.83 10.46,-75.85 31.38,-102.05 20.92,-26.21 48.69,-42.44 83.3,-48.69l0 61.3c-40.87,12.98 -61.3,42.8 -61.3,89.43 0,38.95 12.86,67.92 38.59,86.91 25.73,18.99 58.31,28.49 97.73,28.49 39.91,0 73.08,-9.62 99.53,-28.85 26.45,-19.24 39.67,-48.09 39.67,-86.55 0,-50.97 -21.88,-81.5 -65.63,-91.59zm109.63 -152.91l-363.51 0 0 -97.36 165.89 -89.44 0 -15.87 -165.89 -89.43 0 -95.92 363.51 0 0 59.87 -292.11 0 0 15.87 155.79 84.38 0 67.79 -155.79 84.39 0 15.86 292.11 0 0 59.87z"/>
  <path fill="#666666" fill-rule="nonzero" fill-opacity="0.800000" d="M28822.78 17741.77c0,46.16 -15.51,84.62 -46.53,115.4 -31.01,30.78 -70.31,46.16 -117.92,46.16 -49.53,0 -90.87,-15.5 -124.05,-46.52 -33.19,-31.02 -49.78,-72.72 -49.78,-125.14 0,-57.22 19.72,-102.41 59.15,-135.59 39.43,-33.18 102.42,-49.77 188.97,-49.77 81.25,0 147.61,16.22 199.06,48.68 51.45,32.46 77.17,80.18 77.17,143.17 0,41.84 -11.18,76.09 -33.54,102.78 -22.36,26.69 -51.34,42.92 -86.91,48.69l0 -62.75c42.8,-12.5 64.18,-42.07 64.18,-88.71 0,-39.91 -15.86,-71.16 -47.6,-93.76 -31.74,-22.6 -75.49,-34.86 -131.27,-36.78l0 15.87c12.98,10.57 24.4,26.08 34.26,46.52 9.86,20.44 14.79,44.36 14.79,71.76zm-251 -90.15c-20.67,21.15 -31.01,47.6 -31.01,79.33 0,31.74 10.1,57.83 30.29,78.25 20.2,20.44 48.33,30.66 84.39,30.66 36.06,0 63.7,-10.34 82.94,-31.02 19.23,-20.68 28.85,-47.12 28.85,-79.33 0,-31.74 -9.86,-57.95 -29.58,-78.61 -19.71,-20.68 -46.88,-31.02 -81.49,-31.02 -35.59,0 -63.71,10.58 -84.39,31.74zm62.03 -246.67l0 63.46c-48.57,-2.88 -85.59,-19.84 -111.08,-50.85 -25.48,-31.02 -38.23,-70.08 -38.23,-117.2 0,-49.05 13.35,-88.6 40.04,-118.65 26.69,-30.05 64.54,-45.08 113.59,-45.08 59.63,0 120.45,37.27 182.48,111.79l106.74 126.94 15.87 0 0 -254.6 56.26 0 0 346.92 -71.4 0 -60.58 -74.29c-37.03,-46.16 -69.48,-84.38 -97.37,-114.67 -10.09,-11.54 -18.75,-20.8 -25.96,-27.77 -7.22,-6.98 -16.71,-14.91 -28.5,-23.81 -11.78,-8.89 -24.16,-15.63 -37.14,-20.19 -12.99,-4.57 -26.45,-6.86 -40.4,-6.86 -31.25,0 -55.3,9.14 -72.12,27.41 -16.83,18.28 -25.24,43.04 -25.24,74.29 0,29.33 7.81,53.01 23.44,71.04 15.63,18.03 38.83,28.73 69.6,32.1zm365.67 -448.62l0 75.01 -83.66 0 0 -75.01 83.66 0zm-449.34 -125.49c-43.76,-33.66 -65.63,-78.62 -65.63,-134.88 0,-56.26 22,-101.33 65.99,-135.23 44,-33.91 109.51,-50.86 196.54,-50.86 87.03,0 152.43,16.95 196.18,50.86 43.76,33.9 65.63,78.97 65.63,135.23 0,56.26 -21.88,101.22 -65.63,134.88 -43.76,33.66 -109.15,50.49 -196.18,50.49 -87.51,0 -153.15,-16.83 -196.9,-50.49zm348.01 -43.28c36.3,-20.2 54.45,-50.73 54.45,-91.6 0,-40.87 -18.15,-71.52 -54.45,-91.96 -36.31,-20.43 -86.67,-30.65 -151.11,-30.65 -64.91,0 -115.52,10.22 -151.82,30.65 -36.31,20.44 -54.46,51.1 -54.46,91.96 0,40.88 18.15,71.4 54.46,91.6 36.3,20.19 86.9,30.29 151.82,30.29 64.43,0 114.8,-10.1 151.11,-30.29zm-8.3 -822.94l0 -61.31c36.55,7.22 65.51,24.17 86.91,50.86 21.4,26.69 32.1,60.7 32.1,102.05 0,54.82 -17.92,97.97 -53.74,129.47 -35.83,31.49 -81.62,47.24 -137.4,47.24 -56.26,0 -102.18,-15.63 -137.76,-46.88 -35.58,-31.26 -53.38,-74.53 -53.38,-129.83 0,-41.83 10.46,-75.85 31.38,-102.05 20.92,-26.21 48.69,-42.44 83.3,-48.69l0 61.3c-40.87,12.98 -61.3,42.8 -61.3,89.43 0,38.95 12.86,67.92 38.59,86.91 25.73,18.99 58.31,28.49 97.73,28.49 39.91,0 73.08,-9.62 99.53,-28.85 26.45,-19.24 39.67,-48.09 39.67,-86.55 0,-50.97 -21.88,-81.5 -65.63,-91.59zm109.63 -152.91l-363.51 0 0 -97.36 165.89 -89.44 0 -15.87 -165.89 -89.43 0 -95.92 363.51 0 0 59.87 -292.11 0 0 15.87 155.79 84.38 0 67.79 -155.79 84.39 0 15.86 292.11 0 0 59.87z"/>
  <path fill="#666666" fill-rule="nonzero" fill-opacity="0.800000" d="M32733.19 20314.69l0 -56.26 119.72 0 0 -382.27 -14.42 0 -106.02 71.4 0 -66.35 105.3 -71.4 78.61 0 0 448.62 110.35 0 0 56.26 -293.55 0zm644.8 -274.08l0 15.87c19.71,6.73 37.75,20.8 54.1,42.2 16.35,21.4 24.52,47.48 24.52,78.25 0,42.32 -16.71,77.41 -50.13,105.3 -33.42,27.89 -77.53,41.84 -132.35,41.84 -54.82,0 -98.93,-13.95 -132.35,-41.84 -33.42,-27.89 -50.13,-62.98 -50.13,-105.3 0,-30.3 8.17,-56.26 24.52,-77.89 16.35,-21.64 34.39,-35.83 54.1,-42.56l0 -15.87c-15.87,-6.73 -30.41,-19.47 -43.64,-38.23 -13.22,-18.75 -19.83,-41.35 -19.83,-67.79 0,-39.91 15.62,-72.36 46.88,-97.37 31.26,-25 71.4,-37.51 120.45,-37.51 49.05,0 89.19,12.51 120.45,37.51 31.26,25.01 46.88,57.47 46.88,97.37 0,25.49 -6.73,47.85 -20.19,67.07 -13.47,19.24 -27.89,32.22 -43.28,38.95zm-28.49 -164.09c-19.96,-14.66 -45.09,-22 -75.37,-22 -30.3,0 -55.42,7.34 -75.37,22 -19.95,14.67 -29.93,34.99 -29.93,60.94 0,25.97 9.98,46.41 29.93,61.31 19.96,14.9 45.08,22.36 75.37,22.36 30.29,0 55.42,-7.46 75.37,-22.36 19.95,-14.91 29.93,-35.35 29.93,-61.31 0,-25.96 -9.98,-46.28 -29.93,-60.94zm-163.01 364.96c21.4,17.55 50.61,26.32 87.63,26.32 37.03,0 66.23,-8.77 87.63,-26.32 21.4,-17.55 32.1,-41 32.1,-70.32 0,-29.81 -10.58,-53.14 -31.74,-69.96 -21.16,-16.83 -50.49,-25.24 -87.99,-25.24 -37.51,0 -66.83,8.41 -87.99,25.24 -21.16,16.83 -31.74,40.16 -31.74,69.96 0,29.33 10.7,52.78 32.1,70.32zm536.98 -266.51c49.04,0 88.35,16.11 117.92,48.33 29.57,32.22 44.36,72.36 44.36,120.45 0,54.34 -15.99,97.97 -47.97,130.91 -31.98,32.94 -73.68,49.41 -125.13,49.41 -53.38,0 -95.33,-13.95 -125.86,-41.84 -30.54,-27.89 -47.25,-64.19 -50.13,-108.91l62.74 0c3.85,30.78 15.39,54.22 34.62,70.32 19.24,16.11 44.48,24.16 75.73,24.16 33.66,0 60.82,-10.94 81.5,-32.81 20.68,-21.88 31.01,-51.34 31.01,-88.36 0,-35.1 -9.97,-63.58 -29.93,-85.46 -19.96,-21.88 -46.76,-32.82 -80.42,-32.82 -45.2,0 -78.61,15.87 -100.25,47.61l-63.46 0 22.36 -266.15 288.5 0 0 54.82 -237.29 0 -11.54 145.7 15.87 0c25.97,-23.57 58.42,-35.35 97.37,-35.35zm320.23 339.71l-75.01 0 0 -83.66 75.01 0 0 83.66zm1725.94 -504.88l295 0 0 70.68 -126.22 108.19 0 15.15c44.72,0.96 80.9,14.9 108.55,41.83 27.65,26.93 41.47,64.19 41.47,111.79 0,51.46 -16.59,92.08 -49.77,121.9 -33.18,29.81 -75.97,44.72 -128.38,44.72 -50.49,0 -91.84,-14.19 -124.06,-42.56 -32.21,-28.37 -49.77,-64.43 -52.65,-108.19l63.46 0c2.89,28.37 14.79,51.22 35.71,68.52 20.92,17.31 46.76,25.96 77.53,25.96 35.1,0 62.98,-9.85 83.66,-29.57 20.68,-19.71 31.02,-46.64 31.02,-80.78 0,-33.66 -9.86,-59.98 -29.58,-78.97 -19.71,-18.99 -47.84,-28.49 -84.38,-28.49 -17.79,0 -32.46,1.44 -44,4.33l0 -67.07 123.33 -106.75 0 -15.87 -220.7 0 0 -54.82zm677.26 230.8l0 15.87c19.71,6.73 37.75,20.8 54.1,42.2 16.35,21.4 24.52,47.48 24.52,78.25 0,42.32 -16.71,77.41 -50.13,105.3 -33.42,27.89 -77.53,41.84 -132.35,41.84 -54.82,0 -98.93,-13.95 -132.35,-41.84 -33.42,-27.89 -50.13,-62.98 -50.13,-105.3 0,-30.3 8.17,-56.26 24.52,-77.89 16.35,-21.64 34.39,-35.83 54.1,-42.56l0 -15.87c-15.87,-6.73 -30.41,-19.47 -43.64,-38.23 -13.22,-18.75 -19.83,-41.35 -19.83,-67.79 0,-39.91 15.62,-72.36 46.88,-97.37 31.26,-25 71.4,-37.51 120.45,-37.51 49.05,0 89.19,12.51 120.45,37.51 31.26,25.01 46.88,57.47 46.88,97.37 0,25.49 -6.73,47.85 -20.19,67.07 -13.47,19.24 -27.89,32.22 -43.28,38.95zm-28.49 -164.09c-19.96,-14.66 -45.09,-22 -75.37,-22 -30.3,0 -55.42,7.34 -75.37,22 -19.95,14.67 -29.93,34.99 -29.93,60.94 0,25.97 9.98,46.41 29.93,61.31 19.96,14.9 45.08,22.36 75.37,22.36 30.29,0 55.42,-7.46 75.37,-22.36 19.95,-14.91 29.93,-35.35 29.93,-61.31 0,-25.96 -9.98,-46.28 -29.93,-60.94zm-163.01 364.96c21.4,17.55 50.61,26.32 87.63,26.32 37.03,0 66.23,-8.77 87.63,-26.32 21.4,-17.55 32.1,-41 32.1,-70.32 0,-29.81 -10.58,-53.14 -31.74,-69.96 -21.16,-16.83 -50.49,-25.24 -87.99,-25.24 -37.51,0 -66.83,8.41 -87.99,25.24 -21.16,16.83 -31.74,40.16 -31.74,69.96 0,29.33 10.7,52.78 32.1,70.32zm1430.59 -36.43l61.31 0c-7.22,36.55 -24.17,65.51 -50.86,86.91 -26.69,21.4 -60.7,32.1 -102.05,32.1 -54.82,0 -97.97,-17.92 -129.47,-53.74 -31.49,-35.83 -47.24,-81.62 -47.24,-137.4 0,-56.26 15.63,-102.18 46.88,-137.76 31.26,-35.58 74.53,-53.38 129.83,-53.38 41.83,0 75.85,10.46 102.05,31.38 26.21,20.92 42.44,48.69 48.69,83.3l-61.3 0c-12.98,-40.87 -42.8,-61.3 -89.43,-61.3 -38.95,0 -67.92,12.86 -86.91,38.59 -18.99,25.73 -28.49,58.31 -28.49,97.73 0,39.91 9.62,73.08 28.85,99.53 19.24,26.45 48.09,39.67 86.55,39.67 50.97,0 81.5,-21.88 91.59,-65.63zm152.91 109.63l0 -363.51 97.36 0 89.44 165.89 15.87 0 89.43 -165.89 95.92 0 0 363.51 -59.87 0 0 -292.11 -15.87 0 -84.38 155.79 -67.79 0 -84.39 -155.79 -15.86 0 0 292.11 -59.87 0zm-3649.52 -449.34c33.66,-43.76 78.62,-65.63 134.88,-65.63 56.26,0 101.33,22 135.23,65.99 33.91,44 50.86,109.51 50.86,196.54 0,87.03 -16.95,152.43 -50.86,196.18 -33.9,43.76 -78.97,65.63 -135.23,65.63 -56.26,0 -101.22,-21.88 -134.88,-65.63 -33.66,-43.76 -50.49,-109.15 -50.49,-196.18 0,-87.51 16.83,-153.15 50.49,-196.9zm43.28 348.01c20.2,36.3 50.73,54.45 91.6,54.45 40.87,0 71.52,-18.15 91.96,-54.45 20.43,-36.31 30.65,-86.67 30.65,-151.11 0,-64.91 -10.22,-115.52 -30.65,-151.82 -20.44,-36.31 -51.1,-54.46 -91.96,-54.46 -40.88,0 -71.4,18.15 -91.6,54.46 -20.19,36.3 -30.29,86.9 -30.29,151.82 0,64.43 10.1,114.8 30.29,151.11zm820.06 101.33l-90.15 -152.19 -25.97 0 -92.32 152.19 -67.07 0 113.23 -186.08 -101.69 -177.43 64.91 0 83.66 144.25 25.97 0 85.1 -144.25 64.19 0 -103.14 175.27 112.51 188.24 -69.23 0zm338.98 0l0 -56.26 119.72 0 0 -382.27 -14.42 0 -106.02 71.4 0 -66.35 105.3 -71.4 78.61 0 0 448.62 110.35 0 0 56.26 -293.55 0zm1302.58 0l-75.01 0 0 -83.66 75.01 0 0 83.66zm125.49 -449.34c33.66,-43.76 78.62,-65.63 134.88,-65.63 56.26,0 101.33,22 135.23,65.99 33.91,44 50.86,109.51 50.86,196.54 0,87.03 -16.95,152.43 -50.86,196.18 -33.9,43.76 -78.97,65.63 -135.23,65.63 -56.26,0 -101.22,-21.88 -134.88,-65.63 -33.66,-43.76 -50.49,-109.15 -50.49,-196.18 0,-87.51 16.83,-153.15 50.49,-196.9zm43.28 348.01c20.2,36.3 50.73,54.45 91.6,54.45 40.87,0 71.52,-18.15 91.96,-54.45 20.43,-36.31 30.65,-86.67 30.65,-151.11 0,-64.91 -10.22,-115.52 -30.65,-151.82 -20.44,-36.31 -51.1,-54.46 -91.96,-54.46 -40.88,0 -71.4,18.15 -91.6,54.46 -20.19,36.3 -30.29,86.9 -30.29,151.82 0,64.43 10.1,114.8 30.29,151.11z"/>
 </g>
</svg>
