<?xml version="1.0" encoding="UTF-8"?>
<!DOCTYPE svg PUBLIC "-//W3C//DTD SVG 1.1//EN" "http://www.w3.org/Graphics/SVG/1.1/DTD/svg11.dtd">
<!-- Creator: CorelDRAW 2021.5 -->
<svg xmlns="http://www.w3.org/2000/svg" xml:space="preserve" width="297mm" height="210mm" version="1.1" shape-rendering="geometricPrecision" text-rendering="geometricPrecision" image-rendering="optimizeQuality" fill-rule="evenodd" clip-rule="evenodd"
viewBox="0 0 29698.94 20999.25"
 xmlns:xlink="http://www.w3.org/1999/xlink"
 xmlns:xodm="http://www.corel.com/coreldraw/odm/2003">
 <g id="Тени">
  <metadata id="CorelCorpID_0Corel-Layer"/>
  <rect fill="none" width="29698.94" height="20999.25"/>
  <g id="_2238482399216">
   <path fill="black" fill-opacity="0.101961" d="M10067.38 16813.06c0,0 146.18,-290.85 180.5,-628.65 34.31,-337.78 130.36,-2062.03 109.78,-2216.83 -20.58,-154.82 -68.61,-464.48 -150.95,-541.9 -82.33,-77.42 -233.48,-209.65 -233.48,-209.65 0,0 333.7,106.73 432.46,-107.04 98.77,-213.77 94.29,-554.12 94.29,-554.12 0,0 38.73,297.68 78.58,579.53 22.2,156.73 -8,292.69 82.01,408.03 56.44,72.36 176.81,93.41 266.62,124.47 490.29,169.69 2074.04,152.59 2410.2,89.34 144.78,-27.24 404.93,-30.23 492.91,-125.89 116.28,-126.34 144.79,-295.64 170.72,-394.54 40,-152.62 325.99,-568.21 325.99,-568.21 0,0 -153.52,387.88 -99.84,469.54 53.69,81.67 335.13,78.35 335.13,78.35 0,0 -234.37,218.79 -287.1,379.08 -86.66,263.61 10.91,1814.76 68.62,2435.04 20.59,221.17 101.28,710.09 130.7,753.53 29.39,43.45 -169.38,-197.7 -169.38,-197.7 -394.74,-292.45 -44.35,-2182.31 -654.27,-2455.99 -272.14,-122.14 -2589.71,-255.27 -2838.42,95.66 -182.3,257.21 -283.25,1720.04 -338.14,1924.13 -54.9,204.09 -272.38,546.48 -272.38,546.48l-134.55 117.35z"/>
   <path fill="black" fill-opacity="0.101961" d="M18019.81 2295.85c366.23,1592.69 464.66,3896.26 2414.53,3992.52 512.88,25.31 1443.78,6.32 1823.71,12.66 379.95,6.32 742.39,-113.74 742.39,-113.74l52.85 -131.27 -136.69 660.59 -4076.46 7.2c0,0 -78.99,-256.31 -206.77,-615.34 -127.79,-359.04 -279.03,-1133.22 -326.44,-1319.3 -47.39,-186.09 -185.84,-1390.3 -185.84,-1390.3l-101.29 -1103.02z"/>
   <path fill="black" fill-opacity="0.101961" d="M10365.19 3332.27c-84.88,328.77 -320.84,474.9 -320.84,474.9 0,0 90.87,52.48 154.63,137.93 63.72,85.44 164.6,278.63 182.43,360.91 17.84,82.26 50.34,487.84 50.34,487.84 187.96,-98.73 407.07,-108.04 631.85,-108.24 148.52,-0.11 1223.28,-33.87 1223.28,-33.87l1220.53 34.13c553.96,-27.21 649.35,134.66 682.86,78.23 25.53,-43.07 -20.09,-318.03 10.74,-423.45 30.83,-105.44 81.84,-263.82 165.66,-355.05 83.86,-91.25 224.65,-194.83 224.65,-194.83 0,0 -422.24,-21.15 -480.01,-309.96 -99.1,-495.55 -58.81,-739.36 -164.93,-1361.54 0,0 9.06,1480 11.3,1725.56 2.25,245.57 88.24,776.32 -76.77,726.82 -165,-49.51 -1594.42,-133.88 -1718.13,-141.37 -783.79,-47.46 -1646.3,314.71 -1676.29,107.87 -26.14,-180.33 18.98,-760.19 18.98,-999.45 0,-239.28 -28.08,-1359.71 -28.08,-1359.71 -52.86,502.94 -27.32,824.56 -112.2,1153.3z"/>
   <g>
    <path fill="none" stroke="black" stroke-width="10.58" stroke-miterlimit="22.9256" d="M12131.82 11535.22c-628.97,-7.06 -1240.52,18.08 -2138.9,94.89 -319.57,27.35 -465.36,154.63 -478.18,405.73 -68.15,1335.86 -61.52,3840.42 68.68,4790.19 13.15,87.96 204,100.55 287.04,83.78 83.04,-16.77 254.33,-113.1 359.29,-247.1 104.97,-134.02 136.87,-569.59 136.87,-569.59l41.27 -598.91c0,0 130.5,-1679.46 131.3,-1788.34 0.84,-108.88 99.94,-171.7 99.94,-171.7 0,0 -6.72,-45.45 -19.04,-108.04 -8.3,-42.04 -17.03,-107.21 -36.15,-113.94 -353.37,-124.34 -838.81,-12.28 -1087.15,-327.46"/>
    <path fill="none" stroke="black" stroke-width="10.58" stroke-miterlimit="22.9256" d="M10249.27 16618.17c-13.07,291.63 29.88,288.66 208.12,292.94 449.78,10.76 1854.51,-9.75 1854.51,-9.75"/>
    <path fill="none" stroke="black" stroke-width="10.58" stroke-miterlimit="22.9256" d="M12131.82 11535.22c725.24,-17.44 1430.35,1.74 2449.77,88.9 319.53,27.31 465.35,154.62 478.14,405.72 65.06,1275.52 95.69,3691.7 -68.65,4790.2 -13.15,87.96 -204.03,100.51 -287.07,83.74 -83.04,-16.73 -254.3,-113.09 -359.3,-247.07 -104.96,-134.05 -136.86,-569.62 -136.86,-569.62l-41.27 -598.9c0,0 -130.47,-1679.44 -131.31,-1788.32 -0.83,-108.88 -135.92,-188.9 -135.92,-188.9 0,0 72.13,-196.49 91.18,-204.79 343.43,-149.67 838.81,-12.25 1087.15,-327.44"/>
    <path fill="none" stroke="black" stroke-width="10.58" stroke-miterlimit="22.9256" d="M10510.52 12656.05l117.51 825.83c11.98,84.07 139.01,130.61 261.73,173.03 432.45,149.54 2019.92,262.07 2879.42,11.71 100.08,-29.11 129.63,-158.57 150.01,-212.82l322.78 -859.53c9.47,-25.18 -18.48,-278.9 -282.18,-290.79 -188.76,-8.04 -2043.76,-18.71 -3110.29,2.31 -356.99,7.02 -372.05,117.95 -338.98,350.26z"/>
    <path fill="none" stroke="black" stroke-width="10.58" stroke-miterlimit="22.9256" d="M14325.2 16612.15c10.95,244.31 -8,287.31 -162.02,292.57 -400.26,13.66 -1851.26,-3.36 -1851.26,-3.36"/>
    <path fill="none" stroke="black" stroke-width="10.58" stroke-miterlimit="22.9256" d="M9678.42 12099.22c89.2,140.74 219.55,154.82 425.37,175.93 15.23,1.55 50.65,2.99 103.18,4.25 657.16,15.87 3992.77,9.83 3992.77,9.83 0,0 480.27,49.26 624.35,-161.86"/>
    <path fill="none" stroke="black" stroke-width="10.58" stroke-miterlimit="22.9256" d="M10611.51 12493.7c1238.07,198.27 2243.8,198.03 3519.62,21.12"/>
   </g>
   <g>
    <path fill="none" stroke="black" stroke-width="10.58" stroke-miterlimit="22.9256" d="M22916.61 6716.58l-4076.46 7.23c-472.59,-1161.4 -781.78,-3549.04 -819.5,-4399.58 -5.22,-160.73 -8.17,-441.26 143.79,-481.72 178.77,-47.59 273.92,172.25 338.61,301.16 97.86,195.03 288.27,744.02 465.12,1007.33 487.38,725.62 1625.48,830.01 2520.66,839.99 643.12,7.16 949.13,-11.72 1088.96,2.74 542.87,56.07 649.98,503.55 593.25,1053.85 -56.73,550.31 -124.34,1244.47 -254.43,1669z"/>
    <polygon fill="none" stroke="black" stroke-width="10.58" stroke-miterlimit="22.9256" points="22723.15,6724.94 22432.91,6724.94 22723.15,7772.64 22921.97,7772.64 "/>
    <path fill="none" stroke="black" stroke-width="10.58" stroke-miterlimit="22.9256" d="M19018.47 3220.78c-69.08,-230.8 -359.46,-1043.5 -383.63,-1308.31 -22.86,-250.66 224.44,-382.4 422.08,-147.19 511.24,723.5 503.99,1116.67 867.3,2031.06"/>
    <path fill="none" stroke="black" stroke-width="10.58" stroke-miterlimit="22.9256" d="M18874.29 1645.97c128.49,0 291.86,44.35 508.93,428.58 345.32,611.18 468.58,977.51 704.5,1767.93"/>
    <polygon fill="none" stroke="black" stroke-width="10.58" stroke-miterlimit="22.9256" points="19033.2,6724.94 19323.44,6724.94 19033.2,7772.64 18834.39,7772.64 "/>
   </g>
   <g>
    <path fill="none" stroke="black" stroke-width="10.58" stroke-miterlimit="22.9256" d="M9810.57 6809.29l4955.53 -24.27c0,0 143.11,-4.85 157.9,-266.68 154.03,-2730.21 64.23,-2842.47 -45.08,-4422.87 -12.62,-182.03 -130.8,-208.94 -235.29,-212.06 -151.28,-4.48 -693.16,-8.13 -693.16,-8.13m-3478.13 6.36l-653.29 1.37c0,0 -151.88,-32.43 -164.47,132.61 -11.85,155.63 -112.49,1031.77 -116.34,1934.71 -5.76,1351.53 78.39,2857.1 272.31,2858.97"/>
    <path fill="none" stroke="black" stroke-width="10.58" stroke-miterlimit="22.9256" d="M10881.56 4558.47l-289.3 51.8c0,0 -153.91,48.96 -120.3,-301.63 33.63,-350.6 45.66,-1267.27 32.21,-1411.64 -13.45,-144.36 -34.67,-959.88 -33.63,-1086.21 1.04,-126.32 -26.9,-233.73 127.8,-233.73 154.69,0 2179.15,34.38 2179.15,34.38l955.06 0c0,0 242.12,-55.01 221.94,185.61 -20.17,240.61 0,1801.17 0,1801.17 -18.44,504.71 151.89,1062.19 -128.82,961.63 -176.24,-63.14 -1243.24,-129.79 -1243.24,-129.79 0,0 -840.58,-5.63 -1116.48,20.63 -275.89,26.25 -584.4,107.79 -584.4,107.79z"/>
    <path fill="none" stroke="black" stroke-width="10.58" stroke-miterlimit="22.9256" d="M9874.49 3735.72c368.24,153.88 485.45,446.71 505.29,764.7 6.3,101.32 19.18,637.43 10.71,740.18"/>
    <path fill="none" stroke="black" stroke-width="10.58" stroke-miterlimit="22.9256" d="M10549.2 5979.88c1153.16,9.44 2242.8,22.09 3408.21,9.41 249.28,-13.36 221.13,-14.93 218.45,-200.52 -3.61,-250.48 15.33,-568.07 -11.78,-826.19 -10.14,-189.27 -15.3,-226.89 -166.91,-240.82 -1024.2,-94.14 -2576.05,-94.95 -3419.92,7.07 -139.4,16.83 -153.92,7.76 -168.05,233.38 -19.37,309.8 -45.82,508.24 -0.53,796.71 19.78,126.02 1.57,219.86 140.53,220.96z"/>
    <line fill="none" stroke="black" stroke-width="10.58" stroke-miterlimit="22.9256" x1="10583.38" y1="4865.45" x2="13963.7" y2= "4852.76" />
    <path fill="none" stroke="black" stroke-width="10.58" stroke-miterlimit="22.9256" d="M14705.23 3691.1c-368.24,153.89 -485.51,446.71 -505.29,764.71 -6.29,101.25 -30.89,630.3 -22.43,733.04"/>
    <polygon fill="none" stroke="black" stroke-width="10.58" stroke-miterlimit="22.9256" points="14535.16,6780.37 14244.92,6780.37 14535.16,7828.07 14733.97,7828.07 "/>
    <polygon fill="none" stroke="black" stroke-width="10.58" stroke-miterlimit="22.9256" points="10034.61,6812.53 10324.85,6812.53 10034.61,7860.23 9835.8,7860.23 "/>
   </g>
   <g>
    <line fill="none" stroke="gray" stroke-width="10.58" stroke-miterlimit="22.9256" x1="7409.05" y1="16881.12" x2="9142.55" y2= "16881.12" />
    <line fill="none" stroke="gray" stroke-width="10.58" stroke-miterlimit="22.9256" x1="7423.59" y1="11526.74" x2="9161.32" y2= "11526.74" />
    <line fill="none" stroke="gray" stroke-width="10.58" stroke-miterlimit="22.9256" x1="8060.49" y1="17542.76" x2="8060.49" y2= "10969.04" />
   </g>
   <g>
    <line fill="none" stroke="gray" stroke-width="10.58" stroke-miterlimit="22.9256" x1="9427.54" y1="18993.06" x2="9427.54" y2= "17255.32" />
    <line fill="none" stroke="gray" stroke-width="10.58" stroke-miterlimit="22.9256" x1="15101.78" y1="18988.82" x2="15101.78" y2= "17255.32" />
    <line fill="none" stroke="gray" stroke-width="10.58" stroke-miterlimit="22.9256" x1="15697.97" y1="18337.38" x2="8821.48" y2= "18337.38" />
   </g>
   <g>
    <line fill="none" stroke="gray" stroke-width="10.58" stroke-miterlimit="22.9256" x1="7387.93" y1="7810.91" x2="9121.43" y2= "7810.91" />
    <line fill="none" stroke="gray" stroke-width="10.58" stroke-miterlimit="22.9256" x1="7383.7" y1="1781.09" x2="9121.43" y2= "1781.09" />
    <line fill="none" stroke="gray" stroke-width="10.58" stroke-miterlimit="22.9256" x1="8039.37" y1="8469.58" x2="8039.37" y2= "1189.15" />
   </g>
   <path fill="#666666" fill-rule="nonzero" fill-opacity="0.800000" d="M18690.4 11904.63l0 25.97c35.42,16.53 63.96,42.51 85.6,77.93 21.65,35.42 32.48,74.39 32.48,116.9 0,70.84 -24.41,128.11 -73.21,171.79 -48.81,43.69 -119.65,65.53 -212.53,65.53l-376.65 0 0 -843.03 367.21 0c85.8,0 152.11,20.27 198.94,60.81 46.84,40.54 70.26,91.51 70.26,152.89 0,81.08 -30.7,138.15 -92.1,171.21zm-438.04 -290.46l0 263.3 258.57 0c109.42,0 164.12,-44.87 164.12,-134.61 0,-44.08 -15.74,-76.55 -47.23,-97.41 -31.49,-20.86 -71.24,-31.29 -119.26,-31.29l-256.21 0zm0 654.12l263.3 0c54.31,0 98.79,-11.61 133.42,-34.83 34.64,-23.22 51.96,-61.99 51.96,-116.31 0,-51.16 -17.12,-88.36 -51.37,-111.58 -34.24,-23.22 -78.52,-34.83 -132.83,-34.83l-264.48 0 0 297.54zm710.78 -500.62l100.37 0 0 198.35 164.11 0c71.64,0 126.93,17.32 165.89,51.96 38.96,34.63 58.45,83.04 58.45,145.22 0,62.98 -19.49,111.98 -58.45,147 -38.97,35.03 -94.26,52.54 -165.89,52.54l-264.48 0 0 -595.08zm100.37 283.37l0 224.33 149.94 0c49.6,0 85.02,-9.44 106.27,-28.33 21.26,-18.9 31.88,-46.84 31.88,-83.84 0,-37 -10.62,-64.94 -31.88,-83.83 -21.25,-18.89 -56.67,-28.34 -106.27,-28.34l-149.94 0zm484.09 -283.37l100.36 0 0 595.08 -100.36 0 0 -595.08zm696.63 415.61l100.37 0c-11.81,59.83 -39.56,107.26 -83.25,142.28 -43.69,35.03 -99.38,52.54 -167.07,52.54 -89.73,0 -160.37,-29.32 -211.93,-87.97 -51.56,-58.64 -77.34,-133.62 -77.34,-224.92 0,-92.1 25.58,-167.27 76.75,-225.52 51.16,-58.25 122.01,-87.37 212.52,-87.37 68.49,0 124.18,17.12 167.07,51.36 42.9,34.24 69.47,79.7 79.7,136.38l-100.36 0c-21.25,-66.91 -70.06,-100.37 -146.41,-100.37 -63.76,0 -111.18,21.06 -142.27,63.17 -31.09,42.12 -46.64,95.45 -46.64,159.99 0,65.33 15.75,119.65 47.23,162.93 31.49,43.3 78.72,64.94 141.68,64.94 83.45,0 133.43,-35.81 149.95,-107.45zm292.23 -342.41c52.35,-59.03 123.78,-88.55 214.3,-88.55 90.52,0 161.95,29.52 214.3,88.55 52.34,59.04 78.52,133.82 78.52,224.34 0,90.52 -26.18,165.29 -78.52,224.33 -52.35,59.04 -123.79,88.56 -214.3,88.56 -90.53,0 -161.95,-29.52 -214.3,-88.56 -52.35,-59.04 -78.52,-133.82 -78.52,-224.33 0,-90.53 26.17,-165.3 78.52,-224.34zm71.44 384.33c33.06,43.69 80.68,65.53 142.86,65.53 62.18,0 109.81,-21.84 142.86,-65.53 33.06,-43.69 49.59,-97.02 49.59,-159.98 0,-62.98 -16.53,-116.31 -49.59,-159.98 -33.06,-43.69 -80.69,-65.54 -142.86,-65.54 -62.19,0 -109.81,21.85 -142.86,65.54 -33.07,43.68 -49.6,97.01 -49.6,159.98 0,62.97 16.53,116.3 49.6,159.98zm519.51 -370.16l0 -87.37 512.43 0 0 87.37 -205.44 0 0 507.71 -100.36 0 0 -507.71 -206.63 0zm1023.69 507.71l0 -62.58 -25.98 0c-40.93,51.95 -102.73,77.93 -185.37,77.93 -65.34,0 -117.29,-18.89 -155.85,-56.68 -38.57,-37.78 -57.86,-83.44 -57.86,-136.96 0,-54.32 18.89,-100.76 56.68,-139.33 37.78,-38.58 94.85,-57.86 171.2,-57.86l193.63 0 0 -23.62c0,-37.78 -11.8,-67.89 -35.42,-90.33 -23.61,-22.43 -60.22,-33.65 -109.81,-33.65 -86.59,0 -132.64,28.74 -138.15,86.2l-100.36 0c3.93,-54.32 27.35,-96.82 70.25,-127.52 42.9,-30.7 98.2,-46.05 165.89,-46.05 76.35,0 136.38,17.71 180.05,53.13 43.69,35.42 65.54,86.2 65.54,152.31l0 404.99 -94.46 0zm-186.55 -72.03c49.59,0 92.49,-16.33 128.7,-49 36.21,-32.67 54.31,-72.61 54.31,-119.85l0 -54.31 -178.28 0c-95.25,0 -142.86,37.78 -142.86,113.35 0,33.85 12,60.62 36.01,80.29 24.01,19.68 58.05,29.52 102.14,29.52zm-3426.46 1182l100.37 0c-11.81,59.83 -39.56,107.26 -83.25,142.28 -43.69,35.03 -99.38,52.54 -167.07,52.54 -89.73,0 -160.37,-29.32 -211.93,-87.97 -51.56,-58.64 -77.34,-133.62 -77.34,-224.92 0,-92.1 25.58,-167.27 76.75,-225.52 51.16,-58.25 122.01,-87.37 212.52,-87.37 68.49,0 124.18,17.12 167.07,51.36 42.9,34.24 69.47,79.7 79.7,136.38l-100.36 0c-21.25,-66.91 -70.06,-100.37 -146.41,-100.37 -63.76,0 -111.18,21.06 -142.27,63.17 -31.09,42.12 -46.64,95.45 -46.64,159.99 0,65.33 15.75,119.65 47.23,162.93 31.49,43.3 78.72,64.94 141.68,64.94 83.45,0 133.43,-35.81 149.95,-107.45zm392 179.47l-141.68 0 0 -595.08 98.01 0 0 460.47 25.97 0 260.94 -460.47 146.4 0 0 595.08 -98 0 0 -460.48 -25.98 0 -265.66 460.48zm1113.42 -87.38l109.81 0 0 256.22 -98 0 0 -168.84 -514.79 0 0 168.84 -98 0 0 -256.22 79.11 0c48.8,-103.9 73.2,-218.82 73.2,-344.77l0 -162.93 448.67 0 0 507.7zm-100.36 0l0 -420.33 -255.04 0 0 75.57c0,134.61 -21.64,249.53 -64.94,344.77l319.98 0zm856.02 -245.58l0 34.24 -453.39 0c1.58,71.63 18.5,127.32 50.78,167.07 32.27,39.75 78.71,59.62 139.32,59.62 81.87,0 132.25,-30.7 151.13,-92.1l101.55 0c-10.24,53.53 -37.2,96.83 -80.88,129.89 -43.69,33.06 -100.96,49.59 -171.8,49.59 -90.52,0 -161.36,-29.52 -212.52,-88.56 -51.17,-59.04 -76.75,-135.78 -76.75,-230.24 0,-92.88 25.58,-167.26 76.75,-223.15 51.16,-55.89 121.22,-83.83 210.16,-83.83 84.23,0 149.16,26.56 194.82,79.7 45.65,53.13 69.27,119.06 70.84,197.77zm-268.02 -190.1c-51.16,0 -92.1,13.19 -122.8,39.56 -30.7,26.37 -49.59,60.02 -56.67,100.95l343.59 0c-3.15,-40.14 -19.29,-73.6 -48.41,-100.36 -29.13,-26.76 -67.7,-40.15 -115.72,-40.15zm954.02 523.06l-100.36 0 0 -262.12 -329.42 0 0 262.12 -100.37 0 0 -595.08 100.37 0 0 245.59 329.42 0 0 -245.59 100.36 0 0 595.08zm1029.59 -595.08l296.36 0 0 595.08 -101.55 0 0 -234.96 -180.64 0c-15.75,0 -27.95,-0.39 -36.61,-1.18l-89.74 236.14 -105.08 0 100.36 -258.58c-61.4,-29.12 -92.1,-81.08 -92.1,-155.85 0,-57.46 17.91,-101.94 53.73,-133.42 35.81,-31.49 87.57,-47.23 155.26,-47.23zm194.81 85.01l-184.19 0c-43.29,0 -73.99,8.27 -92.1,24.8 -18.1,16.53 -27.15,40.54 -27.15,72.02 0,30.7 9.05,53.93 27.15,69.67 18.11,15.74 48.81,23.61 92.1,23.61l184.19 0 0 -190.09zm-3062.78 1799.52l-122.8 0 0 -136.97 122.8 0 0 136.97zm205.44 -735.58c55.1,-71.64 128.7,-107.45 220.79,-107.45 92.1,0 165.88,36.01 221.38,108.04 55.5,72.02 83.24,179.27 83.24,321.74 0,142.47 -27.74,249.53 -83.24,321.16 -55.5,71.63 -129.29,107.45 -221.38,107.45 -92.1,0 -165.69,-35.82 -220.79,-107.45 -55.11,-71.63 -82.66,-178.68 -82.66,-321.16 0,-143.25 27.55,-250.7 82.66,-322.33zm70.84 569.69c33.06,59.43 83.05,89.15 149.95,89.15 66.91,0 117.09,-29.72 150.53,-89.15 33.46,-59.43 50.19,-141.87 50.19,-247.36 0,-106.26 -16.73,-189.1 -50.19,-248.54 -33.45,-59.43 -83.63,-89.14 -150.53,-89.14 -66.91,0 -116.9,29.71 -149.95,89.14 -33.06,59.44 -49.59,142.28 -49.59,248.54 0,105.49 16.53,187.93 49.59,247.36zm1347.2 -13.58l100.37 0c-11.81,59.83 -39.56,107.26 -83.25,142.28 -43.69,35.03 -99.38,52.54 -167.07,52.54 -89.73,0 -160.37,-29.32 -211.93,-87.97 -51.56,-58.64 -77.34,-133.62 -77.34,-224.92 0,-92.1 25.58,-167.27 76.75,-225.52 51.16,-58.25 122.01,-87.37 212.52,-87.37 68.49,0 124.18,17.12 167.07,51.36 42.9,34.24 69.47,79.7 79.7,136.38l-100.36 0c-21.25,-66.91 -70.06,-100.37 -146.41,-100.37 -63.76,0 -111.18,21.06 -142.27,63.17 -31.09,42.12 -46.64,95.45 -46.64,159.99 0,65.33 15.75,119.65 47.23,162.93 31.49,43.3 78.72,64.94 141.68,64.94 83.45,0 133.43,-35.81 149.95,-107.45zm250.31 179.47l0 -595.08 159.39 0 146.41 271.56 25.98 0 146.4 -271.56 157.03 0 0 595.08 -98 0 0 -478.19 -25.98 0 -138.15 255.04 -110.99 0 -138.15 -255.04 -25.97 0 0 478.19 -98.01 0zm258.59 -1884.52l0 198.35 175.92 0c71.63,0 126.93,17.32 165.89,51.96 38.96,34.63 58.44,83.04 58.44,145.22 0,62.98 -19.48,111.98 -58.44,147 -38.97,35.03 -94.27,52.54 -165.89,52.54l-276.29 0 0 -595.08 100.37 0zm0 507.7l161.75 0c49.59,0 85.02,-9.44 106.27,-28.33 21.25,-18.9 31.88,-46.84 31.88,-83.84 0,-37 -10.63,-64.94 -31.88,-83.83 -21.25,-18.89 -56.68,-28.34 -106.27,-28.34l-161.75 0 0 224.33zm1341.29 87.38l-122.8 0 0 -136.97 122.8 0 0 136.97zm0 -458.11l-122.8 0 0 -136.97 122.8 0 0 136.97zm-4525.7 1461.83l113.35 0 0 92.1 -113.35 0 0 193.63 -101.55 0 0 -193.63 -408.53 0 0 -118.08 364.84 -514.79 145.23 0 0 540.77zm-401.45 0l301.08 0 0 -423.88 -25.97 0 -275.11 397.91 0 25.98zm661.21 -540.77l482.91 0 0 115.71 -206.62 177.11 0 24.79c73.21,1.58 132.44,24.4 177.69,68.49 45.26,44.08 67.9,105.08 67.9,183 0,84.23 -27.16,150.74 -81.48,199.54 -54.31,48.81 -124.37,73.21 -210.16,73.21 -82.65,0 -150.34,-23.22 -203.08,-69.66 -52.74,-46.45 -81.47,-105.49 -86.2,-177.11l103.91 0c4.72,46.44 24.2,83.83 58.45,112.17 34.24,28.34 76.55,42.51 126.93,42.51 57.46,0 103.12,-16.14 136.97,-48.41 33.84,-32.27 50.77,-76.36 50.77,-132.25 0,-55.1 -16.14,-98.2 -48.41,-129.29 -32.28,-31.09 -78.33,-46.64 -138.15,-46.64 -29.13,0 -53.14,2.36 -72.03,7.09l0 -109.82 201.9 -174.74 0 -25.97 -361.3 0 0 -89.74z"/>
   <path fill="#666666" fill-rule="nonzero" fill-opacity="0.800000" d="M6948.58 15839.8l25.98 0c11.02,-32.28 34.04,-61.79 69.07,-88.56 35.03,-26.76 77.74,-40.14 128.11,-40.14 69.28,0 126.74,27.35 172.39,82.06 45.65,54.71 68.48,126.93 68.48,216.66 0,89.74 -22.83,161.95 -68.48,216.66 -45.66,54.71 -103.12,82.06 -172.39,82.06 -49.59,0 -92.09,-13.38 -127.52,-40.15 -35.42,-26.76 -58.64,-56.28 -69.66,-88.55l-25.98 0c-11.02,25.97 -31.88,49.79 -62.58,71.43 -30.7,21.65 -67.7,32.47 -110.99,32.47 -65.34,0 -118.47,-25.58 -159.39,-76.74 -40.94,-51.17 -61.4,-116.9 -61.4,-197.18 0,-80.29 20.46,-146.01 61.4,-197.18 40.93,-51.16 94.06,-76.75 159.39,-76.75 41.72,0 78.32,11.02 109.81,33.06 31.49,22.04 52.74,45.66 63.76,70.85zm-268.61 46.64c-24.01,32.67 -36.01,73.8 -36.01,123.39 0,49.59 12,90.72 36.01,123.39 24.01,32.67 57.27,49 99.77,49 42.51,0 75.96,-16.33 100.37,-49 24.4,-32.67 36.6,-73.8 36.6,-123.39 0,-49.59 -12.2,-90.72 -36.6,-123.39 -24.41,-32.67 -57.86,-49 -100.37,-49 -42.5,0 -75.76,16.33 -99.77,49zm597.44 266.84c28.73,-35.03 43.1,-82.85 43.1,-143.45 0,-60.61 -14.37,-108.43 -43.1,-143.45 -28.73,-35.03 -67.1,-52.55 -115.12,-52.55 -48.81,0 -86.98,17.32 -114.53,51.96 -27.56,34.63 -41.33,82.65 -41.33,144.04 0,61.4 13.77,109.42 41.33,144.04 27.55,34.64 65.72,51.95 114.53,51.95 48.02,0 86.39,-17.51 115.12,-52.54zm-165.88 -1060.87l0 -113.35 92.1 0 0 113.35 193.63 0 0 101.55 -193.63 0 0 408.53 -118.08 0 -514.79 -364.84 0 -145.23 540.77 0zm0 401.45l0 -301.08 -423.88 0 0 25.97 397.91 275.11 25.98 0zm285.73 -781.64l0 122.8 -136.97 0 0 -122.8 136.97 0zm-735.58 -205.44c-71.64,-55.1 -107.45,-128.7 -107.45,-220.79 0,-92.1 36.01,-165.88 108.04,-221.38 72.02,-55.5 179.27,-83.24 321.74,-83.24 142.47,0 249.53,27.74 321.16,83.24 71.63,55.5 107.45,129.29 107.45,221.38 0,92.1 -35.82,165.69 -107.45,220.79 -71.63,55.11 -178.68,82.66 -321.16,82.66 -143.25,0 -250.7,-27.55 -322.33,-82.66zm569.69 -70.84c59.43,-33.06 89.15,-83.05 89.15,-149.95 0,-66.91 -29.72,-117.09 -89.15,-150.53 -59.43,-33.46 -141.87,-50.19 -247.36,-50.19 -106.26,0 -189.1,16.73 -248.54,50.19 -59.43,33.45 -89.14,83.63 -89.14,150.53 0,66.91 29.71,116.9 89.14,149.95 59.44,33.06 142.28,49.59 248.54,49.59 105.49,0 187.93,-16.53 247.36,-49.59zm-13.58 -1347.2l0 -100.37c59.83,11.81 107.26,39.56 142.28,83.25 35.03,43.69 52.54,99.38 52.54,167.07 0,89.73 -29.32,160.37 -87.97,211.93 -58.64,51.56 -133.62,77.34 -224.92,77.34 -92.1,0 -167.27,-25.58 -225.52,-76.75 -58.25,-51.16 -87.37,-122.01 -87.37,-212.52 0,-68.49 17.12,-124.18 51.36,-167.07 34.24,-42.9 79.7,-69.47 136.38,-79.7l0 100.36c-66.91,21.25 -100.37,70.06 -100.37,146.41 0,63.76 21.06,111.18 63.17,142.27 42.12,31.09 95.45,46.64 159.99,46.64 65.33,0 119.65,-15.75 162.93,-47.23 43.3,-31.49 64.94,-78.72 64.94,-141.68 0,-83.45 -35.81,-133.43 -107.45,-149.95zm179.47 -250.31l-595.08 0 0 -159.39 271.56 -146.41 0 -25.98 -271.56 -146.4 0 -157.03 595.08 0 0 98 -478.19 0 0 25.98 255.04 138.15 0 110.99 -255.04 138.15 0 25.97 478.19 0 0 98.01z"/>
   <path fill="#666666" fill-rule="nonzero" fill-opacity="0.800000" d="M7068.08 6594.52c0,75.57 -25.38,138.54 -76.16,188.91 -50.77,50.38 -115.12,75.57 -193.04,75.57 -81.08,0 -148.77,-25.39 -203.08,-76.16 -54.32,-50.77 -81.47,-119.06 -81.47,-204.85 0,-93.68 32.27,-167.66 96.82,-221.98 64.55,-54.31 167.66,-81.47 309.35,-81.47 133.03,0 241.65,26.57 325.88,79.7 84.23,53.14 126.34,131.26 126.34,234.37 0,68.49 -18.3,124.57 -54.91,168.25 -36.6,43.69 -84.03,70.26 -142.27,79.7l0 -102.72c70.06,-20.47 105.09,-68.88 105.09,-145.23 0,-65.33 -25.98,-116.5 -77.93,-153.49 -51.95,-36.99 -123.59,-57.07 -214.89,-60.21l0 25.97c21.26,17.32 39.95,42.71 56.09,76.16 16.14,33.46 24.2,72.62 24.2,117.49zm-410.89 -147.59c-33.85,34.64 -50.77,77.93 -50.77,129.89 0,51.95 16.53,94.65 49.59,128.11 33.06,33.45 79.11,50.18 138.15,50.18 59.04,0 104.3,-16.92 135.78,-50.77 31.49,-33.85 47.24,-77.15 47.24,-129.89 0,-51.95 -16.14,-94.85 -48.42,-128.7 -32.27,-33.85 -76.75,-50.77 -133.42,-50.77 -58.25,0 -104.3,17.32 -138.15,51.95zm101.54 -403.81l0 103.91c-79.5,-4.72 -140.1,-32.47 -181.82,-83.24 -41.72,-50.78 -62.58,-114.73 -62.58,-191.87 0,-80.29 21.84,-145.02 65.53,-194.22 43.69,-49.2 105.68,-73.8 185.96,-73.8 97.61,0 197.18,61.01 298.72,183.01l174.74 207.8 25.98 0 0 -416.8 92.1 0 0 567.93 -116.9 0 -99.18 -121.62c-60.61,-75.57 -113.75,-138.15 -159.39,-187.73 -16.53,-18.89 -30.7,-34.05 -42.51,-45.46 -11.81,-11.41 -27.35,-24.4 -46.64,-38.96 -19.28,-14.57 -39.55,-25.59 -60.81,-33.07 -21.25,-7.47 -43.29,-11.21 -66.12,-11.21 -51.17,0 -90.53,14.95 -118.08,44.87 -27.55,29.91 -41.32,70.45 -41.32,121.61 0,48.02 12.79,86.79 38.37,116.31 25.58,29.52 63.57,47.03 113.94,52.54zm598.63 -734.4l0 122.8 -136.97 0 0 -122.8 136.97 0zm-735.58 -205.44c-71.64,-55.1 -107.45,-128.7 -107.45,-220.79 0,-92.1 36.01,-165.88 108.04,-221.38 72.02,-55.5 179.27,-83.24 321.74,-83.24 142.47,0 249.53,27.74 321.16,83.24 71.63,55.5 107.45,129.29 107.45,221.38 0,92.1 -35.82,165.69 -107.45,220.79 -71.63,55.11 -178.68,82.66 -321.16,82.66 -143.25,0 -250.7,-27.55 -322.33,-82.66zm569.69 -70.84c59.43,-33.06 89.15,-83.05 89.15,-149.95 0,-66.91 -29.72,-117.09 -89.15,-150.53 -59.43,-33.46 -141.87,-50.19 -247.36,-50.19 -106.26,0 -189.1,16.73 -248.54,50.19 -59.43,33.45 -89.14,83.63 -89.14,150.53 0,66.91 29.71,116.9 89.14,149.95 59.44,33.06 142.28,49.59 248.54,49.59 105.49,0 187.93,-16.53 247.36,-49.59zm-13.58 -1347.2l0 -100.37c59.83,11.81 107.26,39.56 142.28,83.25 35.03,43.69 52.54,99.38 52.54,167.07 0,89.73 -29.32,160.37 -87.97,211.93 -58.64,51.56 -133.62,77.34 -224.92,77.34 -92.1,0 -167.27,-25.58 -225.52,-76.75 -58.25,-51.16 -87.37,-122.01 -87.37,-212.52 0,-68.49 17.12,-124.18 51.36,-167.07 34.24,-42.9 79.7,-69.47 136.38,-79.7l0 100.36c-66.91,21.25 -100.37,70.06 -100.37,146.41 0,63.76 21.06,111.18 63.17,142.27 42.12,31.09 95.45,46.64 159.99,46.64 65.33,0 119.65,-15.75 162.93,-47.23 43.3,-31.49 64.94,-78.72 64.94,-141.68 0,-83.45 -35.81,-133.43 -107.45,-149.95zm179.47 -250.31l-595.08 0 0 -159.39 271.56 -146.41 0 -25.98 -271.56 -146.4 0 -157.03 595.08 0 0 98 -478.19 0 0 25.98 255.04 138.15 0 110.99 -255.04 138.15 0 25.97 478.19 0 0 98.01z"/>
   <path fill="#666666" fill-rule="nonzero" fill-opacity="0.800000" d="M10686.99 19346.07l0 25.98c32.28,11.02 61.79,34.04 88.56,69.07 26.76,35.03 40.14,77.74 40.14,128.11 0,69.28 -27.35,126.74 -82.06,172.39 -54.71,45.65 -126.93,68.48 -216.66,68.48 -89.74,0 -161.95,-22.83 -216.66,-68.48 -54.71,-45.66 -82.06,-103.12 -82.06,-172.39 0,-49.59 13.38,-92.09 40.15,-127.52 26.76,-35.42 56.28,-58.64 88.55,-69.66l0 -25.98c-25.97,-11.02 -49.79,-31.88 -71.43,-62.58 -21.65,-30.7 -32.47,-67.7 -32.47,-110.99 0,-65.34 25.58,-118.47 76.74,-159.39 51.17,-40.94 116.9,-61.4 197.18,-61.4 80.29,0 146.01,20.46 197.18,61.4 51.16,40.93 76.75,94.06 76.75,159.39 0,41.72 -11.02,78.32 -33.06,109.81 -22.04,31.49 -45.66,52.74 -70.85,63.76zm-46.64 -268.61c-32.67,-24.01 -73.8,-36.01 -123.39,-36.01 -49.59,0 -90.72,12 -123.39,36.01 -32.67,24.01 -49,57.27 -49,99.77 0,42.51 16.33,75.96 49,100.37 32.67,24.4 73.8,36.6 123.39,36.6 49.59,0 90.72,-12.2 123.39,-36.6 32.67,-24.41 49,-57.86 49,-100.37 0,-42.5 -16.33,-75.76 -49,-99.77zm-266.84 597.44c35.03,28.73 82.85,43.1 143.45,43.1 60.61,0 108.43,-14.37 143.45,-43.1 35.03,-28.73 52.55,-67.1 52.55,-115.12 0,-48.81 -17.32,-86.98 -51.96,-114.53 -34.63,-27.56 -82.65,-41.33 -144.04,-41.33 -61.4,0 -109.42,13.77 -144.04,41.33 -34.64,27.55 -51.95,65.72 -51.95,114.53 0,48.02 17.51,86.39 52.54,115.12zm889.67 -418.57c75.57,0 138.54,25.39 188.91,76.16 50.38,50.78 75.57,115.13 75.57,193.05 0,81.08 -25.39,148.76 -76.16,203.08 -50.77,54.31 -119.06,81.47 -204.85,81.47 -93.68,0 -167.66,-32.27 -221.98,-96.82 -54.31,-64.55 -81.47,-167.66 -81.47,-309.35 0,-133.03 26.57,-241.65 79.7,-325.88 53.14,-84.23 131.26,-126.34 234.37,-126.34 68.49,0 124.57,18.3 168.25,54.9 43.69,36.61 70.26,84.03 79.7,142.27l-102.72 0c-20.47,-70.05 -68.88,-105.08 -145.23,-105.08 -65.33,0 -116.5,25.97 -153.48,77.93 -37,51.95 -57.07,123.58 -60.22,214.89l25.97 0c17.32,-21.26 42.71,-39.95 76.16,-56.09 33.46,-16.14 72.62,-24.21 117.49,-24.21zm-147.59 410.9c34.64,33.85 77.93,50.77 129.89,50.77 51.95,0 94.65,-16.53 128.11,-49.59 33.45,-33.06 50.18,-79.11 50.18,-138.15 0,-59.04 -16.92,-104.3 -50.77,-135.79 -33.85,-31.48 -77.14,-47.23 -129.89,-47.23 -51.95,0 -94.85,16.14 -128.7,48.41 -33.85,32.28 -50.77,76.75 -50.77,133.43 0,58.25 17.32,104.3 51.95,138.15zm676.56 127.52l-122.8 0 0 -136.97 122.8 0 0 136.97zm205.44 -735.58c55.1,-71.64 128.7,-107.45 220.79,-107.45 92.1,0 165.88,36.01 221.38,108.04 55.5,72.02 83.24,179.27 83.24,321.74 0,142.47 -27.74,249.53 -83.24,321.16 -55.5,71.63 -129.29,107.45 -221.38,107.45 -92.1,0 -165.69,-35.82 -220.79,-107.45 -55.11,-71.63 -82.66,-178.68 -82.66,-321.16 0,-143.25 27.55,-250.7 82.66,-322.33zm70.84 569.69c33.06,59.43 83.05,89.15 149.95,89.15 66.91,0 117.09,-29.72 150.53,-89.15 33.46,-59.43 50.19,-141.87 50.19,-247.36 0,-106.26 -16.73,-189.1 -50.19,-248.54 -33.45,-59.43 -83.63,-89.14 -150.53,-89.14 -66.91,0 -116.9,29.71 -149.95,89.14 -33.06,59.44 -49.59,142.28 -49.59,248.54 0,105.49 16.53,187.93 49.59,247.36zm1347.2 -13.58l100.37 0c-11.81,59.83 -39.56,107.26 -83.25,142.28 -43.69,35.03 -99.38,52.54 -167.07,52.54 -89.73,0 -160.37,-29.32 -211.93,-87.97 -51.56,-58.64 -77.34,-133.62 -77.34,-224.92 0,-92.1 25.58,-167.27 76.75,-225.52 51.16,-58.25 122.01,-87.37 212.52,-87.37 68.49,0 124.18,17.12 167.07,51.36 42.9,34.24 69.47,79.7 79.7,136.38l-100.36 0c-21.25,-66.91 -70.06,-100.37 -146.41,-100.37 -63.76,0 -111.18,21.06 -142.27,63.17 -31.09,42.12 -46.64,95.45 -46.64,159.99 0,65.33 15.75,119.65 47.23,162.93 31.49,43.3 78.72,64.94 141.68,64.94 83.45,0 133.43,-35.81 149.95,-107.45zm250.31 179.47l0 -595.08 159.39 0 146.41 271.56 25.98 0 146.4 -271.56 157.03 0 0 595.08 -98 0 0 -478.19 -25.98 0 -138.15 255.04 -110.99 0 -138.15 -255.04 -25.97 0 0 478.19 -98.01 0z"/>
  </g>
 </g>
</svg>
