<?xml version="1.0" encoding="UTF-8"?>
<!DOCTYPE svg PUBLIC "-//W3C//DTD SVG 1.1//EN" "http://www.w3.org/Graphics/SVG/1.1/DTD/svg11.dtd">
<!-- Creator: CorelDRAW 2021.5 -->
<svg xmlns="http://www.w3.org/2000/svg" xml:space="preserve" width="297mm" height="210mm" version="1.1" shape-rendering="geometricPrecision" text-rendering="geometricPrecision" image-rendering="optimizeQuality" fill-rule="evenodd" clip-rule="evenodd"
viewBox="0 0 29698.94 20999.25"
 xmlns:xlink="http://www.w3.org/1999/xlink"
 xmlns:xodm="http://www.corel.com/coreldraw/odm/2003">
 <g id="Тени">
  <metadata id="CorelCorpID_0Corel-Layer"/>
  <rect fill="none" width="29698.94" height="20999.25"/>
  <g id="_2238318968352">
   <path fill="black" fill-opacity="0.101961" d="M20014.71 2589.55c361.1,1570.38 458.15,3841.68 2380.71,3936.59 505.7,24.95 1423.55,6.23 1798.17,12.48 374.63,6.23 731.99,-112.14 731.99,-112.14l52.11 -129.43 -134.78 651.32 -4019.35 7.11c0,0 -77.88,-252.72 -203.88,-606.73 -125.99,-354 -275.12,-1117.33 -321.86,-1300.81 -46.73,-183.48 -183.24,-1370.82 -183.24,-1370.82l-99.87 -1087.57z"/>
   <path fill="black" fill-opacity="0.101961" d="M8024.12 3913.11c0,0 230.91,127.72 293.78,211.96 62.87,84.26 127.64,258.52 145.23,339.61 17.59,81.09 37.42,490.63 37.42,490.63 0,0 341.13,-81.23 504.12,-95.48 162.98,-14.26 1236.46,-57.16 1481.23,-44.39 244.78,12.77 1424.84,34.35 1515.9,63.56 91.04,29.21 238.36,12.31 272.84,234.34 38.29,-86.53 -34.35,-231.6 219.02,-242.33l1917.3 -81.08c0,0 814.95,44 1074.21,61.21 259.26,17.23 332.81,103.37 326.04,31.73 -6.76,-71.66 192.7,49.13 189.06,-0.17 -3.63,-49.3 -5.31,-286.58 25.09,-390.54 30.36,-103.95 80.65,-260.1 163.34,-350.07 82.67,-89.96 271.7,-218.7 271.7,-218.7 0,0 -466.56,5.75 -523.49,-279.01 -97.72,-488.58 -118.61,-716.31 -223.21,-1329.76 0,0 -8.89,1553.13 11.58,1726.09 14.89,126.11 92.51,494.69 31.61,654.81 -22.6,59.53 -122.4,52.71 -168.12,47.99 -957.7,-99.08 -1994.9,-41.32 -3220.74,83.53 -84.78,8.6 -252.56,14.85 -335.43,4.45 -1029.02,-129.21 -2113.74,-158.96 -2168.01,-157.67 -436.88,10.56 -969.56,113.06 -1095.97,62.23 -82.18,-33.02 -61.68,-237.99 -70.59,-299.67 -25.77,-177.81 11.55,-565.7 11.55,-801.62 0,-235.91 15.96,-1251.19 15.96,-1251.19 -27.35,260.21 -82.23,819.67 -227.56,1205.38 -79.96,212.2 -214.3,333.97 -473.86,324.17z"/>
   <path fill="black" fill-opacity="0.101961" d="M12369.59 16412.46c-98.25,16.37 -129.73,-398.68 -95.94,-731.72 33.83,-333.07 -130.88,-1991.06 -151.14,-2143.72 -20.26,-152.65 -54.59,-265.71 32.54,-353.27 87.12,-87.55 75.84,-184.24 75.84,-184.24 0,0 -46.77,-106.56 50.59,-317.33 49.67,406.31 151.96,522.86 151.96,522.86 0,0 356.49,93.62 709.88,136.46 353.41,42.83 1654.94,5.67 1986.38,-56.73 124.24,-23.37 507.61,-85.44 550.12,-123.59 80.58,-72.31 32.13,-419.54 95.53,-493.19 101.41,-117.92 260.9,-412.72 260.9,-412.72 0,0 -151.37,382.42 -98.44,462.94 52.94,80.55 330.44,77.29 330.44,77.29 0,0 -231.1,215.68 -283.09,373.76 -85.44,259.88 10.74,1789.33 67.67,2400.89 20.25,218.1 101.47,656.43 239.64,748.09 138.18,91.64 -277.79,-200.01 -277.79,-200.01 -389.22,-288.37 -43.73,-2151.78 -645.1,-2421.61 -268.33,-120.4 -2553.43,-251.7 -2798.66,94.34 -179.74,253.58 -188.2,1491.86 -202.39,1826.19 -14.22,334.33 -69.3,707.73 300.24,827.98l-299.18 -32.67z"/>
   <path fill="black" fill-opacity="0.101961" d="M8188.14 16327.66c0,0 144.18,-286.75 177.98,-619.82 33.82,-333.09 128.53,-2033.14 108.24,-2185.79 -20.3,-152.67 -67.65,-457.98 -148.8,-534.32 -81.18,-76.34 -230.24,-206.72 -230.24,-206.72 0,0 329.02,105.25 426.4,-105.53 97.39,-210.78 93,-546.37 93,-546.37 0,0 30.46,337.9 67.98,612.3 31.42,229.65 5.35,389.15 122.4,430.63 102.31,36.23 599.79,132.09 1042.52,165.23 668.77,50.09 1413.95,36.66 1613.34,-0.9 331.46,-62.4 635.62,-90.26 737.09,-208.19 101.48,-117.96 93.2,-828.06 93.2,-828.06 0,0 -21.02,412.32 31.92,492.84 52.93,80.51 11.31,174.96 11.31,174.96 0,0 54.53,28.31 2.58,186.35 -85.41,259.87 -120.29,1914.89 -63.4,2526.46 20.29,218.06 33.37,345.85 -15.28,552.86 -15.77,67.22 -73.92,163.81 -152.75,189.35 -164.05,53.1 -399.34,-18.28 -399.34,-18.28 145.59,0.07 306.13,31.49 383.14,-171.53 46.72,-123.37 100.25,-295.85 95.2,-606.65 -11.39,-700.28 -12.9,-1770.46 -354,-1950.34 -260.04,-137.13 -2662.62,-246.22 -2907.85,99.83 -179.75,253.58 -279.29,1695.94 -333.41,1897.14 -54.12,201.24 -284.1,603.71 -284.1,603.71l-117.13 50.83z"/>
   <g>
    <path fill="none" stroke="black" stroke-width="10.58" stroke-miterlimit="22.9256" d="M12134.03 11162.23c-940.68,38.05 -3133.51,-20.59 -4019.32,55.11 -315.02,26.93 -458.83,152.46 -471.44,400.04 -64.19,1257.89 -94.32,3639.54 67.69,4723.08 12.97,86.69 201.13,99.11 283.05,82.57 81.87,-16.5 250.73,-111.51 354.26,-243.64 103.49,-132.14 134.91,-561.6 134.91,-561.6l40.72 -590.52c0,0 128.65,-1655.91 129.47,-1763.29 0.79,-107.36 77.75,-175.92 77.75,-175.92 0,0 -7.49,-202.36 -54.38,-218.86 -348.46,-122.61 -806.34,-5.45 -1051.17,-316.25"/>
    <path fill="none" stroke="black" stroke-width="10.58" stroke-miterlimit="22.9256" d="M8367.5 16135.48c-12.9,287.55 29.48,284.64 205.2,288.84 382.76,9.13 2757.82,-15.91 3482.37,6.87 106.76,3.37 236.65,-134.58 210.89,-322.04"/>
    <path fill="none" stroke="black" stroke-width="10.58" stroke-miterlimit="22.9256" d="M12134.03 11162.23c799.24,-4.36 3167.54,10.39 4172.6,96.3 315.06,26.89 458.84,152.49 471.48,400.03 63.26,1239.22 92.37,3563.97 -67.72,4634.61 -12.97,86.73 -201.14,99.1 -283.05,82.6 -81.88,-16.53 -250.74,-111.51 -354.23,-243.64 -103.49,-132.14 -134.95,-561.61 -134.95,-561.61l-40.69 -590.51c0,0 -128.67,-1655.94 -129.46,-1763.29 -0.83,-107.39 -44.29,-165.79 -44.29,-165.79 0,0 7.46,-202.36 54.39,-218.86 348.42,-122.6 772.83,-15.61 1017.7,-326.38"/>
    <path fill="none" stroke="black" stroke-width="10.58" stroke-miterlimit="22.9256" d="M8611.64 12232.17l121.81 872.93c11.59,82.98 80.92,55.54 199.61,97.4 418.09,147.47 2320.15,272.95 3151.11,26.09 96.78,-28.74 140.1,-152.63 145.05,-209.82l72.05 -834.6c2.3,-26.55 -17.87,-275 -272.82,-286.7 -182.47,-7.94 -2057.96,-31.39 -3089.1,-10.62 -345.13,6.94 -359.67,116.23 -327.71,345.33z"/>
    <path fill="none" stroke="black" stroke-width="10.58" stroke-miterlimit="22.9256" d="M16045.1 16086.19c10.79,240.9 0.86,323.28 -151.01,328.42 -327.3,11.16 -2509.3,64.89 -3396.95,24.23 -121.75,-5.58 -232.82,-38.94 -222.42,-250.31 2.57,-52.74 -45.22,-3098.1 -45.48,-3169.75"/>
    <path fill="none" stroke="black" stroke-width="10.58" stroke-miterlimit="22.9256" d="M7804.65 11699.65c148.08,138.79 364.52,152.71 706.25,173.47 25.21,1.53 84.18,2.95 171.3,4.19 1091.1,15.59 6629.31,9.69 6629.31,9.69 0,0 797.4,48.58 1036.61,-159.59"/>
    <path fill="none" stroke="black" stroke-width="10.58" stroke-miterlimit="22.9256" d="M8685.35 12271.21c1220.73,195.48 2212.37,195.24 3470.32,20.81"/>
    <path fill="none" stroke="black" stroke-width="10.58" stroke-miterlimit="22.9256" d="M15834.22 12231.51l-117.72 872.93c-11.19,82.97 -78.22,55.54 -192.92,97.39 -404.1,147.47 -2242.53,272.95 -3045.66,26.1 -93.52,-28.7 -136.52,-152.55 -140.18,-209.8l-56.47 -872.28c-1.68,-26.57 4.1,-237.34 250.51,-249.05 176.39,-7.93 1989.08,-31.39 2985.7,-10.6 333.6,6.93 347.66,116.24 316.74,345.32z"/>
    <path fill="none" stroke="black" stroke-width="10.58" stroke-miterlimit="22.9256" d="M15772.71 12295.33c-1179.86,195.49 -2138.31,195.25 -3354.16,20.82"/>
   </g>
   <g>
    <path fill="none" stroke="black" stroke-width="10.58" stroke-miterlimit="22.9256" d="M24842.9 6948.34l-4019.35 7.13c-465.97,-1145.12 -770.83,-3499.32 -808.02,-4337.94 -5.14,-158.48 -8.06,-435.08 141.78,-474.97 176.26,-46.92 270.08,169.84 333.86,296.94 96.49,192.29 284.23,733.6 458.6,993.22 480.55,715.44 1602.71,818.38 2485.34,828.21 634.11,7.07 935.84,-11.55 1073.71,2.71 535.27,55.28 640.88,496.49 584.93,1039.09 -55.93,542.59 -122.59,1227.03 -250.86,1645.6z"/>
    <polygon fill="none" stroke="black" stroke-width="10.58" stroke-miterlimit="22.9256" points="24652.16,6956.59 24365.98,6956.59 24652.16,7989.61 24848.18,7989.61 "/>
    <path fill="none" stroke="black" stroke-width="10.58" stroke-miterlimit="22.9256" d="M20999.38 3501.53c-68.11,-227.57 -354.43,-1028.88 -378.26,-1289.98 -22.53,-247.15 221.3,-377.05 416.18,-145.14 504.08,713.37 496.92,1101.03 855.15,2002.61"/>
    <path fill="none" stroke="black" stroke-width="10.58" stroke-miterlimit="22.9256" d="M20857.22 1948.78c126.69,0 287.77,43.73 501.8,422.58 340.48,602.61 462.01,963.81 694.64,1743.15"/>
    <polygon fill="none" stroke="black" stroke-width="10.58" stroke-miterlimit="22.9256" points="21013.9,6956.59 21300.08,6956.59 21013.9,7989.61 20817.87,7989.61 "/>
   </g>
   <g>
    <path fill="none" stroke="black" stroke-width="10.58" stroke-miterlimit="22.9256" d="M7934.96 6949.14l8647.95 -0.57c0,0 141.14,-4.75 155.69,-262.94 151.87,-2691.93 63.33,-2802.65 -44.45,-4360.9 -12.41,-179.49 -128.94,-206.05 -231.99,-209.09 -149.13,-4.42 -744.03,-8.48 -744.03,-8.48m-6990.66 -13.76l-702.54 -1.36c-172.59,-0.33 -232.46,81.22 -250.77,208.4 -38.68,268.86 -104.35,1039.68 -107.72,1829.78 -5.68,1332.6 77.29,2817.07 268.52,2818.92"/>
    <path fill="none" stroke="black" stroke-width="10.58" stroke-miterlimit="22.9256" d="M11747.37 4780.42l285.24 51.08c0,0 151.76,48.27 118.62,-297.42 -33.16,-345.68 -45.02,-1249.52 -31.76,-1391.86 13.26,-142.34 34.18,-946.43 33.16,-1070.98 -1.03,-124.55 26.53,-230.46 -126.01,-230.46 -152.52,0 -2148.62,33.9 -2148.62,33.9l-941.68 0c0,0 -238.73,-54.24 -218.83,183.01 19.89,237.24 0,1775.93 0,1775.93 18.19,497.64 -125.71,969.45 164.05,919.79 647.2,-110.92 1547.36,-90.07 2208.78,-45.5 272.02,25.88 657.05,72.52 657.05,72.52z"/>
    <path fill="none" stroke="black" stroke-width="10.58" stroke-miterlimit="22.9256" d="M16504.14 3903.68c-363.08,151.73 -478.64,440.45 -498.21,753.99 -6.21,99.89 -18.91,628.5 -10.56,729.8"/>
    <path fill="none" stroke="black" stroke-width="10.58" stroke-miterlimit="22.9256" d="M15838.87 6116.4c-1137,9.27 -2214.67,21.78 -3363.75,9.27 -245.79,-13.17 -218.03,-14.72 -215.4,-197.7 3.57,-246.97 -15.11,-560.12 11.62,-814.62 10,-186.62 15.09,-223.7 164.57,-237.44 1009.85,-92.82 2543.26,-93.61 3375.31,6.97 137.44,16.61 151.76,7.65 165.69,230.1 19.11,305.46 45.18,501.12 0.52,785.55 -19.5,124.25 -1.55,216.75 -138.57,217.87z"/>
    <line fill="none" stroke="black" stroke-width="10.58" stroke-miterlimit="22.9256" x1="15805.19" y1="5017.58" x2="12472.21" y2= "5005.07" />
    <path fill="none" stroke="black" stroke-width="10.58" stroke-miterlimit="22.9256" d="M12691.31 4776.21l-285.25 51.05c0,0 -151.77,48.29 -118.62,-297.4 33.17,-345.68 45.02,-1249.5 31.76,-1391.86 -13.27,-142.33 -34.2,-946.43 -33.17,-1070.97 1.05,-124.55 -26.5,-230.48 126.03,-230.48 152.53,0 2148.6,33.9 2148.6,33.9l895.51 0c90.49,7.39 284.86,-54.22 264.99,183.01 -19.86,237.24 0,1775.94 0,1775.94 -18.18,497.64 191.11,965.66 -99.17,919 -263.11,-42.31 -1133.08,-74.25 -1260.1,-73.69 -572.89,2.51 -1088.66,48.18 -1670.59,101.51z"/>
    <polygon fill="none" stroke="black" stroke-width="10.58" stroke-miterlimit="22.9256" points="16444.63,6962.17 16158.46,6962.17 16444.63,7995.19 16640.67,7995.19 "/>
    <polygon fill="none" stroke="black" stroke-width="10.58" stroke-miterlimit="22.9256" points="8070.49,6962.73 8356.67,6962.73 8070.49,7995.75 7874.47,7995.75 "/>
    <path fill="none" stroke="black" stroke-width="10.58" stroke-miterlimit="22.9256" d="M7993.13 3911.79c363.08,151.74 478.65,440.46 498.22,754 6.2,99.89 18.91,628.5 10.55,729.8"/>
    <path fill="none" stroke="black" stroke-width="10.58" stroke-miterlimit="22.9256" d="M8658.4 6124.52c1137,9.23 2227.88,21.78 3376.96,9.27 245.79,-13.17 218.03,-14.73 215.39,-197.71 -3.55,-246.96 15.12,-560.11 -11.61,-814.61 -10,-186.62 -15.1,-223.71 -164.57,-237.44 -1009.85,-92.8 -2556.48,-93.59 -3388.52,6.96 -137.43,16.61 -151.76,7.66 -165.69,230.11 -19.1,305.46 -45.18,501.12 -0.52,785.55 19.5,124.25 1.58,216.76 138.57,217.87z"/>
    <line fill="none" stroke="black" stroke-width="10.58" stroke-miterlimit="22.9256" x1="8692.09" y1="5025.7" x2="12025.06" y2= "5013.19" />
   </g>
   <g>
    <line fill="none" stroke="gray" stroke-width="10.58" stroke-miterlimit="22.9256" x1="5434.63" y1="16506.92" x2="7143.85" y2= "16506.92" />
    <line fill="none" stroke="gray" stroke-width="10.58" stroke-miterlimit="22.9256" x1="5448.96" y1="11227.56" x2="7162.35" y2= "11227.56" />
    <line fill="none" stroke="gray" stroke-width="10.58" stroke-miterlimit="22.9256" x1="6076.94" y1="17159.29" x2="6076.94" y2= "10677.67" />
   </g>
   <g>
    <line fill="none" stroke="gray" stroke-width="10.58" stroke-miterlimit="22.9256" x1="5453.14" y1="7983.96" x2="7162.35" y2= "7983.96" />
    <line fill="none" stroke="gray" stroke-width="10.58" stroke-miterlimit="22.9256" x1="5448.96" y1="2038.61" x2="7162.35" y2= "2038.61" />
    <line fill="none" stroke="gray" stroke-width="10.58" stroke-miterlimit="22.9256" x1="6095.45" y1="8633.39" x2="6095.45" y2= "1454.97" />
   </g>
   <g>
    <line fill="none" stroke="gray" stroke-width="10.58" stroke-miterlimit="22.9256" x1="7550.18" y1="18699.09" x2="7550.18" y2= "16985.7" />
    <line fill="none" stroke="gray" stroke-width="10.58" stroke-miterlimit="22.9256" x1="16846.63" y1="18694.92" x2="16846.63" y2= "16985.7" />
    <line fill="none" stroke="gray" stroke-width="10.58" stroke-miterlimit="22.9256" x1="17434.47" y1="18052.61" x2="6897.56" y2= "18052.61" />
   </g>
   <path fill="#666666" fill-rule="nonzero" fill-opacity="0.800000" d="M9862.65 19529.15l0 -90.81 193.25 0 0 -617.02 -23.28 0 -171.14 115.26 0 -107.11 169.97 -115.25 126.9 0 0 724.11 178.12 0 0 90.81 -473.82 0zm1066.39 -281.73l111.76 0 0 90.81 -111.76 0 0 190.92 -100.13 0 0 -190.92 -402.81 0 0 -116.42 359.74 -507.58 143.19 0 0 533.19zm-395.83 0l296.87 0 0 -417.95 -25.61 0 -271.26 392.34 0 25.61zm929.02 -266.6c79.16,0 142.6,26 190.34,78.01 47.73,52 71.6,116.81 71.6,194.41 0,87.7 -25.81,158.13 -77.42,211.3 -51.62,53.16 -118.95,79.74 -201.99,79.74 -86.15,0 -153.86,-22.5 -203.14,-67.52 -49.29,-45.02 -76.26,-103.62 -80.92,-175.79l101.29 0c6.21,49.68 24.84,87.51 55.88,113.51 31.05,26.01 71.8,39.01 122.25,39.01 54.33,0 98.18,-17.66 131.55,-52.98 33.38,-35.31 50.07,-82.85 50.07,-142.6 0,-56.66 -16.11,-102.65 -48.32,-137.96 -32.21,-35.32 -75.48,-52.98 -129.81,-52.98 -72.96,0 -126.9,25.62 -161.82,76.84l-102.45 0 36.09 -429.57 465.67 0 0 88.48 -383.02 0 -18.62 235.16 25.61 0c41.91,-38.03 94.3,-57.05 157.16,-57.05zm534.35 548.33l-121.08 0 0 -135.05 121.08 0 0 135.05zm202.57 -725.28c54.33,-70.63 126.9,-105.94 217.7,-105.94 90.81,0 163.56,35.51 218.28,106.52 54.72,71.02 82.08,176.76 82.08,317.24 0,140.48 -27.36,246.03 -82.08,316.66 -54.72,70.63 -127.48,105.94 -218.28,105.94 -90.81,0 -163.37,-35.31 -217.7,-105.94 -54.33,-70.63 -81.5,-176.17 -81.5,-316.66 0,-141.25 27.17,-247.19 81.5,-317.82zm69.85 561.72c32.6,58.6 81.88,87.9 147.85,87.9 65.97,0 115.45,-29.3 148.42,-87.9 32.99,-58.6 49.48,-139.9 49.48,-243.9 0,-104.78 -16.49,-186.46 -49.48,-245.06 -32.98,-58.59 -82.46,-87.89 -148.42,-87.89 -65.98,0 -115.26,29.3 -147.85,87.89 -32.6,58.6 -48.9,140.28 -48.9,245.06 0,104.01 16.3,185.3 48.9,243.9zm1328.33 -13.39l98.95 0c-11.64,58.99 -39,105.75 -82.07,140.28 -43.08,34.54 -97.99,51.8 -164.73,51.8 -88.48,0 -158.13,-28.91 -208.97,-86.73 -50.84,-57.82 -76.25,-131.75 -76.25,-221.77 0,-90.81 25.22,-164.92 75.67,-222.36 50.45,-57.43 120.3,-86.15 209.55,-86.15 67.52,0 122.44,16.88 164.73,50.64 42.3,33.76 68.49,78.59 78.58,134.47l-98.96 0c-20.95,-65.97 -69.07,-98.96 -144.35,-98.96 -62.87,0 -109.63,20.76 -140.28,62.29 -30.66,41.52 -45.99,94.1 -45.99,157.74 0,64.42 15.53,117.97 46.57,160.65 31.05,42.69 77.62,64.03 139.71,64.03 82.27,0 131.56,-35.31 147.85,-105.94zm246.8 176.95l0 -586.75 157.16 0 144.35 267.76 25.61 0 144.36 -267.76 154.83 0 0 586.75 -96.63 0 0 -471.49 -25.62 0 -136.21 251.46 -109.44 0 -136.21 -251.46 -25.61 0 0 471.49 -96.63 0z"/>
   <path fill="#666666" fill-rule="nonzero" fill-opacity="0.800000" d="M20521.24 11611.86l0 25.62c34.93,16.29 63.06,41.91 84.41,76.83 21.34,34.93 32.01,73.35 32.01,115.26 0,69.85 -24.06,126.32 -72.18,169.39 -48.12,43.07 -117.97,64.61 -209.55,64.61l-371.38 0 0 -831.22 362.07 0c84.6,0 149.98,19.98 196.16,59.95 46.18,39.98 69.27,90.23 69.27,150.76 0,79.94 -30.27,136.21 -90.81,168.8zm-431.91 -286.39l0 259.62 254.96 0c107.88,0 161.81,-44.24 161.81,-132.73 0,-43.46 -15.52,-75.48 -46.56,-96.04 -31.05,-20.57 -70.25,-30.86 -117.59,-30.86l-252.63 0zm0 644.96l259.61 0c53.56,0 97.41,-11.45 131.56,-34.34 34.15,-22.9 51.23,-61.12 51.23,-114.68 0,-50.45 -16.88,-87.12 -50.65,-110.02 -33.76,-22.89 -77.42,-34.34 -130.97,-34.34l-260.78 0 0 293.37zm700.84 -493.61l98.95 0 0 195.58 161.82 0c70.63,0 125.15,17.08 163.56,51.23 38.42,34.15 57.63,81.88 57.63,143.19 0,62.09 -19.21,110.4 -57.63,144.93 -38.42,34.54 -92.94,51.81 -163.56,51.81l-260.77 0 0 -586.75zm98.95 279.41l0 221.19 147.85 0c48.9,0 83.82,-9.32 104.78,-27.94 20.96,-18.63 31.43,-46.18 31.43,-82.66 0,-36.48 -10.47,-64.04 -31.43,-82.66 -20.96,-18.63 -55.88,-27.94 -104.78,-27.94l-147.85 0zm477.31 -279.41l98.96 0 0 586.75 -98.96 0 0 -586.75zm686.88 409.8l98.95 0c-11.64,58.99 -39,105.75 -82.07,140.28 -43.08,34.54 -97.99,51.8 -164.73,51.8 -88.48,0 -158.13,-28.91 -208.97,-86.73 -50.84,-57.82 -76.25,-131.75 -76.25,-221.77 0,-90.81 25.22,-164.92 75.67,-222.36 50.45,-57.43 120.3,-86.15 209.55,-86.15 67.52,0 122.44,16.88 164.73,50.64 42.3,33.76 68.49,78.59 78.58,134.47l-98.96 0c-20.95,-65.97 -69.07,-98.96 -144.35,-98.96 -62.87,0 -109.63,20.76 -140.28,62.29 -30.66,41.52 -45.99,94.1 -45.99,157.74 0,64.42 15.53,117.97 46.57,160.65 31.05,42.69 77.62,64.03 139.71,64.03 82.27,0 131.56,-35.31 147.85,-105.94zm288.13 -337.62c51.61,-58.21 122.04,-87.31 211.29,-87.31 89.26,0 159.68,29.1 211.3,87.31 51.61,58.22 77.42,131.95 77.42,221.2 0,89.25 -25.81,162.98 -77.42,221.19 -51.62,58.21 -122.05,87.31 -211.3,87.31 -89.26,0 -159.68,-29.1 -211.29,-87.31 -51.62,-58.21 -77.42,-131.95 -77.42,-221.19 0,-89.26 25.8,-162.98 77.42,-221.2zm70.43 378.95c32.6,43.07 79.56,64.61 140.86,64.61 61.32,0 108.27,-21.54 140.86,-64.61 32.6,-43.08 48.9,-95.66 48.9,-157.74 0,-62.1 -16.3,-114.68 -48.9,-157.75 -32.6,-43.07 -79.55,-64.61 -140.86,-64.61 -61.31,0 -108.27,21.54 -140.86,64.61 -32.6,43.08 -48.9,95.66 -48.9,157.75 0,62.09 16.3,114.67 48.9,157.74zm512.24 -364.97l0 -86.16 505.25 0 0 86.16 -202.57 0 0 500.59 -98.95 0 0 -500.59 -203.73 0zm1009.33 500.59l0 -61.7 -25.61 0c-40.36,51.22 -101.29,76.83 -182.77,76.83 -64.42,0 -115.65,-18.62 -153.67,-55.88 -38.03,-37.25 -57.05,-82.27 -57.05,-135.05 0,-53.55 18.63,-99.34 55.88,-137.38 37.26,-38.03 93.53,-57.04 168.81,-57.04l190.92 0 0 -23.29c0,-37.25 -11.64,-66.94 -34.93,-89.06 -23.28,-22.12 -59.37,-33.18 -108.27,-33.18 -85.38,0 -130.78,28.33 -136.21,84.99l-98.96 0c3.88,-53.56 26.97,-95.47 69.27,-125.74 42.3,-30.27 96.82,-45.4 163.56,-45.4 75.29,0 134.47,17.46 177.53,52.39 43.08,34.92 64.62,84.99 64.62,150.17l0 399.32 -93.14 0zm-183.94 -71.02c48.9,0 91.2,-16.1 126.9,-48.31 35.71,-32.21 53.56,-71.6 53.56,-118.17l0 -53.56 -175.79 0c-93.91,0 -140.86,37.26 -140.86,111.77 0,33.37 11.84,59.76 35.51,79.17 23.67,19.4 57.24,29.1 100.7,29.1zm-3378.43 1165.45l98.95 0c-11.64,58.99 -39,105.75 -82.07,140.28 -43.08,34.54 -97.99,51.8 -164.73,51.8 -88.48,0 -158.13,-28.91 -208.97,-86.73 -50.84,-57.82 -76.25,-131.75 -76.25,-221.77 0,-90.81 25.22,-164.92 75.67,-222.36 50.45,-57.43 120.3,-86.15 209.55,-86.15 67.52,0 122.44,16.88 164.73,50.64 42.3,33.76 68.49,78.59 78.58,134.47l-98.96 0c-20.95,-65.97 -69.07,-98.96 -144.35,-98.96 -62.87,0 -109.63,20.76 -140.28,62.29 -30.66,41.52 -45.99,94.1 -45.99,157.74 0,64.42 15.53,117.97 46.57,160.65 31.05,42.69 77.62,64.03 139.71,64.03 82.27,0 131.56,-35.31 147.85,-105.94zm386.5 176.95l-139.7 0 0 -586.75 96.63 0 0 454.03 25.61 0 257.28 -454.03 144.36 0 0 586.75 -96.64 0 0 -454.03 -25.61 0 -261.94 454.03zm1097.82 -86.15l108.27 0 0 252.62 -96.63 0 0 -166.47 -507.58 0 0 166.47 -96.63 0 0 -252.62 78.01 0c48.12,-102.45 72.18,-215.76 72.18,-339.94l0 -160.66 442.38 0 0 500.6zm-98.96 0l0 -414.45 -251.46 0 0 74.51c0,132.72 -21.34,246.02 -64.03,339.94l315.49 0zm844.03 -242.15l0 33.76 -447.04 0c1.55,70.63 18.24,125.54 50.06,164.73 31.82,39.19 77.62,58.79 137.38,58.79 80.72,0 130.39,-30.27 149.01,-90.81l100.12 0c-10.09,52.78 -36.67,95.47 -79.75,128.07 -43.07,32.6 -99.54,48.89 -169.38,48.89 -89.26,0 -159.1,-29.1 -209.55,-87.31 -50.45,-58.21 -75.67,-133.89 -75.67,-227.01 0,-91.59 25.22,-164.93 75.67,-220.03 50.45,-55.11 119.53,-82.66 207.22,-82.66 83.05,0 147.07,26.19 192.09,78.58 45.01,52.39 68.3,117.4 69.85,195zm-264.27 -187.43c-50.45,0 -90.81,13 -121.08,39 -30.27,26 -48.89,59.18 -55.88,99.54l338.78 0c-3.11,-39.58 -19.02,-72.57 -47.73,-98.96 -28.72,-26.38 -66.75,-39.58 -114.1,-39.58zm940.66 515.73l-98.96 0 0 -258.45 -324.81 0 0 258.45 -98.95 0 0 -586.75 98.95 0 0 242.15 324.81 0 0 -242.15 98.96 0 0 586.75zm1015.16 -586.75l292.21 0 0 586.75 -100.12 0 0 -231.67 -178.12 0c-15.52,0 -27.55,-0.39 -36.09,-1.16l-88.48 232.83 -103.61 0 98.96 -254.95c-60.54,-28.72 -90.81,-79.95 -90.81,-153.67 0,-56.66 17.65,-100.51 52.97,-131.56 35.31,-31.04 86.35,-46.57 153.08,-46.57zm192.09 83.83l-181.61 0c-42.69,0 -72.96,8.15 -90.81,24.45 -17.85,16.29 -26.77,39.97 -26.77,71.01 0,30.27 8.92,53.17 26.77,68.69 17.85,15.52 48.12,23.29 90.81,23.29l181.61 0 0 -187.43zm-3019.88 1774.31l-121.08 0 0 -135.05 121.08 0 0 135.05zm202.57 -725.28c54.33,-70.63 126.9,-105.94 217.7,-105.94 90.81,0 163.56,35.51 218.28,106.52 54.72,71.02 82.08,176.76 82.08,317.24 0,140.48 -27.36,246.03 -82.08,316.66 -54.72,70.63 -127.48,105.94 -218.28,105.94 -90.81,0 -163.37,-35.31 -217.7,-105.94 -54.33,-70.63 -81.5,-176.17 -81.5,-316.66 0,-141.25 27.17,-247.19 81.5,-317.82zm69.85 561.72c32.6,58.6 81.88,87.9 147.85,87.9 65.97,0 115.45,-29.3 148.42,-87.9 32.99,-58.6 49.48,-139.9 49.48,-243.9 0,-104.78 -16.49,-186.46 -49.48,-245.06 -32.98,-58.59 -82.46,-87.89 -148.42,-87.89 -65.98,0 -115.26,29.3 -147.85,87.89 -32.6,58.6 -48.9,140.28 -48.9,245.06 0,104.01 16.3,185.3 48.9,243.9zm1328.33 -13.39l98.95 0c-11.64,58.99 -39,105.75 -82.07,140.28 -43.08,34.54 -97.99,51.8 -164.73,51.8 -88.48,0 -158.13,-28.91 -208.97,-86.73 -50.84,-57.82 -76.25,-131.75 -76.25,-221.77 0,-90.81 25.22,-164.92 75.67,-222.36 50.45,-57.43 120.3,-86.15 209.55,-86.15 67.52,0 122.44,16.88 164.73,50.64 42.3,33.76 68.49,78.59 78.58,134.47l-98.96 0c-20.95,-65.97 -69.07,-98.96 -144.35,-98.96 -62.87,0 -109.63,20.76 -140.28,62.29 -30.66,41.52 -45.99,94.1 -45.99,157.74 0,64.42 15.53,117.97 46.57,160.65 31.05,42.69 77.62,64.03 139.71,64.03 82.27,0 131.56,-35.31 147.85,-105.94zm246.8 176.95l0 -586.75 157.16 0 144.35 267.76 25.61 0 144.36 -267.76 154.83 0 0 586.75 -96.63 0 0 -471.49 -25.62 0 -136.21 251.46 -109.44 0 -136.21 -251.46 -25.61 0 0 471.49 -96.63 0zm254.95 -1858.13l0 195.58 173.46 0c70.63,0 125.16,17.08 163.57,51.23 38.42,34.15 57.63,81.88 57.63,143.19 0,62.09 -19.21,110.4 -57.63,144.93 -38.42,34.54 -92.95,51.81 -163.57,51.81l-272.41 0 0 -586.75 98.95 0zm0 500.6l159.49 0c48.9,0 83.83,-9.32 104.78,-27.94 20.96,-18.63 31.44,-46.18 31.44,-82.66 0,-36.48 -10.48,-64.04 -31.44,-82.66 -20.95,-18.63 -55.88,-27.94 -104.78,-27.94l-159.49 0 0 221.19zm1322.5 86.15l-121.08 0 0 -135.05 121.08 0 0 135.05zm0 -451.7l-121.08 0 0 -135.05 121.08 0 0 135.05zm-4462.28 1441.36l111.76 0 0 90.81 -111.76 0 0 190.92 -100.13 0 0 -190.92 -402.81 0 0 -116.42 359.74 -507.58 143.19 0 0 533.19zm-395.83 0l296.87 0 0 -417.95 -25.61 0 -271.26 392.34 0 25.61zm651.94 -533.19l476.15 0 0 114.09 -203.73 174.62 0 24.45c72.18,1.55 130.59,24.06 175.21,67.53 44.62,43.46 66.94,103.61 66.94,180.44 0,83.05 -26.78,148.62 -80.33,196.74 -53.56,48.12 -122.63,72.18 -207.22,72.18 -81.5,0 -148.24,-22.89 -200.24,-68.68 -52,-45.8 -80.33,-104.01 -84.99,-174.63l102.45 0c4.66,45.8 23.87,82.66 57.63,110.6 33.77,27.95 75.48,41.92 125.16,41.92 56.65,0 101.67,-15.92 135.05,-47.74 33.37,-31.82 50.06,-75.28 50.06,-130.39 0,-54.33 -15.91,-96.82 -47.74,-127.48 -31.82,-30.66 -77.22,-45.99 -136.21,-45.99 -28.72,0 -52.39,2.33 -71.02,6.99l0 -108.28 199.07 -172.29 0 -25.61 -356.24 0 0 -88.48z"/>
   <path fill="#666666" fill-rule="nonzero" fill-opacity="0.800000" d="M5137.78 6784.62c0,74.51 -25.03,136.61 -75.1,186.27 -50.06,49.67 -113.51,74.51 -190.34,74.51 -79.94,0 -146.68,-25.03 -200.23,-75.09 -53.56,-50.07 -80.33,-117.4 -80.33,-201.99 0,-92.36 31.82,-165.31 95.46,-218.86 63.65,-53.55 165.31,-80.33 305.02,-80.33 131.17,0 238.27,26.19 321.31,78.58 83.05,52.39 124.57,129.43 124.57,231.09 0,67.53 -18.04,122.83 -54.13,165.89 -36.09,43.08 -82.86,69.27 -140.28,78.59l0 -101.29c69.08,-20.18 103.62,-67.91 103.62,-143.19 0,-64.42 -25.62,-114.87 -76.84,-151.34 -51.23,-36.48 -121.86,-56.27 -211.88,-59.37l0 25.61c20.96,17.08 39.39,42.11 55.3,75.09 15.91,32.99 23.87,71.6 23.87,115.84zm-405.14 -145.51c-33.38,34.15 -50.06,76.83 -50.06,128.06 0,51.23 16.3,93.33 48.89,126.32 32.6,32.98 78.01,49.48 136.22,49.48 58.21,0 102.84,-16.69 133.88,-50.06 31.05,-33.38 46.57,-76.07 46.57,-128.07 0,-51.22 -15.91,-93.52 -47.73,-126.9 -31.82,-33.37 -75.68,-50.06 -131.56,-50.06 -57.43,0 -102.84,17.08 -136.21,51.23zm100.12 -398.16l0 102.46c-78.39,-4.66 -138.15,-32.02 -179.28,-82.08 -41.14,-50.06 -61.7,-113.12 -61.7,-189.18 0,-79.16 21.53,-142.99 64.61,-191.5 43.08,-48.51 104.2,-72.76 183.36,-72.76 96.24,0 194.41,60.15 294.53,180.44l172.3 204.89 25.61 0 0 -410.96 90.81 0 0 559.97 -115.26 0 -97.79 -119.91c-59.77,-74.51 -112.16,-136.22 -157.16,-185.1 -16.3,-18.63 -30.27,-33.57 -41.91,-44.83 -11.65,-11.25 -26.97,-24.06 -45.99,-38.42 -19.02,-14.35 -39,-25.22 -59.96,-32.59 -20.95,-7.38 -42.69,-11.06 -65.19,-11.06 -50.45,0 -89.26,14.74 -116.43,44.24 -27.16,29.49 -40.74,69.46 -40.74,119.91 0,47.35 12.61,85.57 37.83,114.68 25.23,29.1 62.68,46.37 112.35,51.8zm590.24 -724.11l0 121.08 -135.05 0 0 -121.08 135.05 0zm-725.28 -202.57c-70.63,-54.33 -105.94,-126.9 -105.94,-217.7 0,-90.81 35.51,-163.56 106.52,-218.28 71.02,-54.72 176.76,-82.08 317.24,-82.08 140.48,0 246.03,27.36 316.66,82.08 70.63,54.72 105.94,127.48 105.94,218.28 0,90.81 -35.31,163.37 -105.94,217.7 -70.63,54.33 -176.17,81.5 -316.66,81.5 -141.25,0 -247.19,-27.17 -317.82,-81.5zm561.72 -69.85c58.6,-32.6 87.9,-81.88 87.9,-147.85 0,-65.97 -29.3,-115.45 -87.9,-148.42 -58.6,-32.99 -139.9,-49.48 -243.9,-49.48 -104.78,0 -186.46,16.49 -245.06,49.48 -58.59,32.98 -87.89,82.46 -87.89,148.42 0,65.98 29.3,115.26 87.89,147.85 58.6,32.6 140.28,48.9 245.06,48.9 104.01,0 185.3,-16.3 243.9,-48.9zm-13.39 -1328.33l0 -98.95c58.99,11.64 105.75,39 140.28,82.07 34.54,43.08 51.8,97.99 51.8,164.73 0,88.48 -28.91,158.13 -86.73,208.97 -57.82,50.84 -131.75,76.25 -221.77,76.25 -90.81,0 -164.92,-25.22 -222.36,-75.67 -57.43,-50.45 -86.15,-120.3 -86.15,-209.55 0,-67.52 16.88,-122.44 50.64,-164.73 33.76,-42.3 78.59,-68.49 134.47,-78.58l0 98.96c-65.97,20.95 -98.96,69.07 -98.96,144.35 0,62.87 20.76,109.63 62.29,140.28 41.52,30.66 94.1,45.99 157.74,45.99 64.42,0 117.97,-15.53 160.65,-46.57 42.69,-31.05 64.03,-77.62 64.03,-139.71 0,-82.27 -35.31,-131.56 -105.94,-147.85zm176.95 -246.8l-586.75 0 0 -157.16 267.76 -144.35 0 -25.61 -267.76 -144.36 0 -154.83 586.75 0 0 96.63 -471.49 0 0 25.62 251.46 136.21 0 109.44 -251.46 136.21 0 25.61 471.49 0 0 96.63z"/>
   <path fill="#666666" fill-rule="nonzero" fill-opacity="0.800000" d="M4980.61 15480.21l25.61 0c10.87,-31.83 33.57,-60.93 68.11,-87.32 34.53,-26.39 76.64,-39.58 126.31,-39.58 68.3,0 124.96,26.97 169.97,80.91 45.02,53.94 67.52,125.15 67.52,213.62 0,88.48 -22.5,159.69 -67.52,213.63 -45.02,53.94 -101.68,80.91 -169.97,80.91 -48.89,0 -90.81,-13.19 -125.73,-39.58 -34.93,-26.39 -57.82,-55.5 -68.69,-87.32l-25.61 0c-10.87,25.61 -31.44,49.09 -61.71,70.44 -30.27,21.34 -66.75,32.01 -109.43,32.01 -64.42,0 -116.81,-25.22 -157.16,-75.67 -40.36,-50.45 -60.54,-115.26 -60.54,-194.42 0,-79.16 20.18,-143.96 60.54,-194.41 40.36,-50.45 92.75,-75.68 157.16,-75.68 41.13,0 77.22,10.87 108.27,32.6 31.04,21.73 52,45.02 62.87,69.86zm-264.85 45.98c-23.68,32.21 -35.51,72.77 -35.51,121.66 0,48.9 11.83,89.45 35.51,121.66 23.67,32.21 56.46,48.32 98.37,48.32 41.91,0 74.9,-16.11 98.96,-48.32 24.06,-32.21 36.09,-72.76 36.09,-121.66 0,-48.89 -12.03,-89.45 -36.09,-121.66 -24.06,-32.21 -57.05,-48.31 -98.96,-48.31 -41.91,0 -74.7,16.1 -98.37,48.31zm589.07 263.11c28.33,-34.54 42.5,-81.69 42.5,-141.45 0,-59.76 -14.17,-106.91 -42.5,-141.44 -28.33,-34.54 -66.16,-51.81 -113.51,-51.81 -48.12,0 -85.76,17.08 -112.93,51.23 -27.16,34.15 -40.75,81.49 -40.75,142.02 0,60.54 13.59,107.89 40.75,142.03 27.17,34.15 64.81,51.22 112.93,51.22 47.35,0 85.18,-17.27 113.51,-51.8zm-163.56 -1046.02l0 -111.76 90.81 0 0 111.76 190.92 0 0 100.13 -190.92 0 0 402.81 -116.42 0 -507.58 -359.74 0 -143.19 533.19 0zm0 395.83l0 -296.87 -417.95 0 0 25.61 392.34 271.26 25.61 0zm281.73 -770.68l0 121.08 -135.05 0 0 -121.08 135.05 0zm-725.28 -202.57c-70.63,-54.33 -105.94,-126.9 -105.94,-217.7 0,-90.81 35.51,-163.56 106.52,-218.28 71.02,-54.72 176.76,-82.08 317.24,-82.08 140.48,0 246.03,27.36 316.66,82.08 70.63,54.72 105.94,127.48 105.94,218.28 0,90.81 -35.31,163.37 -105.94,217.7 -70.63,54.33 -176.17,81.5 -316.66,81.5 -141.25,0 -247.19,-27.17 -317.82,-81.5zm561.72 -69.85c58.6,-32.6 87.9,-81.88 87.9,-147.85 0,-65.97 -29.3,-115.45 -87.9,-148.42 -58.6,-32.99 -139.9,-49.48 -243.9,-49.48 -104.78,0 -186.46,16.49 -245.06,49.48 -58.59,32.98 -87.89,82.46 -87.89,148.42 0,65.98 29.3,115.26 87.89,147.85 58.6,32.6 140.28,48.9 245.06,48.9 104.01,0 185.3,-16.3 243.9,-48.9zm-13.39 -1328.33l0 -98.95c58.99,11.64 105.75,39 140.28,82.07 34.54,43.08 51.8,97.99 51.8,164.73 0,88.48 -28.91,158.13 -86.73,208.97 -57.82,50.84 -131.75,76.25 -221.77,76.25 -90.81,0 -164.92,-25.22 -222.36,-75.67 -57.43,-50.45 -86.15,-120.3 -86.15,-209.55 0,-67.52 16.88,-122.44 50.64,-164.73 33.76,-42.3 78.59,-68.49 134.47,-78.58l0 98.96c-65.97,20.95 -98.96,69.07 -98.96,144.35 0,62.87 20.76,109.63 62.29,140.28 41.52,30.66 94.1,45.99 157.74,45.99 64.42,0 117.97,-15.53 160.65,-46.57 42.69,-31.05 64.03,-77.62 64.03,-139.71 0,-82.27 -35.31,-131.56 -105.94,-147.85zm176.95 -246.8l-586.75 0 0 -157.16 267.76 -144.35 0 -25.61 -267.76 -144.36 0 -154.83 586.75 0 0 96.63 -471.49 0 0 25.62 251.46 136.21 0 109.44 -251.46 136.21 0 25.61 471.49 0 0 96.63z"/>
  </g>
 </g>
</svg>
