<?xml version="1.0" encoding="UTF-8" standalone="no"?>
<!-- Creator: CorelDRAW 2021.5 -->

<svg
   xml:space="preserve"
   width="158.65913mm"
   height="79.741089mm"
   version="1.1"
   style="clip-rule:evenodd;fill-rule:evenodd;image-rendering:optimizeQuality;shape-rendering:geometricPrecision;text-rendering:geometricPrecision"
   viewBox="0 0 15861.531 7971.9073"
   id="svg9388"
   sodipodi:docname="scheme_consono_pouf.svg"
   inkscape:version="1.2.2 (732a01da63, 2022-12-09, custom)"
   xmlns:inkscape="http://www.inkscape.org/namespaces/inkscape"
   xmlns:sodipodi="http://sodipodi.sourceforge.net/DTD/sodipodi-0.dtd"
   xmlns="http://www.w3.org/2000/svg"
   xmlns:svg="http://www.w3.org/2000/svg"><sodipodi:namedview
   id="namedview9390"
   pagecolor="#ffffff"
   bordercolor="#000000"
   borderopacity="0.25"
   inkscape:showpageshadow="2"
   inkscape:pageopacity="0.0"
   inkscape:pagecheckerboard="0"
   inkscape:deskcolor="#d1d1d1"
   inkscape:document-units="mm"
   showgrid="false"
   inkscape:zoom="0.51276154"
   inkscape:cx="128.7148"
   inkscape:cy="47.780495"
   inkscape:window-width="1846"
   inkscape:window-height="1016"
   inkscape:window-x="0"
   inkscape:window-y="0"
   inkscape:window-maximized="1"
   inkscape:current-layer="Текст" />
 <defs
   id="defs7986">
  <style
   type="text/css"
   id="style7984">
   <![CDATA[
    .str1 {stroke:gray;stroke-width:10.58;stroke-miterlimit:22.9256}
    .str0 {stroke:#4D4D4D;stroke-width:16.93;stroke-miterlimit:22.9256}
    .fil1 {fill:none}
    .fil2 {fill:none;fill-rule:nonzero}
    .fil0 {fill:black;fill-opacity:0.101961}
    .fil3 {fill:#666666;fill-rule:nonzero;fill-opacity:0.800000}
    .fil4 {fill:#B3B3B3;fill-rule:nonzero;fill-opacity:0.800000}
   ]]>
  </style>
 </defs>
 <g
   id="Тени"
   inkscape:label="Тени"
   inkscape:groupmode="layer"
   transform="translate(-22710.897,-17051.502)">
  <metadata
   id="CorelCorpID_0Corel-Layer" />
  
  
  
  
  
  
  
  
  
  
  
  
  
  
  
  
  
  
  
  
  
  
  
  
  
  
  
  
  
  
  
  
  
  
  
  
  
  
  
  
  
  
  
  
  
  
  
  
  
  
  
  
  
  
  
  
  
  
  
  
  
  
  
  
  
  
  
  
  
  
  
  
  
  
  
  
  
  
  
  
  
  
  
  <path
   class="fil0"
   d="m 24627.271,20078.951 c 695.83,132.181 826.445,235.605 1223.47,245.896 423.145,10.972 788.871,-163.427 1259.507,-245.896 -483.388,0 -759.218,0 -1203.546,4.362 z"
   id="path8155"
   style="stroke-width:1.33814" />
  <path
   class="fil0"
   d="m 34816.748,20055.239 c -399.099,74.574 -558.685,146.446 -816.249,152.909 -274.532,6.918 -376.351,-143.89 -683.306,-156.107 240.156,8.403 459.168,-6.41 699.323,2.021 z"
   id="path8157"
   style="stroke-width:1.33814" />
  <path
   class="fil0"
   d="m 35813.752,18583.518 c 0,0 26.041,222.679 91.315,226.305 458.137,25.559 1136.478,5.299 1571.626,11.548 51.117,-0.977 203.209,32.771 231.618,-150.272 17.637,-113.621 20.233,-185.064 20.233,-185.064 l -6.718,387.269 -17.516,72.487 -1851.591,-5.66 -33.694,-52.107 -7.641,-91.85 z"
   id="path8159"
   style="stroke-width:1.33814" />
  <path
   class="fil0"
   d="m 24520.501,18583.652 c 0,0 36.25,222.679 127.056,226.305 637.447,25.558 1581.274,5.299 2186.727,11.548 71.135,-0.977 282.748,32.771 322.276,-150.272 24.515,-113.622 28.141,-185.065 28.141,-185.065 l -9.353,387.27 -24.354,72.487 -2576.285,-5.66 -46.889,-52.107 -10.611,-91.85 3.278,-212.656 z"
   id="path8161"
   style="stroke-width:1.33814" />
  <path
   class="fil0"
   d="m 33302.193,18566.537 c 0,0 20.621,222.679 72.219,226.305 362.22,25.559 898.545,5.299 1242.579,11.548 40.412,-0.976 160.683,32.771 183.137,-150.272 13.93,-113.621 15.991,-185.064 15.991,-185.064 l -5.312,387.269 -13.837,72.487 -1463.973,-5.66 -26.629,-52.107 -6.048,-91.85 z"
   id="path8163"
   style="stroke-width:1.33814" />
  <path
   class="fil0"
   d="m 28033.976,18575.288 c 0,0 36.25,222.679 127.056,226.306 637.447,25.558 1581.274,5.299 2186.727,11.548 71.135,-0.977 282.748,32.771 322.276,-150.273 24.515,-113.621 28.141,-185.064 28.141,-185.064 l -9.353,387.27 -24.354,72.487 -2576.285,-5.661 -46.889,-52.107 -10.611,-91.849 3.278,-212.657 z"
   id="path8165"
   style="stroke-width:1.33814" />
  <path
   class="fil0"
   d="m 24532.062,22582.522 c 116.753,-636.913 229.223,-891.546 239.353,-1302.541 10.785,-438.092 -227.738,-642.345 -246.873,-1132.143 13.167,383.215 -7.547,774.446 5.66,1157.661 z"
   id="path8167"
   style="stroke-width:1.33814" />
  <path
   class="fil0"
   d="m 27188.181,22614.597 c -116.739,-661.976 -229.223,-926.646 -239.339,-1353.832 -10.786,-455.381 214.77,-690.277 233.866,-1199.37 -13.141,398.282 20.553,827.569 7.359,1225.892 l -1.886,1327.323 z"
   id="path8169"
   style="stroke-width:1.33814" />
  <path
   class="fil0"
   d="m 24622.627,22755.931 c 712.986,-132.222 742.946,-215.761 1149.74,-226.038 433.542,-11.013 801.623,143.582 1283.873,226.038 -495.284,0 -774.579,4.308 -1229.88,0 z"
   id="path8171"
   style="stroke-width:1.33814" />
  <path
   class="fil0"
   d="m 33289.133,21779.359 c 74.587,-399.139 146.472,-558.698 152.922,-816.262 6.905,-274.532 -137.199,-416.173 -149.416,-723.115 8.417,240.155 -13.101,498.977 -4.684,739.132 z"
   id="path8173"
   style="stroke-width:1.33814" />
  <path
   class="fil0"
   d="m 34825.325,21801.345 c -74.587,-399.126 -158.221,-547.632 -164.671,-805.156 -6.891,-274.559 152.441,-498.576 164.658,-805.504 -8.403,240.155 8.444,579.573 0.01,819.715 v 790.958 z"
   id="path8175"
   style="stroke-width:1.33814" />
  <path
   class="fil0"
   d="m 34805.749,21965.574 c -399.126,-74.547 -558.685,-146.445 -816.25,-152.908 -274.531,-6.892 -370.623,143.448 -677.564,155.665 240.141,-8.404 453.413,6.878 693.555,-1.566 z"
   id="path8177"
   style="stroke-width:1.33814" />
  <path
   class="fil0"
   d="m 34805.749,21965.574 c -399.126,-74.547 -558.685,-146.445 -816.25,-152.908 -274.531,-6.892 -370.623,143.448 -677.564,155.665 240.141,-8.404 453.413,6.878 693.555,-1.566 z"
   id="path8179"
   style="stroke-width:1.33814" />
 </g>
 <g
   id="Схемы"
   inkscape:label="Схемы"
   inkscape:groupmode="layer"
   transform="translate(-22710.897,-17051.502)">
  <metadata
   id="CorelCorpID_1Corel-Layer" />
  
  
  
  
  
  <g
   id="_2043890812576"
   transform="matrix(1.3381353,0,0,1.3381353,-7649.6034,-7608.593)">
   <g
   id="g8644">
    <path
   class="fil2 str0"
   d="m 32484.76,19373.23 c 484.98,0 950.84,0 1435.78,0 8.11,0 14.72,-0.79 14.72,27.99 l 0.02,333.22 c 0.01,69.79 -28.78,110.01 -36.88,110.01 h -1399.58 c -8.1,0 -37.79,-32.18 -37.74,-96.92 l 0.29,-344.54 c 0.02,-28.8 15.29,-29.75 23.39,-29.75 z"
   id="path8634" />
    <polyline
   class="fil2 str0"
   points="32506.95,19844.45 32506.95,20136.83 32533.7,20136.83 32567.58,19863.47 32708.41,19864.05 32717.92,19844.45 "
   id="polyline8636" />
    <path
   class="fil2 str0"
   d="m 32501.89,19401.42 c 471.35,0 924.11,0 1395.42,0 7.89,0 14.3,-0.73 14.3,26.29 l 0.04,313.09 c 0,65.55 -13.14,103.34 -20.99,103.34 h -1375.11 c -7.87,0 -36.73,-30.23 -36.68,-91.05 l 0.28,-323.73 c 0.02,-27.05 14.86,-27.94 22.74,-27.94 z"
   id="path8638" />
    <polyline
   class="fil2 str0"
   points="33869.72,19844.4 33869.72,20136.78 33842.97,20136.78 33809.1,19863.41 33668.25,19863.99 33658.74,19844.4 "
   id="polyline8640" />
    <path
   class="fil2 str0"
   d="m 32478.98,19373.23 c 0,0 21.65,-24.03 98.76,-46.17 217.13,-62.31 1019.19,-66.49 1280.71,7.08 11.9,3.35 58.74,24.84 67.46,39.65"
   id="path8642" />
   </g>
   <g
   id="g8656">
    <path
   class="fil1 str0"
   d="m 30598.96,19360.14 c 387.97,0 760.67,0 1148.63,0 6.48,0 11.77,-0.78 11.78,27.99 l 0.02,333.24 c 0,69.79 -23.04,110.01 -29.52,110.01 h -1119.66 c -6.48,0 -30.24,-32.18 -30.2,-96.92 l 0.23,-344.55 c 0.03,-28.8 12.23,-29.76 18.72,-29.76 z"
   id="path8646" />
    <polyline
   class="fil1 str0"
   points="30638.03,19831.75 30638.03,20124.13 30664.77,20124.13 30698.64,19850.78 30839.49,19851.36 30849,19831.75 "
   id="polyline8648" />
    <path
   class="fil1 str0"
   d="m 30619.56,19388.9 c 371.64,0 728.63,0 1100.24,0 6.21,0 11.28,-0.73 11.28,26.3 l 0.02,313.07 c 0,65.55 -10.36,103.34 -16.55,103.34 h -1084.21 c -6.21,0 -28.96,-30.22 -28.92,-91.05 l 0.22,-323.71 c 0.02,-27.05 11.72,-27.95 17.93,-27.95 z"
   id="path8650" />
    <polyline
   class="fil1 str0"
   points="31714.79,19833.17 31714.79,20125.55 31688.05,20125.55 31654.18,19852.19 31513.33,19852.77 31503.82,19833.17 "
   id="polyline8652" />
    <path
   class="fil1 str0"
   d="m 30615.7,19360.34 c 213.11,-118.81 994.42,-102.2 1103.02,0"
   id="path8654" />
   </g>
   <g
   id="g8662">
    <path
   class="fil1 str0"
   d="m 30573.82,22101.3 v -1429.43 c 0,-13.23 10.81,-24.03 24.03,-24.03 h 1136.25 c 13.23,0 24.03,10.81 24.03,24.03 v 1429.43 c 0,13.23 -10.81,24.03 -24.03,24.03 h -1136.25 c -13.23,0 -24.03,-10.81 -24.03,-24.03 z"
   id="path8658" />
    <path
   class="fil1 str0"
   d="m 30599.34,22080.08 v -1385.66 c 0,-12.86 10.38,-23.35 23.06,-23.35 h 1090.09 c 12.69,0 23.06,10.5 23.06,23.35 v 1385.66 c 0,12.86 -10.38,23.33 -23.06,23.33 H 30622.4 c -12.69,0 -23.06,-10.48 -23.06,-23.33 z"
   id="path8660" />
   </g>
  </g>
  
  <g
   id="_2043896490960"
   transform="matrix(1.3381353,0,0,1.3381353,-7702.5055,-7608.593)">
   <g
   id="g8758">
    <path
   class="fil2 str0"
   d="m 24086.41,19373.33 c 674.78,0 1322.97,0 1997.73,0 11.28,0 20.47,-0.79 20.47,27.99 l 0.03,333.22 c 0.01,69.79 -40.06,110.01 -51.32,110.01 h -1947.36 c -11.27,0 -52.59,-32.18 -52.52,-96.92 l 0.41,-344.54 c 0.03,-28.8 21.26,-29.75 32.55,-29.75 z"
   id="path8746" />
    <polyline
   class="fil2 str0"
   points="24099.32,19844.55 24099.32,20136.93 24126.08,20136.93 24159.95,19863.57 24300.78,19864.15 24310.3,19844.55 "
   id="polyline8748" />
    <path
   class="fil2 str0"
   d="m 24110.24,19401.52 c 655.83,0 1285.8,0 1941.58,0 10.97,0 19.89,-0.73 19.89,26.29 l 0.04,313.09 c 0,65.55 -18.26,103.34 -29.2,103.34 h -1913.3 c -10.96,0 -51.12,-30.23 -51.05,-91.05 l 0.4,-323.73 c 0.02,-27.05 20.65,-27.94 31.63,-27.94 z"
   id="path8750" />
    <polyline
   class="fil2 str0"
   points="26042.9,19845.97 26042.9,20138.35 26016.15,20138.35 25982.28,19864.98 25841.43,19865.56 25831.93,19845.97 "
   id="polyline8752" />
    <path
   class="fil2 str0"
   d="m 24078.36,19373.33 c 0,0 30.13,-30.6 137.42,-58.78 305.46,-80.23 1442.83,-84.42 1793.78,12.17"
   id="path8754" />
    <path
   class="fil2 str0"
   d="m 26087.63,19373.33 c 0,0 -23.29,-29.62 -78.78,-46.62"
   id="path8756" />
   </g>
   <g
   id="g8764">
    <path
   class="fil1 str0"
   d="m 24094.56,20660.76 h 1965.06 c 22.88,0 41.59,18.7 41.59,41.59 v 1977.12 c 0,22.86 -18.7,41.58 -41.59,41.58 h -1965.06 c -22.85,0 -41.57,-18.71 -41.57,-41.58 v -1977.12 c 0,-22.88 18.71,-41.59 41.57,-41.59 z"
   id="path8760" />
    <path
   class="fil1 str0"
   d="m 24124.01,20690.41 h 1905.11 c 22.17,0 40.31,18.12 40.31,40.31 v 1920.6 c 0,22.18 -18.13,40.32 -40.31,40.32 h -1905.11 c -22.16,0 -40.31,-18.13 -40.31,-40.32 v -1920.6 c 0,-22.18 18.14,-40.31 40.31,-40.31 z"
   id="path8762" />
   </g>
   <g
   id="g8778">
    <path
   class="fil2 str0"
   d="m 26712.06,19367.07 c 674.78,0 1322.97,0 1997.73,0 11.28,0 20.47,-0.79 20.47,27.99 l 0.03,333.22 c 0.01,69.79 -40.06,110.01 -51.32,110.01 h -1947.36 c -11.27,0 -52.59,-32.18 -52.52,-96.92 l 0.41,-344.54 c 0.03,-28.8 21.26,-29.75 32.55,-29.75 z"
   id="path8766" />
    <polyline
   class="fil2 str0"
   points="26724.98,19838.29 26724.98,20130.67 26751.73,20130.67 26785.6,19857.32 26926.43,19857.9 26935.95,19838.29 "
   id="polyline8768" />
    <path
   class="fil2 str0"
   d="m 26735.9,19395.26 c 655.83,0 1285.8,0 1941.58,0 10.97,0 19.89,-0.73 19.89,26.29 l 0.04,313.09 c 0,65.55 -18.26,103.34 -29.2,103.34 h -1913.3 c -10.96,0 -51.12,-30.23 -51.05,-91.05 l 0.4,-323.73 c 0.02,-27.05 20.65,-27.94 31.63,-27.94 z"
   id="path8770" />
    <polyline
   class="fil2 str0"
   points="28668.55,19839.71 28668.55,20132.09 28641.81,20132.09 28607.94,19858.73 28467.09,19859.31 28457.58,19839.71 "
   id="polyline8772" />
    <path
   class="fil2 str0"
   d="m 26704.01,19367.07 c 0,0 30.13,-30.6 137.42,-58.78 305.46,-80.23 1442.83,-84.42 1793.78,12.17"
   id="path8774" />
    <path
   class="fil2 str0"
   d="m 28713.29,19367.07 c 0,0 -23.29,-29.62 -78.78,-46.62"
   id="path8776" />
   </g>
  </g>
  
  
  
 </g>
 <g
   id="Выносные"
   inkscape:label="Выносные"
   inkscape:groupmode="layer"
   transform="translate(-22710.897,-17051.502)">
  <metadata
   id="CorelCorpID_2Corel-Layer" />
  
  
  
  
  
  
  
  
  
  
  
  
  
  
  
  
  
  
  
  
  
  
  <g
   id="_2043955833360"
   transform="matrix(1.3381353,0,0,1.3381353,-7702.5055,-7608.593)">
   <line
   class="fil1 str1"
   x1="23408.619"
   y1="20151.609"
   x2="23926.41"
   y2="20151.609"
   id="line9184" />
   <line
   class="fil1 str1"
   x1="23603.199"
   y1="20302.029"
   x2="23603.199"
   y2="19100.949"
   id="line9186" />
   <line
   class="fil1 str1"
   x1="23398.881"
   y1="19273.311"
   x2="23917.93"
   y2="19273.311"
   id="line9188" />
  </g>
  <g
   id="_2043955833840"
   transform="matrix(1.3381353,0,0,1.3381353,-7702.5055,-7608.593)">
   <line
   class="fil1 str1"
   x1="23408.75"
   y1="20671.141"
   x2="23927.811"
   y2="20671.141"
   id="line9191" />
   <line
   class="fil1 str1"
   x1="23397.48"
   y1="22635.961"
   x2="23915.26"
   y2="22635.961"
   id="line9193" />
   <line
   class="fil1 str1"
   x1="23592.051"
   y1="22801.08"
   x2="23592.051"
   y2="20503.631"
   id="line9195" />
  </g>
  <g
   id="_2043955832688"
   transform="matrix(1.3381353,0,0,1.3381353,-7702.5055,-7608.593)">
   <line
   class="fil1 str1"
   x1="24046.99"
   y1="23387.051"
   x2="24046.99"
   y2="22867.99"
   id="line9198" />
   <line
   class="fil1 str1"
   x1="26083"
   y1="23385.779"
   x2="26083"
   y2="22867.99"
   id="line9200" />
   <line
   class="fil1 str1"
   x1="26252.35"
   y1="23191.189"
   x2="23877.82"
   y2="23191.189"
   id="line9202" />
  </g>
  <g
   id="_2043955836816"
   transform="matrix(1.3381353,0,0,1.3381353,-7649.6034,-7608.593)">
   <line
   class="fil1 str1"
   x1="29913.289"
   y1="20125.68"
   x2="30431.08"
   y2="20125.68"
   id="line9205" />
   <line
   class="fil1 str1"
   x1="30107.859"
   y1="20276.1"
   x2="30107.859"
   y2="19075.02"
   id="line9207" />
   <line
   class="fil1 str1"
   x1="29903.539"
   y1="19247.369"
   x2="30422.6"
   y2="19247.369"
   id="line9209" />
  </g>
  <g
   id="_2043955835616"
   transform="matrix(1.3381353,0,0,1.3381353,-7649.6034,-7608.593)">
   <line
   class="fil1 str1"
   x1="29913.42"
   y1="20656.57"
   x2="30432.471"
   y2="20656.57"
   id="line9212" />
   <line
   class="fil1 str1"
   x1="29902.141"
   y1="22112.66"
   x2="30419.93"
   y2="22112.66"
   id="line9214" />
   <line
   class="fil1 str1"
   x1="30096.721"
   y1="22277.789"
   x2="30096.721"
   y2="20489.609"
   id="line9216" />
  </g>
  <g
   id="_2043955837056"
   transform="matrix(1.3381353,0,0,1.3381353,-7649.6034,-7608.593)">
   <line
   class="fil1 str1"
   x1="30579.551"
   y1="22786.311"
   x2="30579.551"
   y2="22267.25"
   id="line9219" />
   <line
   class="fil1 str1"
   x1="31739.381"
   y1="22785.039"
   x2="31739.381"
   y2="22267.25"
   id="line9221" />
   <line
   class="fil1 str1"
   x1="31908.74"
   y1="22590.449"
   x2="30414.41"
   y2="22590.449"
   id="line9223" />
  </g>
  
  
  
  
  
 </g>
 <g
   id="Текст"
   inkscape:label="Текст"
   inkscape:groupmode="layer"
   transform="translate(-22710.897,-17051.502)">
  <metadata
   id="CorelCorpID_3Corel-Layer" />
  <rect
   class="fil1"
   width="41988.398"
   height="29691.801"
   id="rect9265"
   x="0"
   y="0" />
  
  
  
  
  
  
  
  
  
  
  
  
  
  
  
  
  
  
  
  
  
  
  
  
  
  
  
  
  
  
  
  
  
  
  
  
  
  
  
  
  
  
  
  
  
  
  
  
  
  
  
  
  
  
  <path
   class="fil3"
   d="m 23569.568,19019.174 v -45.309 h 36.799 v 45.309 h 77.398 v 40.586 h -77.398 v 163.293 h -47.183 l -205.778,-145.83 v -58.049 z m 0,160.47 v -120.352 h -169.434 v 10.384 l 159.05,109.968 z m 114.21,-601.251 v 49.083 h -54.743 v -49.083 z m -294.015,-82.122 c -28.623,-22.025 -42.941,-51.438 -42.941,-88.25 0,-36.798 14.385,-66.304 43.169,-88.477 28.783,-22.186 71.67,-33.266 128.608,-33.266 56.951,0 99.731,11.093 128.354,33.266 28.636,22.186 42.954,51.679 42.954,88.477 0,36.812 -14.318,66.238 -42.954,88.25 -28.623,22.039 -71.417,33.039 -128.354,33.039 -57.272,0 -100.213,-11.013 -128.836,-33.039 z m 227.697,-28.301 c 23.766,-13.221 35.635,-33.199 35.635,-59.949 0,-26.736 -11.883,-46.794 -35.635,-60.176 -23.752,-13.368 -56.71,-20.058 -98.861,-20.058 -42.473,0 -75.591,6.69 -99.343,20.058 -23.766,13.382 -35.635,33.427 -35.635,60.176 0,26.736 11.883,46.728 35.635,59.949 23.752,13.207 56.87,19.818 99.343,19.818 42.151,0 75.109,-6.611 98.861,-19.818 z m -47.892,262.395 v -45.31 h 36.799 v 45.31 h 77.398 v 40.585 h -77.398 v 163.293 h -47.183 l -205.778,-145.83 v -58.048 z m 0,160.469 v -120.352 h -169.434 v 10.384 l 159.05,109.968 z"
   id="path9375"
   style="stroke-width:1.33814" />
  <path
   class="fil3"
   d="m 23683.765,22272.007 h -36.812 v -78.347 h -250.125 v 9.447 l 46.715,69.382 h -43.409 l -46.728,-68.914 v -51.438 h 293.547 v -72.219 h 36.812 z m 0,-237.853 h -36.812 v -78.348 h -250.125 v 9.447 l 46.715,69.383 h -43.409 l -46.728,-68.914 v -51.438 h 293.547 v -72.22 h 36.812 z m -294.015,-269.006 c -28.623,-22.025 -42.941,-51.437 -42.941,-88.25 0,-36.798 14.385,-66.304 43.168,-88.477 28.784,-22.186 71.671,-33.266 128.608,-33.266 56.951,0 99.732,11.093 128.354,33.266 28.636,22.186 42.955,51.679 42.955,88.477 0,36.813 -14.319,66.238 -42.955,88.25 -28.622,22.04 -71.416,33.039 -128.354,33.039 -57.272,0 -100.213,-11.013 -128.835,-33.039 z m 227.697,-28.301 c 23.765,-13.221 35.634,-33.199 35.634,-59.949 0,-26.735 -11.882,-46.794 -35.634,-60.175 -23.752,-13.368 -56.71,-20.059 -98.862,-20.059 -42.472,0 -75.591,6.691 -99.343,20.059 -23.765,13.381 -35.634,33.426 -35.634,60.175 0,26.736 11.882,46.728 35.634,59.949 23.752,13.207 56.871,19.818 99.343,19.818 42.152,0 75.11,-6.611 98.862,-19.818 z m 66.318,-276.084 v 49.083 h -54.743 v -49.083 z m -294.015,-82.122 c -28.623,-22.025 -42.941,-51.437 -42.941,-88.25 0,-36.798 14.385,-66.304 43.168,-88.477 28.784,-22.186 71.671,-33.266 128.608,-33.266 56.951,0 99.732,11.093 128.354,33.266 28.636,22.186 42.955,51.679 42.955,88.477 0,36.813 -14.319,66.238 -42.955,88.25 -28.622,22.04 -71.416,33.039 -128.354,33.039 -57.272,0 -100.213,-11.013 -128.835,-33.039 z m 227.697,-28.301 c 23.765,-13.221 35.634,-33.199 35.634,-59.949 0,-26.735 -11.882,-46.794 -35.634,-60.175 -23.752,-13.368 -56.71,-20.059 -98.862,-20.059 -42.472,0 -75.591,6.691 -99.343,20.059 -23.765,13.381 -35.634,33.426 -35.634,60.175 0,26.736 11.882,46.728 35.634,59.949 23.752,13.207 56.871,19.818 99.343,19.818 42.152,0 75.11,-6.611 98.862,-19.818 z m -5.42,-538.492 v -40.104 c 23.913,4.723 42.861,15.816 56.871,33.266 13.997,17.462 21.009,39.716 21.009,66.786 0,35.862 -11.722,64.11 -35.166,84.704 -23.444,20.621 -53.405,30.911 -89.896,30.911 -36.812,0 -66.867,-10.237 -90.137,-30.67 -23.297,-20.46 -34.925,-48.775 -34.925,-84.945 0,-27.365 6.851,-49.631 20.54,-66.786 13.689,-17.155 31.848,-27.767 54.502,-31.848 v 40.104 c -26.736,8.497 -40.104,27.994 -40.104,58.53 0,25.478 8.417,44.439 25.238,56.871 16.833,12.431 38.15,18.64 63.949,18.64 26.107,0 47.825,-6.289 65.14,-18.881 17.303,-12.592 25.947,-31.46 25.947,-56.63 0,-33.346 -14.318,-53.338 -42.941,-59.948 z m 71.738,-100.053 h -237.854 v -63.708 l 108.55,-58.53 v -10.384 l -108.55,-58.517 v -62.772 h 237.854 v 39.167 h -191.139 v 10.384 l 101.939,55.212 v 44.359 l -101.939,55.225 v 10.384 h 191.139 v 39.167 z"
   id="path9377"
   style="stroke-width:1.33814" />
  <path
   class="fil3"
   d="m 24895.339,24040.313 v -36.812 h 78.348 v -250.124 h -9.447 l -69.382,46.714 v -43.409 l 68.914,-46.728 h 51.437 v 293.547 h 72.22 v 36.812 z m 237.854,0 v -36.812 h 78.348 v -250.124 h -9.448 l -69.382,46.714 v -43.409 l 68.914,-46.728 h 51.438 v 293.547 h 72.219 v 36.812 z m 269.005,-294.015 c 22.026,-28.623 51.438,-42.941 88.25,-42.941 36.799,0 66.305,14.385 88.478,43.168 22.186,28.784 33.266,71.671 33.266,128.609 0,56.951 -11.093,99.731 -33.266,128.353 -22.187,28.637 -51.679,42.955 -88.478,42.955 -36.812,0 -66.238,-14.318 -88.25,-42.955 -22.039,-28.622 -33.038,-71.416 -33.038,-128.353 0,-57.273 11.012,-100.213 33.038,-128.836 z m 28.302,227.697 c 13.22,23.765 33.199,35.635 59.948,35.635 26.736,0 46.795,-11.883 60.176,-35.635 13.368,-23.752 20.059,-56.71 20.059,-98.861 0,-42.473 -6.691,-75.592 -20.059,-99.344 -13.381,-23.765 -33.427,-35.634 -60.176,-35.634 -26.736,0 -46.728,11.882 -59.948,35.634 -13.208,23.752 -19.818,56.871 -19.818,99.344 0,42.151 6.61,75.109 19.818,98.861 z m 293.078,66.318 h -49.083 v -54.743 h 49.083 z m 82.121,-294.015 c 22.026,-28.623 51.438,-42.941 88.25,-42.941 36.799,0 66.305,14.385 88.478,43.168 22.186,28.784 33.266,71.671 33.266,128.609 0,56.951 -11.093,99.731 -33.266,128.353 -22.186,28.637 -51.679,42.955 -88.478,42.955 -36.812,0 -66.237,-14.318 -88.25,-42.955 -22.039,-28.622 -33.038,-71.416 -33.038,-128.353 0,-57.273 11.013,-100.213 33.038,-128.836 z m 28.302,227.697 c 13.221,23.765 33.199,35.635 59.948,35.635 26.736,0 46.795,-11.883 60.176,-35.635 13.368,-23.752 20.059,-56.71 20.059,-98.861 0,-42.473 -6.691,-75.592 -20.059,-99.344 -13.381,-23.765 -33.426,-35.634 -60.176,-35.634 -26.735,0 -46.727,11.882 -59.948,35.634 -13.207,23.752 -19.818,56.871 -19.818,99.344 0,42.151 6.611,75.109 19.818,98.861 z m 538.492,-5.419 h 40.104 c -4.723,23.912 -15.816,42.86 -33.266,56.87 -17.462,13.997 -39.716,21.009 -66.786,21.009 -35.862,0 -64.11,-11.722 -84.704,-35.166 -20.621,-23.444 -30.911,-53.405 -30.911,-89.896 0,-36.812 10.237,-66.867 30.67,-90.137 20.46,-23.297 48.775,-34.925 84.945,-34.925 27.365,0 49.631,6.851 66.786,20.54 17.155,13.689 27.767,31.848 31.848,54.502 h -40.104 c -8.497,-26.736 -27.994,-40.104 -58.53,-40.104 -25.478,0 -44.44,8.417 -56.871,25.238 -12.431,16.833 -18.64,38.15 -18.64,63.949 0,26.107 6.289,47.825 18.881,65.141 12.592,17.302 31.46,25.946 56.63,25.946 33.346,0 53.338,-14.318 59.948,-42.941 z m 100.053,71.737 v -237.854 h 63.708 l 58.53,108.55 h 10.384 l 58.517,-108.55 h 62.772 v 237.854 h -39.167 v -191.139 h -10.384 l -55.212,101.939 h -44.359 l -55.225,-101.939 h -10.384 v 191.139 h -39.167 z"
   id="path9379"
   style="stroke-width:1.33814" />
  <path
   class="fil3"
   d="m 32299.823,18984.477 v -45.31 h 36.798 v 45.31 h 77.398 v 40.585 h -77.398 v 163.293 h -47.182 l -205.779,-145.83 v -58.048 z m 0,160.469 v -120.352 h -169.435 v 10.384 l 159.051,109.968 z m 114.209,-601.251 v 49.083 h -54.743 v -49.083 z m -294.015,-82.121 c -28.622,-22.026 -42.94,-51.438 -42.94,-88.25 0,-36.799 14.385,-66.305 43.168,-88.478 28.783,-22.186 71.67,-33.266 128.608,-33.266 56.951,0 99.731,11.093 128.354,33.266 28.636,22.186 42.954,51.679 42.954,88.478 0,36.812 -14.318,66.237 -42.954,88.25 -28.623,22.039 -71.416,33.038 -128.354,33.038 -57.272,0 -100.213,-11.013 -128.836,-33.038 z m 227.697,-28.302 c 23.766,-13.221 35.635,-33.199 35.635,-59.948 0,-26.736 -11.883,-46.795 -35.635,-60.176 -23.751,-13.368 -56.71,-20.059 -98.861,-20.059 -42.472,0 -75.591,6.691 -99.343,20.059 -23.765,13.381 -35.635,33.426 -35.635,60.176 0,26.735 11.883,46.727 35.635,59.948 23.752,13.207 56.871,19.818 99.343,19.818 42.151,0 75.11,-6.611 98.861,-19.818 z m -47.891,262.395 v -45.309 h 36.798 v 45.309 h 77.398 v 40.586 h -77.398 v 163.292 h -47.182 l -205.779,-145.83 v -58.048 z m 0,160.469 v -120.352 h -169.435 v 10.384 l 159.051,109.968 z"
   id="path9381"
   style="stroke-width:1.33814" />
  <path
   class="fil3"
   d="m 32234.696,21633.356 h 10.383 c 4.416,-12.9 13.623,-24.689 27.606,-35.394 14.01,-10.692 31.072,-16.044 51.211,-16.044 27.686,0 50.648,10.932 68.9,32.797 18.266,21.865 27.378,50.729 27.378,86.591 0,35.862 -9.126,64.739 -27.378,86.604 -18.252,21.865 -41.201,32.798 -68.9,32.798 -19.832,0 -36.812,-5.353 -50.97,-16.058 -14.157,-10.705 -23.444,-22.494 -27.847,-35.393 h -10.383 c -4.403,10.383 -12.739,19.911 -24.997,28.555 -12.284,8.645 -27.057,12.98 -44.372,12.98 -26.107,0 -47.344,-10.236 -63.709,-30.67 -16.365,-20.46 -24.528,-46.727 -24.528,-78.816 0,-32.088 8.176,-58.369 24.528,-78.803 16.365,-20.46 37.588,-30.67 63.709,-30.67 16.686,0 31.312,4.403 43.89,13.208 12.592,8.818 21.089,18.265 25.479,28.315 z m -107.359,18.653 c -9.608,13.06 -14.398,29.493 -14.398,49.31 0,19.832 4.79,36.264 14.398,49.324 9.594,13.06 22.895,19.59 39.876,19.59 16.995,0 30.349,-6.53 40.104,-19.59 9.755,-13.06 14.64,-29.492 14.64,-49.324 0,-19.817 -4.885,-36.25 -14.64,-49.31 -9.755,-13.06 -23.123,-19.59 -40.104,-19.59 -16.994,0 -30.282,6.53 -39.876,19.59 z m 238.79,106.65 c 11.495,-13.997 17.235,-33.106 17.235,-57.34 0,-24.22 -5.74,-43.328 -17.235,-57.339 -11.481,-14.01 -26.816,-21.008 -46.005,-21.008 -19.51,0 -34.765,6.918 -45.778,20.767 -11.012,13.85 -16.525,33.039 -16.525,57.58 0,24.542 5.513,43.731 16.525,57.58 11.013,13.85 26.268,20.768 45.778,20.768 19.189,0 34.524,-6.998 46.005,-21.008 z m -246.11,-260.75 c -28.622,-22.025 -42.94,-51.437 -42.94,-88.25 0,-36.798 14.385,-66.304 43.168,-88.477 28.783,-22.186 71.67,-33.266 128.608,-33.266 56.951,0 99.731,11.093 128.354,33.266 28.636,22.186 42.954,51.679 42.954,88.477 0,36.813 -14.318,66.238 -42.954,88.25 -28.623,22.04 -71.416,33.039 -128.354,33.039 -57.272,0 -100.213,-11.013 -128.836,-33.039 z m 227.697,-28.301 c 23.766,-13.221 35.635,-33.199 35.635,-59.949 0,-26.735 -11.883,-46.794 -35.635,-60.175 -23.751,-13.368 -56.71,-20.059 -98.861,-20.059 -42.472,0 -75.591,6.691 -99.343,20.059 -23.765,13.381 -35.635,33.426 -35.635,60.175 0,26.736 11.883,46.728 35.635,59.949 23.752,13.207 56.871,19.818 99.343,19.818 42.151,0 75.11,-6.611 98.861,-19.818 z m 66.318,-276.084 v 49.083 h -54.743 v -49.083 z m -294.015,-82.122 c -28.622,-22.025 -42.94,-51.437 -42.94,-88.25 0,-36.798 14.385,-66.304 43.168,-88.477 28.783,-22.186 71.67,-33.266 128.608,-33.266 56.951,0 99.731,11.093 128.354,33.266 28.636,22.186 42.954,51.679 42.954,88.477 0,36.813 -14.318,66.238 -42.954,88.25 -28.623,22.04 -71.416,33.039 -128.354,33.039 -57.272,0 -100.213,-11.013 -128.836,-33.039 z m 227.697,-28.301 c 23.766,-13.221 35.635,-33.199 35.635,-59.949 0,-26.735 -11.883,-46.794 -35.635,-60.175 -23.751,-13.368 -56.71,-20.059 -98.861,-20.059 -42.472,0 -75.591,6.691 -99.343,20.059 -23.765,13.381 -35.635,33.426 -35.635,60.175 0,26.736 11.883,46.728 35.635,59.949 23.752,13.207 56.871,19.818 99.343,19.818 42.151,0 75.11,-6.611 98.861,-19.818 z m -5.419,-538.492 v -40.104 c 23.912,4.723 42.86,15.816 56.871,33.266 13.997,17.462 21.008,39.716 21.008,66.786 0,35.862 -11.722,64.11 -35.166,84.704 -23.444,20.621 -53.405,30.911 -89.896,30.911 -36.812,0 -66.866,-10.237 -90.136,-30.67 -23.297,-20.46 -34.926,-48.775 -34.926,-84.945 0,-27.365 6.851,-49.631 20.541,-66.786 13.689,-17.155 31.847,-27.767 54.502,-31.848 v 40.104 c -26.736,8.497 -40.104,27.994 -40.104,58.53 0,25.478 8.417,44.439 25.237,56.871 16.834,12.431 38.15,18.64 63.95,18.64 26.107,0 47.825,-6.289 65.14,-18.881 17.302,-12.592 25.947,-31.46 25.947,-56.63 0,-33.346 -14.319,-53.338 -42.941,-59.948 z m 71.737,-100.053 h -237.853 v -63.708 l 108.549,-58.53 v -10.384 l -108.549,-58.517 v -62.772 h 237.853 v 39.167 h -191.139 v 10.384 l 101.939,55.212 v 44.359 l -101.939,55.225 v 10.384 h 191.139 v 39.167 z"
   id="path9383"
   style="stroke-width:1.33814" />
  <path
   class="fil3"
   d="m 33725.325,22919.544 c 30.188,0 55.372,10.157 75.497,30.443 20.139,20.299 30.202,46.005 30.202,77.157 0,32.396 -10.156,59.467 -30.443,81.158 -20.286,21.718 -47.584,32.57 -81.867,32.57 -37.441,0 -67.027,-12.913 -88.731,-38.699 -21.705,-25.799 -32.557,-67.027 -32.557,-123.644 0,-53.177 10.625,-96.586 31.861,-130.254 21.236,-33.654 52.455,-50.488 93.669,-50.488 27.365,0 49.792,7.307 67.255,21.946 17.476,14.639 28.074,33.587 31.861,56.871 h -41.067 c -8.176,-27.994 -27.513,-42.004 -58.049,-42.004 -26.107,0 -46.567,10.383 -61.353,31.151 -14.787,20.768 -22.815,49.391 -24.073,85.882 h 10.384 c 6.918,-8.497 17.074,-15.964 30.429,-22.427 13.381,-6.45 29.024,-9.675 46.968,-9.675 z m -58.999,164.243 c 13.85,13.529 31.139,20.3 51.907,20.3 20.781,0 37.842,-6.611 51.21,-19.832 13.381,-13.22 20.059,-31.606 20.059,-55.211 0,-23.605 -6.758,-41.683 -20.3,-54.275 -13.528,-12.592 -30.817,-18.881 -51.906,-18.881 -20.768,0 -37.909,6.45 -51.438,19.35 -13.542,12.899 -20.3,30.67 -20.3,53.324 0,23.297 6.919,41.697 20.768,55.225 z m 243.996,-243.045 c 22.026,-28.623 51.438,-42.941 88.25,-42.941 36.799,0 66.305,14.385 88.477,43.168 22.187,28.783 33.266,71.671 33.266,128.608 0,56.951 -11.093,99.731 -33.266,128.354 -22.186,28.636 -51.678,42.954 -88.477,42.954 -36.812,0 -66.238,-14.318 -88.25,-42.954 -22.039,-28.623 -33.039,-71.416 -33.039,-128.354 0,-57.272 11.013,-100.213 33.039,-128.835 z m 28.301,227.697 c 13.221,23.765 33.2,35.634 59.949,35.634 26.736,0 46.795,-11.882 60.176,-35.634 13.368,-23.752 20.059,-56.71 20.059,-98.862 0,-42.472 -6.691,-75.591 -20.059,-99.343 -13.381,-23.765 -33.427,-35.634 -60.176,-35.634 -26.736,0 -46.728,11.882 -59.949,35.634 -13.207,23.752 -19.817,56.871 -19.817,99.343 0,42.152 6.61,75.11 19.817,98.862 z m 293.079,66.318 h -49.083 v -54.743 h 49.083 z m 82.121,-294.015 c 22.026,-28.623 51.438,-42.941 88.25,-42.941 36.799,0 66.305,14.385 88.478,43.168 22.186,28.783 33.266,71.671 33.266,128.608 0,56.951 -11.093,99.731 -33.266,128.354 -22.187,28.636 -51.679,42.954 -88.478,42.954 -36.812,0 -66.237,-14.318 -88.25,-42.954 -22.039,-28.623 -33.038,-71.416 -33.038,-128.354 0,-57.272 11.013,-100.213 33.038,-128.835 z m 28.302,227.697 c 13.221,23.765 33.199,35.634 59.948,35.634 26.736,0 46.795,-11.882 60.176,-35.634 13.368,-23.752 20.059,-56.71 20.059,-98.862 0,-42.472 -6.691,-75.591 -20.059,-99.343 -13.381,-23.765 -33.426,-35.634 -60.176,-35.634 -26.736,0 -46.727,11.882 -59.948,35.634 -13.208,23.752 -19.818,56.871 -19.818,99.343 0,42.152 6.61,75.11 19.818,98.862 z"
   id="path9385"
   style="stroke-width:1.33814" />
 </g>
</svg>
